%TF.GenerationSoftware,KiCad,Pcbnew,6.0.4-6f826c9f35~116~ubuntu20.04.1*%
%TF.CreationDate,2022-07-20T12:46:52+00:00*%
%TF.ProjectId,TPS63060V01B,54505336-3330-4363-9056-3031422e6b69,rev?*%
%TF.SameCoordinates,Original*%
%TF.FileFunction,Legend,Top*%
%TF.FilePolarity,Positive*%
%FSLAX46Y46*%
G04 Gerber Fmt 4.6, Leading zero omitted, Abs format (unit mm)*
G04 Created by KiCad (PCBNEW 6.0.4-6f826c9f35~116~ubuntu20.04.1) date 2022-07-20 12:46:52*
%MOMM*%
%LPD*%
G01*
G04 APERTURE LIST*
%ADD10C,0.101600*%
%ADD11C,0.152400*%
G04 APERTURE END LIST*
D10*
X145803861Y-96558220D02*
X144635461Y-96558220D01*
X144635461Y-96113116D01*
X144691100Y-96001840D01*
X144746738Y-95946201D01*
X144858014Y-95890563D01*
X145024928Y-95890563D01*
X145136204Y-95946201D01*
X145191842Y-96001840D01*
X145247480Y-96113116D01*
X145247480Y-96558220D01*
X144635461Y-95167268D02*
X144635461Y-94944716D01*
X144691100Y-94833440D01*
X144802376Y-94722163D01*
X145024928Y-94666525D01*
X145414395Y-94666525D01*
X145636947Y-94722163D01*
X145748223Y-94833440D01*
X145803861Y-94944716D01*
X145803861Y-95167268D01*
X145748223Y-95278544D01*
X145636947Y-95389820D01*
X145414395Y-95445459D01*
X145024928Y-95445459D01*
X144802376Y-95389820D01*
X144691100Y-95278544D01*
X144635461Y-95167268D01*
X144635461Y-94277059D02*
X145803861Y-93998868D01*
X144969290Y-93776316D01*
X145803861Y-93553763D01*
X144635461Y-93275573D01*
X145191842Y-92830468D02*
X145191842Y-92441001D01*
X145803861Y-92274087D02*
X145803861Y-92830468D01*
X144635461Y-92830468D01*
X144635461Y-92274087D01*
X145803861Y-91105687D02*
X145247480Y-91495154D01*
X145803861Y-91773344D02*
X144635461Y-91773344D01*
X144635461Y-91328240D01*
X144691100Y-91216963D01*
X144746738Y-91161325D01*
X144858014Y-91105687D01*
X145024928Y-91105687D01*
X145136204Y-91161325D01*
X145191842Y-91216963D01*
X145247480Y-91328240D01*
X145247480Y-91773344D01*
X144635461Y-89492182D02*
X144635461Y-89269630D01*
X144691100Y-89158354D01*
X144802376Y-89047078D01*
X145024928Y-88991440D01*
X145414395Y-88991440D01*
X145636947Y-89047078D01*
X145748223Y-89158354D01*
X145803861Y-89269630D01*
X145803861Y-89492182D01*
X145748223Y-89603459D01*
X145636947Y-89714735D01*
X145414395Y-89770373D01*
X145024928Y-89770373D01*
X144802376Y-89714735D01*
X144691100Y-89603459D01*
X144635461Y-89492182D01*
X144635461Y-88490697D02*
X145581309Y-88490697D01*
X145692585Y-88435059D01*
X145748223Y-88379420D01*
X145803861Y-88268144D01*
X145803861Y-88045592D01*
X145748223Y-87934316D01*
X145692585Y-87878678D01*
X145581309Y-87823040D01*
X144635461Y-87823040D01*
X144635461Y-87433573D02*
X144635461Y-86765916D01*
X145803861Y-87099744D02*
X144635461Y-87099744D01*
X142099211Y-95207061D02*
X141542830Y-95207061D01*
X141487192Y-95763442D01*
X141542830Y-95707804D01*
X141654106Y-95652166D01*
X141932297Y-95652166D01*
X142043573Y-95707804D01*
X142099211Y-95763442D01*
X142154849Y-95874719D01*
X142154849Y-96152909D01*
X142099211Y-96264185D01*
X142043573Y-96319823D01*
X141932297Y-96375461D01*
X141654106Y-96375461D01*
X141542830Y-96319823D01*
X141487192Y-96264185D01*
X142488678Y-95207061D02*
X142878144Y-96375461D01*
X143267611Y-95207061D01*
X141431554Y-97747061D02*
X142154849Y-97747061D01*
X141765382Y-98192166D01*
X141932297Y-98192166D01*
X142043573Y-98247804D01*
X142099211Y-98303442D01*
X142154849Y-98414719D01*
X142154849Y-98692909D01*
X142099211Y-98804185D01*
X142043573Y-98859823D01*
X141932297Y-98915461D01*
X141598468Y-98915461D01*
X141487192Y-98859823D01*
X141431554Y-98804185D01*
X142655592Y-98804185D02*
X142711230Y-98859823D01*
X142655592Y-98915461D01*
X142599954Y-98859823D01*
X142655592Y-98804185D01*
X142655592Y-98915461D01*
X143100697Y-97747061D02*
X143823992Y-97747061D01*
X143434525Y-98192166D01*
X143601440Y-98192166D01*
X143712716Y-98247804D01*
X143768354Y-98303442D01*
X143823992Y-98414719D01*
X143823992Y-98692909D01*
X143768354Y-98804185D01*
X143712716Y-98859823D01*
X143601440Y-98915461D01*
X143267611Y-98915461D01*
X143156335Y-98859823D01*
X143100697Y-98804185D01*
X144157820Y-97747061D02*
X144547287Y-98915461D01*
X144936754Y-97747061D01*
X146249692Y-115638338D02*
X146305330Y-115582700D01*
X146416606Y-115527061D01*
X146694797Y-115527061D01*
X146806073Y-115582700D01*
X146861711Y-115638338D01*
X146917349Y-115749614D01*
X146917349Y-115860890D01*
X146861711Y-116027804D01*
X146194054Y-116695461D01*
X146917349Y-116695461D01*
X147418092Y-116584185D02*
X147473730Y-116639823D01*
X147418092Y-116695461D01*
X147362454Y-116639823D01*
X147418092Y-116584185D01*
X147418092Y-116695461D01*
X148530854Y-115527061D02*
X147974473Y-115527061D01*
X147918835Y-116083442D01*
X147974473Y-116027804D01*
X148085749Y-115972166D01*
X148363940Y-115972166D01*
X148475216Y-116027804D01*
X148530854Y-116083442D01*
X148586492Y-116194719D01*
X148586492Y-116472909D01*
X148530854Y-116584185D01*
X148475216Y-116639823D01*
X148363940Y-116695461D01*
X148085749Y-116695461D01*
X147974473Y-116639823D01*
X147918835Y-116584185D01*
X149087235Y-116250357D02*
X149977444Y-116250357D01*
X151145844Y-116695461D02*
X150478187Y-116695461D01*
X150812016Y-116695461D02*
X150812016Y-115527061D01*
X150700740Y-115693976D01*
X150589463Y-115805252D01*
X150478187Y-115860890D01*
X151590949Y-115638338D02*
X151646587Y-115582700D01*
X151757863Y-115527061D01*
X152036054Y-115527061D01*
X152147330Y-115582700D01*
X152202968Y-115638338D01*
X152258606Y-115749614D01*
X152258606Y-115860890D01*
X152202968Y-116027804D01*
X151535311Y-116695461D01*
X152258606Y-116695461D01*
X152592435Y-115527061D02*
X152981901Y-116695461D01*
X153371368Y-115527061D01*
X138685330Y-111955942D02*
X139074797Y-111955942D01*
X139241711Y-112567961D02*
X138685330Y-112567961D01*
X138685330Y-111399561D01*
X139241711Y-111399561D01*
X139742454Y-112567961D02*
X139742454Y-111399561D01*
X140410111Y-112567961D01*
X140410111Y-111399561D01*
X141542830Y-101455461D02*
X141542830Y-100287061D01*
X141987935Y-100287061D01*
X142099211Y-100342700D01*
X142154849Y-100398338D01*
X142210487Y-100509614D01*
X142210487Y-100676528D01*
X142154849Y-100787804D01*
X142099211Y-100843442D01*
X141987935Y-100899080D01*
X141542830Y-100899080D01*
X143323249Y-100342700D02*
X143211973Y-100287061D01*
X143045059Y-100287061D01*
X142878144Y-100342700D01*
X142766868Y-100453976D01*
X142711230Y-100565252D01*
X142655592Y-100787804D01*
X142655592Y-100954719D01*
X142711230Y-101177271D01*
X142766868Y-101288547D01*
X142878144Y-101399823D01*
X143045059Y-101455461D01*
X143156335Y-101455461D01*
X143323249Y-101399823D01*
X143378887Y-101344185D01*
X143378887Y-100954719D01*
X143156335Y-100954719D01*
X156913338Y-101857507D02*
X156857700Y-101801869D01*
X156802061Y-101690593D01*
X156802061Y-101412402D01*
X156857700Y-101301126D01*
X156913338Y-101245488D01*
X157024614Y-101189850D01*
X157135890Y-101189850D01*
X157302804Y-101245488D01*
X157970461Y-101913145D01*
X157970461Y-101189850D01*
X156802061Y-100466555D02*
X156802061Y-100355279D01*
X156857700Y-100244002D01*
X156913338Y-100188364D01*
X157024614Y-100132726D01*
X157247166Y-100077088D01*
X157525357Y-100077088D01*
X157747909Y-100132726D01*
X157859185Y-100188364D01*
X157914823Y-100244002D01*
X157970461Y-100355279D01*
X157970461Y-100466555D01*
X157914823Y-100577831D01*
X157859185Y-100633469D01*
X157747909Y-100689107D01*
X157525357Y-100744745D01*
X157247166Y-100744745D01*
X157024614Y-100689107D01*
X156913338Y-100633469D01*
X156857700Y-100577831D01*
X156802061Y-100466555D01*
X157970461Y-98964326D02*
X157970461Y-99631983D01*
X157970461Y-99298155D02*
X156802061Y-99298155D01*
X156968976Y-99409431D01*
X157080252Y-99520707D01*
X157135890Y-99631983D01*
X156802061Y-97907202D02*
X156802061Y-98463583D01*
X157358442Y-98519221D01*
X157302804Y-98463583D01*
X157247166Y-98352307D01*
X157247166Y-98074117D01*
X157302804Y-97962840D01*
X157358442Y-97907202D01*
X157469719Y-97851564D01*
X157747909Y-97851564D01*
X157859185Y-97907202D01*
X157914823Y-97962840D01*
X157970461Y-98074117D01*
X157970461Y-98352307D01*
X157914823Y-98463583D01*
X157859185Y-98519221D01*
X138518416Y-113939561D02*
X138907882Y-115107961D01*
X139297349Y-113939561D01*
X139686816Y-115107961D02*
X139686816Y-114329028D01*
X139686816Y-113939561D02*
X139631178Y-113995200D01*
X139686816Y-114050838D01*
X139742454Y-113995200D01*
X139686816Y-113939561D01*
X139686816Y-114050838D01*
X140243197Y-114329028D02*
X140243197Y-115107961D01*
X140243197Y-114440304D02*
X140298835Y-114384666D01*
X140410111Y-114329028D01*
X140577025Y-114329028D01*
X140688301Y-114384666D01*
X140743940Y-114495942D01*
X140743940Y-115107961D01*
X145804345Y-115006361D02*
X145804345Y-113837961D01*
X146249450Y-113837961D01*
X146360726Y-113893600D01*
X146416364Y-113949238D01*
X146472002Y-114060514D01*
X146472002Y-114227428D01*
X146416364Y-114338704D01*
X146360726Y-114394342D01*
X146249450Y-114449980D01*
X145804345Y-114449980D01*
X147195298Y-113837961D02*
X147417850Y-113837961D01*
X147529126Y-113893600D01*
X147640402Y-114004876D01*
X147696040Y-114227428D01*
X147696040Y-114616895D01*
X147640402Y-114839447D01*
X147529126Y-114950723D01*
X147417850Y-115006361D01*
X147195298Y-115006361D01*
X147084021Y-114950723D01*
X146972745Y-114839447D01*
X146917107Y-114616895D01*
X146917107Y-114227428D01*
X146972745Y-114004876D01*
X147084021Y-113893600D01*
X147195298Y-113837961D01*
X148085507Y-113837961D02*
X148363698Y-115006361D01*
X148586250Y-114171790D01*
X148808802Y-115006361D01*
X149086993Y-113837961D01*
X149532098Y-114394342D02*
X149921564Y-114394342D01*
X150088479Y-115006361D02*
X149532098Y-115006361D01*
X149532098Y-113837961D01*
X150088479Y-113837961D01*
X151256879Y-115006361D02*
X150867412Y-114449980D01*
X150589221Y-115006361D02*
X150589221Y-113837961D01*
X151034326Y-113837961D01*
X151145602Y-113893600D01*
X151201240Y-113949238D01*
X151256879Y-114060514D01*
X151256879Y-114227428D01*
X151201240Y-114338704D01*
X151145602Y-114394342D01*
X151034326Y-114449980D01*
X150589221Y-114449980D01*
X152647831Y-115006361D02*
X152647831Y-113837961D01*
X153204212Y-115006361D02*
X153204212Y-113837961D01*
X153871869Y-115006361D01*
X153871869Y-113837961D01*
X141542830Y-103995461D02*
X141542830Y-102827061D01*
X141932297Y-103661633D01*
X142321763Y-102827061D01*
X142321763Y-103995461D01*
X143100697Y-102827061D02*
X143323249Y-102827061D01*
X143434525Y-102882700D01*
X143545801Y-102993976D01*
X143601440Y-103216528D01*
X143601440Y-103605995D01*
X143545801Y-103828547D01*
X143434525Y-103939823D01*
X143323249Y-103995461D01*
X143100697Y-103995461D01*
X142989420Y-103939823D01*
X142878144Y-103828547D01*
X142822506Y-103605995D01*
X142822506Y-103216528D01*
X142878144Y-102993976D01*
X142989420Y-102882700D01*
X143100697Y-102827061D01*
X144102182Y-103995461D02*
X144102182Y-102827061D01*
X144380373Y-102827061D01*
X144547287Y-102882700D01*
X144658563Y-102993976D01*
X144714201Y-103105252D01*
X144769840Y-103327804D01*
X144769840Y-103494719D01*
X144714201Y-103717271D01*
X144658563Y-103828547D01*
X144547287Y-103939823D01*
X144380373Y-103995461D01*
X144102182Y-103995461D01*
X145270582Y-103383442D02*
X145660049Y-103383442D01*
X145826963Y-103995461D02*
X145270582Y-103995461D01*
X145270582Y-102827061D01*
X145826963Y-102827061D01*
X134259561Y-99428783D02*
X135427961Y-99039317D01*
X134259561Y-98649850D01*
X135372323Y-97759640D02*
X135427961Y-97870917D01*
X135427961Y-98093469D01*
X135372323Y-98204745D01*
X135316685Y-98260383D01*
X135205409Y-98316021D01*
X134871580Y-98316021D01*
X134760304Y-98260383D01*
X134704666Y-98204745D01*
X134649028Y-98093469D01*
X134649028Y-97870917D01*
X134704666Y-97759640D01*
X135372323Y-96758155D02*
X135427961Y-96869431D01*
X135427961Y-97091983D01*
X135372323Y-97203260D01*
X135316685Y-97258898D01*
X135205409Y-97314536D01*
X134871580Y-97314536D01*
X134760304Y-97258898D01*
X134704666Y-97203260D01*
X134649028Y-97091983D01*
X134649028Y-96869431D01*
X134704666Y-96758155D01*
X135372323Y-95422840D02*
X135427961Y-95255926D01*
X135427961Y-94977736D01*
X135372323Y-94866460D01*
X135316685Y-94810821D01*
X135205409Y-94755183D01*
X135094133Y-94755183D01*
X134982857Y-94810821D01*
X134927219Y-94866460D01*
X134871580Y-94977736D01*
X134815942Y-95200288D01*
X134760304Y-95311564D01*
X134704666Y-95367202D01*
X134593390Y-95422840D01*
X134482114Y-95422840D01*
X134370838Y-95367202D01*
X134315200Y-95311564D01*
X134259561Y-95200288D01*
X134259561Y-94922098D01*
X134315200Y-94755183D01*
X134815942Y-94254440D02*
X134815942Y-93864974D01*
X135427961Y-93698060D02*
X135427961Y-94254440D01*
X134259561Y-94254440D01*
X134259561Y-93698060D01*
X134259561Y-93364231D02*
X134259561Y-92696574D01*
X135427961Y-93030402D02*
X134259561Y-93030402D01*
X140134823Y-106937507D02*
X140190461Y-106770593D01*
X140190461Y-106492402D01*
X140134823Y-106381126D01*
X140079185Y-106325488D01*
X139967909Y-106269850D01*
X139856633Y-106269850D01*
X139745357Y-106325488D01*
X139689719Y-106381126D01*
X139634080Y-106492402D01*
X139578442Y-106714955D01*
X139522804Y-106826231D01*
X139467166Y-106881869D01*
X139355890Y-106937507D01*
X139244614Y-106937507D01*
X139133338Y-106881869D01*
X139077700Y-106826231D01*
X139022061Y-106714955D01*
X139022061Y-106436764D01*
X139077700Y-106269850D01*
X140190461Y-105769107D02*
X139022061Y-105769107D01*
X140190461Y-105101450D01*
X139022061Y-105101450D01*
X156065461Y-103389369D02*
X154897061Y-103389369D01*
X155731633Y-102999902D01*
X154897061Y-102610436D01*
X156065461Y-102610436D01*
X156065461Y-101497674D02*
X156065461Y-102054055D01*
X154897061Y-102054055D01*
X155731633Y-101163845D02*
X155731633Y-100607464D01*
X156065461Y-101275121D02*
X154897061Y-100885655D01*
X156065461Y-100496188D01*
X155453442Y-99717255D02*
X155509080Y-99550340D01*
X155564719Y-99494702D01*
X155675995Y-99439064D01*
X155842909Y-99439064D01*
X155954185Y-99494702D01*
X156009823Y-99550340D01*
X156065461Y-99661617D01*
X156065461Y-100106721D01*
X154897061Y-100106721D01*
X154897061Y-99717255D01*
X154952700Y-99605979D01*
X155008338Y-99550340D01*
X155119614Y-99494702D01*
X155230890Y-99494702D01*
X155342166Y-99550340D01*
X155397804Y-99605979D01*
X155453442Y-99717255D01*
X155453442Y-100106721D01*
X155954185Y-98938321D02*
X156009823Y-98882683D01*
X156065461Y-98938321D01*
X156009823Y-98993960D01*
X155954185Y-98938321D01*
X156065461Y-98938321D01*
X155954185Y-97714283D02*
X156009823Y-97769921D01*
X156065461Y-97936836D01*
X156065461Y-98048112D01*
X156009823Y-98215026D01*
X155898547Y-98326302D01*
X155787271Y-98381940D01*
X155564719Y-98437579D01*
X155397804Y-98437579D01*
X155175252Y-98381940D01*
X155063976Y-98326302D01*
X154952700Y-98215026D01*
X154897061Y-98048112D01*
X154897061Y-97936836D01*
X154952700Y-97769921D01*
X155008338Y-97714283D01*
X154897061Y-97324817D02*
X154897061Y-96545883D01*
X156065461Y-97324817D01*
X156065461Y-96545883D01*
X161247061Y-111493783D02*
X161247061Y-110826126D01*
X162415461Y-111159955D02*
X161247061Y-111159955D01*
X162415461Y-110436660D02*
X161247061Y-110436660D01*
X161247061Y-109991555D01*
X161302700Y-109880279D01*
X161358338Y-109824640D01*
X161469614Y-109769002D01*
X161636528Y-109769002D01*
X161747804Y-109824640D01*
X161803442Y-109880279D01*
X161859080Y-109991555D01*
X161859080Y-110436660D01*
X162359823Y-109323898D02*
X162415461Y-109156983D01*
X162415461Y-108878793D01*
X162359823Y-108767517D01*
X162304185Y-108711879D01*
X162192909Y-108656240D01*
X162081633Y-108656240D01*
X161970357Y-108711879D01*
X161914719Y-108767517D01*
X161859080Y-108878793D01*
X161803442Y-109101345D01*
X161747804Y-109212621D01*
X161692166Y-109268260D01*
X161580890Y-109323898D01*
X161469614Y-109323898D01*
X161358338Y-109268260D01*
X161302700Y-109212621D01*
X161247061Y-109101345D01*
X161247061Y-108823155D01*
X161302700Y-108656240D01*
X161247061Y-107654755D02*
X161247061Y-107877307D01*
X161302700Y-107988583D01*
X161358338Y-108044221D01*
X161525252Y-108155498D01*
X161747804Y-108211136D01*
X162192909Y-108211136D01*
X162304185Y-108155498D01*
X162359823Y-108099860D01*
X162415461Y-107988583D01*
X162415461Y-107766031D01*
X162359823Y-107654755D01*
X162304185Y-107599117D01*
X162192909Y-107543479D01*
X161914719Y-107543479D01*
X161803442Y-107599117D01*
X161747804Y-107654755D01*
X161692166Y-107766031D01*
X161692166Y-107988583D01*
X161747804Y-108099860D01*
X161803442Y-108155498D01*
X161914719Y-108211136D01*
X161247061Y-107154012D02*
X161247061Y-106430717D01*
X161692166Y-106820183D01*
X161692166Y-106653269D01*
X161747804Y-106541993D01*
X161803442Y-106486355D01*
X161914719Y-106430717D01*
X162192909Y-106430717D01*
X162304185Y-106486355D01*
X162359823Y-106541993D01*
X162415461Y-106653269D01*
X162415461Y-106987098D01*
X162359823Y-107098374D01*
X162304185Y-107154012D01*
X161247061Y-105707421D02*
X161247061Y-105596145D01*
X161302700Y-105484869D01*
X161358338Y-105429231D01*
X161469614Y-105373593D01*
X161692166Y-105317955D01*
X161970357Y-105317955D01*
X162192909Y-105373593D01*
X162304185Y-105429231D01*
X162359823Y-105484869D01*
X162415461Y-105596145D01*
X162415461Y-105707421D01*
X162359823Y-105818698D01*
X162304185Y-105874336D01*
X162192909Y-105929974D01*
X161970357Y-105985612D01*
X161692166Y-105985612D01*
X161469614Y-105929974D01*
X161358338Y-105874336D01*
X161302700Y-105818698D01*
X161247061Y-105707421D01*
X161247061Y-104316469D02*
X161247061Y-104539021D01*
X161302700Y-104650298D01*
X161358338Y-104705936D01*
X161525252Y-104817212D01*
X161747804Y-104872850D01*
X162192909Y-104872850D01*
X162304185Y-104817212D01*
X162359823Y-104761574D01*
X162415461Y-104650298D01*
X162415461Y-104427745D01*
X162359823Y-104316469D01*
X162304185Y-104260831D01*
X162192909Y-104205193D01*
X161914719Y-104205193D01*
X161803442Y-104260831D01*
X161747804Y-104316469D01*
X161692166Y-104427745D01*
X161692166Y-104650298D01*
X161747804Y-104761574D01*
X161803442Y-104817212D01*
X161914719Y-104872850D01*
X161247061Y-103481898D02*
X161247061Y-103370621D01*
X161302700Y-103259345D01*
X161358338Y-103203707D01*
X161469614Y-103148069D01*
X161692166Y-103092431D01*
X161970357Y-103092431D01*
X162192909Y-103148069D01*
X162304185Y-103203707D01*
X162359823Y-103259345D01*
X162415461Y-103370621D01*
X162415461Y-103481898D01*
X162359823Y-103593174D01*
X162304185Y-103648812D01*
X162192909Y-103704450D01*
X161970357Y-103760088D01*
X161692166Y-103760088D01*
X161469614Y-103704450D01*
X161358338Y-103648812D01*
X161302700Y-103593174D01*
X161247061Y-103481898D01*
X161247061Y-102758602D02*
X162415461Y-102369136D01*
X161247061Y-101979669D01*
X161247061Y-101367650D02*
X161247061Y-101256374D01*
X161302700Y-101145098D01*
X161358338Y-101089460D01*
X161469614Y-101033821D01*
X161692166Y-100978183D01*
X161970357Y-100978183D01*
X162192909Y-101033821D01*
X162304185Y-101089460D01*
X162359823Y-101145098D01*
X162415461Y-101256374D01*
X162415461Y-101367650D01*
X162359823Y-101478926D01*
X162304185Y-101534564D01*
X162192909Y-101590202D01*
X161970357Y-101645840D01*
X161692166Y-101645840D01*
X161469614Y-101590202D01*
X161358338Y-101534564D01*
X161302700Y-101478926D01*
X161247061Y-101367650D01*
X162415461Y-99865421D02*
X162415461Y-100533079D01*
X162415461Y-100199250D02*
X161247061Y-100199250D01*
X161413976Y-100310526D01*
X161525252Y-100421802D01*
X161580890Y-100533079D01*
X162081633Y-99420317D02*
X162081633Y-98863936D01*
X162415461Y-99531593D02*
X161247061Y-99142126D01*
X162415461Y-98752660D01*
X150756257Y-102257497D02*
X150756257Y-101367287D01*
X151201361Y-101812392D02*
X150311152Y-101812392D01*
X150032961Y-100977820D02*
X151201361Y-100588354D01*
X150032961Y-100198887D01*
X151145723Y-99308678D02*
X151201361Y-99419954D01*
X151201361Y-99642506D01*
X151145723Y-99753782D01*
X151090085Y-99809420D01*
X150978809Y-99865059D01*
X150644980Y-99865059D01*
X150533704Y-99809420D01*
X150478066Y-99753782D01*
X150422428Y-99642506D01*
X150422428Y-99419954D01*
X150478066Y-99308678D01*
X151145723Y-98307192D02*
X151201361Y-98418468D01*
X151201361Y-98641020D01*
X151145723Y-98752297D01*
X151090085Y-98807935D01*
X150978809Y-98863573D01*
X150644980Y-98863573D01*
X150533704Y-98807935D01*
X150478066Y-98752297D01*
X150422428Y-98641020D01*
X150422428Y-98418468D01*
X150478066Y-98307192D01*
X157191407Y-114790461D02*
X157191407Y-115625033D01*
X157135769Y-115791947D01*
X157024493Y-115903223D01*
X156857579Y-115958861D01*
X156746302Y-115958861D01*
X157692150Y-115625033D02*
X158248531Y-115625033D01*
X157580874Y-115958861D02*
X157970340Y-114790461D01*
X158359807Y-115958861D01*
X159416931Y-115847585D02*
X159361293Y-115903223D01*
X159194379Y-115958861D01*
X159083102Y-115958861D01*
X158916188Y-115903223D01*
X158804912Y-115791947D01*
X158749274Y-115680671D01*
X158693636Y-115458119D01*
X158693636Y-115291204D01*
X158749274Y-115068652D01*
X158804912Y-114957376D01*
X158916188Y-114846100D01*
X159083102Y-114790461D01*
X159194379Y-114790461D01*
X159361293Y-114846100D01*
X159416931Y-114901738D01*
X159917674Y-115958861D02*
X159917674Y-114790461D01*
X159917674Y-115346842D02*
X160585331Y-115346842D01*
X160585331Y-115958861D02*
X160585331Y-114790461D01*
X161364264Y-114790461D02*
X161586817Y-114790461D01*
X161698093Y-114846100D01*
X161809369Y-114957376D01*
X161865007Y-115179928D01*
X161865007Y-115569395D01*
X161809369Y-115791947D01*
X161698093Y-115903223D01*
X161586817Y-115958861D01*
X161364264Y-115958861D01*
X161252988Y-115903223D01*
X161141712Y-115791947D01*
X161086074Y-115569395D01*
X161086074Y-115179928D01*
X161141712Y-114957376D01*
X161252988Y-114846100D01*
X161364264Y-114790461D01*
D11*
%TO.C,SV1*%
X138023600Y-111353600D02*
X138023600Y-112623600D01*
X135483600Y-111353600D02*
X136118600Y-110718600D01*
X136118600Y-108178600D02*
X135483600Y-108813600D01*
X136118600Y-115798600D02*
X135483600Y-115163600D01*
X138023600Y-112623600D02*
X137388600Y-113258600D01*
X137388600Y-113258600D02*
X138023600Y-113893600D01*
X138023600Y-110083600D02*
X137388600Y-110718600D01*
X135483600Y-110083600D02*
X135483600Y-108813600D01*
X136118600Y-110718600D02*
X135483600Y-110083600D01*
X138023600Y-108813600D02*
X137388600Y-108178600D01*
X137388600Y-108178600D02*
X136118600Y-108178600D01*
X135483600Y-112623600D02*
X135483600Y-111353600D01*
X136118600Y-113258600D02*
X135483600Y-112623600D01*
X135483600Y-113893600D02*
X136118600Y-113258600D01*
X137388600Y-110718600D02*
X138023600Y-111353600D01*
X138023600Y-113893600D02*
X138023600Y-115163600D01*
X138023600Y-115163600D02*
X137388600Y-115798600D01*
X135483600Y-115163600D02*
X135483600Y-113893600D01*
X137388600Y-115798600D02*
X136118600Y-115798600D01*
X138023600Y-108813600D02*
X138023600Y-110083600D01*
G36*
X137007600Y-112242600D02*
G01*
X136499600Y-112242600D01*
X136499600Y-111734600D01*
X137007600Y-111734600D01*
X137007600Y-112242600D01*
G37*
%TO.C,SV6*%
X140881100Y-102781100D02*
X140246100Y-102146100D01*
X138341100Y-104051100D02*
X137706100Y-104686100D01*
X138976100Y-104686100D02*
X138341100Y-104051100D01*
X135801100Y-104051100D02*
X135801100Y-102781100D01*
X140246100Y-104686100D02*
X138976100Y-104686100D01*
X135801100Y-102781100D02*
X136436100Y-102146100D01*
X137706100Y-102146100D02*
X138341100Y-102781100D01*
X138976100Y-102146100D02*
X140246100Y-102146100D01*
X136436100Y-104686100D02*
X135801100Y-104051100D01*
X138341100Y-102781100D02*
X138976100Y-102146100D01*
X140881100Y-104051100D02*
X140881100Y-102781100D01*
X136436100Y-102146100D02*
X137706100Y-102146100D01*
X137706100Y-104686100D02*
X136436100Y-104686100D01*
X140246100Y-104686100D02*
X140881100Y-104051100D01*
G36*
X137325100Y-103670100D02*
G01*
X136817100Y-103670100D01*
X136817100Y-103162100D01*
X137325100Y-103162100D01*
X137325100Y-103670100D01*
G37*
%TO.C,SV4*%
X140246100Y-97066100D02*
X140881100Y-97701100D01*
X136436100Y-97066100D02*
X135801100Y-96431100D01*
X140246100Y-94526100D02*
X140881100Y-95161100D01*
X140246100Y-99606100D02*
X140881100Y-98971100D01*
X135801100Y-96431100D02*
X135801100Y-95161100D01*
X135801100Y-97701100D02*
X136436100Y-97066100D01*
X135801100Y-98971100D02*
X136436100Y-99606100D01*
X140881100Y-97701100D02*
X140881100Y-98971100D01*
X135801100Y-98971100D02*
X135801100Y-97701100D01*
X140881100Y-96431100D02*
X140246100Y-97066100D01*
X140881100Y-95161100D02*
X140881100Y-96431100D01*
X136436100Y-99606100D02*
X140246100Y-99606100D01*
X136436100Y-94526100D02*
X140246100Y-94526100D01*
X135801100Y-95161100D02*
X136436100Y-94526100D01*
%TO.C,SV5*%
X152628600Y-87541100D02*
X153898600Y-87541100D01*
X149453600Y-91986100D02*
X148818600Y-92621100D01*
X148818600Y-92621100D02*
X147548600Y-92621100D01*
X153898600Y-92621100D02*
X152628600Y-92621100D01*
X148818600Y-87541100D02*
X149453600Y-88176100D01*
X147548600Y-92621100D02*
X146913600Y-91986100D01*
X150088600Y-87541100D02*
X151358600Y-87541100D01*
X151993600Y-91986100D02*
X151358600Y-92621100D01*
X154533600Y-91986100D02*
X154533600Y-88176100D01*
X153898600Y-92621100D02*
X154533600Y-91986100D01*
X147548600Y-87541100D02*
X148818600Y-87541100D01*
X146913600Y-91986100D02*
X146913600Y-88176100D01*
X146913600Y-88176100D02*
X147548600Y-87541100D01*
X151358600Y-87541100D02*
X151993600Y-88176100D01*
X154533600Y-88176100D02*
X153898600Y-87541100D01*
X149453600Y-88176100D02*
X150088600Y-87541100D01*
X150088600Y-92621100D02*
X149453600Y-91986100D01*
X151358600Y-92621100D02*
X150088600Y-92621100D01*
X152628600Y-92621100D02*
X151993600Y-91986100D01*
X151993600Y-88176100D02*
X152628600Y-87541100D01*
%TO.C,SV2*%
X149453600Y-97066100D02*
X148818600Y-97701100D01*
X148818600Y-92621100D02*
X149453600Y-93256100D01*
X152628600Y-92621100D02*
X153898600Y-92621100D01*
X154533600Y-97066100D02*
X153898600Y-97701100D01*
X149453600Y-93256100D02*
X150088600Y-92621100D01*
X151993600Y-93256100D02*
X152628600Y-92621100D01*
X151358600Y-97701100D02*
X150088600Y-97701100D01*
X151993600Y-97066100D02*
X151358600Y-97701100D01*
X146913600Y-97066100D02*
X147548600Y-97701100D01*
X147548600Y-92621100D02*
X146913600Y-93256100D01*
X150088600Y-92621100D02*
X151358600Y-92621100D01*
X154533600Y-93256100D02*
X154533600Y-97066100D01*
X146913600Y-93256100D02*
X146913600Y-97066100D01*
X153898600Y-97701100D02*
X152628600Y-97701100D01*
X151358600Y-92621100D02*
X151993600Y-93256100D01*
X153898600Y-92621100D02*
X154533600Y-93256100D01*
X148818600Y-97701100D02*
X147548600Y-97701100D01*
X152628600Y-97701100D02*
X151993600Y-97066100D01*
X147548600Y-92621100D02*
X148818600Y-92621100D01*
X150088600Y-97701100D02*
X149453600Y-97066100D01*
%TO.C,SV7*%
X138976100Y-99606100D02*
X140246100Y-99606100D01*
X138341100Y-100241100D02*
X138976100Y-99606100D01*
X140246100Y-102146100D02*
X138976100Y-102146100D01*
X138976100Y-102146100D02*
X138341100Y-101511100D01*
X140246100Y-102146100D02*
X140881100Y-101511100D01*
X140881100Y-100241100D02*
X140246100Y-99606100D01*
X138341100Y-101511100D02*
X137706100Y-102146100D01*
X136436100Y-102146100D02*
X135801100Y-101511100D01*
X137706100Y-102146100D02*
X136436100Y-102146100D01*
X135801100Y-101511100D02*
X135801100Y-100241100D01*
X136436100Y-99606100D02*
X137706100Y-99606100D01*
X137706100Y-99606100D02*
X138341100Y-100241100D01*
X140881100Y-101511100D02*
X140881100Y-100241100D01*
X135801100Y-100241100D02*
X136436100Y-99606100D01*
G36*
X137325100Y-101130100D02*
G01*
X136817100Y-101130100D01*
X136817100Y-100622100D01*
X137325100Y-100622100D01*
X137325100Y-101130100D01*
G37*
%TO.C,SV3*%
X153263600Y-121513600D02*
X153263600Y-117703600D01*
X150088600Y-117068600D02*
X150723600Y-117703600D01*
X145643600Y-117703600D02*
X146278600Y-117068600D01*
X148183600Y-121513600D02*
X147548600Y-122148600D01*
X148818600Y-117068600D02*
X150088600Y-117068600D01*
X152628600Y-122148600D02*
X151358600Y-122148600D01*
X151358600Y-117068600D02*
X152628600Y-117068600D01*
X153263600Y-117703600D02*
X152628600Y-117068600D01*
X150088600Y-122148600D02*
X148818600Y-122148600D01*
X151358600Y-122148600D02*
X150723600Y-121513600D01*
X145643600Y-121513600D02*
X145643600Y-117703600D01*
X146278600Y-122148600D02*
X145643600Y-121513600D01*
X146278600Y-117068600D02*
X147548600Y-117068600D01*
X150723600Y-117703600D02*
X151358600Y-117068600D01*
X148818600Y-122148600D02*
X148183600Y-121513600D01*
X147548600Y-117068600D02*
X148183600Y-117703600D01*
X147548600Y-122148600D02*
X146278600Y-122148600D01*
X152628600Y-122148600D02*
X153263600Y-121513600D01*
X148183600Y-117703600D02*
X148818600Y-117068600D01*
X150723600Y-121513600D02*
X150088600Y-122148600D01*
%TD*%
M02*
