M48
; DRILL file {KiCad 6.0.4-6f826c9f35~116~ubuntu20.04.1} date Wed Jul 20 15:12:22 2022
; FORMAT={-:-/ absolute / metric / decimal}
; #@! TF.CreationDate,2022-07-20T15:12:22+00:00
; #@! TF.GenerationSoftware,Kicad,Pcbnew,6.0.4-6f826c9f35~116~ubuntu20.04.1
; #@! TF.FileFunction,Plated,1,2,PTH
FMAT,2
METRIC
; #@! TA.AperFunction,Plated,PTH,ComponentDrill
T1C0.300
; #@! TA.AperFunction,Plated,PTH,ViaDrill
T2C0.400
; #@! TA.AperFunction,Plated,PTH,ViaDrill
T3C0.500
; #@! TA.AperFunction,Plated,PTH,ComponentDrill
T4C0.889
; #@! TA.AperFunction,Plated,PTH,ComponentDrill
T5C3.000
%
G90
G05
T1
X147.366Y-106.409
X147.366Y-107.409
X147.866Y-106.909
X148.366Y-106.409
X148.366Y-107.409
T2
X146.279Y-103.416
T3
X138.976Y-108.179
X140.881Y-108.179
X141.516Y-122.466
X142.151Y-92.621
X142.151Y-93.891
X142.786Y-123.101
X144.056Y-123.419
X145.009Y-100.241
X145.009Y-101.511
X145.326Y-123.101
X145.644Y-106.274
X146.596Y-87.224
X146.596Y-88.811
X146.596Y-90.081
X146.596Y-91.351
X146.596Y-92.621
X146.596Y-93.891
X146.596Y-95.161
X146.596Y-96.431
X146.596Y-123.101
X147.866Y-86.906
X147.866Y-123.101
X148.184Y-101.194
X148.501Y-100.241
X148.819Y-86.271
X149.136Y-123.101
X150.089Y-86.271
X150.406Y-106.909
X150.724Y-123.101
X151.359Y-86.271
X151.994Y-106.591
X151.994Y-112.306
X151.994Y-123.101
X152.629Y-86.271
X152.946Y-99.606
X152.946Y-105.639
X153.264Y-106.591
X153.264Y-123.101
X153.899Y-86.906
X153.899Y-104.686
X154.534Y-106.591
X154.534Y-123.101
X154.851Y-87.859
X154.851Y-89.129
X154.851Y-90.399
X154.851Y-91.669
X154.851Y-92.939
X155.169Y-104.686
X155.169Y-114.211
X155.169Y-115.481
X155.169Y-116.751
X155.169Y-118.021
X155.169Y-122.149
X155.804Y-106.591
X156.439Y-104.686
X156.439Y-113.894
X157.074Y-106.591
X157.709Y-104.686
X157.709Y-113.894
X158.344Y-106.591
X158.661Y-96.114
X158.661Y-97.701
X158.979Y-94.526
X158.979Y-104.686
X158.979Y-113.894
X159.296Y-98.654
X159.931Y-104.051
X159.931Y-106.909
X160.249Y-94.526
X160.249Y-108.496
X160.249Y-110.084
X160.249Y-111.671
X160.249Y-113.259
X160.566Y-99.924
X160.566Y-101.194
X160.566Y-102.781
T4
X136.754Y-109.449
X136.754Y-111.989
X136.754Y-114.529
X137.071Y-95.796
X137.071Y-98.336
X137.071Y-100.876
X137.071Y-103.416
X139.611Y-95.796
X139.611Y-98.336
X139.611Y-100.876
X139.611Y-103.416
X146.914Y-118.339
X146.914Y-120.879
X148.184Y-88.811
X148.184Y-91.351
X148.184Y-93.891
X148.184Y-96.431
X149.454Y-118.339
X149.454Y-120.879
X150.724Y-88.811
X150.724Y-91.351
X150.724Y-93.891
X150.724Y-96.431
X151.994Y-118.339
X151.994Y-120.879
X153.264Y-88.811
X153.264Y-91.351
X153.264Y-93.891
X153.264Y-96.431
T5
X138.341Y-89.764
X138.341Y-120.244
X158.661Y-89.764
X158.661Y-120.244
T0
M30
