%TF.GenerationSoftware,KiCad,Pcbnew,6.0.4-6f826c9f35~116~ubuntu20.04.1*%
%TF.CreationDate,2022-07-20T12:46:52+00:00*%
%TF.ProjectId,TPS63060V01B,54505336-3330-4363-9056-3031422e6b69,rev?*%
%TF.SameCoordinates,Original*%
%TF.FileFunction,Copper,L1,Top*%
%TF.FilePolarity,Positive*%
%FSLAX46Y46*%
G04 Gerber Fmt 4.6, Leading zero omitted, Abs format (unit mm)*
G04 Created by KiCad (PCBNEW 6.0.4-6f826c9f35~116~ubuntu20.04.1) date 2022-07-20 12:46:52*
%MOMM*%
%LPD*%
G01*
G04 APERTURE LIST*
%TA.AperFunction,ComponentPad*%
%ADD10R,1.651000X1.651000*%
%TD*%
%TA.AperFunction,ComponentPad*%
%ADD11C,6.451600*%
%TD*%
%TA.AperFunction,SMDPad,CuDef*%
%ADD12R,2.150000X1.700000*%
%TD*%
%TA.AperFunction,ComponentPad*%
%ADD13C,0.406400*%
%TD*%
%TA.AperFunction,ViaPad*%
%ADD14C,0.906400*%
%TD*%
%TA.AperFunction,ViaPad*%
%ADD15C,0.806400*%
%TD*%
%TA.AperFunction,Conductor*%
%ADD16C,0.304800*%
%TD*%
G04 APERTURE END LIST*
D10*
%TO.P,SV1,1*%
%TO.N,N$1*%
X136753600Y-109448600D03*
%TO.P,SV1,2*%
%TO.N,N$3*%
X136753600Y-111988600D03*
%TO.P,SV1,3*%
%TO.N,+BAT2*%
X136753600Y-114528600D03*
%TD*%
%TO.P,SV6,1*%
%TO.N,N$13*%
X139611100Y-103416100D03*
%TO.P,SV6,2*%
%TO.N,GND*%
X137071100Y-103416100D03*
%TD*%
D11*
%TO.P,X2,P$1*%
%TO.N,GND*%
X138341100Y-120243600D03*
%TD*%
D10*
%TO.P,SV4,1*%
%TO.N,N$5*%
X139611100Y-98336100D03*
%TO.P,SV4,2*%
%TO.N,N$7*%
X137071100Y-98336100D03*
%TO.P,SV4,3*%
%TO.N,N$5*%
X139611100Y-95796100D03*
%TO.P,SV4,4*%
%TO.N,N$9*%
X137071100Y-95796100D03*
%TD*%
D11*
%TO.P,X4,P$1*%
%TO.N,GND*%
X158661100Y-120243600D03*
%TD*%
D10*
%TO.P,SV5,1*%
%TO.N,GND*%
X153263600Y-88811100D03*
%TO.P,SV5,2*%
X153263600Y-91351100D03*
%TO.P,SV5,3*%
%TO.N,N$8*%
X150723600Y-88811100D03*
%TO.P,SV5,4*%
X150723600Y-91351100D03*
%TO.P,SV5,5*%
%TO.N,GND*%
X148183600Y-88811100D03*
%TO.P,SV5,6*%
X148183600Y-91351100D03*
%TD*%
D11*
%TO.P,X1,P$1*%
%TO.N,GND*%
X138341100Y-89763600D03*
%TD*%
%TO.P,X3,P$1*%
%TO.N,GND*%
X158661100Y-89763600D03*
%TD*%
D10*
%TO.P,SV2,1*%
%TO.N,GND*%
X148183600Y-96431100D03*
%TO.P,SV2,2*%
X148183600Y-93891100D03*
%TO.P,SV2,3*%
%TO.N,N$8*%
X150723600Y-96431100D03*
%TO.P,SV2,4*%
X150723600Y-93891100D03*
%TO.P,SV2,5*%
%TO.N,GND*%
X153263600Y-96431100D03*
%TO.P,SV2,6*%
X153263600Y-93891100D03*
%TD*%
%TO.P,SV7,1*%
%TO.N,N$6*%
X139611100Y-100876100D03*
%TO.P,SV7,2*%
X137071100Y-100876100D03*
%TD*%
%TO.P,SV3,1*%
%TO.N,GND*%
X151993600Y-118338600D03*
%TO.P,SV3,2*%
X151993600Y-120878600D03*
%TO.P,SV3,3*%
%TO.N,N$4*%
X149453600Y-118338600D03*
%TO.P,SV3,4*%
X149453600Y-120878600D03*
%TO.P,SV3,5*%
%TO.N,GND*%
X146913600Y-118338600D03*
%TO.P,SV3,6*%
X146913600Y-120878600D03*
%TD*%
D12*
%TO.P,X5,21*%
%TO.N,GND*%
X147866100Y-106908600D03*
D13*
%TO.P,X5,P$1*%
X147866100Y-106908600D03*
%TO.P,X5,P$2*%
X147466100Y-107308600D03*
%TO.P,X5,P$3*%
X147466100Y-106508600D03*
%TO.P,X5,P$4*%
X148266100Y-107308600D03*
%TO.P,X5,P$5*%
X148266100Y-106508600D03*
%TD*%
D14*
%TO.N,GND*%
X152628600Y-86271100D03*
X157073600Y-106591100D03*
X155168600Y-118021100D03*
X145008600Y-100241100D03*
X157708600Y-113893600D03*
X160248600Y-108496100D03*
X155168600Y-115481100D03*
X146596100Y-93891100D03*
X141516100Y-122466100D03*
X154851100Y-90398600D03*
X145326100Y-123101100D03*
X158661100Y-97701100D03*
X160248600Y-113258600D03*
X160566100Y-101193600D03*
X155168600Y-116751100D03*
X146596100Y-95161100D03*
X151993600Y-112306100D03*
X144056100Y-123418600D03*
X154851100Y-87858600D03*
X159296100Y-98653600D03*
X146596100Y-91351100D03*
X146596100Y-90081100D03*
X160566100Y-99923600D03*
X150088600Y-86271100D03*
X145643600Y-106273600D03*
X151993600Y-106591100D03*
X156438600Y-104686100D03*
X155168600Y-122148600D03*
X142151100Y-93891100D03*
X149136100Y-123101100D03*
X155803600Y-106591100D03*
X146596100Y-92621100D03*
X154851100Y-91668600D03*
X160248600Y-94526100D03*
X154851100Y-92938600D03*
X158978600Y-104686100D03*
X153898600Y-86906100D03*
X146596100Y-88811100D03*
X150723600Y-123101100D03*
X145008600Y-101511100D03*
X148183600Y-101193600D03*
X160248600Y-111671100D03*
X156438600Y-113893600D03*
X154533600Y-123101100D03*
X142786100Y-123101100D03*
X150406100Y-106908600D03*
X140881100Y-108178600D03*
X142151100Y-92621100D03*
X153263600Y-123101100D03*
X153263600Y-106591100D03*
X138976100Y-108178600D03*
X148818600Y-86271100D03*
X154533600Y-106591100D03*
X152946100Y-99606100D03*
X158661100Y-96113600D03*
X158978600Y-94526100D03*
X157708600Y-104686100D03*
X146596100Y-96431100D03*
X160248600Y-110083600D03*
X151993600Y-123101100D03*
X159931100Y-104051100D03*
X146596100Y-123101100D03*
X148501100Y-100241100D03*
X151358600Y-86271100D03*
X155168600Y-104686100D03*
X154851100Y-89128600D03*
X153898600Y-104686100D03*
X158343600Y-106591100D03*
X159931100Y-106908600D03*
X146596100Y-87223600D03*
X158978600Y-113893600D03*
X155168600Y-114211100D03*
X147866100Y-86906100D03*
X152946100Y-105638600D03*
X160566100Y-102781100D03*
X147866100Y-123101100D03*
D15*
%TO.N,N$5*%
X146278600Y-103416100D03*
%TD*%
D16*
%TO.N,N$5*%
X140246100Y-98971100D02*
X139611100Y-98336100D01*
X139611100Y-98336100D02*
X139611100Y-95796100D01*
X140246100Y-98971100D02*
X145008600Y-98971100D01*
X145008600Y-98971100D02*
X146278600Y-100241100D01*
X146278600Y-100241100D02*
X146278600Y-103416100D01*
%TD*%
M02*
