%TF.GenerationSoftware,KiCad,Pcbnew,6.0.4-6f826c9f35~116~ubuntu20.04.1*%
%TF.CreationDate,2022-07-20T12:46:52+00:00*%
%TF.ProjectId,TPS63060V01B,54505336-3330-4363-9056-3031422e6b69,rev?*%
%TF.SameCoordinates,Original*%
%TF.FileFunction,Soldermask,Bot*%
%TF.FilePolarity,Negative*%
%FSLAX46Y46*%
G04 Gerber Fmt 4.6, Leading zero omitted, Abs format (unit mm)*
G04 Created by KiCad (PCBNEW 6.0.4-6f826c9f35~116~ubuntu20.04.1) date 2022-07-20 12:46:52*
%MOMM*%
%LPD*%
G01*
G04 APERTURE LIST*
G04 Aperture macros list*
%AMRoundRect*
0 Rectangle with rounded corners*
0 $1 Rounding radius*
0 $2 $3 $4 $5 $6 $7 $8 $9 X,Y pos of 4 corners*
0 Add a 4 corners polygon primitive as box body*
4,1,4,$2,$3,$4,$5,$6,$7,$8,$9,$2,$3,0*
0 Add four circle primitives for the rounded corners*
1,1,$1+$1,$2,$3*
1,1,$1+$1,$4,$5*
1,1,$1+$1,$6,$7*
1,1,$1+$1,$8,$9*
0 Add four rect primitives between the rounded corners*
20,1,$1+$1,$2,$3,$4,$5,0*
20,1,$1+$1,$4,$5,$6,$7,0*
20,1,$1+$1,$6,$7,$8,$9,0*
20,1,$1+$1,$8,$9,$2,$3,0*%
G04 Aperture macros list end*
%ADD10RoundRect,0.101600X-0.825500X-0.825500X0.825500X-0.825500X0.825500X0.825500X-0.825500X0.825500X0*%
%ADD11RoundRect,0.101600X-0.825500X0.825500X-0.825500X-0.825500X0.825500X-0.825500X0.825500X0.825500X0*%
%ADD12C,6.654800*%
%ADD13RoundRect,0.101600X0.825500X-0.825500X0.825500X0.825500X-0.825500X0.825500X-0.825500X-0.825500X0*%
%ADD14RoundRect,0.101600X0.825500X0.825500X-0.825500X0.825500X-0.825500X-0.825500X0.825500X-0.825500X0*%
%ADD15RoundRect,0.101600X-0.647700X0.495300X-0.647700X-0.495300X0.647700X-0.495300X0.647700X0.495300X0*%
%ADD16RoundRect,0.101600X0.495300X0.647700X-0.495300X0.647700X-0.495300X-0.647700X0.495300X-0.647700X0*%
%ADD17RoundRect,0.101600X-0.700000X0.500000X-0.700000X-0.500000X0.700000X-0.500000X0.700000X0.500000X0*%
%ADD18RoundRect,0.101600X0.850000X-0.900000X0.850000X0.900000X-0.850000X0.900000X-0.850000X-0.900000X0*%
%ADD19RoundRect,0.101600X-0.495300X-0.647700X0.495300X-0.647700X0.495300X0.647700X-0.495300X0.647700X0*%
%ADD20RoundRect,0.101600X-2.750000X-1.500000X2.750000X-1.500000X2.750000X1.500000X-2.750000X1.500000X0*%
%ADD21RoundRect,0.101600X0.647700X-0.495300X0.647700X0.495300X-0.647700X0.495300X-0.647700X-0.495300X0*%
%ADD22RoundRect,0.101600X1.270000X1.079500X-1.270000X1.079500X-1.270000X-1.079500X1.270000X-1.079500X0*%
%ADD23RoundRect,0.101600X-1.079500X1.270000X-1.079500X-1.270000X1.079500X-1.270000X1.079500X1.270000X0*%
%ADD24RoundRect,0.101600X0.950000X1.700000X-0.950000X1.700000X-0.950000X-1.700000X0.950000X-1.700000X0*%
%ADD25RoundRect,0.101600X0.140000X0.425000X-0.140000X0.425000X-0.140000X-0.425000X0.140000X-0.425000X0*%
%ADD26RoundRect,0.101600X1.075000X0.850000X-1.075000X0.850000X-1.075000X-0.850000X1.075000X-0.850000X0*%
%ADD27RoundRect,0.101600X0.350000X0.125000X-0.350000X0.125000X-0.350000X-0.125000X0.350000X-0.125000X0*%
%ADD28C,0.609600*%
G04 APERTURE END LIST*
D10*
%TO.C,SV1*%
X136753600Y-109448600D03*
X136753600Y-111988600D03*
X136753600Y-114528600D03*
%TD*%
D11*
%TO.C,SV6*%
X139611100Y-103416100D03*
X137071100Y-103416100D03*
%TD*%
D12*
%TO.C,X2*%
X138341100Y-120243600D03*
%TD*%
D13*
%TO.C,SV4*%
X139611100Y-98336100D03*
X137071100Y-98336100D03*
X139611100Y-95796100D03*
X137071100Y-95796100D03*
%TD*%
D12*
%TO.C,X4*%
X158661100Y-120243600D03*
%TD*%
D14*
%TO.C,SV5*%
X153263600Y-88811100D03*
X153263600Y-91351100D03*
X150723600Y-88811100D03*
X150723600Y-91351100D03*
X148183600Y-88811100D03*
X148183600Y-91351100D03*
%TD*%
D12*
%TO.C,X1*%
X138341100Y-89763600D03*
%TD*%
%TO.C,X3*%
X158661100Y-89763600D03*
%TD*%
D10*
%TO.C,SV2*%
X148183600Y-96431100D03*
X148183600Y-93891100D03*
X150723600Y-96431100D03*
X150723600Y-93891100D03*
X153263600Y-96431100D03*
X153263600Y-93891100D03*
%TD*%
D11*
%TO.C,SV7*%
X139611100Y-100876100D03*
X137071100Y-100876100D03*
%TD*%
D14*
%TO.C,SV3*%
X151993600Y-118338600D03*
X151993600Y-120878600D03*
X149453600Y-118338600D03*
X149453600Y-120878600D03*
X146913600Y-118338600D03*
X146913600Y-120878600D03*
%TD*%
D15*
%TO.C,C1*%
X145008600Y-103101100D03*
X145008600Y-105001100D03*
%TD*%
D16*
%TO.C,R2*%
X144688600Y-98971100D03*
X142788600Y-98971100D03*
%TD*%
%TO.C,C16*%
X149768600Y-111671100D03*
X147868600Y-111671100D03*
%TD*%
%TO.C,C2*%
X157706100Y-94208600D03*
X155806100Y-94208600D03*
%TD*%
D17*
%TO.C,X9*%
X137536100Y-105323600D03*
X137536100Y-107223600D03*
X135336100Y-106273600D03*
%TD*%
D18*
%TO.C,D1*%
X144056100Y-121976100D03*
X144056100Y-117876100D03*
%TD*%
D19*
%TO.C,R5*%
X141836100Y-97066100D03*
X143736100Y-97066100D03*
%TD*%
D20*
%TO.C,L1*%
X156756100Y-111273600D03*
X156756100Y-101273600D03*
%TD*%
D21*
%TO.C,R3*%
X143103600Y-105001100D03*
X143103600Y-103101100D03*
%TD*%
%TO.C,C5*%
X146596100Y-102143600D03*
X146596100Y-100243600D03*
%TD*%
D22*
%TO.C,C6*%
X156438600Y-97066100D03*
X161518600Y-97066100D03*
%TD*%
D19*
%TO.C,R4*%
X141836100Y-100876100D03*
X143736100Y-100876100D03*
%TD*%
D23*
%TO.C,C3*%
X144373600Y-94208600D03*
X144373600Y-89128600D03*
%TD*%
D24*
%TO.C,P1*%
X144101100Y-114846100D03*
X140201100Y-114846100D03*
%TD*%
D25*
%TO.C,X5*%
X148866100Y-108383600D03*
X148366100Y-108383600D03*
X147866100Y-108383600D03*
X147366100Y-108383600D03*
X146866100Y-108383600D03*
X146866100Y-105433600D03*
X147366100Y-105433600D03*
X147866100Y-105433600D03*
X148366100Y-105433600D03*
X148866100Y-105433600D03*
D26*
X147866100Y-106908600D03*
D27*
X149291100Y-107508600D03*
X149291100Y-107108600D03*
X149291100Y-106708600D03*
X149291100Y-106308600D03*
X146441100Y-106308600D03*
X146441100Y-106708600D03*
X146441100Y-107108600D03*
X146441100Y-107508600D03*
D26*
X147866100Y-106908600D03*
D28*
X147866100Y-106908600D03*
X147466100Y-107308600D03*
X147466100Y-106508600D03*
X148266100Y-107308600D03*
X148266100Y-106508600D03*
%TD*%
D23*
%TO.C,C20*%
X139928600Y-111353600D03*
X139928600Y-106273600D03*
%TD*%
M02*
