%TF.GenerationSoftware,KiCad,Pcbnew,6.0.4-6f826c9f35~116~ubuntu20.04.1*%
%TF.CreationDate,2022-07-20T15:12:22+00:00*%
%TF.ProjectId,TPS63060V01B,54505336-3330-4363-9056-3031422e6b69,rev?*%
%TF.SameCoordinates,Original*%
%TF.FileFunction,Copper,L1,Top*%
%TF.FilePolarity,Positive*%
%FSLAX46Y46*%
G04 Gerber Fmt 4.6, Leading zero omitted, Abs format (unit mm)*
G04 Created by KiCad (PCBNEW 6.0.4-6f826c9f35~116~ubuntu20.04.1) date 2022-07-20 15:12:22*
%MOMM*%
%LPD*%
G01*
G04 APERTURE LIST*
%TA.AperFunction,ComponentPad*%
%ADD10R,1.651000X1.651000*%
%TD*%
%TA.AperFunction,ComponentPad*%
%ADD11C,6.000000*%
%TD*%
%TA.AperFunction,ComponentPad*%
%ADD12C,0.600000*%
%TD*%
%TA.AperFunction,SMDPad,CuDef*%
%ADD13R,2.300000X2.300000*%
%TD*%
%TA.AperFunction,ViaPad*%
%ADD14C,0.906400*%
%TD*%
%TA.AperFunction,ViaPad*%
%ADD15C,0.806400*%
%TD*%
%TA.AperFunction,Conductor*%
%ADD16C,0.304800*%
%TD*%
G04 APERTURE END LIST*
D10*
%TO.P,SV1,1,P$1*%
%TO.N,Net-(SV1-Pad1)*%
X136753600Y-109448600D03*
%TO.P,SV1,2,P$1*%
%TO.N,Net-(SV1-Pad2)*%
X136753600Y-111988600D03*
%TO.P,SV1,3,P$1*%
%TO.N,Net-(C20-Pad1)*%
X136753600Y-114528600D03*
%TD*%
%TO.P,SV6,1,P$1*%
%TO.N,Net-(SV6-Pad1)*%
X139611100Y-103416100D03*
%TO.P,SV6,2,P$1*%
%TO.N,GND*%
X137071100Y-103416100D03*
%TD*%
D11*
%TO.P,X2,1*%
%TO.N,GND*%
X138341100Y-120243600D03*
%TD*%
D10*
%TO.P,SV4,1,P$1*%
%TO.N,Net-(X5-Pad8)*%
X139611100Y-98336100D03*
%TO.P,SV4,2,P$1*%
%TO.N,Net-(R4-Pad1)*%
X137071100Y-98336100D03*
%TO.P,SV4,3,P$1*%
%TO.N,Net-(X5-Pad8)*%
X139611100Y-95796100D03*
%TO.P,SV4,4,P$1*%
%TO.N,Net-(R5-Pad1)*%
X137071100Y-95796100D03*
%TD*%
D11*
%TO.P,X4,1*%
%TO.N,GND*%
X158661100Y-120243600D03*
%TD*%
D10*
%TO.P,SV5,1,K*%
%TO.N,GND*%
X153263600Y-88811100D03*
%TO.P,SV5,2,K*%
X153263600Y-91351100D03*
%TO.P,SV5,3,K*%
%TO.N,Net-(C3-Pad1)*%
X150723600Y-88811100D03*
%TO.P,SV5,4,K*%
X150723600Y-91351100D03*
%TO.P,SV5,5,K*%
%TO.N,GND*%
X148183600Y-88811100D03*
%TO.P,SV5,6,K*%
X148183600Y-91351100D03*
%TD*%
D11*
%TO.P,X1,1*%
%TO.N,GND*%
X138341100Y-89763600D03*
%TD*%
%TO.P,X3,1*%
%TO.N,GND*%
X158661100Y-89763600D03*
%TD*%
D10*
%TO.P,SV2,1,K*%
%TO.N,GND*%
X148183600Y-96431100D03*
%TO.P,SV2,2,K*%
X148183600Y-93891100D03*
%TO.P,SV2,3,K*%
%TO.N,Net-(C3-Pad1)*%
X150723600Y-96431100D03*
%TO.P,SV2,4,K*%
X150723600Y-93891100D03*
%TO.P,SV2,5,K*%
%TO.N,GND*%
X153263600Y-96431100D03*
%TO.P,SV2,6,K*%
X153263600Y-93891100D03*
%TD*%
%TO.P,SV7,1,P$1*%
%TO.N,Net-(SV7-Pad1)*%
X139611100Y-100876100D03*
%TO.P,SV7,2,P$1*%
X137071100Y-100876100D03*
%TD*%
%TO.P,SV3,1,K*%
%TO.N,GND*%
X151993600Y-118338600D03*
%TO.P,SV3,2,K*%
X151993600Y-120878600D03*
%TO.P,SV3,3,K*%
%TO.N,Net-(P1-Pad1)*%
X149453600Y-118338600D03*
%TO.P,SV3,4,K*%
X149453600Y-120878600D03*
%TO.P,SV3,5,K*%
%TO.N,GND*%
X146913600Y-118338600D03*
%TO.P,SV3,6,K*%
X146913600Y-120878600D03*
%TD*%
D12*
%TO.P,X5,11,PGND*%
%TO.N,GND*%
X148366100Y-106408600D03*
X147866100Y-106908600D03*
X148366100Y-107408600D03*
X147366100Y-107408600D03*
X147366100Y-106408600D03*
D13*
X147866100Y-106909600D03*
%TD*%
D14*
%TO.N,GND*%
X152628600Y-86271100D03*
X157073600Y-106591100D03*
X155168600Y-118021100D03*
X145008600Y-100241100D03*
X157708600Y-113893600D03*
X155168600Y-115481100D03*
X146596100Y-93891100D03*
X141516100Y-122466100D03*
X154851100Y-90398600D03*
X145326100Y-123101100D03*
X158661100Y-97701100D03*
X160248600Y-113258600D03*
X160566100Y-101193600D03*
X155168600Y-116751100D03*
X146596100Y-95161100D03*
X151993600Y-112306100D03*
X144056100Y-123418600D03*
X154851100Y-87858600D03*
X159296100Y-98653600D03*
X146596100Y-91351100D03*
X146596100Y-90081100D03*
X160566100Y-99923600D03*
X150088600Y-86271100D03*
X145643600Y-106273600D03*
X156438600Y-104686100D03*
X155168600Y-122148600D03*
X142151100Y-93891100D03*
X149136100Y-123101100D03*
X155803600Y-106591100D03*
X146596100Y-92621100D03*
X154851100Y-91668600D03*
X160248600Y-94526100D03*
X154851100Y-92938600D03*
X158978600Y-104686100D03*
X153898600Y-86906100D03*
X146596100Y-88811100D03*
X150723600Y-123101100D03*
X145008600Y-101511100D03*
X148183600Y-101193600D03*
X160248600Y-111671100D03*
X156438600Y-113893600D03*
X154533600Y-123101100D03*
X142786100Y-123101100D03*
X140881100Y-108178600D03*
X142151100Y-92621100D03*
X153263600Y-123101100D03*
X138976100Y-108178600D03*
X148818600Y-86271100D03*
X154533600Y-106591100D03*
X152946100Y-99606100D03*
X158661100Y-96113600D03*
X158978600Y-94526100D03*
X157708600Y-104686100D03*
X146596100Y-96431100D03*
X160248600Y-110083600D03*
X151993600Y-123101100D03*
X146596100Y-123101100D03*
X148501100Y-100241100D03*
X151358600Y-86271100D03*
X155168600Y-104686100D03*
X154851100Y-89128600D03*
X153898600Y-104686100D03*
X158343600Y-106591100D03*
X146596100Y-87223600D03*
X158978600Y-113893600D03*
X155168600Y-114211100D03*
X147866100Y-86906100D03*
X160566100Y-102781100D03*
X147866100Y-123101100D03*
%TO.N,Net-(X5-Pad1)*%
X151993600Y-106591100D03*
X150406100Y-106908600D03*
X153263600Y-106591100D03*
X152946100Y-105638600D03*
%TO.N,Net-(X5-Pad10)*%
X160248600Y-108496100D03*
X159931100Y-104051100D03*
X159931100Y-106908600D03*
D15*
%TO.N,Net-(X5-Pad8)*%
X146278600Y-103416100D03*
%TD*%
D16*
%TO.N,Net-(X5-Pad8)*%
X140246100Y-98971100D02*
X139611100Y-98336100D01*
X139611100Y-98336100D02*
X139611100Y-95796100D01*
X140246100Y-98971100D02*
X145008600Y-98971100D01*
X145008600Y-98971100D02*
X146278600Y-100241100D01*
X146278600Y-100241100D02*
X146278600Y-103416100D01*
%TD*%
%TA.AperFunction,Conductor*%
%TO.N,GND*%
G36*
X163435238Y-84980193D02*
G01*
X163460958Y-85024742D01*
X163462100Y-85037800D01*
X163462100Y-124969400D01*
X163444507Y-125017738D01*
X163399958Y-125043458D01*
X163386900Y-125044600D01*
X133615300Y-125044600D01*
X133566962Y-125027007D01*
X133541242Y-124982458D01*
X133540100Y-124969400D01*
X133540100Y-121734980D01*
X145733301Y-121734980D01*
X145733702Y-121740449D01*
X145742715Y-121801684D01*
X145746141Y-121812709D01*
X145792885Y-121907917D01*
X145800019Y-121917882D01*
X145874820Y-121992551D01*
X145884802Y-121999672D01*
X145980095Y-122046252D01*
X145991109Y-122049656D01*
X146051768Y-122058506D01*
X146057201Y-122058900D01*
X146722941Y-122058900D01*
X146733098Y-122055203D01*
X146736200Y-122049831D01*
X146736200Y-122045640D01*
X147091000Y-122045640D01*
X147094697Y-122055797D01*
X147100069Y-122058899D01*
X147769980Y-122058899D01*
X147775449Y-122058498D01*
X147836684Y-122049485D01*
X147847709Y-122046059D01*
X147942917Y-121999315D01*
X147952882Y-121992181D01*
X148027551Y-121917380D01*
X148034672Y-121907398D01*
X148081252Y-121812105D01*
X148084656Y-121801091D01*
X148093506Y-121740432D01*
X148093900Y-121734999D01*
X148093900Y-121069259D01*
X148090203Y-121059102D01*
X148084831Y-121056000D01*
X147104259Y-121056000D01*
X147094102Y-121059697D01*
X147091000Y-121065069D01*
X147091000Y-122045640D01*
X146736200Y-122045640D01*
X146736200Y-121069259D01*
X146732503Y-121059102D01*
X146727131Y-121056000D01*
X145746560Y-121056000D01*
X145736403Y-121059697D01*
X145733301Y-121065069D01*
X145733301Y-121734980D01*
X133540100Y-121734980D01*
X133540100Y-120687941D01*
X145733300Y-120687941D01*
X145736997Y-120698098D01*
X145742369Y-120701200D01*
X146722941Y-120701200D01*
X146733098Y-120697503D01*
X146736200Y-120692131D01*
X146736200Y-120687941D01*
X147091000Y-120687941D01*
X147094697Y-120698098D01*
X147100069Y-120701200D01*
X148080640Y-120701200D01*
X148090797Y-120697503D01*
X148093899Y-120692131D01*
X148093899Y-120038043D01*
X148475200Y-120038043D01*
X148475201Y-121719156D01*
X148484072Y-121763758D01*
X148517866Y-121814334D01*
X148524023Y-121818448D01*
X148562283Y-121844013D01*
X148562284Y-121844014D01*
X148568442Y-121848128D01*
X148613043Y-121857000D01*
X149453486Y-121857000D01*
X150294156Y-121856999D01*
X150338758Y-121848128D01*
X150389334Y-121814334D01*
X150423128Y-121763758D01*
X150428849Y-121734999D01*
X150428853Y-121734980D01*
X150813301Y-121734980D01*
X150813702Y-121740449D01*
X150822715Y-121801684D01*
X150826141Y-121812709D01*
X150872885Y-121907917D01*
X150880019Y-121917882D01*
X150954820Y-121992551D01*
X150964802Y-121999672D01*
X151060095Y-122046252D01*
X151071109Y-122049656D01*
X151131768Y-122058506D01*
X151137201Y-122058900D01*
X151802941Y-122058900D01*
X151813098Y-122055203D01*
X151816200Y-122049831D01*
X151816200Y-122045640D01*
X152171000Y-122045640D01*
X152174697Y-122055797D01*
X152180069Y-122058899D01*
X152849980Y-122058899D01*
X152855449Y-122058498D01*
X152916684Y-122049485D01*
X152927709Y-122046059D01*
X153022917Y-121999315D01*
X153032882Y-121992181D01*
X153107551Y-121917380D01*
X153114672Y-121907398D01*
X153161252Y-121812105D01*
X153164656Y-121801091D01*
X153173506Y-121740432D01*
X153173900Y-121734999D01*
X153173900Y-121069259D01*
X153170203Y-121059102D01*
X153164831Y-121056000D01*
X152184259Y-121056000D01*
X152174102Y-121059697D01*
X152171000Y-121065069D01*
X152171000Y-122045640D01*
X151816200Y-122045640D01*
X151816200Y-121069259D01*
X151812503Y-121059102D01*
X151807131Y-121056000D01*
X150826560Y-121056000D01*
X150816403Y-121059697D01*
X150813301Y-121065069D01*
X150813301Y-121734980D01*
X150428853Y-121734980D01*
X150431279Y-121722782D01*
X150431279Y-121722781D01*
X150432000Y-121719157D01*
X150431999Y-120687941D01*
X150813300Y-120687941D01*
X150816997Y-120698098D01*
X150822369Y-120701200D01*
X151802941Y-120701200D01*
X151813098Y-120697503D01*
X151816200Y-120692131D01*
X151816200Y-120687941D01*
X152171000Y-120687941D01*
X152174697Y-120698098D01*
X152180069Y-120701200D01*
X153160640Y-120701200D01*
X153170797Y-120697503D01*
X153173899Y-120692131D01*
X153173899Y-120022220D01*
X153173498Y-120016751D01*
X153164485Y-119955516D01*
X153161059Y-119944491D01*
X153114315Y-119849283D01*
X153107181Y-119839318D01*
X153032380Y-119764649D01*
X153022398Y-119757528D01*
X152927105Y-119710948D01*
X152916091Y-119707544D01*
X152855432Y-119698694D01*
X152849999Y-119698300D01*
X152184259Y-119698300D01*
X152174102Y-119701997D01*
X152171000Y-119707369D01*
X152171000Y-120687941D01*
X151816200Y-120687941D01*
X151816200Y-119711560D01*
X151812503Y-119701403D01*
X151807131Y-119698301D01*
X151137220Y-119698301D01*
X151131751Y-119698702D01*
X151070516Y-119707715D01*
X151059491Y-119711141D01*
X150964283Y-119757885D01*
X150954318Y-119765019D01*
X150879649Y-119839820D01*
X150872528Y-119849802D01*
X150825948Y-119945095D01*
X150822544Y-119956109D01*
X150813694Y-120016768D01*
X150813300Y-120022201D01*
X150813300Y-120687941D01*
X150431999Y-120687941D01*
X150431999Y-120038044D01*
X150423128Y-119993442D01*
X150389334Y-119942866D01*
X150344918Y-119913188D01*
X150344916Y-119913186D01*
X150338758Y-119909072D01*
X150294157Y-119900200D01*
X149453714Y-119900200D01*
X148613044Y-119900201D01*
X148568442Y-119909072D01*
X148517866Y-119942866D01*
X148484072Y-119993442D01*
X148482627Y-120000706D01*
X148478348Y-120022220D01*
X148475200Y-120038043D01*
X148093899Y-120038043D01*
X148093899Y-120022220D01*
X148093498Y-120016751D01*
X148084485Y-119955516D01*
X148081059Y-119944491D01*
X148034315Y-119849283D01*
X148027181Y-119839318D01*
X147952380Y-119764649D01*
X147942398Y-119757528D01*
X147847105Y-119710948D01*
X147836091Y-119707544D01*
X147775432Y-119698694D01*
X147769999Y-119698300D01*
X147104259Y-119698300D01*
X147094102Y-119701997D01*
X147091000Y-119707369D01*
X147091000Y-120687941D01*
X146736200Y-120687941D01*
X146736200Y-119711560D01*
X146732503Y-119701403D01*
X146727131Y-119698301D01*
X146057220Y-119698301D01*
X146051751Y-119698702D01*
X145990516Y-119707715D01*
X145979491Y-119711141D01*
X145884283Y-119757885D01*
X145874318Y-119765019D01*
X145799649Y-119839820D01*
X145792528Y-119849802D01*
X145745948Y-119945095D01*
X145742544Y-119956109D01*
X145733694Y-120016768D01*
X145733300Y-120022201D01*
X145733300Y-120687941D01*
X133540100Y-120687941D01*
X133540100Y-119194980D01*
X145733301Y-119194980D01*
X145733702Y-119200449D01*
X145742715Y-119261684D01*
X145746141Y-119272709D01*
X145792885Y-119367917D01*
X145800019Y-119377882D01*
X145874820Y-119452551D01*
X145884802Y-119459672D01*
X145980095Y-119506252D01*
X145991109Y-119509656D01*
X146051768Y-119518506D01*
X146057201Y-119518900D01*
X146722941Y-119518900D01*
X146733098Y-119515203D01*
X146736200Y-119509831D01*
X146736200Y-119505640D01*
X147091000Y-119505640D01*
X147094697Y-119515797D01*
X147100069Y-119518899D01*
X147769980Y-119518899D01*
X147775449Y-119518498D01*
X147836684Y-119509485D01*
X147847709Y-119506059D01*
X147942917Y-119459315D01*
X147952882Y-119452181D01*
X148027551Y-119377380D01*
X148034672Y-119367398D01*
X148081252Y-119272105D01*
X148084656Y-119261091D01*
X148093506Y-119200432D01*
X148093900Y-119194999D01*
X148093900Y-118529259D01*
X148090203Y-118519102D01*
X148084831Y-118516000D01*
X147104259Y-118516000D01*
X147094102Y-118519697D01*
X147091000Y-118525069D01*
X147091000Y-119505640D01*
X146736200Y-119505640D01*
X146736200Y-118529259D01*
X146732503Y-118519102D01*
X146727131Y-118516000D01*
X145746560Y-118516000D01*
X145736403Y-118519697D01*
X145733301Y-118525069D01*
X145733301Y-119194980D01*
X133540100Y-119194980D01*
X133540100Y-118147941D01*
X145733300Y-118147941D01*
X145736997Y-118158098D01*
X145742369Y-118161200D01*
X146722941Y-118161200D01*
X146733098Y-118157503D01*
X146736200Y-118152131D01*
X146736200Y-118147941D01*
X147091000Y-118147941D01*
X147094697Y-118158098D01*
X147100069Y-118161200D01*
X148080640Y-118161200D01*
X148090797Y-118157503D01*
X148093899Y-118152131D01*
X148093899Y-117498043D01*
X148475200Y-117498043D01*
X148475201Y-119179156D01*
X148484072Y-119223758D01*
X148517866Y-119274334D01*
X148524023Y-119278448D01*
X148562283Y-119304013D01*
X148562284Y-119304014D01*
X148568442Y-119308128D01*
X148613043Y-119317000D01*
X149453486Y-119317000D01*
X150294156Y-119316999D01*
X150338758Y-119308128D01*
X150389334Y-119274334D01*
X150423128Y-119223758D01*
X150428849Y-119194999D01*
X150428853Y-119194980D01*
X150813301Y-119194980D01*
X150813702Y-119200449D01*
X150822715Y-119261684D01*
X150826141Y-119272709D01*
X150872885Y-119367917D01*
X150880019Y-119377882D01*
X150954820Y-119452551D01*
X150964802Y-119459672D01*
X151060095Y-119506252D01*
X151071109Y-119509656D01*
X151131768Y-119518506D01*
X151137201Y-119518900D01*
X151802941Y-119518900D01*
X151813098Y-119515203D01*
X151816200Y-119509831D01*
X151816200Y-119505640D01*
X152171000Y-119505640D01*
X152174697Y-119515797D01*
X152180069Y-119518899D01*
X152849980Y-119518899D01*
X152855449Y-119518498D01*
X152916684Y-119509485D01*
X152927709Y-119506059D01*
X153022917Y-119459315D01*
X153032882Y-119452181D01*
X153107551Y-119377380D01*
X153114672Y-119367398D01*
X153161252Y-119272105D01*
X153164656Y-119261091D01*
X153173506Y-119200432D01*
X153173900Y-119194999D01*
X153173900Y-118529259D01*
X153170203Y-118519102D01*
X153164831Y-118516000D01*
X152184259Y-118516000D01*
X152174102Y-118519697D01*
X152171000Y-118525069D01*
X152171000Y-119505640D01*
X151816200Y-119505640D01*
X151816200Y-118529259D01*
X151812503Y-118519102D01*
X151807131Y-118516000D01*
X150826560Y-118516000D01*
X150816403Y-118519697D01*
X150813301Y-118525069D01*
X150813301Y-119194980D01*
X150428853Y-119194980D01*
X150431279Y-119182782D01*
X150431279Y-119182781D01*
X150432000Y-119179157D01*
X150431999Y-118147941D01*
X150813300Y-118147941D01*
X150816997Y-118158098D01*
X150822369Y-118161200D01*
X151802941Y-118161200D01*
X151813098Y-118157503D01*
X151816200Y-118152131D01*
X151816200Y-118147941D01*
X152171000Y-118147941D01*
X152174697Y-118158098D01*
X152180069Y-118161200D01*
X153160640Y-118161200D01*
X153170797Y-118157503D01*
X153173899Y-118152131D01*
X153173899Y-117482220D01*
X153173498Y-117476751D01*
X153164485Y-117415516D01*
X153161059Y-117404491D01*
X153114315Y-117309283D01*
X153107181Y-117299318D01*
X153032380Y-117224649D01*
X153022398Y-117217528D01*
X152927105Y-117170948D01*
X152916091Y-117167544D01*
X152855432Y-117158694D01*
X152849999Y-117158300D01*
X152184259Y-117158300D01*
X152174102Y-117161997D01*
X152171000Y-117167369D01*
X152171000Y-118147941D01*
X151816200Y-118147941D01*
X151816200Y-117171560D01*
X151812503Y-117161403D01*
X151807131Y-117158301D01*
X151137220Y-117158301D01*
X151131751Y-117158702D01*
X151070516Y-117167715D01*
X151059491Y-117171141D01*
X150964283Y-117217885D01*
X150954318Y-117225019D01*
X150879649Y-117299820D01*
X150872528Y-117309802D01*
X150825948Y-117405095D01*
X150822544Y-117416109D01*
X150813694Y-117476768D01*
X150813300Y-117482201D01*
X150813300Y-118147941D01*
X150431999Y-118147941D01*
X150431999Y-117498044D01*
X150423128Y-117453442D01*
X150389334Y-117402866D01*
X150344918Y-117373188D01*
X150344916Y-117373186D01*
X150338758Y-117369072D01*
X150294157Y-117360200D01*
X149453714Y-117360200D01*
X148613044Y-117360201D01*
X148568442Y-117369072D01*
X148517866Y-117402866D01*
X148484072Y-117453442D01*
X148482627Y-117460706D01*
X148478348Y-117482220D01*
X148475200Y-117498043D01*
X148093899Y-117498043D01*
X148093899Y-117482220D01*
X148093498Y-117476751D01*
X148084485Y-117415516D01*
X148081059Y-117404491D01*
X148034315Y-117309283D01*
X148027181Y-117299318D01*
X147952380Y-117224649D01*
X147942398Y-117217528D01*
X147847105Y-117170948D01*
X147836091Y-117167544D01*
X147775432Y-117158694D01*
X147769999Y-117158300D01*
X147104259Y-117158300D01*
X147094102Y-117161997D01*
X147091000Y-117167369D01*
X147091000Y-118147941D01*
X146736200Y-118147941D01*
X146736200Y-117171560D01*
X146732503Y-117161403D01*
X146727131Y-117158301D01*
X146057220Y-117158301D01*
X146051751Y-117158702D01*
X145990516Y-117167715D01*
X145979491Y-117171141D01*
X145884283Y-117217885D01*
X145874318Y-117225019D01*
X145799649Y-117299820D01*
X145792528Y-117309802D01*
X145745948Y-117405095D01*
X145742544Y-117416109D01*
X145733694Y-117476768D01*
X145733300Y-117482201D01*
X145733300Y-118147941D01*
X133540100Y-118147941D01*
X133540100Y-113688043D01*
X135775200Y-113688043D01*
X135775201Y-115369156D01*
X135784072Y-115413758D01*
X135817866Y-115464334D01*
X135824023Y-115468448D01*
X135862283Y-115494013D01*
X135862284Y-115494014D01*
X135868442Y-115498128D01*
X135913043Y-115507000D01*
X136753486Y-115507000D01*
X137594156Y-115506999D01*
X137638758Y-115498128D01*
X137689334Y-115464334D01*
X137723128Y-115413758D01*
X137732000Y-115369157D01*
X137731999Y-113688044D01*
X137723128Y-113643442D01*
X137689334Y-113592866D01*
X137644918Y-113563188D01*
X137644916Y-113563186D01*
X137638758Y-113559072D01*
X137594157Y-113550200D01*
X136753714Y-113550200D01*
X135913044Y-113550201D01*
X135868442Y-113559072D01*
X135817866Y-113592866D01*
X135784072Y-113643442D01*
X135775200Y-113688043D01*
X133540100Y-113688043D01*
X133540100Y-111148043D01*
X135775200Y-111148043D01*
X135775201Y-112829156D01*
X135784072Y-112873758D01*
X135817866Y-112924334D01*
X135824023Y-112928448D01*
X135862283Y-112954013D01*
X135862284Y-112954014D01*
X135868442Y-112958128D01*
X135913043Y-112967000D01*
X136753486Y-112967000D01*
X137594156Y-112966999D01*
X137638758Y-112958128D01*
X137689334Y-112924334D01*
X137723128Y-112873758D01*
X137732000Y-112829157D01*
X137731999Y-111148044D01*
X137723128Y-111103442D01*
X137689334Y-111052866D01*
X137644918Y-111023188D01*
X137644916Y-111023186D01*
X137638758Y-111019072D01*
X137594157Y-111010200D01*
X136753714Y-111010200D01*
X135913044Y-111010201D01*
X135868442Y-111019072D01*
X135817866Y-111052866D01*
X135784072Y-111103442D01*
X135775200Y-111148043D01*
X133540100Y-111148043D01*
X133540100Y-108608043D01*
X135775200Y-108608043D01*
X135775201Y-110289156D01*
X135784072Y-110333758D01*
X135817866Y-110384334D01*
X135824023Y-110388448D01*
X135862283Y-110414013D01*
X135862284Y-110414014D01*
X135868442Y-110418128D01*
X135913043Y-110427000D01*
X136753486Y-110427000D01*
X137594156Y-110426999D01*
X137638758Y-110418128D01*
X137689334Y-110384334D01*
X137723128Y-110333758D01*
X137732000Y-110289157D01*
X137731999Y-108608044D01*
X137723128Y-108563442D01*
X137689334Y-108512866D01*
X137683177Y-108508752D01*
X137664242Y-108496100D01*
X159637270Y-108496100D01*
X159637913Y-108500984D01*
X159652495Y-108611741D01*
X159658101Y-108654324D01*
X159719173Y-108801765D01*
X159722169Y-108805669D01*
X159722171Y-108805673D01*
X159813326Y-108924469D01*
X159816324Y-108928376D01*
X159820231Y-108931374D01*
X159939027Y-109022529D01*
X159939031Y-109022531D01*
X159942935Y-109025527D01*
X160016655Y-109056063D01*
X160085827Y-109084715D01*
X160085829Y-109084715D01*
X160090376Y-109086599D01*
X160095254Y-109087241D01*
X160095257Y-109087242D01*
X160243716Y-109106787D01*
X160248600Y-109107430D01*
X160253484Y-109106787D01*
X160401943Y-109087242D01*
X160401946Y-109087241D01*
X160406824Y-109086599D01*
X160411371Y-109084715D01*
X160411373Y-109084715D01*
X160480545Y-109056063D01*
X160554265Y-109025527D01*
X160558169Y-109022531D01*
X160558173Y-109022529D01*
X160676969Y-108931374D01*
X160680876Y-108928376D01*
X160683874Y-108924469D01*
X160775029Y-108805673D01*
X160775031Y-108805669D01*
X160778027Y-108801765D01*
X160839099Y-108654324D01*
X160844706Y-108611741D01*
X160859287Y-108500984D01*
X160859930Y-108496100D01*
X160839099Y-108337876D01*
X160778027Y-108190435D01*
X160775031Y-108186531D01*
X160775029Y-108186527D01*
X160683874Y-108067731D01*
X160680876Y-108063824D01*
X160658535Y-108046681D01*
X160558173Y-107969671D01*
X160558169Y-107969669D01*
X160554265Y-107966673D01*
X160480545Y-107936137D01*
X160411373Y-107907485D01*
X160411371Y-107907485D01*
X160406824Y-107905601D01*
X160401946Y-107904959D01*
X160401943Y-107904958D01*
X160253484Y-107885413D01*
X160248600Y-107884770D01*
X160243716Y-107885413D01*
X160095257Y-107904958D01*
X160095254Y-107904959D01*
X160090376Y-107905601D01*
X160085829Y-107907485D01*
X160085827Y-107907485D01*
X160016655Y-107936137D01*
X159942935Y-107966673D01*
X159939031Y-107969669D01*
X159939027Y-107969671D01*
X159838665Y-108046681D01*
X159816324Y-108063824D01*
X159813326Y-108067731D01*
X159722171Y-108186527D01*
X159722169Y-108186531D01*
X159719173Y-108190435D01*
X159658101Y-108337876D01*
X159637270Y-108496100D01*
X137664242Y-108496100D01*
X137644917Y-108483187D01*
X137644916Y-108483186D01*
X137638758Y-108479072D01*
X137594157Y-108470200D01*
X136753714Y-108470200D01*
X135913044Y-108470201D01*
X135868442Y-108479072D01*
X135817866Y-108512866D01*
X135784072Y-108563442D01*
X135775200Y-108608043D01*
X133540100Y-108608043D01*
X133540100Y-107789480D01*
X146436301Y-107789480D01*
X146436702Y-107794949D01*
X146445715Y-107856184D01*
X146449141Y-107867209D01*
X146495885Y-107962417D01*
X146503019Y-107972382D01*
X146577820Y-108047051D01*
X146587802Y-108054172D01*
X146683095Y-108100752D01*
X146694109Y-108104156D01*
X146754768Y-108113006D01*
X146760201Y-108113400D01*
X147675441Y-108113400D01*
X147685598Y-108109703D01*
X147688700Y-108104331D01*
X147688700Y-108100140D01*
X148043500Y-108100140D01*
X148047197Y-108110297D01*
X148052569Y-108113399D01*
X148971980Y-108113399D01*
X148977449Y-108112998D01*
X149038684Y-108103985D01*
X149049709Y-108100559D01*
X149144917Y-108053815D01*
X149154882Y-108046681D01*
X149229551Y-107971880D01*
X149236672Y-107961898D01*
X149283252Y-107866605D01*
X149286656Y-107855591D01*
X149295506Y-107794932D01*
X149295900Y-107789499D01*
X149295900Y-107099259D01*
X149292203Y-107089102D01*
X149286831Y-107086000D01*
X148752841Y-107086000D01*
X148731995Y-107093587D01*
X148516981Y-107308600D01*
X148266100Y-107559481D01*
X148052876Y-107772706D01*
X148043500Y-107792812D01*
X148043500Y-108100140D01*
X147688700Y-108100140D01*
X147688700Y-107795341D01*
X147681113Y-107774495D01*
X147215219Y-107308600D01*
X147001995Y-107095377D01*
X146981886Y-107086000D01*
X146449560Y-107086000D01*
X146439403Y-107089697D01*
X146436301Y-107095069D01*
X146436301Y-107789480D01*
X133540100Y-107789480D01*
X133540100Y-106908600D01*
X149794770Y-106908600D01*
X149795413Y-106913484D01*
X149810276Y-107026374D01*
X149815601Y-107066824D01*
X149817485Y-107071371D01*
X149817485Y-107071373D01*
X149827300Y-107095069D01*
X149876673Y-107214265D01*
X149879669Y-107218169D01*
X149879671Y-107218173D01*
X149949058Y-107308600D01*
X149973824Y-107340876D01*
X149977731Y-107343874D01*
X150096527Y-107435029D01*
X150096531Y-107435031D01*
X150100435Y-107438027D01*
X150174156Y-107468563D01*
X150243327Y-107497215D01*
X150243329Y-107497215D01*
X150247876Y-107499099D01*
X150252754Y-107499741D01*
X150252757Y-107499742D01*
X150401216Y-107519287D01*
X150406100Y-107519930D01*
X150410984Y-107519287D01*
X150559443Y-107499742D01*
X150559446Y-107499741D01*
X150564324Y-107499099D01*
X150568871Y-107497215D01*
X150568873Y-107497215D01*
X150638044Y-107468563D01*
X150711765Y-107438027D01*
X150715669Y-107435031D01*
X150715673Y-107435029D01*
X150834469Y-107343874D01*
X150838376Y-107340876D01*
X150863142Y-107308600D01*
X150932529Y-107218173D01*
X150932531Y-107218169D01*
X150935527Y-107214265D01*
X150984900Y-107095069D01*
X150994715Y-107071373D01*
X150994715Y-107071371D01*
X150996599Y-107066824D01*
X151001925Y-107026374D01*
X151016787Y-106913484D01*
X151017430Y-106908600D01*
X151004399Y-106809619D01*
X150997242Y-106755257D01*
X150997241Y-106755254D01*
X150996599Y-106750376D01*
X150994142Y-106744443D01*
X150937411Y-106607484D01*
X150935527Y-106602935D01*
X150932531Y-106599031D01*
X150932529Y-106599027D01*
X150926446Y-106591100D01*
X151382270Y-106591100D01*
X151403101Y-106749324D01*
X151404985Y-106753871D01*
X151404985Y-106753873D01*
X151409586Y-106764980D01*
X151464173Y-106896765D01*
X151467169Y-106900669D01*
X151467171Y-106900673D01*
X151558326Y-107019469D01*
X151561324Y-107023376D01*
X151565231Y-107026374D01*
X151684027Y-107117529D01*
X151684031Y-107117531D01*
X151687935Y-107120527D01*
X151761655Y-107151063D01*
X151830827Y-107179715D01*
X151830829Y-107179715D01*
X151835376Y-107181599D01*
X151840254Y-107182241D01*
X151840257Y-107182242D01*
X151988716Y-107201787D01*
X151993600Y-107202430D01*
X151998484Y-107201787D01*
X152146943Y-107182242D01*
X152146946Y-107182241D01*
X152151824Y-107181599D01*
X152156371Y-107179715D01*
X152156373Y-107179715D01*
X152225545Y-107151063D01*
X152299265Y-107120527D01*
X152303169Y-107117531D01*
X152303173Y-107117529D01*
X152421969Y-107026374D01*
X152425876Y-107023376D01*
X152428874Y-107019469D01*
X152520029Y-106900673D01*
X152520031Y-106900669D01*
X152523027Y-106896765D01*
X152559124Y-106809619D01*
X152593876Y-106771694D01*
X152644876Y-106764980D01*
X152688260Y-106792618D01*
X152698076Y-106809619D01*
X152734173Y-106896765D01*
X152737169Y-106900669D01*
X152737171Y-106900673D01*
X152828326Y-107019469D01*
X152831324Y-107023376D01*
X152835231Y-107026374D01*
X152954027Y-107117529D01*
X152954031Y-107117531D01*
X152957935Y-107120527D01*
X153031655Y-107151063D01*
X153100827Y-107179715D01*
X153100829Y-107179715D01*
X153105376Y-107181599D01*
X153110254Y-107182241D01*
X153110257Y-107182242D01*
X153258716Y-107201787D01*
X153263600Y-107202430D01*
X153268484Y-107201787D01*
X153416943Y-107182242D01*
X153416946Y-107182241D01*
X153421824Y-107181599D01*
X153426371Y-107179715D01*
X153426373Y-107179715D01*
X153495545Y-107151063D01*
X153569265Y-107120527D01*
X153573169Y-107117531D01*
X153573173Y-107117529D01*
X153691969Y-107026374D01*
X153695876Y-107023376D01*
X153698874Y-107019469D01*
X153783946Y-106908600D01*
X159319770Y-106908600D01*
X159320413Y-106913484D01*
X159335276Y-107026374D01*
X159340601Y-107066824D01*
X159342485Y-107071371D01*
X159342485Y-107071373D01*
X159352300Y-107095069D01*
X159401673Y-107214265D01*
X159404669Y-107218169D01*
X159404671Y-107218173D01*
X159474058Y-107308600D01*
X159498824Y-107340876D01*
X159502731Y-107343874D01*
X159621527Y-107435029D01*
X159621531Y-107435031D01*
X159625435Y-107438027D01*
X159699156Y-107468563D01*
X159768327Y-107497215D01*
X159768329Y-107497215D01*
X159772876Y-107499099D01*
X159777754Y-107499741D01*
X159777757Y-107499742D01*
X159926216Y-107519287D01*
X159931100Y-107519930D01*
X159935984Y-107519287D01*
X160084443Y-107499742D01*
X160084446Y-107499741D01*
X160089324Y-107499099D01*
X160093871Y-107497215D01*
X160093873Y-107497215D01*
X160163044Y-107468563D01*
X160236765Y-107438027D01*
X160240669Y-107435031D01*
X160240673Y-107435029D01*
X160359469Y-107343874D01*
X160363376Y-107340876D01*
X160388142Y-107308600D01*
X160457529Y-107218173D01*
X160457531Y-107218169D01*
X160460527Y-107214265D01*
X160509900Y-107095069D01*
X160519715Y-107071373D01*
X160519715Y-107071371D01*
X160521599Y-107066824D01*
X160526925Y-107026374D01*
X160541787Y-106913484D01*
X160542430Y-106908600D01*
X160529399Y-106809619D01*
X160522242Y-106755257D01*
X160522241Y-106755254D01*
X160521599Y-106750376D01*
X160519142Y-106744443D01*
X160462411Y-106607484D01*
X160460527Y-106602935D01*
X160457531Y-106599031D01*
X160457529Y-106599027D01*
X160366374Y-106480231D01*
X160363376Y-106476324D01*
X160306753Y-106432876D01*
X160240673Y-106382171D01*
X160240669Y-106382169D01*
X160236765Y-106379173D01*
X160163044Y-106348637D01*
X160093873Y-106319985D01*
X160093871Y-106319985D01*
X160089324Y-106318101D01*
X160084446Y-106317459D01*
X160084443Y-106317458D01*
X159935984Y-106297913D01*
X159931100Y-106297270D01*
X159926216Y-106297913D01*
X159777757Y-106317458D01*
X159777754Y-106317459D01*
X159772876Y-106318101D01*
X159768329Y-106319985D01*
X159768327Y-106319985D01*
X159699156Y-106348637D01*
X159625435Y-106379173D01*
X159621531Y-106382169D01*
X159621527Y-106382171D01*
X159555447Y-106432876D01*
X159498824Y-106476324D01*
X159495826Y-106480231D01*
X159404671Y-106599027D01*
X159404669Y-106599031D01*
X159401673Y-106602935D01*
X159399789Y-106607484D01*
X159343059Y-106744443D01*
X159340601Y-106750376D01*
X159339959Y-106755254D01*
X159339958Y-106755257D01*
X159332801Y-106809619D01*
X159319770Y-106908600D01*
X153783946Y-106908600D01*
X153790029Y-106900673D01*
X153790031Y-106900669D01*
X153793027Y-106896765D01*
X153847614Y-106764980D01*
X153852215Y-106753873D01*
X153852215Y-106753871D01*
X153854099Y-106749324D01*
X153874930Y-106591100D01*
X153859819Y-106476324D01*
X153854742Y-106437757D01*
X153854741Y-106437754D01*
X153854099Y-106432876D01*
X153847615Y-106417221D01*
X153806291Y-106317458D01*
X153793027Y-106285435D01*
X153790031Y-106281531D01*
X153790029Y-106281527D01*
X153698874Y-106162731D01*
X153695876Y-106158824D01*
X153651527Y-106124794D01*
X153573173Y-106064671D01*
X153573169Y-106064669D01*
X153569265Y-106061673D01*
X153564717Y-106059789D01*
X153564714Y-106059787D01*
X153517222Y-106040116D01*
X153479296Y-106005364D01*
X153472581Y-105954364D01*
X153476523Y-105941862D01*
X153534715Y-105801373D01*
X153534715Y-105801371D01*
X153536599Y-105796824D01*
X153540063Y-105770519D01*
X153556787Y-105643484D01*
X153557430Y-105638600D01*
X153536599Y-105480376D01*
X153475527Y-105332935D01*
X153472531Y-105329031D01*
X153472529Y-105329027D01*
X153381374Y-105210231D01*
X153378376Y-105206324D01*
X153374469Y-105203326D01*
X153255673Y-105112171D01*
X153255669Y-105112169D01*
X153251765Y-105109173D01*
X153178045Y-105078637D01*
X153108873Y-105049985D01*
X153108871Y-105049985D01*
X153104324Y-105048101D01*
X153099446Y-105047459D01*
X153099443Y-105047458D01*
X152950984Y-105027913D01*
X152946100Y-105027270D01*
X152941216Y-105027913D01*
X152792757Y-105047458D01*
X152792754Y-105047459D01*
X152787876Y-105048101D01*
X152783329Y-105049985D01*
X152783327Y-105049985D01*
X152714155Y-105078637D01*
X152640435Y-105109173D01*
X152636531Y-105112169D01*
X152636527Y-105112171D01*
X152517731Y-105203326D01*
X152513824Y-105206324D01*
X152510826Y-105210231D01*
X152419671Y-105329027D01*
X152419669Y-105329031D01*
X152416673Y-105332935D01*
X152355601Y-105480376D01*
X152334770Y-105638600D01*
X152335413Y-105643484D01*
X152352138Y-105770519D01*
X152355601Y-105796824D01*
X152416673Y-105944265D01*
X152419672Y-105948173D01*
X152419674Y-105948177D01*
X152456143Y-105995705D01*
X152471611Y-106044764D01*
X152451926Y-106092288D01*
X152406298Y-106116040D01*
X152356078Y-106104906D01*
X152350705Y-106101143D01*
X152303177Y-106064674D01*
X152303172Y-106064671D01*
X152299265Y-106061673D01*
X152204092Y-106022251D01*
X152156373Y-106002485D01*
X152156371Y-106002485D01*
X152151824Y-106000601D01*
X152146946Y-105999959D01*
X152146943Y-105999958D01*
X151998484Y-105980413D01*
X151993600Y-105979770D01*
X151988716Y-105980413D01*
X151840257Y-105999958D01*
X151840254Y-105999959D01*
X151835376Y-106000601D01*
X151830829Y-106002485D01*
X151830827Y-106002485D01*
X151783108Y-106022251D01*
X151687935Y-106061673D01*
X151684031Y-106064669D01*
X151684027Y-106064671D01*
X151605673Y-106124794D01*
X151561324Y-106158824D01*
X151558326Y-106162731D01*
X151467171Y-106281527D01*
X151467169Y-106281531D01*
X151464173Y-106285435D01*
X151450909Y-106317458D01*
X151409586Y-106417221D01*
X151403101Y-106432876D01*
X151402459Y-106437754D01*
X151402458Y-106437757D01*
X151397381Y-106476324D01*
X151382270Y-106591100D01*
X150926446Y-106591100D01*
X150841374Y-106480231D01*
X150838376Y-106476324D01*
X150781753Y-106432876D01*
X150715673Y-106382171D01*
X150715669Y-106382169D01*
X150711765Y-106379173D01*
X150638044Y-106348637D01*
X150568873Y-106319985D01*
X150568871Y-106319985D01*
X150564324Y-106318101D01*
X150559446Y-106317459D01*
X150559443Y-106317458D01*
X150410984Y-106297913D01*
X150406100Y-106297270D01*
X150401216Y-106297913D01*
X150252757Y-106317458D01*
X150252754Y-106317459D01*
X150247876Y-106318101D01*
X150243329Y-106319985D01*
X150243327Y-106319985D01*
X150174156Y-106348637D01*
X150100435Y-106379173D01*
X150096531Y-106382169D01*
X150096527Y-106382171D01*
X150030447Y-106432876D01*
X149973824Y-106476324D01*
X149970826Y-106480231D01*
X149879671Y-106599027D01*
X149879669Y-106599031D01*
X149876673Y-106602935D01*
X149874789Y-106607484D01*
X149818059Y-106744443D01*
X149815601Y-106750376D01*
X149814959Y-106755254D01*
X149814958Y-106755257D01*
X149807801Y-106809619D01*
X149794770Y-106908600D01*
X133540100Y-106908600D01*
X133540100Y-106717941D01*
X146436300Y-106717941D01*
X146439997Y-106728098D01*
X146445369Y-106731200D01*
X146979359Y-106731200D01*
X147000205Y-106723613D01*
X147466100Y-106257719D01*
X147679323Y-106044495D01*
X147688700Y-106024386D01*
X147688700Y-106021859D01*
X148043500Y-106021859D01*
X148051087Y-106042705D01*
X148266100Y-106257719D01*
X148730206Y-106721824D01*
X148750312Y-106731200D01*
X149282640Y-106731200D01*
X149292797Y-106727503D01*
X149295899Y-106722131D01*
X149295899Y-106027720D01*
X149295498Y-106022251D01*
X149286485Y-105961016D01*
X149283059Y-105949991D01*
X149236315Y-105854783D01*
X149229181Y-105844818D01*
X149154380Y-105770149D01*
X149144398Y-105763028D01*
X149049105Y-105716448D01*
X149038091Y-105713044D01*
X148977432Y-105704194D01*
X148971999Y-105703800D01*
X148056759Y-105703800D01*
X148046602Y-105707497D01*
X148043500Y-105712869D01*
X148043500Y-106021859D01*
X147688700Y-106021859D01*
X147688700Y-105717060D01*
X147685003Y-105706903D01*
X147679631Y-105703801D01*
X146760220Y-105703801D01*
X146754751Y-105704202D01*
X146693516Y-105713215D01*
X146682491Y-105716641D01*
X146587283Y-105763385D01*
X146577318Y-105770519D01*
X146502649Y-105845320D01*
X146495528Y-105855302D01*
X146448948Y-105950595D01*
X146445544Y-105961609D01*
X146436694Y-106022268D01*
X146436300Y-106027701D01*
X146436300Y-106717941D01*
X133540100Y-106717941D01*
X133540100Y-104272480D01*
X135890801Y-104272480D01*
X135891202Y-104277949D01*
X135900215Y-104339184D01*
X135903641Y-104350209D01*
X135950385Y-104445417D01*
X135957519Y-104455382D01*
X136032320Y-104530051D01*
X136042302Y-104537172D01*
X136137595Y-104583752D01*
X136148609Y-104587156D01*
X136209268Y-104596006D01*
X136214701Y-104596400D01*
X136880441Y-104596400D01*
X136890598Y-104592703D01*
X136893700Y-104587331D01*
X136893700Y-104583140D01*
X137248500Y-104583140D01*
X137252197Y-104593297D01*
X137257569Y-104596399D01*
X137927480Y-104596399D01*
X137932949Y-104595998D01*
X137994184Y-104586985D01*
X138005209Y-104583559D01*
X138100417Y-104536815D01*
X138110382Y-104529681D01*
X138185051Y-104454880D01*
X138192172Y-104444898D01*
X138238752Y-104349605D01*
X138242156Y-104338591D01*
X138251006Y-104277932D01*
X138251400Y-104272499D01*
X138251400Y-103606759D01*
X138247703Y-103596602D01*
X138242331Y-103593500D01*
X137261759Y-103593500D01*
X137251602Y-103597197D01*
X137248500Y-103602569D01*
X137248500Y-104583140D01*
X136893700Y-104583140D01*
X136893700Y-103606759D01*
X136890003Y-103596602D01*
X136884631Y-103593500D01*
X135904060Y-103593500D01*
X135893903Y-103597197D01*
X135890801Y-103602569D01*
X135890801Y-104272480D01*
X133540100Y-104272480D01*
X133540100Y-103225441D01*
X135890800Y-103225441D01*
X135894497Y-103235598D01*
X135899869Y-103238700D01*
X136880441Y-103238700D01*
X136890598Y-103235003D01*
X136893700Y-103229631D01*
X136893700Y-103225441D01*
X137248500Y-103225441D01*
X137252197Y-103235598D01*
X137257569Y-103238700D01*
X138238140Y-103238700D01*
X138248297Y-103235003D01*
X138251399Y-103229631D01*
X138251399Y-102575543D01*
X138632700Y-102575543D01*
X138632701Y-104256656D01*
X138641572Y-104301258D01*
X138675366Y-104351834D01*
X138681523Y-104355948D01*
X138719783Y-104381513D01*
X138719784Y-104381514D01*
X138725942Y-104385628D01*
X138770543Y-104394500D01*
X139610986Y-104394500D01*
X140451656Y-104394499D01*
X140496258Y-104385628D01*
X140546834Y-104351834D01*
X140580628Y-104301258D01*
X140586349Y-104272499D01*
X140588779Y-104260282D01*
X140588779Y-104260281D01*
X140589500Y-104256657D01*
X140589500Y-104051100D01*
X159319770Y-104051100D01*
X159340601Y-104209324D01*
X159342485Y-104213871D01*
X159342485Y-104213873D01*
X159360207Y-104256657D01*
X159401673Y-104356765D01*
X159404669Y-104360669D01*
X159404671Y-104360673D01*
X159495826Y-104479469D01*
X159498824Y-104483376D01*
X159502731Y-104486374D01*
X159621527Y-104577529D01*
X159621531Y-104577531D01*
X159625435Y-104580527D01*
X159663756Y-104596400D01*
X159768327Y-104639715D01*
X159768329Y-104639715D01*
X159772876Y-104641599D01*
X159777754Y-104642241D01*
X159777757Y-104642242D01*
X159926216Y-104661787D01*
X159931100Y-104662430D01*
X159935984Y-104661787D01*
X160084443Y-104642242D01*
X160084446Y-104642241D01*
X160089324Y-104641599D01*
X160093871Y-104639715D01*
X160093873Y-104639715D01*
X160198444Y-104596400D01*
X160236765Y-104580527D01*
X160240669Y-104577531D01*
X160240673Y-104577529D01*
X160359469Y-104486374D01*
X160363376Y-104483376D01*
X160366374Y-104479469D01*
X160457529Y-104360673D01*
X160457531Y-104360669D01*
X160460527Y-104356765D01*
X160501993Y-104256657D01*
X160519715Y-104213873D01*
X160519715Y-104213871D01*
X160521599Y-104209324D01*
X160542430Y-104051100D01*
X160522781Y-103901853D01*
X160522242Y-103897757D01*
X160522241Y-103897754D01*
X160521599Y-103892876D01*
X160460527Y-103745435D01*
X160457531Y-103741531D01*
X160457529Y-103741527D01*
X160366374Y-103622731D01*
X160363376Y-103618824D01*
X160359469Y-103615826D01*
X160240673Y-103524671D01*
X160240669Y-103524669D01*
X160236765Y-103521673D01*
X160163045Y-103491137D01*
X160093873Y-103462485D01*
X160093871Y-103462485D01*
X160089324Y-103460601D01*
X160084446Y-103459959D01*
X160084443Y-103459958D01*
X159935984Y-103440413D01*
X159931100Y-103439770D01*
X159926216Y-103440413D01*
X159777757Y-103459958D01*
X159777754Y-103459959D01*
X159772876Y-103460601D01*
X159768329Y-103462485D01*
X159768327Y-103462485D01*
X159699155Y-103491137D01*
X159625435Y-103521673D01*
X159621531Y-103524669D01*
X159621527Y-103524671D01*
X159502731Y-103615826D01*
X159498824Y-103618824D01*
X159495826Y-103622731D01*
X159404671Y-103741527D01*
X159404669Y-103741531D01*
X159401673Y-103745435D01*
X159340601Y-103892876D01*
X159339959Y-103897754D01*
X159339958Y-103897757D01*
X159339419Y-103901853D01*
X159319770Y-104051100D01*
X140589500Y-104051100D01*
X140589499Y-102575544D01*
X140580628Y-102530942D01*
X140546834Y-102480366D01*
X140502418Y-102450688D01*
X140502416Y-102450686D01*
X140496258Y-102446572D01*
X140451657Y-102437700D01*
X139611214Y-102437700D01*
X138770544Y-102437701D01*
X138725942Y-102446572D01*
X138675366Y-102480366D01*
X138641572Y-102530942D01*
X138640127Y-102538206D01*
X138635848Y-102559720D01*
X138632700Y-102575543D01*
X138251399Y-102575543D01*
X138251399Y-102559720D01*
X138250998Y-102554251D01*
X138241985Y-102493016D01*
X138238559Y-102481991D01*
X138191815Y-102386783D01*
X138184681Y-102376818D01*
X138109880Y-102302149D01*
X138099898Y-102295028D01*
X138004605Y-102248448D01*
X137993591Y-102245044D01*
X137932932Y-102236194D01*
X137927499Y-102235800D01*
X137261759Y-102235800D01*
X137251602Y-102239497D01*
X137248500Y-102244869D01*
X137248500Y-103225441D01*
X136893700Y-103225441D01*
X136893700Y-102249060D01*
X136890003Y-102238903D01*
X136884631Y-102235801D01*
X136214720Y-102235801D01*
X136209251Y-102236202D01*
X136148016Y-102245215D01*
X136136991Y-102248641D01*
X136041783Y-102295385D01*
X136031818Y-102302519D01*
X135957149Y-102377320D01*
X135950028Y-102387302D01*
X135903448Y-102482595D01*
X135900044Y-102493609D01*
X135891194Y-102554268D01*
X135890800Y-102559701D01*
X135890800Y-103225441D01*
X133540100Y-103225441D01*
X133540100Y-100035543D01*
X136092700Y-100035543D01*
X136092701Y-101716656D01*
X136101572Y-101761258D01*
X136135366Y-101811834D01*
X136141523Y-101815948D01*
X136179783Y-101841513D01*
X136179784Y-101841514D01*
X136185942Y-101845628D01*
X136230543Y-101854500D01*
X137070986Y-101854500D01*
X137911656Y-101854499D01*
X137956258Y-101845628D01*
X138006834Y-101811834D01*
X138040628Y-101761258D01*
X138049500Y-101716657D01*
X138049499Y-100035544D01*
X138049499Y-100035543D01*
X138632700Y-100035543D01*
X138632701Y-101716656D01*
X138641572Y-101761258D01*
X138675366Y-101811834D01*
X138681523Y-101815948D01*
X138719783Y-101841513D01*
X138719784Y-101841514D01*
X138725942Y-101845628D01*
X138770543Y-101854500D01*
X139610986Y-101854500D01*
X140451656Y-101854499D01*
X140496258Y-101845628D01*
X140546834Y-101811834D01*
X140580628Y-101761258D01*
X140589500Y-101716657D01*
X140589499Y-100035544D01*
X140580628Y-99990942D01*
X140546834Y-99940366D01*
X140502418Y-99910688D01*
X140502416Y-99910686D01*
X140496258Y-99906572D01*
X140451657Y-99897700D01*
X139611214Y-99897700D01*
X138770544Y-99897701D01*
X138725942Y-99906572D01*
X138675366Y-99940366D01*
X138641572Y-99990942D01*
X138632700Y-100035543D01*
X138049499Y-100035543D01*
X138040628Y-99990942D01*
X138006834Y-99940366D01*
X137962418Y-99910688D01*
X137962416Y-99910686D01*
X137956258Y-99906572D01*
X137911657Y-99897700D01*
X137071214Y-99897700D01*
X136230544Y-99897701D01*
X136185942Y-99906572D01*
X136135366Y-99940366D01*
X136101572Y-99990942D01*
X136092700Y-100035543D01*
X133540100Y-100035543D01*
X133540100Y-97495543D01*
X136092700Y-97495543D01*
X136092701Y-99176656D01*
X136101572Y-99221258D01*
X136135366Y-99271834D01*
X136141523Y-99275948D01*
X136179783Y-99301513D01*
X136179784Y-99301514D01*
X136185942Y-99305628D01*
X136230543Y-99314500D01*
X137070986Y-99314500D01*
X137911656Y-99314499D01*
X137956258Y-99305628D01*
X138006834Y-99271834D01*
X138040628Y-99221258D01*
X138049500Y-99176657D01*
X138049499Y-97495544D01*
X138049499Y-97495543D01*
X138632700Y-97495543D01*
X138632701Y-99176656D01*
X138641572Y-99221258D01*
X138675366Y-99271834D01*
X138681523Y-99275948D01*
X138719783Y-99301513D01*
X138719784Y-99301514D01*
X138725942Y-99305628D01*
X138770543Y-99314500D01*
X139610986Y-99314500D01*
X140451656Y-99314499D01*
X140496258Y-99305628D01*
X140502415Y-99301514D01*
X140502420Y-99301512D01*
X140521034Y-99289074D01*
X140562813Y-99276400D01*
X144850993Y-99276400D01*
X144899331Y-99293993D01*
X144904167Y-99298426D01*
X145951274Y-100345533D01*
X145973014Y-100392153D01*
X145973300Y-100398707D01*
X145973300Y-102912332D01*
X145955707Y-102960670D01*
X145943881Y-102971990D01*
X145881985Y-103019485D01*
X145792847Y-103135651D01*
X145790963Y-103140200D01*
X145751448Y-103235598D01*
X145736813Y-103270929D01*
X145717701Y-103416100D01*
X145718344Y-103420984D01*
X145731995Y-103524671D01*
X145736813Y-103561271D01*
X145738697Y-103565818D01*
X145738697Y-103565820D01*
X145751694Y-103597197D01*
X145792847Y-103696549D01*
X145881985Y-103812715D01*
X145998150Y-103901853D01*
X146065789Y-103929870D01*
X146128880Y-103956003D01*
X146128882Y-103956003D01*
X146133429Y-103957887D01*
X146138307Y-103958529D01*
X146138310Y-103958530D01*
X146273716Y-103976356D01*
X146278600Y-103976999D01*
X146283484Y-103976356D01*
X146418890Y-103958530D01*
X146418893Y-103958529D01*
X146423771Y-103957887D01*
X146428318Y-103956003D01*
X146428320Y-103956003D01*
X146491410Y-103929870D01*
X146559050Y-103901853D01*
X146675215Y-103812715D01*
X146764353Y-103696549D01*
X146805506Y-103597197D01*
X146818503Y-103565820D01*
X146818503Y-103565818D01*
X146820387Y-103561271D01*
X146825206Y-103524671D01*
X146838856Y-103420984D01*
X146839499Y-103416100D01*
X146820387Y-103270929D01*
X146805753Y-103235598D01*
X146766237Y-103140200D01*
X146764353Y-103135651D01*
X146675215Y-103019485D01*
X146613319Y-102971990D01*
X146585682Y-102928606D01*
X146583900Y-102912331D01*
X146583900Y-100296532D01*
X146584308Y-100290976D01*
X146585855Y-100286471D01*
X146583953Y-100235799D01*
X146583900Y-100232978D01*
X146583900Y-100212707D01*
X146583265Y-100209297D01*
X146582947Y-100205853D01*
X146583124Y-100205837D01*
X146582674Y-100201717D01*
X146581850Y-100179757D01*
X146581849Y-100179754D01*
X146581589Y-100172818D01*
X146578848Y-100166437D01*
X146575858Y-100159477D01*
X146571024Y-100143565D01*
X146569636Y-100136116D01*
X146569635Y-100136114D01*
X146568364Y-100129289D01*
X146564722Y-100123380D01*
X146564721Y-100123378D01*
X146553187Y-100104666D01*
X146548109Y-100094890D01*
X146538792Y-100073203D01*
X146538790Y-100073200D01*
X146536694Y-100068321D01*
X146532615Y-100063356D01*
X146526084Y-100056825D01*
X146515243Y-100043111D01*
X146512329Y-100038383D01*
X146512328Y-100038382D01*
X146508685Y-100032472D01*
X146483704Y-100013476D01*
X146476057Y-100006798D01*
X145263679Y-98794419D01*
X145260038Y-98790201D01*
X145257945Y-98785920D01*
X145220758Y-98751424D01*
X145218727Y-98749467D01*
X145204403Y-98735143D01*
X145201545Y-98733182D01*
X145198879Y-98730967D01*
X145198999Y-98730822D01*
X145195762Y-98728237D01*
X145179652Y-98713293D01*
X145174563Y-98708572D01*
X145168114Y-98705999D01*
X145161079Y-98703192D01*
X145146406Y-98695358D01*
X145140155Y-98691070D01*
X145140156Y-98691070D01*
X145134432Y-98687144D01*
X145127681Y-98685542D01*
X145127679Y-98685541D01*
X145106293Y-98680466D01*
X145095794Y-98677146D01*
X145068927Y-98666427D01*
X145062532Y-98665800D01*
X145053292Y-98665800D01*
X145035930Y-98663768D01*
X145023772Y-98660883D01*
X145016894Y-98661819D01*
X145016893Y-98661819D01*
X144992691Y-98665113D01*
X144982550Y-98665800D01*
X140664700Y-98665800D01*
X140616362Y-98648207D01*
X140590642Y-98603658D01*
X140589500Y-98590600D01*
X140589499Y-97499241D01*
X140589499Y-97495544D01*
X140580628Y-97450942D01*
X140546834Y-97400366D01*
X140540677Y-97396252D01*
X140502417Y-97370687D01*
X140502416Y-97370686D01*
X140496258Y-97366572D01*
X140451657Y-97357700D01*
X139991600Y-97357700D01*
X139943262Y-97340107D01*
X139917542Y-97295558D01*
X139916836Y-97287480D01*
X147003301Y-97287480D01*
X147003702Y-97292949D01*
X147012715Y-97354184D01*
X147016141Y-97365209D01*
X147062885Y-97460417D01*
X147070019Y-97470382D01*
X147144820Y-97545051D01*
X147154802Y-97552172D01*
X147250095Y-97598752D01*
X147261109Y-97602156D01*
X147321768Y-97611006D01*
X147327201Y-97611400D01*
X147992941Y-97611400D01*
X148003098Y-97607703D01*
X148006200Y-97602331D01*
X148006200Y-97598140D01*
X148361000Y-97598140D01*
X148364697Y-97608297D01*
X148370069Y-97611399D01*
X149039980Y-97611399D01*
X149045449Y-97610998D01*
X149106684Y-97601985D01*
X149117709Y-97598559D01*
X149212917Y-97551815D01*
X149222882Y-97544681D01*
X149297551Y-97469880D01*
X149304672Y-97459898D01*
X149351252Y-97364605D01*
X149354656Y-97353591D01*
X149363506Y-97292932D01*
X149363900Y-97287499D01*
X149363900Y-96621759D01*
X149360203Y-96611602D01*
X149354831Y-96608500D01*
X148374259Y-96608500D01*
X148364102Y-96612197D01*
X148361000Y-96617569D01*
X148361000Y-97598140D01*
X148006200Y-97598140D01*
X148006200Y-96621759D01*
X148002503Y-96611602D01*
X147997131Y-96608500D01*
X147016560Y-96608500D01*
X147006403Y-96612197D01*
X147003301Y-96617569D01*
X147003301Y-97287480D01*
X139916836Y-97287480D01*
X139916400Y-97282500D01*
X139916400Y-96849699D01*
X139933993Y-96801361D01*
X139978542Y-96775641D01*
X139991600Y-96774499D01*
X140451656Y-96774499D01*
X140496258Y-96765628D01*
X140546834Y-96731834D01*
X140580628Y-96681258D01*
X140589500Y-96636657D01*
X140589500Y-96240441D01*
X147003300Y-96240441D01*
X147006997Y-96250598D01*
X147012369Y-96253700D01*
X147992941Y-96253700D01*
X148003098Y-96250003D01*
X148006200Y-96244631D01*
X148006200Y-96240441D01*
X148361000Y-96240441D01*
X148364697Y-96250598D01*
X148370069Y-96253700D01*
X149350640Y-96253700D01*
X149360797Y-96250003D01*
X149363899Y-96244631D01*
X149363899Y-95590543D01*
X149745200Y-95590543D01*
X149745201Y-97271656D01*
X149754072Y-97316258D01*
X149787866Y-97366834D01*
X149794023Y-97370948D01*
X149832283Y-97396513D01*
X149832284Y-97396514D01*
X149838442Y-97400628D01*
X149883043Y-97409500D01*
X150723486Y-97409500D01*
X151564156Y-97409499D01*
X151608758Y-97400628D01*
X151659334Y-97366834D01*
X151693128Y-97316258D01*
X151698849Y-97287499D01*
X151698853Y-97287480D01*
X152083301Y-97287480D01*
X152083702Y-97292949D01*
X152092715Y-97354184D01*
X152096141Y-97365209D01*
X152142885Y-97460417D01*
X152150019Y-97470382D01*
X152224820Y-97545051D01*
X152234802Y-97552172D01*
X152330095Y-97598752D01*
X152341109Y-97602156D01*
X152401768Y-97611006D01*
X152407201Y-97611400D01*
X153072941Y-97611400D01*
X153083098Y-97607703D01*
X153086200Y-97602331D01*
X153086200Y-97598140D01*
X153441000Y-97598140D01*
X153444697Y-97608297D01*
X153450069Y-97611399D01*
X154119980Y-97611399D01*
X154125449Y-97610998D01*
X154186684Y-97601985D01*
X154197709Y-97598559D01*
X154292917Y-97551815D01*
X154302882Y-97544681D01*
X154377551Y-97469880D01*
X154384672Y-97459898D01*
X154431252Y-97364605D01*
X154434656Y-97353591D01*
X154443506Y-97292932D01*
X154443900Y-97287499D01*
X154443900Y-96621759D01*
X154440203Y-96611602D01*
X154434831Y-96608500D01*
X153454259Y-96608500D01*
X153444102Y-96612197D01*
X153441000Y-96617569D01*
X153441000Y-97598140D01*
X153086200Y-97598140D01*
X153086200Y-96621759D01*
X153082503Y-96611602D01*
X153077131Y-96608500D01*
X152096560Y-96608500D01*
X152086403Y-96612197D01*
X152083301Y-96617569D01*
X152083301Y-97287480D01*
X151698853Y-97287480D01*
X151701279Y-97275282D01*
X151701279Y-97275281D01*
X151702000Y-97271657D01*
X151701999Y-96240441D01*
X152083300Y-96240441D01*
X152086997Y-96250598D01*
X152092369Y-96253700D01*
X153072941Y-96253700D01*
X153083098Y-96250003D01*
X153086200Y-96244631D01*
X153086200Y-96240441D01*
X153441000Y-96240441D01*
X153444697Y-96250598D01*
X153450069Y-96253700D01*
X154430640Y-96253700D01*
X154440797Y-96250003D01*
X154443899Y-96244631D01*
X154443899Y-95574720D01*
X154443498Y-95569251D01*
X154434485Y-95508016D01*
X154431059Y-95496991D01*
X154384315Y-95401783D01*
X154377181Y-95391818D01*
X154302380Y-95317149D01*
X154292398Y-95310028D01*
X154197105Y-95263448D01*
X154186091Y-95260044D01*
X154125432Y-95251194D01*
X154119999Y-95250800D01*
X153454259Y-95250800D01*
X153444102Y-95254497D01*
X153441000Y-95259869D01*
X153441000Y-96240441D01*
X153086200Y-96240441D01*
X153086200Y-95264060D01*
X153082503Y-95253903D01*
X153077131Y-95250801D01*
X152407220Y-95250801D01*
X152401751Y-95251202D01*
X152340516Y-95260215D01*
X152329491Y-95263641D01*
X152234283Y-95310385D01*
X152224318Y-95317519D01*
X152149649Y-95392320D01*
X152142528Y-95402302D01*
X152095948Y-95497595D01*
X152092544Y-95508609D01*
X152083694Y-95569268D01*
X152083300Y-95574701D01*
X152083300Y-96240441D01*
X151701999Y-96240441D01*
X151701999Y-95590544D01*
X151693128Y-95545942D01*
X151659334Y-95495366D01*
X151614918Y-95465688D01*
X151614916Y-95465686D01*
X151608758Y-95461572D01*
X151564157Y-95452700D01*
X150723714Y-95452700D01*
X149883044Y-95452701D01*
X149838442Y-95461572D01*
X149787866Y-95495366D01*
X149754072Y-95545942D01*
X149752627Y-95553206D01*
X149748348Y-95574720D01*
X149745200Y-95590543D01*
X149363899Y-95590543D01*
X149363899Y-95574720D01*
X149363498Y-95569251D01*
X149354485Y-95508016D01*
X149351059Y-95496991D01*
X149304315Y-95401783D01*
X149297181Y-95391818D01*
X149222380Y-95317149D01*
X149212398Y-95310028D01*
X149117105Y-95263448D01*
X149106091Y-95260044D01*
X149045432Y-95251194D01*
X149039999Y-95250800D01*
X148374259Y-95250800D01*
X148364102Y-95254497D01*
X148361000Y-95259869D01*
X148361000Y-96240441D01*
X148006200Y-96240441D01*
X148006200Y-95264060D01*
X148002503Y-95253903D01*
X147997131Y-95250801D01*
X147327220Y-95250801D01*
X147321751Y-95251202D01*
X147260516Y-95260215D01*
X147249491Y-95263641D01*
X147154283Y-95310385D01*
X147144318Y-95317519D01*
X147069649Y-95392320D01*
X147062528Y-95402302D01*
X147015948Y-95497595D01*
X147012544Y-95508609D01*
X147003694Y-95569268D01*
X147003300Y-95574701D01*
X147003300Y-96240441D01*
X140589500Y-96240441D01*
X140589499Y-94955544D01*
X140580628Y-94910942D01*
X140546834Y-94860366D01*
X140540677Y-94856252D01*
X140502417Y-94830687D01*
X140502416Y-94830686D01*
X140496258Y-94826572D01*
X140451657Y-94817700D01*
X139611214Y-94817700D01*
X138770544Y-94817701D01*
X138725942Y-94826572D01*
X138675366Y-94860366D01*
X138641572Y-94910942D01*
X138632700Y-94955543D01*
X138632701Y-96636656D01*
X138641572Y-96681258D01*
X138675366Y-96731834D01*
X138681523Y-96735948D01*
X138719783Y-96761513D01*
X138719784Y-96761514D01*
X138725942Y-96765628D01*
X138770543Y-96774500D01*
X139230600Y-96774500D01*
X139278938Y-96792093D01*
X139304658Y-96836642D01*
X139305800Y-96849700D01*
X139305800Y-97282501D01*
X139288207Y-97330839D01*
X139243658Y-97356559D01*
X139230600Y-97357701D01*
X138770544Y-97357701D01*
X138725942Y-97366572D01*
X138675366Y-97400366D01*
X138641572Y-97450942D01*
X138632700Y-97495543D01*
X138049499Y-97495543D01*
X138040628Y-97450942D01*
X138006834Y-97400366D01*
X138000677Y-97396252D01*
X137962417Y-97370687D01*
X137962416Y-97370686D01*
X137956258Y-97366572D01*
X137911657Y-97357700D01*
X137071214Y-97357700D01*
X136230544Y-97357701D01*
X136185942Y-97366572D01*
X136135366Y-97400366D01*
X136101572Y-97450942D01*
X136092700Y-97495543D01*
X133540100Y-97495543D01*
X133540100Y-94955543D01*
X136092700Y-94955543D01*
X136092701Y-96636656D01*
X136101572Y-96681258D01*
X136135366Y-96731834D01*
X136141523Y-96735948D01*
X136179783Y-96761513D01*
X136179784Y-96761514D01*
X136185942Y-96765628D01*
X136230543Y-96774500D01*
X137070986Y-96774500D01*
X137911656Y-96774499D01*
X137956258Y-96765628D01*
X138006834Y-96731834D01*
X138040628Y-96681258D01*
X138049500Y-96636657D01*
X138049499Y-94955544D01*
X138040628Y-94910942D01*
X138006834Y-94860366D01*
X138000677Y-94856252D01*
X137962417Y-94830687D01*
X137962416Y-94830686D01*
X137956258Y-94826572D01*
X137911657Y-94817700D01*
X137071214Y-94817700D01*
X136230544Y-94817701D01*
X136185942Y-94826572D01*
X136135366Y-94860366D01*
X136101572Y-94910942D01*
X136092700Y-94955543D01*
X133540100Y-94955543D01*
X133540100Y-94747480D01*
X147003301Y-94747480D01*
X147003702Y-94752949D01*
X147012715Y-94814184D01*
X147016141Y-94825209D01*
X147062885Y-94920417D01*
X147070019Y-94930382D01*
X147144820Y-95005051D01*
X147154802Y-95012172D01*
X147250095Y-95058752D01*
X147261109Y-95062156D01*
X147321768Y-95071006D01*
X147327201Y-95071400D01*
X147992941Y-95071400D01*
X148003098Y-95067703D01*
X148006200Y-95062331D01*
X148006200Y-95058140D01*
X148361000Y-95058140D01*
X148364697Y-95068297D01*
X148370069Y-95071399D01*
X149039980Y-95071399D01*
X149045449Y-95070998D01*
X149106684Y-95061985D01*
X149117709Y-95058559D01*
X149212917Y-95011815D01*
X149222882Y-95004681D01*
X149297551Y-94929880D01*
X149304672Y-94919898D01*
X149351252Y-94824605D01*
X149354656Y-94813591D01*
X149363506Y-94752932D01*
X149363900Y-94747499D01*
X149363900Y-94081759D01*
X149360203Y-94071602D01*
X149354831Y-94068500D01*
X148374259Y-94068500D01*
X148364102Y-94072197D01*
X148361000Y-94077569D01*
X148361000Y-95058140D01*
X148006200Y-95058140D01*
X148006200Y-94081759D01*
X148002503Y-94071602D01*
X147997131Y-94068500D01*
X147016560Y-94068500D01*
X147006403Y-94072197D01*
X147003301Y-94077569D01*
X147003301Y-94747480D01*
X133540100Y-94747480D01*
X133540100Y-93700441D01*
X147003300Y-93700441D01*
X147006997Y-93710598D01*
X147012369Y-93713700D01*
X147992941Y-93713700D01*
X148003098Y-93710003D01*
X148006200Y-93704631D01*
X148006200Y-93700441D01*
X148361000Y-93700441D01*
X148364697Y-93710598D01*
X148370069Y-93713700D01*
X149350640Y-93713700D01*
X149360797Y-93710003D01*
X149363899Y-93704631D01*
X149363899Y-93050543D01*
X149745200Y-93050543D01*
X149745201Y-94731656D01*
X149754072Y-94776258D01*
X149787866Y-94826834D01*
X149794023Y-94830948D01*
X149832283Y-94856513D01*
X149832284Y-94856514D01*
X149838442Y-94860628D01*
X149883043Y-94869500D01*
X150723486Y-94869500D01*
X151564156Y-94869499D01*
X151608758Y-94860628D01*
X151659334Y-94826834D01*
X151693128Y-94776258D01*
X151698849Y-94747499D01*
X151698853Y-94747480D01*
X152083301Y-94747480D01*
X152083702Y-94752949D01*
X152092715Y-94814184D01*
X152096141Y-94825209D01*
X152142885Y-94920417D01*
X152150019Y-94930382D01*
X152224820Y-95005051D01*
X152234802Y-95012172D01*
X152330095Y-95058752D01*
X152341109Y-95062156D01*
X152401768Y-95071006D01*
X152407201Y-95071400D01*
X153072941Y-95071400D01*
X153083098Y-95067703D01*
X153086200Y-95062331D01*
X153086200Y-95058140D01*
X153441000Y-95058140D01*
X153444697Y-95068297D01*
X153450069Y-95071399D01*
X154119980Y-95071399D01*
X154125449Y-95070998D01*
X154186684Y-95061985D01*
X154197709Y-95058559D01*
X154292917Y-95011815D01*
X154302882Y-95004681D01*
X154377551Y-94929880D01*
X154384672Y-94919898D01*
X154431252Y-94824605D01*
X154434656Y-94813591D01*
X154443506Y-94752932D01*
X154443900Y-94747499D01*
X154443900Y-94081759D01*
X154440203Y-94071602D01*
X154434831Y-94068500D01*
X153454259Y-94068500D01*
X153444102Y-94072197D01*
X153441000Y-94077569D01*
X153441000Y-95058140D01*
X153086200Y-95058140D01*
X153086200Y-94081759D01*
X153082503Y-94071602D01*
X153077131Y-94068500D01*
X152096560Y-94068500D01*
X152086403Y-94072197D01*
X152083301Y-94077569D01*
X152083301Y-94747480D01*
X151698853Y-94747480D01*
X151701279Y-94735282D01*
X151701279Y-94735281D01*
X151702000Y-94731657D01*
X151701999Y-93700441D01*
X152083300Y-93700441D01*
X152086997Y-93710598D01*
X152092369Y-93713700D01*
X153072941Y-93713700D01*
X153083098Y-93710003D01*
X153086200Y-93704631D01*
X153086200Y-93700441D01*
X153441000Y-93700441D01*
X153444697Y-93710598D01*
X153450069Y-93713700D01*
X154430640Y-93713700D01*
X154440797Y-93710003D01*
X154443899Y-93704631D01*
X154443899Y-93034720D01*
X154443498Y-93029251D01*
X154434485Y-92968016D01*
X154431059Y-92956991D01*
X154384315Y-92861783D01*
X154377181Y-92851818D01*
X154302380Y-92777149D01*
X154292398Y-92770028D01*
X154197105Y-92723448D01*
X154186091Y-92720044D01*
X154125432Y-92711194D01*
X154119999Y-92710800D01*
X153454259Y-92710800D01*
X153444102Y-92714497D01*
X153441000Y-92719869D01*
X153441000Y-93700441D01*
X153086200Y-93700441D01*
X153086200Y-92724060D01*
X153082503Y-92713903D01*
X153077131Y-92710801D01*
X152407220Y-92710801D01*
X152401751Y-92711202D01*
X152340516Y-92720215D01*
X152329491Y-92723641D01*
X152234283Y-92770385D01*
X152224318Y-92777519D01*
X152149649Y-92852320D01*
X152142528Y-92862302D01*
X152095948Y-92957595D01*
X152092544Y-92968609D01*
X152083694Y-93029268D01*
X152083300Y-93034701D01*
X152083300Y-93700441D01*
X151701999Y-93700441D01*
X151701999Y-93050544D01*
X151693128Y-93005942D01*
X151659334Y-92955366D01*
X151614918Y-92925688D01*
X151614916Y-92925686D01*
X151608758Y-92921572D01*
X151564157Y-92912700D01*
X150723714Y-92912700D01*
X149883044Y-92912701D01*
X149838442Y-92921572D01*
X149787866Y-92955366D01*
X149754072Y-93005942D01*
X149752627Y-93013206D01*
X149748348Y-93034720D01*
X149745200Y-93050543D01*
X149363899Y-93050543D01*
X149363899Y-93034720D01*
X149363498Y-93029251D01*
X149354485Y-92968016D01*
X149351059Y-92956991D01*
X149304315Y-92861783D01*
X149297181Y-92851818D01*
X149222380Y-92777149D01*
X149212398Y-92770028D01*
X149117105Y-92723448D01*
X149106091Y-92720044D01*
X149045432Y-92711194D01*
X149039999Y-92710800D01*
X148374259Y-92710800D01*
X148364102Y-92714497D01*
X148361000Y-92719869D01*
X148361000Y-93700441D01*
X148006200Y-93700441D01*
X148006200Y-92724060D01*
X148002503Y-92713903D01*
X147997131Y-92710801D01*
X147327220Y-92710801D01*
X147321751Y-92711202D01*
X147260516Y-92720215D01*
X147249491Y-92723641D01*
X147154283Y-92770385D01*
X147144318Y-92777519D01*
X147069649Y-92852320D01*
X147062528Y-92862302D01*
X147015948Y-92957595D01*
X147012544Y-92968609D01*
X147003694Y-93029268D01*
X147003300Y-93034701D01*
X147003300Y-93700441D01*
X133540100Y-93700441D01*
X133540100Y-92207480D01*
X147003301Y-92207480D01*
X147003702Y-92212949D01*
X147012715Y-92274184D01*
X147016141Y-92285209D01*
X147062885Y-92380417D01*
X147070019Y-92390382D01*
X147144820Y-92465051D01*
X147154802Y-92472172D01*
X147250095Y-92518752D01*
X147261109Y-92522156D01*
X147321768Y-92531006D01*
X147327201Y-92531400D01*
X147992941Y-92531400D01*
X148003098Y-92527703D01*
X148006200Y-92522331D01*
X148006200Y-92518140D01*
X148361000Y-92518140D01*
X148364697Y-92528297D01*
X148370069Y-92531399D01*
X149039980Y-92531399D01*
X149045449Y-92530998D01*
X149106684Y-92521985D01*
X149117709Y-92518559D01*
X149212917Y-92471815D01*
X149222882Y-92464681D01*
X149297551Y-92389880D01*
X149304672Y-92379898D01*
X149351252Y-92284605D01*
X149354656Y-92273591D01*
X149363506Y-92212932D01*
X149363900Y-92207499D01*
X149363900Y-91541759D01*
X149360203Y-91531602D01*
X149354831Y-91528500D01*
X148374259Y-91528500D01*
X148364102Y-91532197D01*
X148361000Y-91537569D01*
X148361000Y-92518140D01*
X148006200Y-92518140D01*
X148006200Y-91541759D01*
X148002503Y-91531602D01*
X147997131Y-91528500D01*
X147016560Y-91528500D01*
X147006403Y-91532197D01*
X147003301Y-91537569D01*
X147003301Y-92207480D01*
X133540100Y-92207480D01*
X133540100Y-91160441D01*
X147003300Y-91160441D01*
X147006997Y-91170598D01*
X147012369Y-91173700D01*
X147992941Y-91173700D01*
X148003098Y-91170003D01*
X148006200Y-91164631D01*
X148006200Y-91160441D01*
X148361000Y-91160441D01*
X148364697Y-91170598D01*
X148370069Y-91173700D01*
X149350640Y-91173700D01*
X149360797Y-91170003D01*
X149363899Y-91164631D01*
X149363899Y-90510543D01*
X149745200Y-90510543D01*
X149745201Y-92191656D01*
X149754072Y-92236258D01*
X149787866Y-92286834D01*
X149794023Y-92290948D01*
X149832283Y-92316513D01*
X149832284Y-92316514D01*
X149838442Y-92320628D01*
X149883043Y-92329500D01*
X150723486Y-92329500D01*
X151564156Y-92329499D01*
X151608758Y-92320628D01*
X151659334Y-92286834D01*
X151693128Y-92236258D01*
X151698849Y-92207499D01*
X151698853Y-92207480D01*
X152083301Y-92207480D01*
X152083702Y-92212949D01*
X152092715Y-92274184D01*
X152096141Y-92285209D01*
X152142885Y-92380417D01*
X152150019Y-92390382D01*
X152224820Y-92465051D01*
X152234802Y-92472172D01*
X152330095Y-92518752D01*
X152341109Y-92522156D01*
X152401768Y-92531006D01*
X152407201Y-92531400D01*
X153072941Y-92531400D01*
X153083098Y-92527703D01*
X153086200Y-92522331D01*
X153086200Y-92518140D01*
X153441000Y-92518140D01*
X153444697Y-92528297D01*
X153450069Y-92531399D01*
X154119980Y-92531399D01*
X154125449Y-92530998D01*
X154186684Y-92521985D01*
X154197709Y-92518559D01*
X154292917Y-92471815D01*
X154302882Y-92464681D01*
X154377551Y-92389880D01*
X154384672Y-92379898D01*
X154431252Y-92284605D01*
X154434656Y-92273591D01*
X154443506Y-92212932D01*
X154443900Y-92207499D01*
X154443900Y-91541759D01*
X154440203Y-91531602D01*
X154434831Y-91528500D01*
X153454259Y-91528500D01*
X153444102Y-91532197D01*
X153441000Y-91537569D01*
X153441000Y-92518140D01*
X153086200Y-92518140D01*
X153086200Y-91541759D01*
X153082503Y-91531602D01*
X153077131Y-91528500D01*
X152096560Y-91528500D01*
X152086403Y-91532197D01*
X152083301Y-91537569D01*
X152083301Y-92207480D01*
X151698853Y-92207480D01*
X151701279Y-92195282D01*
X151701279Y-92195281D01*
X151702000Y-92191657D01*
X151701999Y-91160441D01*
X152083300Y-91160441D01*
X152086997Y-91170598D01*
X152092369Y-91173700D01*
X153072941Y-91173700D01*
X153083098Y-91170003D01*
X153086200Y-91164631D01*
X153086200Y-91160441D01*
X153441000Y-91160441D01*
X153444697Y-91170598D01*
X153450069Y-91173700D01*
X154430640Y-91173700D01*
X154440797Y-91170003D01*
X154443899Y-91164631D01*
X154443899Y-90494720D01*
X154443498Y-90489251D01*
X154434485Y-90428016D01*
X154431059Y-90416991D01*
X154384315Y-90321783D01*
X154377181Y-90311818D01*
X154302380Y-90237149D01*
X154292398Y-90230028D01*
X154197105Y-90183448D01*
X154186091Y-90180044D01*
X154125432Y-90171194D01*
X154119999Y-90170800D01*
X153454259Y-90170800D01*
X153444102Y-90174497D01*
X153441000Y-90179869D01*
X153441000Y-91160441D01*
X153086200Y-91160441D01*
X153086200Y-90184060D01*
X153082503Y-90173903D01*
X153077131Y-90170801D01*
X152407220Y-90170801D01*
X152401751Y-90171202D01*
X152340516Y-90180215D01*
X152329491Y-90183641D01*
X152234283Y-90230385D01*
X152224318Y-90237519D01*
X152149649Y-90312320D01*
X152142528Y-90322302D01*
X152095948Y-90417595D01*
X152092544Y-90428609D01*
X152083694Y-90489268D01*
X152083300Y-90494701D01*
X152083300Y-91160441D01*
X151701999Y-91160441D01*
X151701999Y-90510544D01*
X151693128Y-90465942D01*
X151659334Y-90415366D01*
X151614918Y-90385688D01*
X151614916Y-90385686D01*
X151608758Y-90381572D01*
X151564157Y-90372700D01*
X150723714Y-90372700D01*
X149883044Y-90372701D01*
X149838442Y-90381572D01*
X149787866Y-90415366D01*
X149754072Y-90465942D01*
X149752627Y-90473206D01*
X149748348Y-90494720D01*
X149745200Y-90510543D01*
X149363899Y-90510543D01*
X149363899Y-90494720D01*
X149363498Y-90489251D01*
X149354485Y-90428016D01*
X149351059Y-90416991D01*
X149304315Y-90321783D01*
X149297181Y-90311818D01*
X149222380Y-90237149D01*
X149212398Y-90230028D01*
X149117105Y-90183448D01*
X149106091Y-90180044D01*
X149045432Y-90171194D01*
X149039999Y-90170800D01*
X148374259Y-90170800D01*
X148364102Y-90174497D01*
X148361000Y-90179869D01*
X148361000Y-91160441D01*
X148006200Y-91160441D01*
X148006200Y-90184060D01*
X148002503Y-90173903D01*
X147997131Y-90170801D01*
X147327220Y-90170801D01*
X147321751Y-90171202D01*
X147260516Y-90180215D01*
X147249491Y-90183641D01*
X147154283Y-90230385D01*
X147144318Y-90237519D01*
X147069649Y-90312320D01*
X147062528Y-90322302D01*
X147015948Y-90417595D01*
X147012544Y-90428609D01*
X147003694Y-90489268D01*
X147003300Y-90494701D01*
X147003300Y-91160441D01*
X133540100Y-91160441D01*
X133540100Y-89667480D01*
X147003301Y-89667480D01*
X147003702Y-89672949D01*
X147012715Y-89734184D01*
X147016141Y-89745209D01*
X147062885Y-89840417D01*
X147070019Y-89850382D01*
X147144820Y-89925051D01*
X147154802Y-89932172D01*
X147250095Y-89978752D01*
X147261109Y-89982156D01*
X147321768Y-89991006D01*
X147327201Y-89991400D01*
X147992941Y-89991400D01*
X148003098Y-89987703D01*
X148006200Y-89982331D01*
X148006200Y-89978140D01*
X148361000Y-89978140D01*
X148364697Y-89988297D01*
X148370069Y-89991399D01*
X149039980Y-89991399D01*
X149045449Y-89990998D01*
X149106684Y-89981985D01*
X149117709Y-89978559D01*
X149212917Y-89931815D01*
X149222882Y-89924681D01*
X149297551Y-89849880D01*
X149304672Y-89839898D01*
X149351252Y-89744605D01*
X149354656Y-89733591D01*
X149363506Y-89672932D01*
X149363900Y-89667499D01*
X149363900Y-89001759D01*
X149360203Y-88991602D01*
X149354831Y-88988500D01*
X148374259Y-88988500D01*
X148364102Y-88992197D01*
X148361000Y-88997569D01*
X148361000Y-89978140D01*
X148006200Y-89978140D01*
X148006200Y-89001759D01*
X148002503Y-88991602D01*
X147997131Y-88988500D01*
X147016560Y-88988500D01*
X147006403Y-88992197D01*
X147003301Y-88997569D01*
X147003301Y-89667480D01*
X133540100Y-89667480D01*
X133540100Y-88620441D01*
X147003300Y-88620441D01*
X147006997Y-88630598D01*
X147012369Y-88633700D01*
X147992941Y-88633700D01*
X148003098Y-88630003D01*
X148006200Y-88624631D01*
X148006200Y-88620441D01*
X148361000Y-88620441D01*
X148364697Y-88630598D01*
X148370069Y-88633700D01*
X149350640Y-88633700D01*
X149360797Y-88630003D01*
X149363899Y-88624631D01*
X149363899Y-87970543D01*
X149745200Y-87970543D01*
X149745201Y-89651656D01*
X149754072Y-89696258D01*
X149787866Y-89746834D01*
X149794023Y-89750948D01*
X149832283Y-89776513D01*
X149832284Y-89776514D01*
X149838442Y-89780628D01*
X149883043Y-89789500D01*
X150723486Y-89789500D01*
X151564156Y-89789499D01*
X151608758Y-89780628D01*
X151659334Y-89746834D01*
X151693128Y-89696258D01*
X151698849Y-89667499D01*
X151698853Y-89667480D01*
X152083301Y-89667480D01*
X152083702Y-89672949D01*
X152092715Y-89734184D01*
X152096141Y-89745209D01*
X152142885Y-89840417D01*
X152150019Y-89850382D01*
X152224820Y-89925051D01*
X152234802Y-89932172D01*
X152330095Y-89978752D01*
X152341109Y-89982156D01*
X152401768Y-89991006D01*
X152407201Y-89991400D01*
X153072941Y-89991400D01*
X153083098Y-89987703D01*
X153086200Y-89982331D01*
X153086200Y-89978140D01*
X153441000Y-89978140D01*
X153444697Y-89988297D01*
X153450069Y-89991399D01*
X154119980Y-89991399D01*
X154125449Y-89990998D01*
X154186684Y-89981985D01*
X154197709Y-89978559D01*
X154292917Y-89931815D01*
X154302882Y-89924681D01*
X154377551Y-89849880D01*
X154384672Y-89839898D01*
X154431252Y-89744605D01*
X154434656Y-89733591D01*
X154443506Y-89672932D01*
X154443900Y-89667499D01*
X154443900Y-89001759D01*
X154440203Y-88991602D01*
X154434831Y-88988500D01*
X153454259Y-88988500D01*
X153444102Y-88992197D01*
X153441000Y-88997569D01*
X153441000Y-89978140D01*
X153086200Y-89978140D01*
X153086200Y-89001759D01*
X153082503Y-88991602D01*
X153077131Y-88988500D01*
X152096560Y-88988500D01*
X152086403Y-88992197D01*
X152083301Y-88997569D01*
X152083301Y-89667480D01*
X151698853Y-89667480D01*
X151701279Y-89655282D01*
X151701279Y-89655281D01*
X151702000Y-89651657D01*
X151701999Y-88620441D01*
X152083300Y-88620441D01*
X152086997Y-88630598D01*
X152092369Y-88633700D01*
X153072941Y-88633700D01*
X153083098Y-88630003D01*
X153086200Y-88624631D01*
X153086200Y-88620441D01*
X153441000Y-88620441D01*
X153444697Y-88630598D01*
X153450069Y-88633700D01*
X154430640Y-88633700D01*
X154440797Y-88630003D01*
X154443899Y-88624631D01*
X154443899Y-87954720D01*
X154443498Y-87949251D01*
X154434485Y-87888016D01*
X154431059Y-87876991D01*
X154384315Y-87781783D01*
X154377181Y-87771818D01*
X154302380Y-87697149D01*
X154292398Y-87690028D01*
X154197105Y-87643448D01*
X154186091Y-87640044D01*
X154125432Y-87631194D01*
X154119999Y-87630800D01*
X153454259Y-87630800D01*
X153444102Y-87634497D01*
X153441000Y-87639869D01*
X153441000Y-88620441D01*
X153086200Y-88620441D01*
X153086200Y-87644060D01*
X153082503Y-87633903D01*
X153077131Y-87630801D01*
X152407220Y-87630801D01*
X152401751Y-87631202D01*
X152340516Y-87640215D01*
X152329491Y-87643641D01*
X152234283Y-87690385D01*
X152224318Y-87697519D01*
X152149649Y-87772320D01*
X152142528Y-87782302D01*
X152095948Y-87877595D01*
X152092544Y-87888609D01*
X152083694Y-87949268D01*
X152083300Y-87954701D01*
X152083300Y-88620441D01*
X151701999Y-88620441D01*
X151701999Y-87970544D01*
X151693128Y-87925942D01*
X151659334Y-87875366D01*
X151614918Y-87845688D01*
X151614916Y-87845686D01*
X151608758Y-87841572D01*
X151564157Y-87832700D01*
X150723714Y-87832700D01*
X149883044Y-87832701D01*
X149838442Y-87841572D01*
X149787866Y-87875366D01*
X149754072Y-87925942D01*
X149752627Y-87933206D01*
X149748348Y-87954720D01*
X149745200Y-87970543D01*
X149363899Y-87970543D01*
X149363899Y-87954720D01*
X149363498Y-87949251D01*
X149354485Y-87888016D01*
X149351059Y-87876991D01*
X149304315Y-87781783D01*
X149297181Y-87771818D01*
X149222380Y-87697149D01*
X149212398Y-87690028D01*
X149117105Y-87643448D01*
X149106091Y-87640044D01*
X149045432Y-87631194D01*
X149039999Y-87630800D01*
X148374259Y-87630800D01*
X148364102Y-87634497D01*
X148361000Y-87639869D01*
X148361000Y-88620441D01*
X148006200Y-88620441D01*
X148006200Y-87644060D01*
X148002503Y-87633903D01*
X147997131Y-87630801D01*
X147327220Y-87630801D01*
X147321751Y-87631202D01*
X147260516Y-87640215D01*
X147249491Y-87643641D01*
X147154283Y-87690385D01*
X147144318Y-87697519D01*
X147069649Y-87772320D01*
X147062528Y-87782302D01*
X147015948Y-87877595D01*
X147012544Y-87888609D01*
X147003694Y-87949268D01*
X147003300Y-87954701D01*
X147003300Y-88620441D01*
X133540100Y-88620441D01*
X133540100Y-85037800D01*
X133557693Y-84989462D01*
X133602242Y-84963742D01*
X133615300Y-84962600D01*
X163386900Y-84962600D01*
X163435238Y-84980193D01*
G37*
%TD.AperFunction*%
%TD*%
M02*
