%TF.GenerationSoftware,KiCad,Pcbnew,6.0.4-6f826c9f35~116~ubuntu20.04.1*%
%TF.CreationDate,2022-07-20T15:12:22+00:00*%
%TF.ProjectId,TPS63060V01B,54505336-3330-4363-9056-3031422e6b69,rev?*%
%TF.SameCoordinates,Original*%
%TF.FileFunction,Copper,L2,Bot*%
%TF.FilePolarity,Positive*%
%FSLAX46Y46*%
G04 Gerber Fmt 4.6, Leading zero omitted, Abs format (unit mm)*
G04 Created by KiCad (PCBNEW 6.0.4-6f826c9f35~116~ubuntu20.04.1) date 2022-07-20 15:12:22*
%MOMM*%
%LPD*%
G01*
G04 APERTURE LIST*
G04 Aperture macros list*
%AMRoundRect*
0 Rectangle with rounded corners*
0 $1 Rounding radius*
0 $2 $3 $4 $5 $6 $7 $8 $9 X,Y pos of 4 corners*
0 Add a 4 corners polygon primitive as box body*
4,1,4,$2,$3,$4,$5,$6,$7,$8,$9,$2,$3,0*
0 Add four circle primitives for the rounded corners*
1,1,$1+$1,$2,$3*
1,1,$1+$1,$4,$5*
1,1,$1+$1,$6,$7*
1,1,$1+$1,$8,$9*
0 Add four rect primitives between the rounded corners*
20,1,$1+$1,$2,$3,$4,$5,0*
20,1,$1+$1,$4,$5,$6,$7,0*
20,1,$1+$1,$6,$7,$8,$9,0*
20,1,$1+$1,$8,$9,$2,$3,0*%
G04 Aperture macros list end*
%ADD10C,0.101600*%
%TA.AperFunction,NonConductor*%
%ADD11C,0.101600*%
%TD*%
%TA.AperFunction,ComponentPad*%
%ADD12R,1.651000X1.651000*%
%TD*%
%TA.AperFunction,ComponentPad*%
%ADD13C,6.000000*%
%TD*%
%TA.AperFunction,SMDPad,CuDef*%
%ADD14RoundRect,0.250000X-0.475000X0.250000X-0.475000X-0.250000X0.475000X-0.250000X0.475000X0.250000X0*%
%TD*%
%TA.AperFunction,SMDPad,CuDef*%
%ADD15RoundRect,0.250000X0.262500X0.450000X-0.262500X0.450000X-0.262500X-0.450000X0.262500X-0.450000X0*%
%TD*%
%TA.AperFunction,SMDPad,CuDef*%
%ADD16RoundRect,0.250000X0.250000X0.475000X-0.250000X0.475000X-0.250000X-0.475000X0.250000X-0.475000X0*%
%TD*%
%TA.AperFunction,SMDPad,CuDef*%
%ADD17R,1.400000X1.000000*%
%TD*%
%TA.AperFunction,SMDPad,CuDef*%
%ADD18R,1.800000X2.500000*%
%TD*%
%TA.AperFunction,SMDPad,CuDef*%
%ADD19RoundRect,0.250000X-0.262500X-0.450000X0.262500X-0.450000X0.262500X0.450000X-0.262500X0.450000X0*%
%TD*%
%TA.AperFunction,SMDPad,CuDef*%
%ADD20R,5.500000X3.000000*%
%TD*%
%TA.AperFunction,SMDPad,CuDef*%
%ADD21R,1.900000X3.400000*%
%TD*%
%TA.AperFunction,SMDPad,CuDef*%
%ADD22RoundRect,0.250000X0.450000X-0.262500X0.450000X0.262500X-0.450000X0.262500X-0.450000X-0.262500X0*%
%TD*%
%TA.AperFunction,SMDPad,CuDef*%
%ADD23RoundRect,0.250000X0.475000X-0.250000X0.475000X0.250000X-0.475000X0.250000X-0.475000X-0.250000X0*%
%TD*%
%TA.AperFunction,SMDPad,CuDef*%
%ADD24R,2.550160X2.499360*%
%TD*%
%TA.AperFunction,SMDPad,CuDef*%
%ADD25R,2.499360X2.550160*%
%TD*%
%TA.AperFunction,SMDPad,CuDef*%
%ADD26R,0.280000X0.280000*%
%TD*%
%TA.AperFunction,SMDPad,CuDef*%
%ADD27O,0.280000X0.850000*%
%TD*%
%TA.AperFunction,SMDPad,CuDef*%
%ADD28R,0.700000X0.250000*%
%TD*%
%TA.AperFunction,ComponentPad*%
%ADD29C,0.600000*%
%TD*%
%TA.AperFunction,SMDPad,CuDef*%
%ADD30R,2.150000X1.700000*%
%TD*%
%TA.AperFunction,SMDPad,CuDef*%
%ADD31R,0.900000X0.650000*%
%TD*%
%TA.AperFunction,SMDPad,CuDef*%
%ADD32R,0.600000X0.230000*%
%TD*%
%TA.AperFunction,ViaPad*%
%ADD33C,0.906400*%
%TD*%
%TA.AperFunction,ViaPad*%
%ADD34C,0.806400*%
%TD*%
%TA.AperFunction,Conductor*%
%ADD35C,0.304800*%
%TD*%
%TA.AperFunction,Conductor*%
%ADD36C,0.812800*%
%TD*%
G04 APERTURE END LIST*
D10*
D11*
X161475540Y-114892061D02*
X161475540Y-115726633D01*
X161531179Y-115893547D01*
X161642455Y-116004823D01*
X161809369Y-116060461D01*
X161920645Y-116060461D01*
X160974798Y-115726633D02*
X160418417Y-115726633D01*
X161086074Y-116060461D02*
X160696607Y-114892061D01*
X160307140Y-116060461D01*
X159250017Y-115949185D02*
X159305655Y-116004823D01*
X159472569Y-116060461D01*
X159583845Y-116060461D01*
X159750760Y-116004823D01*
X159862036Y-115893547D01*
X159917674Y-115782271D01*
X159973312Y-115559719D01*
X159973312Y-115392804D01*
X159917674Y-115170252D01*
X159862036Y-115058976D01*
X159750760Y-114947700D01*
X159583845Y-114892061D01*
X159472569Y-114892061D01*
X159305655Y-114947700D01*
X159250017Y-115003338D01*
X158749274Y-116060461D02*
X158749274Y-114892061D01*
X158749274Y-115448442D02*
X158081617Y-115448442D01*
X158081617Y-116060461D02*
X158081617Y-114892061D01*
X157302683Y-114892061D02*
X157080131Y-114892061D01*
X156968855Y-114947700D01*
X156857579Y-115058976D01*
X156801940Y-115281528D01*
X156801940Y-115670995D01*
X156857579Y-115893547D01*
X156968855Y-116004823D01*
X157080131Y-116060461D01*
X157302683Y-116060461D01*
X157413960Y-116004823D01*
X157525236Y-115893547D01*
X157580874Y-115670995D01*
X157580874Y-115281528D01*
X157525236Y-115058976D01*
X157413960Y-114947700D01*
X157302683Y-114892061D01*
D12*
%TO.P,SV1,1,P$1*%
%TO.N,Net-(SV1-Pad1)*%
X136753600Y-109448600D03*
%TO.P,SV1,2,P$1*%
%TO.N,Net-(SV1-Pad2)*%
X136753600Y-111988600D03*
%TO.P,SV1,3,P$1*%
%TO.N,Net-(C20-Pad1)*%
X136753600Y-114528600D03*
%TD*%
%TO.P,SV6,1,P$1*%
%TO.N,Net-(SV6-Pad1)*%
X139611100Y-103416100D03*
%TO.P,SV6,2,P$1*%
%TO.N,GND*%
X137071100Y-103416100D03*
%TD*%
D13*
%TO.P,X2,1*%
%TO.N,GND*%
X138341100Y-120243600D03*
%TD*%
D12*
%TO.P,SV4,1,P$1*%
%TO.N,Net-(X5-Pad8)*%
X139611100Y-98336100D03*
%TO.P,SV4,2,P$1*%
%TO.N,Net-(R4-Pad1)*%
X137071100Y-98336100D03*
%TO.P,SV4,3,P$1*%
%TO.N,Net-(X5-Pad8)*%
X139611100Y-95796100D03*
%TO.P,SV4,4,P$1*%
%TO.N,Net-(R5-Pad1)*%
X137071100Y-95796100D03*
%TD*%
D13*
%TO.P,X4,1*%
%TO.N,GND*%
X158661100Y-120243600D03*
%TD*%
D12*
%TO.P,SV5,1,K*%
%TO.N,GND*%
X153263600Y-88811100D03*
%TO.P,SV5,2,K*%
X153263600Y-91351100D03*
%TO.P,SV5,3,K*%
%TO.N,Net-(C3-Pad1)*%
X150723600Y-88811100D03*
%TO.P,SV5,4,K*%
X150723600Y-91351100D03*
%TO.P,SV5,5,K*%
%TO.N,GND*%
X148183600Y-88811100D03*
%TO.P,SV5,6,K*%
X148183600Y-91351100D03*
%TD*%
D13*
%TO.P,X1,1*%
%TO.N,GND*%
X138341100Y-89763600D03*
%TD*%
%TO.P,X3,1*%
%TO.N,GND*%
X158661100Y-89763600D03*
%TD*%
D12*
%TO.P,SV2,1,K*%
%TO.N,GND*%
X148183600Y-96431100D03*
%TO.P,SV2,2,K*%
X148183600Y-93891100D03*
%TO.P,SV2,3,K*%
%TO.N,Net-(C3-Pad1)*%
X150723600Y-96431100D03*
%TO.P,SV2,4,K*%
X150723600Y-93891100D03*
%TO.P,SV2,5,K*%
%TO.N,GND*%
X153263600Y-96431100D03*
%TO.P,SV2,6,K*%
X153263600Y-93891100D03*
%TD*%
%TO.P,SV7,1,P$1*%
%TO.N,Net-(SV7-Pad1)*%
X139611100Y-100876100D03*
%TO.P,SV7,2,P$1*%
X137071100Y-100876100D03*
%TD*%
%TO.P,SV3,1,K*%
%TO.N,GND*%
X151993600Y-118338600D03*
%TO.P,SV3,2,K*%
X151993600Y-120878600D03*
%TO.P,SV3,3,K*%
%TO.N,Net-(P1-Pad1)*%
X149453600Y-118338600D03*
%TO.P,SV3,4,K*%
X149453600Y-120878600D03*
%TO.P,SV3,5,K*%
%TO.N,GND*%
X146913600Y-118338600D03*
%TO.P,SV3,6,K*%
X146913600Y-120878600D03*
%TD*%
D14*
%TO.P,C1,1*%
%TO.N,GND*%
X145008600Y-103101100D03*
%TO.P,C1,2*%
%TO.N,Net-(X5-Pad6)*%
X145008600Y-105001100D03*
%TD*%
D15*
%TO.P,R2,1*%
%TO.N,GND*%
X144651100Y-98971100D03*
%TO.P,R2,2*%
%TO.N,Net-(X5-Pad8)*%
X142826100Y-98971100D03*
%TD*%
D16*
%TO.P,C16,1*%
%TO.N,GND*%
X149768600Y-111671100D03*
%TO.P,C16,2*%
%TO.N,Net-(C20-Pad1)*%
X147868600Y-111671100D03*
%TD*%
%TO.P,C2,1*%
%TO.N,GND*%
X157706100Y-94208600D03*
%TO.P,C2,2*%
%TO.N,Net-(C3-Pad1)*%
X155806100Y-94208600D03*
%TD*%
D17*
%TO.P,X9,1,GND*%
%TO.N,GND*%
X137536100Y-105323600D03*
%TO.P,X9,2,/RESET*%
%TO.N,Net-(SV1-Pad1)*%
X137536100Y-107223600D03*
%TO.P,X9,3,VCC*%
%TO.N,Net-(C20-Pad1)*%
X135336100Y-106273600D03*
%TD*%
D18*
%TO.P,D1,1,K*%
%TO.N,Net-(C20-Pad1)*%
X144056100Y-117926100D03*
%TO.P,D1,2,A*%
%TO.N,GND*%
X144056100Y-121926100D03*
%TD*%
D19*
%TO.P,R5,1*%
%TO.N,Net-(R5-Pad1)*%
X141873600Y-97066100D03*
%TO.P,R5,2*%
%TO.N,Net-(C3-Pad1)*%
X143698600Y-97066100D03*
%TD*%
D20*
%TO.P,L1,1*%
%TO.N,Net-(X5-Pad1)*%
X156756100Y-111273600D03*
%TO.P,L1,2*%
%TO.N,Net-(X5-Pad10)*%
X156756100Y-101273600D03*
%TD*%
D21*
%TO.P,P1,1,1*%
%TO.N,Net-(P1-Pad1)*%
X144190000Y-114808000D03*
%TO.P,P1,2,2*%
%TO.N,Net-(C20-Pad1)*%
X140290000Y-114808000D03*
%TD*%
D22*
%TO.P,R3,1*%
%TO.N,Net-(SV7-Pad1)*%
X143103600Y-104963600D03*
%TO.P,R3,2*%
%TO.N,Net-(C3-Pad1)*%
X143103600Y-103138600D03*
%TD*%
D23*
%TO.P,C5,1*%
%TO.N,Net-(X5-Pad8)*%
X146596100Y-102143600D03*
%TO.P,C5,2*%
%TO.N,GND*%
X146596100Y-100243600D03*
%TD*%
D24*
%TO.P,C6,1*%
%TO.N,Net-(C3-Pad1)*%
X156453840Y-97066100D03*
%TO.P,C6,2*%
%TO.N,GND*%
X161503360Y-97066100D03*
%TD*%
D19*
%TO.P,R4,1*%
%TO.N,Net-(R4-Pad1)*%
X141873600Y-100876100D03*
%TO.P,R4,2*%
%TO.N,Net-(C3-Pad1)*%
X143698600Y-100876100D03*
%TD*%
D25*
%TO.P,C3,1*%
%TO.N,Net-(C3-Pad1)*%
X144373600Y-94193360D03*
%TO.P,C3,2*%
%TO.N,GND*%
X144373600Y-89143840D03*
%TD*%
D26*
%TO.P,X5,1,L1*%
%TO.N,Net-(X5-Pad1)*%
X148866100Y-108668600D03*
D27*
X148866100Y-108383600D03*
D26*
%TO.P,X5,2,VIN*%
%TO.N,Net-(C20-Pad1)*%
X148366100Y-108668600D03*
D27*
X148366100Y-108383600D03*
D26*
%TO.P,X5,3,EN*%
%TO.N,Net-(SV1-Pad2)*%
X147866100Y-108668600D03*
D27*
X147866100Y-108383600D03*
D26*
%TO.P,X5,4,PS/SYNC*%
%TO.N,Net-(SV6-Pad1)*%
X147366100Y-108668600D03*
D27*
X147366100Y-108383600D03*
D26*
%TO.P,X5,5,PG*%
%TO.N,Net-(SV7-Pad1)*%
X146866100Y-108668600D03*
D27*
X146866100Y-108383600D03*
%TO.P,X5,6,VAUX*%
%TO.N,Net-(X5-Pad6)*%
X146866100Y-105433600D03*
D26*
X146866100Y-105148600D03*
%TO.P,X5,7,GND*%
%TO.N,GND*%
X147366100Y-105148600D03*
D27*
X147366100Y-105433600D03*
%TO.P,X5,8,FB*%
%TO.N,Net-(X5-Pad8)*%
X147866100Y-105433600D03*
D26*
X147866100Y-105148600D03*
%TO.P,X5,9,VOUT*%
%TO.N,Net-(C3-Pad1)*%
X148366100Y-105148600D03*
D27*
X148366100Y-105433600D03*
%TO.P,X5,10,L2*%
%TO.N,Net-(X5-Pad10)*%
X148866100Y-105433600D03*
D26*
X148866100Y-105148600D03*
D28*
%TO.P,X5,11,PGND*%
%TO.N,GND*%
X146441100Y-106308600D03*
X149291100Y-106308600D03*
X149291100Y-107508600D03*
D29*
X148366100Y-106408600D03*
D30*
X147866100Y-106908600D03*
D29*
X147866100Y-106908600D03*
D31*
X148426100Y-106473600D03*
D28*
X146441100Y-106708600D03*
D32*
X149291100Y-106308600D03*
D28*
X149291100Y-107108600D03*
D29*
X148366100Y-107408600D03*
D32*
X146441100Y-106708600D03*
D31*
X147306100Y-107343600D03*
D28*
X146441100Y-107508600D03*
X149291100Y-106708600D03*
D32*
X149291100Y-106708600D03*
D29*
X147366100Y-107408600D03*
X147366100Y-106408600D03*
D32*
X149291100Y-107108600D03*
X146441100Y-107508600D03*
D31*
X147306100Y-106473600D03*
X148426100Y-107343600D03*
D32*
X146441100Y-107108600D03*
X146441100Y-106308600D03*
D28*
X146441100Y-107108600D03*
D32*
X149291100Y-107508600D03*
%TD*%
D25*
%TO.P,C20,1*%
%TO.N,Net-(C20-Pad1)*%
X139928600Y-111338360D03*
%TO.P,C20,2*%
%TO.N,GND*%
X139928600Y-106288840D03*
%TD*%
D33*
%TO.N,GND*%
X152628600Y-86271100D03*
X157073600Y-106591100D03*
X155168600Y-118021100D03*
X145008600Y-100241100D03*
X157708600Y-113893600D03*
X155168600Y-115481100D03*
X146596100Y-93891100D03*
X141516100Y-122466100D03*
X154851100Y-90398600D03*
X145326100Y-123101100D03*
X158661100Y-97701100D03*
X160248600Y-113258600D03*
X160566100Y-101193600D03*
X155168600Y-116751100D03*
X146596100Y-95161100D03*
X151993600Y-112306100D03*
X144056100Y-123418600D03*
X154851100Y-87858600D03*
X159296100Y-98653600D03*
X146596100Y-91351100D03*
X146596100Y-90081100D03*
X160566100Y-99923600D03*
X150088600Y-86271100D03*
X145643600Y-106273600D03*
X156438600Y-104686100D03*
X155168600Y-122148600D03*
X142151100Y-93891100D03*
X149136100Y-123101100D03*
X155803600Y-106591100D03*
X146596100Y-92621100D03*
X154851100Y-91668600D03*
X160248600Y-94526100D03*
X154851100Y-92938600D03*
X158978600Y-104686100D03*
X153898600Y-86906100D03*
X146596100Y-88811100D03*
X150723600Y-123101100D03*
X145008600Y-101511100D03*
X148183600Y-101193600D03*
X160248600Y-111671100D03*
X156438600Y-113893600D03*
X154533600Y-123101100D03*
X142786100Y-123101100D03*
X140881100Y-108178600D03*
X142151100Y-92621100D03*
X153263600Y-123101100D03*
X138976100Y-108178600D03*
X148818600Y-86271100D03*
X154533600Y-106591100D03*
X152946100Y-99606100D03*
X158661100Y-96113600D03*
X158978600Y-94526100D03*
X157708600Y-104686100D03*
X146596100Y-96431100D03*
X160248600Y-110083600D03*
X151993600Y-123101100D03*
X146596100Y-123101100D03*
X148501100Y-100241100D03*
X151358600Y-86271100D03*
X155168600Y-104686100D03*
X154851100Y-89128600D03*
X153898600Y-104686100D03*
X158343600Y-106591100D03*
X146596100Y-87223600D03*
X158978600Y-113893600D03*
X155168600Y-114211100D03*
X147866100Y-86906100D03*
X160566100Y-102781100D03*
X147866100Y-123101100D03*
%TO.N,Net-(X5-Pad1)*%
X151993600Y-106591100D03*
X150406100Y-106908600D03*
X153263600Y-106591100D03*
X152946100Y-105638600D03*
%TO.N,Net-(X5-Pad10)*%
X160248600Y-108496100D03*
X159931100Y-104051100D03*
X159931100Y-106908600D03*
D34*
%TO.N,Net-(X5-Pad8)*%
X146278600Y-103416100D03*
%TD*%
D35*
%TO.N,GND*%
X147231100Y-106591100D02*
X146558600Y-106591100D01*
X147366100Y-105433600D02*
X147366100Y-106456100D01*
X146558600Y-106591100D02*
X146441100Y-106708600D01*
X148066100Y-106708600D02*
X147866100Y-106908600D01*
X147231100Y-106591100D02*
X147548600Y-106591100D01*
X147548600Y-106591100D02*
X147866100Y-106908600D01*
X149291100Y-106708600D02*
X148066100Y-106708600D01*
X147366100Y-106456100D02*
X147231100Y-106591100D01*
%TO.N,Net-(R4-Pad1)*%
X138341100Y-99606100D02*
X137071100Y-98336100D01*
X140246100Y-99606100D02*
X138341100Y-99606100D01*
X141516100Y-100876100D02*
X140246100Y-99606100D01*
X141836100Y-100876100D02*
X141516100Y-100876100D01*
%TO.N,Net-(R5-Pad1)*%
X138341100Y-97066100D02*
X137071100Y-95796100D01*
X141836100Y-97066100D02*
X138341100Y-97066100D01*
%TO.N,Net-(SV1-Pad1)*%
X137536100Y-108666100D02*
X136753600Y-109448600D01*
X137536100Y-107223600D02*
X137536100Y-108666100D01*
%TO.N,Net-(SV1-Pad2)*%
X138023600Y-109448600D02*
X138023600Y-110718600D01*
X138023600Y-110718600D02*
X136753600Y-111988600D01*
X147866100Y-109448600D02*
X147231100Y-110083600D01*
X138341100Y-109131100D02*
X138023600Y-109448600D01*
X145008600Y-109131100D02*
X138341100Y-109131100D01*
X145961100Y-110083600D02*
X145008600Y-109131100D01*
X147231100Y-110083600D02*
X145961100Y-110083600D01*
X147866100Y-108383600D02*
X147866100Y-109448600D01*
%TO.N,Net-(SV6-Pad1)*%
X140563600Y-104368600D02*
X139611100Y-103416100D01*
X145961100Y-109131100D02*
X145008600Y-108178600D01*
X147231100Y-109131100D02*
X145961100Y-109131100D01*
X141833600Y-105638600D02*
X141833600Y-105003600D01*
X144373600Y-108178600D02*
X141833600Y-105638600D01*
X141198600Y-104368600D02*
X140563600Y-104368600D01*
X141833600Y-105003600D02*
X141198600Y-104368600D01*
X147366100Y-108383600D02*
X147366100Y-108996100D01*
X147366100Y-108996100D02*
X147231100Y-109131100D01*
X145008600Y-108178600D02*
X144373600Y-108178600D01*
%TO.N,Net-(X5-Pad8)*%
X146278600Y-103416100D02*
X146278600Y-102461100D01*
X147231100Y-104051100D02*
X147231100Y-102778600D01*
X146278600Y-102461100D02*
X146596100Y-102143600D01*
X142788600Y-98971100D02*
X140246100Y-98971100D01*
X147866100Y-104686100D02*
X147231100Y-104051100D01*
X147866100Y-105433600D02*
X147866100Y-104686100D01*
X140246100Y-98971100D02*
X139611100Y-98336100D01*
X147231100Y-102778600D02*
X146596100Y-102143600D01*
%TO.N,Net-(X5-Pad6)*%
X145441100Y-105433600D02*
X145008600Y-105001100D01*
X146866100Y-105433600D02*
X145441100Y-105433600D01*
D36*
%TO.N,Net-(C3-Pad1)*%
X150723600Y-98336100D02*
X150723600Y-96431100D01*
X150723600Y-98336100D02*
X146278600Y-98336100D01*
D35*
X143103600Y-101508600D02*
X143736100Y-100876100D01*
D36*
X155806100Y-97381100D02*
X154851100Y-98336100D01*
X146278600Y-98336100D02*
X145008600Y-97066100D01*
X145008600Y-97066100D02*
X145008600Y-94843600D01*
X155806100Y-96433600D02*
X156438600Y-97066100D01*
X155806100Y-94208600D02*
X155806100Y-97381100D01*
D35*
X143736100Y-100876100D02*
X143736100Y-97066100D01*
D36*
X145008600Y-94843600D02*
X144373600Y-94208600D01*
X145008600Y-97066100D02*
X143736100Y-97066100D01*
X154851100Y-98336100D02*
X150723600Y-98336100D01*
D35*
X143103600Y-103101100D02*
X143103600Y-101508600D01*
D36*
X155806100Y-94208600D02*
X155806100Y-96433600D01*
%TO.N,Net-(C20-Pad1)*%
X136753600Y-114528600D02*
X139883600Y-114528600D01*
D35*
X135166100Y-114528600D02*
X134848600Y-114211100D01*
X134848600Y-106761100D02*
X135336100Y-106273600D01*
X134848600Y-114211100D02*
X134848600Y-106761100D01*
X136753600Y-114528600D02*
X135166100Y-114528600D01*
%TO.N,Net-(SV7-Pad1)*%
X141516100Y-103733600D02*
X141516100Y-102781100D01*
X143103600Y-105001100D02*
X142783600Y-105001100D01*
X146866100Y-108383600D02*
X146166100Y-108383600D01*
X139611100Y-100876100D02*
X137071100Y-100876100D01*
X141516100Y-102781100D02*
X139611100Y-100876100D01*
X144056100Y-105953600D02*
X143103600Y-105001100D01*
X144056100Y-106273600D02*
X144056100Y-105953600D01*
X146166100Y-108383600D02*
X144056100Y-106273600D01*
X142783600Y-105001100D02*
X141516100Y-103733600D01*
%TD*%
%TA.AperFunction,Conductor*%
%TO.N,Net-(X5-Pad1)*%
G36*
X159404794Y-107434906D02*
G01*
X159423100Y-107479100D01*
X159423100Y-109407100D01*
X159404794Y-109451294D01*
X159360600Y-109469600D01*
X156920531Y-109469600D01*
X156911741Y-109473241D01*
X156908100Y-109482031D01*
X156908100Y-111363100D01*
X156889794Y-111407294D01*
X156845600Y-111425600D01*
X153714532Y-111425600D01*
X153705742Y-111429241D01*
X153702101Y-111438031D01*
X153702101Y-112455818D01*
X153683795Y-112500012D01*
X153639601Y-112518318D01*
X153595407Y-112500012D01*
X152204564Y-111109169D01*
X153702100Y-111109169D01*
X153705741Y-111117959D01*
X153714531Y-111121600D01*
X156591669Y-111121600D01*
X156600459Y-111117959D01*
X156604100Y-111109169D01*
X156604100Y-109482032D01*
X156600459Y-109473242D01*
X156591669Y-109469601D01*
X153962787Y-109469601D01*
X153959096Y-109469820D01*
X153939083Y-109472199D01*
X153930145Y-109474655D01*
X153836203Y-109516384D01*
X153826853Y-109522810D01*
X153754997Y-109594791D01*
X153748586Y-109604155D01*
X153707031Y-109698151D01*
X153704584Y-109707126D01*
X153702312Y-109726617D01*
X153702100Y-109730257D01*
X153702100Y-111109169D01*
X152204564Y-111109169D01*
X150044784Y-108949390D01*
X150035994Y-108940600D01*
X149370186Y-108940600D01*
X149325992Y-108922294D01*
X149307686Y-108878100D01*
X149308106Y-108870863D01*
X149309889Y-108855568D01*
X149310100Y-108851943D01*
X149310100Y-108536031D01*
X149306459Y-108527241D01*
X149297669Y-108523600D01*
X148788600Y-108523600D01*
X148744406Y-108505294D01*
X148726100Y-108461100D01*
X148726100Y-108306100D01*
X148744406Y-108261906D01*
X148788600Y-108243600D01*
X149297668Y-108243600D01*
X149306458Y-108239959D01*
X149310099Y-108231169D01*
X149310099Y-107915287D01*
X149309880Y-107911596D01*
X149307501Y-107891585D01*
X149305043Y-107882642D01*
X149301370Y-107874373D01*
X149300158Y-107826553D01*
X149333115Y-107791882D01*
X149358488Y-107786500D01*
X149649736Y-107786499D01*
X149656156Y-107786499D01*
X149659165Y-107785900D01*
X149659170Y-107785900D01*
X149694720Y-107778829D01*
X149700758Y-107777628D01*
X149750138Y-107744633D01*
X149784861Y-107734100D01*
X150058620Y-107734100D01*
X150680423Y-107423198D01*
X150708374Y-107416600D01*
X159360600Y-107416600D01*
X159404794Y-107434906D01*
G37*
%TD.AperFunction*%
%TD*%
%TA.AperFunction,Conductor*%
%TO.N,Net-(X5-Pad10)*%
G36*
X153683794Y-100047189D02*
G01*
X153702100Y-100091383D01*
X153702100Y-101109169D01*
X153705741Y-101117959D01*
X153714531Y-101121600D01*
X156845600Y-101121600D01*
X156889794Y-101139906D01*
X156908100Y-101184100D01*
X156908100Y-103065168D01*
X156911741Y-103073958D01*
X156920531Y-103077599D01*
X159360600Y-103077599D01*
X159404794Y-103095905D01*
X159423100Y-103140099D01*
X159423100Y-103442817D01*
X159404794Y-103487011D01*
X159049511Y-103842294D01*
X159005317Y-103860600D01*
X153633706Y-103860600D01*
X153624916Y-103869390D01*
X151429511Y-106064794D01*
X151385317Y-106083100D01*
X149784861Y-106083100D01*
X149750138Y-106072567D01*
X149733834Y-106061673D01*
X149700758Y-106039572D01*
X149656157Y-106030700D01*
X149649737Y-106030700D01*
X149358405Y-106030701D01*
X149314212Y-106012395D01*
X149295906Y-105968201D01*
X149301243Y-105942930D01*
X149305169Y-105934049D01*
X149307616Y-105925074D01*
X149309888Y-105905583D01*
X149310100Y-105901943D01*
X149310100Y-105586031D01*
X149306459Y-105577241D01*
X149297669Y-105573600D01*
X148788600Y-105573600D01*
X148744406Y-105555294D01*
X148726100Y-105511100D01*
X148726100Y-105356100D01*
X148744406Y-105311906D01*
X148788600Y-105293600D01*
X149297668Y-105293600D01*
X149306458Y-105289959D01*
X149310099Y-105281169D01*
X149310099Y-104965287D01*
X149309880Y-104961596D01*
X149307501Y-104941583D01*
X149305045Y-104932645D01*
X149263316Y-104838703D01*
X149256890Y-104829353D01*
X149184909Y-104757497D01*
X149175545Y-104751086D01*
X149081544Y-104709529D01*
X149068791Y-104706052D01*
X149030968Y-104676767D01*
X149024931Y-104629314D01*
X149041036Y-104601559D01*
X150825682Y-102816913D01*
X153702101Y-102816913D01*
X153702320Y-102820604D01*
X153704699Y-102840617D01*
X153707155Y-102849555D01*
X153748884Y-102943497D01*
X153755310Y-102952847D01*
X153827291Y-103024703D01*
X153836655Y-103031114D01*
X153930651Y-103072669D01*
X153939626Y-103075116D01*
X153959117Y-103077388D01*
X153962757Y-103077600D01*
X156591669Y-103077600D01*
X156600459Y-103073959D01*
X156604100Y-103065169D01*
X156604100Y-101438031D01*
X156600459Y-101429241D01*
X156591669Y-101425600D01*
X153714532Y-101425600D01*
X153705742Y-101429241D01*
X153702101Y-101438031D01*
X153702101Y-102816913D01*
X150825682Y-102816913D01*
X153595406Y-100047189D01*
X153639600Y-100028883D01*
X153683794Y-100047189D01*
G37*
%TD.AperFunction*%
%TD*%
%TA.AperFunction,Conductor*%
%TO.N,Net-(C3-Pad1)*%
G36*
X151784794Y-87432406D02*
G01*
X151803100Y-87476600D01*
X151803100Y-87669501D01*
X151784794Y-87713695D01*
X151740600Y-87732001D01*
X151715329Y-87726664D01*
X151624549Y-87686531D01*
X151615574Y-87684084D01*
X151596083Y-87681812D01*
X151592443Y-87681600D01*
X150888031Y-87681600D01*
X150879241Y-87685241D01*
X150875600Y-87694031D01*
X150875600Y-89928168D01*
X150879241Y-89936958D01*
X150888031Y-89940599D01*
X151592413Y-89940599D01*
X151596104Y-89940380D01*
X151616117Y-89938001D01*
X151625061Y-89935543D01*
X151715228Y-89895491D01*
X151763048Y-89894280D01*
X151797718Y-89927237D01*
X151803100Y-89952609D01*
X151803100Y-90209501D01*
X151784794Y-90253695D01*
X151740600Y-90272001D01*
X151715329Y-90266664D01*
X151624549Y-90226531D01*
X151615574Y-90224084D01*
X151596083Y-90221812D01*
X151592443Y-90221600D01*
X150888031Y-90221600D01*
X150879241Y-90225241D01*
X150875600Y-90234031D01*
X150875600Y-92468168D01*
X150879241Y-92476958D01*
X150888031Y-92480599D01*
X151592413Y-92480599D01*
X151596104Y-92480380D01*
X151616117Y-92478001D01*
X151625061Y-92475543D01*
X151715228Y-92435491D01*
X151763048Y-92434280D01*
X151797718Y-92467237D01*
X151803100Y-92492609D01*
X151803100Y-92749501D01*
X151784794Y-92793695D01*
X151740600Y-92812001D01*
X151715329Y-92806664D01*
X151624549Y-92766531D01*
X151615574Y-92764084D01*
X151596083Y-92761812D01*
X151592443Y-92761600D01*
X150888031Y-92761600D01*
X150879241Y-92765241D01*
X150875600Y-92774031D01*
X150875600Y-95008168D01*
X150879241Y-95016958D01*
X150888031Y-95020599D01*
X151592413Y-95020599D01*
X151596104Y-95020380D01*
X151616117Y-95018001D01*
X151625061Y-95015543D01*
X151715228Y-94975491D01*
X151763048Y-94974280D01*
X151797718Y-95007237D01*
X151803100Y-95032609D01*
X151803100Y-95289501D01*
X151784794Y-95333695D01*
X151740600Y-95352001D01*
X151715329Y-95346664D01*
X151624549Y-95306531D01*
X151615574Y-95304084D01*
X151596083Y-95301812D01*
X151592443Y-95301600D01*
X150888031Y-95301600D01*
X150879241Y-95305241D01*
X150875600Y-95314031D01*
X150875600Y-97548168D01*
X150879241Y-97556958D01*
X150888031Y-97560599D01*
X151592413Y-97560599D01*
X151596104Y-97560380D01*
X151616117Y-97558001D01*
X151625061Y-97555543D01*
X151715228Y-97515491D01*
X151763048Y-97514280D01*
X151797718Y-97547237D01*
X151803100Y-97572609D01*
X151803100Y-100902817D01*
X151784794Y-100947011D01*
X148628100Y-104103706D01*
X148628100Y-104643348D01*
X148609794Y-104687542D01*
X148565600Y-104705848D01*
X148558364Y-104705428D01*
X148553070Y-104704811D01*
X148549443Y-104704600D01*
X148518531Y-104704600D01*
X148509741Y-104708241D01*
X148506100Y-104717031D01*
X148506100Y-105511100D01*
X148487794Y-105555294D01*
X148443600Y-105573600D01*
X148288600Y-105573600D01*
X148244406Y-105555294D01*
X148226100Y-105511100D01*
X148226100Y-104717032D01*
X148222459Y-104708243D01*
X148208729Y-104702556D01*
X148174904Y-104668731D01*
X148170190Y-104647157D01*
X148169305Y-104623583D01*
X148169089Y-104617819D01*
X148162799Y-104603178D01*
X148158781Y-104589951D01*
X148156920Y-104579961D01*
X148155864Y-104574289D01*
X148140197Y-104548872D01*
X148135981Y-104540757D01*
X148124194Y-104513322D01*
X148121399Y-104509919D01*
X148121397Y-104509915D01*
X148121085Y-104509536D01*
X148120116Y-104508356D01*
X148112531Y-104500771D01*
X148103521Y-104489373D01*
X148099213Y-104482385D01*
X148096185Y-104477472D01*
X148090318Y-104473011D01*
X148078350Y-104463909D01*
X148058440Y-104438079D01*
X148056600Y-104433637D01*
X148056600Y-104421206D01*
X147757406Y-104122011D01*
X147739100Y-104077817D01*
X147739100Y-102754383D01*
X147757406Y-102710189D01*
X149317810Y-101149784D01*
X149326600Y-101140994D01*
X149326600Y-97299913D01*
X149594101Y-97299913D01*
X149594320Y-97303604D01*
X149596699Y-97323617D01*
X149599155Y-97332555D01*
X149640884Y-97426497D01*
X149647310Y-97435847D01*
X149719291Y-97507703D01*
X149728655Y-97514114D01*
X149822651Y-97555669D01*
X149831626Y-97558116D01*
X149851117Y-97560388D01*
X149854757Y-97560600D01*
X150559169Y-97560600D01*
X150567959Y-97556959D01*
X150571600Y-97548169D01*
X150571600Y-96595531D01*
X150567959Y-96586741D01*
X150559169Y-96583100D01*
X149606532Y-96583100D01*
X149597742Y-96586741D01*
X149594101Y-96595531D01*
X149594101Y-97299913D01*
X149326600Y-97299913D01*
X149326600Y-96266669D01*
X149594100Y-96266669D01*
X149597741Y-96275459D01*
X149606531Y-96279100D01*
X150559169Y-96279100D01*
X150567959Y-96275459D01*
X150571600Y-96266669D01*
X150571600Y-95314032D01*
X150567959Y-95305242D01*
X150559169Y-95301601D01*
X149854787Y-95301601D01*
X149851096Y-95301820D01*
X149831083Y-95304199D01*
X149822145Y-95306655D01*
X149728203Y-95348384D01*
X149718853Y-95354810D01*
X149646997Y-95426791D01*
X149640586Y-95436155D01*
X149599031Y-95530151D01*
X149596584Y-95539126D01*
X149594312Y-95558617D01*
X149594100Y-95562257D01*
X149594100Y-96266669D01*
X149326600Y-96266669D01*
X149326600Y-94759913D01*
X149594101Y-94759913D01*
X149594320Y-94763604D01*
X149596699Y-94783617D01*
X149599155Y-94792555D01*
X149640884Y-94886497D01*
X149647310Y-94895847D01*
X149719291Y-94967703D01*
X149728655Y-94974114D01*
X149822651Y-95015669D01*
X149831626Y-95018116D01*
X149851117Y-95020388D01*
X149854757Y-95020600D01*
X150559169Y-95020600D01*
X150567959Y-95016959D01*
X150571600Y-95008169D01*
X150571600Y-94055531D01*
X150567959Y-94046741D01*
X150559169Y-94043100D01*
X149606532Y-94043100D01*
X149597742Y-94046741D01*
X149594101Y-94055531D01*
X149594101Y-94759913D01*
X149326600Y-94759913D01*
X149326600Y-93726669D01*
X149594100Y-93726669D01*
X149597741Y-93735459D01*
X149606531Y-93739100D01*
X150559169Y-93739100D01*
X150567959Y-93735459D01*
X150571600Y-93726669D01*
X150571600Y-92774032D01*
X150567959Y-92765242D01*
X150559169Y-92761601D01*
X149854787Y-92761601D01*
X149851096Y-92761820D01*
X149831083Y-92764199D01*
X149822145Y-92766655D01*
X149728203Y-92808384D01*
X149718853Y-92814810D01*
X149646997Y-92886791D01*
X149640586Y-92896155D01*
X149599031Y-92990151D01*
X149596584Y-92999126D01*
X149594312Y-93018617D01*
X149594100Y-93022257D01*
X149594100Y-93726669D01*
X149326600Y-93726669D01*
X149326600Y-92219913D01*
X149594101Y-92219913D01*
X149594320Y-92223604D01*
X149596699Y-92243617D01*
X149599155Y-92252555D01*
X149640884Y-92346497D01*
X149647310Y-92355847D01*
X149719291Y-92427703D01*
X149728655Y-92434114D01*
X149822651Y-92475669D01*
X149831626Y-92478116D01*
X149851117Y-92480388D01*
X149854757Y-92480600D01*
X150559169Y-92480600D01*
X150567959Y-92476959D01*
X150571600Y-92468169D01*
X150571600Y-91515531D01*
X150567959Y-91506741D01*
X150559169Y-91503100D01*
X149606532Y-91503100D01*
X149597742Y-91506741D01*
X149594101Y-91515531D01*
X149594101Y-92219913D01*
X149326600Y-92219913D01*
X149326600Y-91186669D01*
X149594100Y-91186669D01*
X149597741Y-91195459D01*
X149606531Y-91199100D01*
X150559169Y-91199100D01*
X150567959Y-91195459D01*
X150571600Y-91186669D01*
X150571600Y-90234032D01*
X150567959Y-90225242D01*
X150559169Y-90221601D01*
X149854787Y-90221601D01*
X149851096Y-90221820D01*
X149831083Y-90224199D01*
X149822145Y-90226655D01*
X149728203Y-90268384D01*
X149718853Y-90274810D01*
X149646997Y-90346791D01*
X149640586Y-90356155D01*
X149599031Y-90450151D01*
X149596584Y-90459126D01*
X149594312Y-90478617D01*
X149594100Y-90482257D01*
X149594100Y-91186669D01*
X149326600Y-91186669D01*
X149326600Y-89679913D01*
X149594101Y-89679913D01*
X149594320Y-89683604D01*
X149596699Y-89703617D01*
X149599155Y-89712555D01*
X149640884Y-89806497D01*
X149647310Y-89815847D01*
X149719291Y-89887703D01*
X149728655Y-89894114D01*
X149822651Y-89935669D01*
X149831626Y-89938116D01*
X149851117Y-89940388D01*
X149854757Y-89940600D01*
X150559169Y-89940600D01*
X150567959Y-89936959D01*
X150571600Y-89928169D01*
X150571600Y-88975531D01*
X150567959Y-88966741D01*
X150559169Y-88963100D01*
X149606532Y-88963100D01*
X149597742Y-88966741D01*
X149594101Y-88975531D01*
X149594101Y-89679913D01*
X149326600Y-89679913D01*
X149326600Y-88646669D01*
X149594100Y-88646669D01*
X149597741Y-88655459D01*
X149606531Y-88659100D01*
X150559169Y-88659100D01*
X150567959Y-88655459D01*
X150571600Y-88646669D01*
X150571600Y-87694032D01*
X150567959Y-87685242D01*
X150559169Y-87681601D01*
X149854787Y-87681601D01*
X149851096Y-87681820D01*
X149831083Y-87684199D01*
X149822145Y-87686655D01*
X149728203Y-87728384D01*
X149718853Y-87734810D01*
X149646997Y-87806791D01*
X149640586Y-87816155D01*
X149599031Y-87910151D01*
X149596584Y-87919126D01*
X149594312Y-87938617D01*
X149594100Y-87942257D01*
X149594100Y-88646669D01*
X149326600Y-88646669D01*
X149326600Y-87476600D01*
X149344906Y-87432406D01*
X149389100Y-87414100D01*
X151740600Y-87414100D01*
X151784794Y-87432406D01*
G37*
%TD.AperFunction*%
%TD*%
%TA.AperFunction,Conductor*%
%TO.N,Net-(P1-Pad1)*%
G36*
X150849138Y-113123793D02*
G01*
X150874858Y-113168342D01*
X150876000Y-113181400D01*
X150876000Y-121908300D01*
X150858407Y-121956638D01*
X150813858Y-121982358D01*
X150800800Y-121983500D01*
X150657934Y-121983500D01*
X150609596Y-121965907D01*
X150583876Y-121921358D01*
X150590373Y-121875276D01*
X150621253Y-121812103D01*
X150624656Y-121801091D01*
X150633506Y-121740432D01*
X150633900Y-121734999D01*
X150633900Y-121069259D01*
X150630203Y-121059102D01*
X150624831Y-121056000D01*
X148286560Y-121056000D01*
X148276403Y-121059697D01*
X148273301Y-121065069D01*
X148273301Y-121734980D01*
X148273702Y-121740449D01*
X148282715Y-121801684D01*
X148286140Y-121812706D01*
X148316802Y-121875157D01*
X148322313Y-121926301D01*
X148293660Y-121969022D01*
X148249299Y-121983500D01*
X148106400Y-121983500D01*
X148058062Y-121965907D01*
X148032342Y-121921358D01*
X148031200Y-121908300D01*
X148031200Y-120687941D01*
X148273300Y-120687941D01*
X148276997Y-120698098D01*
X148282369Y-120701200D01*
X149262941Y-120701200D01*
X149273098Y-120697503D01*
X149276200Y-120692131D01*
X149276200Y-120687941D01*
X149631000Y-120687941D01*
X149634697Y-120698098D01*
X149640069Y-120701200D01*
X150620640Y-120701200D01*
X150630797Y-120697503D01*
X150633899Y-120692131D01*
X150633899Y-120022220D01*
X150633498Y-120016751D01*
X150624485Y-119955516D01*
X150621059Y-119944491D01*
X150574315Y-119849283D01*
X150567181Y-119839318D01*
X150492380Y-119764649D01*
X150482398Y-119757528D01*
X150387105Y-119710948D01*
X150376091Y-119707544D01*
X150315432Y-119698694D01*
X150309999Y-119698300D01*
X149644259Y-119698300D01*
X149634102Y-119701997D01*
X149631000Y-119707369D01*
X149631000Y-120687941D01*
X149276200Y-120687941D01*
X149276200Y-119711560D01*
X149272503Y-119701403D01*
X149267131Y-119698301D01*
X148597220Y-119698301D01*
X148591751Y-119698702D01*
X148530516Y-119707715D01*
X148519491Y-119711141D01*
X148424283Y-119757885D01*
X148414318Y-119765019D01*
X148339649Y-119839820D01*
X148332528Y-119849802D01*
X148285948Y-119945095D01*
X148282544Y-119956109D01*
X148273694Y-120016768D01*
X148273300Y-120022201D01*
X148273300Y-120687941D01*
X148031200Y-120687941D01*
X148031200Y-119194980D01*
X148273301Y-119194980D01*
X148273702Y-119200449D01*
X148282715Y-119261684D01*
X148286141Y-119272709D01*
X148332885Y-119367917D01*
X148340019Y-119377882D01*
X148414820Y-119452551D01*
X148424802Y-119459672D01*
X148520095Y-119506252D01*
X148531109Y-119509656D01*
X148591768Y-119518506D01*
X148597201Y-119518900D01*
X149262941Y-119518900D01*
X149273098Y-119515203D01*
X149276200Y-119509831D01*
X149276200Y-119505640D01*
X149631000Y-119505640D01*
X149634697Y-119515797D01*
X149640069Y-119518899D01*
X150309980Y-119518899D01*
X150315449Y-119518498D01*
X150376684Y-119509485D01*
X150387709Y-119506059D01*
X150482917Y-119459315D01*
X150492882Y-119452181D01*
X150567551Y-119377380D01*
X150574672Y-119367398D01*
X150621252Y-119272105D01*
X150624656Y-119261091D01*
X150633506Y-119200432D01*
X150633900Y-119194999D01*
X150633900Y-118529259D01*
X150630203Y-118519102D01*
X150624831Y-118516000D01*
X149644259Y-118516000D01*
X149634102Y-118519697D01*
X149631000Y-118525069D01*
X149631000Y-119505640D01*
X149276200Y-119505640D01*
X149276200Y-118529259D01*
X149272503Y-118519102D01*
X149267131Y-118516000D01*
X148286560Y-118516000D01*
X148276403Y-118519697D01*
X148273301Y-118525069D01*
X148273301Y-119194980D01*
X148031200Y-119194980D01*
X148031200Y-118147941D01*
X148273300Y-118147941D01*
X148276997Y-118158098D01*
X148282369Y-118161200D01*
X149262941Y-118161200D01*
X149273098Y-118157503D01*
X149276200Y-118152131D01*
X149276200Y-118147941D01*
X149631000Y-118147941D01*
X149634697Y-118158098D01*
X149640069Y-118161200D01*
X150620640Y-118161200D01*
X150630797Y-118157503D01*
X150633899Y-118152131D01*
X150633899Y-117482220D01*
X150633498Y-117476751D01*
X150624485Y-117415516D01*
X150621059Y-117404491D01*
X150574315Y-117309283D01*
X150567181Y-117299318D01*
X150492380Y-117224649D01*
X150482398Y-117217528D01*
X150387105Y-117170948D01*
X150376091Y-117167544D01*
X150315432Y-117158694D01*
X150309999Y-117158300D01*
X149644259Y-117158300D01*
X149634102Y-117161997D01*
X149631000Y-117167369D01*
X149631000Y-118147941D01*
X149276200Y-118147941D01*
X149276200Y-117171560D01*
X149272503Y-117161403D01*
X149267131Y-117158301D01*
X148597220Y-117158301D01*
X148591751Y-117158702D01*
X148530516Y-117167715D01*
X148519491Y-117171141D01*
X148424283Y-117217885D01*
X148414318Y-117225019D01*
X148339649Y-117299820D01*
X148332528Y-117309802D01*
X148285948Y-117405095D01*
X148282544Y-117416109D01*
X148273694Y-117476768D01*
X148273300Y-117482201D01*
X148273300Y-118147941D01*
X148031200Y-118147941D01*
X148031200Y-113181400D01*
X148048793Y-113133062D01*
X148093342Y-113107342D01*
X148106400Y-113106200D01*
X150800800Y-113106200D01*
X150849138Y-113123793D01*
G37*
%TD.AperFunction*%
%TD*%
%TA.AperFunction,Conductor*%
%TO.N,GND*%
G36*
X163435238Y-84980193D02*
G01*
X163460958Y-85024742D01*
X163462100Y-85037800D01*
X163462100Y-124969400D01*
X163444507Y-125017738D01*
X163399958Y-125043458D01*
X163386900Y-125044600D01*
X133615300Y-125044600D01*
X133566962Y-125027007D01*
X133541242Y-124982458D01*
X133540100Y-124969400D01*
X133540100Y-123206980D01*
X142801301Y-123206980D01*
X142801702Y-123212449D01*
X142810715Y-123273684D01*
X142814141Y-123284709D01*
X142860885Y-123379917D01*
X142868019Y-123389882D01*
X142942820Y-123464551D01*
X142952802Y-123471672D01*
X143048095Y-123518252D01*
X143059109Y-123521656D01*
X143119768Y-123530506D01*
X143125201Y-123530900D01*
X143865441Y-123530900D01*
X143875598Y-123527203D01*
X143878700Y-123521831D01*
X143878700Y-123517640D01*
X144233500Y-123517640D01*
X144237197Y-123527797D01*
X144242569Y-123530899D01*
X144986980Y-123530899D01*
X144992449Y-123530498D01*
X145053684Y-123521485D01*
X145064709Y-123518059D01*
X145159917Y-123471315D01*
X145169882Y-123464181D01*
X145244551Y-123389380D01*
X145251672Y-123379398D01*
X145298252Y-123284105D01*
X145301656Y-123273091D01*
X145310506Y-123212432D01*
X145310900Y-123206999D01*
X145310900Y-122116759D01*
X145307203Y-122106602D01*
X145301831Y-122103500D01*
X144246759Y-122103500D01*
X144236602Y-122107197D01*
X144233500Y-122112569D01*
X144233500Y-123517640D01*
X143878700Y-123517640D01*
X143878700Y-122116759D01*
X143875003Y-122106602D01*
X143869631Y-122103500D01*
X142814560Y-122103500D01*
X142804403Y-122107197D01*
X142801301Y-122112569D01*
X142801301Y-123206980D01*
X133540100Y-123206980D01*
X133540100Y-121735441D01*
X142801300Y-121735441D01*
X142804997Y-121745598D01*
X142810369Y-121748700D01*
X143865441Y-121748700D01*
X143875598Y-121745003D01*
X143878700Y-121739631D01*
X143878700Y-121735441D01*
X144233500Y-121735441D01*
X144237197Y-121745598D01*
X144242569Y-121748700D01*
X145297640Y-121748700D01*
X145307797Y-121745003D01*
X145310899Y-121739631D01*
X145310899Y-121734980D01*
X145733301Y-121734980D01*
X145733702Y-121740449D01*
X145742715Y-121801684D01*
X145746141Y-121812709D01*
X145792885Y-121907917D01*
X145800019Y-121917882D01*
X145874820Y-121992551D01*
X145884802Y-121999672D01*
X145980095Y-122046252D01*
X145991109Y-122049656D01*
X146051768Y-122058506D01*
X146057201Y-122058900D01*
X146722941Y-122058900D01*
X146733098Y-122055203D01*
X146736200Y-122049831D01*
X146736200Y-121069259D01*
X146732503Y-121059102D01*
X146727131Y-121056000D01*
X145746560Y-121056000D01*
X145736403Y-121059697D01*
X145733301Y-121065069D01*
X145733301Y-121734980D01*
X145310899Y-121734980D01*
X145310899Y-120687941D01*
X145733300Y-120687941D01*
X145736997Y-120698098D01*
X145742369Y-120701200D01*
X146722941Y-120701200D01*
X146733098Y-120697503D01*
X146736200Y-120692131D01*
X146736200Y-119711560D01*
X146732503Y-119701403D01*
X146727131Y-119698301D01*
X146057220Y-119698301D01*
X146051751Y-119698702D01*
X145990516Y-119707715D01*
X145979491Y-119711141D01*
X145884283Y-119757885D01*
X145874318Y-119765019D01*
X145799649Y-119839820D01*
X145792528Y-119849802D01*
X145745948Y-119945095D01*
X145742544Y-119956109D01*
X145733694Y-120016768D01*
X145733300Y-120022201D01*
X145733300Y-120687941D01*
X145310899Y-120687941D01*
X145310899Y-120645220D01*
X145310498Y-120639751D01*
X145301485Y-120578516D01*
X145298059Y-120567491D01*
X145251315Y-120472283D01*
X145244181Y-120462318D01*
X145169380Y-120387649D01*
X145159398Y-120380528D01*
X145064105Y-120333948D01*
X145053091Y-120330544D01*
X144992432Y-120321694D01*
X144986999Y-120321300D01*
X144246759Y-120321300D01*
X144236602Y-120324997D01*
X144233500Y-120330369D01*
X144233500Y-121735441D01*
X143878700Y-121735441D01*
X143878700Y-120334560D01*
X143875003Y-120324403D01*
X143869631Y-120321301D01*
X143125220Y-120321301D01*
X143119751Y-120321702D01*
X143058516Y-120330715D01*
X143047491Y-120334141D01*
X142952283Y-120380885D01*
X142942318Y-120388019D01*
X142867649Y-120462820D01*
X142860528Y-120472802D01*
X142813948Y-120568095D01*
X142810544Y-120579109D01*
X142801694Y-120639768D01*
X142801300Y-120645201D01*
X142801300Y-121735441D01*
X133540100Y-121735441D01*
X133540100Y-105758543D01*
X134483200Y-105758543D01*
X134483201Y-106788656D01*
X134492072Y-106833258D01*
X134496188Y-106839418D01*
X134525866Y-106883834D01*
X134524724Y-106884597D01*
X134543014Y-106923819D01*
X134543300Y-106930373D01*
X134543300Y-114155660D01*
X134542892Y-114161219D01*
X134541344Y-114165728D01*
X134541605Y-114172668D01*
X134543247Y-114216415D01*
X134543300Y-114219236D01*
X134543300Y-114239493D01*
X134543934Y-114242897D01*
X134544253Y-114246349D01*
X134544081Y-114246365D01*
X134544526Y-114250483D01*
X134545350Y-114272443D01*
X134545351Y-114272446D01*
X134545611Y-114279382D01*
X134548352Y-114285761D01*
X134548352Y-114285763D01*
X134551342Y-114292723D01*
X134556176Y-114308635D01*
X134557564Y-114316084D01*
X134558836Y-114322911D01*
X134562478Y-114328820D01*
X134562479Y-114328822D01*
X134574013Y-114347534D01*
X134579091Y-114357310D01*
X134588408Y-114378997D01*
X134588410Y-114379000D01*
X134590506Y-114383879D01*
X134594585Y-114388844D01*
X134601116Y-114395375D01*
X134611957Y-114409089D01*
X134618515Y-114419728D01*
X134643483Y-114438714D01*
X134651140Y-114445399D01*
X134911025Y-114705285D01*
X134914662Y-114709499D01*
X134916755Y-114713780D01*
X134953941Y-114748275D01*
X134955973Y-114750233D01*
X134970297Y-114764557D01*
X134973155Y-114766518D01*
X134975821Y-114768733D01*
X134975701Y-114768878D01*
X134978938Y-114771463D01*
X134995048Y-114786408D01*
X134995051Y-114786410D01*
X135000137Y-114791128D01*
X135013621Y-114796508D01*
X135028292Y-114804342D01*
X135040268Y-114812557D01*
X135047022Y-114814160D01*
X135047025Y-114814161D01*
X135068407Y-114819234D01*
X135078905Y-114822553D01*
X135105773Y-114833273D01*
X135112168Y-114833900D01*
X135121408Y-114833900D01*
X135138770Y-114835932D01*
X135150928Y-114838817D01*
X135157806Y-114837881D01*
X135157807Y-114837881D01*
X135182009Y-114834587D01*
X135192150Y-114833900D01*
X135700001Y-114833900D01*
X135748339Y-114851493D01*
X135774059Y-114896042D01*
X135775201Y-114909100D01*
X135775201Y-115369156D01*
X135784072Y-115413758D01*
X135817866Y-115464334D01*
X135824023Y-115468448D01*
X135862283Y-115494013D01*
X135862284Y-115494014D01*
X135868442Y-115498128D01*
X135913043Y-115507000D01*
X136753486Y-115507000D01*
X137594156Y-115506999D01*
X137638758Y-115498128D01*
X137689334Y-115464334D01*
X137723128Y-115413758D01*
X137732000Y-115369157D01*
X137732000Y-115163100D01*
X137749593Y-115114762D01*
X137794142Y-115089042D01*
X137807200Y-115087900D01*
X138621500Y-115087900D01*
X138669838Y-115105493D01*
X138695558Y-115150042D01*
X138696700Y-115163100D01*
X138696700Y-116142817D01*
X138708301Y-116201139D01*
X138709713Y-116204547D01*
X138721076Y-116231979D01*
X138726607Y-116245333D01*
X138759643Y-116294774D01*
X138821544Y-116356675D01*
X138870985Y-116389711D01*
X138874396Y-116391124D01*
X138874398Y-116391125D01*
X138912907Y-116407076D01*
X138915179Y-116408017D01*
X138953610Y-116418314D01*
X138993997Y-116412997D01*
X139026942Y-116408660D01*
X139026945Y-116408659D01*
X139031823Y-116408017D01*
X139076017Y-116389711D01*
X139078143Y-116388484D01*
X139078643Y-116388237D01*
X139129777Y-116382639D01*
X139172547Y-116411219D01*
X139187101Y-116455683D01*
X139187101Y-116523056D01*
X139195972Y-116567658D01*
X139229766Y-116618234D01*
X139235923Y-116622348D01*
X139274183Y-116647913D01*
X139274184Y-116647914D01*
X139280342Y-116652028D01*
X139287606Y-116653473D01*
X139318403Y-116659599D01*
X139324943Y-116660900D01*
X139345299Y-116660900D01*
X140371883Y-116660899D01*
X140420221Y-116678492D01*
X140445941Y-116723041D01*
X140437463Y-116772900D01*
X140422582Y-116799418D01*
X140410767Y-116845771D01*
X140406056Y-116885275D01*
X140427404Y-116961220D01*
X140429919Y-116965455D01*
X140429919Y-116965456D01*
X140449942Y-116999179D01*
X140449945Y-116999183D01*
X140451826Y-117002351D01*
X140491576Y-117046575D01*
X140730106Y-117225019D01*
X140793976Y-117272800D01*
X140799637Y-117277483D01*
X141072186Y-117526355D01*
X141077362Y-117531568D01*
X141324301Y-117805820D01*
X141328945Y-117811514D01*
X141520372Y-118071161D01*
X141520372Y-118071162D01*
X141547954Y-118108573D01*
X141552020Y-118114692D01*
X141590232Y-118178793D01*
X141740985Y-118431684D01*
X141744430Y-118438163D01*
X141901576Y-118772116D01*
X141904375Y-118778907D01*
X141907981Y-118789031D01*
X141909284Y-118792691D01*
X141924035Y-118823001D01*
X141938719Y-118846229D01*
X141946630Y-118857569D01*
X142009215Y-118905593D01*
X142053409Y-118923899D01*
X142057027Y-118924619D01*
X142057028Y-118924619D01*
X142069506Y-118927101D01*
X142111731Y-118935500D01*
X142789601Y-118935500D01*
X142831826Y-118927101D01*
X142844304Y-118924619D01*
X142844305Y-118924619D01*
X142847923Y-118923899D01*
X142892117Y-118905593D01*
X142894243Y-118904366D01*
X142894743Y-118904119D01*
X142945877Y-118898521D01*
X142988647Y-118927101D01*
X143003201Y-118971565D01*
X143003201Y-119191156D01*
X143012072Y-119235758D01*
X143045866Y-119286334D01*
X143052023Y-119290448D01*
X143090283Y-119316013D01*
X143090284Y-119316014D01*
X143096442Y-119320128D01*
X143141043Y-119329000D01*
X144055976Y-119329000D01*
X144971156Y-119328999D01*
X145015758Y-119320128D01*
X145066334Y-119286334D01*
X145100128Y-119235758D01*
X145108240Y-119194980D01*
X145733301Y-119194980D01*
X145733702Y-119200449D01*
X145742715Y-119261684D01*
X145746141Y-119272709D01*
X145792885Y-119367917D01*
X145800019Y-119377882D01*
X145874820Y-119452551D01*
X145884802Y-119459672D01*
X145980095Y-119506252D01*
X145991109Y-119509656D01*
X146051768Y-119518506D01*
X146057201Y-119518900D01*
X146722941Y-119518900D01*
X146733098Y-119515203D01*
X146736200Y-119509831D01*
X146736200Y-118529259D01*
X146732503Y-118519102D01*
X146727131Y-118516000D01*
X145746560Y-118516000D01*
X145736403Y-118519697D01*
X145733301Y-118525069D01*
X145733301Y-119194980D01*
X145108240Y-119194980D01*
X145109000Y-119191157D01*
X145108999Y-116731775D01*
X145126592Y-116683437D01*
X145169531Y-116658020D01*
X145176454Y-116656643D01*
X145227294Y-116664472D01*
X145261208Y-116703148D01*
X145265676Y-116720588D01*
X145266499Y-116726837D01*
X145284805Y-116771031D01*
X145317841Y-116820472D01*
X145464926Y-116967557D01*
X145514367Y-117000593D01*
X145517778Y-117002006D01*
X145517780Y-117002007D01*
X145518611Y-117002351D01*
X145558561Y-117018899D01*
X145562179Y-117019619D01*
X145562180Y-117019619D01*
X145613258Y-117029779D01*
X145616883Y-117030500D01*
X145942149Y-117030500D01*
X145990487Y-117048093D01*
X146016207Y-117092642D01*
X146007274Y-117143300D01*
X145975291Y-117173203D01*
X145884283Y-117217885D01*
X145874318Y-117225019D01*
X145799649Y-117299820D01*
X145792528Y-117309802D01*
X145745948Y-117405095D01*
X145742544Y-117416109D01*
X145733694Y-117476768D01*
X145733300Y-117482201D01*
X145733300Y-118147941D01*
X145736997Y-118158098D01*
X145742369Y-118161200D01*
X147015800Y-118161200D01*
X147064138Y-118178793D01*
X147089858Y-118223342D01*
X147091000Y-118236400D01*
X147091000Y-119505640D01*
X147094697Y-119515797D01*
X147100069Y-119518899D01*
X147769980Y-119518899D01*
X147775452Y-119518498D01*
X147792650Y-119515967D01*
X147843034Y-119526334D01*
X147874967Y-119566662D01*
X147878800Y-119590365D01*
X147878800Y-119626808D01*
X147861207Y-119675146D01*
X147816658Y-119700866D01*
X147792744Y-119701220D01*
X147775432Y-119698694D01*
X147769999Y-119698300D01*
X147104259Y-119698300D01*
X147094102Y-119701997D01*
X147091000Y-119707369D01*
X147091000Y-122045640D01*
X147094697Y-122055797D01*
X147100069Y-122058899D01*
X147769980Y-122058899D01*
X147775449Y-122058498D01*
X147836684Y-122049485D01*
X147847711Y-122046059D01*
X147851348Y-122044273D01*
X147902491Y-122038761D01*
X147937606Y-122058568D01*
X147941318Y-122063869D01*
X148005940Y-122109117D01*
X148054278Y-122126710D01*
X148057508Y-122127280D01*
X148057510Y-122127280D01*
X148103170Y-122135331D01*
X148103176Y-122135331D01*
X148106400Y-122135900D01*
X148249299Y-122135900D01*
X148296583Y-122128379D01*
X148340944Y-122113901D01*
X148360827Y-122105823D01*
X148420228Y-122053911D01*
X148448881Y-122011190D01*
X148461699Y-121987923D01*
X148473836Y-121909974D01*
X148475943Y-121910302D01*
X148491722Y-121869903D01*
X148536857Y-121845228D01*
X148568261Y-121849038D01*
X148568442Y-121848128D01*
X148597962Y-121854000D01*
X148613043Y-121857000D01*
X149453486Y-121857000D01*
X150294156Y-121856999D01*
X150338758Y-121848128D01*
X150339228Y-121850492D01*
X150379490Y-121848733D01*
X150420301Y-121880046D01*
X150431734Y-121913253D01*
X150431913Y-121915119D01*
X150431476Y-121921357D01*
X150433094Y-121927395D01*
X150433094Y-121927397D01*
X150450552Y-121992551D01*
X150451893Y-121997557D01*
X150477613Y-122042106D01*
X150492852Y-122063869D01*
X150498239Y-122067641D01*
X150498241Y-122067643D01*
X150526865Y-122087685D01*
X150557474Y-122109117D01*
X150605812Y-122126710D01*
X150609042Y-122127280D01*
X150609044Y-122127280D01*
X150654704Y-122135331D01*
X150654710Y-122135331D01*
X150657934Y-122135900D01*
X150800800Y-122135900D01*
X150801571Y-122135866D01*
X150801589Y-122135866D01*
X150811700Y-122135425D01*
X150814078Y-122135321D01*
X150827136Y-122134179D01*
X150831052Y-122132944D01*
X150831054Y-122132944D01*
X150886144Y-122115575D01*
X150886146Y-122115574D01*
X150890057Y-122114341D01*
X150893609Y-122112290D01*
X150893612Y-122112289D01*
X150933189Y-122089439D01*
X150934606Y-122088621D01*
X150956369Y-122073382D01*
X150960142Y-122067993D01*
X150964793Y-122063342D01*
X150965631Y-122064180D01*
X151002239Y-122038549D01*
X151054726Y-122043627D01*
X151060098Y-122046253D01*
X151071109Y-122049656D01*
X151131768Y-122058506D01*
X151137201Y-122058900D01*
X151802941Y-122058900D01*
X151813098Y-122055203D01*
X151816200Y-122049831D01*
X151816200Y-122045640D01*
X152171000Y-122045640D01*
X152174697Y-122055797D01*
X152180069Y-122058899D01*
X152849980Y-122058899D01*
X152855449Y-122058498D01*
X152916684Y-122049485D01*
X152927709Y-122046059D01*
X153022917Y-121999315D01*
X153032882Y-121992181D01*
X153107551Y-121917380D01*
X153114672Y-121907398D01*
X153161252Y-121812105D01*
X153164656Y-121801091D01*
X153173506Y-121740432D01*
X153173900Y-121734999D01*
X153173900Y-121069259D01*
X153170203Y-121059102D01*
X153164831Y-121056000D01*
X152184259Y-121056000D01*
X152174102Y-121059697D01*
X152171000Y-121065069D01*
X152171000Y-122045640D01*
X151816200Y-122045640D01*
X151816200Y-120687941D01*
X152171000Y-120687941D01*
X152174697Y-120698098D01*
X152180069Y-120701200D01*
X153160640Y-120701200D01*
X153170797Y-120697503D01*
X153173899Y-120692131D01*
X153173899Y-120022220D01*
X153173498Y-120016751D01*
X153164485Y-119955516D01*
X153161059Y-119944491D01*
X153114315Y-119849283D01*
X153107181Y-119839318D01*
X153032380Y-119764649D01*
X153022398Y-119757528D01*
X152927105Y-119710948D01*
X152916091Y-119707544D01*
X152855432Y-119698694D01*
X152849999Y-119698300D01*
X152184259Y-119698300D01*
X152174102Y-119701997D01*
X152171000Y-119707369D01*
X152171000Y-120687941D01*
X151816200Y-120687941D01*
X151816200Y-119711560D01*
X151812503Y-119701403D01*
X151807131Y-119698301D01*
X151137220Y-119698301D01*
X151131748Y-119698702D01*
X151114550Y-119701233D01*
X151064166Y-119690866D01*
X151032233Y-119650538D01*
X151028400Y-119626835D01*
X151028400Y-119590392D01*
X151045993Y-119542054D01*
X151090542Y-119516334D01*
X151114456Y-119515980D01*
X151131768Y-119518506D01*
X151137201Y-119518900D01*
X151802941Y-119518900D01*
X151813098Y-119515203D01*
X151816200Y-119509831D01*
X151816200Y-119505640D01*
X152171000Y-119505640D01*
X152174697Y-119515797D01*
X152180069Y-119518899D01*
X152849980Y-119518899D01*
X152855449Y-119518498D01*
X152916684Y-119509485D01*
X152927709Y-119506059D01*
X153022917Y-119459315D01*
X153032882Y-119452181D01*
X153107551Y-119377380D01*
X153114672Y-119367398D01*
X153161252Y-119272105D01*
X153164656Y-119261091D01*
X153173506Y-119200432D01*
X153173900Y-119194999D01*
X153173900Y-118529259D01*
X153170203Y-118519102D01*
X153164831Y-118516000D01*
X152184259Y-118516000D01*
X152174102Y-118519697D01*
X152171000Y-118525069D01*
X152171000Y-119505640D01*
X151816200Y-119505640D01*
X151816200Y-118147941D01*
X152171000Y-118147941D01*
X152174697Y-118158098D01*
X152180069Y-118161200D01*
X153160640Y-118161200D01*
X153170797Y-118157503D01*
X153173899Y-118152131D01*
X153173899Y-117482220D01*
X153173498Y-117476751D01*
X153164485Y-117415516D01*
X153161059Y-117404491D01*
X153114315Y-117309283D01*
X153107181Y-117299318D01*
X153032380Y-117224649D01*
X153022398Y-117217528D01*
X152927105Y-117170948D01*
X152916091Y-117167544D01*
X152855432Y-117158694D01*
X152849999Y-117158300D01*
X152184259Y-117158300D01*
X152174102Y-117161997D01*
X152171000Y-117167369D01*
X152171000Y-118147941D01*
X151816200Y-118147941D01*
X151816200Y-117171560D01*
X151812503Y-117161403D01*
X151807131Y-117158301D01*
X151137220Y-117158301D01*
X151131748Y-117158702D01*
X151114550Y-117161233D01*
X151064166Y-117150866D01*
X151032233Y-117110538D01*
X151028400Y-117086835D01*
X151028400Y-116570900D01*
X156241429Y-116570900D01*
X162456000Y-116570900D01*
X162456000Y-113780176D01*
X156241429Y-113780176D01*
X156241429Y-116570900D01*
X151028400Y-116570900D01*
X151028400Y-113181400D01*
X151027821Y-113168122D01*
X151026679Y-113155064D01*
X151025444Y-113151146D01*
X151008075Y-113096056D01*
X151008074Y-113096054D01*
X151006841Y-113092143D01*
X150981121Y-113047594D01*
X150965882Y-113025831D01*
X150960495Y-113022059D01*
X150960493Y-113022057D01*
X150905297Y-112983410D01*
X150901260Y-112980583D01*
X150852922Y-112962990D01*
X150849692Y-112962420D01*
X150849690Y-112962420D01*
X150804030Y-112954369D01*
X150804024Y-112954369D01*
X150800800Y-112953800D01*
X148106400Y-112953800D01*
X148105629Y-112953834D01*
X148105611Y-112953834D01*
X148095500Y-112954275D01*
X148093122Y-112954379D01*
X148092288Y-112954452D01*
X148092287Y-112954452D01*
X148084878Y-112955100D01*
X148080064Y-112955521D01*
X148076148Y-112956756D01*
X148076146Y-112956756D01*
X148017143Y-112975359D01*
X148016821Y-112974338D01*
X147993711Y-112979200D01*
X145506499Y-112979200D01*
X145502875Y-112979921D01*
X145502874Y-112979921D01*
X145451796Y-112990081D01*
X145451795Y-112990081D01*
X145448177Y-112990801D01*
X145426377Y-112999831D01*
X145406254Y-113008166D01*
X145406250Y-113008168D01*
X145403983Y-113009107D01*
X145369530Y-113028999D01*
X145369147Y-113029498D01*
X145324806Y-113046742D01*
X145276096Y-113030208D01*
X145260642Y-113013342D01*
X145250234Y-112997766D01*
X145221995Y-112978897D01*
X145205817Y-112968087D01*
X145205816Y-112968086D01*
X145199658Y-112963972D01*
X145177544Y-112959573D01*
X145158682Y-112955821D01*
X145158681Y-112955821D01*
X145155057Y-112955100D01*
X144190131Y-112955100D01*
X143224944Y-112955101D01*
X143180342Y-112963972D01*
X143174184Y-112968087D01*
X143174182Y-112968088D01*
X143158005Y-112978897D01*
X143129766Y-112997766D01*
X143125652Y-113003923D01*
X143103750Y-113036702D01*
X143095972Y-113048342D01*
X143087100Y-113092943D01*
X143087101Y-114750233D01*
X143087101Y-116157921D01*
X143069508Y-116206259D01*
X143024959Y-116231979D01*
X142974301Y-116223046D01*
X142958727Y-116211095D01*
X142160426Y-115412794D01*
X142138686Y-115366174D01*
X142138400Y-115359620D01*
X142138400Y-112686100D01*
X142155993Y-112637762D01*
X142200542Y-112612042D01*
X142213600Y-112610900D01*
X146980824Y-112610900D01*
X146983463Y-112610523D01*
X146983467Y-112610523D01*
X147020825Y-112605190D01*
X147020831Y-112605189D01*
X147023470Y-112604812D01*
X147063875Y-112593035D01*
X147064814Y-112592705D01*
X147064832Y-112592699D01*
X147073932Y-112589498D01*
X147073931Y-112589498D01*
X147079551Y-112587522D01*
X147142137Y-112539497D01*
X147161594Y-112514140D01*
X147172461Y-112499978D01*
X147172467Y-112499969D01*
X147173451Y-112498687D01*
X147187722Y-112476286D01*
X147189145Y-112469869D01*
X147189146Y-112469866D01*
X147192765Y-112453540D01*
X147220403Y-112410157D01*
X147269463Y-112394689D01*
X147319356Y-112416643D01*
X147378829Y-112476116D01*
X147384105Y-112478804D01*
X147384106Y-112478805D01*
X147423127Y-112498687D01*
X147492545Y-112534057D01*
X147498392Y-112534983D01*
X147583974Y-112548538D01*
X147583976Y-112548538D01*
X147586892Y-112549000D01*
X148150308Y-112549000D01*
X148153224Y-112548538D01*
X148153226Y-112548538D01*
X148238808Y-112534983D01*
X148244655Y-112534057D01*
X148314073Y-112498687D01*
X148353094Y-112478805D01*
X148353095Y-112478804D01*
X148358371Y-112476116D01*
X148448616Y-112385871D01*
X148506557Y-112272155D01*
X148520633Y-112183285D01*
X148913800Y-112183285D01*
X148914120Y-112188175D01*
X148928724Y-112299104D01*
X148931251Y-112308534D01*
X148988424Y-112446561D01*
X148993306Y-112455017D01*
X149084253Y-112573542D01*
X149091158Y-112580447D01*
X149209683Y-112671394D01*
X149218140Y-112676276D01*
X149356167Y-112733449D01*
X149365596Y-112735976D01*
X149476525Y-112750580D01*
X149481415Y-112750900D01*
X149577941Y-112750900D01*
X149588098Y-112747203D01*
X149591200Y-112741831D01*
X149591200Y-112737641D01*
X149946000Y-112737641D01*
X149949697Y-112747798D01*
X149955069Y-112750900D01*
X150055785Y-112750900D01*
X150060675Y-112750580D01*
X150171604Y-112735976D01*
X150181034Y-112733449D01*
X150319061Y-112676276D01*
X150327517Y-112671394D01*
X150446042Y-112580447D01*
X150452947Y-112573542D01*
X150543894Y-112455017D01*
X150548776Y-112446560D01*
X150605949Y-112308533D01*
X150608476Y-112299104D01*
X150623080Y-112188175D01*
X150623400Y-112183285D01*
X150623400Y-111861759D01*
X150619703Y-111851602D01*
X150614331Y-111848500D01*
X149959259Y-111848500D01*
X149949102Y-111852197D01*
X149946000Y-111857569D01*
X149946000Y-112737641D01*
X149591200Y-112737641D01*
X149591200Y-111861759D01*
X149587503Y-111851602D01*
X149582131Y-111848500D01*
X148927059Y-111848500D01*
X148916902Y-111852197D01*
X148913800Y-111857569D01*
X148913800Y-112183285D01*
X148520633Y-112183285D01*
X148521500Y-112177808D01*
X148521500Y-111480441D01*
X148913800Y-111480441D01*
X148917497Y-111490598D01*
X148922869Y-111493700D01*
X149577941Y-111493700D01*
X149588098Y-111490003D01*
X149591200Y-111484631D01*
X149591200Y-111480441D01*
X149946000Y-111480441D01*
X149949697Y-111490598D01*
X149955069Y-111493700D01*
X150610141Y-111493700D01*
X150620298Y-111490003D01*
X150623400Y-111484631D01*
X150623400Y-111158915D01*
X150623080Y-111154025D01*
X150608476Y-111043096D01*
X150605949Y-111033666D01*
X150548776Y-110895639D01*
X150543894Y-110887183D01*
X150452947Y-110768658D01*
X150446042Y-110761753D01*
X150327517Y-110670806D01*
X150319060Y-110665924D01*
X150181033Y-110608751D01*
X150171604Y-110606224D01*
X150060675Y-110591620D01*
X150055785Y-110591300D01*
X149959259Y-110591300D01*
X149949102Y-110594997D01*
X149946000Y-110600369D01*
X149946000Y-111480441D01*
X149591200Y-111480441D01*
X149591200Y-110604559D01*
X149587503Y-110594402D01*
X149582131Y-110591300D01*
X149481415Y-110591300D01*
X149476525Y-110591620D01*
X149365596Y-110606224D01*
X149356166Y-110608751D01*
X149218139Y-110665924D01*
X149209683Y-110670806D01*
X149091158Y-110761753D01*
X149084253Y-110768658D01*
X148993306Y-110887183D01*
X148988424Y-110895640D01*
X148931251Y-111033667D01*
X148928724Y-111043096D01*
X148914120Y-111154025D01*
X148913800Y-111158915D01*
X148913800Y-111480441D01*
X148521500Y-111480441D01*
X148521500Y-111164392D01*
X148518337Y-111144418D01*
X148507483Y-111075892D01*
X148506557Y-111070045D01*
X148482957Y-111023727D01*
X148476688Y-110972670D01*
X148504705Y-110929529D01*
X148553897Y-110914490D01*
X148561656Y-110915374D01*
X148561658Y-110915362D01*
X148562346Y-110915453D01*
X148563013Y-110915529D01*
X148564892Y-110915860D01*
X148566513Y-110916002D01*
X148566514Y-110916002D01*
X148584804Y-110917603D01*
X148584807Y-110917603D01*
X148591357Y-110918176D01*
X148648562Y-110902849D01*
X148662799Y-110899034D01*
X148662800Y-110899034D01*
X148667557Y-110897759D01*
X148712106Y-110872039D01*
X148733869Y-110856800D01*
X148737641Y-110851413D01*
X148737643Y-110851411D01*
X148772989Y-110800930D01*
X148779117Y-110792178D01*
X148796710Y-110743840D01*
X148799698Y-110726894D01*
X148805331Y-110694948D01*
X148805331Y-110694942D01*
X148805900Y-110691718D01*
X148805900Y-109233731D01*
X148803945Y-109209398D01*
X148802717Y-109201807D01*
X148800877Y-109190427D01*
X148800876Y-109190425D01*
X148800111Y-109185693D01*
X148769144Y-109115417D01*
X148766168Y-109111659D01*
X148766164Y-109111652D01*
X148743779Y-109083384D01*
X148727563Y-109034567D01*
X148746521Y-108986748D01*
X148791780Y-108962302D01*
X148802733Y-108961500D01*
X149009137Y-108961499D01*
X149021156Y-108961499D01*
X149065758Y-108952628D01*
X149074047Y-108947090D01*
X149077237Y-108946309D01*
X149078760Y-108945678D01*
X149078857Y-108945912D01*
X149124010Y-108934862D01*
X149170146Y-108957611D01*
X149183271Y-108976355D01*
X149184252Y-108978345D01*
X149185193Y-108980616D01*
X149205085Y-109015069D01*
X149267670Y-109063093D01*
X149311864Y-109081399D01*
X149315482Y-109082119D01*
X149315483Y-109082119D01*
X149366561Y-109092279D01*
X149370186Y-109093000D01*
X149941720Y-109093000D01*
X149990058Y-109110593D01*
X149994894Y-109115026D01*
X152096801Y-111216932D01*
X153487644Y-112607775D01*
X153537085Y-112640811D01*
X153540496Y-112642224D01*
X153540498Y-112642225D01*
X153579007Y-112658176D01*
X153581279Y-112659117D01*
X153619710Y-112669414D01*
X153660097Y-112664097D01*
X153693042Y-112659760D01*
X153693045Y-112659759D01*
X153697923Y-112659117D01*
X153742117Y-112640811D01*
X153744243Y-112639584D01*
X153744743Y-112639337D01*
X153795877Y-112633739D01*
X153838647Y-112662319D01*
X153853201Y-112706783D01*
X153853201Y-112788656D01*
X153862072Y-112833258D01*
X153895866Y-112883834D01*
X153902023Y-112887948D01*
X153940283Y-112913513D01*
X153940284Y-112913514D01*
X153946442Y-112917628D01*
X153953706Y-112919073D01*
X153984694Y-112925237D01*
X153991043Y-112926500D01*
X156755726Y-112926500D01*
X159521156Y-112926499D01*
X159565758Y-112917628D01*
X159616334Y-112883834D01*
X159650128Y-112833258D01*
X159659000Y-112788657D01*
X159658999Y-109758544D01*
X159650128Y-109713942D01*
X159616334Y-109663366D01*
X159591067Y-109646483D01*
X159571917Y-109633687D01*
X159571916Y-109633686D01*
X159565758Y-109629572D01*
X159566043Y-109629146D01*
X159532316Y-109598241D01*
X159525603Y-109547241D01*
X159539360Y-109517739D01*
X159542595Y-109513523D01*
X159545593Y-109509616D01*
X159563899Y-109465422D01*
X159572336Y-109423009D01*
X159574779Y-109410725D01*
X159574779Y-109410724D01*
X159575500Y-109407100D01*
X159575500Y-108832280D01*
X159593093Y-108783942D01*
X159637642Y-108758222D01*
X159688300Y-108767155D01*
X159715825Y-108794679D01*
X159717286Y-108797210D01*
X159719173Y-108801765D01*
X159722172Y-108805673D01*
X159722175Y-108805678D01*
X159790824Y-108895143D01*
X159816324Y-108928376D01*
X159820231Y-108931374D01*
X159939027Y-109022529D01*
X159939031Y-109022531D01*
X159942935Y-109025527D01*
X159964760Y-109034567D01*
X160085827Y-109084715D01*
X160085829Y-109084715D01*
X160090376Y-109086599D01*
X160095254Y-109087241D01*
X160095257Y-109087242D01*
X160243716Y-109106787D01*
X160248600Y-109107430D01*
X160253484Y-109106787D01*
X160401943Y-109087242D01*
X160401946Y-109087241D01*
X160406824Y-109086599D01*
X160411371Y-109084715D01*
X160411373Y-109084715D01*
X160532440Y-109034567D01*
X160554265Y-109025527D01*
X160558169Y-109022531D01*
X160558173Y-109022529D01*
X160676969Y-108931374D01*
X160680876Y-108928376D01*
X160704665Y-108897373D01*
X160775029Y-108805673D01*
X160775031Y-108805669D01*
X160778027Y-108801765D01*
X160822473Y-108694462D01*
X160837215Y-108658873D01*
X160837215Y-108658871D01*
X160839099Y-108654324D01*
X160840979Y-108640050D01*
X160859287Y-108500984D01*
X160859930Y-108496100D01*
X160849609Y-108417703D01*
X160839742Y-108342757D01*
X160839741Y-108342754D01*
X160839099Y-108337876D01*
X160778027Y-108190435D01*
X160775031Y-108186531D01*
X160775029Y-108186527D01*
X160683874Y-108067731D01*
X160680876Y-108063824D01*
X160676969Y-108060826D01*
X160558173Y-107969671D01*
X160558169Y-107969669D01*
X160554265Y-107966673D01*
X160437526Y-107918318D01*
X160411373Y-107907485D01*
X160411371Y-107907485D01*
X160406824Y-107905601D01*
X160401946Y-107904959D01*
X160401943Y-107904958D01*
X160253484Y-107885413D01*
X160248600Y-107884770D01*
X160243716Y-107885413D01*
X160095257Y-107904958D01*
X160095254Y-107904959D01*
X160090376Y-107905601D01*
X160085829Y-107907485D01*
X160085827Y-107907485D01*
X160059674Y-107918318D01*
X159942935Y-107966673D01*
X159939031Y-107969669D01*
X159939027Y-107969671D01*
X159820231Y-108060826D01*
X159816324Y-108063824D01*
X159813326Y-108067731D01*
X159722175Y-108186522D01*
X159722173Y-108186525D01*
X159719173Y-108190435D01*
X159717286Y-108194990D01*
X159715825Y-108197521D01*
X159676419Y-108230585D01*
X159624979Y-108230584D01*
X159585574Y-108197519D01*
X159575500Y-108159920D01*
X159575500Y-107529888D01*
X159593093Y-107481550D01*
X159637642Y-107455830D01*
X159679477Y-107460412D01*
X159772876Y-107499099D01*
X159777754Y-107499741D01*
X159777757Y-107499742D01*
X159926216Y-107519287D01*
X159931100Y-107519930D01*
X159935984Y-107519287D01*
X160084443Y-107499742D01*
X160084446Y-107499741D01*
X160089324Y-107499099D01*
X160093871Y-107497215D01*
X160093873Y-107497215D01*
X160187269Y-107458529D01*
X160236765Y-107438027D01*
X160240669Y-107435031D01*
X160240673Y-107435029D01*
X160359469Y-107343874D01*
X160363376Y-107340876D01*
X160379920Y-107319315D01*
X160457529Y-107218173D01*
X160457531Y-107218169D01*
X160460527Y-107214265D01*
X160521599Y-107066824D01*
X160526925Y-107026374D01*
X160541787Y-106913484D01*
X160542430Y-106908600D01*
X160536621Y-106864480D01*
X160522242Y-106755257D01*
X160522241Y-106755254D01*
X160521599Y-106750376D01*
X160519142Y-106744443D01*
X160467398Y-106619523D01*
X160460527Y-106602935D01*
X160457531Y-106599031D01*
X160457529Y-106599027D01*
X160366374Y-106480231D01*
X160363376Y-106476324D01*
X160350234Y-106466240D01*
X160240673Y-106382171D01*
X160240669Y-106382169D01*
X160236765Y-106379173D01*
X160162142Y-106348263D01*
X160093873Y-106319985D01*
X160093871Y-106319985D01*
X160089324Y-106318101D01*
X160084446Y-106317459D01*
X160084443Y-106317458D01*
X159935984Y-106297913D01*
X159931100Y-106297270D01*
X159926216Y-106297913D01*
X159777757Y-106317458D01*
X159777754Y-106317459D01*
X159772876Y-106318101D01*
X159768329Y-106319985D01*
X159768327Y-106319985D01*
X159700058Y-106348263D01*
X159625435Y-106379173D01*
X159621531Y-106382169D01*
X159621527Y-106382171D01*
X159511966Y-106466240D01*
X159498824Y-106476324D01*
X159495826Y-106480231D01*
X159404671Y-106599027D01*
X159404669Y-106599031D01*
X159401673Y-106602935D01*
X159394802Y-106619523D01*
X159343059Y-106744443D01*
X159340601Y-106750376D01*
X159339959Y-106755254D01*
X159339958Y-106755257D01*
X159325579Y-106864480D01*
X159319770Y-106908600D01*
X159320413Y-106913484D01*
X159335276Y-107026374D01*
X159340601Y-107066824D01*
X159379001Y-107159528D01*
X159379288Y-107160222D01*
X159381532Y-107211613D01*
X159350217Y-107252423D01*
X159309812Y-107264200D01*
X153599780Y-107264200D01*
X153551442Y-107246607D01*
X153525722Y-107202058D01*
X153534655Y-107151400D01*
X153562179Y-107123875D01*
X153564710Y-107122414D01*
X153569265Y-107120527D01*
X153573175Y-107117527D01*
X153573178Y-107117525D01*
X153691969Y-107026374D01*
X153695876Y-107023376D01*
X153698874Y-107019469D01*
X153790029Y-106900673D01*
X153790031Y-106900669D01*
X153793027Y-106896765D01*
X153836166Y-106792618D01*
X153852215Y-106753873D01*
X153852215Y-106753871D01*
X153854099Y-106749324D01*
X153858982Y-106712239D01*
X153874287Y-106595984D01*
X153874930Y-106591100D01*
X153863502Y-106504299D01*
X153854742Y-106437757D01*
X153854741Y-106437754D01*
X153854099Y-106432876D01*
X153847615Y-106417221D01*
X153802151Y-106307463D01*
X153793027Y-106285435D01*
X153790031Y-106281531D01*
X153790029Y-106281527D01*
X153698874Y-106162731D01*
X153695876Y-106158824D01*
X153691969Y-106155826D01*
X153573173Y-106064671D01*
X153573169Y-106064669D01*
X153569265Y-106061673D01*
X153564717Y-106059789D01*
X153564714Y-106059787D01*
X153517222Y-106040116D01*
X153479296Y-106005364D01*
X153472581Y-105954364D01*
X153476523Y-105941862D01*
X153534715Y-105801373D01*
X153534715Y-105801371D01*
X153536599Y-105796824D01*
X153538064Y-105785703D01*
X153556787Y-105643484D01*
X153557430Y-105638600D01*
X153540781Y-105512140D01*
X153537242Y-105485257D01*
X153537241Y-105485254D01*
X153536599Y-105480376D01*
X153532327Y-105470061D01*
X153494610Y-105379006D01*
X153475527Y-105332935D01*
X153472531Y-105329031D01*
X153472529Y-105329027D01*
X153381374Y-105210231D01*
X153378376Y-105206324D01*
X153322948Y-105163793D01*
X153255673Y-105112171D01*
X153255669Y-105112169D01*
X153251765Y-105109173D01*
X153178045Y-105078637D01*
X153108873Y-105049985D01*
X153108871Y-105049985D01*
X153104324Y-105048101D01*
X153099446Y-105047459D01*
X153099443Y-105047458D01*
X152950984Y-105027913D01*
X152946100Y-105027270D01*
X152941216Y-105027913D01*
X152941215Y-105027913D01*
X152862241Y-105038310D01*
X152812021Y-105027176D01*
X152780706Y-104986366D01*
X152782950Y-104934975D01*
X152799251Y-104910581D01*
X153674806Y-104035026D01*
X153721426Y-104013286D01*
X153727980Y-104013000D01*
X159005317Y-104013000D01*
X159041876Y-104005728D01*
X159060020Y-104002119D01*
X159060021Y-104002119D01*
X159063639Y-104001399D01*
X159103792Y-103984767D01*
X159104420Y-103984507D01*
X159104422Y-103984506D01*
X159107833Y-103983093D01*
X159157274Y-103950057D01*
X159203079Y-103904252D01*
X159249699Y-103882512D01*
X159299386Y-103895826D01*
X159328891Y-103937963D01*
X159330810Y-103967241D01*
X159320480Y-104045707D01*
X159319770Y-104051100D01*
X159320413Y-104055984D01*
X159339108Y-104197980D01*
X159340601Y-104209324D01*
X159342485Y-104213871D01*
X159342485Y-104213873D01*
X159361479Y-104259728D01*
X159401673Y-104356765D01*
X159404669Y-104360669D01*
X159404671Y-104360673D01*
X159478692Y-104457139D01*
X159498824Y-104483376D01*
X159502731Y-104486374D01*
X159621527Y-104577529D01*
X159621531Y-104577531D01*
X159625435Y-104580527D01*
X159633221Y-104583752D01*
X159768327Y-104639715D01*
X159768329Y-104639715D01*
X159772876Y-104641599D01*
X159777754Y-104642241D01*
X159777757Y-104642242D01*
X159926216Y-104661787D01*
X159931100Y-104662430D01*
X159935984Y-104661787D01*
X160084443Y-104642242D01*
X160084446Y-104642241D01*
X160089324Y-104641599D01*
X160093871Y-104639715D01*
X160093873Y-104639715D01*
X160228979Y-104583752D01*
X160236765Y-104580527D01*
X160240669Y-104577531D01*
X160240673Y-104577529D01*
X160359469Y-104486374D01*
X160363376Y-104483376D01*
X160383508Y-104457139D01*
X160457529Y-104360673D01*
X160457531Y-104360669D01*
X160460527Y-104356765D01*
X160500721Y-104259728D01*
X160519715Y-104213873D01*
X160519715Y-104213871D01*
X160521599Y-104209324D01*
X160523093Y-104197980D01*
X160541787Y-104055984D01*
X160542430Y-104051100D01*
X160536457Y-104005728D01*
X160522242Y-103897757D01*
X160522241Y-103897754D01*
X160521599Y-103892876D01*
X160460527Y-103745435D01*
X160457531Y-103741531D01*
X160457529Y-103741527D01*
X160366374Y-103622731D01*
X160363376Y-103618824D01*
X160348149Y-103607140D01*
X160240673Y-103524671D01*
X160240669Y-103524669D01*
X160236765Y-103521673D01*
X160163045Y-103491137D01*
X160093873Y-103462485D01*
X160093871Y-103462485D01*
X160089324Y-103460601D01*
X160084446Y-103459959D01*
X160084443Y-103459958D01*
X159935984Y-103440413D01*
X159931100Y-103439770D01*
X159926216Y-103440413D01*
X159777757Y-103459958D01*
X159777754Y-103459959D01*
X159772876Y-103460601D01*
X159679477Y-103499288D01*
X159628087Y-103501532D01*
X159587277Y-103470217D01*
X159575500Y-103429812D01*
X159575500Y-103140099D01*
X159563899Y-103081777D01*
X159545593Y-103037583D01*
X159544361Y-103035450D01*
X159544358Y-103035443D01*
X159535741Y-103020518D01*
X159526807Y-102969860D01*
X159552526Y-102925312D01*
X159564911Y-102917796D01*
X159565758Y-102917628D01*
X159616334Y-102883834D01*
X159640715Y-102847346D01*
X159646013Y-102839417D01*
X159646014Y-102839416D01*
X159650128Y-102833258D01*
X159652858Y-102819532D01*
X159658279Y-102792282D01*
X159658279Y-102792281D01*
X159659000Y-102788657D01*
X159658999Y-99758544D01*
X159650128Y-99713942D01*
X159616334Y-99663366D01*
X159608028Y-99657816D01*
X159571917Y-99633687D01*
X159571916Y-99633686D01*
X159565758Y-99629572D01*
X159521157Y-99620700D01*
X156756475Y-99620700D01*
X153991044Y-99620701D01*
X153946442Y-99629572D01*
X153895866Y-99663366D01*
X153862072Y-99713942D01*
X153853200Y-99758543D01*
X153853200Y-99841017D01*
X153835607Y-99889355D01*
X153791058Y-99915075D01*
X153742207Y-99906460D01*
X153742116Y-99906390D01*
X153722882Y-99898423D01*
X153700194Y-99889025D01*
X153700193Y-99889025D01*
X153697922Y-99888084D01*
X153659491Y-99877787D01*
X153619104Y-99883104D01*
X153586159Y-99887441D01*
X153586156Y-99887442D01*
X153581278Y-99888084D01*
X153564871Y-99894880D01*
X153540497Y-99904976D01*
X153540495Y-99904977D01*
X153537084Y-99906390D01*
X153487643Y-99939426D01*
X148933273Y-104493796D01*
X148931778Y-104495740D01*
X148915310Y-104517153D01*
X148871896Y-104544744D01*
X148820904Y-104537974D01*
X148786193Y-104500011D01*
X148780500Y-104471309D01*
X148780500Y-104197980D01*
X148798093Y-104149642D01*
X148802526Y-104144806D01*
X151889946Y-101057385D01*
X151892557Y-101054774D01*
X151925593Y-101005333D01*
X151943899Y-100961139D01*
X151955500Y-100902817D01*
X151955500Y-98970600D01*
X151973093Y-98922262D01*
X152017642Y-98896542D01*
X152030700Y-98895400D01*
X154836995Y-98895400D01*
X154840143Y-98895466D01*
X154904229Y-98898152D01*
X154909216Y-98896982D01*
X154909219Y-98896982D01*
X154949688Y-98887490D01*
X154956654Y-98886199D01*
X154981903Y-98882740D01*
X155002921Y-98879861D01*
X155021269Y-98871921D01*
X155033956Y-98867725D01*
X155053420Y-98863160D01*
X155094342Y-98840663D01*
X155100703Y-98837547D01*
X155105863Y-98835314D01*
X155143556Y-98819003D01*
X155159091Y-98806423D01*
X155170187Y-98798967D01*
X155184247Y-98791238D01*
X155184251Y-98791236D01*
X155187704Y-98789337D01*
X155193156Y-98784631D01*
X155194910Y-98783117D01*
X155194918Y-98783110D01*
X155195952Y-98782217D01*
X155222830Y-98755339D01*
X155228679Y-98750072D01*
X155258662Y-98725792D01*
X155262645Y-98722567D01*
X155265615Y-98718388D01*
X155276288Y-98703370D01*
X155284412Y-98693757D01*
X155487463Y-98490706D01*
X155534083Y-98468966D01*
X155540637Y-98468680D01*
X157506900Y-98468679D01*
X157743976Y-98468679D01*
X157788578Y-98459808D01*
X157839154Y-98426014D01*
X157859847Y-98395045D01*
X157868833Y-98381597D01*
X157868834Y-98381596D01*
X157872948Y-98375438D01*
X157878669Y-98346679D01*
X157878673Y-98346660D01*
X159873481Y-98346660D01*
X159873882Y-98352129D01*
X159882895Y-98413364D01*
X159886321Y-98424389D01*
X159933065Y-98519597D01*
X159940199Y-98529562D01*
X160015000Y-98604231D01*
X160024982Y-98611352D01*
X160120275Y-98657932D01*
X160131289Y-98661336D01*
X160191948Y-98670186D01*
X160197381Y-98670580D01*
X161312701Y-98670580D01*
X161322858Y-98666883D01*
X161325960Y-98661511D01*
X161325960Y-98657320D01*
X161680760Y-98657320D01*
X161684457Y-98667477D01*
X161689829Y-98670579D01*
X162809320Y-98670579D01*
X162814789Y-98670178D01*
X162876024Y-98661165D01*
X162887049Y-98657739D01*
X162982257Y-98610995D01*
X162992222Y-98603861D01*
X163066891Y-98529060D01*
X163074012Y-98519078D01*
X163120592Y-98423785D01*
X163123996Y-98412771D01*
X163132846Y-98352112D01*
X163133240Y-98346679D01*
X163133240Y-97256759D01*
X163129543Y-97246602D01*
X163124171Y-97243500D01*
X161694019Y-97243500D01*
X161683862Y-97247197D01*
X161680760Y-97252569D01*
X161680760Y-98657320D01*
X161325960Y-98657320D01*
X161325960Y-97256759D01*
X161322263Y-97246602D01*
X161316891Y-97243500D01*
X159886740Y-97243500D01*
X159876583Y-97247197D01*
X159873481Y-97252569D01*
X159873481Y-98346660D01*
X157878673Y-98346660D01*
X157881099Y-98334462D01*
X157881099Y-98334461D01*
X157881820Y-98330837D01*
X157881819Y-96875441D01*
X159873480Y-96875441D01*
X159877177Y-96885598D01*
X159882549Y-96888700D01*
X161312701Y-96888700D01*
X161322858Y-96885003D01*
X161325960Y-96879631D01*
X161325960Y-96875441D01*
X161680760Y-96875441D01*
X161684457Y-96885598D01*
X161689829Y-96888700D01*
X163119980Y-96888700D01*
X163130137Y-96885003D01*
X163133239Y-96879631D01*
X163133239Y-95785540D01*
X163132838Y-95780071D01*
X163123825Y-95718836D01*
X163120399Y-95707811D01*
X163073655Y-95612603D01*
X163066521Y-95602638D01*
X162991720Y-95527969D01*
X162981738Y-95520848D01*
X162886445Y-95474268D01*
X162875431Y-95470864D01*
X162814772Y-95462014D01*
X162809339Y-95461620D01*
X161694019Y-95461620D01*
X161683862Y-95465317D01*
X161680760Y-95470689D01*
X161680760Y-96875441D01*
X161325960Y-96875441D01*
X161325960Y-95474880D01*
X161322263Y-95464723D01*
X161316891Y-95461621D01*
X160197400Y-95461621D01*
X160191931Y-95462022D01*
X160130696Y-95471035D01*
X160119671Y-95474461D01*
X160024463Y-95521205D01*
X160014498Y-95528339D01*
X159939829Y-95603140D01*
X159932708Y-95613122D01*
X159886128Y-95708415D01*
X159882724Y-95719429D01*
X159873874Y-95780088D01*
X159873480Y-95785521D01*
X159873480Y-96875441D01*
X157881819Y-96875441D01*
X157881819Y-95801364D01*
X157872948Y-95756762D01*
X157839154Y-95706186D01*
X157824716Y-95696539D01*
X157794737Y-95676507D01*
X157794736Y-95676506D01*
X157788578Y-95672392D01*
X157743977Y-95663520D01*
X157679396Y-95663520D01*
X156440600Y-95663521D01*
X156392262Y-95645928D01*
X156366542Y-95601379D01*
X156365400Y-95588321D01*
X156365400Y-94974742D01*
X156379764Y-94930538D01*
X156381930Y-94927557D01*
X156386116Y-94923371D01*
X156444057Y-94809655D01*
X156453687Y-94748851D01*
X156458133Y-94720785D01*
X156851300Y-94720785D01*
X156851620Y-94725675D01*
X156866224Y-94836604D01*
X156868751Y-94846034D01*
X156925924Y-94984061D01*
X156930806Y-94992517D01*
X157021753Y-95111042D01*
X157028658Y-95117947D01*
X157147183Y-95208894D01*
X157155640Y-95213776D01*
X157293667Y-95270949D01*
X157303096Y-95273476D01*
X157414025Y-95288080D01*
X157418915Y-95288400D01*
X157515441Y-95288400D01*
X157525598Y-95284703D01*
X157528700Y-95279331D01*
X157528700Y-95275141D01*
X157883500Y-95275141D01*
X157887197Y-95285298D01*
X157892569Y-95288400D01*
X157993285Y-95288400D01*
X157998175Y-95288080D01*
X158109104Y-95273476D01*
X158118534Y-95270949D01*
X158256561Y-95213776D01*
X158265017Y-95208894D01*
X158383542Y-95117947D01*
X158390447Y-95111042D01*
X158481394Y-94992517D01*
X158486276Y-94984060D01*
X158543449Y-94846033D01*
X158545976Y-94836604D01*
X158560580Y-94725675D01*
X158560900Y-94720785D01*
X158560900Y-94399259D01*
X158557203Y-94389102D01*
X158551831Y-94386000D01*
X157896759Y-94386000D01*
X157886602Y-94389697D01*
X157883500Y-94395069D01*
X157883500Y-95275141D01*
X157528700Y-95275141D01*
X157528700Y-94399259D01*
X157525003Y-94389102D01*
X157519631Y-94386000D01*
X156864559Y-94386000D01*
X156854402Y-94389697D01*
X156851300Y-94395069D01*
X156851300Y-94720785D01*
X156458133Y-94720785D01*
X156458538Y-94718226D01*
X156458538Y-94718224D01*
X156459000Y-94715308D01*
X156459000Y-94017941D01*
X156851300Y-94017941D01*
X156854997Y-94028098D01*
X156860369Y-94031200D01*
X157515441Y-94031200D01*
X157525598Y-94027503D01*
X157528700Y-94022131D01*
X157528700Y-94017941D01*
X157883500Y-94017941D01*
X157887197Y-94028098D01*
X157892569Y-94031200D01*
X158547641Y-94031200D01*
X158557798Y-94027503D01*
X158560900Y-94022131D01*
X158560900Y-93696415D01*
X158560580Y-93691525D01*
X158545976Y-93580596D01*
X158543449Y-93571166D01*
X158486276Y-93433139D01*
X158481394Y-93424683D01*
X158390447Y-93306158D01*
X158383542Y-93299253D01*
X158265017Y-93208306D01*
X158256560Y-93203424D01*
X158118533Y-93146251D01*
X158109104Y-93143724D01*
X157998175Y-93129120D01*
X157993285Y-93128800D01*
X157896759Y-93128800D01*
X157886602Y-93132497D01*
X157883500Y-93137869D01*
X157883500Y-94017941D01*
X157528700Y-94017941D01*
X157528700Y-93142059D01*
X157525003Y-93131902D01*
X157519631Y-93128800D01*
X157418915Y-93128800D01*
X157414025Y-93129120D01*
X157303096Y-93143724D01*
X157293666Y-93146251D01*
X157155639Y-93203424D01*
X157147183Y-93208306D01*
X157028658Y-93299253D01*
X157021753Y-93306158D01*
X156930806Y-93424683D01*
X156925924Y-93433140D01*
X156868751Y-93571167D01*
X156866224Y-93580596D01*
X156851620Y-93691525D01*
X156851300Y-93696415D01*
X156851300Y-94017941D01*
X156459000Y-94017941D01*
X156459000Y-93701892D01*
X156444057Y-93607545D01*
X156386116Y-93493829D01*
X156295871Y-93403584D01*
X156182155Y-93345643D01*
X156151140Y-93340731D01*
X156090726Y-93331162D01*
X156090724Y-93331162D01*
X156087808Y-93330700D01*
X155524392Y-93330700D01*
X155521476Y-93331162D01*
X155521474Y-93331162D01*
X155461060Y-93340731D01*
X155430045Y-93345643D01*
X155316329Y-93403584D01*
X155226084Y-93493829D01*
X155168143Y-93607545D01*
X155153200Y-93701892D01*
X155153200Y-94715308D01*
X155153662Y-94718224D01*
X155153662Y-94718226D01*
X155158513Y-94748851D01*
X155168143Y-94809655D01*
X155226084Y-94923371D01*
X155230270Y-94927557D01*
X155232436Y-94930538D01*
X155246800Y-94974742D01*
X155246800Y-95588321D01*
X155229207Y-95636659D01*
X155184658Y-95662379D01*
X155171600Y-95663521D01*
X155163704Y-95663521D01*
X155119102Y-95672392D01*
X155068526Y-95706186D01*
X155034732Y-95756762D01*
X155033287Y-95764026D01*
X155029008Y-95785540D01*
X155025860Y-95801363D01*
X155025861Y-96584392D01*
X155025861Y-97339222D01*
X155008268Y-97387560D01*
X155003835Y-97392396D01*
X154641457Y-97754774D01*
X154594837Y-97776514D01*
X154588283Y-97776800D01*
X152030700Y-97776800D01*
X151982362Y-97759207D01*
X151956642Y-97714658D01*
X151955500Y-97701600D01*
X151955500Y-97572609D01*
X151952899Y-97547808D01*
X151952388Y-97542936D01*
X151952387Y-97542929D01*
X151952183Y-97540985D01*
X151951775Y-97539060D01*
X151946957Y-97516346D01*
X151946951Y-97516322D01*
X151946801Y-97515613D01*
X151943879Y-97504078D01*
X151902718Y-97436780D01*
X151868048Y-97403823D01*
X151863299Y-97400366D01*
X151844954Y-97387014D01*
X151835882Y-97380411D01*
X151828682Y-97378676D01*
X151828680Y-97378675D01*
X151759190Y-97361929D01*
X151759725Y-97359710D01*
X151721144Y-97340844D01*
X151700269Y-97293831D01*
X151700675Y-97287480D01*
X152083301Y-97287480D01*
X152083702Y-97292949D01*
X152092715Y-97354184D01*
X152096141Y-97365209D01*
X152142885Y-97460417D01*
X152150019Y-97470382D01*
X152224820Y-97545051D01*
X152234802Y-97552172D01*
X152330095Y-97598752D01*
X152341109Y-97602156D01*
X152401768Y-97611006D01*
X152407201Y-97611400D01*
X153072941Y-97611400D01*
X153083098Y-97607703D01*
X153086200Y-97602331D01*
X153086200Y-97598140D01*
X153441000Y-97598140D01*
X153444697Y-97608297D01*
X153450069Y-97611399D01*
X154119980Y-97611399D01*
X154125449Y-97610998D01*
X154186684Y-97601985D01*
X154197709Y-97598559D01*
X154292917Y-97551815D01*
X154302882Y-97544681D01*
X154377551Y-97469880D01*
X154384672Y-97459898D01*
X154431252Y-97364605D01*
X154434656Y-97353591D01*
X154443506Y-97292932D01*
X154443900Y-97287499D01*
X154443900Y-96621759D01*
X154440203Y-96611602D01*
X154434831Y-96608500D01*
X153454259Y-96608500D01*
X153444102Y-96612197D01*
X153441000Y-96617569D01*
X153441000Y-97598140D01*
X153086200Y-97598140D01*
X153086200Y-96621759D01*
X153082503Y-96611602D01*
X153077131Y-96608500D01*
X152096560Y-96608500D01*
X152086403Y-96612197D01*
X152083301Y-96617569D01*
X152083301Y-97287480D01*
X151700675Y-97287480D01*
X151701217Y-97278987D01*
X151700917Y-97278957D01*
X151701279Y-97275282D01*
X151702000Y-97271657D01*
X151701999Y-96240441D01*
X152083300Y-96240441D01*
X152086997Y-96250598D01*
X152092369Y-96253700D01*
X153072941Y-96253700D01*
X153083098Y-96250003D01*
X153086200Y-96244631D01*
X153086200Y-96240441D01*
X153441000Y-96240441D01*
X153444697Y-96250598D01*
X153450069Y-96253700D01*
X154430640Y-96253700D01*
X154440797Y-96250003D01*
X154443899Y-96244631D01*
X154443899Y-95574720D01*
X154443498Y-95569251D01*
X154434485Y-95508016D01*
X154431059Y-95496991D01*
X154384315Y-95401783D01*
X154377181Y-95391818D01*
X154302380Y-95317149D01*
X154292398Y-95310028D01*
X154197105Y-95263448D01*
X154186091Y-95260044D01*
X154125432Y-95251194D01*
X154119999Y-95250800D01*
X153454259Y-95250800D01*
X153444102Y-95254497D01*
X153441000Y-95259869D01*
X153441000Y-96240441D01*
X153086200Y-96240441D01*
X153086200Y-95264060D01*
X153082503Y-95253903D01*
X153077131Y-95250801D01*
X152407220Y-95250801D01*
X152401751Y-95251202D01*
X152340516Y-95260215D01*
X152329491Y-95263641D01*
X152234283Y-95310385D01*
X152224318Y-95317519D01*
X152149649Y-95392320D01*
X152142528Y-95402302D01*
X152095948Y-95497595D01*
X152092544Y-95508609D01*
X152083694Y-95569268D01*
X152083300Y-95574701D01*
X152083300Y-96240441D01*
X151701999Y-96240441D01*
X151701999Y-95590544D01*
X151701189Y-95586470D01*
X151701216Y-95586294D01*
X151700916Y-95583247D01*
X151701697Y-95583170D01*
X151709018Y-95535630D01*
X151747696Y-95501717D01*
X151765129Y-95497249D01*
X151794041Y-95493443D01*
X151794044Y-95493442D01*
X151798922Y-95492800D01*
X151833486Y-95478483D01*
X151840845Y-95475435D01*
X151840849Y-95475433D01*
X151843116Y-95474494D01*
X151877569Y-95454602D01*
X151925593Y-95392017D01*
X151943899Y-95347823D01*
X151950001Y-95317149D01*
X151954779Y-95293126D01*
X151954779Y-95293125D01*
X151955500Y-95289501D01*
X151955500Y-95032609D01*
X151953319Y-95011815D01*
X151952388Y-95002936D01*
X151952387Y-95002929D01*
X151952183Y-95000985D01*
X151948593Y-94984060D01*
X151946957Y-94976346D01*
X151946951Y-94976322D01*
X151946801Y-94975613D01*
X151943879Y-94964078D01*
X151902718Y-94896780D01*
X151868048Y-94863823D01*
X151863299Y-94860366D01*
X151844954Y-94847014D01*
X151835882Y-94840411D01*
X151828682Y-94838676D01*
X151828680Y-94838675D01*
X151759190Y-94821929D01*
X151759725Y-94819710D01*
X151721144Y-94800844D01*
X151700269Y-94753831D01*
X151700675Y-94747480D01*
X152083301Y-94747480D01*
X152083702Y-94752949D01*
X152092715Y-94814184D01*
X152096141Y-94825209D01*
X152142885Y-94920417D01*
X152150019Y-94930382D01*
X152224820Y-95005051D01*
X152234802Y-95012172D01*
X152330095Y-95058752D01*
X152341109Y-95062156D01*
X152401768Y-95071006D01*
X152407201Y-95071400D01*
X153072941Y-95071400D01*
X153083098Y-95067703D01*
X153086200Y-95062331D01*
X153086200Y-95058140D01*
X153441000Y-95058140D01*
X153444697Y-95068297D01*
X153450069Y-95071399D01*
X154119980Y-95071399D01*
X154125449Y-95070998D01*
X154186684Y-95061985D01*
X154197709Y-95058559D01*
X154292917Y-95011815D01*
X154302882Y-95004681D01*
X154377551Y-94929880D01*
X154384672Y-94919898D01*
X154431252Y-94824605D01*
X154434656Y-94813591D01*
X154443506Y-94752932D01*
X154443900Y-94747499D01*
X154443900Y-94081759D01*
X154440203Y-94071602D01*
X154434831Y-94068500D01*
X153454259Y-94068500D01*
X153444102Y-94072197D01*
X153441000Y-94077569D01*
X153441000Y-95058140D01*
X153086200Y-95058140D01*
X153086200Y-94081759D01*
X153082503Y-94071602D01*
X153077131Y-94068500D01*
X152096560Y-94068500D01*
X152086403Y-94072197D01*
X152083301Y-94077569D01*
X152083301Y-94747480D01*
X151700675Y-94747480D01*
X151701217Y-94738987D01*
X151700917Y-94738957D01*
X151701279Y-94735282D01*
X151702000Y-94731657D01*
X151701999Y-93700441D01*
X152083300Y-93700441D01*
X152086997Y-93710598D01*
X152092369Y-93713700D01*
X153072941Y-93713700D01*
X153083098Y-93710003D01*
X153086200Y-93704631D01*
X153086200Y-93700441D01*
X153441000Y-93700441D01*
X153444697Y-93710598D01*
X153450069Y-93713700D01*
X154430640Y-93713700D01*
X154440797Y-93710003D01*
X154443899Y-93704631D01*
X154443899Y-93034720D01*
X154443498Y-93029251D01*
X154434485Y-92968016D01*
X154431059Y-92956991D01*
X154384315Y-92861783D01*
X154377181Y-92851818D01*
X154302380Y-92777149D01*
X154292398Y-92770028D01*
X154197105Y-92723448D01*
X154186091Y-92720044D01*
X154125432Y-92711194D01*
X154119999Y-92710800D01*
X153454259Y-92710800D01*
X153444102Y-92714497D01*
X153441000Y-92719869D01*
X153441000Y-93700441D01*
X153086200Y-93700441D01*
X153086200Y-92724060D01*
X153082503Y-92713903D01*
X153077131Y-92710801D01*
X152407220Y-92710801D01*
X152401751Y-92711202D01*
X152340516Y-92720215D01*
X152329491Y-92723641D01*
X152234283Y-92770385D01*
X152224318Y-92777519D01*
X152149649Y-92852320D01*
X152142528Y-92862302D01*
X152095948Y-92957595D01*
X152092544Y-92968609D01*
X152083694Y-93029268D01*
X152083300Y-93034701D01*
X152083300Y-93700441D01*
X151701999Y-93700441D01*
X151701999Y-93050544D01*
X151701189Y-93046470D01*
X151701216Y-93046294D01*
X151700916Y-93043247D01*
X151701697Y-93043170D01*
X151709018Y-92995630D01*
X151747696Y-92961717D01*
X151765129Y-92957249D01*
X151794041Y-92953443D01*
X151794044Y-92953442D01*
X151798922Y-92952800D01*
X151833486Y-92938483D01*
X151840845Y-92935435D01*
X151840849Y-92935433D01*
X151843116Y-92934494D01*
X151877569Y-92914602D01*
X151925593Y-92852017D01*
X151943899Y-92807823D01*
X151950001Y-92777149D01*
X151954779Y-92753126D01*
X151954779Y-92753125D01*
X151955500Y-92749501D01*
X151955500Y-92492609D01*
X151953319Y-92471815D01*
X151952388Y-92462936D01*
X151952387Y-92462929D01*
X151952183Y-92460985D01*
X151951775Y-92459060D01*
X151946957Y-92436346D01*
X151946951Y-92436322D01*
X151946801Y-92435613D01*
X151943879Y-92424078D01*
X151902718Y-92356780D01*
X151868048Y-92323823D01*
X151835882Y-92300411D01*
X151828682Y-92298676D01*
X151828680Y-92298675D01*
X151759190Y-92281929D01*
X151759725Y-92279710D01*
X151721144Y-92260844D01*
X151700269Y-92213831D01*
X151700675Y-92207480D01*
X152083301Y-92207480D01*
X152083702Y-92212949D01*
X152092715Y-92274184D01*
X152096141Y-92285209D01*
X152142885Y-92380417D01*
X152150019Y-92390382D01*
X152224820Y-92465051D01*
X152234802Y-92472172D01*
X152330095Y-92518752D01*
X152341109Y-92522156D01*
X152401768Y-92531006D01*
X152407201Y-92531400D01*
X153072941Y-92531400D01*
X153083098Y-92527703D01*
X153086200Y-92522331D01*
X153086200Y-92518140D01*
X153441000Y-92518140D01*
X153444697Y-92528297D01*
X153450069Y-92531399D01*
X154119980Y-92531399D01*
X154125449Y-92530998D01*
X154186684Y-92521985D01*
X154197709Y-92518559D01*
X154292917Y-92471815D01*
X154302882Y-92464681D01*
X154377551Y-92389880D01*
X154384672Y-92379898D01*
X154431252Y-92284605D01*
X154434656Y-92273591D01*
X154443506Y-92212932D01*
X154443900Y-92207499D01*
X154443900Y-91541759D01*
X154440203Y-91531602D01*
X154434831Y-91528500D01*
X153454259Y-91528500D01*
X153444102Y-91532197D01*
X153441000Y-91537569D01*
X153441000Y-92518140D01*
X153086200Y-92518140D01*
X153086200Y-91541759D01*
X153082503Y-91531602D01*
X153077131Y-91528500D01*
X152096560Y-91528500D01*
X152086403Y-91532197D01*
X152083301Y-91537569D01*
X152083301Y-92207480D01*
X151700675Y-92207480D01*
X151701217Y-92198987D01*
X151700917Y-92198957D01*
X151701279Y-92195282D01*
X151702000Y-92191657D01*
X151701999Y-91160441D01*
X152083300Y-91160441D01*
X152086997Y-91170598D01*
X152092369Y-91173700D01*
X153072941Y-91173700D01*
X153083098Y-91170003D01*
X153086200Y-91164631D01*
X153086200Y-91160441D01*
X153441000Y-91160441D01*
X153444697Y-91170598D01*
X153450069Y-91173700D01*
X154430640Y-91173700D01*
X154440797Y-91170003D01*
X154443899Y-91164631D01*
X154443899Y-90494720D01*
X154443498Y-90489251D01*
X154434485Y-90428016D01*
X154431059Y-90416991D01*
X154384315Y-90321783D01*
X154377181Y-90311818D01*
X154302380Y-90237149D01*
X154292398Y-90230028D01*
X154197105Y-90183448D01*
X154186091Y-90180044D01*
X154125432Y-90171194D01*
X154119999Y-90170800D01*
X153454259Y-90170800D01*
X153444102Y-90174497D01*
X153441000Y-90179869D01*
X153441000Y-91160441D01*
X153086200Y-91160441D01*
X153086200Y-90184060D01*
X153082503Y-90173903D01*
X153077131Y-90170801D01*
X152407220Y-90170801D01*
X152401751Y-90171202D01*
X152340516Y-90180215D01*
X152329491Y-90183641D01*
X152234283Y-90230385D01*
X152224318Y-90237519D01*
X152149649Y-90312320D01*
X152142528Y-90322302D01*
X152095948Y-90417595D01*
X152092544Y-90428609D01*
X152083694Y-90489268D01*
X152083300Y-90494701D01*
X152083300Y-91160441D01*
X151701999Y-91160441D01*
X151701999Y-90510544D01*
X151701189Y-90506470D01*
X151701216Y-90506294D01*
X151700916Y-90503247D01*
X151701697Y-90503170D01*
X151709018Y-90455630D01*
X151747696Y-90421717D01*
X151765129Y-90417249D01*
X151794041Y-90413443D01*
X151794044Y-90413442D01*
X151798922Y-90412800D01*
X151833486Y-90398483D01*
X151840845Y-90395435D01*
X151840849Y-90395433D01*
X151843116Y-90394494D01*
X151877569Y-90374602D01*
X151925593Y-90312017D01*
X151943899Y-90267823D01*
X151950001Y-90237149D01*
X151954779Y-90213126D01*
X151954779Y-90213125D01*
X151955500Y-90209501D01*
X151955500Y-89952609D01*
X151953319Y-89931815D01*
X151952388Y-89922936D01*
X151952387Y-89922929D01*
X151952183Y-89920985D01*
X151951775Y-89919060D01*
X151946957Y-89896346D01*
X151946951Y-89896322D01*
X151946801Y-89895613D01*
X151943879Y-89884078D01*
X151902718Y-89816780D01*
X151868048Y-89783823D01*
X151835882Y-89760411D01*
X151828682Y-89758676D01*
X151828680Y-89758675D01*
X151759190Y-89741929D01*
X151759725Y-89739710D01*
X151721144Y-89720844D01*
X151700269Y-89673831D01*
X151700675Y-89667480D01*
X152083301Y-89667480D01*
X152083702Y-89672949D01*
X152092715Y-89734184D01*
X152096141Y-89745209D01*
X152142885Y-89840417D01*
X152150019Y-89850382D01*
X152224820Y-89925051D01*
X152234802Y-89932172D01*
X152330095Y-89978752D01*
X152341109Y-89982156D01*
X152401768Y-89991006D01*
X152407201Y-89991400D01*
X153072941Y-89991400D01*
X153083098Y-89987703D01*
X153086200Y-89982331D01*
X153086200Y-89978140D01*
X153441000Y-89978140D01*
X153444697Y-89988297D01*
X153450069Y-89991399D01*
X154119980Y-89991399D01*
X154125449Y-89990998D01*
X154186684Y-89981985D01*
X154197709Y-89978559D01*
X154292917Y-89931815D01*
X154302882Y-89924681D01*
X154377551Y-89849880D01*
X154384672Y-89839898D01*
X154431252Y-89744605D01*
X154434656Y-89733591D01*
X154443506Y-89672932D01*
X154443900Y-89667499D01*
X154443900Y-89001759D01*
X154440203Y-88991602D01*
X154434831Y-88988500D01*
X153454259Y-88988500D01*
X153444102Y-88992197D01*
X153441000Y-88997569D01*
X153441000Y-89978140D01*
X153086200Y-89978140D01*
X153086200Y-89001759D01*
X153082503Y-88991602D01*
X153077131Y-88988500D01*
X152096560Y-88988500D01*
X152086403Y-88992197D01*
X152083301Y-88997569D01*
X152083301Y-89667480D01*
X151700675Y-89667480D01*
X151701217Y-89658987D01*
X151700917Y-89658957D01*
X151701279Y-89655282D01*
X151702000Y-89651657D01*
X151701999Y-88620441D01*
X152083300Y-88620441D01*
X152086997Y-88630598D01*
X152092369Y-88633700D01*
X153072941Y-88633700D01*
X153083098Y-88630003D01*
X153086200Y-88624631D01*
X153086200Y-88620441D01*
X153441000Y-88620441D01*
X153444697Y-88630598D01*
X153450069Y-88633700D01*
X154430640Y-88633700D01*
X154440797Y-88630003D01*
X154443899Y-88624631D01*
X154443899Y-87954720D01*
X154443498Y-87949251D01*
X154434485Y-87888016D01*
X154431059Y-87876991D01*
X154384315Y-87781783D01*
X154377181Y-87771818D01*
X154302380Y-87697149D01*
X154292398Y-87690028D01*
X154197105Y-87643448D01*
X154186091Y-87640044D01*
X154125432Y-87631194D01*
X154119999Y-87630800D01*
X153454259Y-87630800D01*
X153444102Y-87634497D01*
X153441000Y-87639869D01*
X153441000Y-88620441D01*
X153086200Y-88620441D01*
X153086200Y-87644060D01*
X153082503Y-87633903D01*
X153077131Y-87630801D01*
X152407220Y-87630801D01*
X152401751Y-87631202D01*
X152340516Y-87640215D01*
X152329491Y-87643641D01*
X152234283Y-87690385D01*
X152224318Y-87697519D01*
X152149649Y-87772320D01*
X152142528Y-87782302D01*
X152095948Y-87877595D01*
X152092544Y-87888609D01*
X152083694Y-87949268D01*
X152083300Y-87954701D01*
X152083300Y-88620441D01*
X151701999Y-88620441D01*
X151701999Y-87970544D01*
X151701189Y-87966470D01*
X151701216Y-87966294D01*
X151700916Y-87963247D01*
X151701697Y-87963170D01*
X151709018Y-87915630D01*
X151747696Y-87881717D01*
X151765129Y-87877249D01*
X151794041Y-87873443D01*
X151794044Y-87873442D01*
X151798922Y-87872800D01*
X151833486Y-87858483D01*
X151840845Y-87855435D01*
X151840849Y-87855433D01*
X151843116Y-87854494D01*
X151877569Y-87834602D01*
X151925593Y-87772017D01*
X151943899Y-87727823D01*
X151950001Y-87697149D01*
X151954779Y-87673126D01*
X151954779Y-87673125D01*
X151955500Y-87669501D01*
X151955500Y-87476600D01*
X151943899Y-87418278D01*
X151934107Y-87394638D01*
X151926534Y-87376355D01*
X151926532Y-87376351D01*
X151925593Y-87374084D01*
X151905701Y-87339631D01*
X151843116Y-87291607D01*
X151798922Y-87273301D01*
X151795304Y-87272581D01*
X151795303Y-87272581D01*
X151744225Y-87262421D01*
X151744224Y-87262421D01*
X151740600Y-87261700D01*
X149389100Y-87261700D01*
X149385476Y-87262421D01*
X149385475Y-87262421D01*
X149334397Y-87272581D01*
X149334396Y-87272581D01*
X149330778Y-87273301D01*
X149307138Y-87283093D01*
X149288855Y-87290666D01*
X149288851Y-87290668D01*
X149286584Y-87291607D01*
X149252131Y-87311499D01*
X149204107Y-87374084D01*
X149185801Y-87418278D01*
X149174200Y-87476600D01*
X149174200Y-87563014D01*
X149156607Y-87611352D01*
X149112058Y-87637072D01*
X149088143Y-87637426D01*
X149045430Y-87631194D01*
X149039999Y-87630800D01*
X148374259Y-87630800D01*
X148364102Y-87634497D01*
X148361000Y-87639869D01*
X148361000Y-89978140D01*
X148364697Y-89988297D01*
X148370069Y-89991399D01*
X149039980Y-89991399D01*
X149045450Y-89990998D01*
X149088049Y-89984728D01*
X149138433Y-89995094D01*
X149170366Y-90035422D01*
X149174200Y-90059126D01*
X149174200Y-90103014D01*
X149156607Y-90151352D01*
X149112058Y-90177072D01*
X149088143Y-90177426D01*
X149045430Y-90171194D01*
X149039999Y-90170800D01*
X148374259Y-90170800D01*
X148364102Y-90174497D01*
X148361000Y-90179869D01*
X148361000Y-92518140D01*
X148364697Y-92528297D01*
X148370069Y-92531399D01*
X149039980Y-92531399D01*
X149045450Y-92530998D01*
X149088049Y-92524728D01*
X149138433Y-92535094D01*
X149170366Y-92575422D01*
X149174200Y-92599126D01*
X149174200Y-92643014D01*
X149156607Y-92691352D01*
X149112058Y-92717072D01*
X149088143Y-92717426D01*
X149045430Y-92711194D01*
X149039999Y-92710800D01*
X148374259Y-92710800D01*
X148364102Y-92714497D01*
X148361000Y-92719869D01*
X148361000Y-95058140D01*
X148364697Y-95068297D01*
X148370069Y-95071399D01*
X149039980Y-95071399D01*
X149045450Y-95070998D01*
X149088049Y-95064728D01*
X149138433Y-95075094D01*
X149170366Y-95115422D01*
X149174200Y-95139126D01*
X149174200Y-95183014D01*
X149156607Y-95231352D01*
X149112058Y-95257072D01*
X149088143Y-95257426D01*
X149045430Y-95251194D01*
X149039999Y-95250800D01*
X148374259Y-95250800D01*
X148364102Y-95254497D01*
X148361000Y-95259869D01*
X148361000Y-97598140D01*
X148364697Y-97608297D01*
X148370069Y-97611399D01*
X149039980Y-97611399D01*
X149045450Y-97610998D01*
X149088049Y-97604728D01*
X149138433Y-97615094D01*
X149170366Y-97655422D01*
X149174200Y-97679126D01*
X149174200Y-97701600D01*
X149156607Y-97749938D01*
X149112058Y-97775658D01*
X149099000Y-97776800D01*
X146541418Y-97776800D01*
X146493080Y-97759207D01*
X146488244Y-97754774D01*
X146020949Y-97287480D01*
X147003301Y-97287480D01*
X147003702Y-97292949D01*
X147012715Y-97354184D01*
X147016141Y-97365209D01*
X147062885Y-97460417D01*
X147070019Y-97470382D01*
X147144820Y-97545051D01*
X147154802Y-97552172D01*
X147250095Y-97598752D01*
X147261109Y-97602156D01*
X147321768Y-97611006D01*
X147327201Y-97611400D01*
X147992941Y-97611400D01*
X148003098Y-97607703D01*
X148006200Y-97602331D01*
X148006200Y-96621759D01*
X148002503Y-96611602D01*
X147997131Y-96608500D01*
X147016560Y-96608500D01*
X147006403Y-96612197D01*
X147003301Y-96617569D01*
X147003301Y-97287480D01*
X146020949Y-97287480D01*
X145589926Y-96856457D01*
X145568186Y-96809837D01*
X145567900Y-96803283D01*
X145567900Y-96240441D01*
X147003300Y-96240441D01*
X147006997Y-96250598D01*
X147012369Y-96253700D01*
X147992941Y-96253700D01*
X148003098Y-96250003D01*
X148006200Y-96244631D01*
X148006200Y-95264060D01*
X148002503Y-95253903D01*
X147997131Y-95250801D01*
X147327220Y-95250801D01*
X147321751Y-95251202D01*
X147260516Y-95260215D01*
X147249491Y-95263641D01*
X147154283Y-95310385D01*
X147144318Y-95317519D01*
X147069649Y-95392320D01*
X147062528Y-95402302D01*
X147015948Y-95497595D01*
X147012544Y-95508609D01*
X147003694Y-95569268D01*
X147003300Y-95574701D01*
X147003300Y-96240441D01*
X145567900Y-96240441D01*
X145567900Y-95696070D01*
X145585493Y-95647732D01*
X145630042Y-95622012D01*
X145634946Y-95621339D01*
X145638336Y-95621339D01*
X145682938Y-95612468D01*
X145733514Y-95578674D01*
X145755385Y-95545942D01*
X145763193Y-95534257D01*
X145763194Y-95534256D01*
X145767308Y-95528098D01*
X145773376Y-95497595D01*
X145775459Y-95487122D01*
X145775459Y-95487121D01*
X145776180Y-95483497D01*
X145776180Y-94747480D01*
X147003301Y-94747480D01*
X147003702Y-94752949D01*
X147012715Y-94814184D01*
X147016141Y-94825209D01*
X147062885Y-94920417D01*
X147070019Y-94930382D01*
X147144820Y-95005051D01*
X147154802Y-95012172D01*
X147250095Y-95058752D01*
X147261109Y-95062156D01*
X147321768Y-95071006D01*
X147327201Y-95071400D01*
X147992941Y-95071400D01*
X148003098Y-95067703D01*
X148006200Y-95062331D01*
X148006200Y-94081759D01*
X148002503Y-94071602D01*
X147997131Y-94068500D01*
X147016560Y-94068500D01*
X147006403Y-94072197D01*
X147003301Y-94077569D01*
X147003301Y-94747480D01*
X145776180Y-94747480D01*
X145776179Y-93700441D01*
X147003300Y-93700441D01*
X147006997Y-93710598D01*
X147012369Y-93713700D01*
X147992941Y-93713700D01*
X148003098Y-93710003D01*
X148006200Y-93704631D01*
X148006200Y-92724060D01*
X148002503Y-92713903D01*
X147997131Y-92710801D01*
X147327220Y-92710801D01*
X147321751Y-92711202D01*
X147260516Y-92720215D01*
X147249491Y-92723641D01*
X147154283Y-92770385D01*
X147144318Y-92777519D01*
X147069649Y-92852320D01*
X147062528Y-92862302D01*
X147015948Y-92957595D01*
X147012544Y-92968609D01*
X147003694Y-93029268D01*
X147003300Y-93034701D01*
X147003300Y-93700441D01*
X145776179Y-93700441D01*
X145776179Y-92903224D01*
X145767308Y-92858622D01*
X145733514Y-92808046D01*
X145689098Y-92778368D01*
X145689096Y-92778366D01*
X145682938Y-92774252D01*
X145663498Y-92770385D01*
X145641962Y-92766101D01*
X145641961Y-92766101D01*
X145638337Y-92765380D01*
X144373772Y-92765380D01*
X143108864Y-92765381D01*
X143064262Y-92774252D01*
X143013686Y-92808046D01*
X142979892Y-92858622D01*
X142971020Y-92903223D01*
X142971021Y-95483496D01*
X142979892Y-95528098D01*
X143013686Y-95578674D01*
X143019843Y-95582788D01*
X143058103Y-95608353D01*
X143058104Y-95608354D01*
X143064262Y-95612468D01*
X143108863Y-95621340D01*
X143171658Y-95621340D01*
X144374100Y-95621339D01*
X144422438Y-95638932D01*
X144448158Y-95683481D01*
X144449300Y-95696539D01*
X144449300Y-96373552D01*
X144431707Y-96421890D01*
X144387158Y-96447610D01*
X144336500Y-96438677D01*
X144307096Y-96407692D01*
X144293805Y-96381606D01*
X144293804Y-96381605D01*
X144291116Y-96376329D01*
X144200871Y-96286084D01*
X144087155Y-96228143D01*
X144056140Y-96223231D01*
X143995726Y-96213662D01*
X143995724Y-96213662D01*
X143992808Y-96213200D01*
X143404392Y-96213200D01*
X143401476Y-96213662D01*
X143401474Y-96213662D01*
X143341060Y-96223231D01*
X143310045Y-96228143D01*
X143196329Y-96286084D01*
X143106084Y-96376329D01*
X143048143Y-96490045D01*
X143033200Y-96584392D01*
X143033200Y-97547808D01*
X143033662Y-97550724D01*
X143033662Y-97550726D01*
X143041172Y-97598140D01*
X143048143Y-97642155D01*
X143106084Y-97755871D01*
X143196329Y-97846116D01*
X143310045Y-97904057D01*
X143367364Y-97913135D01*
X143412354Y-97938073D01*
X143430800Y-97987409D01*
X143430800Y-98120559D01*
X143413207Y-98168897D01*
X143368658Y-98194617D01*
X143321461Y-98187563D01*
X143214655Y-98133143D01*
X143183640Y-98128231D01*
X143123226Y-98118662D01*
X143123224Y-98118662D01*
X143120308Y-98118200D01*
X142531892Y-98118200D01*
X142528976Y-98118662D01*
X142528974Y-98118662D01*
X142468560Y-98128231D01*
X142437545Y-98133143D01*
X142376944Y-98164021D01*
X142367374Y-98168897D01*
X142323829Y-98191084D01*
X142233584Y-98281329D01*
X142175643Y-98395045D01*
X142172742Y-98413364D01*
X142163981Y-98468679D01*
X142160700Y-98489392D01*
X142160700Y-98590600D01*
X142143107Y-98638938D01*
X142098558Y-98664658D01*
X142085500Y-98665800D01*
X140664700Y-98665800D01*
X140616362Y-98648207D01*
X140590642Y-98603658D01*
X140589500Y-98590600D01*
X140589499Y-97499241D01*
X140589499Y-97495544D01*
X140582682Y-97461269D01*
X140590508Y-97410428D01*
X140629183Y-97376512D01*
X140656437Y-97371400D01*
X141133000Y-97371400D01*
X141181338Y-97388993D01*
X141207058Y-97433542D01*
X141208200Y-97446600D01*
X141208200Y-97547808D01*
X141208662Y-97550724D01*
X141208662Y-97550726D01*
X141216172Y-97598140D01*
X141223143Y-97642155D01*
X141281084Y-97755871D01*
X141371329Y-97846116D01*
X141485045Y-97904057D01*
X141490892Y-97904983D01*
X141576474Y-97918538D01*
X141576476Y-97918538D01*
X141579392Y-97919000D01*
X142167808Y-97919000D01*
X142170724Y-97918538D01*
X142170726Y-97918538D01*
X142256308Y-97904983D01*
X142262155Y-97904057D01*
X142375871Y-97846116D01*
X142466116Y-97755871D01*
X142524057Y-97642155D01*
X142531028Y-97598140D01*
X142538538Y-97550726D01*
X142538538Y-97550724D01*
X142539000Y-97547808D01*
X142539000Y-96584392D01*
X142524057Y-96490045D01*
X142466116Y-96376329D01*
X142375871Y-96286084D01*
X142262155Y-96228143D01*
X142231140Y-96223231D01*
X142170726Y-96213662D01*
X142170724Y-96213662D01*
X142167808Y-96213200D01*
X141579392Y-96213200D01*
X141576476Y-96213662D01*
X141576474Y-96213662D01*
X141516060Y-96223231D01*
X141485045Y-96228143D01*
X141371329Y-96286084D01*
X141281084Y-96376329D01*
X141223143Y-96490045D01*
X141208200Y-96584392D01*
X141208200Y-96685600D01*
X141190607Y-96733938D01*
X141146058Y-96759658D01*
X141133000Y-96760800D01*
X140656438Y-96760800D01*
X140608100Y-96743207D01*
X140582380Y-96698658D01*
X140582683Y-96670929D01*
X140588779Y-96640282D01*
X140588779Y-96640281D01*
X140589500Y-96636657D01*
X140589499Y-94955544D01*
X140580628Y-94910942D01*
X140546834Y-94860366D01*
X140540677Y-94856252D01*
X140502417Y-94830687D01*
X140502416Y-94830686D01*
X140496258Y-94826572D01*
X140451657Y-94817700D01*
X139611214Y-94817700D01*
X138770544Y-94817701D01*
X138725942Y-94826572D01*
X138675366Y-94860366D01*
X138671252Y-94866523D01*
X138648224Y-94900987D01*
X138641572Y-94910942D01*
X138632700Y-94955543D01*
X138632701Y-96636656D01*
X138633423Y-96640284D01*
X138639518Y-96670931D01*
X138631692Y-96721772D01*
X138593017Y-96755688D01*
X138565763Y-96760800D01*
X138498707Y-96760800D01*
X138450369Y-96743207D01*
X138445545Y-96738786D01*
X138071524Y-96364764D01*
X138049786Y-96318146D01*
X138049500Y-96311592D01*
X138049499Y-94959241D01*
X138049499Y-94955544D01*
X138040628Y-94910942D01*
X138006834Y-94860366D01*
X138000677Y-94856252D01*
X137962417Y-94830687D01*
X137962416Y-94830686D01*
X137956258Y-94826572D01*
X137911657Y-94817700D01*
X137071214Y-94817700D01*
X136230544Y-94817701D01*
X136185942Y-94826572D01*
X136135366Y-94860366D01*
X136131252Y-94866523D01*
X136108224Y-94900987D01*
X136101572Y-94910942D01*
X136092700Y-94955543D01*
X136092701Y-96636656D01*
X136101572Y-96681258D01*
X136135366Y-96731834D01*
X136141523Y-96735948D01*
X136179783Y-96761513D01*
X136179784Y-96761514D01*
X136185942Y-96765628D01*
X136230543Y-96774500D01*
X136377687Y-96774500D01*
X137586592Y-96774499D01*
X137634930Y-96792092D01*
X137639766Y-96796525D01*
X138086018Y-97242777D01*
X138089662Y-97246998D01*
X138091755Y-97251280D01*
X138096844Y-97256001D01*
X138096845Y-97256002D01*
X138128955Y-97285788D01*
X138130987Y-97287746D01*
X138145297Y-97302056D01*
X138148158Y-97304018D01*
X138150823Y-97306233D01*
X138150705Y-97306375D01*
X138153935Y-97308960D01*
X138175137Y-97328628D01*
X138181584Y-97331200D01*
X138181587Y-97331202D01*
X138188624Y-97334009D01*
X138203294Y-97341842D01*
X138215268Y-97350056D01*
X138222021Y-97351659D01*
X138222022Y-97351659D01*
X138243411Y-97356735D01*
X138253902Y-97360053D01*
X138280773Y-97370773D01*
X138287168Y-97371400D01*
X138296406Y-97371400D01*
X138313771Y-97373432D01*
X138325927Y-97376317D01*
X138332805Y-97375381D01*
X138332806Y-97375381D01*
X138357009Y-97372087D01*
X138367150Y-97371400D01*
X138565762Y-97371400D01*
X138614100Y-97388993D01*
X138639820Y-97433542D01*
X138639517Y-97461271D01*
X138632700Y-97495543D01*
X138632701Y-99176656D01*
X138633423Y-99180284D01*
X138639518Y-99210931D01*
X138631692Y-99261772D01*
X138593017Y-99295688D01*
X138565763Y-99300800D01*
X138498707Y-99300800D01*
X138450369Y-99283207D01*
X138445545Y-99278786D01*
X138071524Y-98904764D01*
X138049786Y-98858146D01*
X138049500Y-98851592D01*
X138049499Y-97499241D01*
X138049499Y-97495544D01*
X138040628Y-97450942D01*
X138006834Y-97400366D01*
X137987669Y-97387560D01*
X137962417Y-97370687D01*
X137962416Y-97370686D01*
X137956258Y-97366572D01*
X137911657Y-97357700D01*
X137071214Y-97357700D01*
X136230544Y-97357701D01*
X136185942Y-97366572D01*
X136135366Y-97400366D01*
X136131252Y-97406523D01*
X136108224Y-97440987D01*
X136101572Y-97450942D01*
X136092700Y-97495543D01*
X136092701Y-99176656D01*
X136101572Y-99221258D01*
X136135366Y-99271834D01*
X136141523Y-99275948D01*
X136179783Y-99301513D01*
X136179784Y-99301514D01*
X136185942Y-99305628D01*
X136230543Y-99314500D01*
X136377687Y-99314500D01*
X137586592Y-99314499D01*
X137634930Y-99332092D01*
X137639766Y-99336525D01*
X138086018Y-99782777D01*
X138089662Y-99786998D01*
X138091755Y-99791280D01*
X138096844Y-99796001D01*
X138096845Y-99796002D01*
X138128955Y-99825788D01*
X138130987Y-99827746D01*
X138145297Y-99842056D01*
X138148158Y-99844018D01*
X138150823Y-99846233D01*
X138150705Y-99846375D01*
X138153935Y-99848960D01*
X138175137Y-99868628D01*
X138181584Y-99871200D01*
X138181587Y-99871202D01*
X138188624Y-99874009D01*
X138203294Y-99881842D01*
X138215268Y-99890056D01*
X138222021Y-99891659D01*
X138222022Y-99891659D01*
X138243411Y-99896735D01*
X138253902Y-99900053D01*
X138280773Y-99910773D01*
X138287168Y-99911400D01*
X138296406Y-99911400D01*
X138313771Y-99913432D01*
X138325927Y-99916317D01*
X138332805Y-99915381D01*
X138332806Y-99915381D01*
X138357009Y-99912087D01*
X138367150Y-99911400D01*
X138565762Y-99911400D01*
X138614100Y-99928993D01*
X138639820Y-99973542D01*
X138639517Y-100001271D01*
X138633624Y-100030896D01*
X138632700Y-100035543D01*
X138632700Y-100495600D01*
X138615107Y-100543938D01*
X138570558Y-100569658D01*
X138557500Y-100570800D01*
X138124699Y-100570800D01*
X138076361Y-100553207D01*
X138050641Y-100508658D01*
X138049499Y-100495600D01*
X138049499Y-100035544D01*
X138040628Y-99990942D01*
X138006834Y-99940366D01*
X137989813Y-99928993D01*
X137962417Y-99910687D01*
X137962416Y-99910686D01*
X137956258Y-99906572D01*
X137911657Y-99897700D01*
X137071214Y-99897700D01*
X136230544Y-99897701D01*
X136185942Y-99906572D01*
X136135366Y-99940366D01*
X136101572Y-99990942D01*
X136100127Y-99998206D01*
X136098090Y-100008449D01*
X136092700Y-100035543D01*
X136092701Y-101716656D01*
X136101572Y-101761258D01*
X136135366Y-101811834D01*
X136141523Y-101815948D01*
X136179783Y-101841513D01*
X136179784Y-101841514D01*
X136185942Y-101845628D01*
X136230543Y-101854500D01*
X137070986Y-101854500D01*
X137911656Y-101854499D01*
X137956258Y-101845628D01*
X138006834Y-101811834D01*
X138011935Y-101804200D01*
X138036513Y-101767417D01*
X138036514Y-101767416D01*
X138040628Y-101761258D01*
X138049500Y-101716657D01*
X138049500Y-101256600D01*
X138067093Y-101208262D01*
X138111642Y-101182542D01*
X138124700Y-101181400D01*
X138557501Y-101181400D01*
X138605839Y-101198993D01*
X138631559Y-101243542D01*
X138632701Y-101256600D01*
X138632701Y-101716656D01*
X138641572Y-101761258D01*
X138675366Y-101811834D01*
X138681523Y-101815948D01*
X138719783Y-101841513D01*
X138719784Y-101841514D01*
X138725942Y-101845628D01*
X138770543Y-101854500D01*
X138917687Y-101854500D01*
X140126592Y-101854499D01*
X140174930Y-101872092D01*
X140179766Y-101876525D01*
X141188774Y-102885534D01*
X141210514Y-102932154D01*
X141210800Y-102938708D01*
X141210800Y-103678160D01*
X141210392Y-103683719D01*
X141208844Y-103688228D01*
X141209303Y-103700456D01*
X141210747Y-103738915D01*
X141210800Y-103741736D01*
X141210800Y-103761993D01*
X141211434Y-103765397D01*
X141211753Y-103768849D01*
X141211581Y-103768865D01*
X141212026Y-103772983D01*
X141212850Y-103794943D01*
X141212851Y-103794946D01*
X141213111Y-103801882D01*
X141215852Y-103808261D01*
X141215852Y-103808263D01*
X141218842Y-103815223D01*
X141223676Y-103831135D01*
X141225064Y-103838584D01*
X141226336Y-103845411D01*
X141229978Y-103851320D01*
X141229979Y-103851322D01*
X141241513Y-103870034D01*
X141246591Y-103879810D01*
X141255908Y-103901497D01*
X141255910Y-103901500D01*
X141258006Y-103906379D01*
X141262085Y-103911344D01*
X141268616Y-103917875D01*
X141279457Y-103931589D01*
X141286015Y-103942228D01*
X141284266Y-103943306D01*
X141300067Y-103982017D01*
X141284347Y-104030996D01*
X141240822Y-104058411D01*
X141221251Y-104060021D01*
X141220525Y-104059985D01*
X141213772Y-104058383D01*
X141206894Y-104059319D01*
X141182691Y-104062613D01*
X141172550Y-104063300D01*
X140721207Y-104063300D01*
X140672869Y-104045707D01*
X140668033Y-104041274D01*
X140611526Y-103984767D01*
X140589786Y-103938147D01*
X140589500Y-103931593D01*
X140589499Y-102579241D01*
X140589499Y-102575544D01*
X140580628Y-102530942D01*
X140546834Y-102480366D01*
X140502418Y-102450688D01*
X140502416Y-102450686D01*
X140496258Y-102446572D01*
X140451657Y-102437700D01*
X139611214Y-102437700D01*
X138770544Y-102437701D01*
X138725942Y-102446572D01*
X138675366Y-102480366D01*
X138671252Y-102486523D01*
X138649114Y-102519655D01*
X138641572Y-102530942D01*
X138640127Y-102538206D01*
X138635848Y-102559720D01*
X138632700Y-102575543D01*
X138632701Y-104256656D01*
X138641572Y-104301258D01*
X138675366Y-104351834D01*
X138681523Y-104355948D01*
X138719783Y-104381513D01*
X138719784Y-104381514D01*
X138725942Y-104385628D01*
X138770543Y-104394500D01*
X138917687Y-104394500D01*
X140126592Y-104394499D01*
X140174930Y-104412092D01*
X140179766Y-104416525D01*
X140293827Y-104530586D01*
X140315567Y-104577206D01*
X140302253Y-104626893D01*
X140260116Y-104656398D01*
X140240653Y-104658960D01*
X140119259Y-104658960D01*
X140109102Y-104662657D01*
X140106000Y-104668029D01*
X140106000Y-106098181D01*
X140109697Y-106108338D01*
X140115069Y-106111440D01*
X141519820Y-106111440D01*
X141529977Y-106107743D01*
X141533079Y-106102371D01*
X141533079Y-105951386D01*
X141550672Y-105903048D01*
X141595221Y-105877328D01*
X141645879Y-105886261D01*
X141661453Y-105898212D01*
X144118518Y-108355277D01*
X144122162Y-108359498D01*
X144124255Y-108363780D01*
X144129344Y-108368501D01*
X144129345Y-108368502D01*
X144161455Y-108398288D01*
X144163487Y-108400246D01*
X144177797Y-108414556D01*
X144180658Y-108416518D01*
X144183323Y-108418733D01*
X144183205Y-108418875D01*
X144186435Y-108421460D01*
X144207637Y-108441128D01*
X144214084Y-108443700D01*
X144214087Y-108443702D01*
X144221124Y-108446509D01*
X144235794Y-108454342D01*
X144247768Y-108462556D01*
X144254521Y-108464159D01*
X144254522Y-108464159D01*
X144275911Y-108469235D01*
X144286402Y-108472553D01*
X144313273Y-108483273D01*
X144319668Y-108483900D01*
X144328906Y-108483900D01*
X144346271Y-108485932D01*
X144358427Y-108488817D01*
X144389508Y-108484587D01*
X144399647Y-108483900D01*
X144850993Y-108483900D01*
X144899331Y-108501493D01*
X144904167Y-108505926D01*
X145092703Y-108694462D01*
X145114443Y-108741082D01*
X145101129Y-108790769D01*
X145058992Y-108820274D01*
X145035857Y-108822746D01*
X145030524Y-108822485D01*
X145023772Y-108820883D01*
X145016894Y-108821819D01*
X144992691Y-108825113D01*
X144982550Y-108825800D01*
X138396540Y-108825800D01*
X138390981Y-108825392D01*
X138386472Y-108823844D01*
X138335785Y-108825747D01*
X138332964Y-108825800D01*
X138312707Y-108825800D01*
X138309303Y-108826434D01*
X138305851Y-108826753D01*
X138305835Y-108826581D01*
X138301717Y-108827026D01*
X138279757Y-108827850D01*
X138279754Y-108827851D01*
X138272818Y-108828111D01*
X138266439Y-108830852D01*
X138266437Y-108830852D01*
X138259477Y-108833842D01*
X138243565Y-108838676D01*
X138236116Y-108840064D01*
X138236114Y-108840065D01*
X138229289Y-108841336D01*
X138223380Y-108844978D01*
X138223378Y-108844979D01*
X138204666Y-108856513D01*
X138194890Y-108861591D01*
X138173200Y-108870909D01*
X138173195Y-108870912D01*
X138168321Y-108873006D01*
X138163356Y-108877084D01*
X138156822Y-108883618D01*
X138143110Y-108894458D01*
X138132472Y-108901015D01*
X138125278Y-108910476D01*
X138113486Y-108925983D01*
X138106801Y-108933639D01*
X137860373Y-109180067D01*
X137813753Y-109201807D01*
X137764066Y-109188493D01*
X137734561Y-109146356D01*
X137731999Y-109126893D01*
X137731999Y-108933398D01*
X137752068Y-108882255D01*
X137755798Y-108878234D01*
X137757734Y-108876226D01*
X137772057Y-108861903D01*
X137774018Y-108859045D01*
X137776233Y-108856379D01*
X137776378Y-108856499D01*
X137778963Y-108853262D01*
X137784638Y-108847144D01*
X137798628Y-108832063D01*
X137804008Y-108818579D01*
X137811842Y-108803906D01*
X137816130Y-108797655D01*
X137820056Y-108791932D01*
X137821953Y-108783942D01*
X137826734Y-108763793D01*
X137830056Y-108753289D01*
X137838805Y-108731359D01*
X137840773Y-108726427D01*
X137841400Y-108720032D01*
X137841400Y-108710792D01*
X137843432Y-108693428D01*
X137846317Y-108681272D01*
X137844451Y-108667557D01*
X137842087Y-108650191D01*
X137841400Y-108640050D01*
X137841400Y-107951699D01*
X137858993Y-107903361D01*
X137903542Y-107877641D01*
X137916600Y-107876499D01*
X138251156Y-107876499D01*
X138295758Y-107867628D01*
X138346334Y-107833834D01*
X138346335Y-107833833D01*
X138389127Y-107813878D01*
X138438814Y-107827192D01*
X138448808Y-107835570D01*
X138465639Y-107852371D01*
X138475622Y-107859492D01*
X138570915Y-107906072D01*
X138581929Y-107909476D01*
X138642588Y-107918326D01*
X138648021Y-107918720D01*
X139737941Y-107918720D01*
X139748098Y-107915023D01*
X139751200Y-107909651D01*
X139751200Y-107905460D01*
X140106000Y-107905460D01*
X140109697Y-107915617D01*
X140115069Y-107918719D01*
X141209160Y-107918719D01*
X141214629Y-107918318D01*
X141275864Y-107909305D01*
X141286889Y-107905879D01*
X141382097Y-107859135D01*
X141392062Y-107852001D01*
X141466731Y-107777200D01*
X141473852Y-107767218D01*
X141520432Y-107671925D01*
X141523836Y-107660911D01*
X141532686Y-107600252D01*
X141533080Y-107594819D01*
X141533080Y-106479499D01*
X141529383Y-106469342D01*
X141524011Y-106466240D01*
X140119259Y-106466240D01*
X140109102Y-106469937D01*
X140106000Y-106475309D01*
X140106000Y-107905460D01*
X139751200Y-107905460D01*
X139751200Y-106479499D01*
X139747503Y-106469342D01*
X139742131Y-106466240D01*
X138337379Y-106466240D01*
X138327222Y-106469937D01*
X138324120Y-106475309D01*
X138324120Y-106495500D01*
X138306527Y-106543838D01*
X138261978Y-106569558D01*
X138248920Y-106570700D01*
X137712033Y-106570700D01*
X136821044Y-106570701D01*
X136776442Y-106579572D01*
X136725866Y-106613366D01*
X136721752Y-106619523D01*
X136696262Y-106657672D01*
X136692072Y-106663942D01*
X136683200Y-106708543D01*
X136683201Y-107738656D01*
X136692072Y-107783258D01*
X136725866Y-107833834D01*
X136732023Y-107837948D01*
X136770283Y-107863513D01*
X136770284Y-107863514D01*
X136776442Y-107867628D01*
X136821043Y-107876500D01*
X137155600Y-107876500D01*
X137203938Y-107894093D01*
X137229658Y-107938642D01*
X137230800Y-107951700D01*
X137230800Y-108395000D01*
X137213207Y-108443338D01*
X137168658Y-108469058D01*
X137155600Y-108470200D01*
X135974792Y-108470201D01*
X135913044Y-108470201D01*
X135868442Y-108479072D01*
X135817866Y-108512866D01*
X135784072Y-108563442D01*
X135775200Y-108608043D01*
X135775201Y-110289156D01*
X135784072Y-110333758D01*
X135817866Y-110384334D01*
X135824023Y-110388448D01*
X135862283Y-110414013D01*
X135862284Y-110414014D01*
X135868442Y-110418128D01*
X135913043Y-110427000D01*
X136753486Y-110427000D01*
X137594156Y-110426999D01*
X137628431Y-110420182D01*
X137679272Y-110428008D01*
X137713188Y-110466683D01*
X137718300Y-110493937D01*
X137718300Y-110560993D01*
X137700707Y-110609331D01*
X137696286Y-110614155D01*
X137322264Y-110988176D01*
X137275646Y-111009914D01*
X137269092Y-111010200D01*
X136060223Y-111010201D01*
X135913044Y-111010201D01*
X135868442Y-111019072D01*
X135817866Y-111052866D01*
X135784072Y-111103442D01*
X135775200Y-111148043D01*
X135775201Y-112829156D01*
X135784072Y-112873758D01*
X135817866Y-112924334D01*
X135824023Y-112928448D01*
X135862283Y-112954013D01*
X135862284Y-112954014D01*
X135868442Y-112958128D01*
X135875706Y-112959573D01*
X135898535Y-112964114D01*
X135913043Y-112967000D01*
X136753486Y-112967000D01*
X137594156Y-112966999D01*
X137638758Y-112958128D01*
X137689334Y-112924334D01*
X137696565Y-112913512D01*
X137719013Y-112879917D01*
X137719014Y-112879916D01*
X137723128Y-112873758D01*
X137732000Y-112829157D01*
X137731999Y-111473108D01*
X137749592Y-111424770D01*
X137754025Y-111419934D01*
X138200277Y-110973682D01*
X138204498Y-110970038D01*
X138208780Y-110967945D01*
X138219556Y-110956329D01*
X138243288Y-110930745D01*
X138245246Y-110928713D01*
X138259556Y-110914403D01*
X138261518Y-110911542D01*
X138263733Y-110908877D01*
X138263875Y-110908995D01*
X138266460Y-110905765D01*
X138281405Y-110889654D01*
X138286128Y-110884563D01*
X138288700Y-110878116D01*
X138288702Y-110878113D01*
X138291509Y-110871076D01*
X138299342Y-110856406D01*
X138307556Y-110844432D01*
X138314235Y-110816289D01*
X138317553Y-110805798D01*
X138328273Y-110778927D01*
X138328900Y-110772532D01*
X138328900Y-110763294D01*
X138330932Y-110745930D01*
X138332214Y-110740527D01*
X138333817Y-110733773D01*
X138329587Y-110702691D01*
X138328900Y-110692550D01*
X138328900Y-109606208D01*
X138346493Y-109557870D01*
X138350926Y-109553033D01*
X138445535Y-109458425D01*
X138492155Y-109436686D01*
X138498709Y-109436400D01*
X141151734Y-109436400D01*
X141200072Y-109453993D01*
X141225792Y-109498542D01*
X141216859Y-109549200D01*
X141212533Y-109555855D01*
X141203884Y-109567738D01*
X141196107Y-109578422D01*
X141182403Y-109601183D01*
X141181142Y-109607642D01*
X141181141Y-109607644D01*
X141176859Y-109629572D01*
X141167284Y-109678609D01*
X141170828Y-109729927D01*
X141174961Y-109756167D01*
X141178146Y-109761924D01*
X141198533Y-109798780D01*
X141206536Y-109849593D01*
X141180004Y-109893663D01*
X141132730Y-109910380D01*
X138809290Y-109910381D01*
X138663864Y-109910381D01*
X138619262Y-109919252D01*
X138568686Y-109953046D01*
X138534892Y-110003622D01*
X138526020Y-110048223D01*
X138526021Y-112628496D01*
X138534892Y-112673098D01*
X138568686Y-112723674D01*
X138574843Y-112727788D01*
X138613103Y-112753353D01*
X138613104Y-112753354D01*
X138619262Y-112757468D01*
X138663863Y-112766340D01*
X138667558Y-112766340D01*
X138668746Y-112766457D01*
X138715127Y-112788704D01*
X138736356Y-112835559D01*
X138726931Y-112877001D01*
X138726607Y-112877424D01*
X138708301Y-112921618D01*
X138707581Y-112925236D01*
X138707581Y-112925237D01*
X138697814Y-112974338D01*
X138696700Y-112979940D01*
X138696700Y-113894100D01*
X138679107Y-113942438D01*
X138634558Y-113968158D01*
X138621500Y-113969300D01*
X137807199Y-113969300D01*
X137758861Y-113951707D01*
X137733141Y-113907158D01*
X137731999Y-113894100D01*
X137731999Y-113688044D01*
X137723128Y-113643442D01*
X137689334Y-113592866D01*
X137644918Y-113563188D01*
X137644916Y-113563186D01*
X137638758Y-113559072D01*
X137594157Y-113550200D01*
X136753714Y-113550200D01*
X135913044Y-113550201D01*
X135868442Y-113559072D01*
X135817866Y-113592866D01*
X135784072Y-113643442D01*
X135775200Y-113688043D01*
X135775200Y-114148100D01*
X135757607Y-114196438D01*
X135713058Y-114222158D01*
X135700000Y-114223300D01*
X135323708Y-114223300D01*
X135275370Y-114205707D01*
X135270534Y-114201274D01*
X135175926Y-114106666D01*
X135154186Y-114060046D01*
X135153900Y-114053492D01*
X135153900Y-107001700D01*
X135171493Y-106953362D01*
X135216042Y-106927642D01*
X135229100Y-106926500D01*
X136009112Y-106926499D01*
X136051156Y-106926499D01*
X136095758Y-106917628D01*
X136146334Y-106883834D01*
X136180128Y-106833258D01*
X136189000Y-106788657D01*
X136188999Y-105854480D01*
X136481301Y-105854480D01*
X136481702Y-105859949D01*
X136490715Y-105921184D01*
X136494141Y-105932209D01*
X136540885Y-106027417D01*
X136548019Y-106037382D01*
X136622820Y-106112051D01*
X136632802Y-106119172D01*
X136728095Y-106165752D01*
X136739109Y-106169156D01*
X136799768Y-106178006D01*
X136805201Y-106178400D01*
X137345441Y-106178400D01*
X137355598Y-106174703D01*
X137358700Y-106169331D01*
X137358700Y-105514259D01*
X137355003Y-105504102D01*
X137349631Y-105501000D01*
X136494560Y-105501000D01*
X136484403Y-105504697D01*
X136481301Y-105510069D01*
X136481301Y-105854480D01*
X136188999Y-105854480D01*
X136188999Y-105758544D01*
X136180128Y-105713942D01*
X136146334Y-105663366D01*
X136132317Y-105654000D01*
X136101917Y-105633687D01*
X136101916Y-105633686D01*
X136095758Y-105629572D01*
X136051157Y-105620700D01*
X135336197Y-105620700D01*
X134621044Y-105620701D01*
X134576442Y-105629572D01*
X134525866Y-105663366D01*
X134521752Y-105669523D01*
X134500380Y-105701509D01*
X134492072Y-105713942D01*
X134490627Y-105721206D01*
X134485900Y-105744972D01*
X134483200Y-105758543D01*
X133540100Y-105758543D01*
X133540100Y-104272480D01*
X135890801Y-104272480D01*
X135891202Y-104277949D01*
X135900215Y-104339184D01*
X135903641Y-104350209D01*
X135950385Y-104445417D01*
X135957519Y-104455382D01*
X136032320Y-104530051D01*
X136042302Y-104537172D01*
X136137595Y-104583752D01*
X136148609Y-104587156D01*
X136209268Y-104596006D01*
X136214701Y-104596400D01*
X136431750Y-104596400D01*
X136480088Y-104613993D01*
X136505808Y-104658542D01*
X136499311Y-104704624D01*
X136493947Y-104715597D01*
X136490544Y-104726609D01*
X136481694Y-104787268D01*
X136481300Y-104792701D01*
X136481300Y-105132941D01*
X136484997Y-105143098D01*
X136490369Y-105146200D01*
X137638300Y-105146200D01*
X137686638Y-105163793D01*
X137712358Y-105208342D01*
X137713500Y-105221400D01*
X137713500Y-106165140D01*
X137717197Y-106175297D01*
X137722569Y-106178399D01*
X138266975Y-106178399D01*
X138271231Y-106178088D01*
X138279979Y-106173363D01*
X138285090Y-106159919D01*
X138318711Y-106120987D01*
X138355382Y-106111440D01*
X139737941Y-106111440D01*
X139748098Y-106107743D01*
X139751200Y-106102371D01*
X139751200Y-104672220D01*
X139747503Y-104662063D01*
X139742131Y-104658961D01*
X138648040Y-104658961D01*
X138642573Y-104659361D01*
X138611212Y-104663978D01*
X138560827Y-104653612D01*
X138532755Y-104622718D01*
X138531313Y-104619781D01*
X138524181Y-104609818D01*
X138449380Y-104535149D01*
X138439398Y-104528028D01*
X138344105Y-104481448D01*
X138333091Y-104478044D01*
X138288379Y-104471521D01*
X138243088Y-104447134D01*
X138224068Y-104399340D01*
X138231674Y-104364086D01*
X138238752Y-104349606D01*
X138242156Y-104338591D01*
X138251006Y-104277932D01*
X138251400Y-104272499D01*
X138251400Y-103606759D01*
X138247703Y-103596602D01*
X138242331Y-103593500D01*
X135904060Y-103593500D01*
X135893903Y-103597197D01*
X135890801Y-103602569D01*
X135890801Y-104272480D01*
X133540100Y-104272480D01*
X133540100Y-103225441D01*
X135890800Y-103225441D01*
X135894497Y-103235598D01*
X135899869Y-103238700D01*
X136880441Y-103238700D01*
X136890598Y-103235003D01*
X136893700Y-103229631D01*
X136893700Y-103225441D01*
X137248500Y-103225441D01*
X137252197Y-103235598D01*
X137257569Y-103238700D01*
X138238140Y-103238700D01*
X138248297Y-103235003D01*
X138251399Y-103229631D01*
X138251399Y-102559720D01*
X138250998Y-102554251D01*
X138241985Y-102493016D01*
X138238559Y-102481991D01*
X138191815Y-102386783D01*
X138184681Y-102376818D01*
X138109880Y-102302149D01*
X138099898Y-102295028D01*
X138004605Y-102248448D01*
X137993591Y-102245044D01*
X137932932Y-102236194D01*
X137927499Y-102235800D01*
X137261759Y-102235800D01*
X137251602Y-102239497D01*
X137248500Y-102244869D01*
X137248500Y-103225441D01*
X136893700Y-103225441D01*
X136893700Y-102249060D01*
X136890003Y-102238903D01*
X136884631Y-102235801D01*
X136214720Y-102235801D01*
X136209251Y-102236202D01*
X136148016Y-102245215D01*
X136136991Y-102248641D01*
X136041783Y-102295385D01*
X136031818Y-102302519D01*
X135957149Y-102377320D01*
X135950028Y-102387302D01*
X135903448Y-102482595D01*
X135900044Y-102493609D01*
X135891194Y-102554268D01*
X135890800Y-102559701D01*
X135890800Y-103225441D01*
X133540100Y-103225441D01*
X133540100Y-92207480D01*
X147003301Y-92207480D01*
X147003702Y-92212949D01*
X147012715Y-92274184D01*
X147016141Y-92285209D01*
X147062885Y-92380417D01*
X147070019Y-92390382D01*
X147144820Y-92465051D01*
X147154802Y-92472172D01*
X147250095Y-92518752D01*
X147261109Y-92522156D01*
X147321768Y-92531006D01*
X147327201Y-92531400D01*
X147992941Y-92531400D01*
X148003098Y-92527703D01*
X148006200Y-92522331D01*
X148006200Y-91541759D01*
X148002503Y-91531602D01*
X147997131Y-91528500D01*
X147016560Y-91528500D01*
X147006403Y-91532197D01*
X147003301Y-91537569D01*
X147003301Y-92207480D01*
X133540100Y-92207480D01*
X133540100Y-91160441D01*
X147003300Y-91160441D01*
X147006997Y-91170598D01*
X147012369Y-91173700D01*
X147992941Y-91173700D01*
X148003098Y-91170003D01*
X148006200Y-91164631D01*
X148006200Y-90184060D01*
X148002503Y-90173903D01*
X147997131Y-90170801D01*
X147327220Y-90170801D01*
X147321751Y-90171202D01*
X147260516Y-90180215D01*
X147249491Y-90183641D01*
X147154283Y-90230385D01*
X147144318Y-90237519D01*
X147069649Y-90312320D01*
X147062528Y-90322302D01*
X147015948Y-90417595D01*
X147012544Y-90428609D01*
X147003694Y-90489268D01*
X147003300Y-90494701D01*
X147003300Y-91160441D01*
X133540100Y-91160441D01*
X133540100Y-90449800D01*
X142769121Y-90449800D01*
X142769522Y-90455269D01*
X142778535Y-90516504D01*
X142781961Y-90527529D01*
X142828705Y-90622737D01*
X142835839Y-90632702D01*
X142910640Y-90707371D01*
X142920622Y-90714492D01*
X143015915Y-90761072D01*
X143026929Y-90764476D01*
X143087588Y-90773326D01*
X143093021Y-90773720D01*
X144182941Y-90773720D01*
X144193098Y-90770023D01*
X144196200Y-90764651D01*
X144196200Y-90760460D01*
X144551000Y-90760460D01*
X144554697Y-90770617D01*
X144560069Y-90773719D01*
X145654160Y-90773719D01*
X145659629Y-90773318D01*
X145720864Y-90764305D01*
X145731889Y-90760879D01*
X145827097Y-90714135D01*
X145837062Y-90707001D01*
X145911731Y-90632200D01*
X145918852Y-90622218D01*
X145965432Y-90526925D01*
X145968836Y-90515911D01*
X145977686Y-90455252D01*
X145978080Y-90449819D01*
X145978080Y-89667480D01*
X147003301Y-89667480D01*
X147003702Y-89672949D01*
X147012715Y-89734184D01*
X147016141Y-89745209D01*
X147062885Y-89840417D01*
X147070019Y-89850382D01*
X147144820Y-89925051D01*
X147154802Y-89932172D01*
X147250095Y-89978752D01*
X147261109Y-89982156D01*
X147321768Y-89991006D01*
X147327201Y-89991400D01*
X147992941Y-89991400D01*
X148003098Y-89987703D01*
X148006200Y-89982331D01*
X148006200Y-89001759D01*
X148002503Y-88991602D01*
X147997131Y-88988500D01*
X147016560Y-88988500D01*
X147006403Y-88992197D01*
X147003301Y-88997569D01*
X147003301Y-89667480D01*
X145978080Y-89667480D01*
X145978080Y-89334499D01*
X145974383Y-89324342D01*
X145969011Y-89321240D01*
X144564259Y-89321240D01*
X144554102Y-89324937D01*
X144551000Y-89330309D01*
X144551000Y-90760460D01*
X144196200Y-90760460D01*
X144196200Y-89334499D01*
X144192503Y-89324342D01*
X144187131Y-89321240D01*
X142782380Y-89321240D01*
X142772223Y-89324937D01*
X142769121Y-89330309D01*
X142769121Y-90449800D01*
X133540100Y-90449800D01*
X133540100Y-88953181D01*
X142769120Y-88953181D01*
X142772817Y-88963338D01*
X142778189Y-88966440D01*
X144182941Y-88966440D01*
X144193098Y-88962743D01*
X144196200Y-88957371D01*
X144196200Y-88953181D01*
X144551000Y-88953181D01*
X144554697Y-88963338D01*
X144560069Y-88966440D01*
X145964820Y-88966440D01*
X145974977Y-88962743D01*
X145978079Y-88957371D01*
X145978079Y-88620441D01*
X147003300Y-88620441D01*
X147006997Y-88630598D01*
X147012369Y-88633700D01*
X147992941Y-88633700D01*
X148003098Y-88630003D01*
X148006200Y-88624631D01*
X148006200Y-87644060D01*
X148002503Y-87633903D01*
X147997131Y-87630801D01*
X147327220Y-87630801D01*
X147321751Y-87631202D01*
X147260516Y-87640215D01*
X147249491Y-87643641D01*
X147154283Y-87690385D01*
X147144318Y-87697519D01*
X147069649Y-87772320D01*
X147062528Y-87782302D01*
X147015948Y-87877595D01*
X147012544Y-87888609D01*
X147003694Y-87949268D01*
X147003300Y-87954701D01*
X147003300Y-88620441D01*
X145978079Y-88620441D01*
X145978079Y-87837880D01*
X145977678Y-87832411D01*
X145968665Y-87771176D01*
X145965239Y-87760151D01*
X145918495Y-87664943D01*
X145911361Y-87654978D01*
X145836560Y-87580309D01*
X145826578Y-87573188D01*
X145731285Y-87526608D01*
X145720271Y-87523204D01*
X145659612Y-87514354D01*
X145654179Y-87513960D01*
X144564259Y-87513960D01*
X144554102Y-87517657D01*
X144551000Y-87523029D01*
X144551000Y-88953181D01*
X144196200Y-88953181D01*
X144196200Y-87527220D01*
X144192503Y-87517063D01*
X144187131Y-87513961D01*
X143093040Y-87513961D01*
X143087571Y-87514362D01*
X143026336Y-87523375D01*
X143015311Y-87526801D01*
X142920103Y-87573545D01*
X142910138Y-87580679D01*
X142835469Y-87655480D01*
X142828348Y-87665462D01*
X142781768Y-87760755D01*
X142778364Y-87771769D01*
X142769514Y-87832428D01*
X142769120Y-87837861D01*
X142769120Y-88953181D01*
X133540100Y-88953181D01*
X133540100Y-85037800D01*
X133557693Y-84989462D01*
X133602242Y-84963742D01*
X133615300Y-84962600D01*
X163386900Y-84962600D01*
X163435238Y-84980193D01*
G37*
%TD.AperFunction*%
%TA.AperFunction,Conductor*%
G36*
X144364648Y-105617200D02*
G01*
X144397063Y-105633716D01*
X144407545Y-105639057D01*
X144413392Y-105639983D01*
X144498974Y-105653538D01*
X144498976Y-105653538D01*
X144501892Y-105654000D01*
X145199909Y-105654000D01*
X145244913Y-105670258D01*
X145245364Y-105669602D01*
X145245396Y-105669624D01*
X145247237Y-105671098D01*
X145247887Y-105671333D01*
X145248158Y-105671519D01*
X145250823Y-105673733D01*
X145250705Y-105673875D01*
X145253935Y-105676460D01*
X145275137Y-105696128D01*
X145281584Y-105698700D01*
X145281587Y-105698702D01*
X145288624Y-105701509D01*
X145303294Y-105709342D01*
X145315268Y-105717556D01*
X145322021Y-105719159D01*
X145322022Y-105719159D01*
X145343411Y-105724235D01*
X145353902Y-105727553D01*
X145380773Y-105738273D01*
X145387168Y-105738900D01*
X145396406Y-105738900D01*
X145413771Y-105740932D01*
X145425927Y-105743817D01*
X145432805Y-105742881D01*
X145432806Y-105742881D01*
X145457009Y-105739587D01*
X145467150Y-105738900D01*
X145867955Y-105738900D01*
X145916293Y-105756493D01*
X145942013Y-105801042D01*
X145933080Y-105851700D01*
X145901097Y-105881603D01*
X145887283Y-105888385D01*
X145877318Y-105895519D01*
X145802649Y-105970320D01*
X145795528Y-105980302D01*
X145748948Y-106075595D01*
X145745544Y-106086609D01*
X145736694Y-106147268D01*
X145736300Y-106152701D01*
X145736300Y-106170341D01*
X145739997Y-106180498D01*
X145745369Y-106183600D01*
X146563000Y-106183600D01*
X146611338Y-106201193D01*
X146637058Y-106245742D01*
X146638200Y-106258800D01*
X146638200Y-106359528D01*
X146620607Y-106407866D01*
X146588720Y-106430193D01*
X146569202Y-106437297D01*
X146566100Y-106442669D01*
X146566100Y-106570341D01*
X146569797Y-106580498D01*
X146590642Y-106592533D01*
X146590226Y-106593254D01*
X146616173Y-106605353D01*
X146637914Y-106651973D01*
X146638200Y-106658529D01*
X146638201Y-107159528D01*
X146620608Y-107207866D01*
X146588720Y-107230193D01*
X146569202Y-107237297D01*
X146566100Y-107242669D01*
X146566100Y-107370341D01*
X146569797Y-107380498D01*
X146590642Y-107392533D01*
X146590226Y-107393254D01*
X146616174Y-107405353D01*
X146637915Y-107451973D01*
X146638201Y-107458529D01*
X146638201Y-107558400D01*
X146620608Y-107606738D01*
X146576059Y-107632458D01*
X146563001Y-107633600D01*
X146391300Y-107633600D01*
X146342962Y-107616007D01*
X146317242Y-107571458D01*
X146316100Y-107558400D01*
X146316100Y-107246859D01*
X146312403Y-107236702D01*
X146307031Y-107233600D01*
X145749560Y-107233600D01*
X145739403Y-107237297D01*
X145736301Y-107242669D01*
X145736301Y-107264480D01*
X145736702Y-107269950D01*
X145740758Y-107297509D01*
X145740772Y-107319315D01*
X145736300Y-107349970D01*
X145735294Y-107349823D01*
X145715683Y-107393528D01*
X145669384Y-107415944D01*
X145619509Y-107403354D01*
X145608567Y-107394307D01*
X145184601Y-106970341D01*
X145736300Y-106970341D01*
X145739997Y-106980498D01*
X145745369Y-106983600D01*
X146302841Y-106983600D01*
X146312998Y-106979903D01*
X146316100Y-106974531D01*
X146316100Y-106846859D01*
X146312403Y-106836702D01*
X146307031Y-106833600D01*
X145749560Y-106833600D01*
X145739403Y-106837297D01*
X145736301Y-106842669D01*
X145736301Y-106864480D01*
X145736702Y-106869950D01*
X145740758Y-106897509D01*
X145740772Y-106919315D01*
X145736695Y-106947265D01*
X145736300Y-106952701D01*
X145736300Y-106970341D01*
X145184601Y-106970341D01*
X144784601Y-106570341D01*
X145736300Y-106570341D01*
X145739997Y-106580498D01*
X145745369Y-106583600D01*
X146302841Y-106583600D01*
X146312998Y-106579903D01*
X146316100Y-106574531D01*
X146316100Y-106446859D01*
X146312403Y-106436702D01*
X146307031Y-106433600D01*
X145749560Y-106433600D01*
X145739403Y-106437297D01*
X145736301Y-106442669D01*
X145736301Y-106464480D01*
X145736702Y-106469950D01*
X145740758Y-106497509D01*
X145740772Y-106519315D01*
X145736695Y-106547265D01*
X145736300Y-106552701D01*
X145736300Y-106570341D01*
X144784601Y-106570341D01*
X144383426Y-106169166D01*
X144361686Y-106122546D01*
X144361400Y-106115992D01*
X144361400Y-106009032D01*
X144361808Y-106003476D01*
X144363355Y-105998971D01*
X144362659Y-105980413D01*
X144361453Y-105948299D01*
X144361400Y-105945478D01*
X144361400Y-105925207D01*
X144360765Y-105921797D01*
X144360447Y-105918353D01*
X144360624Y-105918337D01*
X144360174Y-105914217D01*
X144359350Y-105892257D01*
X144359349Y-105892254D01*
X144359089Y-105885318D01*
X144356306Y-105878839D01*
X144353358Y-105871977D01*
X144348524Y-105856065D01*
X144347136Y-105848616D01*
X144347135Y-105848614D01*
X144345864Y-105841789D01*
X144342222Y-105835880D01*
X144342221Y-105835878D01*
X144330687Y-105817166D01*
X144325609Y-105807390D01*
X144316292Y-105785703D01*
X144316290Y-105785700D01*
X144314194Y-105780821D01*
X144310115Y-105775856D01*
X144303584Y-105769325D01*
X144292743Y-105755611D01*
X144289829Y-105750883D01*
X144289828Y-105750882D01*
X144286185Y-105744972D01*
X144280658Y-105740769D01*
X144275995Y-105735627D01*
X144278246Y-105733586D01*
X144257157Y-105700778D01*
X144263663Y-105649752D01*
X144301446Y-105614845D01*
X144352827Y-105612392D01*
X144364648Y-105617200D01*
G37*
%TD.AperFunction*%
%TA.AperFunction,Conductor*%
G36*
X149389238Y-106201193D02*
G01*
X149414958Y-106245742D01*
X149416100Y-106258800D01*
X149416100Y-107558400D01*
X149398507Y-107606738D01*
X149353958Y-107632458D01*
X149340900Y-107633600D01*
X149169200Y-107633600D01*
X149120862Y-107616007D01*
X149095142Y-107571458D01*
X149094000Y-107558400D01*
X149094000Y-107457672D01*
X149111593Y-107409334D01*
X149143480Y-107387007D01*
X149162998Y-107379903D01*
X149166100Y-107374531D01*
X149166100Y-107246859D01*
X149162403Y-107236702D01*
X149141558Y-107224667D01*
X149141974Y-107223946D01*
X149116027Y-107211847D01*
X149094286Y-107165227D01*
X149094000Y-107158671D01*
X149093999Y-106657672D01*
X149111592Y-106609334D01*
X149143480Y-106587007D01*
X149162998Y-106579903D01*
X149166100Y-106574531D01*
X149166100Y-106446859D01*
X149162403Y-106436702D01*
X149141558Y-106424667D01*
X149141974Y-106423946D01*
X149116026Y-106411847D01*
X149094285Y-106365227D01*
X149093999Y-106358671D01*
X149093999Y-106258800D01*
X149111592Y-106210462D01*
X149156141Y-106184742D01*
X149169199Y-106183600D01*
X149340900Y-106183600D01*
X149389238Y-106201193D01*
G37*
%TD.AperFunction*%
%TA.AperFunction,Conductor*%
G36*
X147479238Y-105311193D02*
G01*
X147504958Y-105355742D01*
X147506100Y-105368800D01*
X147506100Y-105830501D01*
X147488507Y-105878839D01*
X147443958Y-105904559D01*
X147430900Y-105905701D01*
X147301300Y-105905701D01*
X147252962Y-105888108D01*
X147227242Y-105843559D01*
X147226100Y-105830501D01*
X147226100Y-105368800D01*
X147243693Y-105320462D01*
X147288242Y-105294742D01*
X147301300Y-105293600D01*
X147430900Y-105293600D01*
X147479238Y-105311193D01*
G37*
%TD.AperFunction*%
%TA.AperFunction,Conductor*%
G36*
X144794121Y-97642993D02*
G01*
X144798957Y-97647426D01*
X144939457Y-97787926D01*
X144961197Y-97834546D01*
X144947883Y-97884233D01*
X144905746Y-97913738D01*
X144886283Y-97916300D01*
X144841759Y-97916300D01*
X144831602Y-97919997D01*
X144828500Y-97925369D01*
X144828500Y-98780441D01*
X144832197Y-98790598D01*
X144837569Y-98793700D01*
X145505141Y-98793700D01*
X145515298Y-98790003D01*
X145518400Y-98784631D01*
X145518400Y-98548417D01*
X145535993Y-98500079D01*
X145580542Y-98474359D01*
X145631200Y-98483292D01*
X145646774Y-98495243D01*
X145873113Y-98721582D01*
X145875294Y-98723855D01*
X145915267Y-98767326D01*
X145915269Y-98767328D01*
X145918737Y-98771099D01*
X145923095Y-98773801D01*
X145958419Y-98795703D01*
X145964258Y-98799716D01*
X145985415Y-98815775D01*
X146001456Y-98827951D01*
X146006221Y-98829838D01*
X146006225Y-98829840D01*
X146020050Y-98835314D01*
X146031988Y-98841318D01*
X146048974Y-98851849D01*
X146053895Y-98853279D01*
X146053898Y-98853280D01*
X146093813Y-98864876D01*
X146100516Y-98867171D01*
X146105785Y-98869257D01*
X146143933Y-98884361D01*
X146163814Y-98886451D01*
X146176921Y-98889022D01*
X146196128Y-98894602D01*
X146202271Y-98895053D01*
X146205631Y-98895300D01*
X146205635Y-98895300D01*
X146206995Y-98895400D01*
X146245014Y-98895400D01*
X146252874Y-98895812D01*
X146296333Y-98900380D01*
X146301388Y-98899525D01*
X146301389Y-98899525D01*
X146319551Y-98896453D01*
X146332092Y-98895400D01*
X149099000Y-98895400D01*
X149147338Y-98912993D01*
X149173058Y-98957542D01*
X149174200Y-98970600D01*
X149174200Y-101046720D01*
X149156607Y-101095058D01*
X149152174Y-101099894D01*
X148398292Y-101853777D01*
X147649643Y-102602426D01*
X147647592Y-102605496D01*
X147628045Y-102634749D01*
X147586561Y-102665166D01*
X147535232Y-102661801D01*
X147496426Y-102622655D01*
X147491289Y-102610698D01*
X147489194Y-102605822D01*
X147485116Y-102600856D01*
X147478582Y-102594322D01*
X147467747Y-102580617D01*
X147466708Y-102578932D01*
X147456313Y-102528554D01*
X147457833Y-102522058D01*
X147459057Y-102519655D01*
X147463183Y-102493609D01*
X147473538Y-102428226D01*
X147473538Y-102428224D01*
X147474000Y-102425308D01*
X147474000Y-101861892D01*
X147459057Y-101767545D01*
X147401116Y-101653829D01*
X147310871Y-101563584D01*
X147197155Y-101505643D01*
X147163465Y-101500307D01*
X147105726Y-101491162D01*
X147105724Y-101491162D01*
X147102808Y-101490700D01*
X146089392Y-101490700D01*
X146086476Y-101491162D01*
X146086474Y-101491162D01*
X146028735Y-101500307D01*
X145995045Y-101505643D01*
X145881329Y-101563584D01*
X145791084Y-101653829D01*
X145733143Y-101767545D01*
X145718200Y-101861892D01*
X145718200Y-102186217D01*
X145700607Y-102234555D01*
X145656058Y-102260275D01*
X145633185Y-102260774D01*
X145525677Y-102246620D01*
X145520785Y-102246300D01*
X145199259Y-102246300D01*
X145189102Y-102249997D01*
X145186000Y-102255369D01*
X145186000Y-103942641D01*
X145189697Y-103952798D01*
X145195069Y-103955900D01*
X145520785Y-103955900D01*
X145525675Y-103955580D01*
X145636604Y-103940976D01*
X145646034Y-103938449D01*
X145784061Y-103881276D01*
X145792516Y-103876394D01*
X145832967Y-103845356D01*
X145882026Y-103829889D01*
X145924524Y-103845357D01*
X145964972Y-103876394D01*
X145998150Y-103901853D01*
X146036831Y-103917875D01*
X146128880Y-103956003D01*
X146128882Y-103956003D01*
X146133429Y-103957887D01*
X146138307Y-103958529D01*
X146138310Y-103958530D01*
X146273716Y-103976356D01*
X146278600Y-103976999D01*
X146283484Y-103976356D01*
X146418890Y-103958530D01*
X146418893Y-103958529D01*
X146423771Y-103957887D01*
X146428318Y-103956003D01*
X146428320Y-103956003D01*
X146520369Y-103917875D01*
X146559050Y-103901853D01*
X146675215Y-103812715D01*
X146764353Y-103696549D01*
X146781124Y-103656060D01*
X146815876Y-103618135D01*
X146866876Y-103611421D01*
X146910260Y-103639059D01*
X146925800Y-103684838D01*
X146925800Y-103995660D01*
X146925392Y-104001219D01*
X146923844Y-104005728D01*
X146925731Y-104055984D01*
X146925747Y-104056415D01*
X146925800Y-104059236D01*
X146925800Y-104079493D01*
X146926434Y-104082897D01*
X146926753Y-104086349D01*
X146926581Y-104086365D01*
X146927026Y-104090483D01*
X146927850Y-104112443D01*
X146927851Y-104112446D01*
X146928111Y-104119382D01*
X146930852Y-104125761D01*
X146930852Y-104125763D01*
X146933842Y-104132723D01*
X146938676Y-104148635D01*
X146940064Y-104156084D01*
X146941336Y-104162911D01*
X146944978Y-104168820D01*
X146944979Y-104168822D01*
X146956513Y-104187534D01*
X146961591Y-104197310D01*
X146970908Y-104218997D01*
X146970910Y-104219000D01*
X146973006Y-104223879D01*
X146977085Y-104228844D01*
X146983616Y-104235375D01*
X146994457Y-104249089D01*
X147001015Y-104259728D01*
X147025996Y-104278724D01*
X147033643Y-104285402D01*
X147273668Y-104525427D01*
X147295408Y-104572047D01*
X147282094Y-104621734D01*
X147239957Y-104651239D01*
X147220494Y-104653801D01*
X147195220Y-104653801D01*
X147189751Y-104654202D01*
X147128516Y-104663215D01*
X147117491Y-104666641D01*
X147022283Y-104713385D01*
X147012318Y-104720519D01*
X146937649Y-104795320D01*
X146930530Y-104805300D01*
X146926510Y-104813524D01*
X146889476Y-104849225D01*
X146858950Y-104855700D01*
X146717955Y-104855701D01*
X146711044Y-104855701D01*
X146666442Y-104864572D01*
X146615866Y-104898366D01*
X146611752Y-104904523D01*
X146591175Y-104935319D01*
X146582072Y-104948942D01*
X146573200Y-104993543D01*
X146573200Y-105053100D01*
X146555607Y-105101438D01*
X146511058Y-105127158D01*
X146498000Y-105128300D01*
X145961700Y-105128300D01*
X145913362Y-105110707D01*
X145887642Y-105066158D01*
X145886500Y-105053100D01*
X145886500Y-104719392D01*
X145877603Y-104663215D01*
X145872483Y-104630892D01*
X145871557Y-104625045D01*
X145820799Y-104525427D01*
X145816305Y-104516606D01*
X145816304Y-104516605D01*
X145813616Y-104511329D01*
X145723371Y-104421084D01*
X145714424Y-104416525D01*
X145645708Y-104381513D01*
X145609655Y-104363143D01*
X145569386Y-104356765D01*
X145518226Y-104348662D01*
X145518224Y-104348662D01*
X145515308Y-104348200D01*
X144501892Y-104348200D01*
X144498976Y-104348662D01*
X144498974Y-104348662D01*
X144447814Y-104356765D01*
X144407545Y-104363143D01*
X144371492Y-104381513D01*
X144302777Y-104416525D01*
X144293829Y-104421084D01*
X144203584Y-104511329D01*
X144200896Y-104516605D01*
X144200895Y-104516606D01*
X144196401Y-104525427D01*
X144145643Y-104625045D01*
X144144717Y-104630892D01*
X144139598Y-104663215D01*
X144130700Y-104719392D01*
X144130700Y-105282808D01*
X144145643Y-105377155D01*
X144148330Y-105382428D01*
X144148330Y-105382429D01*
X144173418Y-105431667D01*
X144179687Y-105482724D01*
X144151670Y-105525865D01*
X144102478Y-105540904D01*
X144053240Y-105518981D01*
X143959885Y-105425626D01*
X143938145Y-105379006D01*
X143941102Y-105353049D01*
X143941557Y-105352155D01*
X143943074Y-105342581D01*
X143956038Y-105260726D01*
X143956038Y-105260724D01*
X143956500Y-105257808D01*
X143956500Y-104669392D01*
X143955296Y-104661787D01*
X143942483Y-104580892D01*
X143941557Y-104575045D01*
X143896377Y-104486374D01*
X143886305Y-104466606D01*
X143886304Y-104466605D01*
X143883616Y-104461329D01*
X143793371Y-104371084D01*
X143783060Y-104365830D01*
X143740256Y-104344021D01*
X143679655Y-104313143D01*
X143643509Y-104307418D01*
X143588226Y-104298662D01*
X143588224Y-104298662D01*
X143585308Y-104298200D01*
X142621892Y-104298200D01*
X142618976Y-104298662D01*
X142618974Y-104298662D01*
X142606518Y-104300635D01*
X142565265Y-104307169D01*
X142514773Y-104297354D01*
X142500329Y-104286069D01*
X141843426Y-103629166D01*
X141821686Y-103582546D01*
X141821400Y-103575992D01*
X141821400Y-102836540D01*
X141821808Y-102830981D01*
X141823356Y-102826472D01*
X141821453Y-102775784D01*
X141821400Y-102772964D01*
X141821400Y-102752707D01*
X141820766Y-102749303D01*
X141820447Y-102745851D01*
X141820619Y-102745835D01*
X141820174Y-102741717D01*
X141819350Y-102719757D01*
X141819349Y-102719754D01*
X141819089Y-102712818D01*
X141816348Y-102706437D01*
X141813358Y-102699477D01*
X141808524Y-102683565D01*
X141807136Y-102676116D01*
X141807135Y-102676114D01*
X141805864Y-102669289D01*
X141802222Y-102663380D01*
X141802221Y-102663378D01*
X141790687Y-102644666D01*
X141785609Y-102634890D01*
X141776292Y-102613203D01*
X141776290Y-102613200D01*
X141774194Y-102608321D01*
X141770115Y-102603356D01*
X141763584Y-102596825D01*
X141752743Y-102583111D01*
X141749829Y-102578383D01*
X141749828Y-102578382D01*
X141746185Y-102572472D01*
X141721204Y-102553476D01*
X141713557Y-102546798D01*
X140611526Y-101444766D01*
X140589786Y-101398146D01*
X140589500Y-101391592D01*
X140589500Y-100977933D01*
X140589499Y-100562806D01*
X140607092Y-100514468D01*
X140651641Y-100488748D01*
X140702299Y-100497681D01*
X140717873Y-100509632D01*
X141186174Y-100977933D01*
X141207914Y-101024553D01*
X141208200Y-101031107D01*
X141208200Y-101357808D01*
X141223143Y-101452155D01*
X141281084Y-101565871D01*
X141371329Y-101656116D01*
X141485045Y-101714057D01*
X141490892Y-101714983D01*
X141576474Y-101728538D01*
X141576476Y-101728538D01*
X141579392Y-101729000D01*
X142167808Y-101729000D01*
X142170724Y-101728538D01*
X142170726Y-101728538D01*
X142256308Y-101714983D01*
X142262155Y-101714057D01*
X142375871Y-101656116D01*
X142466116Y-101565871D01*
X142524057Y-101452155D01*
X142539000Y-101357808D01*
X142539000Y-100394392D01*
X142524057Y-100300045D01*
X142466116Y-100186329D01*
X142375871Y-100096084D01*
X142262155Y-100038143D01*
X142216399Y-100030896D01*
X142170726Y-100023662D01*
X142170724Y-100023662D01*
X142167808Y-100023200D01*
X141579392Y-100023200D01*
X141576476Y-100023662D01*
X141576474Y-100023662D01*
X141530801Y-100030896D01*
X141485045Y-100038143D01*
X141371329Y-100096084D01*
X141322760Y-100144653D01*
X141276140Y-100166393D01*
X141226453Y-100153079D01*
X141216412Y-100144653D01*
X140881743Y-99809983D01*
X140501179Y-99429419D01*
X140497538Y-99425201D01*
X140495445Y-99420920D01*
X140490354Y-99416198D01*
X140486215Y-99410624D01*
X140488280Y-99409091D01*
X140469875Y-99373208D01*
X140481312Y-99323055D01*
X140502711Y-99301316D01*
X140521035Y-99289073D01*
X140562813Y-99276400D01*
X142085500Y-99276400D01*
X142133838Y-99293993D01*
X142159558Y-99338542D01*
X142160700Y-99351600D01*
X142160700Y-99452808D01*
X142161162Y-99455724D01*
X142161162Y-99455726D01*
X142170731Y-99516140D01*
X142175643Y-99547155D01*
X142189619Y-99574584D01*
X142219734Y-99633688D01*
X142233584Y-99660871D01*
X142323829Y-99751116D01*
X142329105Y-99753804D01*
X142329106Y-99753805D01*
X142335149Y-99756884D01*
X142437545Y-99809057D01*
X142443392Y-99809983D01*
X142528974Y-99823538D01*
X142528976Y-99823538D01*
X142531892Y-99824000D01*
X143120308Y-99824000D01*
X143123224Y-99823538D01*
X143123226Y-99823538D01*
X143208808Y-99809983D01*
X143214655Y-99809057D01*
X143321461Y-99754637D01*
X143372516Y-99748368D01*
X143415657Y-99776384D01*
X143430800Y-99821641D01*
X143430800Y-99954791D01*
X143413207Y-100003129D01*
X143367364Y-100029065D01*
X143310045Y-100038143D01*
X143196329Y-100096084D01*
X143106084Y-100186329D01*
X143048143Y-100300045D01*
X143033200Y-100394392D01*
X143033200Y-101116092D01*
X143015607Y-101164430D01*
X143011174Y-101169266D01*
X142926919Y-101253521D01*
X142922701Y-101257162D01*
X142918420Y-101259255D01*
X142883925Y-101296441D01*
X142881967Y-101298473D01*
X142867643Y-101312797D01*
X142865682Y-101315655D01*
X142863467Y-101318321D01*
X142863322Y-101318201D01*
X142860737Y-101321438D01*
X142841072Y-101342637D01*
X142838499Y-101349086D01*
X142835692Y-101356121D01*
X142827859Y-101370793D01*
X142819644Y-101382768D01*
X142818042Y-101389519D01*
X142818041Y-101389521D01*
X142812966Y-101410907D01*
X142809646Y-101421406D01*
X142798927Y-101448273D01*
X142798300Y-101454668D01*
X142798300Y-101463908D01*
X142796268Y-101481270D01*
X142793383Y-101493428D01*
X142794319Y-101500306D01*
X142794319Y-101500307D01*
X142797613Y-101524509D01*
X142798300Y-101534650D01*
X142798300Y-102398000D01*
X142780707Y-102446338D01*
X142736158Y-102472058D01*
X142723100Y-102473200D01*
X142621892Y-102473200D01*
X142618976Y-102473662D01*
X142618974Y-102473662D01*
X142602622Y-102476252D01*
X142527545Y-102488143D01*
X142477182Y-102513804D01*
X142429285Y-102538209D01*
X142413829Y-102546084D01*
X142323584Y-102636329D01*
X142265643Y-102750045D01*
X142264717Y-102755892D01*
X142251944Y-102836540D01*
X142250700Y-102844392D01*
X142250700Y-103432808D01*
X142251162Y-103435724D01*
X142251162Y-103435726D01*
X142252285Y-103442817D01*
X142265643Y-103527155D01*
X142268330Y-103532428D01*
X142312351Y-103618824D01*
X142323584Y-103640871D01*
X142413829Y-103731116D01*
X142419105Y-103733804D01*
X142419106Y-103733805D01*
X142466944Y-103758179D01*
X142527545Y-103789057D01*
X142533392Y-103789983D01*
X142618974Y-103803538D01*
X142618976Y-103803538D01*
X142621892Y-103804000D01*
X143585308Y-103804000D01*
X143588224Y-103803538D01*
X143588226Y-103803538D01*
X143673808Y-103789983D01*
X143679655Y-103789057D01*
X143740256Y-103758179D01*
X143788094Y-103733805D01*
X143788095Y-103733804D01*
X143793371Y-103731116D01*
X143883616Y-103640871D01*
X143884876Y-103642131D01*
X143921008Y-103617759D01*
X143972166Y-103623135D01*
X144004326Y-103653123D01*
X144008308Y-103660020D01*
X144099253Y-103778542D01*
X144106158Y-103785447D01*
X144224683Y-103876394D01*
X144233140Y-103881276D01*
X144371167Y-103938449D01*
X144380596Y-103940976D01*
X144491525Y-103955580D01*
X144496415Y-103955900D01*
X144817941Y-103955900D01*
X144828098Y-103952203D01*
X144831200Y-103946831D01*
X144831200Y-102259559D01*
X144827503Y-102249402D01*
X144822131Y-102246300D01*
X144496415Y-102246300D01*
X144491525Y-102246620D01*
X144380596Y-102261224D01*
X144371166Y-102263751D01*
X144233139Y-102320924D01*
X144224683Y-102325806D01*
X144106158Y-102416753D01*
X144099253Y-102423658D01*
X144008306Y-102542183D01*
X144003424Y-102550640D01*
X143986304Y-102591971D01*
X143951552Y-102629896D01*
X143900552Y-102636610D01*
X143863654Y-102616367D01*
X143793371Y-102546084D01*
X143777916Y-102538209D01*
X143730018Y-102513804D01*
X143679655Y-102488143D01*
X143604578Y-102476252D01*
X143588226Y-102473662D01*
X143588224Y-102473662D01*
X143585308Y-102473200D01*
X143484100Y-102473200D01*
X143435762Y-102455607D01*
X143410042Y-102411058D01*
X143408900Y-102398000D01*
X143408900Y-101804200D01*
X143426493Y-101755862D01*
X143471042Y-101730142D01*
X143484100Y-101729000D01*
X143992808Y-101729000D01*
X143995724Y-101728538D01*
X143995726Y-101728538D01*
X144081308Y-101714983D01*
X144087155Y-101714057D01*
X144200871Y-101656116D01*
X144291116Y-101565871D01*
X144349057Y-101452155D01*
X144364000Y-101357808D01*
X144364000Y-100530785D01*
X145516300Y-100530785D01*
X145516620Y-100535675D01*
X145531224Y-100646604D01*
X145533751Y-100656034D01*
X145590924Y-100794061D01*
X145595806Y-100802517D01*
X145686753Y-100921042D01*
X145693658Y-100927947D01*
X145812183Y-101018894D01*
X145820640Y-101023776D01*
X145958667Y-101080949D01*
X145968096Y-101083476D01*
X146079025Y-101098080D01*
X146083915Y-101098400D01*
X146405441Y-101098400D01*
X146415598Y-101094703D01*
X146418700Y-101089331D01*
X146418700Y-101085141D01*
X146773500Y-101085141D01*
X146777197Y-101095298D01*
X146782569Y-101098400D01*
X147108285Y-101098400D01*
X147113175Y-101098080D01*
X147224104Y-101083476D01*
X147233534Y-101080949D01*
X147371561Y-101023776D01*
X147380017Y-101018894D01*
X147498542Y-100927947D01*
X147505447Y-100921042D01*
X147596394Y-100802517D01*
X147601276Y-100794060D01*
X147658449Y-100656033D01*
X147660976Y-100646604D01*
X147675580Y-100535675D01*
X147675900Y-100530785D01*
X147675900Y-100434259D01*
X147672203Y-100424102D01*
X147666831Y-100421000D01*
X146786759Y-100421000D01*
X146776602Y-100424697D01*
X146773500Y-100430069D01*
X146773500Y-101085141D01*
X146418700Y-101085141D01*
X146418700Y-100434259D01*
X146415003Y-100424102D01*
X146409631Y-100421000D01*
X145529559Y-100421000D01*
X145519402Y-100424697D01*
X145516300Y-100430069D01*
X145516300Y-100530785D01*
X144364000Y-100530785D01*
X144364000Y-100394392D01*
X144349057Y-100300045D01*
X144291116Y-100186329D01*
X144254241Y-100149454D01*
X144232501Y-100102834D01*
X144245815Y-100053147D01*
X144287952Y-100023642D01*
X144317231Y-100021723D01*
X144346525Y-100025580D01*
X144351415Y-100025900D01*
X144460441Y-100025900D01*
X144470598Y-100022203D01*
X144473700Y-100016831D01*
X144473700Y-100012641D01*
X144828500Y-100012641D01*
X144832197Y-100022798D01*
X144837569Y-100025900D01*
X144950785Y-100025900D01*
X144955675Y-100025580D01*
X145066604Y-100010976D01*
X145076034Y-100008449D01*
X145214061Y-99951276D01*
X145222517Y-99946394D01*
X145341042Y-99855447D01*
X145347945Y-99848544D01*
X145397069Y-99784523D01*
X145440453Y-99756884D01*
X145491453Y-99763597D01*
X145526205Y-99801522D01*
X145531287Y-99840116D01*
X145516620Y-99951523D01*
X145516300Y-99956415D01*
X145516300Y-100052941D01*
X145519997Y-100063098D01*
X145525369Y-100066200D01*
X146405441Y-100066200D01*
X146415598Y-100062503D01*
X146418700Y-100057131D01*
X146418700Y-100052941D01*
X146773500Y-100052941D01*
X146777197Y-100063098D01*
X146782569Y-100066200D01*
X147662641Y-100066200D01*
X147672798Y-100062503D01*
X147675900Y-100057131D01*
X147675900Y-99956415D01*
X147675580Y-99951525D01*
X147660976Y-99840596D01*
X147658449Y-99831166D01*
X147601276Y-99693139D01*
X147596394Y-99684683D01*
X147505447Y-99566158D01*
X147498542Y-99559253D01*
X147380017Y-99468306D01*
X147371560Y-99463424D01*
X147233533Y-99406251D01*
X147224104Y-99403724D01*
X147113175Y-99389120D01*
X147108285Y-99388800D01*
X146786759Y-99388800D01*
X146776602Y-99392497D01*
X146773500Y-99397869D01*
X146773500Y-100052941D01*
X146418700Y-100052941D01*
X146418700Y-99402059D01*
X146415003Y-99391902D01*
X146409631Y-99388800D01*
X146083915Y-99388800D01*
X146079025Y-99389120D01*
X145968096Y-99403724D01*
X145958666Y-99406251D01*
X145820639Y-99463424D01*
X145812183Y-99468306D01*
X145693658Y-99559253D01*
X145686755Y-99566156D01*
X145637631Y-99630177D01*
X145594247Y-99657816D01*
X145543247Y-99651103D01*
X145508495Y-99613178D01*
X145503413Y-99574584D01*
X145518080Y-99463177D01*
X145518400Y-99458285D01*
X145518400Y-99161759D01*
X145514703Y-99151602D01*
X145509331Y-99148500D01*
X144841759Y-99148500D01*
X144831602Y-99152197D01*
X144828500Y-99157569D01*
X144828500Y-100012641D01*
X144473700Y-100012641D01*
X144473700Y-97929559D01*
X144470003Y-97919402D01*
X144464631Y-97916300D01*
X144351415Y-97916300D01*
X144346525Y-97916620D01*
X144317231Y-97920477D01*
X144267010Y-97909343D01*
X144235696Y-97868533D01*
X144237939Y-97817142D01*
X144254241Y-97792746D01*
X144291116Y-97755871D01*
X144336673Y-97666460D01*
X144374294Y-97631378D01*
X144403677Y-97625400D01*
X144745783Y-97625400D01*
X144794121Y-97642993D01*
G37*
%TD.AperFunction*%
%TD*%
%TA.AperFunction,Conductor*%
%TO.N,Net-(C20-Pad1)*%
G36*
X148479238Y-108261193D02*
G01*
X148504958Y-108305742D01*
X148506100Y-108318800D01*
X148506100Y-109150140D01*
X148509797Y-109160297D01*
X148515169Y-109163399D01*
X148536980Y-109163399D01*
X148542447Y-109162999D01*
X148567348Y-109159333D01*
X148617733Y-109169699D01*
X148649666Y-109210026D01*
X148653500Y-109233731D01*
X148653500Y-110691718D01*
X148635907Y-110740056D01*
X148591358Y-110765776D01*
X148540700Y-110756843D01*
X148532522Y-110751378D01*
X148427521Y-110670809D01*
X148419060Y-110665924D01*
X148281033Y-110608751D01*
X148271604Y-110606224D01*
X148160675Y-110591620D01*
X148155785Y-110591300D01*
X148059259Y-110591300D01*
X148049102Y-110594997D01*
X148046000Y-110600369D01*
X148046000Y-111773300D01*
X148028407Y-111821638D01*
X147983858Y-111847358D01*
X147970800Y-111848500D01*
X147027059Y-111848500D01*
X147016902Y-111852197D01*
X147013800Y-111857569D01*
X147013800Y-112183285D01*
X147014120Y-112188175D01*
X147028724Y-112299104D01*
X147031251Y-112308534D01*
X147050300Y-112354522D01*
X147052543Y-112405913D01*
X147021229Y-112446723D01*
X146980824Y-112458500D01*
X141986000Y-112458500D01*
X141986000Y-115544226D01*
X141594800Y-115935426D01*
X141594800Y-114998659D01*
X141591103Y-114988502D01*
X141585731Y-114985400D01*
X140187800Y-114985400D01*
X140139462Y-114967807D01*
X140113742Y-114923258D01*
X140112600Y-114910200D01*
X140112600Y-114705800D01*
X140130193Y-114657462D01*
X140174742Y-114631742D01*
X140187800Y-114630600D01*
X141581541Y-114630600D01*
X141591698Y-114626903D01*
X141594800Y-114621531D01*
X141594799Y-113077120D01*
X141594398Y-113071651D01*
X141585385Y-113010416D01*
X141581959Y-112999391D01*
X141535215Y-112904183D01*
X141528078Y-112894215D01*
X141504215Y-112870394D01*
X141482434Y-112823793D01*
X141489782Y-112784148D01*
X141520432Y-112721445D01*
X141523836Y-112710431D01*
X141532686Y-112649772D01*
X141533080Y-112644339D01*
X141533080Y-111529019D01*
X141529383Y-111518862D01*
X141524011Y-111515760D01*
X140411200Y-111515760D01*
X140411200Y-111480441D01*
X147013800Y-111480441D01*
X147017497Y-111490598D01*
X147022869Y-111493700D01*
X147677941Y-111493700D01*
X147688098Y-111490003D01*
X147691200Y-111484631D01*
X147691200Y-110604559D01*
X147687503Y-110594402D01*
X147682131Y-110591300D01*
X147581415Y-110591300D01*
X147576525Y-110591620D01*
X147465596Y-110606224D01*
X147456166Y-110608751D01*
X147318139Y-110665924D01*
X147309683Y-110670806D01*
X147191158Y-110761753D01*
X147184253Y-110768658D01*
X147093306Y-110887183D01*
X147088424Y-110895640D01*
X147031251Y-111033667D01*
X147028724Y-111043096D01*
X147014120Y-111154025D01*
X147013800Y-111158915D01*
X147013800Y-111480441D01*
X140411200Y-111480441D01*
X140411200Y-111160960D01*
X141519820Y-111160960D01*
X141529977Y-111157263D01*
X141533079Y-111151891D01*
X141533079Y-110032400D01*
X141532678Y-110026931D01*
X141523665Y-109965696D01*
X141520239Y-109954671D01*
X141473495Y-109859463D01*
X141466361Y-109849498D01*
X141391560Y-109774829D01*
X141381580Y-109767710D01*
X141358567Y-109756461D01*
X141322866Y-109719427D01*
X141319322Y-109668109D01*
X141349594Y-109626520D01*
X141391591Y-109613700D01*
X144723078Y-109613700D01*
X144771416Y-109631293D01*
X144776252Y-109635726D01*
X145389226Y-110248700D01*
X145660604Y-110248700D01*
X145708942Y-110266293D01*
X145711528Y-110269025D01*
X145711755Y-110268780D01*
X145748955Y-110303288D01*
X145750987Y-110305246D01*
X145765297Y-110319556D01*
X145768158Y-110321518D01*
X145770823Y-110323733D01*
X145770705Y-110323875D01*
X145773935Y-110326460D01*
X145795137Y-110346128D01*
X145801584Y-110348700D01*
X145801587Y-110348702D01*
X145808624Y-110351509D01*
X145823294Y-110359342D01*
X145835268Y-110367556D01*
X145842021Y-110369159D01*
X145842022Y-110369159D01*
X145863411Y-110374235D01*
X145873902Y-110377553D01*
X145900773Y-110388273D01*
X145907168Y-110388900D01*
X145916406Y-110388900D01*
X145933771Y-110390932D01*
X145945927Y-110393817D01*
X145977008Y-110389587D01*
X145987147Y-110388900D01*
X147175660Y-110388900D01*
X147181219Y-110389308D01*
X147185728Y-110390856D01*
X147236416Y-110388953D01*
X147239236Y-110388900D01*
X147259493Y-110388900D01*
X147262897Y-110388266D01*
X147266349Y-110387947D01*
X147266365Y-110388119D01*
X147270483Y-110387674D01*
X147292443Y-110386850D01*
X147292446Y-110386849D01*
X147299382Y-110386589D01*
X147305761Y-110383848D01*
X147305763Y-110383848D01*
X147312723Y-110380858D01*
X147328635Y-110376024D01*
X147336084Y-110374636D01*
X147336086Y-110374635D01*
X147342911Y-110373364D01*
X147348820Y-110369722D01*
X147348822Y-110369721D01*
X147367534Y-110358187D01*
X147377310Y-110353109D01*
X147398997Y-110343792D01*
X147399000Y-110343790D01*
X147403879Y-110341694D01*
X147408844Y-110337615D01*
X147415375Y-110331084D01*
X147429089Y-110320243D01*
X147433817Y-110317329D01*
X147433818Y-110317328D01*
X147439728Y-110313685D01*
X147458724Y-110288704D01*
X147465402Y-110281057D01*
X148042781Y-109703679D01*
X148046999Y-109700038D01*
X148051280Y-109697945D01*
X148085776Y-109660758D01*
X148087733Y-109658727D01*
X148102057Y-109644403D01*
X148104018Y-109641545D01*
X148106233Y-109638879D01*
X148106378Y-109638999D01*
X148108963Y-109635762D01*
X148123906Y-109619654D01*
X148123907Y-109619652D01*
X148128628Y-109614563D01*
X148131200Y-109608117D01*
X148131203Y-109608112D01*
X148134008Y-109601080D01*
X148141842Y-109586407D01*
X148146131Y-109580155D01*
X148146132Y-109580153D01*
X148150057Y-109574431D01*
X148156736Y-109546286D01*
X148160052Y-109535799D01*
X148170773Y-109508927D01*
X148171400Y-109502532D01*
X148171400Y-109493292D01*
X148173432Y-109475928D01*
X148174714Y-109470525D01*
X148176317Y-109463772D01*
X148172087Y-109432691D01*
X148171400Y-109422550D01*
X148171400Y-109231139D01*
X148188993Y-109182801D01*
X148220881Y-109160474D01*
X148222998Y-109159703D01*
X148226100Y-109154331D01*
X148226100Y-108318800D01*
X148243693Y-108270462D01*
X148288242Y-108244742D01*
X148301300Y-108243600D01*
X148430900Y-108243600D01*
X148479238Y-108261193D01*
G37*
%TD.AperFunction*%
%TD*%
%TA.AperFunction,Conductor*%
%TO.N,Net-(P1-Pad1)*%
G36*
X148945600Y-113523495D02*
G01*
X148945600Y-116878100D01*
X145616883Y-116878100D01*
X145572689Y-116859794D01*
X145425604Y-116712709D01*
X145407298Y-116668515D01*
X145412635Y-116643244D01*
X145439069Y-116583449D01*
X145441516Y-116574474D01*
X145443788Y-116554983D01*
X145444000Y-116551343D01*
X145444000Y-114972431D01*
X145440359Y-114963641D01*
X145431569Y-114960000D01*
X144100500Y-114960000D01*
X144056306Y-114941694D01*
X144038000Y-114897500D01*
X144038000Y-114718500D01*
X144056306Y-114674306D01*
X144100500Y-114656000D01*
X145431568Y-114656000D01*
X145440358Y-114652359D01*
X145443999Y-114643569D01*
X145443999Y-113194100D01*
X145462305Y-113149906D01*
X145506499Y-113131600D01*
X148553705Y-113131600D01*
X148945600Y-113523495D01*
G37*
%TD.AperFunction*%
%TD*%
%TA.AperFunction,Conductor*%
%TO.N,Net-(C20-Pad1)*%
G36*
X141643100Y-113205994D02*
G01*
X141960600Y-113523495D01*
X141960600Y-115428494D01*
X142922987Y-116390881D01*
X142941293Y-116435075D01*
X142923026Y-116479230D01*
X142904998Y-116497290D01*
X142898587Y-116506653D01*
X142857031Y-116600651D01*
X142854584Y-116609626D01*
X142852312Y-116629117D01*
X142852100Y-116632757D01*
X142852101Y-117761669D01*
X142855742Y-117770459D01*
X142864532Y-117774100D01*
X144145600Y-117774100D01*
X144189794Y-117792406D01*
X144208100Y-117836600D01*
X144208100Y-118015600D01*
X144189794Y-118059794D01*
X144145600Y-118078100D01*
X142864532Y-118078100D01*
X142855742Y-118081741D01*
X142852101Y-118090531D01*
X142852101Y-118720600D01*
X142833795Y-118764794D01*
X142789601Y-118783100D01*
X142111731Y-118783100D01*
X142067537Y-118764794D01*
X142052853Y-118741566D01*
X142044725Y-118718741D01*
X142044718Y-118718724D01*
X142044207Y-118717289D01*
X141877592Y-118363214D01*
X141876818Y-118361916D01*
X141876814Y-118361908D01*
X141677998Y-118028392D01*
X141677997Y-118028391D01*
X141677220Y-118027087D01*
X141643038Y-117980724D01*
X141445913Y-117713348D01*
X141445909Y-117713342D01*
X141445005Y-117712117D01*
X141443978Y-117710976D01*
X141184178Y-117422440D01*
X141184173Y-117422435D01*
X141183161Y-117421311D01*
X140894190Y-117157444D01*
X140582867Y-116924544D01*
X140558445Y-116883413D01*
X140570260Y-116837060D01*
X140611392Y-116812638D01*
X140620306Y-116811999D01*
X141283313Y-116811999D01*
X141287004Y-116811780D01*
X141307017Y-116809401D01*
X141315955Y-116806945D01*
X141409897Y-116765216D01*
X141419247Y-116758790D01*
X141491103Y-116686809D01*
X141497514Y-116677445D01*
X141539069Y-116583449D01*
X141541516Y-116574474D01*
X141543788Y-116554983D01*
X141544000Y-116551343D01*
X141544000Y-114972431D01*
X141540359Y-114963641D01*
X141531569Y-114960000D01*
X139048432Y-114960000D01*
X139039642Y-114963641D01*
X139036001Y-114972431D01*
X139036001Y-116204718D01*
X139017695Y-116248912D01*
X138973501Y-116267218D01*
X138929307Y-116248912D01*
X138867406Y-116187011D01*
X138849100Y-116142817D01*
X138849100Y-112979940D01*
X138867406Y-112935746D01*
X138911600Y-112917440D01*
X138995855Y-112917440D01*
X139040049Y-112935746D01*
X139058355Y-112979940D01*
X139053018Y-113005212D01*
X139040930Y-113032554D01*
X139038484Y-113041526D01*
X139036212Y-113061017D01*
X139036000Y-113064657D01*
X139036000Y-114643569D01*
X139039641Y-114652359D01*
X139048431Y-114656000D01*
X141531568Y-114656000D01*
X141540358Y-114652359D01*
X141543999Y-114643569D01*
X141543999Y-113064687D01*
X141543780Y-113060996D01*
X141541401Y-113040983D01*
X141538945Y-113032045D01*
X141497216Y-112938103D01*
X141490790Y-112928754D01*
X141435552Y-112873611D01*
X141417208Y-112829432D01*
X141428137Y-112794069D01*
X141435794Y-112782885D01*
X141477349Y-112688889D01*
X141479796Y-112679914D01*
X141482068Y-112660423D01*
X141482280Y-112656783D01*
X141482280Y-112496600D01*
X141643100Y-112496600D01*
X141643100Y-113205994D01*
G37*
%TD.AperFunction*%
%TD*%
M02*
