  0
SECTION
  2
HEADER
  9
$ANGBASE
  50
0.0
  9
$ANGDIR
  70
1
  9
$MEASUREMENT
  70
0
  0
ENDSEC
  0
SECTION
  2
TABLES
  0
TABLE
  2
LTYPE
  70
4
  0
LTYPE
  5
40F
  2
CONTINUOUS
  70
0
  3
Solid line
  72
65
  73
0
  40
0.0
  0
LTYPE
  5
410
  2
DASHDOT
 70
0
  3
Dash Dot ____ _ ____ _
 72
65
 73
4
 40
2.0
 49
1.25
 49
-0.25
 49
0.25
 49
-0.25
  0
LTYPE
  5
411
  2
DASHED
 70
0
  3
Dashed __ __ __ __ __
 72
65
 73
2
 40
0.75
 49
0.5
 49
-0.25
  0
LTYPE
  5
43B
  2
DOTTED
 70
0
  3
Dotted .  .  .  .
 72
65
 73
2
 40
0.2
 49
0.0
 49
-0.2
  0
ENDTAB
  0
TABLE
  2
STYLE
  70
4
  0
STYLE
  2
KICAD
  70
0
  40
0
  41
1
  42
1
  50
0
  71
0
  3
isocp.shx
  0
STYLE
  2
KICADB
  70
0
  40
0
  41
1
  42
1
  50
0
  71
0
  3
isocp.shx
  0
STYLE
  2
KICADI
  70
0
  40
0
  41
1
  42
1
  50
15
  71
0
  3
isocp.shx
  0
STYLE
  2
KICADBI
  70
0
  40
0
  41
1
  42
1
  50
15
  71
0
  3
isocp.shx
  0
ENDTAB
  0
TABLE
  2
LAYER
  70
1
  0
LAYER
  2
BLACK
  70
0
  62
7
  6
CONTINUOUS
  0
ENDTAB
  0
ENDSEC
  0
SECTION
  2
ENTITIES
0
LINE
8
BLACK
6
CONTINUOUS
10
5.994
20
-4.769
11
5.974
21
-4.769
0
LINE
8
BLACK
6
CONTINUOUS
10
5.974
20
-4.769
11
5.974
21
-4.749
0
LINE
8
BLACK
6
CONTINUOUS
10
5.974
20
-4.749
11
5.994
21
-4.749
0
LINE
8
BLACK
6
CONTINUOUS
10
5.994
20
-4.749
11
5.994
21
-4.769
0
LINE
8
BLACK
6
CONTINUOUS
10
5.794
20
-4.769
11
5.774
21
-4.769
0
LINE
8
BLACK
6
CONTINUOUS
10
5.774
20
-4.769
11
5.774
21
-4.749
0
LINE
8
BLACK
6
CONTINUOUS
10
5.774
20
-4.749
11
5.794
21
-4.749
0
LINE
8
BLACK
6
CONTINUOUS
10
5.794
20
-4.749
11
5.794
21
-4.769
0
LINE
8
BLACK
6
CONTINUOUS
10
5.894
20
-4.769
11
5.874
21
-4.769
0
LINE
8
BLACK
6
CONTINUOUS
10
5.874
20
-4.769
11
5.874
21
-4.749
0
LINE
8
BLACK
6
CONTINUOUS
10
5.874
20
-4.749
11
5.894
21
-4.749
0
LINE
8
BLACK
6
CONTINUOUS
10
5.894
20
-4.749
11
5.894
21
-4.769
0
LINE
8
BLACK
6
CONTINUOUS
10
5.994
20
-4.669
11
5.974
21
-4.669
0
LINE
8
BLACK
6
CONTINUOUS
10
5.974
20
-4.669
11
5.974
21
-4.649
0
LINE
8
BLACK
6
CONTINUOUS
10
5.974
20
-4.649
11
5.994
21
-4.649
0
LINE
8
BLACK
6
CONTINUOUS
10
5.994
20
-4.649
11
5.994
21
-4.669
0
LINE
8
BLACK
6
CONTINUOUS
10
5.794
20
-4.669
11
5.774
21
-4.669
0
LINE
8
BLACK
6
CONTINUOUS
10
5.774
20
-4.669
11
5.774
21
-4.649
0
LINE
8
BLACK
6
CONTINUOUS
10
5.774
20
-4.649
11
5.794
21
-4.649
0
LINE
8
BLACK
6
CONTINUOUS
10
5.794
20
-4.649
11
5.794
21
-4.669
0
LINE
8
BLACK
6
CONTINUOUS
10
5.894
20
-4.669
11
5.874
21
-4.669
0
LINE
8
BLACK
6
CONTINUOUS
10
5.874
20
-4.669
11
5.874
21
-4.649
0
LINE
8
BLACK
6
CONTINUOUS
10
5.874
20
-4.649
11
5.894
21
-4.649
0
LINE
8
BLACK
6
CONTINUOUS
10
5.894
20
-4.649
11
5.894
21
-4.669
0
LINE
8
BLACK
6
CONTINUOUS
10
5.394
20
-4.519
11
5.374
21
-4.519
0
LINE
8
BLACK
6
CONTINUOUS
10
5.374
20
-4.519
11
5.374
21
-4.499
0
LINE
8
BLACK
6
CONTINUOUS
10
5.374
20
-4.499
11
5.394
21
-4.499
0
LINE
8
BLACK
6
CONTINUOUS
10
5.394
20
-4.499
11
5.394
21
-4.519
0
LINE
8
BLACK
6
CONTINUOUS
10
5.394
20
-4.319
11
5.374
21
-4.319
0
LINE
8
BLACK
6
CONTINUOUS
10
5.374
20
-4.319
11
5.374
21
-4.299
0
LINE
8
BLACK
6
CONTINUOUS
10
5.374
20
-4.299
11
5.394
21
-4.299
0
LINE
8
BLACK
6
CONTINUOUS
10
5.394
20
-4.299
11
5.394
21
-4.319
0
LINE
8
BLACK
6
CONTINUOUS
10
5.5065
20
-4.0815
11
5.4865
21
-4.0815
0
LINE
8
BLACK
6
CONTINUOUS
10
5.4865
20
-4.0815
11
5.4865
21
-4.0615
0
LINE
8
BLACK
6
CONTINUOUS
10
5.4865
20
-4.0615
11
5.5065
21
-4.0615
0
LINE
8
BLACK
6
CONTINUOUS
10
5.5065
20
-4.0615
11
5.5065
21
-4.0815
0
LINE
8
BLACK
6
CONTINUOUS
10
5.5065
20
-3.9815
11
5.4865
21
-3.9815
0
LINE
8
BLACK
6
CONTINUOUS
10
5.4865
20
-3.9815
11
5.4865
21
-3.9615
0
LINE
8
BLACK
6
CONTINUOUS
10
5.4865
20
-3.9615
11
5.5065
21
-3.9615
0
LINE
8
BLACK
6
CONTINUOUS
10
5.5065
20
-3.9615
11
5.5065
21
-3.9815
0
LINE
8
BLACK
6
CONTINUOUS
10
5.37937
20
-3.82945
11
5.37979
21
-3.82948
0
LINE
8
BLACK
6
CONTINUOUS
10
5.37979
20
-3.82948
11
5.38421
21
-3.83169
0
LINE
8
BLACK
6
CONTINUOUS
10
5.38421
20
-3.83169
11
5.3844
21
-3.83191
0
LINE
8
BLACK
6
CONTINUOUS
10
5.3844
20
-3.83191
11
5.38468
21
-3.83203
0
LINE
8
BLACK
6
CONTINUOUS
10
5.38468
20
-3.83203
11
5.38689
21
-3.83424
0
LINE
8
BLACK
6
CONTINUOUS
10
5.38689
20
-3.83424
11
5.387
21
-3.83451
0
LINE
8
BLACK
6
CONTINUOUS
10
5.387
20
-3.83451
11
5.38722
21
-3.8347
0
LINE
8
BLACK
6
CONTINUOUS
10
5.38722
20
-3.8347
11
5.38943
21
-3.83912
0
LINE
8
BLACK
6
CONTINUOUS
10
5.38943
20
-3.83912
11
5.38945
21
-3.83933
0
LINE
8
BLACK
6
CONTINUOUS
10
5.38945
20
-3.83933
11
5.38957
21
-3.83949
0
LINE
8
BLACK
6
CONTINUOUS
10
5.38957
20
-3.83949
11
5.39178
21
-3.84833
0
LINE
8
BLACK
6
CONTINUOUS
10
5.39178
20
-3.84833
11
5.39175
21
-3.84856
0
LINE
8
BLACK
6
CONTINUOUS
10
5.39175
20
-3.84856
11
5.39183
21
-3.84877
0
LINE
8
BLACK
6
CONTINUOUS
10
5.39183
20
-3.84877
11
5.39183
21
-3.85981
0
LINE
8
BLACK
6
CONTINUOUS
10
5.39183
20
-3.85981
11
5.39175
21
-3.86003
0
LINE
8
BLACK
6
CONTINUOUS
10
5.39175
20
-3.86003
11
5.39178
21
-3.86025
0
LINE
8
BLACK
6
CONTINUOUS
10
5.39178
20
-3.86025
11
5.39147
21
-3.8615
0
LINE
8
BLACK
6
CONTINUOUS
10
5.39147
20
-3.8615
11
5.4065
21
-3.8615
0
LINE
8
BLACK
6
CONTINUOUS
10
5.4065
20
-3.8615
11
5.4065
21
-3.87394
0
LINE
8
BLACK
6
CONTINUOUS
10
5.4065
20
-3.87394
11
5.43044
21
-3.85
0
LINE
8
BLACK
6
CONTINUOUS
10
5.43044
20
-3.85
11
5.43242
21
-3.84406
0
LINE
8
BLACK
6
CONTINUOUS
10
5.43242
20
-3.84406
11
5.43242
21
-3.84035
0
LINE
8
BLACK
6
CONTINUOUS
10
5.43242
20
-3.84035
11
5.43053
21
-3.83658
0
LINE
8
BLACK
6
CONTINUOUS
10
5.43053
20
-3.83658
11
5.42874
21
-3.83478
0
LINE
8
BLACK
6
CONTINUOUS
10
5.42874
20
-3.83478
11
5.42496
21
-3.83289
0
LINE
8
BLACK
6
CONTINUOUS
10
5.42496
20
-3.83289
11
5.41476
21
-3.83289
0
LINE
8
BLACK
6
CONTINUOUS
10
5.41476
20
-3.83289
11
5.41099
21
-3.83478
0
LINE
8
BLACK
6
CONTINUOUS
10
5.41099
20
-3.83478
11
5.40898
21
-3.83678
0
LINE
8
BLACK
6
CONTINUOUS
10
5.40898
20
-3.83678
11
5.40771
21
-3.83731
0
LINE
8
BLACK
6
CONTINUOUS
10
5.40771
20
-3.83731
11
5.40644
21
-3.83678
0
LINE
8
BLACK
6
CONTINUOUS
10
5.40644
20
-3.83678
11
5.40591
21
-3.83551
0
LINE
8
BLACK
6
CONTINUOUS
10
5.40591
20
-3.83551
11
5.40644
21
-3.83424
0
LINE
8
BLACK
6
CONTINUOUS
10
5.40644
20
-3.83424
11
5.40865
21
-3.83203
0
LINE
8
BLACK
6
CONTINUOUS
10
5.40865
20
-3.83203
11
5.40892
21
-3.83191
0
LINE
8
BLACK
6
CONTINUOUS
10
5.40892
20
-3.83191
11
5.40911
21
-3.83169
0
LINE
8
BLACK
6
CONTINUOUS
10
5.40911
20
-3.83169
11
5.41353
21
-3.82948
0
LINE
8
BLACK
6
CONTINUOUS
10
5.41353
20
-3.82948
11
5.41395
21
-3.82945
0
LINE
8
BLACK
6
CONTINUOUS
10
5.41395
20
-3.82945
11
5.41434
21
-3.82929
0
LINE
8
BLACK
6
CONTINUOUS
10
5.41434
20
-3.82929
11
5.42539
21
-3.82929
0
LINE
8
BLACK
6
CONTINUOUS
10
5.42539
20
-3.82929
11
5.42577
21
-3.82945
0
LINE
8
BLACK
6
CONTINUOUS
10
5.42577
20
-3.82945
11
5.42619
21
-3.82948
0
LINE
8
BLACK
6
CONTINUOUS
10
5.42619
20
-3.82948
11
5.43061
21
-3.83169
0
LINE
8
BLACK
6
CONTINUOUS
10
5.43061
20
-3.83169
11
5.4308
21
-3.83191
0
LINE
8
BLACK
6
CONTINUOUS
10
5.4308
20
-3.83191
11
5.43108
21
-3.83203
0
LINE
8
BLACK
6
CONTINUOUS
10
5.43108
20
-3.83203
11
5.43329
21
-3.83424
0
LINE
8
BLACK
6
CONTINUOUS
10
5.43329
20
-3.83424
11
5.4334
21
-3.83451
0
LINE
8
BLACK
6
CONTINUOUS
10
5.4334
20
-3.83451
11
5.43362
21
-3.8347
0
LINE
8
BLACK
6
CONTINUOUS
10
5.43362
20
-3.8347
11
5.43583
21
-3.83912
0
LINE
8
BLACK
6
CONTINUOUS
10
5.43583
20
-3.83912
11
5.43586
21
-3.83954
0
LINE
8
BLACK
6
CONTINUOUS
10
5.43586
20
-3.83954
11
5.43602
21
-3.83993
0
LINE
8
BLACK
6
CONTINUOUS
10
5.43602
20
-3.83993
11
5.43602
21
-3.84435
0
LINE
8
BLACK
6
CONTINUOUS
10
5.43602
20
-3.84435
11
5.43591
21
-3.84462
0
LINE
8
BLACK
6
CONTINUOUS
10
5.43591
20
-3.84462
11
5.43593
21
-3.84492
0
LINE
8
BLACK
6
CONTINUOUS
10
5.43593
20
-3.84492
11
5.43372
21
-3.85155
0
LINE
8
BLACK
6
CONTINUOUS
10
5.43372
20
-3.85155
11
5.43345
21
-3.85186
0
LINE
8
BLACK
6
CONTINUOUS
10
5.43345
20
-3.85186
11
5.43329
21
-3.85225
0
LINE
8
BLACK
6
CONTINUOUS
10
5.43329
20
-3.85225
11
5.40985
21
-3.87569
0
LINE
8
BLACK
6
CONTINUOUS
10
5.40985
20
-3.87569
11
5.43422
21
-3.87569
0
LINE
8
BLACK
6
CONTINUOUS
10
5.43422
20
-3.87569
11
5.4355
21
-3.87622
0
LINE
8
BLACK
6
CONTINUOUS
10
5.4355
20
-3.87622
11
5.43602
21
-3.87749
0
LINE
8
BLACK
6
CONTINUOUS
10
5.43602
20
-3.87749
11
5.4355
21
-3.87876
0
LINE
8
BLACK
6
CONTINUOUS
10
5.4355
20
-3.87876
11
5.43422
21
-3.87929
0
LINE
8
BLACK
6
CONTINUOUS
10
5.43422
20
-3.87929
11
5.4065
21
-3.87929
0
LINE
8
BLACK
6
CONTINUOUS
10
5.4065
20
-3.87929
11
5.4065
21
-3.8815
0
LINE
8
BLACK
6
CONTINUOUS
10
5.4065
20
-3.8815
11
5.3865
21
-3.8815
0
LINE
8
BLACK
6
CONTINUOUS
10
5.3865
20
-3.8815
11
5.3865
21
-3.87473
0
LINE
8
BLACK
6
CONTINUOUS
10
5.3865
20
-3.87473
11
5.38468
21
-3.87655
0
LINE
8
BLACK
6
CONTINUOUS
10
5.38468
20
-3.87655
11
5.3844
21
-3.87667
0
LINE
8
BLACK
6
CONTINUOUS
10
5.3844
20
-3.87667
11
5.38421
21
-3.87689
0
LINE
8
BLACK
6
CONTINUOUS
10
5.38421
20
-3.87689
11
5.37979
21
-3.8791
0
LINE
8
BLACK
6
CONTINUOUS
10
5.37979
20
-3.8791
11
5.37937
21
-3.87913
0
LINE
8
BLACK
6
CONTINUOUS
10
5.37937
20
-3.87913
11
5.37899
21
-3.87929
0
LINE
8
BLACK
6
CONTINUOUS
10
5.37899
20
-3.87929
11
5.37457
21
-3.87929
0
LINE
8
BLACK
6
CONTINUOUS
10
5.37457
20
-3.87929
11
5.37418
21
-3.87913
0
LINE
8
BLACK
6
CONTINUOUS
10
5.37418
20
-3.87913
11
5.37376
21
-3.8791
0
LINE
8
BLACK
6
CONTINUOUS
10
5.37376
20
-3.8791
11
5.36934
21
-3.87689
0
LINE
8
BLACK
6
CONTINUOUS
10
5.36934
20
-3.87689
11
5.36915
21
-3.87667
0
LINE
8
BLACK
6
CONTINUOUS
10
5.36915
20
-3.87667
11
5.36887
21
-3.87655
0
LINE
8
BLACK
6
CONTINUOUS
10
5.36887
20
-3.87655
11
5.36667
21
-3.87434
0
LINE
8
BLACK
6
CONTINUOUS
10
5.36667
20
-3.87434
11
5.36655
21
-3.87407
0
LINE
8
BLACK
6
CONTINUOUS
10
5.36655
20
-3.87407
11
5.36633
21
-3.87388
0
LINE
8
BLACK
6
CONTINUOUS
10
5.36633
20
-3.87388
11
5.36412
21
-3.86946
0
LINE
8
BLACK
6
CONTINUOUS
10
5.36412
20
-3.86946
11
5.3641
21
-3.86925
0
LINE
8
BLACK
6
CONTINUOUS
10
5.3641
20
-3.86925
11
5.36398
21
-3.86909
0
LINE
8
BLACK
6
CONTINUOUS
10
5.36398
20
-3.86909
11
5.36177
21
-3.86025
0
LINE
8
BLACK
6
CONTINUOUS
10
5.36177
20
-3.86025
11
5.36181
21
-3.86003
0
LINE
8
BLACK
6
CONTINUOUS
10
5.36181
20
-3.86003
11
5.36172
21
-3.85981
0
LINE
8
BLACK
6
CONTINUOUS
10
5.36172
20
-3.85981
11
5.36172
21
-3.84877
0
LINE
8
BLACK
6
CONTINUOUS
10
5.36172
20
-3.84877
11
5.36181
21
-3.84856
0
LINE
8
BLACK
6
CONTINUOUS
10
5.36181
20
-3.84856
11
5.36177
21
-3.84833
0
LINE
8
BLACK
6
CONTINUOUS
10
5.36177
20
-3.84833
11
5.36398
21
-3.83949
0
LINE
8
BLACK
6
CONTINUOUS
10
5.36398
20
-3.83949
11
5.3641
21
-3.83933
0
LINE
8
BLACK
6
CONTINUOUS
10
5.3641
20
-3.83933
11
5.36412
21
-3.83912
0
LINE
8
BLACK
6
CONTINUOUS
10
5.36412
20
-3.83912
11
5.36633
21
-3.8347
0
LINE
8
BLACK
6
CONTINUOUS
10
5.36633
20
-3.8347
11
5.36655
21
-3.83451
0
LINE
8
BLACK
6
CONTINUOUS
10
5.36655
20
-3.83451
11
5.36667
21
-3.83424
0
LINE
8
BLACK
6
CONTINUOUS
10
5.36667
20
-3.83424
11
5.36887
21
-3.83203
0
LINE
8
BLACK
6
CONTINUOUS
10
5.36887
20
-3.83203
11
5.36915
21
-3.83191
0
LINE
8
BLACK
6
CONTINUOUS
10
5.36915
20
-3.83191
11
5.36934
21
-3.83169
0
LINE
8
BLACK
6
CONTINUOUS
10
5.36934
20
-3.83169
11
5.37376
21
-3.82948
0
LINE
8
BLACK
6
CONTINUOUS
10
5.37376
20
-3.82948
11
5.37418
21
-3.82945
0
LINE
8
BLACK
6
CONTINUOUS
10
5.37418
20
-3.82945
11
5.37457
21
-3.82929
0
LINE
8
BLACK
6
CONTINUOUS
10
5.37457
20
-3.82929
11
5.37899
21
-3.82929
0
LINE
8
BLACK
6
CONTINUOUS
10
5.37899
20
-3.82929
11
5.37937
21
-3.82945
0
LINE
8
BLACK
6
CONTINUOUS
10
5.37499
20
-3.83289
11
5.37121
21
-3.83478
0
LINE
8
BLACK
6
CONTINUOUS
10
5.37121
20
-3.83478
11
5.36942
21
-3.83658
0
LINE
8
BLACK
6
CONTINUOUS
10
5.36942
20
-3.83658
11
5.36743
21
-3.84056
0
LINE
8
BLACK
6
CONTINUOUS
10
5.36743
20
-3.84056
11
5.36532
21
-3.84899
0
LINE
8
BLACK
6
CONTINUOUS
10
5.36532
20
-3.84899
11
5.36532
21
-3.85959
0
LINE
8
BLACK
6
CONTINUOUS
10
5.36532
20
-3.85959
11
5.36743
21
-3.86802
0
LINE
8
BLACK
6
CONTINUOUS
10
5.36743
20
-3.86802
11
5.36942
21
-3.87201
0
LINE
8
BLACK
6
CONTINUOUS
10
5.36942
20
-3.87201
11
5.37121
21
-3.8738
0
LINE
8
BLACK
6
CONTINUOUS
10
5.37121
20
-3.8738
11
5.37499
21
-3.87569
0
LINE
8
BLACK
6
CONTINUOUS
10
5.37499
20
-3.87569
11
5.37856
21
-3.87569
0
LINE
8
BLACK
6
CONTINUOUS
10
5.37856
20
-3.87569
11
5.38234
21
-3.8738
0
LINE
8
BLACK
6
CONTINUOUS
10
5.38234
20
-3.8738
11
5.38413
21
-3.87201
0
LINE
8
BLACK
6
CONTINUOUS
10
5.38413
20
-3.87201
11
5.38613
21
-3.86802
0
LINE
8
BLACK
6
CONTINUOUS
10
5.38613
20
-3.86802
11
5.3865
21
-3.86653
0
LINE
8
BLACK
6
CONTINUOUS
10
5.3865
20
-3.86653
11
5.3865
21
-3.8615
0
LINE
8
BLACK
6
CONTINUOUS
10
5.3865
20
-3.8615
11
5.38776
21
-3.8615
0
LINE
8
BLACK
6
CONTINUOUS
10
5.38776
20
-3.8615
11
5.38823
21
-3.85959
0
LINE
8
BLACK
6
CONTINUOUS
10
5.38823
20
-3.85959
11
5.38823
21
-3.84899
0
LINE
8
BLACK
6
CONTINUOUS
10
5.38823
20
-3.84899
11
5.38613
21
-3.84056
0
LINE
8
BLACK
6
CONTINUOUS
10
5.38613
20
-3.84056
11
5.38413
21
-3.83658
0
LINE
8
BLACK
6
CONTINUOUS
10
5.38413
20
-3.83658
11
5.38234
21
-3.83478
0
LINE
8
BLACK
6
CONTINUOUS
10
5.38234
20
-3.83478
11
5.37856
21
-3.83289
0
LINE
8
BLACK
6
CONTINUOUS
10
5.37856
20
-3.83289
11
5.37499
21
-3.83289
0
LINE
8
BLACK
6
CONTINUOUS
10
5.49073
20
-3.85854
11
5.49126
21
-3.85981
0
LINE
8
BLACK
6
CONTINUOUS
10
5.49126
20
-3.85981
11
5.49073
21
-3.86109
0
LINE
8
BLACK
6
CONTINUOUS
10
5.49073
20
-3.86109
11
5.48974
21
-3.8615
0
LINE
8
BLACK
6
CONTINUOUS
10
5.48974
20
-3.8615
11
5.5065
21
-3.8615
0
LINE
8
BLACK
6
CONTINUOUS
10
5.5065
20
-3.8615
11
5.5065
21
-3.8815
0
LINE
8
BLACK
6
CONTINUOUS
10
5.5065
20
-3.8815
11
5.4865
21
-3.8815
0
LINE
8
BLACK
6
CONTINUOUS
10
5.4865
20
-3.8815
11
5.4865
21
-3.86161
0
LINE
8
BLACK
6
CONTINUOUS
10
5.4865
20
-3.86161
11
5.45411
21
-3.86161
0
LINE
8
BLACK
6
CONTINUOUS
10
5.45411
20
-3.86161
11
5.45284
21
-3.86109
0
LINE
8
BLACK
6
CONTINUOUS
10
5.45284
20
-3.86109
11
5.45231
21
-3.85981
0
LINE
8
BLACK
6
CONTINUOUS
10
5.45231
20
-3.85981
11
5.45284
21
-3.85854
0
LINE
8
BLACK
6
CONTINUOUS
10
5.45284
20
-3.85854
11
5.45411
21
-3.85801
0
LINE
8
BLACK
6
CONTINUOUS
10
5.45411
20
-3.85801
11
5.48946
21
-3.85801
0
LINE
8
BLACK
6
CONTINUOUS
10
5.48946
20
-3.85801
11
5.49073
21
-3.85854
0
LINE
8
BLACK
6
CONTINUOUS
10
5.50807
20
-3.87876
11
5.50755
21
-3.87749
0
LINE
8
BLACK
6
CONTINUOUS
10
5.50755
20
-3.87749
11
5.50807
21
-3.87622
0
LINE
8
BLACK
6
CONTINUOUS
10
5.50807
20
-3.87622
11
5.50935
21
-3.87569
0
LINE
8
BLACK
6
CONTINUOUS
10
5.50935
20
-3.87569
11
5.5208
21
-3.87569
0
LINE
8
BLACK
6
CONTINUOUS
10
5.5208
20
-3.87569
11
5.5208
21
-3.83704
0
LINE
8
BLACK
6
CONTINUOUS
10
5.5208
20
-3.83704
11
5.51968
21
-3.83872
0
LINE
8
BLACK
6
CONTINUOUS
10
5.51968
20
-3.83872
11
5.51953
21
-3.83882
0
LINE
8
BLACK
6
CONTINUOUS
10
5.51953
20
-3.83882
11
5.51946
21
-3.83899
0
LINE
8
BLACK
6
CONTINUOUS
10
5.51946
20
-3.83899
11
5.51504
21
-3.84341
0
LINE
8
BLACK
6
CONTINUOUS
10
5.51504
20
-3.84341
11
5.51477
21
-3.84352
0
LINE
8
BLACK
6
CONTINUOUS
10
5.51477
20
-3.84352
11
5.51457
21
-3.84375
0
LINE
8
BLACK
6
CONTINUOUS
10
5.51457
20
-3.84375
11
5.51015
21
-3.84596
0
LINE
8
BLACK
6
CONTINUOUS
10
5.51015
20
-3.84596
11
5.50878
21
-3.84606
0
LINE
8
BLACK
6
CONTINUOUS
10
5.50878
20
-3.84606
11
5.50774
21
-3.84515
0
LINE
8
BLACK
6
CONTINUOUS
10
5.50774
20
-3.84515
11
5.50764
21
-3.84378
0
LINE
8
BLACK
6
CONTINUOUS
10
5.50764
20
-3.84378
11
5.50854
21
-3.84274
0
LINE
8
BLACK
6
CONTINUOUS
10
5.50854
20
-3.84274
11
5.5127
21
-3.84066
0
LINE
8
BLACK
6
CONTINUOUS
10
5.5127
20
-3.84066
11
5.51679
21
-3.83657
0
LINE
8
BLACK
6
CONTINUOUS
10
5.51679
20
-3.83657
11
5.52111
21
-3.83009
0
LINE
8
BLACK
6
CONTINUOUS
10
5.52111
20
-3.83009
11
5.52126
21
-3.82999
0
LINE
8
BLACK
6
CONTINUOUS
10
5.52126
20
-3.82999
11
5.52133
21
-3.82982
0
LINE
8
BLACK
6
CONTINUOUS
10
5.52133
20
-3.82982
11
5.52182
21
-3.82962
0
LINE
8
BLACK
6
CONTINUOUS
10
5.52182
20
-3.82962
11
5.52225
21
-3.82933
0
LINE
8
BLACK
6
CONTINUOUS
10
5.52225
20
-3.82933
11
5.52243
21
-3.82936
0
LINE
8
BLACK
6
CONTINUOUS
10
5.52243
20
-3.82936
11
5.5226
21
-3.82929
0
LINE
8
BLACK
6
CONTINUOUS
10
5.5226
20
-3.82929
11
5.52309
21
-3.82949
0
LINE
8
BLACK
6
CONTINUOUS
10
5.52309
20
-3.82949
11
5.5236
21
-3.82959
0
LINE
8
BLACK
6
CONTINUOUS
10
5.5236
20
-3.82959
11
5.52371
21
-3.82975
0
LINE
8
BLACK
6
CONTINUOUS
10
5.52371
20
-3.82975
11
5.52388
21
-3.82982
0
LINE
8
BLACK
6
CONTINUOUS
10
5.52388
20
-3.82982
11
5.52408
21
-3.8303
0
LINE
8
BLACK
6
CONTINUOUS
10
5.52408
20
-3.8303
11
5.52437
21
-3.83074
0
LINE
8
BLACK
6
CONTINUOUS
10
5.52437
20
-3.83074
11
5.52433
21
-3.83092
0
LINE
8
BLACK
6
CONTINUOUS
10
5.52433
20
-3.83092
11
5.5244
21
-3.83109
0
LINE
8
BLACK
6
CONTINUOUS
10
5.5244
20
-3.83109
11
5.5244
21
-3.87569
0
LINE
8
BLACK
6
CONTINUOUS
10
5.5244
20
-3.87569
11
5.53586
21
-3.87569
0
LINE
8
BLACK
6
CONTINUOUS
10
5.53586
20
-3.87569
11
5.53713
21
-3.87622
0
LINE
8
BLACK
6
CONTINUOUS
10
5.53713
20
-3.87622
11
5.53766
21
-3.87749
0
LINE
8
BLACK
6
CONTINUOUS
10
5.53766
20
-3.87749
11
5.53713
21
-3.87876
0
LINE
8
BLACK
6
CONTINUOUS
10
5.53713
20
-3.87876
11
5.53586
21
-3.87929
0
LINE
8
BLACK
6
CONTINUOUS
10
5.53586
20
-3.87929
11
5.50935
21
-3.87929
0
LINE
8
BLACK
6
CONTINUOUS
10
5.50935
20
-3.87929
11
5.50807
21
-3.87876
0
LINE
8
BLACK
6
CONTINUOUS
10
5.30423
20
-3.82944
11
5.30462
21
-3.82946
0
LINE
8
BLACK
6
CONTINUOUS
10
5.30462
20
-3.82946
11
5.30484
21
-3.8297
0
LINE
8
BLACK
6
CONTINUOUS
10
5.30484
20
-3.8297
11
5.30513
21
-3.82982
0
LINE
8
BLACK
6
CONTINUOUS
10
5.30513
20
-3.82982
11
5.30529
21
-3.83018
0
LINE
8
BLACK
6
CONTINUOUS
10
5.30529
20
-3.83018
11
5.30555
21
-3.83048
0
LINE
8
BLACK
6
CONTINUOUS
10
5.30555
20
-3.83048
11
5.30554
21
-3.83079
0
LINE
8
BLACK
6
CONTINUOUS
10
5.30554
20
-3.83079
11
5.30566
21
-3.83109
0
LINE
8
BLACK
6
CONTINUOUS
10
5.30566
20
-3.83109
11
5.30566
21
-3.87749
0
LINE
8
BLACK
6
CONTINUOUS
10
5.30566
20
-3.87749
11
5.30513
21
-3.87876
0
LINE
8
BLACK
6
CONTINUOUS
10
5.30513
20
-3.87876
11
5.30386
21
-3.87929
0
LINE
8
BLACK
6
CONTINUOUS
10
5.30386
20
-3.87929
11
5.30259
21
-3.87876
0
LINE
8
BLACK
6
CONTINUOUS
10
5.30259
20
-3.87876
11
5.30206
21
-3.87749
0
LINE
8
BLACK
6
CONTINUOUS
10
5.30206
20
-3.87749
11
5.30206
21
-3.8392
0
LINE
8
BLACK
6
CONTINUOUS
10
5.30206
20
-3.8392
11
5.29003
21
-3.86499
0
LINE
8
BLACK
6
CONTINUOUS
10
5.29003
20
-3.86499
11
5.28957
21
-3.86541
0
LINE
8
BLACK
6
CONTINUOUS
10
5.28957
20
-3.86541
11
5.28916
21
-3.86586
0
LINE
8
BLACK
6
CONTINUOUS
10
5.28916
20
-3.86586
11
5.28907
21
-3.86587
0
LINE
8
BLACK
6
CONTINUOUS
10
5.28907
20
-3.86587
11
5.28901
21
-3.86592
0
LINE
8
BLACK
6
CONTINUOUS
10
5.28901
20
-3.86592
11
5.2884
21
-3.8659
0
LINE
8
BLACK
6
CONTINUOUS
10
5.2884
20
-3.8659
11
5.28778
21
-3.86592
0
LINE
8
BLACK
6
CONTINUOUS
10
5.28778
20
-3.86592
11
5.28772
21
-3.86587
0
LINE
8
BLACK
6
CONTINUOUS
10
5.28772
20
-3.86587
11
5.28763
21
-3.86586
0
LINE
8
BLACK
6
CONTINUOUS
10
5.28763
20
-3.86586
11
5.28722
21
-3.86541
0
LINE
8
BLACK
6
CONTINUOUS
10
5.28722
20
-3.86541
11
5.28676
21
-3.86499
0
LINE
8
BLACK
6
CONTINUOUS
10
5.28676
20
-3.86499
11
5.27473
21
-3.8392
0
LINE
8
BLACK
6
CONTINUOUS
10
5.27473
20
-3.8392
11
5.27473
21
-3.87749
0
LINE
8
BLACK
6
CONTINUOUS
10
5.27473
20
-3.87749
11
5.2742
21
-3.87876
0
LINE
8
BLACK
6
CONTINUOUS
10
5.2742
20
-3.87876
11
5.27293
21
-3.87929
0
LINE
8
BLACK
6
CONTINUOUS
10
5.27293
20
-3.87929
11
5.27166
21
-3.87876
0
LINE
8
BLACK
6
CONTINUOUS
10
5.27166
20
-3.87876
11
5.27113
21
-3.87749
0
LINE
8
BLACK
6
CONTINUOUS
10
5.27113
20
-3.87749
11
5.27113
21
-3.83109
0
LINE
8
BLACK
6
CONTINUOUS
10
5.27113
20
-3.83109
11
5.27125
21
-3.83079
0
LINE
8
BLACK
6
CONTINUOUS
10
5.27125
20
-3.83079
11
5.27124
21
-3.83048
0
LINE
8
BLACK
6
CONTINUOUS
10
5.27124
20
-3.83048
11
5.2715
21
-3.83018
0
LINE
8
BLACK
6
CONTINUOUS
10
5.2715
20
-3.83018
11
5.27166
21
-3.82982
0
LINE
8
BLACK
6
CONTINUOUS
10
5.27166
20
-3.82982
11
5.27195
21
-3.8297
0
LINE
8
BLACK
6
CONTINUOUS
10
5.27195
20
-3.8297
11
5.27217
21
-3.82946
0
LINE
8
BLACK
6
CONTINUOUS
10
5.27217
20
-3.82946
11
5.27256
21
-3.82944
0
LINE
8
BLACK
6
CONTINUOUS
10
5.27256
20
-3.82944
11
5.27293
21
-3.82929
0
LINE
8
BLACK
6
CONTINUOUS
10
5.27293
20
-3.82929
11
5.27322
21
-3.82941
0
LINE
8
BLACK
6
CONTINUOUS
10
5.27322
20
-3.82941
11
5.27354
21
-3.8294
0
LINE
8
BLACK
6
CONTINUOUS
10
5.27354
20
-3.8294
11
5.27384
21
-3.82967
0
LINE
8
BLACK
6
CONTINUOUS
10
5.27384
20
-3.82967
11
5.2742
21
-3.82982
0
LINE
8
BLACK
6
CONTINUOUS
10
5.2742
20
-3.82982
11
5.27432
21
-3.83011
0
LINE
8
BLACK
6
CONTINUOUS
10
5.27432
20
-3.83011
11
5.27456
21
-3.83033
0
LINE
8
BLACK
6
CONTINUOUS
10
5.27456
20
-3.83033
11
5.2884
21
-3.85998
0
LINE
8
BLACK
6
CONTINUOUS
10
5.2884
20
-3.85998
11
5.30223
21
-3.83033
0
LINE
8
BLACK
6
CONTINUOUS
10
5.30223
20
-3.83033
11
5.30247
21
-3.83011
0
LINE
8
BLACK
6
CONTINUOUS
10
5.30247
20
-3.83011
11
5.30259
21
-3.82982
0
LINE
8
BLACK
6
CONTINUOUS
10
5.30259
20
-3.82982
11
5.30295
21
-3.82967
0
LINE
8
BLACK
6
CONTINUOUS
10
5.30295
20
-3.82967
11
5.30325
21
-3.8294
0
LINE
8
BLACK
6
CONTINUOUS
10
5.30325
20
-3.8294
11
5.30357
21
-3.82941
0
LINE
8
BLACK
6
CONTINUOUS
10
5.30357
20
-3.82941
11
5.30386
21
-3.82929
0
LINE
8
BLACK
6
CONTINUOUS
10
5.30386
20
-3.82929
11
5.30423
21
-3.82944
0
LINE
8
BLACK
6
CONTINUOUS
10
5.33547
20
-3.82947
11
5.3356
21
-3.82948
0
LINE
8
BLACK
6
CONTINUOUS
10
5.3356
20
-3.82948
11
5.33597
21
-3.82991
0
LINE
8
BLACK
6
CONTINUOUS
10
5.33597
20
-3.82991
11
5.33641
21
-3.83029
0
LINE
8
BLACK
6
CONTINUOUS
10
5.33641
20
-3.83029
11
5.33641
21
-3.83042
0
LINE
8
BLACK
6
CONTINUOUS
10
5.33641
20
-3.83042
11
5.3365
21
-3.83052
0
LINE
8
BLACK
6
CONTINUOUS
10
5.3365
20
-3.83052
11
5.35197
21
-3.87692
0
LINE
8
BLACK
6
CONTINUOUS
10
5.35197
20
-3.87692
11
5.35187
21
-3.8783
0
LINE
8
BLACK
6
CONTINUOUS
10
5.35187
20
-3.8783
11
5.35083
21
-3.8792
0
LINE
8
BLACK
6
CONTINUOUS
10
5.35083
20
-3.8792
11
5.34946
21
-3.8791
0
LINE
8
BLACK
6
CONTINUOUS
10
5.34946
20
-3.8791
11
5.34855
21
-3.87806
0
LINE
8
BLACK
6
CONTINUOUS
10
5.34855
20
-3.87806
11
5.34455
21
-3.86603
0
LINE
8
BLACK
6
CONTINUOUS
10
5.34455
20
-3.86603
11
5.32505
21
-3.86603
0
LINE
8
BLACK
6
CONTINUOUS
10
5.32505
20
-3.86603
11
5.32104
21
-3.87806
0
LINE
8
BLACK
6
CONTINUOUS
10
5.32104
20
-3.87806
11
5.32013
21
-3.8791
0
LINE
8
BLACK
6
CONTINUOUS
10
5.32013
20
-3.8791
11
5.31876
21
-3.8792
0
LINE
8
BLACK
6
CONTINUOUS
10
5.31876
20
-3.8792
11
5.31772
21
-3.8783
0
LINE
8
BLACK
6
CONTINUOUS
10
5.31772
20
-3.8783
11
5.31762
21
-3.87692
0
LINE
8
BLACK
6
CONTINUOUS
10
5.31762
20
-3.87692
11
5.33309
21
-3.83052
0
LINE
8
BLACK
6
CONTINUOUS
10
5.33309
20
-3.83052
11
5.33318
21
-3.83042
0
LINE
8
BLACK
6
CONTINUOUS
10
5.33318
20
-3.83042
11
5.33319
21
-3.83029
0
LINE
8
BLACK
6
CONTINUOUS
10
5.33319
20
-3.83029
11
5.33362
21
-3.82991
0
LINE
8
BLACK
6
CONTINUOUS
10
5.33362
20
-3.82991
11
5.33399
21
-3.82948
0
LINE
8
BLACK
6
CONTINUOUS
10
5.33399
20
-3.82948
11
5.33412
21
-3.82947
0
LINE
8
BLACK
6
CONTINUOUS
10
5.33412
20
-3.82947
11
5.33423
21
-3.82938
0
LINE
8
BLACK
6
CONTINUOUS
10
5.33423
20
-3.82938
11
5.3348
21
-3.82942
0
LINE
8
BLACK
6
CONTINUOUS
10
5.3348
20
-3.82942
11
5.33536
21
-3.82938
0
LINE
8
BLACK
6
CONTINUOUS
10
5.33536
20
-3.82938
11
5.33547
21
-3.82947
0
LINE
8
BLACK
6
CONTINUOUS
10
5.32625
20
-3.86243
11
5.34335
21
-3.86243
0
LINE
8
BLACK
6
CONTINUOUS
10
5.34335
20
-3.86243
11
5.3348
21
-3.83678
0
LINE
8
BLACK
6
CONTINUOUS
10
5.3348
20
-3.83678
11
5.32625
21
-3.86243
0
LINE
8
BLACK
6
CONTINUOUS
10
5.944
20
-3.8065
11
5.924
21
-3.8065
0
LINE
8
BLACK
6
CONTINUOUS
10
5.924
20
-3.8065
11
5.924
21
-3.7865
0
LINE
8
BLACK
6
CONTINUOUS
10
5.924
20
-3.7865
11
5.944
21
-3.7865
0
LINE
8
BLACK
6
CONTINUOUS
10
5.944
20
-3.7865
11
5.944
21
-3.8065
0
LINE
8
BLACK
6
CONTINUOUS
10
5.844
20
-3.8065
11
5.824
21
-3.8065
0
LINE
8
BLACK
6
CONTINUOUS
10
5.824
20
-3.8065
11
5.824
21
-3.7865
0
LINE
8
BLACK
6
CONTINUOUS
10
5.824
20
-3.7865
11
5.844
21
-3.7865
0
LINE
8
BLACK
6
CONTINUOUS
10
5.844
20
-3.7865
11
5.844
21
-3.8065
0
LINE
8
BLACK
6
CONTINUOUS
10
6.044
20
-3.8065
11
6.024
21
-3.8065
0
LINE
8
BLACK
6
CONTINUOUS
10
6.024
20
-3.8065
11
6.024
21
-3.7865
0
LINE
8
BLACK
6
CONTINUOUS
10
6.024
20
-3.7865
11
6.044
21
-3.7865
0
LINE
8
BLACK
6
CONTINUOUS
10
6.044
20
-3.7865
11
6.044
21
-3.8065
0
LINE
8
BLACK
6
CONTINUOUS
10
5.5065
20
-3.7815
11
5.4865
21
-3.7815
0
LINE
8
BLACK
6
CONTINUOUS
10
5.4865
20
-3.7815
11
5.4865
21
-3.7615
0
LINE
8
BLACK
6
CONTINUOUS
10
5.4865
20
-3.7615
11
5.5065
21
-3.7615
0
LINE
8
BLACK
6
CONTINUOUS
10
5.5065
20
-3.7615
11
5.5065
21
-3.7815
0
LINE
8
BLACK
6
CONTINUOUS
10
5.4065
20
-3.7815
11
5.3865
21
-3.7815
0
LINE
8
BLACK
6
CONTINUOUS
10
5.3865
20
-3.7815
11
5.3865
21
-3.7615
0
LINE
8
BLACK
6
CONTINUOUS
10
5.3865
20
-3.7615
11
5.4065
21
-3.7615
0
LINE
8
BLACK
6
CONTINUOUS
10
5.4065
20
-3.7615
11
5.4065
21
-3.7815
0
LINE
8
BLACK
6
CONTINUOUS
10
6.044
20
-3.7065
11
6.024
21
-3.7065
0
LINE
8
BLACK
6
CONTINUOUS
10
6.024
20
-3.7065
11
6.024
21
-3.6865
0
LINE
8
BLACK
6
CONTINUOUS
10
6.024
20
-3.6865
11
6.044
21
-3.6865
0
LINE
8
BLACK
6
CONTINUOUS
10
6.044
20
-3.6865
11
6.044
21
-3.7065
0
LINE
8
BLACK
6
CONTINUOUS
10
5.944
20
-3.7065
11
5.924
21
-3.7065
0
LINE
8
BLACK
6
CONTINUOUS
10
5.924
20
-3.7065
11
5.924
21
-3.6865
0
LINE
8
BLACK
6
CONTINUOUS
10
5.924
20
-3.6865
11
5.944
21
-3.6865
0
LINE
8
BLACK
6
CONTINUOUS
10
5.944
20
-3.6865
11
5.944
21
-3.7065
0
LINE
8
BLACK
6
CONTINUOUS
10
5.844
20
-3.7065
11
5.824
21
-3.7065
0
LINE
8
BLACK
6
CONTINUOUS
10
5.824
20
-3.7065
11
5.824
21
-3.6865
0
LINE
8
BLACK
6
CONTINUOUS
10
5.824
20
-3.6865
11
5.844
21
-3.6865
0
LINE
8
BLACK
6
CONTINUOUS
10
5.844
20
-3.6865
11
5.844
21
-3.7065
0
LINE
8
BLACK
6
CONTINUOUS
10
5.844
20
-3.6065
11
5.824
21
-3.6065
0
LINE
8
BLACK
6
CONTINUOUS
10
5.824
20
-3.6065
11
5.824
21
-3.5865
0
LINE
8
BLACK
6
CONTINUOUS
10
5.824
20
-3.5865
11
5.844
21
-3.5865
0
LINE
8
BLACK
6
CONTINUOUS
10
5.844
20
-3.5865
11
5.844
21
-3.6065
0
LINE
8
BLACK
6
CONTINUOUS
10
5.944
20
-3.6065
11
5.924
21
-3.6065
0
LINE
8
BLACK
6
CONTINUOUS
10
5.924
20
-3.6065
11
5.924
21
-3.5865
0
LINE
8
BLACK
6
CONTINUOUS
10
5.924
20
-3.5865
11
5.944
21
-3.5865
0
LINE
8
BLACK
6
CONTINUOUS
10
5.944
20
-3.5865
11
5.944
21
-3.6065
0
LINE
8
BLACK
6
CONTINUOUS
10
6.044
20
-3.6065
11
6.024
21
-3.6065
0
LINE
8
BLACK
6
CONTINUOUS
10
6.024
20
-3.6065
11
6.024
21
-3.5865
0
LINE
8
BLACK
6
CONTINUOUS
10
6.024
20
-3.5865
11
6.044
21
-3.5865
0
LINE
8
BLACK
6
CONTINUOUS
10
6.044
20
-3.5865
11
6.044
21
-3.6065
0
LINE
8
BLACK
6
CONTINUOUS
10
5.944
20
-3.5065
11
5.924
21
-3.5065
0
LINE
8
BLACK
6
CONTINUOUS
10
5.924
20
-3.5065
11
5.924
21
-3.4865
0
LINE
8
BLACK
6
CONTINUOUS
10
5.924
20
-3.4865
11
5.944
21
-3.4865
0
LINE
8
BLACK
6
CONTINUOUS
10
5.944
20
-3.4865
11
5.944
21
-3.5065
0
LINE
8
BLACK
6
CONTINUOUS
10
6.044
20
-3.5065
11
6.024
21
-3.5065
0
LINE
8
BLACK
6
CONTINUOUS
10
6.024
20
-3.5065
11
6.024
21
-3.4865
0
LINE
8
BLACK
6
CONTINUOUS
10
6.024
20
-3.4865
11
6.044
21
-3.4865
0
LINE
8
BLACK
6
CONTINUOUS
10
6.044
20
-3.4865
11
6.044
21
-3.5065
0
LINE
8
BLACK
6
CONTINUOUS
10
5.844
20
-3.5065
11
5.824
21
-3.5065
0
LINE
8
BLACK
6
CONTINUOUS
10
5.824
20
-3.5065
11
5.824
21
-3.4865
0
LINE
8
BLACK
6
CONTINUOUS
10
5.824
20
-3.4865
11
5.844
21
-3.4865
0
LINE
8
BLACK
6
CONTINUOUS
10
5.844
20
-3.4865
11
5.844
21
-3.5065
  0
ENDSEC
  0
EOF
