  0
SECTION
  2
HEADER
  9
$ANGBASE
  50
0.0
  9
$ANGDIR
  70
1
  9
$MEASUREMENT
  70
0
  0
ENDSEC
  0
SECTION
  2
TABLES
  0
TABLE
  2
LTYPE
  70
4
  0
LTYPE
  5
40F
  2
CONTINUOUS
  70
0
  3
Solid line
  72
65
  73
0
  40
0.0
  0
LTYPE
  5
410
  2
DASHDOT
 70
0
  3
Dash Dot ____ _ ____ _
 72
65
 73
4
 40
2.0
 49
1.25
 49
-0.25
 49
0.25
 49
-0.25
  0
LTYPE
  5
411
  2
DASHED
 70
0
  3
Dashed __ __ __ __ __
 72
65
 73
2
 40
0.75
 49
0.5
 49
-0.25
  0
LTYPE
  5
43B
  2
DOTTED
 70
0
  3
Dotted .  .  .  .
 72
65
 73
2
 40
0.2
 49
0.0
 49
-0.2
  0
ENDTAB
  0
TABLE
  2
STYLE
  70
4
  0
STYLE
  2
KICAD
  70
0
  40
0
  41
1
  42
1
  50
0
  71
0
  3
isocp.shx
  0
STYLE
  2
KICADB
  70
0
  40
0
  41
1
  42
1
  50
0
  71
0
  3
isocp.shx
  0
STYLE
  2
KICADI
  70
0
  40
0
  41
1
  42
1
  50
15
  71
0
  3
isocp.shx
  0
STYLE
  2
KICADBI
  70
0
  40
0
  41
1
  42
1
  50
15
  71
0
  3
isocp.shx
  0
ENDTAB
  0
TABLE
  2
LAYER
  70
1
  0
LAYER
  2
BLACK
  70
0
  62
7
  6
CONTINUOUS
  0
ENDTAB
  0
ENDSEC
  0
SECTION
  2
ENTITIES
0
LINE
8
BLACK
6
CONTINUOUS
10
5.45381
20
-4.6032
11
5.4679
21
-4.60476
0
LINE
8
BLACK
6
CONTINUOUS
10
5.4679
20
-4.60476
11
5.48173
21
-4.60783
0
LINE
8
BLACK
6
CONTINUOUS
10
5.48173
20
-4.60783
11
5.49515
21
-4.61237
0
LINE
8
BLACK
6
CONTINUOUS
10
5.49515
20
-4.61237
11
5.508
21
-4.61833
0
LINE
8
BLACK
6
CONTINUOUS
10
5.508
20
-4.61833
11
5.52013
21
-4.62565
0
LINE
8
BLACK
6
CONTINUOUS
10
5.52013
20
-4.62565
11
5.5314
21
-4.63424
0
LINE
8
BLACK
6
CONTINUOUS
10
5.5314
20
-4.63424
11
5.54168
21
-4.64399
0
LINE
8
BLACK
6
CONTINUOUS
10
5.54168
20
-4.64399
11
5.55085
21
-4.6548
0
LINE
8
BLACK
6
CONTINUOUS
10
5.55085
20
-4.6548
11
5.55879
21
-4.66653
0
LINE
8
BLACK
6
CONTINUOUS
10
5.55879
20
-4.66653
11
5.56542
21
-4.67905
0
LINE
8
BLACK
6
CONTINUOUS
10
5.56542
20
-4.67905
11
5.57066
21
-4.69222
0
LINE
8
BLACK
6
CONTINUOUS
10
5.57066
20
-4.69222
11
5.57444
21
-4.70587
0
LINE
8
BLACK
6
CONTINUOUS
10
5.57444
20
-4.70587
11
5.57673
21
-4.71985
0
LINE
8
BLACK
6
CONTINUOUS
10
5.57673
20
-4.71985
11
5.5775
21
-4.734
0
LINE
8
BLACK
6
CONTINUOUS
10
5.5775
20
-4.734
11
5.5775
21
-4.73491
0
LINE
8
BLACK
6
CONTINUOUS
10
5.5775
20
-4.73491
11
5.57663
21
-4.74906
0
LINE
8
BLACK
6
CONTINUOUS
10
5.57663
20
-4.74906
11
5.57424
21
-4.76302
0
LINE
8
BLACK
6
CONTINUOUS
10
5.57424
20
-4.76302
11
5.57036
21
-4.77665
0
LINE
8
BLACK
6
CONTINUOUS
10
5.57036
20
-4.77665
11
5.56503
21
-4.78978
0
LINE
8
BLACK
6
CONTINUOUS
10
5.56503
20
-4.78978
11
5.55832
21
-4.80225
0
LINE
8
BLACK
6
CONTINUOUS
10
5.55832
20
-4.80225
11
5.55029
21
-4.81393
0
LINE
8
BLACK
6
CONTINUOUS
10
5.55029
20
-4.81393
11
5.54105
21
-4.82467
0
LINE
8
BLACK
6
CONTINUOUS
10
5.54105
20
-4.82467
11
5.53071
21
-4.83435
0
LINE
8
BLACK
6
CONTINUOUS
10
5.53071
20
-4.83435
11
5.51937
21
-4.84286
0
LINE
8
BLACK
6
CONTINUOUS
10
5.51937
20
-4.84286
11
5.50719
21
-4.85009
0
LINE
8
BLACK
6
CONTINUOUS
10
5.50719
20
-4.85009
11
5.4943
21
-4.85597
0
LINE
8
BLACK
6
CONTINUOUS
10
5.4943
20
-4.85597
11
5.48085
21
-4.86042
0
LINE
8
BLACK
6
CONTINUOUS
10
5.48085
20
-4.86042
11
5.46699
21
-4.86339
0
LINE
8
BLACK
6
CONTINUOUS
10
5.46699
20
-4.86339
11
5.4529
21
-4.86484
0
LINE
8
BLACK
6
CONTINUOUS
10
5.4529
20
-4.86484
11
5.43873
21
-4.86477
0
LINE
8
BLACK
6
CONTINUOUS
10
5.43873
20
-4.86477
11
5.42465
21
-4.86317
0
LINE
8
BLACK
6
CONTINUOUS
10
5.42465
20
-4.86317
11
5.41083
21
-4.86005
0
LINE
8
BLACK
6
CONTINUOUS
10
5.41083
20
-4.86005
11
5.39743
21
-4.85546
0
LINE
8
BLACK
6
CONTINUOUS
10
5.39743
20
-4.85546
11
5.3846
21
-4.84945
0
LINE
8
BLACK
6
CONTINUOUS
10
5.3846
20
-4.84945
11
5.37249
21
-4.84209
0
LINE
8
BLACK
6
CONTINUOUS
10
5.37249
20
-4.84209
11
5.36125
21
-4.83346
0
LINE
8
BLACK
6
CONTINUOUS
10
5.36125
20
-4.83346
11
5.35101
21
-4.82368
0
LINE
8
BLACK
6
CONTINUOUS
10
5.35101
20
-4.82368
11
5.34188
21
-4.81284
0
LINE
8
BLACK
6
CONTINUOUS
10
5.34188
20
-4.81284
11
5.33398
21
-4.80108
0
LINE
8
BLACK
6
CONTINUOUS
10
5.33398
20
-4.80108
11
5.32739
21
-4.78853
0
LINE
8
BLACK
6
CONTINUOUS
10
5.32739
20
-4.78853
11
5.3222
21
-4.77535
0
LINE
8
BLACK
6
CONTINUOUS
10
5.3222
20
-4.77535
11
5.31846
21
-4.76168
0
LINE
8
BLACK
6
CONTINUOUS
10
5.31846
20
-4.76168
11
5.31622
21
-4.74769
0
LINE
8
BLACK
6
CONTINUOUS
10
5.31622
20
-4.74769
11
5.3155
21
-4.73354
0
LINE
8
BLACK
6
CONTINUOUS
10
5.3155
20
-4.73354
11
5.31632
21
-4.7194
0
LINE
8
BLACK
6
CONTINUOUS
10
5.31632
20
-4.7194
11
5.31865
21
-4.70542
0
LINE
8
BLACK
6
CONTINUOUS
10
5.31865
20
-4.70542
11
5.32249
21
-4.69178
0
LINE
8
BLACK
6
CONTINUOUS
10
5.32249
20
-4.69178
11
5.32777
21
-4.67864
0
LINE
8
BLACK
6
CONTINUOUS
10
5.32777
20
-4.67864
11
5.33445
21
-4.66614
0
LINE
8
BLACK
6
CONTINUOUS
10
5.33445
20
-4.66614
11
5.34243
21
-4.65443
0
LINE
8
BLACK
6
CONTINUOUS
10
5.34243
20
-4.65443
11
5.35163
21
-4.64366
0
LINE
8
BLACK
6
CONTINUOUS
10
5.35163
20
-4.64366
11
5.36195
21
-4.63394
0
LINE
8
BLACK
6
CONTINUOUS
10
5.36195
20
-4.63394
11
5.37325
21
-4.6254
0
LINE
8
BLACK
6
CONTINUOUS
10
5.37325
20
-4.6254
11
5.3854
21
-4.61812
0
LINE
8
BLACK
6
CONTINUOUS
10
5.3854
20
-4.61812
11
5.39828
21
-4.6122
0
LINE
8
BLACK
6
CONTINUOUS
10
5.39828
20
-4.6122
11
5.41171
21
-4.6077
0
LINE
8
BLACK
6
CONTINUOUS
10
5.41171
20
-4.6077
11
5.42556
21
-4.60469
0
LINE
8
BLACK
6
CONTINUOUS
10
5.42556
20
-4.60469
11
5.43964
21
-4.60318
0
LINE
8
BLACK
6
CONTINUOUS
10
5.43964
20
-4.60318
11
5.45381
21
-4.6032
0
LINE
8
BLACK
6
CONTINUOUS
10
6.25381
20
-4.6032
11
6.2679
21
-4.60476
0
LINE
8
BLACK
6
CONTINUOUS
10
6.2679
20
-4.60476
11
6.28173
21
-4.60783
0
LINE
8
BLACK
6
CONTINUOUS
10
6.28173
20
-4.60783
11
6.29515
21
-4.61237
0
LINE
8
BLACK
6
CONTINUOUS
10
6.29515
20
-4.61237
11
6.308
21
-4.61833
0
LINE
8
BLACK
6
CONTINUOUS
10
6.308
20
-4.61833
11
6.32013
21
-4.62565
0
LINE
8
BLACK
6
CONTINUOUS
10
6.32013
20
-4.62565
11
6.3314
21
-4.63424
0
LINE
8
BLACK
6
CONTINUOUS
10
6.3314
20
-4.63424
11
6.34168
21
-4.64399
0
LINE
8
BLACK
6
CONTINUOUS
10
6.34168
20
-4.64399
11
6.35085
21
-4.6548
0
LINE
8
BLACK
6
CONTINUOUS
10
6.35085
20
-4.6548
11
6.35879
21
-4.66653
0
LINE
8
BLACK
6
CONTINUOUS
10
6.35879
20
-4.66653
11
6.36542
21
-4.67905
0
LINE
8
BLACK
6
CONTINUOUS
10
6.36542
20
-4.67905
11
6.37066
21
-4.69222
0
LINE
8
BLACK
6
CONTINUOUS
10
6.37066
20
-4.69222
11
6.37444
21
-4.70587
0
LINE
8
BLACK
6
CONTINUOUS
10
6.37444
20
-4.70587
11
6.37673
21
-4.71985
0
LINE
8
BLACK
6
CONTINUOUS
10
6.37673
20
-4.71985
11
6.3775
21
-4.734
0
LINE
8
BLACK
6
CONTINUOUS
10
6.3775
20
-4.734
11
6.3775
21
-4.73491
0
LINE
8
BLACK
6
CONTINUOUS
10
6.3775
20
-4.73491
11
6.37663
21
-4.74906
0
LINE
8
BLACK
6
CONTINUOUS
10
6.37663
20
-4.74906
11
6.37424
21
-4.76302
0
LINE
8
BLACK
6
CONTINUOUS
10
6.37424
20
-4.76302
11
6.37036
21
-4.77665
0
LINE
8
BLACK
6
CONTINUOUS
10
6.37036
20
-4.77665
11
6.36503
21
-4.78978
0
LINE
8
BLACK
6
CONTINUOUS
10
6.36503
20
-4.78978
11
6.35832
21
-4.80225
0
LINE
8
BLACK
6
CONTINUOUS
10
6.35832
20
-4.80225
11
6.35029
21
-4.81393
0
LINE
8
BLACK
6
CONTINUOUS
10
6.35029
20
-4.81393
11
6.34105
21
-4.82467
0
LINE
8
BLACK
6
CONTINUOUS
10
6.34105
20
-4.82467
11
6.33071
21
-4.83435
0
LINE
8
BLACK
6
CONTINUOUS
10
6.33071
20
-4.83435
11
6.31937
21
-4.84286
0
LINE
8
BLACK
6
CONTINUOUS
10
6.31937
20
-4.84286
11
6.30719
21
-4.85009
0
LINE
8
BLACK
6
CONTINUOUS
10
6.30719
20
-4.85009
11
6.2943
21
-4.85597
0
LINE
8
BLACK
6
CONTINUOUS
10
6.2943
20
-4.85597
11
6.28085
21
-4.86042
0
LINE
8
BLACK
6
CONTINUOUS
10
6.28085
20
-4.86042
11
6.26699
21
-4.86339
0
LINE
8
BLACK
6
CONTINUOUS
10
6.26699
20
-4.86339
11
6.2529
21
-4.86484
0
LINE
8
BLACK
6
CONTINUOUS
10
6.2529
20
-4.86484
11
6.23873
21
-4.86477
0
LINE
8
BLACK
6
CONTINUOUS
10
6.23873
20
-4.86477
11
6.22465
21
-4.86317
0
LINE
8
BLACK
6
CONTINUOUS
10
6.22465
20
-4.86317
11
6.21083
21
-4.86005
0
LINE
8
BLACK
6
CONTINUOUS
10
6.21083
20
-4.86005
11
6.19743
21
-4.85546
0
LINE
8
BLACK
6
CONTINUOUS
10
6.19743
20
-4.85546
11
6.1846
21
-4.84945
0
LINE
8
BLACK
6
CONTINUOUS
10
6.1846
20
-4.84945
11
6.17249
21
-4.84209
0
LINE
8
BLACK
6
CONTINUOUS
10
6.17249
20
-4.84209
11
6.16125
21
-4.83346
0
LINE
8
BLACK
6
CONTINUOUS
10
6.16125
20
-4.83346
11
6.15101
21
-4.82368
0
LINE
8
BLACK
6
CONTINUOUS
10
6.15101
20
-4.82368
11
6.14188
21
-4.81284
0
LINE
8
BLACK
6
CONTINUOUS
10
6.14188
20
-4.81284
11
6.13398
21
-4.80108
0
LINE
8
BLACK
6
CONTINUOUS
10
6.13398
20
-4.80108
11
6.12739
21
-4.78853
0
LINE
8
BLACK
6
CONTINUOUS
10
6.12739
20
-4.78853
11
6.1222
21
-4.77535
0
LINE
8
BLACK
6
CONTINUOUS
10
6.1222
20
-4.77535
11
6.11846
21
-4.76168
0
LINE
8
BLACK
6
CONTINUOUS
10
6.11846
20
-4.76168
11
6.11622
21
-4.74769
0
LINE
8
BLACK
6
CONTINUOUS
10
6.11622
20
-4.74769
11
6.1155
21
-4.73354
0
LINE
8
BLACK
6
CONTINUOUS
10
6.1155
20
-4.73354
11
6.11632
21
-4.7194
0
LINE
8
BLACK
6
CONTINUOUS
10
6.11632
20
-4.7194
11
6.11865
21
-4.70542
0
LINE
8
BLACK
6
CONTINUOUS
10
6.11865
20
-4.70542
11
6.12249
21
-4.69178
0
LINE
8
BLACK
6
CONTINUOUS
10
6.12249
20
-4.69178
11
6.12777
21
-4.67864
0
LINE
8
BLACK
6
CONTINUOUS
10
6.12777
20
-4.67864
11
6.13445
21
-4.66614
0
LINE
8
BLACK
6
CONTINUOUS
10
6.13445
20
-4.66614
11
6.14243
21
-4.65443
0
LINE
8
BLACK
6
CONTINUOUS
10
6.14243
20
-4.65443
11
6.15163
21
-4.64366
0
LINE
8
BLACK
6
CONTINUOUS
10
6.15163
20
-4.64366
11
6.16195
21
-4.63394
0
LINE
8
BLACK
6
CONTINUOUS
10
6.16195
20
-4.63394
11
6.17325
21
-4.6254
0
LINE
8
BLACK
6
CONTINUOUS
10
6.17325
20
-4.6254
11
6.1854
21
-4.61812
0
LINE
8
BLACK
6
CONTINUOUS
10
6.1854
20
-4.61812
11
6.19828
21
-4.6122
0
LINE
8
BLACK
6
CONTINUOUS
10
6.19828
20
-4.6122
11
6.21171
21
-4.6077
0
LINE
8
BLACK
6
CONTINUOUS
10
6.21171
20
-4.6077
11
6.22556
21
-4.60469
0
LINE
8
BLACK
6
CONTINUOUS
10
6.22556
20
-4.60469
11
6.23964
21
-4.60318
0
LINE
8
BLACK
6
CONTINUOUS
10
6.23964
20
-4.60318
11
6.25381
21
-4.6032
0
LINE
8
BLACK
6
CONTINUOUS
10
5.7065
20
-4.76308
11
5.70779
21
-4.76395
0
LINE
8
BLACK
6
CONTINUOUS
10
5.70779
20
-4.76395
11
5.70866
21
-4.76524
0
LINE
8
BLACK
6
CONTINUOUS
10
5.70866
20
-4.76524
11
5.70896
21
-4.76678
0
LINE
8
BLACK
6
CONTINUOUS
10
5.70896
20
-4.76678
11
5.70896
21
-4.83764
0
LINE
8
BLACK
6
CONTINUOUS
10
5.70896
20
-4.83764
11
5.70866
21
-4.83917
0
LINE
8
BLACK
6
CONTINUOUS
10
5.70866
20
-4.83917
11
5.70779
21
-4.84047
0
LINE
8
BLACK
6
CONTINUOUS
10
5.70779
20
-4.84047
11
5.7065
21
-4.84134
0
LINE
8
BLACK
6
CONTINUOUS
10
5.7065
20
-4.84134
11
5.70496
21
-4.84164
0
LINE
8
BLACK
6
CONTINUOUS
10
5.70496
20
-4.84164
11
5.63804
21
-4.84164
0
LINE
8
BLACK
6
CONTINUOUS
10
5.63804
20
-4.84164
11
5.6365
21
-4.84134
0
LINE
8
BLACK
6
CONTINUOUS
10
5.6365
20
-4.84134
11
5.63521
21
-4.84047
0
LINE
8
BLACK
6
CONTINUOUS
10
5.63521
20
-4.84047
11
5.63434
21
-4.83917
0
LINE
8
BLACK
6
CONTINUOUS
10
5.63434
20
-4.83917
11
5.63404
21
-4.83764
0
LINE
8
BLACK
6
CONTINUOUS
10
5.63404
20
-4.83764
11
5.63404
21
-4.76678
0
LINE
8
BLACK
6
CONTINUOUS
10
5.63404
20
-4.76678
11
5.63434
21
-4.76524
0
LINE
8
BLACK
6
CONTINUOUS
10
5.63434
20
-4.76524
11
5.63521
21
-4.76395
0
LINE
8
BLACK
6
CONTINUOUS
10
5.63521
20
-4.76395
11
5.6365
21
-4.76308
0
LINE
8
BLACK
6
CONTINUOUS
10
5.6365
20
-4.76308
11
5.63804
21
-4.76278
0
LINE
8
BLACK
6
CONTINUOUS
10
5.63804
20
-4.76278
11
5.70496
21
-4.76278
0
LINE
8
BLACK
6
CONTINUOUS
10
5.70496
20
-4.76278
11
5.7065
21
-4.76308
0
LINE
8
BLACK
6
CONTINUOUS
10
5.81803
20
-4.7228
11
5.81933
21
-4.72367
0
LINE
8
BLACK
6
CONTINUOUS
10
5.81933
20
-4.72367
11
5.8202
21
-4.72497
0
LINE
8
BLACK
6
CONTINUOUS
10
5.8202
20
-4.72497
11
5.8205
21
-4.7265
0
LINE
8
BLACK
6
CONTINUOUS
10
5.8205
20
-4.7265
11
5.8205
21
-4.7915
0
LINE
8
BLACK
6
CONTINUOUS
10
5.8205
20
-4.7915
11
5.8202
21
-4.79303
0
LINE
8
BLACK
6
CONTINUOUS
10
5.8202
20
-4.79303
11
5.81933
21
-4.79433
0
LINE
8
BLACK
6
CONTINUOUS
10
5.81933
20
-4.79433
11
5.81803
21
-4.7952
0
LINE
8
BLACK
6
CONTINUOUS
10
5.81803
20
-4.7952
11
5.8165
21
-4.7955
0
LINE
8
BLACK
6
CONTINUOUS
10
5.8165
20
-4.7955
11
5.7515
21
-4.7955
0
LINE
8
BLACK
6
CONTINUOUS
10
5.7515
20
-4.7955
11
5.74997
21
-4.7952
0
LINE
8
BLACK
6
CONTINUOUS
10
5.74997
20
-4.7952
11
5.74867
21
-4.79433
0
LINE
8
BLACK
6
CONTINUOUS
10
5.74867
20
-4.79433
11
5.7478
21
-4.79303
0
LINE
8
BLACK
6
CONTINUOUS
10
5.7478
20
-4.79303
11
5.7475
21
-4.7915
0
LINE
8
BLACK
6
CONTINUOUS
10
5.7475
20
-4.7915
11
5.7475
21
-4.7265
0
LINE
8
BLACK
6
CONTINUOUS
10
5.7475
20
-4.7265
11
5.7478
21
-4.72497
0
LINE
8
BLACK
6
CONTINUOUS
10
5.7478
20
-4.72497
11
5.74867
21
-4.72367
0
LINE
8
BLACK
6
CONTINUOUS
10
5.74867
20
-4.72367
11
5.74997
21
-4.7228
0
LINE
8
BLACK
6
CONTINUOUS
10
5.74997
20
-4.7228
11
5.7515
21
-4.7225
0
LINE
8
BLACK
6
CONTINUOUS
10
5.7515
20
-4.7225
11
5.8165
21
-4.7225
0
LINE
8
BLACK
6
CONTINUOUS
10
5.8165
20
-4.7225
11
5.81803
21
-4.7228
0
LINE
8
BLACK
6
CONTINUOUS
10
5.91803
20
-4.7228
11
5.91933
21
-4.72367
0
LINE
8
BLACK
6
CONTINUOUS
10
5.91933
20
-4.72367
11
5.9202
21
-4.72497
0
LINE
8
BLACK
6
CONTINUOUS
10
5.9202
20
-4.72497
11
5.9205
21
-4.7265
0
LINE
8
BLACK
6
CONTINUOUS
10
5.9205
20
-4.7265
11
5.9205
21
-4.7915
0
LINE
8
BLACK
6
CONTINUOUS
10
5.9205
20
-4.7915
11
5.9202
21
-4.79303
0
LINE
8
BLACK
6
CONTINUOUS
10
5.9202
20
-4.79303
11
5.91933
21
-4.79433
0
LINE
8
BLACK
6
CONTINUOUS
10
5.91933
20
-4.79433
11
5.91803
21
-4.7952
0
LINE
8
BLACK
6
CONTINUOUS
10
5.91803
20
-4.7952
11
5.9165
21
-4.7955
0
LINE
8
BLACK
6
CONTINUOUS
10
5.9165
20
-4.7955
11
5.8515
21
-4.7955
0
LINE
8
BLACK
6
CONTINUOUS
10
5.8515
20
-4.7955
11
5.84997
21
-4.7952
0
LINE
8
BLACK
6
CONTINUOUS
10
5.84997
20
-4.7952
11
5.84867
21
-4.79433
0
LINE
8
BLACK
6
CONTINUOUS
10
5.84867
20
-4.79433
11
5.8478
21
-4.79303
0
LINE
8
BLACK
6
CONTINUOUS
10
5.8478
20
-4.79303
11
5.8475
21
-4.7915
0
LINE
8
BLACK
6
CONTINUOUS
10
5.8475
20
-4.7915
11
5.8475
21
-4.7265
0
LINE
8
BLACK
6
CONTINUOUS
10
5.8475
20
-4.7265
11
5.8478
21
-4.72497
0
LINE
8
BLACK
6
CONTINUOUS
10
5.8478
20
-4.72497
11
5.84867
21
-4.72367
0
LINE
8
BLACK
6
CONTINUOUS
10
5.84867
20
-4.72367
11
5.84997
21
-4.7228
0
LINE
8
BLACK
6
CONTINUOUS
10
5.84997
20
-4.7228
11
5.8515
21
-4.7225
0
LINE
8
BLACK
6
CONTINUOUS
10
5.8515
20
-4.7225
11
5.9165
21
-4.7225
0
LINE
8
BLACK
6
CONTINUOUS
10
5.9165
20
-4.7225
11
5.91803
21
-4.7228
0
LINE
8
BLACK
6
CONTINUOUS
10
6.01803
20
-4.7228
11
6.01933
21
-4.72367
0
LINE
8
BLACK
6
CONTINUOUS
10
6.01933
20
-4.72367
11
6.0202
21
-4.72497
0
LINE
8
BLACK
6
CONTINUOUS
10
6.0202
20
-4.72497
11
6.0205
21
-4.7265
0
LINE
8
BLACK
6
CONTINUOUS
10
6.0205
20
-4.7265
11
6.0205
21
-4.7915
0
LINE
8
BLACK
6
CONTINUOUS
10
6.0205
20
-4.7915
11
6.0202
21
-4.79303
0
LINE
8
BLACK
6
CONTINUOUS
10
6.0202
20
-4.79303
11
6.01933
21
-4.79433
0
LINE
8
BLACK
6
CONTINUOUS
10
6.01933
20
-4.79433
11
6.01803
21
-4.7952
0
LINE
8
BLACK
6
CONTINUOUS
10
6.01803
20
-4.7952
11
6.0165
21
-4.7955
0
LINE
8
BLACK
6
CONTINUOUS
10
6.0165
20
-4.7955
11
5.9515
21
-4.7955
0
LINE
8
BLACK
6
CONTINUOUS
10
5.9515
20
-4.7955
11
5.94997
21
-4.7952
0
LINE
8
BLACK
6
CONTINUOUS
10
5.94997
20
-4.7952
11
5.94867
21
-4.79433
0
LINE
8
BLACK
6
CONTINUOUS
10
5.94867
20
-4.79433
11
5.9478
21
-4.79303
0
LINE
8
BLACK
6
CONTINUOUS
10
5.9478
20
-4.79303
11
5.9475
21
-4.7915
0
LINE
8
BLACK
6
CONTINUOUS
10
5.9475
20
-4.7915
11
5.9475
21
-4.7265
0
LINE
8
BLACK
6
CONTINUOUS
10
5.9475
20
-4.7265
11
5.9478
21
-4.72497
0
LINE
8
BLACK
6
CONTINUOUS
10
5.9478
20
-4.72497
11
5.94867
21
-4.72367
0
LINE
8
BLACK
6
CONTINUOUS
10
5.94867
20
-4.72367
11
5.94997
21
-4.7228
0
LINE
8
BLACK
6
CONTINUOUS
10
5.94997
20
-4.7228
11
5.9515
21
-4.7225
0
LINE
8
BLACK
6
CONTINUOUS
10
5.9515
20
-4.7225
11
6.0165
21
-4.7225
0
LINE
8
BLACK
6
CONTINUOUS
10
6.0165
20
-4.7225
11
6.01803
21
-4.7228
0
LINE
8
BLACK
6
CONTINUOUS
10
5.81803
20
-4.6228
11
5.81933
21
-4.62367
0
LINE
8
BLACK
6
CONTINUOUS
10
5.81933
20
-4.62367
11
5.8202
21
-4.62497
0
LINE
8
BLACK
6
CONTINUOUS
10
5.8202
20
-4.62497
11
5.8205
21
-4.6265
0
LINE
8
BLACK
6
CONTINUOUS
10
5.8205
20
-4.6265
11
5.8205
21
-4.6915
0
LINE
8
BLACK
6
CONTINUOUS
10
5.8205
20
-4.6915
11
5.8202
21
-4.69303
0
LINE
8
BLACK
6
CONTINUOUS
10
5.8202
20
-4.69303
11
5.81933
21
-4.69433
0
LINE
8
BLACK
6
CONTINUOUS
10
5.81933
20
-4.69433
11
5.81803
21
-4.6952
0
LINE
8
BLACK
6
CONTINUOUS
10
5.81803
20
-4.6952
11
5.8165
21
-4.6955
0
LINE
8
BLACK
6
CONTINUOUS
10
5.8165
20
-4.6955
11
5.7515
21
-4.6955
0
LINE
8
BLACK
6
CONTINUOUS
10
5.7515
20
-4.6955
11
5.74997
21
-4.6952
0
LINE
8
BLACK
6
CONTINUOUS
10
5.74997
20
-4.6952
11
5.74867
21
-4.69433
0
LINE
8
BLACK
6
CONTINUOUS
10
5.74867
20
-4.69433
11
5.7478
21
-4.69303
0
LINE
8
BLACK
6
CONTINUOUS
10
5.7478
20
-4.69303
11
5.7475
21
-4.6915
0
LINE
8
BLACK
6
CONTINUOUS
10
5.7475
20
-4.6915
11
5.7475
21
-4.6265
0
LINE
8
BLACK
6
CONTINUOUS
10
5.7475
20
-4.6265
11
5.7478
21
-4.62497
0
LINE
8
BLACK
6
CONTINUOUS
10
5.7478
20
-4.62497
11
5.74867
21
-4.62367
0
LINE
8
BLACK
6
CONTINUOUS
10
5.74867
20
-4.62367
11
5.74997
21
-4.6228
0
LINE
8
BLACK
6
CONTINUOUS
10
5.74997
20
-4.6228
11
5.7515
21
-4.6225
0
LINE
8
BLACK
6
CONTINUOUS
10
5.7515
20
-4.6225
11
5.8165
21
-4.6225
0
LINE
8
BLACK
6
CONTINUOUS
10
5.8165
20
-4.6225
11
5.81803
21
-4.6228
0
LINE
8
BLACK
6
CONTINUOUS
10
5.91803
20
-4.6228
11
5.91933
21
-4.62367
0
LINE
8
BLACK
6
CONTINUOUS
10
5.91933
20
-4.62367
11
5.9202
21
-4.62497
0
LINE
8
BLACK
6
CONTINUOUS
10
5.9202
20
-4.62497
11
5.9205
21
-4.6265
0
LINE
8
BLACK
6
CONTINUOUS
10
5.9205
20
-4.6265
11
5.9205
21
-4.6915
0
LINE
8
BLACK
6
CONTINUOUS
10
5.9205
20
-4.6915
11
5.9202
21
-4.69303
0
LINE
8
BLACK
6
CONTINUOUS
10
5.9202
20
-4.69303
11
5.91933
21
-4.69433
0
LINE
8
BLACK
6
CONTINUOUS
10
5.91933
20
-4.69433
11
5.91803
21
-4.6952
0
LINE
8
BLACK
6
CONTINUOUS
10
5.91803
20
-4.6952
11
5.9165
21
-4.6955
0
LINE
8
BLACK
6
CONTINUOUS
10
5.9165
20
-4.6955
11
5.8515
21
-4.6955
0
LINE
8
BLACK
6
CONTINUOUS
10
5.8515
20
-4.6955
11
5.84997
21
-4.6952
0
LINE
8
BLACK
6
CONTINUOUS
10
5.84997
20
-4.6952
11
5.84867
21
-4.69433
0
LINE
8
BLACK
6
CONTINUOUS
10
5.84867
20
-4.69433
11
5.8478
21
-4.69303
0
LINE
8
BLACK
6
CONTINUOUS
10
5.8478
20
-4.69303
11
5.8475
21
-4.6915
0
LINE
8
BLACK
6
CONTINUOUS
10
5.8475
20
-4.6915
11
5.8475
21
-4.6265
0
LINE
8
BLACK
6
CONTINUOUS
10
5.8475
20
-4.6265
11
5.8478
21
-4.62497
0
LINE
8
BLACK
6
CONTINUOUS
10
5.8478
20
-4.62497
11
5.84867
21
-4.62367
0
LINE
8
BLACK
6
CONTINUOUS
10
5.84867
20
-4.62367
11
5.84997
21
-4.6228
0
LINE
8
BLACK
6
CONTINUOUS
10
5.84997
20
-4.6228
11
5.8515
21
-4.6225
0
LINE
8
BLACK
6
CONTINUOUS
10
5.8515
20
-4.6225
11
5.9165
21
-4.6225
0
LINE
8
BLACK
6
CONTINUOUS
10
5.9165
20
-4.6225
11
5.91803
21
-4.6228
0
LINE
8
BLACK
6
CONTINUOUS
10
6.01803
20
-4.6228
11
6.01933
21
-4.62367
0
LINE
8
BLACK
6
CONTINUOUS
10
6.01933
20
-4.62367
11
6.0202
21
-4.62497
0
LINE
8
BLACK
6
CONTINUOUS
10
6.0202
20
-4.62497
11
6.0205
21
-4.6265
0
LINE
8
BLACK
6
CONTINUOUS
10
6.0205
20
-4.6265
11
6.0205
21
-4.6915
0
LINE
8
BLACK
6
CONTINUOUS
10
6.0205
20
-4.6915
11
6.0202
21
-4.69303
0
LINE
8
BLACK
6
CONTINUOUS
10
6.0202
20
-4.69303
11
6.01933
21
-4.69433
0
LINE
8
BLACK
6
CONTINUOUS
10
6.01933
20
-4.69433
11
6.01803
21
-4.6952
0
LINE
8
BLACK
6
CONTINUOUS
10
6.01803
20
-4.6952
11
6.0165
21
-4.6955
0
LINE
8
BLACK
6
CONTINUOUS
10
6.0165
20
-4.6955
11
5.9515
21
-4.6955
0
LINE
8
BLACK
6
CONTINUOUS
10
5.9515
20
-4.6955
11
5.94997
21
-4.6952
0
LINE
8
BLACK
6
CONTINUOUS
10
5.94997
20
-4.6952
11
5.94867
21
-4.69433
0
LINE
8
BLACK
6
CONTINUOUS
10
5.94867
20
-4.69433
11
5.9478
21
-4.69303
0
LINE
8
BLACK
6
CONTINUOUS
10
5.9478
20
-4.69303
11
5.9475
21
-4.6915
0
LINE
8
BLACK
6
CONTINUOUS
10
5.9475
20
-4.6915
11
5.9475
21
-4.6265
0
LINE
8
BLACK
6
CONTINUOUS
10
5.9475
20
-4.6265
11
5.9478
21
-4.62497
0
LINE
8
BLACK
6
CONTINUOUS
10
5.9478
20
-4.62497
11
5.94867
21
-4.62367
0
LINE
8
BLACK
6
CONTINUOUS
10
5.94867
20
-4.62367
11
5.94997
21
-4.6228
0
LINE
8
BLACK
6
CONTINUOUS
10
5.94997
20
-4.6228
11
5.9515
21
-4.6225
0
LINE
8
BLACK
6
CONTINUOUS
10
5.9515
20
-4.6225
11
6.0165
21
-4.6225
0
LINE
8
BLACK
6
CONTINUOUS
10
6.0165
20
-4.6225
11
6.01803
21
-4.6228
0
LINE
8
BLACK
6
CONTINUOUS
10
5.7065
20
-4.60166
11
5.70779
21
-4.60253
0
LINE
8
BLACK
6
CONTINUOUS
10
5.70779
20
-4.60253
11
5.70866
21
-4.60383
0
LINE
8
BLACK
6
CONTINUOUS
10
5.70866
20
-4.60383
11
5.70896
21
-4.60536
0
LINE
8
BLACK
6
CONTINUOUS
10
5.70896
20
-4.60536
11
5.70896
21
-4.67622
0
LINE
8
BLACK
6
CONTINUOUS
10
5.70896
20
-4.67622
11
5.70866
21
-4.67776
0
LINE
8
BLACK
6
CONTINUOUS
10
5.70866
20
-4.67776
11
5.70779
21
-4.67905
0
LINE
8
BLACK
6
CONTINUOUS
10
5.70779
20
-4.67905
11
5.7065
21
-4.67992
0
LINE
8
BLACK
6
CONTINUOUS
10
5.7065
20
-4.67992
11
5.70496
21
-4.68022
0
LINE
8
BLACK
6
CONTINUOUS
10
5.70496
20
-4.68022
11
5.63804
21
-4.68022
0
LINE
8
BLACK
6
CONTINUOUS
10
5.63804
20
-4.68022
11
5.6365
21
-4.67992
0
LINE
8
BLACK
6
CONTINUOUS
10
5.6365
20
-4.67992
11
5.63521
21
-4.67905
0
LINE
8
BLACK
6
CONTINUOUS
10
5.63521
20
-4.67905
11
5.63434
21
-4.67776
0
LINE
8
BLACK
6
CONTINUOUS
10
5.63434
20
-4.67776
11
5.63404
21
-4.67622
0
LINE
8
BLACK
6
CONTINUOUS
10
5.63404
20
-4.67622
11
5.63404
21
-4.60536
0
LINE
8
BLACK
6
CONTINUOUS
10
5.63404
20
-4.60536
11
5.63434
21
-4.60383
0
LINE
8
BLACK
6
CONTINUOUS
10
5.63434
20
-4.60383
11
5.63521
21
-4.60253
0
LINE
8
BLACK
6
CONTINUOUS
10
5.63521
20
-4.60253
11
5.6365
21
-4.60166
0
LINE
8
BLACK
6
CONTINUOUS
10
5.6365
20
-4.60166
11
5.63804
21
-4.60136
0
LINE
8
BLACK
6
CONTINUOUS
10
5.63804
20
-4.60136
11
5.70496
21
-4.60136
0
LINE
8
BLACK
6
CONTINUOUS
10
5.70496
20
-4.60136
11
5.7065
21
-4.60166
0
LINE
8
BLACK
6
CONTINUOUS
10
5.55866
20
-4.45088
11
5.55996
21
-4.45174
0
LINE
8
BLACK
6
CONTINUOUS
10
5.55996
20
-4.45174
11
5.56083
21
-4.45304
0
LINE
8
BLACK
6
CONTINUOUS
10
5.56083
20
-4.45304
11
5.56113
21
-4.45457
0
LINE
8
BLACK
6
CONTINUOUS
10
5.56113
20
-4.45457
11
5.56113
21
-4.58843
0
LINE
8
BLACK
6
CONTINUOUS
10
5.56113
20
-4.58843
11
5.56083
21
-4.58996
0
LINE
8
BLACK
6
CONTINUOUS
10
5.56083
20
-4.58996
11
5.55996
21
-4.59126
0
LINE
8
BLACK
6
CONTINUOUS
10
5.55996
20
-4.59126
11
5.55866
21
-4.59212
0
LINE
8
BLACK
6
CONTINUOUS
10
5.55866
20
-4.59212
11
5.55713
21
-4.59243
0
LINE
8
BLACK
6
CONTINUOUS
10
5.55713
20
-4.59243
11
5.48233
21
-4.59243
0
LINE
8
BLACK
6
CONTINUOUS
10
5.48233
20
-4.59243
11
5.4808
21
-4.59212
0
LINE
8
BLACK
6
CONTINUOUS
10
5.4808
20
-4.59212
11
5.4795
21
-4.59126
0
LINE
8
BLACK
6
CONTINUOUS
10
5.4795
20
-4.59126
11
5.47863
21
-4.58996
0
LINE
8
BLACK
6
CONTINUOUS
10
5.47863
20
-4.58996
11
5.47833
21
-4.58843
0
LINE
8
BLACK
6
CONTINUOUS
10
5.47833
20
-4.58843
11
5.47833
21
-4.45457
0
LINE
8
BLACK
6
CONTINUOUS
10
5.47833
20
-4.45457
11
5.47863
21
-4.45304
0
LINE
8
BLACK
6
CONTINUOUS
10
5.47863
20
-4.45304
11
5.4795
21
-4.45174
0
LINE
8
BLACK
6
CONTINUOUS
10
5.4795
20
-4.45174
11
5.4808
21
-4.45088
0
LINE
8
BLACK
6
CONTINUOUS
10
5.4808
20
-4.45088
11
5.48233
21
-4.45057
0
LINE
8
BLACK
6
CONTINUOUS
10
5.48233
20
-4.45057
11
5.55713
21
-4.45057
0
LINE
8
BLACK
6
CONTINUOUS
10
5.55713
20
-4.45057
11
5.55866
21
-4.45088
0
LINE
8
BLACK
6
CONTINUOUS
10
5.7122
20
-4.45088
11
5.7135
21
-4.45174
0
LINE
8
BLACK
6
CONTINUOUS
10
5.7135
20
-4.45174
11
5.71437
21
-4.45304
0
LINE
8
BLACK
6
CONTINUOUS
10
5.71437
20
-4.45304
11
5.71467
21
-4.45457
0
LINE
8
BLACK
6
CONTINUOUS
10
5.71467
20
-4.45457
11
5.71467
21
-4.58843
0
LINE
8
BLACK
6
CONTINUOUS
10
5.71467
20
-4.58843
11
5.71437
21
-4.58996
0
LINE
8
BLACK
6
CONTINUOUS
10
5.71437
20
-4.58996
11
5.7135
21
-4.59126
0
LINE
8
BLACK
6
CONTINUOUS
10
5.7135
20
-4.59126
11
5.7122
21
-4.59212
0
LINE
8
BLACK
6
CONTINUOUS
10
5.7122
20
-4.59212
11
5.71067
21
-4.59243
0
LINE
8
BLACK
6
CONTINUOUS
10
5.71067
20
-4.59243
11
5.63587
21
-4.59243
0
LINE
8
BLACK
6
CONTINUOUS
10
5.63587
20
-4.59243
11
5.63434
21
-4.59212
0
LINE
8
BLACK
6
CONTINUOUS
10
5.63434
20
-4.59212
11
5.63304
21
-4.59126
0
LINE
8
BLACK
6
CONTINUOUS
10
5.63304
20
-4.59126
11
5.63217
21
-4.58996
0
LINE
8
BLACK
6
CONTINUOUS
10
5.63217
20
-4.58996
11
5.63187
21
-4.58843
0
LINE
8
BLACK
6
CONTINUOUS
10
5.63187
20
-4.58843
11
5.63187
21
-4.45457
0
LINE
8
BLACK
6
CONTINUOUS
10
5.63187
20
-4.45457
11
5.63217
21
-4.45304
0
LINE
8
BLACK
6
CONTINUOUS
10
5.63217
20
-4.45304
11
5.63304
21
-4.45174
0
LINE
8
BLACK
6
CONTINUOUS
10
5.63304
20
-4.45174
11
5.63434
21
-4.45088
0
LINE
8
BLACK
6
CONTINUOUS
10
5.63434
20
-4.45088
11
5.63587
21
-4.45057
0
LINE
8
BLACK
6
CONTINUOUS
10
5.63587
20
-4.45057
11
5.71067
21
-4.45057
0
LINE
8
BLACK
6
CONTINUOUS
10
5.71067
20
-4.45057
11
5.7122
21
-4.45088
0
LINE
8
BLACK
6
CONTINUOUS
10
5.41803
20
-4.4728
11
5.41933
21
-4.47367
0
LINE
8
BLACK
6
CONTINUOUS
10
5.41933
20
-4.47367
11
5.4202
21
-4.47497
0
LINE
8
BLACK
6
CONTINUOUS
10
5.4202
20
-4.47497
11
5.4205
21
-4.4765
0
LINE
8
BLACK
6
CONTINUOUS
10
5.4205
20
-4.4765
11
5.4205
21
-4.5415
0
LINE
8
BLACK
6
CONTINUOUS
10
5.4205
20
-4.5415
11
5.4202
21
-4.54303
0
LINE
8
BLACK
6
CONTINUOUS
10
5.4202
20
-4.54303
11
5.41933
21
-4.54433
0
LINE
8
BLACK
6
CONTINUOUS
10
5.41933
20
-4.54433
11
5.41803
21
-4.5452
0
LINE
8
BLACK
6
CONTINUOUS
10
5.41803
20
-4.5452
11
5.4165
21
-4.5455
0
LINE
8
BLACK
6
CONTINUOUS
10
5.4165
20
-4.5455
11
5.3515
21
-4.5455
0
LINE
8
BLACK
6
CONTINUOUS
10
5.3515
20
-4.5455
11
5.34997
21
-4.5452
0
LINE
8
BLACK
6
CONTINUOUS
10
5.34997
20
-4.5452
11
5.34867
21
-4.54433
0
LINE
8
BLACK
6
CONTINUOUS
10
5.34867
20
-4.54433
11
5.3478
21
-4.54303
0
LINE
8
BLACK
6
CONTINUOUS
10
5.3478
20
-4.54303
11
5.3475
21
-4.5415
0
LINE
8
BLACK
6
CONTINUOUS
10
5.3475
20
-4.5415
11
5.3475
21
-4.4765
0
LINE
8
BLACK
6
CONTINUOUS
10
5.3475
20
-4.4765
11
5.3478
21
-4.47497
0
LINE
8
BLACK
6
CONTINUOUS
10
5.3478
20
-4.47497
11
5.34867
21
-4.47367
0
LINE
8
BLACK
6
CONTINUOUS
10
5.34867
20
-4.47367
11
5.34997
21
-4.4728
0
LINE
8
BLACK
6
CONTINUOUS
10
5.34997
20
-4.4728
11
5.3515
21
-4.4725
0
LINE
8
BLACK
6
CONTINUOUS
10
5.3515
20
-4.4725
11
5.4165
21
-4.4725
0
LINE
8
BLACK
6
CONTINUOUS
10
5.4165
20
-4.4725
11
5.41803
21
-4.4728
0
LINE
8
BLACK
6
CONTINUOUS
10
5.41803
20
-4.3728
11
5.41933
21
-4.37367
0
LINE
8
BLACK
6
CONTINUOUS
10
5.41933
20
-4.37367
11
5.4202
21
-4.37497
0
LINE
8
BLACK
6
CONTINUOUS
10
5.4202
20
-4.37497
11
5.4205
21
-4.3765
0
LINE
8
BLACK
6
CONTINUOUS
10
5.4205
20
-4.3765
11
5.4205
21
-4.4415
0
LINE
8
BLACK
6
CONTINUOUS
10
5.4205
20
-4.4415
11
5.4202
21
-4.44303
0
LINE
8
BLACK
6
CONTINUOUS
10
5.4202
20
-4.44303
11
5.41933
21
-4.44433
0
LINE
8
BLACK
6
CONTINUOUS
10
5.41933
20
-4.44433
11
5.41803
21
-4.4452
0
LINE
8
BLACK
6
CONTINUOUS
10
5.41803
20
-4.4452
11
5.4165
21
-4.4455
0
LINE
8
BLACK
6
CONTINUOUS
10
5.4165
20
-4.4455
11
5.3515
21
-4.4455
0
LINE
8
BLACK
6
CONTINUOUS
10
5.3515
20
-4.4455
11
5.34997
21
-4.4452
0
LINE
8
BLACK
6
CONTINUOUS
10
5.34997
20
-4.4452
11
5.34867
21
-4.44433
0
LINE
8
BLACK
6
CONTINUOUS
10
5.34867
20
-4.44433
11
5.3478
21
-4.44303
0
LINE
8
BLACK
6
CONTINUOUS
10
5.3478
20
-4.44303
11
5.3475
21
-4.4415
0
LINE
8
BLACK
6
CONTINUOUS
10
5.3475
20
-4.4415
11
5.3475
21
-4.3765
0
LINE
8
BLACK
6
CONTINUOUS
10
5.3475
20
-4.3765
11
5.3478
21
-4.37497
0
LINE
8
BLACK
6
CONTINUOUS
10
5.3478
20
-4.37497
11
5.34867
21
-4.37367
0
LINE
8
BLACK
6
CONTINUOUS
10
5.34867
20
-4.37367
11
5.34997
21
-4.3728
0
LINE
8
BLACK
6
CONTINUOUS
10
5.34997
20
-4.3728
11
5.3515
21
-4.3725
0
LINE
8
BLACK
6
CONTINUOUS
10
5.3515
20
-4.3725
11
5.4165
21
-4.3725
0
LINE
8
BLACK
6
CONTINUOUS
10
5.4165
20
-4.3725
11
5.41803
21
-4.3728
0
LINE
8
BLACK
6
CONTINUOUS
10
6.2813
20
-4.3181
11
6.2826
21
-4.31897
0
LINE
8
BLACK
6
CONTINUOUS
10
6.2826
20
-4.31897
11
6.28346
21
-4.32026
0
LINE
8
BLACK
6
CONTINUOUS
10
6.28346
20
-4.32026
11
6.28377
21
-4.3218
0
LINE
8
BLACK
6
CONTINUOUS
10
6.28377
20
-4.3218
11
6.28377
21
-4.43991
0
LINE
8
BLACK
6
CONTINUOUS
10
6.28377
20
-4.43991
11
6.28346
21
-4.44144
0
LINE
8
BLACK
6
CONTINUOUS
10
6.28346
20
-4.44144
11
6.2826
21
-4.44273
0
LINE
8
BLACK
6
CONTINUOUS
10
6.2826
20
-4.44273
11
6.2813
21
-4.4436
0
LINE
8
BLACK
6
CONTINUOUS
10
6.2813
20
-4.4436
11
6.27977
21
-4.44391
0
LINE
8
BLACK
6
CONTINUOUS
10
6.27977
20
-4.44391
11
6.06323
21
-4.44391
0
LINE
8
BLACK
6
CONTINUOUS
10
6.06323
20
-4.44391
11
6.0617
21
-4.4436
0
LINE
8
BLACK
6
CONTINUOUS
10
6.0617
20
-4.4436
11
6.0604
21
-4.44273
0
LINE
8
BLACK
6
CONTINUOUS
10
6.0604
20
-4.44273
11
6.05954
21
-4.44144
0
LINE
8
BLACK
6
CONTINUOUS
10
6.05954
20
-4.44144
11
6.05923
21
-4.43991
0
LINE
8
BLACK
6
CONTINUOUS
10
6.05923
20
-4.43991
11
6.05923
21
-4.3218
0
LINE
8
BLACK
6
CONTINUOUS
10
6.05923
20
-4.3218
11
6.05954
21
-4.32026
0
LINE
8
BLACK
6
CONTINUOUS
10
6.05954
20
-4.32026
11
6.0604
21
-4.31897
0
LINE
8
BLACK
6
CONTINUOUS
10
6.0604
20
-4.31897
11
6.0617
21
-4.3181
0
LINE
8
BLACK
6
CONTINUOUS
10
6.0617
20
-4.3181
11
6.06323
21
-4.3178
0
LINE
8
BLACK
6
CONTINUOUS
10
6.06323
20
-4.3178
11
6.27977
21
-4.3178
0
LINE
8
BLACK
6
CONTINUOUS
10
6.27977
20
-4.3178
11
6.2813
21
-4.3181
0
LINE
8
BLACK
6
CONTINUOUS
10
5.55303
20
-4.3303
11
5.55433
21
-4.33117
0
LINE
8
BLACK
6
CONTINUOUS
10
5.55433
20
-4.33117
11
5.5552
21
-4.33247
0
LINE
8
BLACK
6
CONTINUOUS
10
5.5552
20
-4.33247
11
5.5555
21
-4.334
0
LINE
8
BLACK
6
CONTINUOUS
10
5.5555
20
-4.334
11
5.5555
21
-4.434
0
LINE
8
BLACK
6
CONTINUOUS
10
5.5555
20
-4.434
11
5.5552
21
-4.43553
0
LINE
8
BLACK
6
CONTINUOUS
10
5.5552
20
-4.43553
11
5.55433
21
-4.43683
0
LINE
8
BLACK
6
CONTINUOUS
10
5.55433
20
-4.43683
11
5.55303
21
-4.4377
0
LINE
8
BLACK
6
CONTINUOUS
10
5.55303
20
-4.4377
11
5.5515
21
-4.438
0
LINE
8
BLACK
6
CONTINUOUS
10
5.5515
20
-4.438
11
5.4665
21
-4.438
0
LINE
8
BLACK
6
CONTINUOUS
10
5.4665
20
-4.438
11
5.46497
21
-4.4377
0
LINE
8
BLACK
6
CONTINUOUS
10
5.46497
20
-4.4377
11
5.46367
21
-4.43683
0
LINE
8
BLACK
6
CONTINUOUS
10
5.46367
20
-4.43683
11
5.4628
21
-4.43553
0
LINE
8
BLACK
6
CONTINUOUS
10
5.4628
20
-4.43553
11
5.4625
21
-4.434
0
LINE
8
BLACK
6
CONTINUOUS
10
5.4625
20
-4.434
11
5.4625
21
-4.334
0
LINE
8
BLACK
6
CONTINUOUS
10
5.4625
20
-4.334
11
5.4628
21
-4.33247
0
LINE
8
BLACK
6
CONTINUOUS
10
5.4628
20
-4.33247
11
5.46367
21
-4.33117
0
LINE
8
BLACK
6
CONTINUOUS
10
5.46367
20
-4.33117
11
5.46497
21
-4.3303
0
LINE
8
BLACK
6
CONTINUOUS
10
5.46497
20
-4.3303
11
5.4665
21
-4.33
0
LINE
8
BLACK
6
CONTINUOUS
10
5.4665
20
-4.33
11
5.5515
21
-4.33
0
LINE
8
BLACK
6
CONTINUOUS
10
5.5515
20
-4.33
11
5.55303
21
-4.3303
0
LINE
8
BLACK
6
CONTINUOUS
10
5.84263
20
-4.3673
11
5.84393
21
-4.36817
0
LINE
8
BLACK
6
CONTINUOUS
10
5.84393
20
-4.36817
11
5.84479
21
-4.36947
0
LINE
8
BLACK
6
CONTINUOUS
10
5.84479
20
-4.36947
11
5.8451
21
-4.371
0
LINE
8
BLACK
6
CONTINUOUS
10
5.8451
20
-4.371
11
5.8451
21
-4.422
0
LINE
8
BLACK
6
CONTINUOUS
10
5.8451
20
-4.422
11
5.84479
21
-4.42353
0
LINE
8
BLACK
6
CONTINUOUS
10
5.84479
20
-4.42353
11
5.84393
21
-4.42483
0
LINE
8
BLACK
6
CONTINUOUS
10
5.84393
20
-4.42483
11
5.84263
21
-4.4257
0
LINE
8
BLACK
6
CONTINUOUS
10
5.84263
20
-4.4257
11
5.8411
21
-4.426
0
LINE
8
BLACK
6
CONTINUOUS
10
5.8411
20
-4.426
11
5.8021
21
-4.426
0
LINE
8
BLACK
6
CONTINUOUS
10
5.8021
20
-4.426
11
5.80057
21
-4.4257
0
LINE
8
BLACK
6
CONTINUOUS
10
5.80057
20
-4.4257
11
5.79927
21
-4.42483
0
LINE
8
BLACK
6
CONTINUOUS
10
5.79927
20
-4.42483
11
5.7984
21
-4.42353
0
LINE
8
BLACK
6
CONTINUOUS
10
5.7984
20
-4.42353
11
5.7981
21
-4.422
0
LINE
8
BLACK
6
CONTINUOUS
10
5.7981
20
-4.422
11
5.7981
21
-4.371
0
LINE
8
BLACK
6
CONTINUOUS
10
5.7981
20
-4.371
11
5.7984
21
-4.36947
0
LINE
8
BLACK
6
CONTINUOUS
10
5.7984
20
-4.36947
11
5.79927
21
-4.36817
0
LINE
8
BLACK
6
CONTINUOUS
10
5.79927
20
-4.36817
11
5.80057
21
-4.3673
0
LINE
8
BLACK
6
CONTINUOUS
10
5.80057
20
-4.3673
11
5.8021
21
-4.367
0
LINE
8
BLACK
6
CONTINUOUS
10
5.8021
20
-4.367
11
5.8411
21
-4.367
0
LINE
8
BLACK
6
CONTINUOUS
10
5.8411
20
-4.367
11
5.84263
21
-4.3673
0
LINE
8
BLACK
6
CONTINUOUS
10
5.91743
20
-4.3673
11
5.91873
21
-4.36817
0
LINE
8
BLACK
6
CONTINUOUS
10
5.91873
20
-4.36817
11
5.9196
21
-4.36947
0
LINE
8
BLACK
6
CONTINUOUS
10
5.9196
20
-4.36947
11
5.9199
21
-4.371
0
LINE
8
BLACK
6
CONTINUOUS
10
5.9199
20
-4.371
11
5.9199
21
-4.422
0
LINE
8
BLACK
6
CONTINUOUS
10
5.9199
20
-4.422
11
5.9196
21
-4.42353
0
LINE
8
BLACK
6
CONTINUOUS
10
5.9196
20
-4.42353
11
5.91873
21
-4.42483
0
LINE
8
BLACK
6
CONTINUOUS
10
5.91873
20
-4.42483
11
5.91743
21
-4.4257
0
LINE
8
BLACK
6
CONTINUOUS
10
5.91743
20
-4.4257
11
5.9159
21
-4.426
0
LINE
8
BLACK
6
CONTINUOUS
10
5.9159
20
-4.426
11
5.8769
21
-4.426
0
LINE
8
BLACK
6
CONTINUOUS
10
5.8769
20
-4.426
11
5.87537
21
-4.4257
0
LINE
8
BLACK
6
CONTINUOUS
10
5.87537
20
-4.4257
11
5.87407
21
-4.42483
0
LINE
8
BLACK
6
CONTINUOUS
10
5.87407
20
-4.42483
11
5.87321
21
-4.42353
0
LINE
8
BLACK
6
CONTINUOUS
10
5.87321
20
-4.42353
11
5.8729
21
-4.422
0
LINE
8
BLACK
6
CONTINUOUS
10
5.8729
20
-4.422
11
5.8729
21
-4.371
0
LINE
8
BLACK
6
CONTINUOUS
10
5.8729
20
-4.371
11
5.87321
21
-4.36947
0
LINE
8
BLACK
6
CONTINUOUS
10
5.87321
20
-4.36947
11
5.87407
21
-4.36817
0
LINE
8
BLACK
6
CONTINUOUS
10
5.87407
20
-4.36817
11
5.87537
21
-4.3673
0
LINE
8
BLACK
6
CONTINUOUS
10
5.87537
20
-4.3673
11
5.8769
21
-4.367
0
LINE
8
BLACK
6
CONTINUOUS
10
5.8769
20
-4.367
11
5.9159
21
-4.367
0
LINE
8
BLACK
6
CONTINUOUS
10
5.9159
20
-4.367
11
5.91743
21
-4.3673
0
LINE
8
BLACK
6
CONTINUOUS
10
5.41803
20
-4.2728
11
5.41933
21
-4.27367
0
LINE
8
BLACK
6
CONTINUOUS
10
5.41933
20
-4.27367
11
5.4202
21
-4.27497
0
LINE
8
BLACK
6
CONTINUOUS
10
5.4202
20
-4.27497
11
5.4205
21
-4.2765
0
LINE
8
BLACK
6
CONTINUOUS
10
5.4205
20
-4.2765
11
5.4205
21
-4.3415
0
LINE
8
BLACK
6
CONTINUOUS
10
5.4205
20
-4.3415
11
5.4202
21
-4.34303
0
LINE
8
BLACK
6
CONTINUOUS
10
5.4202
20
-4.34303
11
5.41933
21
-4.34433
0
LINE
8
BLACK
6
CONTINUOUS
10
5.41933
20
-4.34433
11
5.41803
21
-4.3452
0
LINE
8
BLACK
6
CONTINUOUS
10
5.41803
20
-4.3452
11
5.4165
21
-4.3455
0
LINE
8
BLACK
6
CONTINUOUS
10
5.4165
20
-4.3455
11
5.3515
21
-4.3455
0
LINE
8
BLACK
6
CONTINUOUS
10
5.3515
20
-4.3455
11
5.34997
21
-4.3452
0
LINE
8
BLACK
6
CONTINUOUS
10
5.34997
20
-4.3452
11
5.34867
21
-4.34433
0
LINE
8
BLACK
6
CONTINUOUS
10
5.34867
20
-4.34433
11
5.3478
21
-4.34303
0
LINE
8
BLACK
6
CONTINUOUS
10
5.3478
20
-4.34303
11
5.3475
21
-4.3415
0
LINE
8
BLACK
6
CONTINUOUS
10
5.3475
20
-4.3415
11
5.3475
21
-4.2765
0
LINE
8
BLACK
6
CONTINUOUS
10
5.3475
20
-4.2765
11
5.3478
21
-4.27497
0
LINE
8
BLACK
6
CONTINUOUS
10
5.3478
20
-4.27497
11
5.34867
21
-4.27367
0
LINE
8
BLACK
6
CONTINUOUS
10
5.34867
20
-4.27367
11
5.34997
21
-4.2728
0
LINE
8
BLACK
6
CONTINUOUS
10
5.34997
20
-4.2728
11
5.3515
21
-4.2725
0
LINE
8
BLACK
6
CONTINUOUS
10
5.3515
20
-4.2725
11
5.4165
21
-4.2725
0
LINE
8
BLACK
6
CONTINUOUS
10
5.4165
20
-4.2725
11
5.41803
21
-4.2728
0
LINE
8
BLACK
6
CONTINUOUS
10
5.78917
20
-4.1305
11
5.79047
21
-4.13137
0
LINE
8
BLACK
6
CONTINUOUS
10
5.79047
20
-4.13137
11
5.79134
21
-4.13267
0
LINE
8
BLACK
6
CONTINUOUS
10
5.79134
20
-4.13267
11
5.79164
21
-4.1342
0
LINE
8
BLACK
6
CONTINUOUS
10
5.79164
20
-4.1342
11
5.79164
21
-4.16766
0
LINE
8
BLACK
6
CONTINUOUS
10
5.79164
20
-4.16766
11
5.79134
21
-4.16919
0
LINE
8
BLACK
6
CONTINUOUS
10
5.79134
20
-4.16919
11
5.79047
21
-4.17049
0
LINE
8
BLACK
6
CONTINUOUS
10
5.79047
20
-4.17049
11
5.78917
21
-4.17136
0
LINE
8
BLACK
6
CONTINUOUS
10
5.78917
20
-4.17136
11
5.78828
21
-4.17154
0
LINE
8
BLACK
6
CONTINUOUS
10
5.78828
20
-4.17154
11
5.79567
21
-4.17154
0
LINE
8
BLACK
6
CONTINUOUS
10
5.79567
20
-4.17154
11
5.79477
21
-4.17136
0
LINE
8
BLACK
6
CONTINUOUS
10
5.79477
20
-4.17136
11
5.79347
21
-4.17049
0
LINE
8
BLACK
6
CONTINUOUS
10
5.79347
20
-4.17049
11
5.79261
21
-4.16919
0
LINE
8
BLACK
6
CONTINUOUS
10
5.79261
20
-4.16919
11
5.7923
21
-4.16766
0
LINE
8
BLACK
6
CONTINUOUS
10
5.7923
20
-4.16766
11
5.7923
21
-4.1342
0
LINE
8
BLACK
6
CONTINUOUS
10
5.7923
20
-4.1342
11
5.79261
21
-4.13267
0
LINE
8
BLACK
6
CONTINUOUS
10
5.79261
20
-4.13267
11
5.79347
21
-4.13137
0
LINE
8
BLACK
6
CONTINUOUS
10
5.79347
20
-4.13137
11
5.79477
21
-4.1305
0
LINE
8
BLACK
6
CONTINUOUS
10
5.79477
20
-4.1305
11
5.7963
21
-4.1302
0
LINE
8
BLACK
6
CONTINUOUS
10
5.7963
20
-4.1302
11
5.80733
21
-4.1302
0
LINE
8
BLACK
6
CONTINUOUS
10
5.80733
20
-4.1302
11
5.80886
21
-4.1305
0
LINE
8
BLACK
6
CONTINUOUS
10
5.80886
20
-4.1305
11
5.81016
21
-4.13137
0
LINE
8
BLACK
6
CONTINUOUS
10
5.81016
20
-4.13137
11
5.81102
21
-4.13267
0
LINE
8
BLACK
6
CONTINUOUS
10
5.81102
20
-4.13267
11
5.81133
21
-4.1342
0
LINE
8
BLACK
6
CONTINUOUS
10
5.81133
20
-4.1342
11
5.81133
21
-4.16766
0
LINE
8
BLACK
6
CONTINUOUS
10
5.81133
20
-4.16766
11
5.81102
21
-4.16919
0
LINE
8
BLACK
6
CONTINUOUS
10
5.81102
20
-4.16919
11
5.81016
21
-4.17049
0
LINE
8
BLACK
6
CONTINUOUS
10
5.81016
20
-4.17049
11
5.80886
21
-4.17136
0
LINE
8
BLACK
6
CONTINUOUS
10
5.80886
20
-4.17136
11
5.80796
21
-4.17154
0
LINE
8
BLACK
6
CONTINUOUS
10
5.80796
20
-4.17154
11
5.81535
21
-4.17154
0
LINE
8
BLACK
6
CONTINUOUS
10
5.81535
20
-4.17154
11
5.81446
21
-4.17136
0
LINE
8
BLACK
6
CONTINUOUS
10
5.81446
20
-4.17136
11
5.81316
21
-4.17049
0
LINE
8
BLACK
6
CONTINUOUS
10
5.81316
20
-4.17049
11
5.81229
21
-4.16919
0
LINE
8
BLACK
6
CONTINUOUS
10
5.81229
20
-4.16919
11
5.81199
21
-4.16766
0
LINE
8
BLACK
6
CONTINUOUS
10
5.81199
20
-4.16766
11
5.81199
21
-4.1342
0
LINE
8
BLACK
6
CONTINUOUS
10
5.81199
20
-4.1342
11
5.81229
21
-4.13267
0
LINE
8
BLACK
6
CONTINUOUS
10
5.81229
20
-4.13267
11
5.81316
21
-4.13137
0
LINE
8
BLACK
6
CONTINUOUS
10
5.81316
20
-4.13137
11
5.81446
21
-4.1305
0
LINE
8
BLACK
6
CONTINUOUS
10
5.81446
20
-4.1305
11
5.81599
21
-4.1302
0
LINE
8
BLACK
6
CONTINUOUS
10
5.81599
20
-4.1302
11
5.82701
21
-4.1302
0
LINE
8
BLACK
6
CONTINUOUS
10
5.82701
20
-4.1302
11
5.82854
21
-4.1305
0
LINE
8
BLACK
6
CONTINUOUS
10
5.82854
20
-4.1305
11
5.82984
21
-4.13137
0
LINE
8
BLACK
6
CONTINUOUS
10
5.82984
20
-4.13137
11
5.83071
21
-4.13267
0
LINE
8
BLACK
6
CONTINUOUS
10
5.83071
20
-4.13267
11
5.83101
21
-4.1342
0
LINE
8
BLACK
6
CONTINUOUS
10
5.83101
20
-4.1342
11
5.83101
21
-4.16766
0
LINE
8
BLACK
6
CONTINUOUS
10
5.83101
20
-4.16766
11
5.83071
21
-4.16919
0
LINE
8
BLACK
6
CONTINUOUS
10
5.83071
20
-4.16919
11
5.82984
21
-4.17049
0
LINE
8
BLACK
6
CONTINUOUS
10
5.82984
20
-4.17049
11
5.82854
21
-4.17136
0
LINE
8
BLACK
6
CONTINUOUS
10
5.82854
20
-4.17136
11
5.82765
21
-4.17154
0
LINE
8
BLACK
6
CONTINUOUS
10
5.82765
20
-4.17154
11
5.83504
21
-4.17154
0
LINE
8
BLACK
6
CONTINUOUS
10
5.83504
20
-4.17154
11
5.83414
21
-4.17136
0
LINE
8
BLACK
6
CONTINUOUS
10
5.83414
20
-4.17136
11
5.83284
21
-4.17049
0
LINE
8
BLACK
6
CONTINUOUS
10
5.83284
20
-4.17049
11
5.83198
21
-4.16919
0
LINE
8
BLACK
6
CONTINUOUS
10
5.83198
20
-4.16919
11
5.83167
21
-4.16766
0
LINE
8
BLACK
6
CONTINUOUS
10
5.83167
20
-4.16766
11
5.83167
21
-4.1342
0
LINE
8
BLACK
6
CONTINUOUS
10
5.83167
20
-4.1342
11
5.83198
21
-4.13267
0
LINE
8
BLACK
6
CONTINUOUS
10
5.83198
20
-4.13267
11
5.83284
21
-4.13137
0
LINE
8
BLACK
6
CONTINUOUS
10
5.83284
20
-4.13137
11
5.83414
21
-4.1305
0
LINE
8
BLACK
6
CONTINUOUS
10
5.83414
20
-4.1305
11
5.83567
21
-4.1302
0
LINE
8
BLACK
6
CONTINUOUS
10
5.83567
20
-4.1302
11
5.8467
21
-4.1302
0
LINE
8
BLACK
6
CONTINUOUS
10
5.8467
20
-4.1302
11
5.84823
21
-4.1305
0
LINE
8
BLACK
6
CONTINUOUS
10
5.84823
20
-4.1305
11
5.84953
21
-4.13137
0
LINE
8
BLACK
6
CONTINUOUS
10
5.84953
20
-4.13137
11
5.85039
21
-4.13267
0
LINE
8
BLACK
6
CONTINUOUS
10
5.85039
20
-4.13267
11
5.8507
21
-4.1342
0
LINE
8
BLACK
6
CONTINUOUS
10
5.8507
20
-4.1342
11
5.8507
21
-4.16766
0
LINE
8
BLACK
6
CONTINUOUS
10
5.8507
20
-4.16766
11
5.85039
21
-4.16919
0
LINE
8
BLACK
6
CONTINUOUS
10
5.85039
20
-4.16919
11
5.84953
21
-4.17049
0
LINE
8
BLACK
6
CONTINUOUS
10
5.84953
20
-4.17049
11
5.84823
21
-4.17136
0
LINE
8
BLACK
6
CONTINUOUS
10
5.84823
20
-4.17136
11
5.84733
21
-4.17154
0
LINE
8
BLACK
6
CONTINUOUS
10
5.84733
20
-4.17154
11
5.85472
21
-4.17154
0
LINE
8
BLACK
6
CONTINUOUS
10
5.85472
20
-4.17154
11
5.85383
21
-4.17136
0
LINE
8
BLACK
6
CONTINUOUS
10
5.85383
20
-4.17136
11
5.85253
21
-4.17049
0
LINE
8
BLACK
6
CONTINUOUS
10
5.85253
20
-4.17049
11
5.85166
21
-4.16919
0
LINE
8
BLACK
6
CONTINUOUS
10
5.85166
20
-4.16919
11
5.85136
21
-4.16766
0
LINE
8
BLACK
6
CONTINUOUS
10
5.85136
20
-4.16766
11
5.85136
21
-4.1342
0
LINE
8
BLACK
6
CONTINUOUS
10
5.85136
20
-4.1342
11
5.85166
21
-4.13267
0
LINE
8
BLACK
6
CONTINUOUS
10
5.85166
20
-4.13267
11
5.85253
21
-4.13137
0
LINE
8
BLACK
6
CONTINUOUS
10
5.85253
20
-4.13137
11
5.85383
21
-4.1305
0
LINE
8
BLACK
6
CONTINUOUS
10
5.85383
20
-4.1305
11
5.85536
21
-4.1302
0
LINE
8
BLACK
6
CONTINUOUS
10
5.85536
20
-4.1302
11
5.86638
21
-4.1302
0
LINE
8
BLACK
6
CONTINUOUS
10
5.86638
20
-4.1302
11
5.86791
21
-4.1305
0
LINE
8
BLACK
6
CONTINUOUS
10
5.86791
20
-4.1305
11
5.86921
21
-4.13137
0
LINE
8
BLACK
6
CONTINUOUS
10
5.86921
20
-4.13137
11
5.87008
21
-4.13267
0
LINE
8
BLACK
6
CONTINUOUS
10
5.87008
20
-4.13267
11
5.87038
21
-4.1342
0
LINE
8
BLACK
6
CONTINUOUS
10
5.87038
20
-4.1342
11
5.87038
21
-4.16766
0
LINE
8
BLACK
6
CONTINUOUS
10
5.87038
20
-4.16766
11
5.87008
21
-4.16919
0
LINE
8
BLACK
6
CONTINUOUS
10
5.87008
20
-4.16919
11
5.86921
21
-4.17049
0
LINE
8
BLACK
6
CONTINUOUS
10
5.86921
20
-4.17049
11
5.86791
21
-4.17136
0
LINE
8
BLACK
6
CONTINUOUS
10
5.86791
20
-4.17136
11
5.86638
21
-4.17166
0
LINE
8
BLACK
6
CONTINUOUS
10
5.86638
20
-4.17166
11
5.86446
21
-4.17166
0
LINE
8
BLACK
6
CONTINUOUS
10
5.86446
20
-4.17166
11
5.86535
21
-4.17184
0
LINE
8
BLACK
6
CONTINUOUS
10
5.86535
20
-4.17184
11
5.86665
21
-4.17271
0
LINE
8
BLACK
6
CONTINUOUS
10
5.86665
20
-4.17271
11
5.86752
21
-4.174
0
LINE
8
BLACK
6
CONTINUOUS
10
5.86752
20
-4.174
11
5.86782
21
-4.17554
0
LINE
8
BLACK
6
CONTINUOUS
10
5.86782
20
-4.17554
11
5.86782
21
-4.17646
0
LINE
8
BLACK
6
CONTINUOUS
10
5.86782
20
-4.17646
11
5.89138
21
-4.17646
0
LINE
8
BLACK
6
CONTINUOUS
10
5.89138
20
-4.17646
11
5.89291
21
-4.17676
0
LINE
8
BLACK
6
CONTINUOUS
10
5.89291
20
-4.17676
11
5.89421
21
-4.17763
0
LINE
8
BLACK
6
CONTINUOUS
10
5.89421
20
-4.17763
11
5.89508
21
-4.17893
0
LINE
8
BLACK
6
CONTINUOUS
10
5.89508
20
-4.17893
11
5.89538
21
-4.18046
0
LINE
8
BLACK
6
CONTINUOUS
10
5.89538
20
-4.18046
11
5.89538
21
-4.1903
0
LINE
8
BLACK
6
CONTINUOUS
10
5.89538
20
-4.1903
11
5.89508
21
-4.19183
0
LINE
8
BLACK
6
CONTINUOUS
10
5.89508
20
-4.19183
11
5.89421
21
-4.19313
0
LINE
8
BLACK
6
CONTINUOUS
10
5.89421
20
-4.19313
11
5.89402
21
-4.19325
0
LINE
8
BLACK
6
CONTINUOUS
10
5.89402
20
-4.19325
11
5.89421
21
-4.19338
0
LINE
8
BLACK
6
CONTINUOUS
10
5.89421
20
-4.19338
11
5.89508
21
-4.19467
0
LINE
8
BLACK
6
CONTINUOUS
10
5.89508
20
-4.19467
11
5.89538
21
-4.1962
0
LINE
8
BLACK
6
CONTINUOUS
10
5.89538
20
-4.1962
11
5.89538
21
-4.20605
0
LINE
8
BLACK
6
CONTINUOUS
10
5.89538
20
-4.20605
11
5.89508
21
-4.20758
0
LINE
8
BLACK
6
CONTINUOUS
10
5.89508
20
-4.20758
11
5.89421
21
-4.20888
0
LINE
8
BLACK
6
CONTINUOUS
10
5.89421
20
-4.20888
11
5.89402
21
-4.209
0
LINE
8
BLACK
6
CONTINUOUS
10
5.89402
20
-4.209
11
5.89421
21
-4.20912
0
LINE
8
BLACK
6
CONTINUOUS
10
5.89421
20
-4.20912
11
5.89508
21
-4.21042
0
LINE
8
BLACK
6
CONTINUOUS
10
5.89508
20
-4.21042
11
5.89538
21
-4.21195
0
LINE
8
BLACK
6
CONTINUOUS
10
5.89538
20
-4.21195
11
5.89538
21
-4.2218
0
LINE
8
BLACK
6
CONTINUOUS
10
5.89538
20
-4.2218
11
5.89508
21
-4.22333
0
LINE
8
BLACK
6
CONTINUOUS
10
5.89508
20
-4.22333
11
5.89421
21
-4.22462
0
LINE
8
BLACK
6
CONTINUOUS
10
5.89421
20
-4.22462
11
5.89402
21
-4.22475
0
LINE
8
BLACK
6
CONTINUOUS
10
5.89402
20
-4.22475
11
5.89421
21
-4.22487
0
LINE
8
BLACK
6
CONTINUOUS
10
5.89421
20
-4.22487
11
5.89508
21
-4.22617
0
LINE
8
BLACK
6
CONTINUOUS
10
5.89508
20
-4.22617
11
5.89538
21
-4.2277
0
LINE
8
BLACK
6
CONTINUOUS
10
5.89538
20
-4.2277
11
5.89538
21
-4.23754
0
LINE
8
BLACK
6
CONTINUOUS
10
5.89538
20
-4.23754
11
5.89508
21
-4.23907
0
LINE
8
BLACK
6
CONTINUOUS
10
5.89508
20
-4.23907
11
5.89421
21
-4.24037
0
LINE
8
BLACK
6
CONTINUOUS
10
5.89421
20
-4.24037
11
5.89291
21
-4.24124
0
LINE
8
BLACK
6
CONTINUOUS
10
5.89291
20
-4.24124
11
5.89138
21
-4.24154
0
LINE
8
BLACK
6
CONTINUOUS
10
5.89138
20
-4.24154
11
5.86782
21
-4.24154
0
LINE
8
BLACK
6
CONTINUOUS
10
5.86782
20
-4.24154
11
5.86782
21
-4.24246
0
LINE
8
BLACK
6
CONTINUOUS
10
5.86782
20
-4.24246
11
5.86752
21
-4.244
0
LINE
8
BLACK
6
CONTINUOUS
10
5.86752
20
-4.244
11
5.86665
21
-4.24529
0
LINE
8
BLACK
6
CONTINUOUS
10
5.86665
20
-4.24529
11
5.86535
21
-4.24616
0
LINE
8
BLACK
6
CONTINUOUS
10
5.86535
20
-4.24616
11
5.86446
21
-4.24634
0
LINE
8
BLACK
6
CONTINUOUS
10
5.86446
20
-4.24634
11
5.86638
21
-4.24634
0
LINE
8
BLACK
6
CONTINUOUS
10
5.86638
20
-4.24634
11
5.86791
21
-4.24664
0
LINE
8
BLACK
6
CONTINUOUS
10
5.86791
20
-4.24664
11
5.86921
21
-4.24751
0
LINE
8
BLACK
6
CONTINUOUS
10
5.86921
20
-4.24751
11
5.87008
21
-4.24881
0
LINE
8
BLACK
6
CONTINUOUS
10
5.87008
20
-4.24881
11
5.87038
21
-4.25034
0
LINE
8
BLACK
6
CONTINUOUS
10
5.87038
20
-4.25034
11
5.87038
21
-4.2838
0
LINE
8
BLACK
6
CONTINUOUS
10
5.87038
20
-4.2838
11
5.87008
21
-4.28533
0
LINE
8
BLACK
6
CONTINUOUS
10
5.87008
20
-4.28533
11
5.86921
21
-4.28663
0
LINE
8
BLACK
6
CONTINUOUS
10
5.86921
20
-4.28663
11
5.86791
21
-4.2875
0
LINE
8
BLACK
6
CONTINUOUS
10
5.86791
20
-4.2875
11
5.86638
21
-4.2878
0
LINE
8
BLACK
6
CONTINUOUS
10
5.86638
20
-4.2878
11
5.85536
21
-4.2878
0
LINE
8
BLACK
6
CONTINUOUS
10
5.85536
20
-4.2878
11
5.85383
21
-4.2875
0
LINE
8
BLACK
6
CONTINUOUS
10
5.85383
20
-4.2875
11
5.85253
21
-4.28663
0
LINE
8
BLACK
6
CONTINUOUS
10
5.85253
20
-4.28663
11
5.85166
21
-4.28533
0
LINE
8
BLACK
6
CONTINUOUS
10
5.85166
20
-4.28533
11
5.85136
21
-4.2838
0
LINE
8
BLACK
6
CONTINUOUS
10
5.85136
20
-4.2838
11
5.85136
21
-4.25034
0
LINE
8
BLACK
6
CONTINUOUS
10
5.85136
20
-4.25034
11
5.85166
21
-4.24881
0
LINE
8
BLACK
6
CONTINUOUS
10
5.85166
20
-4.24881
11
5.85253
21
-4.24751
0
LINE
8
BLACK
6
CONTINUOUS
10
5.85253
20
-4.24751
11
5.85383
21
-4.24664
0
LINE
8
BLACK
6
CONTINUOUS
10
5.85383
20
-4.24664
11
5.85472
21
-4.24646
0
LINE
8
BLACK
6
CONTINUOUS
10
5.85472
20
-4.24646
11
5.84733
21
-4.24646
0
LINE
8
BLACK
6
CONTINUOUS
10
5.84733
20
-4.24646
11
5.84823
21
-4.24664
0
LINE
8
BLACK
6
CONTINUOUS
10
5.84823
20
-4.24664
11
5.84953
21
-4.24751
0
LINE
8
BLACK
6
CONTINUOUS
10
5.84953
20
-4.24751
11
5.85039
21
-4.24881
0
LINE
8
BLACK
6
CONTINUOUS
10
5.85039
20
-4.24881
11
5.8507
21
-4.25034
0
LINE
8
BLACK
6
CONTINUOUS
10
5.8507
20
-4.25034
11
5.8507
21
-4.2838
0
LINE
8
BLACK
6
CONTINUOUS
10
5.8507
20
-4.2838
11
5.85039
21
-4.28533
0
LINE
8
BLACK
6
CONTINUOUS
10
5.85039
20
-4.28533
11
5.84953
21
-4.28663
0
LINE
8
BLACK
6
CONTINUOUS
10
5.84953
20
-4.28663
11
5.84823
21
-4.2875
0
LINE
8
BLACK
6
CONTINUOUS
10
5.84823
20
-4.2875
11
5.8467
21
-4.2878
0
LINE
8
BLACK
6
CONTINUOUS
10
5.8467
20
-4.2878
11
5.83567
21
-4.2878
0
LINE
8
BLACK
6
CONTINUOUS
10
5.83567
20
-4.2878
11
5.83414
21
-4.2875
0
LINE
8
BLACK
6
CONTINUOUS
10
5.83414
20
-4.2875
11
5.83284
21
-4.28663
0
LINE
8
BLACK
6
CONTINUOUS
10
5.83284
20
-4.28663
11
5.83198
21
-4.28533
0
LINE
8
BLACK
6
CONTINUOUS
10
5.83198
20
-4.28533
11
5.83167
21
-4.2838
0
LINE
8
BLACK
6
CONTINUOUS
10
5.83167
20
-4.2838
11
5.83167
21
-4.25034
0
LINE
8
BLACK
6
CONTINUOUS
10
5.83167
20
-4.25034
11
5.83198
21
-4.24881
0
LINE
8
BLACK
6
CONTINUOUS
10
5.83198
20
-4.24881
11
5.83284
21
-4.24751
0
LINE
8
BLACK
6
CONTINUOUS
10
5.83284
20
-4.24751
11
5.83414
21
-4.24664
0
LINE
8
BLACK
6
CONTINUOUS
10
5.83414
20
-4.24664
11
5.83504
21
-4.24646
0
LINE
8
BLACK
6
CONTINUOUS
10
5.83504
20
-4.24646
11
5.82765
21
-4.24646
0
LINE
8
BLACK
6
CONTINUOUS
10
5.82765
20
-4.24646
11
5.82854
21
-4.24664
0
LINE
8
BLACK
6
CONTINUOUS
10
5.82854
20
-4.24664
11
5.82984
21
-4.24751
0
LINE
8
BLACK
6
CONTINUOUS
10
5.82984
20
-4.24751
11
5.83071
21
-4.24881
0
LINE
8
BLACK
6
CONTINUOUS
10
5.83071
20
-4.24881
11
5.83101
21
-4.25034
0
LINE
8
BLACK
6
CONTINUOUS
10
5.83101
20
-4.25034
11
5.83101
21
-4.2838
0
LINE
8
BLACK
6
CONTINUOUS
10
5.83101
20
-4.2838
11
5.83071
21
-4.28533
0
LINE
8
BLACK
6
CONTINUOUS
10
5.83071
20
-4.28533
11
5.82984
21
-4.28663
0
LINE
8
BLACK
6
CONTINUOUS
10
5.82984
20
-4.28663
11
5.82854
21
-4.2875
0
LINE
8
BLACK
6
CONTINUOUS
10
5.82854
20
-4.2875
11
5.82701
21
-4.2878
0
LINE
8
BLACK
6
CONTINUOUS
10
5.82701
20
-4.2878
11
5.81599
21
-4.2878
0
LINE
8
BLACK
6
CONTINUOUS
10
5.81599
20
-4.2878
11
5.81446
21
-4.2875
0
LINE
8
BLACK
6
CONTINUOUS
10
5.81446
20
-4.2875
11
5.81316
21
-4.28663
0
LINE
8
BLACK
6
CONTINUOUS
10
5.81316
20
-4.28663
11
5.81229
21
-4.28533
0
LINE
8
BLACK
6
CONTINUOUS
10
5.81229
20
-4.28533
11
5.81199
21
-4.2838
0
LINE
8
BLACK
6
CONTINUOUS
10
5.81199
20
-4.2838
11
5.81199
21
-4.25034
0
LINE
8
BLACK
6
CONTINUOUS
10
5.81199
20
-4.25034
11
5.81229
21
-4.24881
0
LINE
8
BLACK
6
CONTINUOUS
10
5.81229
20
-4.24881
11
5.81316
21
-4.24751
0
LINE
8
BLACK
6
CONTINUOUS
10
5.81316
20
-4.24751
11
5.81446
21
-4.24664
0
LINE
8
BLACK
6
CONTINUOUS
10
5.81446
20
-4.24664
11
5.81535
21
-4.24646
0
LINE
8
BLACK
6
CONTINUOUS
10
5.81535
20
-4.24646
11
5.80796
21
-4.24646
0
LINE
8
BLACK
6
CONTINUOUS
10
5.80796
20
-4.24646
11
5.80886
21
-4.24664
0
LINE
8
BLACK
6
CONTINUOUS
10
5.80886
20
-4.24664
11
5.81016
21
-4.24751
0
LINE
8
BLACK
6
CONTINUOUS
10
5.81016
20
-4.24751
11
5.81102
21
-4.24881
0
LINE
8
BLACK
6
CONTINUOUS
10
5.81102
20
-4.24881
11
5.81133
21
-4.25034
0
LINE
8
BLACK
6
CONTINUOUS
10
5.81133
20
-4.25034
11
5.81133
21
-4.2838
0
LINE
8
BLACK
6
CONTINUOUS
10
5.81133
20
-4.2838
11
5.81102
21
-4.28533
0
LINE
8
BLACK
6
CONTINUOUS
10
5.81102
20
-4.28533
11
5.81016
21
-4.28663
0
LINE
8
BLACK
6
CONTINUOUS
10
5.81016
20
-4.28663
11
5.80886
21
-4.2875
0
LINE
8
BLACK
6
CONTINUOUS
10
5.80886
20
-4.2875
11
5.80733
21
-4.2878
0
LINE
8
BLACK
6
CONTINUOUS
10
5.80733
20
-4.2878
11
5.7963
21
-4.2878
0
LINE
8
BLACK
6
CONTINUOUS
10
5.7963
20
-4.2878
11
5.79477
21
-4.2875
0
LINE
8
BLACK
6
CONTINUOUS
10
5.79477
20
-4.2875
11
5.79347
21
-4.28663
0
LINE
8
BLACK
6
CONTINUOUS
10
5.79347
20
-4.28663
11
5.79261
21
-4.28533
0
LINE
8
BLACK
6
CONTINUOUS
10
5.79261
20
-4.28533
11
5.7923
21
-4.2838
0
LINE
8
BLACK
6
CONTINUOUS
10
5.7923
20
-4.2838
11
5.7923
21
-4.25034
0
LINE
8
BLACK
6
CONTINUOUS
10
5.7923
20
-4.25034
11
5.79261
21
-4.24881
0
LINE
8
BLACK
6
CONTINUOUS
10
5.79261
20
-4.24881
11
5.79347
21
-4.24751
0
LINE
8
BLACK
6
CONTINUOUS
10
5.79347
20
-4.24751
11
5.79477
21
-4.24664
0
LINE
8
BLACK
6
CONTINUOUS
10
5.79477
20
-4.24664
11
5.79567
21
-4.24646
0
LINE
8
BLACK
6
CONTINUOUS
10
5.79567
20
-4.24646
11
5.78828
21
-4.24646
0
LINE
8
BLACK
6
CONTINUOUS
10
5.78828
20
-4.24646
11
5.78917
21
-4.24664
0
LINE
8
BLACK
6
CONTINUOUS
10
5.78917
20
-4.24664
11
5.79047
21
-4.24751
0
LINE
8
BLACK
6
CONTINUOUS
10
5.79047
20
-4.24751
11
5.79134
21
-4.24881
0
LINE
8
BLACK
6
CONTINUOUS
10
5.79134
20
-4.24881
11
5.79164
21
-4.25034
0
LINE
8
BLACK
6
CONTINUOUS
10
5.79164
20
-4.25034
11
5.79164
21
-4.2838
0
LINE
8
BLACK
6
CONTINUOUS
10
5.79164
20
-4.2838
11
5.79134
21
-4.28533
0
LINE
8
BLACK
6
CONTINUOUS
10
5.79134
20
-4.28533
11
5.79047
21
-4.28663
0
LINE
8
BLACK
6
CONTINUOUS
10
5.79047
20
-4.28663
11
5.78917
21
-4.2875
0
LINE
8
BLACK
6
CONTINUOUS
10
5.78917
20
-4.2875
11
5.78764
21
-4.2878
0
LINE
8
BLACK
6
CONTINUOUS
10
5.78764
20
-4.2878
11
5.77662
21
-4.2878
0
LINE
8
BLACK
6
CONTINUOUS
10
5.77662
20
-4.2878
11
5.77509
21
-4.2875
0
LINE
8
BLACK
6
CONTINUOUS
10
5.77509
20
-4.2875
11
5.77379
21
-4.28663
0
LINE
8
BLACK
6
CONTINUOUS
10
5.77379
20
-4.28663
11
5.77292
21
-4.28533
0
LINE
8
BLACK
6
CONTINUOUS
10
5.77292
20
-4.28533
11
5.77262
21
-4.2838
0
LINE
8
BLACK
6
CONTINUOUS
10
5.77262
20
-4.2838
11
5.77262
21
-4.25034
0
LINE
8
BLACK
6
CONTINUOUS
10
5.77262
20
-4.25034
11
5.77292
21
-4.24881
0
LINE
8
BLACK
6
CONTINUOUS
10
5.77292
20
-4.24881
11
5.77379
21
-4.24751
0
LINE
8
BLACK
6
CONTINUOUS
10
5.77379
20
-4.24751
11
5.77509
21
-4.24664
0
LINE
8
BLACK
6
CONTINUOUS
10
5.77509
20
-4.24664
11
5.77662
21
-4.24634
0
LINE
8
BLACK
6
CONTINUOUS
10
5.77662
20
-4.24634
11
5.77854
21
-4.24634
0
LINE
8
BLACK
6
CONTINUOUS
10
5.77854
20
-4.24634
11
5.77765
21
-4.24616
0
LINE
8
BLACK
6
CONTINUOUS
10
5.77765
20
-4.24616
11
5.77635
21
-4.24529
0
LINE
8
BLACK
6
CONTINUOUS
10
5.77635
20
-4.24529
11
5.77548
21
-4.244
0
LINE
8
BLACK
6
CONTINUOUS
10
5.77548
20
-4.244
11
5.77518
21
-4.24246
0
LINE
8
BLACK
6
CONTINUOUS
10
5.77518
20
-4.24246
11
5.77518
21
-4.24154
0
LINE
8
BLACK
6
CONTINUOUS
10
5.77518
20
-4.24154
11
5.75162
21
-4.24154
0
LINE
8
BLACK
6
CONTINUOUS
10
5.75162
20
-4.24154
11
5.75009
21
-4.24124
0
LINE
8
BLACK
6
CONTINUOUS
10
5.75009
20
-4.24124
11
5.74879
21
-4.24037
0
LINE
8
BLACK
6
CONTINUOUS
10
5.74879
20
-4.24037
11
5.74792
21
-4.23907
0
LINE
8
BLACK
6
CONTINUOUS
10
5.74792
20
-4.23907
11
5.74762
21
-4.23754
0
LINE
8
BLACK
6
CONTINUOUS
10
5.74762
20
-4.23754
11
5.74762
21
-4.2277
0
LINE
8
BLACK
6
CONTINUOUS
10
5.74762
20
-4.2277
11
5.74792
21
-4.22617
0
LINE
8
BLACK
6
CONTINUOUS
10
5.74792
20
-4.22617
11
5.74879
21
-4.22487
0
LINE
8
BLACK
6
CONTINUOUS
10
5.74879
20
-4.22487
11
5.74898
21
-4.22475
0
LINE
8
BLACK
6
CONTINUOUS
10
5.74898
20
-4.22475
11
5.74879
21
-4.22462
0
LINE
8
BLACK
6
CONTINUOUS
10
5.74879
20
-4.22462
11
5.74792
21
-4.22333
0
LINE
8
BLACK
6
CONTINUOUS
10
5.74792
20
-4.22333
11
5.74762
21
-4.2218
0
LINE
8
BLACK
6
CONTINUOUS
10
5.74762
20
-4.2218
11
5.74762
21
-4.21195
0
LINE
8
BLACK
6
CONTINUOUS
10
5.74762
20
-4.21195
11
5.74792
21
-4.21042
0
LINE
8
BLACK
6
CONTINUOUS
10
5.74792
20
-4.21042
11
5.74879
21
-4.20912
0
LINE
8
BLACK
6
CONTINUOUS
10
5.74879
20
-4.20912
11
5.74898
21
-4.209
0
LINE
8
BLACK
6
CONTINUOUS
10
5.74898
20
-4.209
11
5.74879
21
-4.20888
0
LINE
8
BLACK
6
CONTINUOUS
10
5.74879
20
-4.20888
11
5.74792
21
-4.20758
0
LINE
8
BLACK
6
CONTINUOUS
10
5.74792
20
-4.20758
11
5.74762
21
-4.20605
0
LINE
8
BLACK
6
CONTINUOUS
10
5.74762
20
-4.20605
11
5.74762
21
-4.1962
0
LINE
8
BLACK
6
CONTINUOUS
10
5.74762
20
-4.1962
11
5.74792
21
-4.19467
0
LINE
8
BLACK
6
CONTINUOUS
10
5.74792
20
-4.19467
11
5.74879
21
-4.19338
0
LINE
8
BLACK
6
CONTINUOUS
10
5.74879
20
-4.19338
11
5.74898
21
-4.19325
0
LINE
8
BLACK
6
CONTINUOUS
10
5.74898
20
-4.19325
11
5.74879
21
-4.19313
0
LINE
8
BLACK
6
CONTINUOUS
10
5.74879
20
-4.19313
11
5.74792
21
-4.19183
0
LINE
8
BLACK
6
CONTINUOUS
10
5.74792
20
-4.19183
11
5.74762
21
-4.1903
0
LINE
8
BLACK
6
CONTINUOUS
10
5.74762
20
-4.1903
11
5.74762
21
-4.18046
0
LINE
8
BLACK
6
CONTINUOUS
10
5.74762
20
-4.18046
11
5.74792
21
-4.17893
0
LINE
8
BLACK
6
CONTINUOUS
10
5.74792
20
-4.17893
11
5.74879
21
-4.17763
0
LINE
8
BLACK
6
CONTINUOUS
10
5.74879
20
-4.17763
11
5.75009
21
-4.17676
0
LINE
8
BLACK
6
CONTINUOUS
10
5.75009
20
-4.17676
11
5.75162
21
-4.17646
0
LINE
8
BLACK
6
CONTINUOUS
10
5.75162
20
-4.17646
11
5.77518
21
-4.17646
0
LINE
8
BLACK
6
CONTINUOUS
10
5.77518
20
-4.17646
11
5.77518
21
-4.17554
0
LINE
8
BLACK
6
CONTINUOUS
10
5.77518
20
-4.17554
11
5.77548
21
-4.174
0
LINE
8
BLACK
6
CONTINUOUS
10
5.77548
20
-4.174
11
5.77635
21
-4.17271
0
LINE
8
BLACK
6
CONTINUOUS
10
5.77635
20
-4.17271
11
5.77765
21
-4.17184
0
LINE
8
BLACK
6
CONTINUOUS
10
5.77765
20
-4.17184
11
5.77854
21
-4.17166
0
LINE
8
BLACK
6
CONTINUOUS
10
5.77854
20
-4.17166
11
5.77662
21
-4.17166
0
LINE
8
BLACK
6
CONTINUOUS
10
5.77662
20
-4.17166
11
5.77509
21
-4.17136
0
LINE
8
BLACK
6
CONTINUOUS
10
5.77509
20
-4.17136
11
5.77379
21
-4.17049
0
LINE
8
BLACK
6
CONTINUOUS
10
5.77379
20
-4.17049
11
5.77292
21
-4.16919
0
LINE
8
BLACK
6
CONTINUOUS
10
5.77292
20
-4.16919
11
5.77262
21
-4.16766
0
LINE
8
BLACK
6
CONTINUOUS
10
5.77262
20
-4.16766
11
5.77262
21
-4.1342
0
LINE
8
BLACK
6
CONTINUOUS
10
5.77262
20
-4.1342
11
5.77292
21
-4.13267
0
LINE
8
BLACK
6
CONTINUOUS
10
5.77292
20
-4.13267
11
5.77379
21
-4.13137
0
LINE
8
BLACK
6
CONTINUOUS
10
5.77379
20
-4.13137
11
5.77509
21
-4.1305
0
LINE
8
BLACK
6
CONTINUOUS
10
5.77509
20
-4.1305
11
5.77662
21
-4.1302
0
LINE
8
BLACK
6
CONTINUOUS
10
5.77662
20
-4.1302
11
5.78764
21
-4.1302
0
LINE
8
BLACK
6
CONTINUOUS
10
5.78764
20
-4.1302
11
5.78917
21
-4.1305
0
LINE
8
BLACK
6
CONTINUOUS
10
5.4439
20
-4.19802
11
5.44519
21
-4.19889
0
LINE
8
BLACK
6
CONTINUOUS
10
5.44519
20
-4.19889
11
5.44606
21
-4.20019
0
LINE
8
BLACK
6
CONTINUOUS
10
5.44606
20
-4.20019
11
5.44637
21
-4.20172
0
LINE
8
BLACK
6
CONTINUOUS
10
5.44637
20
-4.20172
11
5.44637
21
-4.24109
0
LINE
8
BLACK
6
CONTINUOUS
10
5.44637
20
-4.24109
11
5.44606
21
-4.24262
0
LINE
8
BLACK
6
CONTINUOUS
10
5.44606
20
-4.24262
11
5.44519
21
-4.24392
0
LINE
8
BLACK
6
CONTINUOUS
10
5.44519
20
-4.24392
11
5.4439
21
-4.24478
0
LINE
8
BLACK
6
CONTINUOUS
10
5.4439
20
-4.24478
11
5.44237
21
-4.24509
0
LINE
8
BLACK
6
CONTINUOUS
10
5.44237
20
-4.24509
11
5.38725
21
-4.24509
0
LINE
8
BLACK
6
CONTINUOUS
10
5.38725
20
-4.24509
11
5.38572
21
-4.24478
0
LINE
8
BLACK
6
CONTINUOUS
10
5.38572
20
-4.24478
11
5.38442
21
-4.24392
0
LINE
8
BLACK
6
CONTINUOUS
10
5.38442
20
-4.24392
11
5.38355
21
-4.24262
0
LINE
8
BLACK
6
CONTINUOUS
10
5.38355
20
-4.24262
11
5.38325
21
-4.24109
0
LINE
8
BLACK
6
CONTINUOUS
10
5.38325
20
-4.24109
11
5.38325
21
-4.20172
0
LINE
8
BLACK
6
CONTINUOUS
10
5.38325
20
-4.20172
11
5.38355
21
-4.20019
0
LINE
8
BLACK
6
CONTINUOUS
10
5.38355
20
-4.20019
11
5.38442
21
-4.19889
0
LINE
8
BLACK
6
CONTINUOUS
10
5.38442
20
-4.19889
11
5.38572
21
-4.19802
0
LINE
8
BLACK
6
CONTINUOUS
10
5.38572
20
-4.19802
11
5.38725
21
-4.19772
0
LINE
8
BLACK
6
CONTINUOUS
10
5.38725
20
-4.19772
11
5.44237
21
-4.19772
0
LINE
8
BLACK
6
CONTINUOUS
10
5.44237
20
-4.19772
11
5.4439
21
-4.19802
0
LINE
8
BLACK
6
CONTINUOUS
10
5.55303
20
-4.1303
11
5.55433
21
-4.13117
0
LINE
8
BLACK
6
CONTINUOUS
10
5.55433
20
-4.13117
11
5.5552
21
-4.13247
0
LINE
8
BLACK
6
CONTINUOUS
10
5.5552
20
-4.13247
11
5.5555
21
-4.134
0
LINE
8
BLACK
6
CONTINUOUS
10
5.5555
20
-4.134
11
5.5555
21
-4.234
0
LINE
8
BLACK
6
CONTINUOUS
10
5.5555
20
-4.234
11
5.5552
21
-4.23553
0
LINE
8
BLACK
6
CONTINUOUS
10
5.5552
20
-4.23553
11
5.55433
21
-4.23683
0
LINE
8
BLACK
6
CONTINUOUS
10
5.55433
20
-4.23683
11
5.55303
21
-4.2377
0
LINE
8
BLACK
6
CONTINUOUS
10
5.55303
20
-4.2377
11
5.5515
21
-4.238
0
LINE
8
BLACK
6
CONTINUOUS
10
5.5515
20
-4.238
11
5.4665
21
-4.238
0
LINE
8
BLACK
6
CONTINUOUS
10
5.4665
20
-4.238
11
5.46497
21
-4.2377
0
LINE
8
BLACK
6
CONTINUOUS
10
5.46497
20
-4.2377
11
5.46367
21
-4.23683
0
LINE
8
BLACK
6
CONTINUOUS
10
5.46367
20
-4.23683
11
5.4628
21
-4.23553
0
LINE
8
BLACK
6
CONTINUOUS
10
5.4628
20
-4.23553
11
5.4625
21
-4.234
0
LINE
8
BLACK
6
CONTINUOUS
10
5.4625
20
-4.234
11
5.4625
21
-4.134
0
LINE
8
BLACK
6
CONTINUOUS
10
5.4625
20
-4.134
11
5.4628
21
-4.13247
0
LINE
8
BLACK
6
CONTINUOUS
10
5.4628
20
-4.13247
11
5.46367
21
-4.13117
0
LINE
8
BLACK
6
CONTINUOUS
10
5.46367
20
-4.13117
11
5.46497
21
-4.1303
0
LINE
8
BLACK
6
CONTINUOUS
10
5.46497
20
-4.1303
11
5.4665
21
-4.13
0
LINE
8
BLACK
6
CONTINUOUS
10
5.4665
20
-4.13
11
5.5515
21
-4.13
0
LINE
8
BLACK
6
CONTINUOUS
10
5.5515
20
-4.13
11
5.55303
21
-4.1303
0
LINE
8
BLACK
6
CONTINUOUS
10
5.35728
20
-4.16062
11
5.35858
21
-4.16149
0
LINE
8
BLACK
6
CONTINUOUS
10
5.35858
20
-4.16149
11
5.35945
21
-4.16278
0
LINE
8
BLACK
6
CONTINUOUS
10
5.35945
20
-4.16278
11
5.35975
21
-4.16431
0
LINE
8
BLACK
6
CONTINUOUS
10
5.35975
20
-4.16431
11
5.35975
21
-4.20369
0
LINE
8
BLACK
6
CONTINUOUS
10
5.35975
20
-4.20369
11
5.35945
21
-4.20522
0
LINE
8
BLACK
6
CONTINUOUS
10
5.35945
20
-4.20522
11
5.35858
21
-4.20651
0
LINE
8
BLACK
6
CONTINUOUS
10
5.35858
20
-4.20651
11
5.35728
21
-4.20738
0
LINE
8
BLACK
6
CONTINUOUS
10
5.35728
20
-4.20738
11
5.35575
21
-4.20769
0
LINE
8
BLACK
6
CONTINUOUS
10
5.35575
20
-4.20769
11
5.30063
21
-4.20769
0
LINE
8
BLACK
6
CONTINUOUS
10
5.30063
20
-4.20769
11
5.2991
21
-4.20738
0
LINE
8
BLACK
6
CONTINUOUS
10
5.2991
20
-4.20738
11
5.29781
21
-4.20651
0
LINE
8
BLACK
6
CONTINUOUS
10
5.29781
20
-4.20651
11
5.29694
21
-4.20522
0
LINE
8
BLACK
6
CONTINUOUS
10
5.29694
20
-4.20522
11
5.29663
21
-4.20369
0
LINE
8
BLACK
6
CONTINUOUS
10
5.29663
20
-4.20369
11
5.29663
21
-4.16431
0
LINE
8
BLACK
6
CONTINUOUS
10
5.29663
20
-4.16431
11
5.29694
21
-4.16278
0
LINE
8
BLACK
6
CONTINUOUS
10
5.29694
20
-4.16278
11
5.29781
21
-4.16149
0
LINE
8
BLACK
6
CONTINUOUS
10
5.29781
20
-4.16149
11
5.2991
21
-4.16062
0
LINE
8
BLACK
6
CONTINUOUS
10
5.2991
20
-4.16062
11
5.30063
21
-4.16031
0
LINE
8
BLACK
6
CONTINUOUS
10
5.30063
20
-4.16031
11
5.35575
21
-4.16031
0
LINE
8
BLACK
6
CONTINUOUS
10
5.35575
20
-4.16031
11
5.35728
21
-4.16062
0
LINE
8
BLACK
6
CONTINUOUS
10
5.4439
20
-4.12322
11
5.44519
21
-4.12408
0
LINE
8
BLACK
6
CONTINUOUS
10
5.44519
20
-4.12408
11
5.44606
21
-4.12538
0
LINE
8
BLACK
6
CONTINUOUS
10
5.44606
20
-4.12538
11
5.44637
21
-4.12691
0
LINE
8
BLACK
6
CONTINUOUS
10
5.44637
20
-4.12691
11
5.44637
21
-4.16628
0
LINE
8
BLACK
6
CONTINUOUS
10
5.44637
20
-4.16628
11
5.44606
21
-4.16781
0
LINE
8
BLACK
6
CONTINUOUS
10
5.44606
20
-4.16781
11
5.44519
21
-4.16911
0
LINE
8
BLACK
6
CONTINUOUS
10
5.44519
20
-4.16911
11
5.4439
21
-4.16998
0
LINE
8
BLACK
6
CONTINUOUS
10
5.4439
20
-4.16998
11
5.44237
21
-4.17028
0
LINE
8
BLACK
6
CONTINUOUS
10
5.44237
20
-4.17028
11
5.38725
21
-4.17028
0
LINE
8
BLACK
6
CONTINUOUS
10
5.38725
20
-4.17028
11
5.38572
21
-4.16998
0
LINE
8
BLACK
6
CONTINUOUS
10
5.38572
20
-4.16998
11
5.38442
21
-4.16911
0
LINE
8
BLACK
6
CONTINUOUS
10
5.38442
20
-4.16911
11
5.38355
21
-4.16781
0
LINE
8
BLACK
6
CONTINUOUS
10
5.38355
20
-4.16781
11
5.38325
21
-4.16628
0
LINE
8
BLACK
6
CONTINUOUS
10
5.38325
20
-4.16628
11
5.38325
21
-4.12691
0
LINE
8
BLACK
6
CONTINUOUS
10
5.38325
20
-4.12691
11
5.38355
21
-4.12538
0
LINE
8
BLACK
6
CONTINUOUS
10
5.38355
20
-4.12538
11
5.38442
21
-4.12408
0
LINE
8
BLACK
6
CONTINUOUS
10
5.38442
20
-4.12408
11
5.38572
21
-4.12322
0
LINE
8
BLACK
6
CONTINUOUS
10
5.38572
20
-4.12322
11
5.38725
21
-4.12291
0
LINE
8
BLACK
6
CONTINUOUS
10
5.38725
20
-4.12291
11
5.44237
21
-4.12291
0
LINE
8
BLACK
6
CONTINUOUS
10
5.44237
20
-4.12291
11
5.4439
21
-4.12322
0
LINE
8
BLACK
6
CONTINUOUS
10
5.73603
20
-4.11071
11
5.73733
21
-4.11157
0
LINE
8
BLACK
6
CONTINUOUS
10
5.73733
20
-4.11157
11
5.7382
21
-4.11287
0
LINE
8
BLACK
6
CONTINUOUS
10
5.7382
20
-4.11287
11
5.7385
21
-4.1144
0
LINE
8
BLACK
6
CONTINUOUS
10
5.7385
20
-4.1144
11
5.7385
21
-4.1534
0
LINE
8
BLACK
6
CONTINUOUS
10
5.7385
20
-4.1534
11
5.7382
21
-4.15493
0
LINE
8
BLACK
6
CONTINUOUS
10
5.7382
20
-4.15493
11
5.73733
21
-4.15623
0
LINE
8
BLACK
6
CONTINUOUS
10
5.73733
20
-4.15623
11
5.73603
21
-4.1571
0
LINE
8
BLACK
6
CONTINUOUS
10
5.73603
20
-4.1571
11
5.7345
21
-4.1574
0
LINE
8
BLACK
6
CONTINUOUS
10
5.7345
20
-4.1574
11
5.6835
21
-4.1574
0
LINE
8
BLACK
6
CONTINUOUS
10
5.6835
20
-4.1574
11
5.68197
21
-4.1571
0
LINE
8
BLACK
6
CONTINUOUS
10
5.68197
20
-4.1571
11
5.68067
21
-4.15623
0
LINE
8
BLACK
6
CONTINUOUS
10
5.68067
20
-4.15623
11
5.6798
21
-4.15493
0
LINE
8
BLACK
6
CONTINUOUS
10
5.6798
20
-4.15493
11
5.6795
21
-4.1534
0
LINE
8
BLACK
6
CONTINUOUS
10
5.6795
20
-4.1534
11
5.6795
21
-4.1144
0
LINE
8
BLACK
6
CONTINUOUS
10
5.6795
20
-4.1144
11
5.6798
21
-4.11287
0
LINE
8
BLACK
6
CONTINUOUS
10
5.6798
20
-4.11287
11
5.68067
21
-4.11157
0
LINE
8
BLACK
6
CONTINUOUS
10
5.68067
20
-4.11157
11
5.68197
21
-4.11071
0
LINE
8
BLACK
6
CONTINUOUS
10
5.68197
20
-4.11071
11
5.6835
21
-4.1104
0
LINE
8
BLACK
6
CONTINUOUS
10
5.6835
20
-4.1104
11
5.7345
21
-4.1104
0
LINE
8
BLACK
6
CONTINUOUS
10
5.7345
20
-4.1104
11
5.73603
21
-4.11071
0
LINE
8
BLACK
6
CONTINUOUS
10
5.66103
20
-4.11071
11
5.66233
21
-4.11157
0
LINE
8
BLACK
6
CONTINUOUS
10
5.66233
20
-4.11157
11
5.6632
21
-4.11287
0
LINE
8
BLACK
6
CONTINUOUS
10
5.6632
20
-4.11287
11
5.6635
21
-4.1144
0
LINE
8
BLACK
6
CONTINUOUS
10
5.6635
20
-4.1144
11
5.6635
21
-4.1534
0
LINE
8
BLACK
6
CONTINUOUS
10
5.6635
20
-4.1534
11
5.6632
21
-4.15493
0
LINE
8
BLACK
6
CONTINUOUS
10
5.6632
20
-4.15493
11
5.66233
21
-4.15623
0
LINE
8
BLACK
6
CONTINUOUS
10
5.66233
20
-4.15623
11
5.66103
21
-4.1571
0
LINE
8
BLACK
6
CONTINUOUS
10
5.66103
20
-4.1571
11
5.6595
21
-4.1574
0
LINE
8
BLACK
6
CONTINUOUS
10
5.6595
20
-4.1574
11
5.6085
21
-4.1574
0
LINE
8
BLACK
6
CONTINUOUS
10
5.6085
20
-4.1574
11
5.60697
21
-4.1571
0
LINE
8
BLACK
6
CONTINUOUS
10
5.60697
20
-4.1571
11
5.60567
21
-4.15623
0
LINE
8
BLACK
6
CONTINUOUS
10
5.60567
20
-4.15623
11
5.6048
21
-4.15493
0
LINE
8
BLACK
6
CONTINUOUS
10
5.6048
20
-4.15493
11
5.6045
21
-4.1534
0
LINE
8
BLACK
6
CONTINUOUS
10
5.6045
20
-4.1534
11
5.6045
21
-4.1144
0
LINE
8
BLACK
6
CONTINUOUS
10
5.6045
20
-4.1144
11
5.6048
21
-4.11287
0
LINE
8
BLACK
6
CONTINUOUS
10
5.6048
20
-4.11287
11
5.60567
21
-4.11157
0
LINE
8
BLACK
6
CONTINUOUS
10
5.60567
20
-4.11157
11
5.60697
21
-4.11071
0
LINE
8
BLACK
6
CONTINUOUS
10
5.60697
20
-4.11071
11
5.6085
21
-4.1104
0
LINE
8
BLACK
6
CONTINUOUS
10
5.6085
20
-4.1104
11
5.6595
21
-4.1104
0
LINE
8
BLACK
6
CONTINUOUS
10
5.6595
20
-4.1104
11
5.66103
21
-4.11071
0
LINE
8
BLACK
6
CONTINUOUS
10
5.43053
20
-4.0353
11
5.43183
21
-4.03617
0
LINE
8
BLACK
6
CONTINUOUS
10
5.43183
20
-4.03617
11
5.4327
21
-4.03747
0
LINE
8
BLACK
6
CONTINUOUS
10
5.4327
20
-4.03747
11
5.433
21
-4.039
0
LINE
8
BLACK
6
CONTINUOUS
10
5.433
20
-4.039
11
5.433
21
-4.104
0
LINE
8
BLACK
6
CONTINUOUS
10
5.433
20
-4.104
11
5.4327
21
-4.10553
0
LINE
8
BLACK
6
CONTINUOUS
10
5.4327
20
-4.10553
11
5.43183
21
-4.10683
0
LINE
8
BLACK
6
CONTINUOUS
10
5.43183
20
-4.10683
11
5.43053
21
-4.1077
0
LINE
8
BLACK
6
CONTINUOUS
10
5.43053
20
-4.1077
11
5.429
21
-4.108
0
LINE
8
BLACK
6
CONTINUOUS
10
5.429
20
-4.108
11
5.364
21
-4.108
0
LINE
8
BLACK
6
CONTINUOUS
10
5.364
20
-4.108
11
5.36247
21
-4.1077
0
LINE
8
BLACK
6
CONTINUOUS
10
5.36247
20
-4.1077
11
5.36117
21
-4.10683
0
LINE
8
BLACK
6
CONTINUOUS
10
5.36117
20
-4.10683
11
5.3603
21
-4.10553
0
LINE
8
BLACK
6
CONTINUOUS
10
5.3603
20
-4.10553
11
5.36
21
-4.104
0
LINE
8
BLACK
6
CONTINUOUS
10
5.36
20
-4.104
11
5.36
21
-4.039
0
LINE
8
BLACK
6
CONTINUOUS
10
5.36
20
-4.039
11
5.3603
21
-4.03747
0
LINE
8
BLACK
6
CONTINUOUS
10
5.3603
20
-4.03747
11
5.36117
21
-4.03617
0
LINE
8
BLACK
6
CONTINUOUS
10
5.36117
20
-4.03617
11
5.36247
21
-4.0353
0
LINE
8
BLACK
6
CONTINUOUS
10
5.36247
20
-4.0353
11
5.364
21
-4.035
0
LINE
8
BLACK
6
CONTINUOUS
10
5.364
20
-4.035
11
5.429
21
-4.035
0
LINE
8
BLACK
6
CONTINUOUS
10
5.429
20
-4.035
11
5.43053
21
-4.0353
0
LINE
8
BLACK
6
CONTINUOUS
10
5.53053
20
-4.0353
11
5.53183
21
-4.03617
0
LINE
8
BLACK
6
CONTINUOUS
10
5.53183
20
-4.03617
11
5.5327
21
-4.03747
0
LINE
8
BLACK
6
CONTINUOUS
10
5.5327
20
-4.03747
11
5.533
21
-4.039
0
LINE
8
BLACK
6
CONTINUOUS
10
5.533
20
-4.039
11
5.533
21
-4.104
0
LINE
8
BLACK
6
CONTINUOUS
10
5.533
20
-4.104
11
5.5327
21
-4.10553
0
LINE
8
BLACK
6
CONTINUOUS
10
5.5327
20
-4.10553
11
5.53183
21
-4.10683
0
LINE
8
BLACK
6
CONTINUOUS
10
5.53183
20
-4.10683
11
5.53053
21
-4.1077
0
LINE
8
BLACK
6
CONTINUOUS
10
5.53053
20
-4.1077
11
5.529
21
-4.108
0
LINE
8
BLACK
6
CONTINUOUS
10
5.529
20
-4.108
11
5.464
21
-4.108
0
LINE
8
BLACK
6
CONTINUOUS
10
5.464
20
-4.108
11
5.46247
21
-4.1077
0
LINE
8
BLACK
6
CONTINUOUS
10
5.46247
20
-4.1077
11
5.46117
21
-4.10683
0
LINE
8
BLACK
6
CONTINUOUS
10
5.46117
20
-4.10683
11
5.4603
21
-4.10553
0
LINE
8
BLACK
6
CONTINUOUS
10
5.4603
20
-4.10553
11
5.46
21
-4.104
0
LINE
8
BLACK
6
CONTINUOUS
10
5.46
20
-4.104
11
5.46
21
-4.039
0
LINE
8
BLACK
6
CONTINUOUS
10
5.46
20
-4.039
11
5.4603
21
-4.03747
0
LINE
8
BLACK
6
CONTINUOUS
10
5.4603
20
-4.03747
11
5.46117
21
-4.03617
0
LINE
8
BLACK
6
CONTINUOUS
10
5.46117
20
-4.03617
11
5.46247
21
-4.0353
0
LINE
8
BLACK
6
CONTINUOUS
10
5.46247
20
-4.0353
11
5.464
21
-4.035
0
LINE
8
BLACK
6
CONTINUOUS
10
5.464
20
-4.035
11
5.529
21
-4.035
0
LINE
8
BLACK
6
CONTINUOUS
10
5.529
20
-4.035
11
5.53053
21
-4.0353
0
LINE
8
BLACK
6
CONTINUOUS
10
5.66103
20
-4.0359
11
5.66233
21
-4.03677
0
LINE
8
BLACK
6
CONTINUOUS
10
5.66233
20
-4.03677
11
5.6632
21
-4.03807
0
LINE
8
BLACK
6
CONTINUOUS
10
5.6632
20
-4.03807
11
5.6635
21
-4.0396
0
LINE
8
BLACK
6
CONTINUOUS
10
5.6635
20
-4.0396
11
5.6635
21
-4.0786
0
LINE
8
BLACK
6
CONTINUOUS
10
5.6635
20
-4.0786
11
5.6632
21
-4.08013
0
LINE
8
BLACK
6
CONTINUOUS
10
5.6632
20
-4.08013
11
5.66233
21
-4.08143
0
LINE
8
BLACK
6
CONTINUOUS
10
5.66233
20
-4.08143
11
5.66103
21
-4.08229
0
LINE
8
BLACK
6
CONTINUOUS
10
5.66103
20
-4.08229
11
5.6595
21
-4.0826
0
LINE
8
BLACK
6
CONTINUOUS
10
5.6595
20
-4.0826
11
5.6085
21
-4.0826
0
LINE
8
BLACK
6
CONTINUOUS
10
5.6085
20
-4.0826
11
5.60697
21
-4.08229
0
LINE
8
BLACK
6
CONTINUOUS
10
5.60697
20
-4.08229
11
5.60567
21
-4.08143
0
LINE
8
BLACK
6
CONTINUOUS
10
5.60567
20
-4.08143
11
5.6048
21
-4.08013
0
LINE
8
BLACK
6
CONTINUOUS
10
5.6048
20
-4.08013
11
5.6045
21
-4.0786
0
LINE
8
BLACK
6
CONTINUOUS
10
5.6045
20
-4.0786
11
5.6045
21
-4.0396
0
LINE
8
BLACK
6
CONTINUOUS
10
5.6045
20
-4.0396
11
5.6048
21
-4.03807
0
LINE
8
BLACK
6
CONTINUOUS
10
5.6048
20
-4.03807
11
5.60567
21
-4.03677
0
LINE
8
BLACK
6
CONTINUOUS
10
5.60567
20
-4.03677
11
5.60697
21
-4.0359
0
LINE
8
BLACK
6
CONTINUOUS
10
5.60697
20
-4.0359
11
5.6085
21
-4.0356
0
LINE
8
BLACK
6
CONTINUOUS
10
5.6085
20
-4.0356
11
5.6595
21
-4.0356
0
LINE
8
BLACK
6
CONTINUOUS
10
5.6595
20
-4.0356
11
5.66103
21
-4.0359
0
LINE
8
BLACK
6
CONTINUOUS
10
5.73603
20
-4.0359
11
5.73733
21
-4.03677
0
LINE
8
BLACK
6
CONTINUOUS
10
5.73733
20
-4.03677
11
5.7382
21
-4.03807
0
LINE
8
BLACK
6
CONTINUOUS
10
5.7382
20
-4.03807
11
5.7385
21
-4.0396
0
LINE
8
BLACK
6
CONTINUOUS
10
5.7385
20
-4.0396
11
5.7385
21
-4.0786
0
LINE
8
BLACK
6
CONTINUOUS
10
5.7385
20
-4.0786
11
5.7382
21
-4.08013
0
LINE
8
BLACK
6
CONTINUOUS
10
5.7382
20
-4.08013
11
5.73733
21
-4.08143
0
LINE
8
BLACK
6
CONTINUOUS
10
5.73733
20
-4.08143
11
5.73603
21
-4.08229
0
LINE
8
BLACK
6
CONTINUOUS
10
5.73603
20
-4.08229
11
5.7345
21
-4.0826
0
LINE
8
BLACK
6
CONTINUOUS
10
5.7345
20
-4.0826
11
5.6835
21
-4.0826
0
LINE
8
BLACK
6
CONTINUOUS
10
5.6835
20
-4.0826
11
5.68197
21
-4.08229
0
LINE
8
BLACK
6
CONTINUOUS
10
5.68197
20
-4.08229
11
5.68067
21
-4.08143
0
LINE
8
BLACK
6
CONTINUOUS
10
5.68067
20
-4.08143
11
5.6798
21
-4.08013
0
LINE
8
BLACK
6
CONTINUOUS
10
5.6798
20
-4.08013
11
5.6795
21
-4.0786
0
LINE
8
BLACK
6
CONTINUOUS
10
5.6795
20
-4.0786
11
5.6795
21
-4.0396
0
LINE
8
BLACK
6
CONTINUOUS
10
5.6795
20
-4.0396
11
5.6798
21
-4.03807
0
LINE
8
BLACK
6
CONTINUOUS
10
5.6798
20
-4.03807
11
5.68067
21
-4.03677
0
LINE
8
BLACK
6
CONTINUOUS
10
5.68067
20
-4.03677
11
5.68197
21
-4.0359
0
LINE
8
BLACK
6
CONTINUOUS
10
5.68197
20
-4.0359
11
5.6835
21
-4.0356
0
LINE
8
BLACK
6
CONTINUOUS
10
5.6835
20
-4.0356
11
5.7345
21
-4.0356
0
LINE
8
BLACK
6
CONTINUOUS
10
5.7345
20
-4.0356
11
5.73603
21
-4.0359
0
LINE
8
BLACK
6
CONTINUOUS
10
6.2813
20
-3.9244
11
6.2826
21
-3.92527
0
LINE
8
BLACK
6
CONTINUOUS
10
6.2826
20
-3.92527
11
6.28346
21
-3.92656
0
LINE
8
BLACK
6
CONTINUOUS
10
6.28346
20
-3.92656
11
6.28377
21
-3.92809
0
LINE
8
BLACK
6
CONTINUOUS
10
6.28377
20
-3.92809
11
6.28377
21
-4.0462
0
LINE
8
BLACK
6
CONTINUOUS
10
6.28377
20
-4.0462
11
6.28346
21
-4.04774
0
LINE
8
BLACK
6
CONTINUOUS
10
6.28346
20
-4.04774
11
6.2826
21
-4.04903
0
LINE
8
BLACK
6
CONTINUOUS
10
6.2826
20
-4.04903
11
6.2813
21
-4.0499
0
LINE
8
BLACK
6
CONTINUOUS
10
6.2813
20
-4.0499
11
6.27977
21
-4.0502
0
LINE
8
BLACK
6
CONTINUOUS
10
6.27977
20
-4.0502
11
6.06323
21
-4.0502
0
LINE
8
BLACK
6
CONTINUOUS
10
6.06323
20
-4.0502
11
6.0617
21
-4.0499
0
LINE
8
BLACK
6
CONTINUOUS
10
6.0617
20
-4.0499
11
6.0604
21
-4.04903
0
LINE
8
BLACK
6
CONTINUOUS
10
6.0604
20
-4.04903
11
6.05954
21
-4.04774
0
LINE
8
BLACK
6
CONTINUOUS
10
6.05954
20
-4.04774
11
6.05923
21
-4.0462
0
LINE
8
BLACK
6
CONTINUOUS
10
6.05923
20
-4.0462
11
6.05923
21
-3.92809
0
LINE
8
BLACK
6
CONTINUOUS
10
6.05923
20
-3.92809
11
6.05954
21
-3.92656
0
LINE
8
BLACK
6
CONTINUOUS
10
6.05954
20
-3.92656
11
6.0604
21
-3.92527
0
LINE
8
BLACK
6
CONTINUOUS
10
6.0604
20
-3.92527
11
6.0617
21
-3.9244
0
LINE
8
BLACK
6
CONTINUOUS
10
6.0617
20
-3.9244
11
6.06323
21
-3.92409
0
LINE
8
BLACK
6
CONTINUOUS
10
6.06323
20
-3.92409
11
6.27977
21
-3.92409
0
LINE
8
BLACK
6
CONTINUOUS
10
6.27977
20
-3.92409
11
6.2813
21
-3.9244
0
LINE
8
BLACK
6
CONTINUOUS
10
5.79853
20
-3.99821
11
5.79983
21
-3.99907
0
LINE
8
BLACK
6
CONTINUOUS
10
5.79983
20
-3.99907
11
5.8007
21
-4.00037
0
LINE
8
BLACK
6
CONTINUOUS
10
5.8007
20
-4.00037
11
5.801
21
-4.0019
0
LINE
8
BLACK
6
CONTINUOUS
10
5.801
20
-4.0019
11
5.801
21
-4.0409
0
LINE
8
BLACK
6
CONTINUOUS
10
5.801
20
-4.0409
11
5.8007
21
-4.04243
0
LINE
8
BLACK
6
CONTINUOUS
10
5.8007
20
-4.04243
11
5.79983
21
-4.04373
0
LINE
8
BLACK
6
CONTINUOUS
10
5.79983
20
-4.04373
11
5.79853
21
-4.0446
0
LINE
8
BLACK
6
CONTINUOUS
10
5.79853
20
-4.0446
11
5.797
21
-4.0449
0
LINE
8
BLACK
6
CONTINUOUS
10
5.797
20
-4.0449
11
5.746
21
-4.0449
0
LINE
8
BLACK
6
CONTINUOUS
10
5.746
20
-4.0449
11
5.74447
21
-4.0446
0
LINE
8
BLACK
6
CONTINUOUS
10
5.74447
20
-4.0446
11
5.74317
21
-4.04373
0
LINE
8
BLACK
6
CONTINUOUS
10
5.74317
20
-4.04373
11
5.7423
21
-4.04243
0
LINE
8
BLACK
6
CONTINUOUS
10
5.7423
20
-4.04243
11
5.742
21
-4.0409
0
LINE
8
BLACK
6
CONTINUOUS
10
5.742
20
-4.0409
11
5.742
21
-4.0019
0
LINE
8
BLACK
6
CONTINUOUS
10
5.742
20
-4.0019
11
5.7423
21
-4.00037
0
LINE
8
BLACK
6
CONTINUOUS
10
5.7423
20
-4.00037
11
5.74317
21
-3.99907
0
LINE
8
BLACK
6
CONTINUOUS
10
5.74317
20
-3.99907
11
5.74447
21
-3.99821
0
LINE
8
BLACK
6
CONTINUOUS
10
5.74447
20
-3.99821
11
5.746
21
-3.9979
0
LINE
8
BLACK
6
CONTINUOUS
10
5.746
20
-3.9979
11
5.797
21
-3.9979
0
LINE
8
BLACK
6
CONTINUOUS
10
5.797
20
-3.9979
11
5.79853
21
-3.99821
0
LINE
8
BLACK
6
CONTINUOUS
10
5.53053
20
-3.9353
11
5.53183
21
-3.93617
0
LINE
8
BLACK
6
CONTINUOUS
10
5.53183
20
-3.93617
11
5.5327
21
-3.93747
0
LINE
8
BLACK
6
CONTINUOUS
10
5.5327
20
-3.93747
11
5.533
21
-3.939
0
LINE
8
BLACK
6
CONTINUOUS
10
5.533
20
-3.939
11
5.533
21
-4.004
0
LINE
8
BLACK
6
CONTINUOUS
10
5.533
20
-4.004
11
5.5327
21
-4.00553
0
LINE
8
BLACK
6
CONTINUOUS
10
5.5327
20
-4.00553
11
5.53183
21
-4.00683
0
LINE
8
BLACK
6
CONTINUOUS
10
5.53183
20
-4.00683
11
5.53053
21
-4.0077
0
LINE
8
BLACK
6
CONTINUOUS
10
5.53053
20
-4.0077
11
5.529
21
-4.008
0
LINE
8
BLACK
6
CONTINUOUS
10
5.529
20
-4.008
11
5.464
21
-4.008
0
LINE
8
BLACK
6
CONTINUOUS
10
5.464
20
-4.008
11
5.46247
21
-4.0077
0
LINE
8
BLACK
6
CONTINUOUS
10
5.46247
20
-4.0077
11
5.46117
21
-4.00683
0
LINE
8
BLACK
6
CONTINUOUS
10
5.46117
20
-4.00683
11
5.4603
21
-4.00553
0
LINE
8
BLACK
6
CONTINUOUS
10
5.4603
20
-4.00553
11
5.46
21
-4.004
0
LINE
8
BLACK
6
CONTINUOUS
10
5.46
20
-4.004
11
5.46
21
-3.939
0
LINE
8
BLACK
6
CONTINUOUS
10
5.46
20
-3.939
11
5.4603
21
-3.93747
0
LINE
8
BLACK
6
CONTINUOUS
10
5.4603
20
-3.93747
11
5.46117
21
-3.93617
0
LINE
8
BLACK
6
CONTINUOUS
10
5.46117
20
-3.93617
11
5.46247
21
-3.9353
0
LINE
8
BLACK
6
CONTINUOUS
10
5.46247
20
-3.9353
11
5.464
21
-3.935
0
LINE
8
BLACK
6
CONTINUOUS
10
5.464
20
-3.935
11
5.529
21
-3.935
0
LINE
8
BLACK
6
CONTINUOUS
10
5.529
20
-3.935
11
5.53053
21
-3.9353
0
LINE
8
BLACK
6
CONTINUOUS
10
5.43053
20
-3.9353
11
5.43183
21
-3.93617
0
LINE
8
BLACK
6
CONTINUOUS
10
5.43183
20
-3.93617
11
5.4327
21
-3.93747
0
LINE
8
BLACK
6
CONTINUOUS
10
5.4327
20
-3.93747
11
5.433
21
-3.939
0
LINE
8
BLACK
6
CONTINUOUS
10
5.433
20
-3.939
11
5.433
21
-4.004
0
LINE
8
BLACK
6
CONTINUOUS
10
5.433
20
-4.004
11
5.4327
21
-4.00553
0
LINE
8
BLACK
6
CONTINUOUS
10
5.4327
20
-4.00553
11
5.43183
21
-4.00683
0
LINE
8
BLACK
6
CONTINUOUS
10
5.43183
20
-4.00683
11
5.43053
21
-4.0077
0
LINE
8
BLACK
6
CONTINUOUS
10
5.43053
20
-4.0077
11
5.429
21
-4.008
0
LINE
8
BLACK
6
CONTINUOUS
10
5.429
20
-4.008
11
5.364
21
-4.008
0
LINE
8
BLACK
6
CONTINUOUS
10
5.364
20
-4.008
11
5.36247
21
-4.0077
0
LINE
8
BLACK
6
CONTINUOUS
10
5.36247
20
-4.0077
11
5.36117
21
-4.00683
0
LINE
8
BLACK
6
CONTINUOUS
10
5.36117
20
-4.00683
11
5.3603
21
-4.00553
0
LINE
8
BLACK
6
CONTINUOUS
10
5.3603
20
-4.00553
11
5.36
21
-4.004
0
LINE
8
BLACK
6
CONTINUOUS
10
5.36
20
-4.004
11
5.36
21
-3.939
0
LINE
8
BLACK
6
CONTINUOUS
10
5.36
20
-3.939
11
5.3603
21
-3.93747
0
LINE
8
BLACK
6
CONTINUOUS
10
5.3603
20
-3.93747
11
5.36117
21
-3.93617
0
LINE
8
BLACK
6
CONTINUOUS
10
5.36117
20
-3.93617
11
5.36247
21
-3.9353
0
LINE
8
BLACK
6
CONTINUOUS
10
5.36247
20
-3.9353
11
5.364
21
-3.935
0
LINE
8
BLACK
6
CONTINUOUS
10
5.364
20
-3.935
11
5.429
21
-3.935
0
LINE
8
BLACK
6
CONTINUOUS
10
5.429
20
-3.935
11
5.43053
21
-3.9353
0
LINE
8
BLACK
6
CONTINUOUS
10
5.60513
20
-3.9423
11
5.60643
21
-3.94317
0
LINE
8
BLACK
6
CONTINUOUS
10
5.60643
20
-3.94317
11
5.60729
21
-3.94447
0
LINE
8
BLACK
6
CONTINUOUS
10
5.60729
20
-3.94447
11
5.6076
21
-3.946
0
LINE
8
BLACK
6
CONTINUOUS
10
5.6076
20
-3.946
11
5.6076
21
-3.997
0
LINE
8
BLACK
6
CONTINUOUS
10
5.6076
20
-3.997
11
5.60729
21
-3.99853
0
LINE
8
BLACK
6
CONTINUOUS
10
5.60729
20
-3.99853
11
5.60643
21
-3.99983
0
LINE
8
BLACK
6
CONTINUOUS
10
5.60643
20
-3.99983
11
5.60513
21
-4.0007
0
LINE
8
BLACK
6
CONTINUOUS
10
5.60513
20
-4.0007
11
5.6036
21
-4.001
0
LINE
8
BLACK
6
CONTINUOUS
10
5.6036
20
-4.001
11
5.5646
21
-4.001
0
LINE
8
BLACK
6
CONTINUOUS
10
5.5646
20
-4.001
11
5.56307
21
-4.0007
0
LINE
8
BLACK
6
CONTINUOUS
10
5.56307
20
-4.0007
11
5.56177
21
-3.99983
0
LINE
8
BLACK
6
CONTINUOUS
10
5.56177
20
-3.99983
11
5.5609
21
-3.99853
0
LINE
8
BLACK
6
CONTINUOUS
10
5.5609
20
-3.99853
11
5.5606
21
-3.997
0
LINE
8
BLACK
6
CONTINUOUS
10
5.5606
20
-3.997
11
5.5606
21
-3.946
0
LINE
8
BLACK
6
CONTINUOUS
10
5.5606
20
-3.946
11
5.5609
21
-3.94447
0
LINE
8
BLACK
6
CONTINUOUS
10
5.5609
20
-3.94447
11
5.56177
21
-3.94317
0
LINE
8
BLACK
6
CONTINUOUS
10
5.56177
20
-3.94317
11
5.56307
21
-3.9423
0
LINE
8
BLACK
6
CONTINUOUS
10
5.56307
20
-3.9423
11
5.5646
21
-3.942
0
LINE
8
BLACK
6
CONTINUOUS
10
5.5646
20
-3.942
11
5.6036
21
-3.942
0
LINE
8
BLACK
6
CONTINUOUS
10
5.6036
20
-3.942
11
5.60513
21
-3.9423
0
LINE
8
BLACK
6
CONTINUOUS
10
5.67993
20
-3.9423
11
5.68123
21
-3.94317
0
LINE
8
BLACK
6
CONTINUOUS
10
5.68123
20
-3.94317
11
5.6821
21
-3.94447
0
LINE
8
BLACK
6
CONTINUOUS
10
5.6821
20
-3.94447
11
5.6824
21
-3.946
0
LINE
8
BLACK
6
CONTINUOUS
10
5.6824
20
-3.946
11
5.6824
21
-3.997
0
LINE
8
BLACK
6
CONTINUOUS
10
5.6824
20
-3.997
11
5.6821
21
-3.99853
0
LINE
8
BLACK
6
CONTINUOUS
10
5.6821
20
-3.99853
11
5.68123
21
-3.99983
0
LINE
8
BLACK
6
CONTINUOUS
10
5.68123
20
-3.99983
11
5.67993
21
-4.0007
0
LINE
8
BLACK
6
CONTINUOUS
10
5.67993
20
-4.0007
11
5.6784
21
-4.001
0
LINE
8
BLACK
6
CONTINUOUS
10
5.6784
20
-4.001
11
5.6394
21
-4.001
0
LINE
8
BLACK
6
CONTINUOUS
10
5.6394
20
-4.001
11
5.63787
21
-4.0007
0
LINE
8
BLACK
6
CONTINUOUS
10
5.63787
20
-4.0007
11
5.63657
21
-3.99983
0
LINE
8
BLACK
6
CONTINUOUS
10
5.63657
20
-3.99983
11
5.63571
21
-3.99853
0
LINE
8
BLACK
6
CONTINUOUS
10
5.63571
20
-3.99853
11
5.6354
21
-3.997
0
LINE
8
BLACK
6
CONTINUOUS
10
5.6354
20
-3.997
11
5.6354
21
-3.946
0
LINE
8
BLACK
6
CONTINUOUS
10
5.6354
20
-3.946
11
5.63571
21
-3.94447
0
LINE
8
BLACK
6
CONTINUOUS
10
5.63571
20
-3.94447
11
5.63657
21
-3.94317
0
LINE
8
BLACK
6
CONTINUOUS
10
5.63657
20
-3.94317
11
5.63787
21
-3.9423
0
LINE
8
BLACK
6
CONTINUOUS
10
5.63787
20
-3.9423
11
5.6394
21
-3.942
0
LINE
8
BLACK
6
CONTINUOUS
10
5.6394
20
-3.942
11
5.6784
21
-3.942
0
LINE
8
BLACK
6
CONTINUOUS
10
5.6784
20
-3.942
11
5.67993
21
-3.9423
0
LINE
8
BLACK
6
CONTINUOUS
10
5.79853
20
-3.9234
11
5.79983
21
-3.92427
0
LINE
8
BLACK
6
CONTINUOUS
10
5.79983
20
-3.92427
11
5.8007
21
-3.92557
0
LINE
8
BLACK
6
CONTINUOUS
10
5.8007
20
-3.92557
11
5.801
21
-3.9271
0
LINE
8
BLACK
6
CONTINUOUS
10
5.801
20
-3.9271
11
5.801
21
-3.9661
0
LINE
8
BLACK
6
CONTINUOUS
10
5.801
20
-3.9661
11
5.8007
21
-3.96763
0
LINE
8
BLACK
6
CONTINUOUS
10
5.8007
20
-3.96763
11
5.79983
21
-3.96893
0
LINE
8
BLACK
6
CONTINUOUS
10
5.79983
20
-3.96893
11
5.79853
21
-3.96979
0
LINE
8
BLACK
6
CONTINUOUS
10
5.79853
20
-3.96979
11
5.797
21
-3.9701
0
LINE
8
BLACK
6
CONTINUOUS
10
5.797
20
-3.9701
11
5.746
21
-3.9701
0
LINE
8
BLACK
6
CONTINUOUS
10
5.746
20
-3.9701
11
5.74447
21
-3.96979
0
LINE
8
BLACK
6
CONTINUOUS
10
5.74447
20
-3.96979
11
5.74317
21
-3.96893
0
LINE
8
BLACK
6
CONTINUOUS
10
5.74317
20
-3.96893
11
5.7423
21
-3.96763
0
LINE
8
BLACK
6
CONTINUOUS
10
5.7423
20
-3.96763
11
5.742
21
-3.9661
0
LINE
8
BLACK
6
CONTINUOUS
10
5.742
20
-3.9661
11
5.742
21
-3.9271
0
LINE
8
BLACK
6
CONTINUOUS
10
5.742
20
-3.9271
11
5.7423
21
-3.92557
0
LINE
8
BLACK
6
CONTINUOUS
10
5.7423
20
-3.92557
11
5.74317
21
-3.92427
0
LINE
8
BLACK
6
CONTINUOUS
10
5.74317
20
-3.92427
11
5.74447
21
-3.9234
0
LINE
8
BLACK
6
CONTINUOUS
10
5.74447
20
-3.9234
11
5.746
21
-3.9231
0
LINE
8
BLACK
6
CONTINUOUS
10
5.746
20
-3.9231
11
5.797
21
-3.9231
0
LINE
8
BLACK
6
CONTINUOUS
10
5.797
20
-3.9231
11
5.79853
21
-3.9234
0
LINE
8
BLACK
6
CONTINUOUS
10
5.71743
20
-3.8673
11
5.71873
21
-3.86817
0
LINE
8
BLACK
6
CONTINUOUS
10
5.71873
20
-3.86817
11
5.7196
21
-3.86947
0
LINE
8
BLACK
6
CONTINUOUS
10
5.7196
20
-3.86947
11
5.7199
21
-3.871
0
LINE
8
BLACK
6
CONTINUOUS
10
5.7199
20
-3.871
11
5.7199
21
-3.922
0
LINE
8
BLACK
6
CONTINUOUS
10
5.7199
20
-3.922
11
5.7196
21
-3.92353
0
LINE
8
BLACK
6
CONTINUOUS
10
5.7196
20
-3.92353
11
5.71873
21
-3.92483
0
LINE
8
BLACK
6
CONTINUOUS
10
5.71873
20
-3.92483
11
5.71743
21
-3.9257
0
LINE
8
BLACK
6
CONTINUOUS
10
5.71743
20
-3.9257
11
5.7159
21
-3.926
0
LINE
8
BLACK
6
CONTINUOUS
10
5.7159
20
-3.926
11
5.6769
21
-3.926
0
LINE
8
BLACK
6
CONTINUOUS
10
5.6769
20
-3.926
11
5.67537
21
-3.9257
0
LINE
8
BLACK
6
CONTINUOUS
10
5.67537
20
-3.9257
11
5.67407
21
-3.92483
0
LINE
8
BLACK
6
CONTINUOUS
10
5.67407
20
-3.92483
11
5.67321
21
-3.92353
0
LINE
8
BLACK
6
CONTINUOUS
10
5.67321
20
-3.92353
11
5.6729
21
-3.922
0
LINE
8
BLACK
6
CONTINUOUS
10
5.6729
20
-3.922
11
5.6729
21
-3.871
0
LINE
8
BLACK
6
CONTINUOUS
10
5.6729
20
-3.871
11
5.67321
21
-3.86947
0
LINE
8
BLACK
6
CONTINUOUS
10
5.67321
20
-3.86947
11
5.67407
21
-3.86817
0
LINE
8
BLACK
6
CONTINUOUS
10
5.67407
20
-3.86817
11
5.67537
21
-3.8673
0
LINE
8
BLACK
6
CONTINUOUS
10
5.67537
20
-3.8673
11
5.6769
21
-3.867
0
LINE
8
BLACK
6
CONTINUOUS
10
5.6769
20
-3.867
11
5.7159
21
-3.867
0
LINE
8
BLACK
6
CONTINUOUS
10
5.7159
20
-3.867
11
5.71743
21
-3.8673
0
LINE
8
BLACK
6
CONTINUOUS
10
5.64263
20
-3.8673
11
5.64393
21
-3.86817
0
LINE
8
BLACK
6
CONTINUOUS
10
5.64393
20
-3.86817
11
5.64479
21
-3.86947
0
LINE
8
BLACK
6
CONTINUOUS
10
5.64479
20
-3.86947
11
5.6451
21
-3.871
0
LINE
8
BLACK
6
CONTINUOUS
10
5.6451
20
-3.871
11
5.6451
21
-3.922
0
LINE
8
BLACK
6
CONTINUOUS
10
5.6451
20
-3.922
11
5.64479
21
-3.92353
0
LINE
8
BLACK
6
CONTINUOUS
10
5.64479
20
-3.92353
11
5.64393
21
-3.92483
0
LINE
8
BLACK
6
CONTINUOUS
10
5.64393
20
-3.92483
11
5.64263
21
-3.9257
0
LINE
8
BLACK
6
CONTINUOUS
10
5.64263
20
-3.9257
11
5.6411
21
-3.926
0
LINE
8
BLACK
6
CONTINUOUS
10
5.6411
20
-3.926
11
5.6021
21
-3.926
0
LINE
8
BLACK
6
CONTINUOUS
10
5.6021
20
-3.926
11
5.60057
21
-3.9257
0
LINE
8
BLACK
6
CONTINUOUS
10
5.60057
20
-3.9257
11
5.59927
21
-3.92483
0
LINE
8
BLACK
6
CONTINUOUS
10
5.59927
20
-3.92483
11
5.5984
21
-3.92353
0
LINE
8
BLACK
6
CONTINUOUS
10
5.5984
20
-3.92353
11
5.5981
21
-3.922
0
LINE
8
BLACK
6
CONTINUOUS
10
5.5981
20
-3.922
11
5.5981
21
-3.871
0
LINE
8
BLACK
6
CONTINUOUS
10
5.5981
20
-3.871
11
5.5984
21
-3.86947
0
LINE
8
BLACK
6
CONTINUOUS
10
5.5984
20
-3.86947
11
5.59927
21
-3.86817
0
LINE
8
BLACK
6
CONTINUOUS
10
5.59927
20
-3.86817
11
5.60057
21
-3.8673
0
LINE
8
BLACK
6
CONTINUOUS
10
5.60057
20
-3.8673
11
5.6021
21
-3.867
0
LINE
8
BLACK
6
CONTINUOUS
10
5.6021
20
-3.867
11
5.6411
21
-3.867
0
LINE
8
BLACK
6
CONTINUOUS
10
5.6411
20
-3.867
11
5.64263
21
-3.8673
0
LINE
8
BLACK
6
CONTINUOUS
10
5.43053
20
-3.8353
11
5.43183
21
-3.83617
0
LINE
8
BLACK
6
CONTINUOUS
10
5.43183
20
-3.83617
11
5.4327
21
-3.83747
0
LINE
8
BLACK
6
CONTINUOUS
10
5.4327
20
-3.83747
11
5.433
21
-3.839
0
LINE
8
BLACK
6
CONTINUOUS
10
5.433
20
-3.839
11
5.433
21
-3.904
0
LINE
8
BLACK
6
CONTINUOUS
10
5.433
20
-3.904
11
5.4327
21
-3.90553
0
LINE
8
BLACK
6
CONTINUOUS
10
5.4327
20
-3.90553
11
5.43183
21
-3.90683
0
LINE
8
BLACK
6
CONTINUOUS
10
5.43183
20
-3.90683
11
5.43053
21
-3.9077
0
LINE
8
BLACK
6
CONTINUOUS
10
5.43053
20
-3.9077
11
5.429
21
-3.908
0
LINE
8
BLACK
6
CONTINUOUS
10
5.429
20
-3.908
11
5.364
21
-3.908
0
LINE
8
BLACK
6
CONTINUOUS
10
5.364
20
-3.908
11
5.36247
21
-3.9077
0
LINE
8
BLACK
6
CONTINUOUS
10
5.36247
20
-3.9077
11
5.36117
21
-3.90683
0
LINE
8
BLACK
6
CONTINUOUS
10
5.36117
20
-3.90683
11
5.3603
21
-3.90553
0
LINE
8
BLACK
6
CONTINUOUS
10
5.3603
20
-3.90553
11
5.36
21
-3.904
0
LINE
8
BLACK
6
CONTINUOUS
10
5.36
20
-3.904
11
5.36
21
-3.839
0
LINE
8
BLACK
6
CONTINUOUS
10
5.36
20
-3.839
11
5.3603
21
-3.83747
0
LINE
8
BLACK
6
CONTINUOUS
10
5.3603
20
-3.83747
11
5.36117
21
-3.83617
0
LINE
8
BLACK
6
CONTINUOUS
10
5.36117
20
-3.83617
11
5.36247
21
-3.8353
0
LINE
8
BLACK
6
CONTINUOUS
10
5.36247
20
-3.8353
11
5.364
21
-3.835
0
LINE
8
BLACK
6
CONTINUOUS
10
5.364
20
-3.835
11
5.429
21
-3.835
0
LINE
8
BLACK
6
CONTINUOUS
10
5.429
20
-3.835
11
5.43053
21
-3.8353
0
LINE
8
BLACK
6
CONTINUOUS
10
5.53053
20
-3.8353
11
5.53183
21
-3.83617
0
LINE
8
BLACK
6
CONTINUOUS
10
5.53183
20
-3.83617
11
5.5327
21
-3.83747
0
LINE
8
BLACK
6
CONTINUOUS
10
5.5327
20
-3.83747
11
5.533
21
-3.839
0
LINE
8
BLACK
6
CONTINUOUS
10
5.533
20
-3.839
11
5.533
21
-3.904
0
LINE
8
BLACK
6
CONTINUOUS
10
5.533
20
-3.904
11
5.5327
21
-3.90553
0
LINE
8
BLACK
6
CONTINUOUS
10
5.5327
20
-3.90553
11
5.53183
21
-3.90683
0
LINE
8
BLACK
6
CONTINUOUS
10
5.53183
20
-3.90683
11
5.53053
21
-3.9077
0
LINE
8
BLACK
6
CONTINUOUS
10
5.53053
20
-3.9077
11
5.529
21
-3.908
0
LINE
8
BLACK
6
CONTINUOUS
10
5.529
20
-3.908
11
5.464
21
-3.908
0
LINE
8
BLACK
6
CONTINUOUS
10
5.464
20
-3.908
11
5.46247
21
-3.9077
0
LINE
8
BLACK
6
CONTINUOUS
10
5.46247
20
-3.9077
11
5.46117
21
-3.90683
0
LINE
8
BLACK
6
CONTINUOUS
10
5.46117
20
-3.90683
11
5.4603
21
-3.90553
0
LINE
8
BLACK
6
CONTINUOUS
10
5.4603
20
-3.90553
11
5.46
21
-3.904
0
LINE
8
BLACK
6
CONTINUOUS
10
5.46
20
-3.904
11
5.46
21
-3.839
0
LINE
8
BLACK
6
CONTINUOUS
10
5.46
20
-3.839
11
5.4603
21
-3.83747
0
LINE
8
BLACK
6
CONTINUOUS
10
5.4603
20
-3.83747
11
5.46117
21
-3.83617
0
LINE
8
BLACK
6
CONTINUOUS
10
5.46117
20
-3.83617
11
5.46247
21
-3.8353
0
LINE
8
BLACK
6
CONTINUOUS
10
5.46247
20
-3.8353
11
5.464
21
-3.835
0
LINE
8
BLACK
6
CONTINUOUS
10
5.464
20
-3.835
11
5.529
21
-3.835
0
LINE
8
BLACK
6
CONTINUOUS
10
5.529
20
-3.835
11
5.53053
21
-3.8353
0
LINE
8
BLACK
6
CONTINUOUS
10
6.21053
20
-3.7753
11
6.21183
21
-3.77617
0
LINE
8
BLACK
6
CONTINUOUS
10
6.21183
20
-3.77617
11
6.2127
21
-3.77747
0
LINE
8
BLACK
6
CONTINUOUS
10
6.2127
20
-3.77747
11
6.213
21
-3.779
0
LINE
8
BLACK
6
CONTINUOUS
10
6.213
20
-3.779
11
6.213
21
-3.864
0
LINE
8
BLACK
6
CONTINUOUS
10
6.213
20
-3.864
11
6.2127
21
-3.86553
0
LINE
8
BLACK
6
CONTINUOUS
10
6.2127
20
-3.86553
11
6.21183
21
-3.86683
0
LINE
8
BLACK
6
CONTINUOUS
10
6.21183
20
-3.86683
11
6.21053
21
-3.8677
0
LINE
8
BLACK
6
CONTINUOUS
10
6.21053
20
-3.8677
11
6.209
21
-3.868
0
LINE
8
BLACK
6
CONTINUOUS
10
6.209
20
-3.868
11
6.109
21
-3.868
0
LINE
8
BLACK
6
CONTINUOUS
10
6.109
20
-3.868
11
6.10747
21
-3.8677
0
LINE
8
BLACK
6
CONTINUOUS
10
6.10747
20
-3.8677
11
6.10617
21
-3.86683
0
LINE
8
BLACK
6
CONTINUOUS
10
6.10617
20
-3.86683
11
6.1053
21
-3.86553
0
LINE
8
BLACK
6
CONTINUOUS
10
6.1053
20
-3.86553
11
6.105
21
-3.864
0
LINE
8
BLACK
6
CONTINUOUS
10
6.105
20
-3.864
11
6.105
21
-3.779
0
LINE
8
BLACK
6
CONTINUOUS
10
6.105
20
-3.779
11
6.1053
21
-3.77747
0
LINE
8
BLACK
6
CONTINUOUS
10
6.1053
20
-3.77747
11
6.10617
21
-3.77617
0
LINE
8
BLACK
6
CONTINUOUS
10
6.10617
20
-3.77617
11
6.10747
21
-3.7753
0
LINE
8
BLACK
6
CONTINUOUS
10
6.10747
20
-3.7753
11
6.109
21
-3.775
0
LINE
8
BLACK
6
CONTINUOUS
10
6.109
20
-3.775
11
6.209
21
-3.775
0
LINE
8
BLACK
6
CONTINUOUS
10
6.209
20
-3.775
11
6.21053
21
-3.7753
0
LINE
8
BLACK
6
CONTINUOUS
10
6.41053
20
-3.7753
11
6.41183
21
-3.77617
0
LINE
8
BLACK
6
CONTINUOUS
10
6.41183
20
-3.77617
11
6.4127
21
-3.77747
0
LINE
8
BLACK
6
CONTINUOUS
10
6.4127
20
-3.77747
11
6.413
21
-3.779
0
LINE
8
BLACK
6
CONTINUOUS
10
6.413
20
-3.779
11
6.413
21
-3.864
0
LINE
8
BLACK
6
CONTINUOUS
10
6.413
20
-3.864
11
6.4127
21
-3.86553
0
LINE
8
BLACK
6
CONTINUOUS
10
6.4127
20
-3.86553
11
6.41183
21
-3.86683
0
LINE
8
BLACK
6
CONTINUOUS
10
6.41183
20
-3.86683
11
6.41053
21
-3.8677
0
LINE
8
BLACK
6
CONTINUOUS
10
6.41053
20
-3.8677
11
6.409
21
-3.868
0
LINE
8
BLACK
6
CONTINUOUS
10
6.409
20
-3.868
11
6.309
21
-3.868
0
LINE
8
BLACK
6
CONTINUOUS
10
6.309
20
-3.868
11
6.30747
21
-3.8677
0
LINE
8
BLACK
6
CONTINUOUS
10
6.30747
20
-3.8677
11
6.30617
21
-3.86683
0
LINE
8
BLACK
6
CONTINUOUS
10
6.30617
20
-3.86683
11
6.3053
21
-3.86553
0
LINE
8
BLACK
6
CONTINUOUS
10
6.3053
20
-3.86553
11
6.305
21
-3.864
0
LINE
8
BLACK
6
CONTINUOUS
10
6.305
20
-3.864
11
6.305
21
-3.779
0
LINE
8
BLACK
6
CONTINUOUS
10
6.305
20
-3.779
11
6.3053
21
-3.77747
0
LINE
8
BLACK
6
CONTINUOUS
10
6.3053
20
-3.77747
11
6.30617
21
-3.77617
0
LINE
8
BLACK
6
CONTINUOUS
10
6.30617
20
-3.77617
11
6.30747
21
-3.7753
0
LINE
8
BLACK
6
CONTINUOUS
10
6.30747
20
-3.7753
11
6.309
21
-3.775
0
LINE
8
BLACK
6
CONTINUOUS
10
6.309
20
-3.775
11
6.409
21
-3.775
0
LINE
8
BLACK
6
CONTINUOUS
10
6.409
20
-3.775
11
6.41053
21
-3.7753
0
LINE
8
BLACK
6
CONTINUOUS
10
5.60513
20
-3.7923
11
5.60643
21
-3.79317
0
LINE
8
BLACK
6
CONTINUOUS
10
5.60643
20
-3.79317
11
5.60729
21
-3.79447
0
LINE
8
BLACK
6
CONTINUOUS
10
5.60729
20
-3.79447
11
5.6076
21
-3.796
0
LINE
8
BLACK
6
CONTINUOUS
10
5.6076
20
-3.796
11
5.6076
21
-3.847
0
LINE
8
BLACK
6
CONTINUOUS
10
5.6076
20
-3.847
11
5.60729
21
-3.84853
0
LINE
8
BLACK
6
CONTINUOUS
10
5.60729
20
-3.84853
11
5.60643
21
-3.84983
0
LINE
8
BLACK
6
CONTINUOUS
10
5.60643
20
-3.84983
11
5.60513
21
-3.8507
0
LINE
8
BLACK
6
CONTINUOUS
10
5.60513
20
-3.8507
11
5.6036
21
-3.851
0
LINE
8
BLACK
6
CONTINUOUS
10
5.6036
20
-3.851
11
5.5646
21
-3.851
0
LINE
8
BLACK
6
CONTINUOUS
10
5.5646
20
-3.851
11
5.56307
21
-3.8507
0
LINE
8
BLACK
6
CONTINUOUS
10
5.56307
20
-3.8507
11
5.56177
21
-3.84983
0
LINE
8
BLACK
6
CONTINUOUS
10
5.56177
20
-3.84983
11
5.5609
21
-3.84853
0
LINE
8
BLACK
6
CONTINUOUS
10
5.5609
20
-3.84853
11
5.5606
21
-3.847
0
LINE
8
BLACK
6
CONTINUOUS
10
5.5606
20
-3.847
11
5.5606
21
-3.796
0
LINE
8
BLACK
6
CONTINUOUS
10
5.5606
20
-3.796
11
5.5609
21
-3.79447
0
LINE
8
BLACK
6
CONTINUOUS
10
5.5609
20
-3.79447
11
5.56177
21
-3.79317
0
LINE
8
BLACK
6
CONTINUOUS
10
5.56177
20
-3.79317
11
5.56307
21
-3.7923
0
LINE
8
BLACK
6
CONTINUOUS
10
5.56307
20
-3.7923
11
5.5646
21
-3.792
0
LINE
8
BLACK
6
CONTINUOUS
10
5.5646
20
-3.792
11
5.6036
21
-3.792
0
LINE
8
BLACK
6
CONTINUOUS
10
5.6036
20
-3.792
11
5.60513
21
-3.7923
0
LINE
8
BLACK
6
CONTINUOUS
10
5.67993
20
-3.7923
11
5.68123
21
-3.79317
0
LINE
8
BLACK
6
CONTINUOUS
10
5.68123
20
-3.79317
11
5.6821
21
-3.79447
0
LINE
8
BLACK
6
CONTINUOUS
10
5.6821
20
-3.79447
11
5.6824
21
-3.796
0
LINE
8
BLACK
6
CONTINUOUS
10
5.6824
20
-3.796
11
5.6824
21
-3.847
0
LINE
8
BLACK
6
CONTINUOUS
10
5.6824
20
-3.847
11
5.6821
21
-3.84853
0
LINE
8
BLACK
6
CONTINUOUS
10
5.6821
20
-3.84853
11
5.68123
21
-3.84983
0
LINE
8
BLACK
6
CONTINUOUS
10
5.68123
20
-3.84983
11
5.67993
21
-3.8507
0
LINE
8
BLACK
6
CONTINUOUS
10
5.67993
20
-3.8507
11
5.6784
21
-3.851
0
LINE
8
BLACK
6
CONTINUOUS
10
5.6784
20
-3.851
11
5.6394
21
-3.851
0
LINE
8
BLACK
6
CONTINUOUS
10
5.6394
20
-3.851
11
5.63787
21
-3.8507
0
LINE
8
BLACK
6
CONTINUOUS
10
5.63787
20
-3.8507
11
5.63657
21
-3.84983
0
LINE
8
BLACK
6
CONTINUOUS
10
5.63657
20
-3.84983
11
5.63571
21
-3.84853
0
LINE
8
BLACK
6
CONTINUOUS
10
5.63571
20
-3.84853
11
5.6354
21
-3.847
0
LINE
8
BLACK
6
CONTINUOUS
10
5.6354
20
-3.847
11
5.6354
21
-3.796
0
LINE
8
BLACK
6
CONTINUOUS
10
5.6354
20
-3.796
11
5.63571
21
-3.79447
0
LINE
8
BLACK
6
CONTINUOUS
10
5.63571
20
-3.79447
11
5.63657
21
-3.79317
0
LINE
8
BLACK
6
CONTINUOUS
10
5.63657
20
-3.79317
11
5.63787
21
-3.7923
0
LINE
8
BLACK
6
CONTINUOUS
10
5.63787
20
-3.7923
11
5.6394
21
-3.792
0
LINE
8
BLACK
6
CONTINUOUS
10
5.6394
20
-3.792
11
5.6784
21
-3.792
0
LINE
8
BLACK
6
CONTINUOUS
10
5.6784
20
-3.792
11
5.67993
21
-3.7923
0
LINE
8
BLACK
6
CONTINUOUS
10
5.86803
20
-3.7603
11
5.86933
21
-3.76117
0
LINE
8
BLACK
6
CONTINUOUS
10
5.86933
20
-3.76117
11
5.8702
21
-3.76247
0
LINE
8
BLACK
6
CONTINUOUS
10
5.8702
20
-3.76247
11
5.8705
21
-3.764
0
LINE
8
BLACK
6
CONTINUOUS
10
5.8705
20
-3.764
11
5.8705
21
-3.829
0
LINE
8
BLACK
6
CONTINUOUS
10
5.8705
20
-3.829
11
5.8702
21
-3.83053
0
LINE
8
BLACK
6
CONTINUOUS
10
5.8702
20
-3.83053
11
5.86933
21
-3.83183
0
LINE
8
BLACK
6
CONTINUOUS
10
5.86933
20
-3.83183
11
5.86803
21
-3.8327
0
LINE
8
BLACK
6
CONTINUOUS
10
5.86803
20
-3.8327
11
5.8665
21
-3.833
0
LINE
8
BLACK
6
CONTINUOUS
10
5.8665
20
-3.833
11
5.8015
21
-3.833
0
LINE
8
BLACK
6
CONTINUOUS
10
5.8015
20
-3.833
11
5.79997
21
-3.8327
0
LINE
8
BLACK
6
CONTINUOUS
10
5.79997
20
-3.8327
11
5.79867
21
-3.83183
0
LINE
8
BLACK
6
CONTINUOUS
10
5.79867
20
-3.83183
11
5.7978
21
-3.83053
0
LINE
8
BLACK
6
CONTINUOUS
10
5.7978
20
-3.83053
11
5.7975
21
-3.829
0
LINE
8
BLACK
6
CONTINUOUS
10
5.7975
20
-3.829
11
5.7975
21
-3.764
0
LINE
8
BLACK
6
CONTINUOUS
10
5.7975
20
-3.764
11
5.7978
21
-3.76247
0
LINE
8
BLACK
6
CONTINUOUS
10
5.7978
20
-3.76247
11
5.79867
21
-3.76117
0
LINE
8
BLACK
6
CONTINUOUS
10
5.79867
20
-3.76117
11
5.79997
21
-3.7603
0
LINE
8
BLACK
6
CONTINUOUS
10
5.79997
20
-3.7603
11
5.8015
21
-3.76
0
LINE
8
BLACK
6
CONTINUOUS
10
5.8015
20
-3.76
11
5.8665
21
-3.76
0
LINE
8
BLACK
6
CONTINUOUS
10
5.8665
20
-3.76
11
5.86803
21
-3.7603
0
LINE
8
BLACK
6
CONTINUOUS
10
5.96803
20
-3.7603
11
5.96933
21
-3.76117
0
LINE
8
BLACK
6
CONTINUOUS
10
5.96933
20
-3.76117
11
5.9702
21
-3.76247
0
LINE
8
BLACK
6
CONTINUOUS
10
5.9702
20
-3.76247
11
5.9705
21
-3.764
0
LINE
8
BLACK
6
CONTINUOUS
10
5.9705
20
-3.764
11
5.9705
21
-3.829
0
LINE
8
BLACK
6
CONTINUOUS
10
5.9705
20
-3.829
11
5.9702
21
-3.83053
0
LINE
8
BLACK
6
CONTINUOUS
10
5.9702
20
-3.83053
11
5.96933
21
-3.83183
0
LINE
8
BLACK
6
CONTINUOUS
10
5.96933
20
-3.83183
11
5.96803
21
-3.8327
0
LINE
8
BLACK
6
CONTINUOUS
10
5.96803
20
-3.8327
11
5.9665
21
-3.833
0
LINE
8
BLACK
6
CONTINUOUS
10
5.9665
20
-3.833
11
5.9015
21
-3.833
0
LINE
8
BLACK
6
CONTINUOUS
10
5.9015
20
-3.833
11
5.89997
21
-3.8327
0
LINE
8
BLACK
6
CONTINUOUS
10
5.89997
20
-3.8327
11
5.89867
21
-3.83183
0
LINE
8
BLACK
6
CONTINUOUS
10
5.89867
20
-3.83183
11
5.8978
21
-3.83053
0
LINE
8
BLACK
6
CONTINUOUS
10
5.8978
20
-3.83053
11
5.8975
21
-3.829
0
LINE
8
BLACK
6
CONTINUOUS
10
5.8975
20
-3.829
11
5.8975
21
-3.764
0
LINE
8
BLACK
6
CONTINUOUS
10
5.8975
20
-3.764
11
5.8978
21
-3.76247
0
LINE
8
BLACK
6
CONTINUOUS
10
5.8978
20
-3.76247
11
5.89867
21
-3.76117
0
LINE
8
BLACK
6
CONTINUOUS
10
5.89867
20
-3.76117
11
5.89997
21
-3.7603
0
LINE
8
BLACK
6
CONTINUOUS
10
5.89997
20
-3.7603
11
5.9015
21
-3.76
0
LINE
8
BLACK
6
CONTINUOUS
10
5.9015
20
-3.76
11
5.9665
21
-3.76
0
LINE
8
BLACK
6
CONTINUOUS
10
5.9665
20
-3.76
11
5.96803
21
-3.7603
0
LINE
8
BLACK
6
CONTINUOUS
10
6.06803
20
-3.7603
11
6.06933
21
-3.76117
0
LINE
8
BLACK
6
CONTINUOUS
10
6.06933
20
-3.76117
11
6.0702
21
-3.76247
0
LINE
8
BLACK
6
CONTINUOUS
10
6.0702
20
-3.76247
11
6.0705
21
-3.764
0
LINE
8
BLACK
6
CONTINUOUS
10
6.0705
20
-3.764
11
6.0705
21
-3.829
0
LINE
8
BLACK
6
CONTINUOUS
10
6.0705
20
-3.829
11
6.0702
21
-3.83053
0
LINE
8
BLACK
6
CONTINUOUS
10
6.0702
20
-3.83053
11
6.06933
21
-3.83183
0
LINE
8
BLACK
6
CONTINUOUS
10
6.06933
20
-3.83183
11
6.06803
21
-3.8327
0
LINE
8
BLACK
6
CONTINUOUS
10
6.06803
20
-3.8327
11
6.0665
21
-3.833
0
LINE
8
BLACK
6
CONTINUOUS
10
6.0665
20
-3.833
11
6.0015
21
-3.833
0
LINE
8
BLACK
6
CONTINUOUS
10
6.0015
20
-3.833
11
5.99997
21
-3.8327
0
LINE
8
BLACK
6
CONTINUOUS
10
5.99997
20
-3.8327
11
5.99867
21
-3.83183
0
LINE
8
BLACK
6
CONTINUOUS
10
5.99867
20
-3.83183
11
5.9978
21
-3.83053
0
LINE
8
BLACK
6
CONTINUOUS
10
5.9978
20
-3.83053
11
5.9975
21
-3.829
0
LINE
8
BLACK
6
CONTINUOUS
10
5.9975
20
-3.829
11
5.9975
21
-3.764
0
LINE
8
BLACK
6
CONTINUOUS
10
5.9975
20
-3.764
11
5.9978
21
-3.76247
0
LINE
8
BLACK
6
CONTINUOUS
10
5.9978
20
-3.76247
11
5.99867
21
-3.76117
0
LINE
8
BLACK
6
CONTINUOUS
10
5.99867
20
-3.76117
11
5.99997
21
-3.7603
0
LINE
8
BLACK
6
CONTINUOUS
10
5.99997
20
-3.7603
11
6.0015
21
-3.76
0
LINE
8
BLACK
6
CONTINUOUS
10
6.0015
20
-3.76
11
6.0665
21
-3.76
0
LINE
8
BLACK
6
CONTINUOUS
10
6.0665
20
-3.76
11
6.06803
21
-3.7603
0
LINE
8
BLACK
6
CONTINUOUS
10
5.53053
20
-3.7353
11
5.53183
21
-3.73617
0
LINE
8
BLACK
6
CONTINUOUS
10
5.53183
20
-3.73617
11
5.5327
21
-3.73747
0
LINE
8
BLACK
6
CONTINUOUS
10
5.5327
20
-3.73747
11
5.533
21
-3.739
0
LINE
8
BLACK
6
CONTINUOUS
10
5.533
20
-3.739
11
5.533
21
-3.804
0
LINE
8
BLACK
6
CONTINUOUS
10
5.533
20
-3.804
11
5.5327
21
-3.80553
0
LINE
8
BLACK
6
CONTINUOUS
10
5.5327
20
-3.80553
11
5.53183
21
-3.80683
0
LINE
8
BLACK
6
CONTINUOUS
10
5.53183
20
-3.80683
11
5.53053
21
-3.8077
0
LINE
8
BLACK
6
CONTINUOUS
10
5.53053
20
-3.8077
11
5.529
21
-3.808
0
LINE
8
BLACK
6
CONTINUOUS
10
5.529
20
-3.808
11
5.464
21
-3.808
0
LINE
8
BLACK
6
CONTINUOUS
10
5.464
20
-3.808
11
5.46247
21
-3.8077
0
LINE
8
BLACK
6
CONTINUOUS
10
5.46247
20
-3.8077
11
5.46117
21
-3.80683
0
LINE
8
BLACK
6
CONTINUOUS
10
5.46117
20
-3.80683
11
5.4603
21
-3.80553
0
LINE
8
BLACK
6
CONTINUOUS
10
5.4603
20
-3.80553
11
5.46
21
-3.804
0
LINE
8
BLACK
6
CONTINUOUS
10
5.46
20
-3.804
11
5.46
21
-3.739
0
LINE
8
BLACK
6
CONTINUOUS
10
5.46
20
-3.739
11
5.4603
21
-3.73747
0
LINE
8
BLACK
6
CONTINUOUS
10
5.4603
20
-3.73747
11
5.46117
21
-3.73617
0
LINE
8
BLACK
6
CONTINUOUS
10
5.46117
20
-3.73617
11
5.46247
21
-3.7353
0
LINE
8
BLACK
6
CONTINUOUS
10
5.46247
20
-3.7353
11
5.464
21
-3.735
0
LINE
8
BLACK
6
CONTINUOUS
10
5.464
20
-3.735
11
5.529
21
-3.735
0
LINE
8
BLACK
6
CONTINUOUS
10
5.529
20
-3.735
11
5.53053
21
-3.7353
0
LINE
8
BLACK
6
CONTINUOUS
10
5.43053
20
-3.7353
11
5.43183
21
-3.73617
0
LINE
8
BLACK
6
CONTINUOUS
10
5.43183
20
-3.73617
11
5.4327
21
-3.73747
0
LINE
8
BLACK
6
CONTINUOUS
10
5.4327
20
-3.73747
11
5.433
21
-3.739
0
LINE
8
BLACK
6
CONTINUOUS
10
5.433
20
-3.739
11
5.433
21
-3.804
0
LINE
8
BLACK
6
CONTINUOUS
10
5.433
20
-3.804
11
5.4327
21
-3.80553
0
LINE
8
BLACK
6
CONTINUOUS
10
5.4327
20
-3.80553
11
5.43183
21
-3.80683
0
LINE
8
BLACK
6
CONTINUOUS
10
5.43183
20
-3.80683
11
5.43053
21
-3.8077
0
LINE
8
BLACK
6
CONTINUOUS
10
5.43053
20
-3.8077
11
5.429
21
-3.808
0
LINE
8
BLACK
6
CONTINUOUS
10
5.429
20
-3.808
11
5.364
21
-3.808
0
LINE
8
BLACK
6
CONTINUOUS
10
5.364
20
-3.808
11
5.36247
21
-3.8077
0
LINE
8
BLACK
6
CONTINUOUS
10
5.36247
20
-3.8077
11
5.36117
21
-3.80683
0
LINE
8
BLACK
6
CONTINUOUS
10
5.36117
20
-3.80683
11
5.3603
21
-3.80553
0
LINE
8
BLACK
6
CONTINUOUS
10
5.3603
20
-3.80553
11
5.36
21
-3.804
0
LINE
8
BLACK
6
CONTINUOUS
10
5.36
20
-3.804
11
5.36
21
-3.739
0
LINE
8
BLACK
6
CONTINUOUS
10
5.36
20
-3.739
11
5.3603
21
-3.73747
0
LINE
8
BLACK
6
CONTINUOUS
10
5.3603
20
-3.73747
11
5.36117
21
-3.73617
0
LINE
8
BLACK
6
CONTINUOUS
10
5.36117
20
-3.73617
11
5.36247
21
-3.7353
0
LINE
8
BLACK
6
CONTINUOUS
10
5.36247
20
-3.7353
11
5.364
21
-3.735
0
LINE
8
BLACK
6
CONTINUOUS
10
5.364
20
-3.735
11
5.429
21
-3.735
0
LINE
8
BLACK
6
CONTINUOUS
10
5.429
20
-3.735
11
5.43053
21
-3.7353
0
LINE
8
BLACK
6
CONTINUOUS
10
5.72803
20
-3.6553
11
5.72933
21
-3.65617
0
LINE
8
BLACK
6
CONTINUOUS
10
5.72933
20
-3.65617
11
5.7302
21
-3.65747
0
LINE
8
BLACK
6
CONTINUOUS
10
5.7302
20
-3.65747
11
5.7305
21
-3.659
0
LINE
8
BLACK
6
CONTINUOUS
10
5.7305
20
-3.659
11
5.7305
21
-3.759
0
LINE
8
BLACK
6
CONTINUOUS
10
5.7305
20
-3.759
11
5.7302
21
-3.76053
0
LINE
8
BLACK
6
CONTINUOUS
10
5.7302
20
-3.76053
11
5.72933
21
-3.76183
0
LINE
8
BLACK
6
CONTINUOUS
10
5.72933
20
-3.76183
11
5.72803
21
-3.7627
0
LINE
8
BLACK
6
CONTINUOUS
10
5.72803
20
-3.7627
11
5.7265
21
-3.763
0
LINE
8
BLACK
6
CONTINUOUS
10
5.7265
20
-3.763
11
5.6415
21
-3.763
0
LINE
8
BLACK
6
CONTINUOUS
10
5.6415
20
-3.763
11
5.63997
21
-3.7627
0
LINE
8
BLACK
6
CONTINUOUS
10
5.63997
20
-3.7627
11
5.63867
21
-3.76183
0
LINE
8
BLACK
6
CONTINUOUS
10
5.63867
20
-3.76183
11
5.6378
21
-3.76053
0
LINE
8
BLACK
6
CONTINUOUS
10
5.6378
20
-3.76053
11
5.6375
21
-3.759
0
LINE
8
BLACK
6
CONTINUOUS
10
5.6375
20
-3.759
11
5.6375
21
-3.659
0
LINE
8
BLACK
6
CONTINUOUS
10
5.6375
20
-3.659
11
5.6378
21
-3.65747
0
LINE
8
BLACK
6
CONTINUOUS
10
5.6378
20
-3.65747
11
5.63867
21
-3.65617
0
LINE
8
BLACK
6
CONTINUOUS
10
5.63867
20
-3.65617
11
5.63997
21
-3.6553
0
LINE
8
BLACK
6
CONTINUOUS
10
5.63997
20
-3.6553
11
5.6415
21
-3.655
0
LINE
8
BLACK
6
CONTINUOUS
10
5.6415
20
-3.655
11
5.7265
21
-3.655
0
LINE
8
BLACK
6
CONTINUOUS
10
5.7265
20
-3.655
11
5.72803
21
-3.6553
0
LINE
8
BLACK
6
CONTINUOUS
10
6.22993
20
-3.6798
11
6.23123
21
-3.68067
0
LINE
8
BLACK
6
CONTINUOUS
10
6.23123
20
-3.68067
11
6.2321
21
-3.68197
0
LINE
8
BLACK
6
CONTINUOUS
10
6.2321
20
-3.68197
11
6.2324
21
-3.6835
0
LINE
8
BLACK
6
CONTINUOUS
10
6.2324
20
-3.6835
11
6.2324
21
-3.7345
0
LINE
8
BLACK
6
CONTINUOUS
10
6.2324
20
-3.7345
11
6.2321
21
-3.73603
0
LINE
8
BLACK
6
CONTINUOUS
10
6.2321
20
-3.73603
11
6.23123
21
-3.73733
0
LINE
8
BLACK
6
CONTINUOUS
10
6.23123
20
-3.73733
11
6.22993
21
-3.7382
0
LINE
8
BLACK
6
CONTINUOUS
10
6.22993
20
-3.7382
11
6.2284
21
-3.7385
0
LINE
8
BLACK
6
CONTINUOUS
10
6.2284
20
-3.7385
11
6.1894
21
-3.7385
0
LINE
8
BLACK
6
CONTINUOUS
10
6.1894
20
-3.7385
11
6.18787
21
-3.7382
0
LINE
8
BLACK
6
CONTINUOUS
10
6.18787
20
-3.7382
11
6.18657
21
-3.73733
0
LINE
8
BLACK
6
CONTINUOUS
10
6.18657
20
-3.73733
11
6.18571
21
-3.73603
0
LINE
8
BLACK
6
CONTINUOUS
10
6.18571
20
-3.73603
11
6.1854
21
-3.7345
0
LINE
8
BLACK
6
CONTINUOUS
10
6.1854
20
-3.7345
11
6.1854
21
-3.6835
0
LINE
8
BLACK
6
CONTINUOUS
10
6.1854
20
-3.6835
11
6.18571
21
-3.68197
0
LINE
8
BLACK
6
CONTINUOUS
10
6.18571
20
-3.68197
11
6.18657
21
-3.68067
0
LINE
8
BLACK
6
CONTINUOUS
10
6.18657
20
-3.68067
11
6.18787
21
-3.6798
0
LINE
8
BLACK
6
CONTINUOUS
10
6.18787
20
-3.6798
11
6.1894
21
-3.6795
0
LINE
8
BLACK
6
CONTINUOUS
10
6.1894
20
-3.6795
11
6.2284
21
-3.6795
0
LINE
8
BLACK
6
CONTINUOUS
10
6.2284
20
-3.6795
11
6.22993
21
-3.6798
0
LINE
8
BLACK
6
CONTINUOUS
10
6.15513
20
-3.6798
11
6.15643
21
-3.68067
0
LINE
8
BLACK
6
CONTINUOUS
10
6.15643
20
-3.68067
11
6.15729
21
-3.68197
0
LINE
8
BLACK
6
CONTINUOUS
10
6.15729
20
-3.68197
11
6.1576
21
-3.6835
0
LINE
8
BLACK
6
CONTINUOUS
10
6.1576
20
-3.6835
11
6.1576
21
-3.7345
0
LINE
8
BLACK
6
CONTINUOUS
10
6.1576
20
-3.7345
11
6.15729
21
-3.73603
0
LINE
8
BLACK
6
CONTINUOUS
10
6.15729
20
-3.73603
11
6.15643
21
-3.73733
0
LINE
8
BLACK
6
CONTINUOUS
10
6.15643
20
-3.73733
11
6.15513
21
-3.7382
0
LINE
8
BLACK
6
CONTINUOUS
10
6.15513
20
-3.7382
11
6.1536
21
-3.7385
0
LINE
8
BLACK
6
CONTINUOUS
10
6.1536
20
-3.7385
11
6.1146
21
-3.7385
0
LINE
8
BLACK
6
CONTINUOUS
10
6.1146
20
-3.7385
11
6.11307
21
-3.7382
0
LINE
8
BLACK
6
CONTINUOUS
10
6.11307
20
-3.7382
11
6.11177
21
-3.73733
0
LINE
8
BLACK
6
CONTINUOUS
10
6.11177
20
-3.73733
11
6.1109
21
-3.73603
0
LINE
8
BLACK
6
CONTINUOUS
10
6.1109
20
-3.73603
11
6.1106
21
-3.7345
0
LINE
8
BLACK
6
CONTINUOUS
10
6.1106
20
-3.7345
11
6.1106
21
-3.6835
0
LINE
8
BLACK
6
CONTINUOUS
10
6.1106
20
-3.6835
11
6.1109
21
-3.68197
0
LINE
8
BLACK
6
CONTINUOUS
10
6.1109
20
-3.68197
11
6.11177
21
-3.68067
0
LINE
8
BLACK
6
CONTINUOUS
10
6.11177
20
-3.68067
11
6.11307
21
-3.6798
0
LINE
8
BLACK
6
CONTINUOUS
10
6.11307
20
-3.6798
11
6.1146
21
-3.6795
0
LINE
8
BLACK
6
CONTINUOUS
10
6.1146
20
-3.6795
11
6.1536
21
-3.6795
0
LINE
8
BLACK
6
CONTINUOUS
10
6.1536
20
-3.6795
11
6.15513
21
-3.6798
0
LINE
8
BLACK
6
CONTINUOUS
10
6.06803
20
-3.6603
11
6.06933
21
-3.66117
0
LINE
8
BLACK
6
CONTINUOUS
10
6.06933
20
-3.66117
11
6.0702
21
-3.66247
0
LINE
8
BLACK
6
CONTINUOUS
10
6.0702
20
-3.66247
11
6.0705
21
-3.664
0
LINE
8
BLACK
6
CONTINUOUS
10
6.0705
20
-3.664
11
6.0705
21
-3.729
0
LINE
8
BLACK
6
CONTINUOUS
10
6.0705
20
-3.729
11
6.0702
21
-3.73053
0
LINE
8
BLACK
6
CONTINUOUS
10
6.0702
20
-3.73053
11
6.06933
21
-3.73183
0
LINE
8
BLACK
6
CONTINUOUS
10
6.06933
20
-3.73183
11
6.06803
21
-3.7327
0
LINE
8
BLACK
6
CONTINUOUS
10
6.06803
20
-3.7327
11
6.0665
21
-3.733
0
LINE
8
BLACK
6
CONTINUOUS
10
6.0665
20
-3.733
11
6.0015
21
-3.733
0
LINE
8
BLACK
6
CONTINUOUS
10
6.0015
20
-3.733
11
5.99997
21
-3.7327
0
LINE
8
BLACK
6
CONTINUOUS
10
5.99997
20
-3.7327
11
5.99867
21
-3.73183
0
LINE
8
BLACK
6
CONTINUOUS
10
5.99867
20
-3.73183
11
5.9978
21
-3.73053
0
LINE
8
BLACK
6
CONTINUOUS
10
5.9978
20
-3.73053
11
5.9975
21
-3.729
0
LINE
8
BLACK
6
CONTINUOUS
10
5.9975
20
-3.729
11
5.9975
21
-3.664
0
LINE
8
BLACK
6
CONTINUOUS
10
5.9975
20
-3.664
11
5.9978
21
-3.66247
0
LINE
8
BLACK
6
CONTINUOUS
10
5.9978
20
-3.66247
11
5.99867
21
-3.66117
0
LINE
8
BLACK
6
CONTINUOUS
10
5.99867
20
-3.66117
11
5.99997
21
-3.6603
0
LINE
8
BLACK
6
CONTINUOUS
10
5.99997
20
-3.6603
11
6.0015
21
-3.66
0
LINE
8
BLACK
6
CONTINUOUS
10
6.0015
20
-3.66
11
6.0665
21
-3.66
0
LINE
8
BLACK
6
CONTINUOUS
10
6.0665
20
-3.66
11
6.06803
21
-3.6603
0
LINE
8
BLACK
6
CONTINUOUS
10
5.96803
20
-3.6603
11
5.96933
21
-3.66117
0
LINE
8
BLACK
6
CONTINUOUS
10
5.96933
20
-3.66117
11
5.9702
21
-3.66247
0
LINE
8
BLACK
6
CONTINUOUS
10
5.9702
20
-3.66247
11
5.9705
21
-3.664
0
LINE
8
BLACK
6
CONTINUOUS
10
5.9705
20
-3.664
11
5.9705
21
-3.729
0
LINE
8
BLACK
6
CONTINUOUS
10
5.9705
20
-3.729
11
5.9702
21
-3.73053
0
LINE
8
BLACK
6
CONTINUOUS
10
5.9702
20
-3.73053
11
5.96933
21
-3.73183
0
LINE
8
BLACK
6
CONTINUOUS
10
5.96933
20
-3.73183
11
5.96803
21
-3.7327
0
LINE
8
BLACK
6
CONTINUOUS
10
5.96803
20
-3.7327
11
5.9665
21
-3.733
0
LINE
8
BLACK
6
CONTINUOUS
10
5.9665
20
-3.733
11
5.9015
21
-3.733
0
LINE
8
BLACK
6
CONTINUOUS
10
5.9015
20
-3.733
11
5.89997
21
-3.7327
0
LINE
8
BLACK
6
CONTINUOUS
10
5.89997
20
-3.7327
11
5.89867
21
-3.73183
0
LINE
8
BLACK
6
CONTINUOUS
10
5.89867
20
-3.73183
11
5.8978
21
-3.73053
0
LINE
8
BLACK
6
CONTINUOUS
10
5.8978
20
-3.73053
11
5.8975
21
-3.729
0
LINE
8
BLACK
6
CONTINUOUS
10
5.8975
20
-3.729
11
5.8975
21
-3.664
0
LINE
8
BLACK
6
CONTINUOUS
10
5.8975
20
-3.664
11
5.8978
21
-3.66247
0
LINE
8
BLACK
6
CONTINUOUS
10
5.8978
20
-3.66247
11
5.89867
21
-3.66117
0
LINE
8
BLACK
6
CONTINUOUS
10
5.89867
20
-3.66117
11
5.89997
21
-3.6603
0
LINE
8
BLACK
6
CONTINUOUS
10
5.89997
20
-3.6603
11
5.9015
21
-3.66
0
LINE
8
BLACK
6
CONTINUOUS
10
5.9015
20
-3.66
11
5.9665
21
-3.66
0
LINE
8
BLACK
6
CONTINUOUS
10
5.9665
20
-3.66
11
5.96803
21
-3.6603
0
LINE
8
BLACK
6
CONTINUOUS
10
5.86803
20
-3.6603
11
5.86933
21
-3.66117
0
LINE
8
BLACK
6
CONTINUOUS
10
5.86933
20
-3.66117
11
5.8702
21
-3.66247
0
LINE
8
BLACK
6
CONTINUOUS
10
5.8702
20
-3.66247
11
5.8705
21
-3.664
0
LINE
8
BLACK
6
CONTINUOUS
10
5.8705
20
-3.664
11
5.8705
21
-3.729
0
LINE
8
BLACK
6
CONTINUOUS
10
5.8705
20
-3.729
11
5.8702
21
-3.73053
0
LINE
8
BLACK
6
CONTINUOUS
10
5.8702
20
-3.73053
11
5.86933
21
-3.73183
0
LINE
8
BLACK
6
CONTINUOUS
10
5.86933
20
-3.73183
11
5.86803
21
-3.7327
0
LINE
8
BLACK
6
CONTINUOUS
10
5.86803
20
-3.7327
11
5.8665
21
-3.733
0
LINE
8
BLACK
6
CONTINUOUS
10
5.8665
20
-3.733
11
5.8015
21
-3.733
0
LINE
8
BLACK
6
CONTINUOUS
10
5.8015
20
-3.733
11
5.79997
21
-3.7327
0
LINE
8
BLACK
6
CONTINUOUS
10
5.79997
20
-3.7327
11
5.79867
21
-3.73183
0
LINE
8
BLACK
6
CONTINUOUS
10
5.79867
20
-3.73183
11
5.7978
21
-3.73053
0
LINE
8
BLACK
6
CONTINUOUS
10
5.7978
20
-3.73053
11
5.7975
21
-3.729
0
LINE
8
BLACK
6
CONTINUOUS
10
5.7975
20
-3.729
11
5.7975
21
-3.664
0
LINE
8
BLACK
6
CONTINUOUS
10
5.7975
20
-3.664
11
5.7978
21
-3.66247
0
LINE
8
BLACK
6
CONTINUOUS
10
5.7978
20
-3.66247
11
5.79867
21
-3.66117
0
LINE
8
BLACK
6
CONTINUOUS
10
5.79867
20
-3.66117
11
5.79997
21
-3.6603
0
LINE
8
BLACK
6
CONTINUOUS
10
5.79997
20
-3.6603
11
5.8015
21
-3.66
0
LINE
8
BLACK
6
CONTINUOUS
10
5.8015
20
-3.66
11
5.8665
21
-3.66
0
LINE
8
BLACK
6
CONTINUOUS
10
5.8665
20
-3.66
11
5.86803
21
-3.6603
0
LINE
8
BLACK
6
CONTINUOUS
10
6.25381
20
-3.4032
11
6.2679
21
-3.40476
0
LINE
8
BLACK
6
CONTINUOUS
10
6.2679
20
-3.40476
11
6.28173
21
-3.40783
0
LINE
8
BLACK
6
CONTINUOUS
10
6.28173
20
-3.40783
11
6.29515
21
-3.41237
0
LINE
8
BLACK
6
CONTINUOUS
10
6.29515
20
-3.41237
11
6.308
21
-3.41833
0
LINE
8
BLACK
6
CONTINUOUS
10
6.308
20
-3.41833
11
6.32013
21
-3.42565
0
LINE
8
BLACK
6
CONTINUOUS
10
6.32013
20
-3.42565
11
6.3314
21
-3.43424
0
LINE
8
BLACK
6
CONTINUOUS
10
6.3314
20
-3.43424
11
6.34168
21
-3.44399
0
LINE
8
BLACK
6
CONTINUOUS
10
6.34168
20
-3.44399
11
6.35085
21
-3.4548
0
LINE
8
BLACK
6
CONTINUOUS
10
6.35085
20
-3.4548
11
6.35879
21
-3.46653
0
LINE
8
BLACK
6
CONTINUOUS
10
6.35879
20
-3.46653
11
6.36542
21
-3.47905
0
LINE
8
BLACK
6
CONTINUOUS
10
6.36542
20
-3.47905
11
6.37066
21
-3.49222
0
LINE
8
BLACK
6
CONTINUOUS
10
6.37066
20
-3.49222
11
6.37444
21
-3.50587
0
LINE
8
BLACK
6
CONTINUOUS
10
6.37444
20
-3.50587
11
6.37673
21
-3.51985
0
LINE
8
BLACK
6
CONTINUOUS
10
6.37673
20
-3.51985
11
6.3775
21
-3.534
0
LINE
8
BLACK
6
CONTINUOUS
10
6.3775
20
-3.534
11
6.3775
21
-3.53491
0
LINE
8
BLACK
6
CONTINUOUS
10
6.3775
20
-3.53491
11
6.37663
21
-3.54906
0
LINE
8
BLACK
6
CONTINUOUS
10
6.37663
20
-3.54906
11
6.37424
21
-3.56302
0
LINE
8
BLACK
6
CONTINUOUS
10
6.37424
20
-3.56302
11
6.37036
21
-3.57665
0
LINE
8
BLACK
6
CONTINUOUS
10
6.37036
20
-3.57665
11
6.36503
21
-3.58978
0
LINE
8
BLACK
6
CONTINUOUS
10
6.36503
20
-3.58978
11
6.35832
21
-3.60225
0
LINE
8
BLACK
6
CONTINUOUS
10
6.35832
20
-3.60225
11
6.35029
21
-3.61393
0
LINE
8
BLACK
6
CONTINUOUS
10
6.35029
20
-3.61393
11
6.34105
21
-3.62467
0
LINE
8
BLACK
6
CONTINUOUS
10
6.34105
20
-3.62467
11
6.33071
21
-3.63435
0
LINE
8
BLACK
6
CONTINUOUS
10
6.33071
20
-3.63435
11
6.31937
21
-3.64286
0
LINE
8
BLACK
6
CONTINUOUS
10
6.31937
20
-3.64286
11
6.30719
21
-3.65009
0
LINE
8
BLACK
6
CONTINUOUS
10
6.30719
20
-3.65009
11
6.2943
21
-3.65597
0
LINE
8
BLACK
6
CONTINUOUS
10
6.2943
20
-3.65597
11
6.28085
21
-3.66042
0
LINE
8
BLACK
6
CONTINUOUS
10
6.28085
20
-3.66042
11
6.26699
21
-3.66339
0
LINE
8
BLACK
6
CONTINUOUS
10
6.26699
20
-3.66339
11
6.2529
21
-3.66484
0
LINE
8
BLACK
6
CONTINUOUS
10
6.2529
20
-3.66484
11
6.23873
21
-3.66477
0
LINE
8
BLACK
6
CONTINUOUS
10
6.23873
20
-3.66477
11
6.22465
21
-3.66317
0
LINE
8
BLACK
6
CONTINUOUS
10
6.22465
20
-3.66317
11
6.21083
21
-3.66005
0
LINE
8
BLACK
6
CONTINUOUS
10
6.21083
20
-3.66005
11
6.19743
21
-3.65546
0
LINE
8
BLACK
6
CONTINUOUS
10
6.19743
20
-3.65546
11
6.1846
21
-3.64945
0
LINE
8
BLACK
6
CONTINUOUS
10
6.1846
20
-3.64945
11
6.17249
21
-3.64209
0
LINE
8
BLACK
6
CONTINUOUS
10
6.17249
20
-3.64209
11
6.16125
21
-3.63346
0
LINE
8
BLACK
6
CONTINUOUS
10
6.16125
20
-3.63346
11
6.15101
21
-3.62368
0
LINE
8
BLACK
6
CONTINUOUS
10
6.15101
20
-3.62368
11
6.14188
21
-3.61284
0
LINE
8
BLACK
6
CONTINUOUS
10
6.14188
20
-3.61284
11
6.13398
21
-3.60108
0
LINE
8
BLACK
6
CONTINUOUS
10
6.13398
20
-3.60108
11
6.12739
21
-3.58853
0
LINE
8
BLACK
6
CONTINUOUS
10
6.12739
20
-3.58853
11
6.1222
21
-3.57535
0
LINE
8
BLACK
6
CONTINUOUS
10
6.1222
20
-3.57535
11
6.11846
21
-3.56168
0
LINE
8
BLACK
6
CONTINUOUS
10
6.11846
20
-3.56168
11
6.11622
21
-3.54769
0
LINE
8
BLACK
6
CONTINUOUS
10
6.11622
20
-3.54769
11
6.1155
21
-3.53354
0
LINE
8
BLACK
6
CONTINUOUS
10
6.1155
20
-3.53354
11
6.11632
21
-3.5194
0
LINE
8
BLACK
6
CONTINUOUS
10
6.11632
20
-3.5194
11
6.11865
21
-3.50542
0
LINE
8
BLACK
6
CONTINUOUS
10
6.11865
20
-3.50542
11
6.12249
21
-3.49178
0
LINE
8
BLACK
6
CONTINUOUS
10
6.12249
20
-3.49178
11
6.12777
21
-3.47864
0
LINE
8
BLACK
6
CONTINUOUS
10
6.12777
20
-3.47864
11
6.13445
21
-3.46614
0
LINE
8
BLACK
6
CONTINUOUS
10
6.13445
20
-3.46614
11
6.14243
21
-3.45443
0
LINE
8
BLACK
6
CONTINUOUS
10
6.14243
20
-3.45443
11
6.15163
21
-3.44366
0
LINE
8
BLACK
6
CONTINUOUS
10
6.15163
20
-3.44366
11
6.16195
21
-3.43394
0
LINE
8
BLACK
6
CONTINUOUS
10
6.16195
20
-3.43394
11
6.17325
21
-3.4254
0
LINE
8
BLACK
6
CONTINUOUS
10
6.17325
20
-3.4254
11
6.1854
21
-3.41812
0
LINE
8
BLACK
6
CONTINUOUS
10
6.1854
20
-3.41812
11
6.19828
21
-3.4122
0
LINE
8
BLACK
6
CONTINUOUS
10
6.19828
20
-3.4122
11
6.21171
21
-3.4077
0
LINE
8
BLACK
6
CONTINUOUS
10
6.21171
20
-3.4077
11
6.22556
21
-3.40469
0
LINE
8
BLACK
6
CONTINUOUS
10
6.22556
20
-3.40469
11
6.23964
21
-3.40318
0
LINE
8
BLACK
6
CONTINUOUS
10
6.23964
20
-3.40318
11
6.25381
21
-3.4032
0
LINE
8
BLACK
6
CONTINUOUS
10
5.45381
20
-3.4032
11
5.4679
21
-3.40476
0
LINE
8
BLACK
6
CONTINUOUS
10
5.4679
20
-3.40476
11
5.48173
21
-3.40783
0
LINE
8
BLACK
6
CONTINUOUS
10
5.48173
20
-3.40783
11
5.49515
21
-3.41237
0
LINE
8
BLACK
6
CONTINUOUS
10
5.49515
20
-3.41237
11
5.508
21
-3.41833
0
LINE
8
BLACK
6
CONTINUOUS
10
5.508
20
-3.41833
11
5.52013
21
-3.42565
0
LINE
8
BLACK
6
CONTINUOUS
10
5.52013
20
-3.42565
11
5.5314
21
-3.43424
0
LINE
8
BLACK
6
CONTINUOUS
10
5.5314
20
-3.43424
11
5.54168
21
-3.44399
0
LINE
8
BLACK
6
CONTINUOUS
10
5.54168
20
-3.44399
11
5.55085
21
-3.4548
0
LINE
8
BLACK
6
CONTINUOUS
10
5.55085
20
-3.4548
11
5.55879
21
-3.46653
0
LINE
8
BLACK
6
CONTINUOUS
10
5.55879
20
-3.46653
11
5.56542
21
-3.47905
0
LINE
8
BLACK
6
CONTINUOUS
10
5.56542
20
-3.47905
11
5.57066
21
-3.49222
0
LINE
8
BLACK
6
CONTINUOUS
10
5.57066
20
-3.49222
11
5.57444
21
-3.50587
0
LINE
8
BLACK
6
CONTINUOUS
10
5.57444
20
-3.50587
11
5.57673
21
-3.51985
0
LINE
8
BLACK
6
CONTINUOUS
10
5.57673
20
-3.51985
11
5.5775
21
-3.534
0
LINE
8
BLACK
6
CONTINUOUS
10
5.5775
20
-3.534
11
5.5775
21
-3.53491
0
LINE
8
BLACK
6
CONTINUOUS
10
5.5775
20
-3.53491
11
5.57663
21
-3.54906
0
LINE
8
BLACK
6
CONTINUOUS
10
5.57663
20
-3.54906
11
5.57424
21
-3.56302
0
LINE
8
BLACK
6
CONTINUOUS
10
5.57424
20
-3.56302
11
5.57036
21
-3.57665
0
LINE
8
BLACK
6
CONTINUOUS
10
5.57036
20
-3.57665
11
5.56503
21
-3.58978
0
LINE
8
BLACK
6
CONTINUOUS
10
5.56503
20
-3.58978
11
5.55832
21
-3.60225
0
LINE
8
BLACK
6
CONTINUOUS
10
5.55832
20
-3.60225
11
5.55029
21
-3.61393
0
LINE
8
BLACK
6
CONTINUOUS
10
5.55029
20
-3.61393
11
5.54105
21
-3.62467
0
LINE
8
BLACK
6
CONTINUOUS
10
5.54105
20
-3.62467
11
5.53071
21
-3.63435
0
LINE
8
BLACK
6
CONTINUOUS
10
5.53071
20
-3.63435
11
5.51937
21
-3.64286
0
LINE
8
BLACK
6
CONTINUOUS
10
5.51937
20
-3.64286
11
5.50719
21
-3.65009
0
LINE
8
BLACK
6
CONTINUOUS
10
5.50719
20
-3.65009
11
5.4943
21
-3.65597
0
LINE
8
BLACK
6
CONTINUOUS
10
5.4943
20
-3.65597
11
5.48085
21
-3.66042
0
LINE
8
BLACK
6
CONTINUOUS
10
5.48085
20
-3.66042
11
5.46699
21
-3.66339
0
LINE
8
BLACK
6
CONTINUOUS
10
5.46699
20
-3.66339
11
5.4529
21
-3.66484
0
LINE
8
BLACK
6
CONTINUOUS
10
5.4529
20
-3.66484
11
5.43873
21
-3.66477
0
LINE
8
BLACK
6
CONTINUOUS
10
5.43873
20
-3.66477
11
5.42465
21
-3.66317
0
LINE
8
BLACK
6
CONTINUOUS
10
5.42465
20
-3.66317
11
5.41083
21
-3.66005
0
LINE
8
BLACK
6
CONTINUOUS
10
5.41083
20
-3.66005
11
5.39743
21
-3.65546
0
LINE
8
BLACK
6
CONTINUOUS
10
5.39743
20
-3.65546
11
5.3846
21
-3.64945
0
LINE
8
BLACK
6
CONTINUOUS
10
5.3846
20
-3.64945
11
5.37249
21
-3.64209
0
LINE
8
BLACK
6
CONTINUOUS
10
5.37249
20
-3.64209
11
5.36125
21
-3.63346
0
LINE
8
BLACK
6
CONTINUOUS
10
5.36125
20
-3.63346
11
5.35101
21
-3.62368
0
LINE
8
BLACK
6
CONTINUOUS
10
5.35101
20
-3.62368
11
5.34188
21
-3.61284
0
LINE
8
BLACK
6
CONTINUOUS
10
5.34188
20
-3.61284
11
5.33398
21
-3.60108
0
LINE
8
BLACK
6
CONTINUOUS
10
5.33398
20
-3.60108
11
5.32739
21
-3.58853
0
LINE
8
BLACK
6
CONTINUOUS
10
5.32739
20
-3.58853
11
5.3222
21
-3.57535
0
LINE
8
BLACK
6
CONTINUOUS
10
5.3222
20
-3.57535
11
5.31846
21
-3.56168
0
LINE
8
BLACK
6
CONTINUOUS
10
5.31846
20
-3.56168
11
5.31622
21
-3.54769
0
LINE
8
BLACK
6
CONTINUOUS
10
5.31622
20
-3.54769
11
5.3155
21
-3.53354
0
LINE
8
BLACK
6
CONTINUOUS
10
5.3155
20
-3.53354
11
5.31632
21
-3.5194
0
LINE
8
BLACK
6
CONTINUOUS
10
5.31632
20
-3.5194
11
5.31865
21
-3.50542
0
LINE
8
BLACK
6
CONTINUOUS
10
5.31865
20
-3.50542
11
5.32249
21
-3.49178
0
LINE
8
BLACK
6
CONTINUOUS
10
5.32249
20
-3.49178
11
5.32777
21
-3.47864
0
LINE
8
BLACK
6
CONTINUOUS
10
5.32777
20
-3.47864
11
5.33445
21
-3.46614
0
LINE
8
BLACK
6
CONTINUOUS
10
5.33445
20
-3.46614
11
5.34243
21
-3.45443
0
LINE
8
BLACK
6
CONTINUOUS
10
5.34243
20
-3.45443
11
5.35163
21
-3.44366
0
LINE
8
BLACK
6
CONTINUOUS
10
5.35163
20
-3.44366
11
5.36195
21
-3.43394
0
LINE
8
BLACK
6
CONTINUOUS
10
5.36195
20
-3.43394
11
5.37325
21
-3.4254
0
LINE
8
BLACK
6
CONTINUOUS
10
5.37325
20
-3.4254
11
5.3854
21
-3.41812
0
LINE
8
BLACK
6
CONTINUOUS
10
5.3854
20
-3.41812
11
5.39828
21
-3.4122
0
LINE
8
BLACK
6
CONTINUOUS
10
5.39828
20
-3.4122
11
5.41171
21
-3.4077
0
LINE
8
BLACK
6
CONTINUOUS
10
5.41171
20
-3.4077
11
5.42556
21
-3.40469
0
LINE
8
BLACK
6
CONTINUOUS
10
5.42556
20
-3.40469
11
5.43964
21
-3.40318
0
LINE
8
BLACK
6
CONTINUOUS
10
5.43964
20
-3.40318
11
5.45381
21
-3.4032
0
LINE
8
BLACK
6
CONTINUOUS
10
6.06803
20
-3.5603
11
6.06933
21
-3.56117
0
LINE
8
BLACK
6
CONTINUOUS
10
6.06933
20
-3.56117
11
6.0702
21
-3.56247
0
LINE
8
BLACK
6
CONTINUOUS
10
6.0702
20
-3.56247
11
6.0705
21
-3.564
0
LINE
8
BLACK
6
CONTINUOUS
10
6.0705
20
-3.564
11
6.0705
21
-3.629
0
LINE
8
BLACK
6
CONTINUOUS
10
6.0705
20
-3.629
11
6.0702
21
-3.63053
0
LINE
8
BLACK
6
CONTINUOUS
10
6.0702
20
-3.63053
11
6.06933
21
-3.63183
0
LINE
8
BLACK
6
CONTINUOUS
10
6.06933
20
-3.63183
11
6.06803
21
-3.6327
0
LINE
8
BLACK
6
CONTINUOUS
10
6.06803
20
-3.6327
11
6.0665
21
-3.633
0
LINE
8
BLACK
6
CONTINUOUS
10
6.0665
20
-3.633
11
6.0015
21
-3.633
0
LINE
8
BLACK
6
CONTINUOUS
10
6.0015
20
-3.633
11
5.99997
21
-3.6327
0
LINE
8
BLACK
6
CONTINUOUS
10
5.99997
20
-3.6327
11
5.99867
21
-3.63183
0
LINE
8
BLACK
6
CONTINUOUS
10
5.99867
20
-3.63183
11
5.9978
21
-3.63053
0
LINE
8
BLACK
6
CONTINUOUS
10
5.9978
20
-3.63053
11
5.9975
21
-3.629
0
LINE
8
BLACK
6
CONTINUOUS
10
5.9975
20
-3.629
11
5.9975
21
-3.564
0
LINE
8
BLACK
6
CONTINUOUS
10
5.9975
20
-3.564
11
5.9978
21
-3.56247
0
LINE
8
BLACK
6
CONTINUOUS
10
5.9978
20
-3.56247
11
5.99867
21
-3.56117
0
LINE
8
BLACK
6
CONTINUOUS
10
5.99867
20
-3.56117
11
5.99997
21
-3.5603
0
LINE
8
BLACK
6
CONTINUOUS
10
5.99997
20
-3.5603
11
6.0015
21
-3.56
0
LINE
8
BLACK
6
CONTINUOUS
10
6.0015
20
-3.56
11
6.0665
21
-3.56
0
LINE
8
BLACK
6
CONTINUOUS
10
6.0665
20
-3.56
11
6.06803
21
-3.5603
0
LINE
8
BLACK
6
CONTINUOUS
10
5.96803
20
-3.5603
11
5.96933
21
-3.56117
0
LINE
8
BLACK
6
CONTINUOUS
10
5.96933
20
-3.56117
11
5.9702
21
-3.56247
0
LINE
8
BLACK
6
CONTINUOUS
10
5.9702
20
-3.56247
11
5.9705
21
-3.564
0
LINE
8
BLACK
6
CONTINUOUS
10
5.9705
20
-3.564
11
5.9705
21
-3.629
0
LINE
8
BLACK
6
CONTINUOUS
10
5.9705
20
-3.629
11
5.9702
21
-3.63053
0
LINE
8
BLACK
6
CONTINUOUS
10
5.9702
20
-3.63053
11
5.96933
21
-3.63183
0
LINE
8
BLACK
6
CONTINUOUS
10
5.96933
20
-3.63183
11
5.96803
21
-3.6327
0
LINE
8
BLACK
6
CONTINUOUS
10
5.96803
20
-3.6327
11
5.9665
21
-3.633
0
LINE
8
BLACK
6
CONTINUOUS
10
5.9665
20
-3.633
11
5.9015
21
-3.633
0
LINE
8
BLACK
6
CONTINUOUS
10
5.9015
20
-3.633
11
5.89997
21
-3.6327
0
LINE
8
BLACK
6
CONTINUOUS
10
5.89997
20
-3.6327
11
5.89867
21
-3.63183
0
LINE
8
BLACK
6
CONTINUOUS
10
5.89867
20
-3.63183
11
5.8978
21
-3.63053
0
LINE
8
BLACK
6
CONTINUOUS
10
5.8978
20
-3.63053
11
5.8975
21
-3.629
0
LINE
8
BLACK
6
CONTINUOUS
10
5.8975
20
-3.629
11
5.8975
21
-3.564
0
LINE
8
BLACK
6
CONTINUOUS
10
5.8975
20
-3.564
11
5.8978
21
-3.56247
0
LINE
8
BLACK
6
CONTINUOUS
10
5.8978
20
-3.56247
11
5.89867
21
-3.56117
0
LINE
8
BLACK
6
CONTINUOUS
10
5.89867
20
-3.56117
11
5.89997
21
-3.5603
0
LINE
8
BLACK
6
CONTINUOUS
10
5.89997
20
-3.5603
11
5.9015
21
-3.56
0
LINE
8
BLACK
6
CONTINUOUS
10
5.9015
20
-3.56
11
5.9665
21
-3.56
0
LINE
8
BLACK
6
CONTINUOUS
10
5.9665
20
-3.56
11
5.96803
21
-3.5603
0
LINE
8
BLACK
6
CONTINUOUS
10
5.86803
20
-3.5603
11
5.86933
21
-3.56117
0
LINE
8
BLACK
6
CONTINUOUS
10
5.86933
20
-3.56117
11
5.8702
21
-3.56247
0
LINE
8
BLACK
6
CONTINUOUS
10
5.8702
20
-3.56247
11
5.8705
21
-3.564
0
LINE
8
BLACK
6
CONTINUOUS
10
5.8705
20
-3.564
11
5.8705
21
-3.629
0
LINE
8
BLACK
6
CONTINUOUS
10
5.8705
20
-3.629
11
5.8702
21
-3.63053
0
LINE
8
BLACK
6
CONTINUOUS
10
5.8702
20
-3.63053
11
5.86933
21
-3.63183
0
LINE
8
BLACK
6
CONTINUOUS
10
5.86933
20
-3.63183
11
5.86803
21
-3.6327
0
LINE
8
BLACK
6
CONTINUOUS
10
5.86803
20
-3.6327
11
5.8665
21
-3.633
0
LINE
8
BLACK
6
CONTINUOUS
10
5.8665
20
-3.633
11
5.8015
21
-3.633
0
LINE
8
BLACK
6
CONTINUOUS
10
5.8015
20
-3.633
11
5.79997
21
-3.6327
0
LINE
8
BLACK
6
CONTINUOUS
10
5.79997
20
-3.6327
11
5.79867
21
-3.63183
0
LINE
8
BLACK
6
CONTINUOUS
10
5.79867
20
-3.63183
11
5.7978
21
-3.63053
0
LINE
8
BLACK
6
CONTINUOUS
10
5.7978
20
-3.63053
11
5.7975
21
-3.629
0
LINE
8
BLACK
6
CONTINUOUS
10
5.7975
20
-3.629
11
5.7975
21
-3.564
0
LINE
8
BLACK
6
CONTINUOUS
10
5.7975
20
-3.564
11
5.7978
21
-3.56247
0
LINE
8
BLACK
6
CONTINUOUS
10
5.7978
20
-3.56247
11
5.79867
21
-3.56117
0
LINE
8
BLACK
6
CONTINUOUS
10
5.79867
20
-3.56117
11
5.79997
21
-3.5603
0
LINE
8
BLACK
6
CONTINUOUS
10
5.79997
20
-3.5603
11
5.8015
21
-3.56
0
LINE
8
BLACK
6
CONTINUOUS
10
5.8015
20
-3.56
11
5.8665
21
-3.56
0
LINE
8
BLACK
6
CONTINUOUS
10
5.8665
20
-3.56
11
5.86803
21
-3.5603
0
LINE
8
BLACK
6
CONTINUOUS
10
5.72803
20
-3.4553
11
5.72933
21
-3.45617
0
LINE
8
BLACK
6
CONTINUOUS
10
5.72933
20
-3.45617
11
5.7302
21
-3.45747
0
LINE
8
BLACK
6
CONTINUOUS
10
5.7302
20
-3.45747
11
5.7305
21
-3.459
0
LINE
8
BLACK
6
CONTINUOUS
10
5.7305
20
-3.459
11
5.7305
21
-3.559
0
LINE
8
BLACK
6
CONTINUOUS
10
5.7305
20
-3.559
11
5.7302
21
-3.56053
0
LINE
8
BLACK
6
CONTINUOUS
10
5.7302
20
-3.56053
11
5.72933
21
-3.56183
0
LINE
8
BLACK
6
CONTINUOUS
10
5.72933
20
-3.56183
11
5.72803
21
-3.5627
0
LINE
8
BLACK
6
CONTINUOUS
10
5.72803
20
-3.5627
11
5.7265
21
-3.563
0
LINE
8
BLACK
6
CONTINUOUS
10
5.7265
20
-3.563
11
5.6415
21
-3.563
0
LINE
8
BLACK
6
CONTINUOUS
10
5.6415
20
-3.563
11
5.63997
21
-3.5627
0
LINE
8
BLACK
6
CONTINUOUS
10
5.63997
20
-3.5627
11
5.63867
21
-3.56183
0
LINE
8
BLACK
6
CONTINUOUS
10
5.63867
20
-3.56183
11
5.6378
21
-3.56053
0
LINE
8
BLACK
6
CONTINUOUS
10
5.6378
20
-3.56053
11
5.6375
21
-3.559
0
LINE
8
BLACK
6
CONTINUOUS
10
5.6375
20
-3.559
11
5.6375
21
-3.459
0
LINE
8
BLACK
6
CONTINUOUS
10
5.6375
20
-3.459
11
5.6378
21
-3.45747
0
LINE
8
BLACK
6
CONTINUOUS
10
5.6378
20
-3.45747
11
5.63867
21
-3.45617
0
LINE
8
BLACK
6
CONTINUOUS
10
5.63867
20
-3.45617
11
5.63997
21
-3.4553
0
LINE
8
BLACK
6
CONTINUOUS
10
5.63997
20
-3.4553
11
5.6415
21
-3.455
0
LINE
8
BLACK
6
CONTINUOUS
10
5.6415
20
-3.455
11
5.7265
21
-3.455
0
LINE
8
BLACK
6
CONTINUOUS
10
5.7265
20
-3.455
11
5.72803
21
-3.4553
0
LINE
8
BLACK
6
CONTINUOUS
10
5.96803
20
-3.4603
11
5.96933
21
-3.46117
0
LINE
8
BLACK
6
CONTINUOUS
10
5.96933
20
-3.46117
11
5.9702
21
-3.46247
0
LINE
8
BLACK
6
CONTINUOUS
10
5.9702
20
-3.46247
11
5.9705
21
-3.464
0
LINE
8
BLACK
6
CONTINUOUS
10
5.9705
20
-3.464
11
5.9705
21
-3.529
0
LINE
8
BLACK
6
CONTINUOUS
10
5.9705
20
-3.529
11
5.9702
21
-3.53053
0
LINE
8
BLACK
6
CONTINUOUS
10
5.9702
20
-3.53053
11
5.96933
21
-3.53183
0
LINE
8
BLACK
6
CONTINUOUS
10
5.96933
20
-3.53183
11
5.96803
21
-3.5327
0
LINE
8
BLACK
6
CONTINUOUS
10
5.96803
20
-3.5327
11
5.9665
21
-3.533
0
LINE
8
BLACK
6
CONTINUOUS
10
5.9665
20
-3.533
11
5.9015
21
-3.533
0
LINE
8
BLACK
6
CONTINUOUS
10
5.9015
20
-3.533
11
5.89997
21
-3.5327
0
LINE
8
BLACK
6
CONTINUOUS
10
5.89997
20
-3.5327
11
5.89867
21
-3.53183
0
LINE
8
BLACK
6
CONTINUOUS
10
5.89867
20
-3.53183
11
5.8978
21
-3.53053
0
LINE
8
BLACK
6
CONTINUOUS
10
5.8978
20
-3.53053
11
5.8975
21
-3.529
0
LINE
8
BLACK
6
CONTINUOUS
10
5.8975
20
-3.529
11
5.8975
21
-3.464
0
LINE
8
BLACK
6
CONTINUOUS
10
5.8975
20
-3.464
11
5.8978
21
-3.46247
0
LINE
8
BLACK
6
CONTINUOUS
10
5.8978
20
-3.46247
11
5.89867
21
-3.46117
0
LINE
8
BLACK
6
CONTINUOUS
10
5.89867
20
-3.46117
11
5.89997
21
-3.4603
0
LINE
8
BLACK
6
CONTINUOUS
10
5.89997
20
-3.4603
11
5.9015
21
-3.46
0
LINE
8
BLACK
6
CONTINUOUS
10
5.9015
20
-3.46
11
5.9665
21
-3.46
0
LINE
8
BLACK
6
CONTINUOUS
10
5.9665
20
-3.46
11
5.96803
21
-3.4603
0
LINE
8
BLACK
6
CONTINUOUS
10
6.06803
20
-3.4603
11
6.06933
21
-3.46117
0
LINE
8
BLACK
6
CONTINUOUS
10
6.06933
20
-3.46117
11
6.0702
21
-3.46247
0
LINE
8
BLACK
6
CONTINUOUS
10
6.0702
20
-3.46247
11
6.0705
21
-3.464
0
LINE
8
BLACK
6
CONTINUOUS
10
6.0705
20
-3.464
11
6.0705
21
-3.529
0
LINE
8
BLACK
6
CONTINUOUS
10
6.0705
20
-3.529
11
6.0702
21
-3.53053
0
LINE
8
BLACK
6
CONTINUOUS
10
6.0702
20
-3.53053
11
6.06933
21
-3.53183
0
LINE
8
BLACK
6
CONTINUOUS
10
6.06933
20
-3.53183
11
6.06803
21
-3.5327
0
LINE
8
BLACK
6
CONTINUOUS
10
6.06803
20
-3.5327
11
6.0665
21
-3.533
0
LINE
8
BLACK
6
CONTINUOUS
10
6.0665
20
-3.533
11
6.0015
21
-3.533
0
LINE
8
BLACK
6
CONTINUOUS
10
6.0015
20
-3.533
11
5.99997
21
-3.5327
0
LINE
8
BLACK
6
CONTINUOUS
10
5.99997
20
-3.5327
11
5.99867
21
-3.53183
0
LINE
8
BLACK
6
CONTINUOUS
10
5.99867
20
-3.53183
11
5.9978
21
-3.53053
0
LINE
8
BLACK
6
CONTINUOUS
10
5.9978
20
-3.53053
11
5.9975
21
-3.529
0
LINE
8
BLACK
6
CONTINUOUS
10
5.9975
20
-3.529
11
5.9975
21
-3.464
0
LINE
8
BLACK
6
CONTINUOUS
10
5.9975
20
-3.464
11
5.9978
21
-3.46247
0
LINE
8
BLACK
6
CONTINUOUS
10
5.9978
20
-3.46247
11
5.99867
21
-3.46117
0
LINE
8
BLACK
6
CONTINUOUS
10
5.99867
20
-3.46117
11
5.99997
21
-3.4603
0
LINE
8
BLACK
6
CONTINUOUS
10
5.99997
20
-3.4603
11
6.0015
21
-3.46
0
LINE
8
BLACK
6
CONTINUOUS
10
6.0015
20
-3.46
11
6.0665
21
-3.46
0
LINE
8
BLACK
6
CONTINUOUS
10
6.0665
20
-3.46
11
6.06803
21
-3.4603
0
LINE
8
BLACK
6
CONTINUOUS
10
5.86803
20
-3.4603
11
5.86933
21
-3.46117
0
LINE
8
BLACK
6
CONTINUOUS
10
5.86933
20
-3.46117
11
5.8702
21
-3.46247
0
LINE
8
BLACK
6
CONTINUOUS
10
5.8702
20
-3.46247
11
5.8705
21
-3.464
0
LINE
8
BLACK
6
CONTINUOUS
10
5.8705
20
-3.464
11
5.8705
21
-3.529
0
LINE
8
BLACK
6
CONTINUOUS
10
5.8705
20
-3.529
11
5.8702
21
-3.53053
0
LINE
8
BLACK
6
CONTINUOUS
10
5.8702
20
-3.53053
11
5.86933
21
-3.53183
0
LINE
8
BLACK
6
CONTINUOUS
10
5.86933
20
-3.53183
11
5.86803
21
-3.5327
0
LINE
8
BLACK
6
CONTINUOUS
10
5.86803
20
-3.5327
11
5.8665
21
-3.533
0
LINE
8
BLACK
6
CONTINUOUS
10
5.8665
20
-3.533
11
5.8015
21
-3.533
0
LINE
8
BLACK
6
CONTINUOUS
10
5.8015
20
-3.533
11
5.79997
21
-3.5327
0
LINE
8
BLACK
6
CONTINUOUS
10
5.79997
20
-3.5327
11
5.79867
21
-3.53183
0
LINE
8
BLACK
6
CONTINUOUS
10
5.79867
20
-3.53183
11
5.7978
21
-3.53053
0
LINE
8
BLACK
6
CONTINUOUS
10
5.7978
20
-3.53053
11
5.7975
21
-3.529
0
LINE
8
BLACK
6
CONTINUOUS
10
5.7975
20
-3.529
11
5.7975
21
-3.464
0
LINE
8
BLACK
6
CONTINUOUS
10
5.7975
20
-3.464
11
5.7978
21
-3.46247
0
LINE
8
BLACK
6
CONTINUOUS
10
5.7978
20
-3.46247
11
5.79867
21
-3.46117
0
LINE
8
BLACK
6
CONTINUOUS
10
5.79867
20
-3.46117
11
5.79997
21
-3.4603
0
LINE
8
BLACK
6
CONTINUOUS
10
5.79997
20
-3.4603
11
5.8015
21
-3.46
0
LINE
8
BLACK
6
CONTINUOUS
10
5.8015
20
-3.46
11
5.8665
21
-3.46
0
LINE
8
BLACK
6
CONTINUOUS
10
5.8665
20
-3.46
11
5.86803
21
-3.4603
  0
ENDSEC
  0
EOF
