  0
SECTION
  2
HEADER
  9
$ANGBASE
  50
0.0
  9
$ANGDIR
  70
1
  9
$MEASUREMENT
  70
0
  0
ENDSEC
  0
SECTION
  2
TABLES
  0
TABLE
  2
LTYPE
  70
4
  0
LTYPE
  5
40F
  2
CONTINUOUS
  70
0
  3
Solid line
  72
65
  73
0
  40
0.0
  0
LTYPE
  5
410
  2
DASHDOT
 70
0
  3
Dash Dot ____ _ ____ _
 72
65
 73
4
 40
2.0
 49
1.25
 49
-0.25
 49
0.25
 49
-0.25
  0
LTYPE
  5
411
  2
DASHED
 70
0
  3
Dashed __ __ __ __ __
 72
65
 73
2
 40
0.75
 49
0.5
 49
-0.25
  0
LTYPE
  5
43B
  2
DOTTED
 70
0
  3
Dotted .  .  .  .
 72
65
 73
2
 40
0.2
 49
0.0
 49
-0.2
  0
ENDTAB
  0
TABLE
  2
STYLE
  70
4
  0
STYLE
  2
KICAD
  70
0
  40
0
  41
1
  42
1
  50
0
  71
0
  3
isocp.shx
  0
STYLE
  2
KICADB
  70
0
  40
0
  41
1
  42
1
  50
0
  71
0
  3
isocp.shx
  0
STYLE
  2
KICADI
  70
0
  40
0
  41
1
  42
1
  50
15
  71
0
  3
isocp.shx
  0
STYLE
  2
KICADBI
  70
0
  40
0
  41
1
  42
1
  50
15
  71
0
  3
isocp.shx
  0
ENDTAB
  0
TABLE
  2
LAYER
  70
1
  0
LAYER
  2
BLACK
  70
0
  62
7
  6
CONTINUOUS
  0
ENDTAB
  0
ENDSEC
  0
SECTION
  2
ENTITIES
0
LINE
8
BLACK
6
CONTINUOUS
10
5.45515
20
-4.61621
11
5.46863
21
-4.61798
0
LINE
8
BLACK
6
CONTINUOUS
10
5.46863
20
-4.61798
11
5.48182
21
-4.62129
0
LINE
8
BLACK
6
CONTINUOUS
10
5.48182
20
-4.62129
11
5.49454
21
-4.6261
0
LINE
8
BLACK
6
CONTINUOUS
10
5.49454
20
-4.6261
11
5.50662
21
-4.63234
0
LINE
8
BLACK
6
CONTINUOUS
10
5.50662
20
-4.63234
11
5.51791
21
-4.63992
0
LINE
8
BLACK
6
CONTINUOUS
10
5.51791
20
-4.63992
11
5.52825
21
-4.64875
0
LINE
8
BLACK
6
CONTINUOUS
10
5.52825
20
-4.64875
11
5.53751
21
-4.65871
0
LINE
8
BLACK
6
CONTINUOUS
10
5.53751
20
-4.65871
11
5.54556
21
-4.66967
0
LINE
8
BLACK
6
CONTINUOUS
10
5.54556
20
-4.66967
11
5.55229
21
-4.68148
0
LINE
8
BLACK
6
CONTINUOUS
10
5.55229
20
-4.68148
11
5.55763
21
-4.69399
0
LINE
8
BLACK
6
CONTINUOUS
10
5.55763
20
-4.69399
11
5.56149
21
-4.70703
0
LINE
8
BLACK
6
CONTINUOUS
10
5.56149
20
-4.70703
11
5.56383
21
-4.72042
0
LINE
8
BLACK
6
CONTINUOUS
10
5.56383
20
-4.72042
11
5.56461
21
-4.734
0
LINE
8
BLACK
6
CONTINUOUS
10
5.56461
20
-4.734
11
5.56438
21
-4.74142
0
LINE
8
BLACK
6
CONTINUOUS
10
5.56438
20
-4.74142
11
5.56274
21
-4.75492
0
LINE
8
BLACK
6
CONTINUOUS
10
5.56274
20
-4.75492
11
5.55957
21
-4.76814
0
LINE
8
BLACK
6
CONTINUOUS
10
5.55957
20
-4.76814
11
5.5549
21
-4.78091
0
LINE
8
BLACK
6
CONTINUOUS
10
5.5549
20
-4.78091
11
5.54879
21
-4.79306
0
LINE
8
BLACK
6
CONTINUOUS
10
5.54879
20
-4.79306
11
5.54132
21
-4.80442
0
LINE
8
BLACK
6
CONTINUOUS
10
5.54132
20
-4.80442
11
5.5326
21
-4.81485
0
LINE
8
BLACK
6
CONTINUOUS
10
5.5326
20
-4.81485
11
5.52274
21
-4.82421
0
LINE
8
BLACK
6
CONTINUOUS
10
5.52274
20
-4.82421
11
5.51186
21
-4.83238
0
LINE
8
BLACK
6
CONTINUOUS
10
5.51186
20
-4.83238
11
5.50012
21
-4.83924
0
LINE
8
BLACK
6
CONTINUOUS
10
5.50012
20
-4.83924
11
5.48767
21
-4.8447
0
LINE
8
BLACK
6
CONTINUOUS
10
5.48767
20
-4.8447
11
5.47467
21
-4.8487
0
LINE
8
BLACK
6
CONTINUOUS
10
5.47467
20
-4.8487
11
5.4613
21
-4.85118
0
LINE
8
BLACK
6
CONTINUOUS
10
5.4613
20
-4.85118
11
5.44774
21
-4.8521
0
LINE
8
BLACK
6
CONTINUOUS
10
5.44774
20
-4.8521
11
5.43415
21
-4.85146
0
LINE
8
BLACK
6
CONTINUOUS
10
5.43415
20
-4.85146
11
5.42074
21
-4.84927
0
LINE
8
BLACK
6
CONTINUOUS
10
5.42074
20
-4.84927
11
5.40766
21
-4.84554
0
LINE
8
BLACK
6
CONTINUOUS
10
5.40766
20
-4.84554
11
5.39509
21
-4.84034
0
LINE
8
BLACK
6
CONTINUOUS
10
5.39509
20
-4.84034
11
5.38321
21
-4.83372
0
LINE
8
BLACK
6
CONTINUOUS
10
5.38321
20
-4.83372
11
5.37217
21
-4.82579
0
LINE
8
BLACK
6
CONTINUOUS
10
5.37217
20
-4.82579
11
5.36211
21
-4.81664
0
LINE
8
BLACK
6
CONTINUOUS
10
5.36211
20
-4.81664
11
5.35317
21
-4.80639
0
LINE
8
BLACK
6
CONTINUOUS
10
5.35317
20
-4.80639
11
5.34547
21
-4.79518
0
LINE
8
BLACK
6
CONTINUOUS
10
5.34547
20
-4.79518
11
5.33911
21
-4.78317
0
LINE
8
BLACK
6
CONTINUOUS
10
5.33911
20
-4.78317
11
5.33417
21
-4.7705
0
LINE
8
BLACK
6
CONTINUOUS
10
5.33417
20
-4.7705
11
5.33072
21
-4.75735
0
LINE
8
BLACK
6
CONTINUOUS
10
5.33072
20
-4.75735
11
5.3288
21
-4.74388
0
LINE
8
BLACK
6
CONTINUOUS
10
5.3288
20
-4.74388
11
5.32845
21
-4.73029
0
LINE
8
BLACK
6
CONTINUOUS
10
5.32845
20
-4.73029
11
5.32966
21
-4.71675
0
LINE
8
BLACK
6
CONTINUOUS
10
5.32966
20
-4.71675
11
5.33241
21
-4.70343
0
LINE
8
BLACK
6
CONTINUOUS
10
5.33241
20
-4.70343
11
5.33668
21
-4.69052
0
LINE
8
BLACK
6
CONTINUOUS
10
5.33668
20
-4.69052
11
5.34241
21
-4.67819
0
LINE
8
BLACK
6
CONTINUOUS
10
5.34241
20
-4.67819
11
5.34951
21
-4.66659
0
LINE
8
BLACK
6
CONTINUOUS
10
5.34951
20
-4.66659
11
5.3579
21
-4.65589
0
LINE
8
BLACK
6
CONTINUOUS
10
5.3579
20
-4.65589
11
5.36747
21
-4.64623
0
LINE
8
BLACK
6
CONTINUOUS
10
5.36747
20
-4.64623
11
5.37808
21
-4.63773
0
LINE
8
BLACK
6
CONTINUOUS
10
5.37808
20
-4.63773
11
5.3896
21
-4.6305
0
LINE
8
BLACK
6
CONTINUOUS
10
5.3896
20
-4.6305
11
5.40187
21
-4.62465
0
LINE
8
BLACK
6
CONTINUOUS
10
5.40187
20
-4.62465
11
5.41474
21
-4.62024
0
LINE
8
BLACK
6
CONTINUOUS
10
5.41474
20
-4.62024
11
5.42802
21
-4.61734
0
LINE
8
BLACK
6
CONTINUOUS
10
5.42802
20
-4.61734
11
5.44155
21
-4.61599
0
LINE
8
BLACK
6
CONTINUOUS
10
5.44155
20
-4.61599
11
5.45515
21
-4.61621
0
LINE
8
BLACK
6
CONTINUOUS
10
6.25515
20
-4.61621
11
6.26863
21
-4.61798
0
LINE
8
BLACK
6
CONTINUOUS
10
6.26863
20
-4.61798
11
6.28182
21
-4.62129
0
LINE
8
BLACK
6
CONTINUOUS
10
6.28182
20
-4.62129
11
6.29454
21
-4.6261
0
LINE
8
BLACK
6
CONTINUOUS
10
6.29454
20
-4.6261
11
6.30662
21
-4.63234
0
LINE
8
BLACK
6
CONTINUOUS
10
6.30662
20
-4.63234
11
6.31791
21
-4.63992
0
LINE
8
BLACK
6
CONTINUOUS
10
6.31791
20
-4.63992
11
6.32825
21
-4.64875
0
LINE
8
BLACK
6
CONTINUOUS
10
6.32825
20
-4.64875
11
6.33751
21
-4.65871
0
LINE
8
BLACK
6
CONTINUOUS
10
6.33751
20
-4.65871
11
6.34556
21
-4.66967
0
LINE
8
BLACK
6
CONTINUOUS
10
6.34556
20
-4.66967
11
6.35229
21
-4.68148
0
LINE
8
BLACK
6
CONTINUOUS
10
6.35229
20
-4.68148
11
6.35763
21
-4.69399
0
LINE
8
BLACK
6
CONTINUOUS
10
6.35763
20
-4.69399
11
6.36149
21
-4.70703
0
LINE
8
BLACK
6
CONTINUOUS
10
6.36149
20
-4.70703
11
6.36383
21
-4.72042
0
LINE
8
BLACK
6
CONTINUOUS
10
6.36383
20
-4.72042
11
6.36461
21
-4.734
0
LINE
8
BLACK
6
CONTINUOUS
10
6.36461
20
-4.734
11
6.36438
21
-4.74142
0
LINE
8
BLACK
6
CONTINUOUS
10
6.36438
20
-4.74142
11
6.36274
21
-4.75492
0
LINE
8
BLACK
6
CONTINUOUS
10
6.36274
20
-4.75492
11
6.35957
21
-4.76814
0
LINE
8
BLACK
6
CONTINUOUS
10
6.35957
20
-4.76814
11
6.3549
21
-4.78091
0
LINE
8
BLACK
6
CONTINUOUS
10
6.3549
20
-4.78091
11
6.34879
21
-4.79306
0
LINE
8
BLACK
6
CONTINUOUS
10
6.34879
20
-4.79306
11
6.34132
21
-4.80442
0
LINE
8
BLACK
6
CONTINUOUS
10
6.34132
20
-4.80442
11
6.3326
21
-4.81485
0
LINE
8
BLACK
6
CONTINUOUS
10
6.3326
20
-4.81485
11
6.32274
21
-4.82421
0
LINE
8
BLACK
6
CONTINUOUS
10
6.32274
20
-4.82421
11
6.31186
21
-4.83238
0
LINE
8
BLACK
6
CONTINUOUS
10
6.31186
20
-4.83238
11
6.30012
21
-4.83924
0
LINE
8
BLACK
6
CONTINUOUS
10
6.30012
20
-4.83924
11
6.28767
21
-4.8447
0
LINE
8
BLACK
6
CONTINUOUS
10
6.28767
20
-4.8447
11
6.27467
21
-4.8487
0
LINE
8
BLACK
6
CONTINUOUS
10
6.27467
20
-4.8487
11
6.2613
21
-4.85118
0
LINE
8
BLACK
6
CONTINUOUS
10
6.2613
20
-4.85118
11
6.24774
21
-4.8521
0
LINE
8
BLACK
6
CONTINUOUS
10
6.24774
20
-4.8521
11
6.23415
21
-4.85146
0
LINE
8
BLACK
6
CONTINUOUS
10
6.23415
20
-4.85146
11
6.22074
21
-4.84927
0
LINE
8
BLACK
6
CONTINUOUS
10
6.22074
20
-4.84927
11
6.20766
21
-4.84554
0
LINE
8
BLACK
6
CONTINUOUS
10
6.20766
20
-4.84554
11
6.19509
21
-4.84034
0
LINE
8
BLACK
6
CONTINUOUS
10
6.19509
20
-4.84034
11
6.18321
21
-4.83372
0
LINE
8
BLACK
6
CONTINUOUS
10
6.18321
20
-4.83372
11
6.17217
21
-4.82579
0
LINE
8
BLACK
6
CONTINUOUS
10
6.17217
20
-4.82579
11
6.16211
21
-4.81664
0
LINE
8
BLACK
6
CONTINUOUS
10
6.16211
20
-4.81664
11
6.15317
21
-4.80639
0
LINE
8
BLACK
6
CONTINUOUS
10
6.15317
20
-4.80639
11
6.14547
21
-4.79518
0
LINE
8
BLACK
6
CONTINUOUS
10
6.14547
20
-4.79518
11
6.13911
21
-4.78317
0
LINE
8
BLACK
6
CONTINUOUS
10
6.13911
20
-4.78317
11
6.13417
21
-4.7705
0
LINE
8
BLACK
6
CONTINUOUS
10
6.13417
20
-4.7705
11
6.13072
21
-4.75735
0
LINE
8
BLACK
6
CONTINUOUS
10
6.13072
20
-4.75735
11
6.1288
21
-4.74388
0
LINE
8
BLACK
6
CONTINUOUS
10
6.1288
20
-4.74388
11
6.12845
21
-4.73029
0
LINE
8
BLACK
6
CONTINUOUS
10
6.12845
20
-4.73029
11
6.12966
21
-4.71675
0
LINE
8
BLACK
6
CONTINUOUS
10
6.12966
20
-4.71675
11
6.13241
21
-4.70343
0
LINE
8
BLACK
6
CONTINUOUS
10
6.13241
20
-4.70343
11
6.13668
21
-4.69052
0
LINE
8
BLACK
6
CONTINUOUS
10
6.13668
20
-4.69052
11
6.14241
21
-4.67819
0
LINE
8
BLACK
6
CONTINUOUS
10
6.14241
20
-4.67819
11
6.14951
21
-4.66659
0
LINE
8
BLACK
6
CONTINUOUS
10
6.14951
20
-4.66659
11
6.1579
21
-4.65589
0
LINE
8
BLACK
6
CONTINUOUS
10
6.1579
20
-4.65589
11
6.16747
21
-4.64623
0
LINE
8
BLACK
6
CONTINUOUS
10
6.16747
20
-4.64623
11
6.17808
21
-4.63773
0
LINE
8
BLACK
6
CONTINUOUS
10
6.17808
20
-4.63773
11
6.1896
21
-4.6305
0
LINE
8
BLACK
6
CONTINUOUS
10
6.1896
20
-4.6305
11
6.20187
21
-4.62465
0
LINE
8
BLACK
6
CONTINUOUS
10
6.20187
20
-4.62465
11
6.21474
21
-4.62024
0
LINE
8
BLACK
6
CONTINUOUS
10
6.21474
20
-4.62024
11
6.22802
21
-4.61734
0
LINE
8
BLACK
6
CONTINUOUS
10
6.22802
20
-4.61734
11
6.24155
21
-4.61599
0
LINE
8
BLACK
6
CONTINUOUS
10
6.24155
20
-4.61599
11
6.25515
21
-4.61621
0
LINE
8
BLACK
6
CONTINUOUS
10
5.45515
20
-3.41621
11
5.46863
21
-3.41798
0
LINE
8
BLACK
6
CONTINUOUS
10
5.46863
20
-3.41798
11
5.48182
21
-3.42129
0
LINE
8
BLACK
6
CONTINUOUS
10
5.48182
20
-3.42129
11
5.49454
21
-3.4261
0
LINE
8
BLACK
6
CONTINUOUS
10
5.49454
20
-3.4261
11
5.50662
21
-3.43234
0
LINE
8
BLACK
6
CONTINUOUS
10
5.50662
20
-3.43234
11
5.51791
21
-3.43992
0
LINE
8
BLACK
6
CONTINUOUS
10
5.51791
20
-3.43992
11
5.52825
21
-3.44875
0
LINE
8
BLACK
6
CONTINUOUS
10
5.52825
20
-3.44875
11
5.53751
21
-3.45871
0
LINE
8
BLACK
6
CONTINUOUS
10
5.53751
20
-3.45871
11
5.54556
21
-3.46967
0
LINE
8
BLACK
6
CONTINUOUS
10
5.54556
20
-3.46967
11
5.55229
21
-3.48148
0
LINE
8
BLACK
6
CONTINUOUS
10
5.55229
20
-3.48148
11
5.55763
21
-3.49399
0
LINE
8
BLACK
6
CONTINUOUS
10
5.55763
20
-3.49399
11
5.56149
21
-3.50703
0
LINE
8
BLACK
6
CONTINUOUS
10
5.56149
20
-3.50703
11
5.56383
21
-3.52042
0
LINE
8
BLACK
6
CONTINUOUS
10
5.56383
20
-3.52042
11
5.56461
21
-3.534
0
LINE
8
BLACK
6
CONTINUOUS
10
5.56461
20
-3.534
11
5.56438
21
-3.54142
0
LINE
8
BLACK
6
CONTINUOUS
10
5.56438
20
-3.54142
11
5.56274
21
-3.55492
0
LINE
8
BLACK
6
CONTINUOUS
10
5.56274
20
-3.55492
11
5.55957
21
-3.56814
0
LINE
8
BLACK
6
CONTINUOUS
10
5.55957
20
-3.56814
11
5.5549
21
-3.58091
0
LINE
8
BLACK
6
CONTINUOUS
10
5.5549
20
-3.58091
11
5.54879
21
-3.59306
0
LINE
8
BLACK
6
CONTINUOUS
10
5.54879
20
-3.59306
11
5.54132
21
-3.60442
0
LINE
8
BLACK
6
CONTINUOUS
10
5.54132
20
-3.60442
11
5.5326
21
-3.61485
0
LINE
8
BLACK
6
CONTINUOUS
10
5.5326
20
-3.61485
11
5.52274
21
-3.62421
0
LINE
8
BLACK
6
CONTINUOUS
10
5.52274
20
-3.62421
11
5.51186
21
-3.63238
0
LINE
8
BLACK
6
CONTINUOUS
10
5.51186
20
-3.63238
11
5.50012
21
-3.63924
0
LINE
8
BLACK
6
CONTINUOUS
10
5.50012
20
-3.63924
11
5.48767
21
-3.6447
0
LINE
8
BLACK
6
CONTINUOUS
10
5.48767
20
-3.6447
11
5.47467
21
-3.6487
0
LINE
8
BLACK
6
CONTINUOUS
10
5.47467
20
-3.6487
11
5.4613
21
-3.65118
0
LINE
8
BLACK
6
CONTINUOUS
10
5.4613
20
-3.65118
11
5.44774
21
-3.6521
0
LINE
8
BLACK
6
CONTINUOUS
10
5.44774
20
-3.6521
11
5.43415
21
-3.65146
0
LINE
8
BLACK
6
CONTINUOUS
10
5.43415
20
-3.65146
11
5.42074
21
-3.64927
0
LINE
8
BLACK
6
CONTINUOUS
10
5.42074
20
-3.64927
11
5.40766
21
-3.64554
0
LINE
8
BLACK
6
CONTINUOUS
10
5.40766
20
-3.64554
11
5.39509
21
-3.64034
0
LINE
8
BLACK
6
CONTINUOUS
10
5.39509
20
-3.64034
11
5.38321
21
-3.63372
0
LINE
8
BLACK
6
CONTINUOUS
10
5.38321
20
-3.63372
11
5.37217
21
-3.62579
0
LINE
8
BLACK
6
CONTINUOUS
10
5.37217
20
-3.62579
11
5.36211
21
-3.61664
0
LINE
8
BLACK
6
CONTINUOUS
10
5.36211
20
-3.61664
11
5.35317
21
-3.60639
0
LINE
8
BLACK
6
CONTINUOUS
10
5.35317
20
-3.60639
11
5.34547
21
-3.59518
0
LINE
8
BLACK
6
CONTINUOUS
10
5.34547
20
-3.59518
11
5.33911
21
-3.58317
0
LINE
8
BLACK
6
CONTINUOUS
10
5.33911
20
-3.58317
11
5.33417
21
-3.5705
0
LINE
8
BLACK
6
CONTINUOUS
10
5.33417
20
-3.5705
11
5.33072
21
-3.55735
0
LINE
8
BLACK
6
CONTINUOUS
10
5.33072
20
-3.55735
11
5.3288
21
-3.54388
0
LINE
8
BLACK
6
CONTINUOUS
10
5.3288
20
-3.54388
11
5.32845
21
-3.53029
0
LINE
8
BLACK
6
CONTINUOUS
10
5.32845
20
-3.53029
11
5.32966
21
-3.51675
0
LINE
8
BLACK
6
CONTINUOUS
10
5.32966
20
-3.51675
11
5.33241
21
-3.50343
0
LINE
8
BLACK
6
CONTINUOUS
10
5.33241
20
-3.50343
11
5.33668
21
-3.49052
0
LINE
8
BLACK
6
CONTINUOUS
10
5.33668
20
-3.49052
11
5.34241
21
-3.47819
0
LINE
8
BLACK
6
CONTINUOUS
10
5.34241
20
-3.47819
11
5.34951
21
-3.46659
0
LINE
8
BLACK
6
CONTINUOUS
10
5.34951
20
-3.46659
11
5.3579
21
-3.45589
0
LINE
8
BLACK
6
CONTINUOUS
10
5.3579
20
-3.45589
11
5.36747
21
-3.44623
0
LINE
8
BLACK
6
CONTINUOUS
10
5.36747
20
-3.44623
11
5.37808
21
-3.43773
0
LINE
8
BLACK
6
CONTINUOUS
10
5.37808
20
-3.43773
11
5.3896
21
-3.4305
0
LINE
8
BLACK
6
CONTINUOUS
10
5.3896
20
-3.4305
11
5.40187
21
-3.42465
0
LINE
8
BLACK
6
CONTINUOUS
10
5.40187
20
-3.42465
11
5.41474
21
-3.42024
0
LINE
8
BLACK
6
CONTINUOUS
10
5.41474
20
-3.42024
11
5.42802
21
-3.41734
0
LINE
8
BLACK
6
CONTINUOUS
10
5.42802
20
-3.41734
11
5.44155
21
-3.41599
0
LINE
8
BLACK
6
CONTINUOUS
10
5.44155
20
-3.41599
11
5.45515
21
-3.41621
0
LINE
8
BLACK
6
CONTINUOUS
10
6.25515
20
-3.41621
11
6.26863
21
-3.41798
0
LINE
8
BLACK
6
CONTINUOUS
10
6.26863
20
-3.41798
11
6.28182
21
-3.42129
0
LINE
8
BLACK
6
CONTINUOUS
10
6.28182
20
-3.42129
11
6.29454
21
-3.4261
0
LINE
8
BLACK
6
CONTINUOUS
10
6.29454
20
-3.4261
11
6.30662
21
-3.43234
0
LINE
8
BLACK
6
CONTINUOUS
10
6.30662
20
-3.43234
11
6.31791
21
-3.43992
0
LINE
8
BLACK
6
CONTINUOUS
10
6.31791
20
-3.43992
11
6.32825
21
-3.44875
0
LINE
8
BLACK
6
CONTINUOUS
10
6.32825
20
-3.44875
11
6.33751
21
-3.45871
0
LINE
8
BLACK
6
CONTINUOUS
10
6.33751
20
-3.45871
11
6.34556
21
-3.46967
0
LINE
8
BLACK
6
CONTINUOUS
10
6.34556
20
-3.46967
11
6.35229
21
-3.48148
0
LINE
8
BLACK
6
CONTINUOUS
10
6.35229
20
-3.48148
11
6.35763
21
-3.49399
0
LINE
8
BLACK
6
CONTINUOUS
10
6.35763
20
-3.49399
11
6.36149
21
-3.50703
0
LINE
8
BLACK
6
CONTINUOUS
10
6.36149
20
-3.50703
11
6.36383
21
-3.52042
0
LINE
8
BLACK
6
CONTINUOUS
10
6.36383
20
-3.52042
11
6.36461
21
-3.534
0
LINE
8
BLACK
6
CONTINUOUS
10
6.36461
20
-3.534
11
6.36438
21
-3.54142
0
LINE
8
BLACK
6
CONTINUOUS
10
6.36438
20
-3.54142
11
6.36274
21
-3.55492
0
LINE
8
BLACK
6
CONTINUOUS
10
6.36274
20
-3.55492
11
6.35957
21
-3.56814
0
LINE
8
BLACK
6
CONTINUOUS
10
6.35957
20
-3.56814
11
6.3549
21
-3.58091
0
LINE
8
BLACK
6
CONTINUOUS
10
6.3549
20
-3.58091
11
6.34879
21
-3.59306
0
LINE
8
BLACK
6
CONTINUOUS
10
6.34879
20
-3.59306
11
6.34132
21
-3.60442
0
LINE
8
BLACK
6
CONTINUOUS
10
6.34132
20
-3.60442
11
6.3326
21
-3.61485
0
LINE
8
BLACK
6
CONTINUOUS
10
6.3326
20
-3.61485
11
6.32274
21
-3.62421
0
LINE
8
BLACK
6
CONTINUOUS
10
6.32274
20
-3.62421
11
6.31186
21
-3.63238
0
LINE
8
BLACK
6
CONTINUOUS
10
6.31186
20
-3.63238
11
6.30012
21
-3.63924
0
LINE
8
BLACK
6
CONTINUOUS
10
6.30012
20
-3.63924
11
6.28767
21
-3.6447
0
LINE
8
BLACK
6
CONTINUOUS
10
6.28767
20
-3.6447
11
6.27467
21
-3.6487
0
LINE
8
BLACK
6
CONTINUOUS
10
6.27467
20
-3.6487
11
6.2613
21
-3.65118
0
LINE
8
BLACK
6
CONTINUOUS
10
6.2613
20
-3.65118
11
6.24774
21
-3.6521
0
LINE
8
BLACK
6
CONTINUOUS
10
6.24774
20
-3.6521
11
6.23415
21
-3.65146
0
LINE
8
BLACK
6
CONTINUOUS
10
6.23415
20
-3.65146
11
6.22074
21
-3.64927
0
LINE
8
BLACK
6
CONTINUOUS
10
6.22074
20
-3.64927
11
6.20766
21
-3.64554
0
LINE
8
BLACK
6
CONTINUOUS
10
6.20766
20
-3.64554
11
6.19509
21
-3.64034
0
LINE
8
BLACK
6
CONTINUOUS
10
6.19509
20
-3.64034
11
6.18321
21
-3.63372
0
LINE
8
BLACK
6
CONTINUOUS
10
6.18321
20
-3.63372
11
6.17217
21
-3.62579
0
LINE
8
BLACK
6
CONTINUOUS
10
6.17217
20
-3.62579
11
6.16211
21
-3.61664
0
LINE
8
BLACK
6
CONTINUOUS
10
6.16211
20
-3.61664
11
6.15317
21
-3.60639
0
LINE
8
BLACK
6
CONTINUOUS
10
6.15317
20
-3.60639
11
6.14547
21
-3.59518
0
LINE
8
BLACK
6
CONTINUOUS
10
6.14547
20
-3.59518
11
6.13911
21
-3.58317
0
LINE
8
BLACK
6
CONTINUOUS
10
6.13911
20
-3.58317
11
6.13417
21
-3.5705
0
LINE
8
BLACK
6
CONTINUOUS
10
6.13417
20
-3.5705
11
6.13072
21
-3.55735
0
LINE
8
BLACK
6
CONTINUOUS
10
6.13072
20
-3.55735
11
6.1288
21
-3.54388
0
LINE
8
BLACK
6
CONTINUOUS
10
6.1288
20
-3.54388
11
6.12845
21
-3.53029
0
LINE
8
BLACK
6
CONTINUOUS
10
6.12845
20
-3.53029
11
6.12966
21
-3.51675
0
LINE
8
BLACK
6
CONTINUOUS
10
6.12966
20
-3.51675
11
6.13241
21
-3.50343
0
LINE
8
BLACK
6
CONTINUOUS
10
6.13241
20
-3.50343
11
6.13668
21
-3.49052
0
LINE
8
BLACK
6
CONTINUOUS
10
6.13668
20
-3.49052
11
6.14241
21
-3.47819
0
LINE
8
BLACK
6
CONTINUOUS
10
6.14241
20
-3.47819
11
6.14951
21
-3.46659
0
LINE
8
BLACK
6
CONTINUOUS
10
6.14951
20
-3.46659
11
6.1579
21
-3.45589
0
LINE
8
BLACK
6
CONTINUOUS
10
6.1579
20
-3.45589
11
6.16747
21
-3.44623
0
LINE
8
BLACK
6
CONTINUOUS
10
6.16747
20
-3.44623
11
6.17808
21
-3.43773
0
LINE
8
BLACK
6
CONTINUOUS
10
6.17808
20
-3.43773
11
6.1896
21
-3.4305
0
LINE
8
BLACK
6
CONTINUOUS
10
6.1896
20
-3.4305
11
6.20187
21
-3.42465
0
LINE
8
BLACK
6
CONTINUOUS
10
6.20187
20
-3.42465
11
6.21474
21
-3.42024
0
LINE
8
BLACK
6
CONTINUOUS
10
6.21474
20
-3.42024
11
6.22802
21
-3.41734
0
LINE
8
BLACK
6
CONTINUOUS
10
6.22802
20
-3.41734
11
6.24155
21
-3.41599
0
LINE
8
BLACK
6
CONTINUOUS
10
6.24155
20
-3.41599
11
6.25515
21
-3.41621
  0
ENDSEC
  0
EOF
