  0
SECTION
  2
HEADER
  9
$ANGBASE
  50
0.0
  9
$ANGDIR
  70
1
  9
$MEASUREMENT
  70
0
  0
ENDSEC
  0
SECTION
  2
TABLES
  0
TABLE
  2
LTYPE
  70
4
  0
LTYPE
  5
40F
  2
CONTINUOUS
  70
0
  3
Solid line
  72
65
  73
0
  40
0.0
  0
LTYPE
  5
410
  2
DASHDOT
 70
0
  3
Dash Dot ____ _ ____ _
 72
65
 73
4
 40
2.0
 49
1.25
 49
-0.25
 49
0.25
 49
-0.25
  0
LTYPE
  5
411
  2
DASHED
 70
0
  3
Dashed __ __ __ __ __
 72
65
 73
2
 40
0.75
 49
0.5
 49
-0.25
  0
LTYPE
  5
43B
  2
DOTTED
 70
0
  3
Dotted .  .  .  .
 72
65
 73
2
 40
0.2
 49
0.0
 49
-0.2
  0
ENDTAB
  0
TABLE
  2
STYLE
  70
4
  0
STYLE
  2
KICAD
  70
0
  40
0
  41
1
  42
1
  50
0
  71
0
  3
isocp.shx
  0
STYLE
  2
KICADB
  70
0
  40
0
  41
1
  42
1
  50
0
  71
0
  3
isocp.shx
  0
STYLE
  2
KICADI
  70
0
  40
0
  41
1
  42
1
  50
15
  71
0
  3
isocp.shx
  0
STYLE
  2
KICADBI
  70
0
  40
0
  41
1
  42
1
  50
15
  71
0
  3
isocp.shx
  0
ENDTAB
  0
TABLE
  2
LAYER
  70
1
  0
LAYER
  2
BLACK
  70
0
  62
7
  6
CONTINUOUS
  0
ENDTAB
  0
ENDSEC
  0
SECTION
  2
ENTITIES
0
LINE
8
BLACK
6
CONTINUOUS
10
5.894
20
-4.769
11
5.874
21
-4.769
0
LINE
8
BLACK
6
CONTINUOUS
10
5.874
20
-4.769
11
5.874
21
-4.749
0
LINE
8
BLACK
6
CONTINUOUS
10
5.874
20
-4.749
11
5.894
21
-4.749
0
LINE
8
BLACK
6
CONTINUOUS
10
5.894
20
-4.749
11
5.894
21
-4.769
0
LINE
8
BLACK
6
CONTINUOUS
10
5.794
20
-4.769
11
5.774
21
-4.769
0
LINE
8
BLACK
6
CONTINUOUS
10
5.774
20
-4.769
11
5.774
21
-4.749
0
LINE
8
BLACK
6
CONTINUOUS
10
5.774
20
-4.749
11
5.794
21
-4.749
0
LINE
8
BLACK
6
CONTINUOUS
10
5.794
20
-4.749
11
5.794
21
-4.769
0
LINE
8
BLACK
6
CONTINUOUS
10
5.994
20
-4.769
11
5.974
21
-4.769
0
LINE
8
BLACK
6
CONTINUOUS
10
5.974
20
-4.769
11
5.974
21
-4.749
0
LINE
8
BLACK
6
CONTINUOUS
10
5.974
20
-4.749
11
5.994
21
-4.749
0
LINE
8
BLACK
6
CONTINUOUS
10
5.994
20
-4.749
11
5.994
21
-4.769
0
LINE
8
BLACK
6
CONTINUOUS
10
5.894
20
-4.669
11
5.874
21
-4.669
0
LINE
8
BLACK
6
CONTINUOUS
10
5.874
20
-4.669
11
5.874
21
-4.649
0
LINE
8
BLACK
6
CONTINUOUS
10
5.874
20
-4.649
11
5.894
21
-4.649
0
LINE
8
BLACK
6
CONTINUOUS
10
5.894
20
-4.649
11
5.894
21
-4.669
0
LINE
8
BLACK
6
CONTINUOUS
10
5.794
20
-4.669
11
5.774
21
-4.669
0
LINE
8
BLACK
6
CONTINUOUS
10
5.774
20
-4.669
11
5.774
21
-4.649
0
LINE
8
BLACK
6
CONTINUOUS
10
5.774
20
-4.649
11
5.794
21
-4.649
0
LINE
8
BLACK
6
CONTINUOUS
10
5.794
20
-4.649
11
5.794
21
-4.669
0
LINE
8
BLACK
6
CONTINUOUS
10
5.994
20
-4.669
11
5.974
21
-4.669
0
LINE
8
BLACK
6
CONTINUOUS
10
5.974
20
-4.669
11
5.974
21
-4.649
0
LINE
8
BLACK
6
CONTINUOUS
10
5.974
20
-4.649
11
5.994
21
-4.649
0
LINE
8
BLACK
6
CONTINUOUS
10
5.994
20
-4.649
11
5.994
21
-4.669
0
LINE
8
BLACK
6
CONTINUOUS
10
5.91491
20
-4.51695
11
5.91533
21
-4.51698
0
LINE
8
BLACK
6
CONTINUOUS
10
5.91533
20
-4.51698
11
5.91975
21
-4.51919
0
LINE
8
BLACK
6
CONTINUOUS
10
5.91975
20
-4.51919
11
5.91994
21
-4.51941
0
LINE
8
BLACK
6
CONTINUOUS
10
5.91994
20
-4.51941
11
5.92022
21
-4.51953
0
LINE
8
BLACK
6
CONTINUOUS
10
5.92022
20
-4.51953
11
5.92243
21
-4.52174
0
LINE
8
BLACK
6
CONTINUOUS
10
5.92243
20
-4.52174
11
5.92254
21
-4.52201
0
LINE
8
BLACK
6
CONTINUOUS
10
5.92254
20
-4.52201
11
5.92276
21
-4.5222
0
LINE
8
BLACK
6
CONTINUOUS
10
5.92276
20
-4.5222
11
5.92497
21
-4.52662
0
LINE
8
BLACK
6
CONTINUOUS
10
5.92497
20
-4.52662
11
5.925
21
-4.52704
0
LINE
8
BLACK
6
CONTINUOUS
10
5.925
20
-4.52704
11
5.92516
21
-4.52743
0
LINE
8
BLACK
6
CONTINUOUS
10
5.92516
20
-4.52743
11
5.92516
21
-4.53185
0
LINE
8
BLACK
6
CONTINUOUS
10
5.92516
20
-4.53185
11
5.92505
21
-4.53212
0
LINE
8
BLACK
6
CONTINUOUS
10
5.92505
20
-4.53212
11
5.92507
21
-4.53242
0
LINE
8
BLACK
6
CONTINUOUS
10
5.92507
20
-4.53242
11
5.92286
21
-4.53905
0
LINE
8
BLACK
6
CONTINUOUS
10
5.92286
20
-4.53905
11
5.92259
21
-4.53936
0
LINE
8
BLACK
6
CONTINUOUS
10
5.92259
20
-4.53936
11
5.92243
21
-4.53975
0
LINE
8
BLACK
6
CONTINUOUS
10
5.92243
20
-4.53975
11
5.89898
21
-4.56319
0
LINE
8
BLACK
6
CONTINUOUS
10
5.89898
20
-4.56319
11
5.92336
21
-4.56319
0
LINE
8
BLACK
6
CONTINUOUS
10
5.92336
20
-4.56319
11
5.92463
21
-4.56372
0
LINE
8
BLACK
6
CONTINUOUS
10
5.92463
20
-4.56372
11
5.92516
21
-4.56499
0
LINE
8
BLACK
6
CONTINUOUS
10
5.92516
20
-4.56499
11
5.92463
21
-4.56626
0
LINE
8
BLACK
6
CONTINUOUS
10
5.92463
20
-4.56626
11
5.92336
21
-4.56679
0
LINE
8
BLACK
6
CONTINUOUS
10
5.92336
20
-4.56679
11
5.89464
21
-4.56679
0
LINE
8
BLACK
6
CONTINUOUS
10
5.89464
20
-4.56679
11
5.89337
21
-4.56626
0
LINE
8
BLACK
6
CONTINUOUS
10
5.89337
20
-4.56626
11
5.89284
21
-4.56499
0
LINE
8
BLACK
6
CONTINUOUS
10
5.89284
20
-4.56499
11
5.89337
21
-4.56372
0
LINE
8
BLACK
6
CONTINUOUS
10
5.89337
20
-4.56372
11
5.91958
21
-4.5375
0
LINE
8
BLACK
6
CONTINUOUS
10
5.91958
20
-4.5375
11
5.92156
21
-4.53156
0
LINE
8
BLACK
6
CONTINUOUS
10
5.92156
20
-4.53156
11
5.92156
21
-4.52785
0
LINE
8
BLACK
6
CONTINUOUS
10
5.92156
20
-4.52785
11
5.91967
21
-4.52408
0
LINE
8
BLACK
6
CONTINUOUS
10
5.91967
20
-4.52408
11
5.91788
21
-4.52228
0
LINE
8
BLACK
6
CONTINUOUS
10
5.91788
20
-4.52228
11
5.9141
21
-4.52039
0
LINE
8
BLACK
6
CONTINUOUS
10
5.9141
20
-4.52039
11
5.9039
21
-4.52039
0
LINE
8
BLACK
6
CONTINUOUS
10
5.9039
20
-4.52039
11
5.90012
21
-4.52228
0
LINE
8
BLACK
6
CONTINUOUS
10
5.90012
20
-4.52228
11
5.89812
21
-4.52428
0
LINE
8
BLACK
6
CONTINUOUS
10
5.89812
20
-4.52428
11
5.89685
21
-4.52481
0
LINE
8
BLACK
6
CONTINUOUS
10
5.89685
20
-4.52481
11
5.89557
21
-4.52428
0
LINE
8
BLACK
6
CONTINUOUS
10
5.89557
20
-4.52428
11
5.89505
21
-4.52301
0
LINE
8
BLACK
6
CONTINUOUS
10
5.89505
20
-4.52301
11
5.89557
21
-4.52174
0
LINE
8
BLACK
6
CONTINUOUS
10
5.89557
20
-4.52174
11
5.89778
21
-4.51953
0
LINE
8
BLACK
6
CONTINUOUS
10
5.89778
20
-4.51953
11
5.89806
21
-4.51941
0
LINE
8
BLACK
6
CONTINUOUS
10
5.89806
20
-4.51941
11
5.89825
21
-4.51919
0
LINE
8
BLACK
6
CONTINUOUS
10
5.89825
20
-4.51919
11
5.90267
21
-4.51698
0
LINE
8
BLACK
6
CONTINUOUS
10
5.90267
20
-4.51698
11
5.90309
21
-4.51695
0
LINE
8
BLACK
6
CONTINUOUS
10
5.90309
20
-4.51695
11
5.90348
21
-4.51679
0
LINE
8
BLACK
6
CONTINUOUS
10
5.90348
20
-4.51679
11
5.91452
21
-4.51679
0
LINE
8
BLACK
6
CONTINUOUS
10
5.91452
20
-4.51679
11
5.91491
21
-4.51695
0
LINE
8
BLACK
6
CONTINUOUS
10
5.69173
20
-4.51694
11
5.69212
21
-4.51696
0
LINE
8
BLACK
6
CONTINUOUS
10
5.69212
20
-4.51696
11
5.69234
21
-4.5172
0
LINE
8
BLACK
6
CONTINUOUS
10
5.69234
20
-4.5172
11
5.69263
21
-4.51732
0
LINE
8
BLACK
6
CONTINUOUS
10
5.69263
20
-4.51732
11
5.69279
21
-4.51768
0
LINE
8
BLACK
6
CONTINUOUS
10
5.69279
20
-4.51768
11
5.69305
21
-4.51798
0
LINE
8
BLACK
6
CONTINUOUS
10
5.69305
20
-4.51798
11
5.69304
21
-4.51829
0
LINE
8
BLACK
6
CONTINUOUS
10
5.69304
20
-4.51829
11
5.69316
21
-4.51859
0
LINE
8
BLACK
6
CONTINUOUS
10
5.69316
20
-4.51859
11
5.69316
21
-4.56499
0
LINE
8
BLACK
6
CONTINUOUS
10
5.69316
20
-4.56499
11
5.69263
21
-4.56626
0
LINE
8
BLACK
6
CONTINUOUS
10
5.69263
20
-4.56626
11
5.69136
21
-4.56679
0
LINE
8
BLACK
6
CONTINUOUS
10
5.69136
20
-4.56679
11
5.69009
21
-4.56626
0
LINE
8
BLACK
6
CONTINUOUS
10
5.69009
20
-4.56626
11
5.68956
21
-4.56499
0
LINE
8
BLACK
6
CONTINUOUS
10
5.68956
20
-4.56499
11
5.68956
21
-4.5267
0
LINE
8
BLACK
6
CONTINUOUS
10
5.68956
20
-4.5267
11
5.67753
21
-4.55249
0
LINE
8
BLACK
6
CONTINUOUS
10
5.67753
20
-4.55249
11
5.67707
21
-4.55291
0
LINE
8
BLACK
6
CONTINUOUS
10
5.67707
20
-4.55291
11
5.67666
21
-4.55336
0
LINE
8
BLACK
6
CONTINUOUS
10
5.67666
20
-4.55336
11
5.67657
21
-4.55337
0
LINE
8
BLACK
6
CONTINUOUS
10
5.67657
20
-4.55337
11
5.67651
21
-4.55342
0
LINE
8
BLACK
6
CONTINUOUS
10
5.67651
20
-4.55342
11
5.6759
21
-4.5534
0
LINE
8
BLACK
6
CONTINUOUS
10
5.6759
20
-4.5534
11
5.67528
21
-4.55342
0
LINE
8
BLACK
6
CONTINUOUS
10
5.67528
20
-4.55342
11
5.67522
21
-4.55337
0
LINE
8
BLACK
6
CONTINUOUS
10
5.67522
20
-4.55337
11
5.67513
21
-4.55336
0
LINE
8
BLACK
6
CONTINUOUS
10
5.67513
20
-4.55336
11
5.67472
21
-4.55291
0
LINE
8
BLACK
6
CONTINUOUS
10
5.67472
20
-4.55291
11
5.67426
21
-4.55249
0
LINE
8
BLACK
6
CONTINUOUS
10
5.67426
20
-4.55249
11
5.66223
21
-4.5267
0
LINE
8
BLACK
6
CONTINUOUS
10
5.66223
20
-4.5267
11
5.66223
21
-4.56499
0
LINE
8
BLACK
6
CONTINUOUS
10
5.66223
20
-4.56499
11
5.6617
21
-4.56626
0
LINE
8
BLACK
6
CONTINUOUS
10
5.6617
20
-4.56626
11
5.66043
21
-4.56679
0
LINE
8
BLACK
6
CONTINUOUS
10
5.66043
20
-4.56679
11
5.65916
21
-4.56626
0
LINE
8
BLACK
6
CONTINUOUS
10
5.65916
20
-4.56626
11
5.65863
21
-4.56499
0
LINE
8
BLACK
6
CONTINUOUS
10
5.65863
20
-4.56499
11
5.65863
21
-4.51859
0
LINE
8
BLACK
6
CONTINUOUS
10
5.65863
20
-4.51859
11
5.65875
21
-4.51829
0
LINE
8
BLACK
6
CONTINUOUS
10
5.65875
20
-4.51829
11
5.65874
21
-4.51798
0
LINE
8
BLACK
6
CONTINUOUS
10
5.65874
20
-4.51798
11
5.659
21
-4.51768
0
LINE
8
BLACK
6
CONTINUOUS
10
5.659
20
-4.51768
11
5.65916
21
-4.51732
0
LINE
8
BLACK
6
CONTINUOUS
10
5.65916
20
-4.51732
11
5.65945
21
-4.5172
0
LINE
8
BLACK
6
CONTINUOUS
10
5.65945
20
-4.5172
11
5.65967
21
-4.51696
0
LINE
8
BLACK
6
CONTINUOUS
10
5.65967
20
-4.51696
11
5.66006
21
-4.51694
0
LINE
8
BLACK
6
CONTINUOUS
10
5.66006
20
-4.51694
11
5.66043
21
-4.51679
0
LINE
8
BLACK
6
CONTINUOUS
10
5.66043
20
-4.51679
11
5.66072
21
-4.51691
0
LINE
8
BLACK
6
CONTINUOUS
10
5.66072
20
-4.51691
11
5.66104
21
-4.5169
0
LINE
8
BLACK
6
CONTINUOUS
10
5.66104
20
-4.5169
11
5.66134
21
-4.51717
0
LINE
8
BLACK
6
CONTINUOUS
10
5.66134
20
-4.51717
11
5.6617
21
-4.51732
0
LINE
8
BLACK
6
CONTINUOUS
10
5.6617
20
-4.51732
11
5.66182
21
-4.51761
0
LINE
8
BLACK
6
CONTINUOUS
10
5.66182
20
-4.51761
11
5.66206
21
-4.51783
0
LINE
8
BLACK
6
CONTINUOUS
10
5.66206
20
-4.51783
11
5.6759
21
-4.54748
0
LINE
8
BLACK
6
CONTINUOUS
10
5.6759
20
-4.54748
11
5.68973
21
-4.51783
0
LINE
8
BLACK
6
CONTINUOUS
10
5.68973
20
-4.51783
11
5.68997
21
-4.51761
0
LINE
8
BLACK
6
CONTINUOUS
10
5.68997
20
-4.51761
11
5.69009
21
-4.51732
0
LINE
8
BLACK
6
CONTINUOUS
10
5.69009
20
-4.51732
11
5.69045
21
-4.51717
0
LINE
8
BLACK
6
CONTINUOUS
10
5.69045
20
-4.51717
11
5.69075
21
-4.5169
0
LINE
8
BLACK
6
CONTINUOUS
10
5.69075
20
-4.5169
11
5.69107
21
-4.51691
0
LINE
8
BLACK
6
CONTINUOUS
10
5.69107
20
-4.51691
11
5.69136
21
-4.51679
0
LINE
8
BLACK
6
CONTINUOUS
10
5.69136
20
-4.51679
11
5.69173
21
-4.51694
0
LINE
8
BLACK
6
CONTINUOUS
10
5.76687
20
-4.51695
11
5.76729
21
-4.51698
0
LINE
8
BLACK
6
CONTINUOUS
10
5.76729
20
-4.51698
11
5.77171
21
-4.51919
0
LINE
8
BLACK
6
CONTINUOUS
10
5.77171
20
-4.51919
11
5.7719
21
-4.51941
0
LINE
8
BLACK
6
CONTINUOUS
10
5.7719
20
-4.51941
11
5.77218
21
-4.51953
0
LINE
8
BLACK
6
CONTINUOUS
10
5.77218
20
-4.51953
11
5.77439
21
-4.52174
0
LINE
8
BLACK
6
CONTINUOUS
10
5.77439
20
-4.52174
11
5.7745
21
-4.52201
0
LINE
8
BLACK
6
CONTINUOUS
10
5.7745
20
-4.52201
11
5.77472
21
-4.5222
0
LINE
8
BLACK
6
CONTINUOUS
10
5.77472
20
-4.5222
11
5.77693
21
-4.52662
0
LINE
8
BLACK
6
CONTINUOUS
10
5.77693
20
-4.52662
11
5.77695
21
-4.52683
0
LINE
8
BLACK
6
CONTINUOUS
10
5.77695
20
-4.52683
11
5.77707
21
-4.52699
0
LINE
8
BLACK
6
CONTINUOUS
10
5.77707
20
-4.52699
11
5.77928
21
-4.53583
0
LINE
8
BLACK
6
CONTINUOUS
10
5.77928
20
-4.53583
11
5.77925
21
-4.53606
0
LINE
8
BLACK
6
CONTINUOUS
10
5.77925
20
-4.53606
11
5.77933
21
-4.53627
0
LINE
8
BLACK
6
CONTINUOUS
10
5.77933
20
-4.53627
11
5.77933
21
-4.54731
0
LINE
8
BLACK
6
CONTINUOUS
10
5.77933
20
-4.54731
11
5.77925
21
-4.54753
0
LINE
8
BLACK
6
CONTINUOUS
10
5.77925
20
-4.54753
11
5.77928
21
-4.54775
0
LINE
8
BLACK
6
CONTINUOUS
10
5.77928
20
-4.54775
11
5.77707
21
-4.55659
0
LINE
8
BLACK
6
CONTINUOUS
10
5.77707
20
-4.55659
11
5.77695
21
-4.55675
0
LINE
8
BLACK
6
CONTINUOUS
10
5.77695
20
-4.55675
11
5.77693
21
-4.55696
0
LINE
8
BLACK
6
CONTINUOUS
10
5.77693
20
-4.55696
11
5.77472
21
-4.56138
0
LINE
8
BLACK
6
CONTINUOUS
10
5.77472
20
-4.56138
11
5.7745
21
-4.56157
0
LINE
8
BLACK
6
CONTINUOUS
10
5.7745
20
-4.56157
11
5.77439
21
-4.56184
0
LINE
8
BLACK
6
CONTINUOUS
10
5.77439
20
-4.56184
11
5.77218
21
-4.56405
0
LINE
8
BLACK
6
CONTINUOUS
10
5.77218
20
-4.56405
11
5.7719
21
-4.56417
0
LINE
8
BLACK
6
CONTINUOUS
10
5.7719
20
-4.56417
11
5.77171
21
-4.56439
0
LINE
8
BLACK
6
CONTINUOUS
10
5.77171
20
-4.56439
11
5.76729
21
-4.5666
0
LINE
8
BLACK
6
CONTINUOUS
10
5.76729
20
-4.5666
11
5.76687
21
-4.56663
0
LINE
8
BLACK
6
CONTINUOUS
10
5.76687
20
-4.56663
11
5.76649
21
-4.56679
0
LINE
8
BLACK
6
CONTINUOUS
10
5.76649
20
-4.56679
11
5.76207
21
-4.56679
0
LINE
8
BLACK
6
CONTINUOUS
10
5.76207
20
-4.56679
11
5.76168
21
-4.56663
0
LINE
8
BLACK
6
CONTINUOUS
10
5.76168
20
-4.56663
11
5.76126
21
-4.5666
0
LINE
8
BLACK
6
CONTINUOUS
10
5.76126
20
-4.5666
11
5.75684
21
-4.56439
0
LINE
8
BLACK
6
CONTINUOUS
10
5.75684
20
-4.56439
11
5.75665
21
-4.56417
0
LINE
8
BLACK
6
CONTINUOUS
10
5.75665
20
-4.56417
11
5.75637
21
-4.56405
0
LINE
8
BLACK
6
CONTINUOUS
10
5.75637
20
-4.56405
11
5.75417
21
-4.56184
0
LINE
8
BLACK
6
CONTINUOUS
10
5.75417
20
-4.56184
11
5.75405
21
-4.56157
0
LINE
8
BLACK
6
CONTINUOUS
10
5.75405
20
-4.56157
11
5.75383
21
-4.56138
0
LINE
8
BLACK
6
CONTINUOUS
10
5.75383
20
-4.56138
11
5.75162
21
-4.55696
0
LINE
8
BLACK
6
CONTINUOUS
10
5.75162
20
-4.55696
11
5.7516
21
-4.55675
0
LINE
8
BLACK
6
CONTINUOUS
10
5.7516
20
-4.55675
11
5.75148
21
-4.55659
0
LINE
8
BLACK
6
CONTINUOUS
10
5.75148
20
-4.55659
11
5.74927
21
-4.54775
0
LINE
8
BLACK
6
CONTINUOUS
10
5.74927
20
-4.54775
11
5.74931
21
-4.54753
0
LINE
8
BLACK
6
CONTINUOUS
10
5.74931
20
-4.54753
11
5.74922
21
-4.54731
0
LINE
8
BLACK
6
CONTINUOUS
10
5.74922
20
-4.54731
11
5.74922
21
-4.53627
0
LINE
8
BLACK
6
CONTINUOUS
10
5.74922
20
-4.53627
11
5.74931
21
-4.53606
0
LINE
8
BLACK
6
CONTINUOUS
10
5.74931
20
-4.53606
11
5.74927
21
-4.53583
0
LINE
8
BLACK
6
CONTINUOUS
10
5.74927
20
-4.53583
11
5.75148
21
-4.52699
0
LINE
8
BLACK
6
CONTINUOUS
10
5.75148
20
-4.52699
11
5.7516
21
-4.52683
0
LINE
8
BLACK
6
CONTINUOUS
10
5.7516
20
-4.52683
11
5.75162
21
-4.52662
0
LINE
8
BLACK
6
CONTINUOUS
10
5.75162
20
-4.52662
11
5.75383
21
-4.5222
0
LINE
8
BLACK
6
CONTINUOUS
10
5.75383
20
-4.5222
11
5.75405
21
-4.52201
0
LINE
8
BLACK
6
CONTINUOUS
10
5.75405
20
-4.52201
11
5.75417
21
-4.52174
0
LINE
8
BLACK
6
CONTINUOUS
10
5.75417
20
-4.52174
11
5.75637
21
-4.51953
0
LINE
8
BLACK
6
CONTINUOUS
10
5.75637
20
-4.51953
11
5.75665
21
-4.51941
0
LINE
8
BLACK
6
CONTINUOUS
10
5.75665
20
-4.51941
11
5.75684
21
-4.51919
0
LINE
8
BLACK
6
CONTINUOUS
10
5.75684
20
-4.51919
11
5.76126
21
-4.51698
0
LINE
8
BLACK
6
CONTINUOUS
10
5.76126
20
-4.51698
11
5.76168
21
-4.51695
0
LINE
8
BLACK
6
CONTINUOUS
10
5.76168
20
-4.51695
11
5.76207
21
-4.51679
0
LINE
8
BLACK
6
CONTINUOUS
10
5.76207
20
-4.51679
11
5.76649
21
-4.51679
0
LINE
8
BLACK
6
CONTINUOUS
10
5.76649
20
-4.51679
11
5.76687
21
-4.51695
0
LINE
8
BLACK
6
CONTINUOUS
10
5.76249
20
-4.52039
11
5.75871
21
-4.52228
0
LINE
8
BLACK
6
CONTINUOUS
10
5.75871
20
-4.52228
11
5.75692
21
-4.52408
0
LINE
8
BLACK
6
CONTINUOUS
10
5.75692
20
-4.52408
11
5.75493
21
-4.52806
0
LINE
8
BLACK
6
CONTINUOUS
10
5.75493
20
-4.52806
11
5.75282
21
-4.53649
0
LINE
8
BLACK
6
CONTINUOUS
10
5.75282
20
-4.53649
11
5.75282
21
-4.54709
0
LINE
8
BLACK
6
CONTINUOUS
10
5.75282
20
-4.54709
11
5.75493
21
-4.55552
0
LINE
8
BLACK
6
CONTINUOUS
10
5.75493
20
-4.55552
11
5.75692
21
-4.55951
0
LINE
8
BLACK
6
CONTINUOUS
10
5.75692
20
-4.55951
11
5.75871
21
-4.5613
0
LINE
8
BLACK
6
CONTINUOUS
10
5.75871
20
-4.5613
11
5.76249
21
-4.56319
0
LINE
8
BLACK
6
CONTINUOUS
10
5.76249
20
-4.56319
11
5.76606
21
-4.56319
0
LINE
8
BLACK
6
CONTINUOUS
10
5.76606
20
-4.56319
11
5.76984
21
-4.5613
0
LINE
8
BLACK
6
CONTINUOUS
10
5.76984
20
-4.5613
11
5.77163
21
-4.55951
0
LINE
8
BLACK
6
CONTINUOUS
10
5.77163
20
-4.55951
11
5.77363
21
-4.55552
0
LINE
8
BLACK
6
CONTINUOUS
10
5.77363
20
-4.55552
11
5.77573
21
-4.54709
0
LINE
8
BLACK
6
CONTINUOUS
10
5.77573
20
-4.54709
11
5.77573
21
-4.53649
0
LINE
8
BLACK
6
CONTINUOUS
10
5.77573
20
-4.53649
11
5.77363
21
-4.52806
0
LINE
8
BLACK
6
CONTINUOUS
10
5.77363
20
-4.52806
11
5.77163
21
-4.52408
0
LINE
8
BLACK
6
CONTINUOUS
10
5.77163
20
-4.52408
11
5.76984
21
-4.52228
0
LINE
8
BLACK
6
CONTINUOUS
10
5.76984
20
-4.52228
11
5.76606
21
-4.52039
0
LINE
8
BLACK
6
CONTINUOUS
10
5.76606
20
-4.52039
11
5.76249
21
-4.52039
0
LINE
8
BLACK
6
CONTINUOUS
10
5.82231
20
-4.51703
11
5.82291
21
-4.51724
0
LINE
8
BLACK
6
CONTINUOUS
10
5.82291
20
-4.51724
11
5.82294
21
-4.51729
0
LINE
8
BLACK
6
CONTINUOUS
10
5.82294
20
-4.51729
11
5.823
21
-4.51732
0
LINE
8
BLACK
6
CONTINUOUS
10
5.823
20
-4.51732
11
5.82324
21
-4.5179
0
LINE
8
BLACK
6
CONTINUOUS
10
5.82324
20
-4.5179
11
5.82352
21
-4.51847
0
LINE
8
BLACK
6
CONTINUOUS
10
5.82352
20
-4.51847
11
5.8235
21
-4.51853
0
LINE
8
BLACK
6
CONTINUOUS
10
5.8235
20
-4.51853
11
5.82352
21
-4.51859
0
LINE
8
BLACK
6
CONTINUOUS
10
5.82352
20
-4.51859
11
5.82328
21
-4.51918
0
LINE
8
BLACK
6
CONTINUOUS
10
5.82328
20
-4.51918
11
5.82308
21
-4.51978
0
LINE
8
BLACK
6
CONTINUOUS
10
5.82308
20
-4.51978
11
5.81022
21
-4.53447
0
LINE
8
BLACK
6
CONTINUOUS
10
5.81022
20
-4.53447
11
5.81289
21
-4.53447
0
LINE
8
BLACK
6
CONTINUOUS
10
5.81289
20
-4.53447
11
5.81327
21
-4.53463
0
LINE
8
BLACK
6
CONTINUOUS
10
5.81327
20
-4.53463
11
5.81369
21
-4.53466
0
LINE
8
BLACK
6
CONTINUOUS
10
5.81369
20
-4.53466
11
5.81811
21
-4.53687
0
LINE
8
BLACK
6
CONTINUOUS
10
5.81811
20
-4.53687
11
5.8183
21
-4.53709
0
LINE
8
BLACK
6
CONTINUOUS
10
5.8183
20
-4.53709
11
5.81858
21
-4.5372
0
LINE
8
BLACK
6
CONTINUOUS
10
5.81858
20
-4.5372
11
5.82079
21
-4.53941
0
LINE
8
BLACK
6
CONTINUOUS
10
5.82079
20
-4.53941
11
5.8209
21
-4.53969
0
LINE
8
BLACK
6
CONTINUOUS
10
5.8209
20
-4.53969
11
5.82112
21
-4.53988
0
LINE
8
BLACK
6
CONTINUOUS
10
5.82112
20
-4.53988
11
5.82333
21
-4.5443
0
LINE
8
BLACK
6
CONTINUOUS
10
5.82333
20
-4.5443
11
5.82336
21
-4.54472
0
LINE
8
BLACK
6
CONTINUOUS
10
5.82336
20
-4.54472
11
5.82352
21
-4.5451
0
LINE
8
BLACK
6
CONTINUOUS
10
5.82352
20
-4.5451
11
5.82352
21
-4.55615
0
LINE
8
BLACK
6
CONTINUOUS
10
5.82352
20
-4.55615
11
5.82336
21
-4.55654
0
LINE
8
BLACK
6
CONTINUOUS
10
5.82336
20
-4.55654
11
5.82333
21
-4.55696
0
LINE
8
BLACK
6
CONTINUOUS
10
5.82333
20
-4.55696
11
5.82112
21
-4.56138
0
LINE
8
BLACK
6
CONTINUOUS
10
5.82112
20
-4.56138
11
5.8209
21
-4.56157
0
LINE
8
BLACK
6
CONTINUOUS
10
5.8209
20
-4.56157
11
5.82079
21
-4.56184
0
LINE
8
BLACK
6
CONTINUOUS
10
5.82079
20
-4.56184
11
5.81858
21
-4.56405
0
LINE
8
BLACK
6
CONTINUOUS
10
5.81858
20
-4.56405
11
5.8183
21
-4.56417
0
LINE
8
BLACK
6
CONTINUOUS
10
5.8183
20
-4.56417
11
5.81811
21
-4.56439
0
LINE
8
BLACK
6
CONTINUOUS
10
5.81811
20
-4.56439
11
5.81369
21
-4.5666
0
LINE
8
BLACK
6
CONTINUOUS
10
5.81369
20
-4.5666
11
5.81327
21
-4.56663
0
LINE
8
BLACK
6
CONTINUOUS
10
5.81327
20
-4.56663
11
5.81289
21
-4.56679
0
LINE
8
BLACK
6
CONTINUOUS
10
5.81289
20
-4.56679
11
5.79963
21
-4.56679
0
LINE
8
BLACK
6
CONTINUOUS
10
5.79963
20
-4.56679
11
5.79924
21
-4.56663
0
LINE
8
BLACK
6
CONTINUOUS
10
5.79924
20
-4.56663
11
5.79882
21
-4.5666
0
LINE
8
BLACK
6
CONTINUOUS
10
5.79882
20
-4.5666
11
5.7944
21
-4.56439
0
LINE
8
BLACK
6
CONTINUOUS
10
5.7944
20
-4.56439
11
5.79421
21
-4.56417
0
LINE
8
BLACK
6
CONTINUOUS
10
5.79421
20
-4.56417
11
5.79394
21
-4.56405
0
LINE
8
BLACK
6
CONTINUOUS
10
5.79394
20
-4.56405
11
5.79173
21
-4.56184
0
LINE
8
BLACK
6
CONTINUOUS
10
5.79173
20
-4.56184
11
5.7912
21
-4.56057
0
LINE
8
BLACK
6
CONTINUOUS
10
5.7912
20
-4.56057
11
5.79173
21
-4.5593
0
LINE
8
BLACK
6
CONTINUOUS
10
5.79173
20
-4.5593
11
5.793
21
-4.55877
0
LINE
8
BLACK
6
CONTINUOUS
10
5.793
20
-4.55877
11
5.79427
21
-4.5593
0
LINE
8
BLACK
6
CONTINUOUS
10
5.79427
20
-4.5593
11
5.79628
21
-4.5613
0
LINE
8
BLACK
6
CONTINUOUS
10
5.79628
20
-4.5613
11
5.80005
21
-4.56319
0
LINE
8
BLACK
6
CONTINUOUS
10
5.80005
20
-4.56319
11
5.81246
21
-4.56319
0
LINE
8
BLACK
6
CONTINUOUS
10
5.81246
20
-4.56319
11
5.81624
21
-4.5613
0
LINE
8
BLACK
6
CONTINUOUS
10
5.81624
20
-4.5613
11
5.81803
21
-4.55951
0
LINE
8
BLACK
6
CONTINUOUS
10
5.81803
20
-4.55951
11
5.81992
21
-4.55573
0
LINE
8
BLACK
6
CONTINUOUS
10
5.81992
20
-4.55573
11
5.81992
21
-4.54553
0
LINE
8
BLACK
6
CONTINUOUS
10
5.81992
20
-4.54553
11
5.81803
21
-4.54175
0
LINE
8
BLACK
6
CONTINUOUS
10
5.81803
20
-4.54175
11
5.81624
21
-4.53996
0
LINE
8
BLACK
6
CONTINUOUS
10
5.81624
20
-4.53996
11
5.81246
21
-4.53807
0
LINE
8
BLACK
6
CONTINUOUS
10
5.81246
20
-4.53807
11
5.80626
21
-4.53807
0
LINE
8
BLACK
6
CONTINUOUS
10
5.80626
20
-4.53807
11
5.80567
21
-4.53782
0
LINE
8
BLACK
6
CONTINUOUS
10
5.80567
20
-4.53782
11
5.80507
21
-4.53762
0
LINE
8
BLACK
6
CONTINUOUS
10
5.80507
20
-4.53762
11
5.80504
21
-4.53756
0
LINE
8
BLACK
6
CONTINUOUS
10
5.80504
20
-4.53756
11
5.80498
21
-4.53754
0
LINE
8
BLACK
6
CONTINUOUS
10
5.80498
20
-4.53754
11
5.80474
21
-4.53695
0
LINE
8
BLACK
6
CONTINUOUS
10
5.80474
20
-4.53695
11
5.80446
21
-4.53639
0
LINE
8
BLACK
6
CONTINUOUS
10
5.80446
20
-4.53639
11
5.80448
21
-4.53633
0
LINE
8
BLACK
6
CONTINUOUS
10
5.80448
20
-4.53633
11
5.80446
21
-4.53627
0
LINE
8
BLACK
6
CONTINUOUS
10
5.80446
20
-4.53627
11
5.8047
21
-4.53568
0
LINE
8
BLACK
6
CONTINUOUS
10
5.8047
20
-4.53568
11
5.8049
21
-4.53508
0
LINE
8
BLACK
6
CONTINUOUS
10
5.8049
20
-4.53508
11
5.81776
21
-4.52039
0
LINE
8
BLACK
6
CONTINUOUS
10
5.81776
20
-4.52039
11
5.793
21
-4.52039
0
LINE
8
BLACK
6
CONTINUOUS
10
5.793
20
-4.52039
11
5.79173
21
-4.51986
0
LINE
8
BLACK
6
CONTINUOUS
10
5.79173
20
-4.51986
11
5.7912
21
-4.51859
0
LINE
8
BLACK
6
CONTINUOUS
10
5.7912
20
-4.51859
11
5.79173
21
-4.51732
0
LINE
8
BLACK
6
CONTINUOUS
10
5.79173
20
-4.51732
11
5.793
21
-4.51679
0
LINE
8
BLACK
6
CONTINUOUS
10
5.793
20
-4.51679
11
5.82172
21
-4.51679
0
LINE
8
BLACK
6
CONTINUOUS
10
5.82172
20
-4.51679
11
5.82231
21
-4.51703
0
LINE
8
BLACK
6
CONTINUOUS
10
5.72297
20
-4.51697
11
5.7231
21
-4.51698
0
LINE
8
BLACK
6
CONTINUOUS
10
5.7231
20
-4.51698
11
5.72347
21
-4.51741
0
LINE
8
BLACK
6
CONTINUOUS
10
5.72347
20
-4.51741
11
5.72391
21
-4.51779
0
LINE
8
BLACK
6
CONTINUOUS
10
5.72391
20
-4.51779
11
5.72391
21
-4.51792
0
LINE
8
BLACK
6
CONTINUOUS
10
5.72391
20
-4.51792
11
5.724
21
-4.51802
0
LINE
8
BLACK
6
CONTINUOUS
10
5.724
20
-4.51802
11
5.73947
21
-4.56442
0
LINE
8
BLACK
6
CONTINUOUS
10
5.73947
20
-4.56442
11
5.73937
21
-4.5658
0
LINE
8
BLACK
6
CONTINUOUS
10
5.73937
20
-4.5658
11
5.73833
21
-4.5667
0
LINE
8
BLACK
6
CONTINUOUS
10
5.73833
20
-4.5667
11
5.73696
21
-4.5666
0
LINE
8
BLACK
6
CONTINUOUS
10
5.73696
20
-4.5666
11
5.73605
21
-4.56556
0
LINE
8
BLACK
6
CONTINUOUS
10
5.73605
20
-4.56556
11
5.73205
21
-4.55353
0
LINE
8
BLACK
6
CONTINUOUS
10
5.73205
20
-4.55353
11
5.71254
21
-4.55353
0
LINE
8
BLACK
6
CONTINUOUS
10
5.71254
20
-4.55353
11
5.70854
21
-4.56556
0
LINE
8
BLACK
6
CONTINUOUS
10
5.70854
20
-4.56556
11
5.70763
21
-4.5666
0
LINE
8
BLACK
6
CONTINUOUS
10
5.70763
20
-4.5666
11
5.70626
21
-4.5667
0
LINE
8
BLACK
6
CONTINUOUS
10
5.70626
20
-4.5667
11
5.70522
21
-4.5658
0
LINE
8
BLACK
6
CONTINUOUS
10
5.70522
20
-4.5658
11
5.70512
21
-4.56442
0
LINE
8
BLACK
6
CONTINUOUS
10
5.70512
20
-4.56442
11
5.72059
21
-4.51802
0
LINE
8
BLACK
6
CONTINUOUS
10
5.72059
20
-4.51802
11
5.72068
21
-4.51792
0
LINE
8
BLACK
6
CONTINUOUS
10
5.72068
20
-4.51792
11
5.72069
21
-4.51779
0
LINE
8
BLACK
6
CONTINUOUS
10
5.72069
20
-4.51779
11
5.72112
21
-4.51741
0
LINE
8
BLACK
6
CONTINUOUS
10
5.72112
20
-4.51741
11
5.72149
21
-4.51698
0
LINE
8
BLACK
6
CONTINUOUS
10
5.72149
20
-4.51698
11
5.72162
21
-4.51697
0
LINE
8
BLACK
6
CONTINUOUS
10
5.72162
20
-4.51697
11
5.72173
21
-4.51688
0
LINE
8
BLACK
6
CONTINUOUS
10
5.72173
20
-4.51688
11
5.7223
21
-4.51692
0
LINE
8
BLACK
6
CONTINUOUS
10
5.7223
20
-4.51692
11
5.72286
21
-4.51688
0
LINE
8
BLACK
6
CONTINUOUS
10
5.72286
20
-4.51688
11
5.72297
21
-4.51697
0
LINE
8
BLACK
6
CONTINUOUS
10
5.71375
20
-4.54993
11
5.73085
21
-4.54993
0
LINE
8
BLACK
6
CONTINUOUS
10
5.73085
20
-4.54993
11
5.7223
21
-4.52428
0
LINE
8
BLACK
6
CONTINUOUS
10
5.7223
20
-4.52428
11
5.71375
21
-4.54993
0
LINE
8
BLACK
6
CONTINUOUS
10
5.87823
20
-4.54604
11
5.87876
21
-4.54731
0
LINE
8
BLACK
6
CONTINUOUS
10
5.87876
20
-4.54731
11
5.87823
21
-4.54859
0
LINE
8
BLACK
6
CONTINUOUS
10
5.87823
20
-4.54859
11
5.87696
21
-4.54911
0
LINE
8
BLACK
6
CONTINUOUS
10
5.87696
20
-4.54911
11
5.84161
21
-4.54911
0
LINE
8
BLACK
6
CONTINUOUS
10
5.84161
20
-4.54911
11
5.84034
21
-4.54859
0
LINE
8
BLACK
6
CONTINUOUS
10
5.84034
20
-4.54859
11
5.83981
21
-4.54731
0
LINE
8
BLACK
6
CONTINUOUS
10
5.83981
20
-4.54731
11
5.84034
21
-4.54604
0
LINE
8
BLACK
6
CONTINUOUS
10
5.84034
20
-4.54604
11
5.84161
21
-4.54551
0
LINE
8
BLACK
6
CONTINUOUS
10
5.84161
20
-4.54551
11
5.87696
21
-4.54551
0
LINE
8
BLACK
6
CONTINUOUS
10
5.87696
20
-4.54551
11
5.87823
21
-4.54604
0
LINE
8
BLACK
6
CONTINUOUS
10
5.29126
20
-4.50037
11
5.29179
21
-4.50164
0
LINE
8
BLACK
6
CONTINUOUS
10
5.29179
20
-4.50164
11
5.29126
21
-4.50291
0
LINE
8
BLACK
6
CONTINUOUS
10
5.29126
20
-4.50291
11
5.28999
21
-4.50344
0
LINE
8
BLACK
6
CONTINUOUS
10
5.28999
20
-4.50344
11
5.2517
21
-4.50344
0
LINE
8
BLACK
6
CONTINUOUS
10
5.2517
20
-4.50344
11
5.27749
21
-4.51547
0
LINE
8
BLACK
6
CONTINUOUS
10
5.27749
20
-4.51547
11
5.27791
21
-4.51593
0
LINE
8
BLACK
6
CONTINUOUS
10
5.27791
20
-4.51593
11
5.27836
21
-4.51634
0
LINE
8
BLACK
6
CONTINUOUS
10
5.27836
20
-4.51634
11
5.27837
21
-4.51643
0
LINE
8
BLACK
6
CONTINUOUS
10
5.27837
20
-4.51643
11
5.27842
21
-4.51649
0
LINE
8
BLACK
6
CONTINUOUS
10
5.27842
20
-4.51649
11
5.2784
21
-4.5171
0
LINE
8
BLACK
6
CONTINUOUS
10
5.2784
20
-4.5171
11
5.27842
21
-4.51772
0
LINE
8
BLACK
6
CONTINUOUS
10
5.27842
20
-4.51772
11
5.27837
21
-4.51778
0
LINE
8
BLACK
6
CONTINUOUS
10
5.27837
20
-4.51778
11
5.27836
21
-4.51787
0
LINE
8
BLACK
6
CONTINUOUS
10
5.27836
20
-4.51787
11
5.27791
21
-4.51828
0
LINE
8
BLACK
6
CONTINUOUS
10
5.27791
20
-4.51828
11
5.27749
21
-4.51874
0
LINE
8
BLACK
6
CONTINUOUS
10
5.27749
20
-4.51874
11
5.2517
21
-4.53077
0
LINE
8
BLACK
6
CONTINUOUS
10
5.2517
20
-4.53077
11
5.28999
21
-4.53077
0
LINE
8
BLACK
6
CONTINUOUS
10
5.28999
20
-4.53077
11
5.29126
21
-4.5313
0
LINE
8
BLACK
6
CONTINUOUS
10
5.29126
20
-4.5313
11
5.29179
21
-4.53257
0
LINE
8
BLACK
6
CONTINUOUS
10
5.29179
20
-4.53257
11
5.29126
21
-4.53384
0
LINE
8
BLACK
6
CONTINUOUS
10
5.29126
20
-4.53384
11
5.28999
21
-4.53437
0
LINE
8
BLACK
6
CONTINUOUS
10
5.28999
20
-4.53437
11
5.24359
21
-4.53437
0
LINE
8
BLACK
6
CONTINUOUS
10
5.24359
20
-4.53437
11
5.24329
21
-4.53425
0
LINE
8
BLACK
6
CONTINUOUS
10
5.24329
20
-4.53425
11
5.24298
21
-4.53426
0
LINE
8
BLACK
6
CONTINUOUS
10
5.24298
20
-4.53426
11
5.24268
21
-4.534
0
LINE
8
BLACK
6
CONTINUOUS
10
5.24268
20
-4.534
11
5.24232
21
-4.53384
0
LINE
8
BLACK
6
CONTINUOUS
10
5.24232
20
-4.53384
11
5.2422
21
-4.53355
0
LINE
8
BLACK
6
CONTINUOUS
10
5.2422
20
-4.53355
11
5.24196
21
-4.53333
0
LINE
8
BLACK
6
CONTINUOUS
10
5.24196
20
-4.53333
11
5.24194
21
-4.53294
0
LINE
8
BLACK
6
CONTINUOUS
10
5.24194
20
-4.53294
11
5.24179
21
-4.53257
0
LINE
8
BLACK
6
CONTINUOUS
10
5.24179
20
-4.53257
11
5.24191
21
-4.53228
0
LINE
8
BLACK
6
CONTINUOUS
10
5.24191
20
-4.53228
11
5.2419
21
-4.53196
0
LINE
8
BLACK
6
CONTINUOUS
10
5.2419
20
-4.53196
11
5.24217
21
-4.53166
0
LINE
8
BLACK
6
CONTINUOUS
10
5.24217
20
-4.53166
11
5.24232
21
-4.5313
0
LINE
8
BLACK
6
CONTINUOUS
10
5.24232
20
-4.5313
11
5.24261
21
-4.53118
0
LINE
8
BLACK
6
CONTINUOUS
10
5.24261
20
-4.53118
11
5.24283
21
-4.53094
0
LINE
8
BLACK
6
CONTINUOUS
10
5.24283
20
-4.53094
11
5.27248
21
-4.5171
0
LINE
8
BLACK
6
CONTINUOUS
10
5.27248
20
-4.5171
11
5.24283
21
-4.50327
0
LINE
8
BLACK
6
CONTINUOUS
10
5.24283
20
-4.50327
11
5.24261
21
-4.50303
0
LINE
8
BLACK
6
CONTINUOUS
10
5.24261
20
-4.50303
11
5.24232
21
-4.50291
0
LINE
8
BLACK
6
CONTINUOUS
10
5.24232
20
-4.50291
11
5.24217
21
-4.50255
0
LINE
8
BLACK
6
CONTINUOUS
10
5.24217
20
-4.50255
11
5.2419
21
-4.50225
0
LINE
8
BLACK
6
CONTINUOUS
10
5.2419
20
-4.50225
11
5.24191
21
-4.50193
0
LINE
8
BLACK
6
CONTINUOUS
10
5.24191
20
-4.50193
11
5.24179
21
-4.50164
0
LINE
8
BLACK
6
CONTINUOUS
10
5.24179
20
-4.50164
11
5.24194
21
-4.50127
0
LINE
8
BLACK
6
CONTINUOUS
10
5.24194
20
-4.50127
11
5.24196
21
-4.50088
0
LINE
8
BLACK
6
CONTINUOUS
10
5.24196
20
-4.50088
11
5.2422
21
-4.50066
0
LINE
8
BLACK
6
CONTINUOUS
10
5.2422
20
-4.50066
11
5.24232
21
-4.50037
0
LINE
8
BLACK
6
CONTINUOUS
10
5.24232
20
-4.50037
11
5.24268
21
-4.50021
0
LINE
8
BLACK
6
CONTINUOUS
10
5.24268
20
-4.50021
11
5.24298
21
-4.49995
0
LINE
8
BLACK
6
CONTINUOUS
10
5.24298
20
-4.49995
11
5.24329
21
-4.49996
0
LINE
8
BLACK
6
CONTINUOUS
10
5.24329
20
-4.49996
11
5.24359
21
-4.49984
0
LINE
8
BLACK
6
CONTINUOUS
10
5.24359
20
-4.49984
11
5.28999
21
-4.49984
0
LINE
8
BLACK
6
CONTINUOUS
10
5.28999
20
-4.49984
11
5.29126
21
-4.50037
0
LINE
8
BLACK
6
CONTINUOUS
10
5.394
20
-4.519
11
5.374
21
-4.519
0
LINE
8
BLACK
6
CONTINUOUS
10
5.374
20
-4.519
11
5.374
21
-4.499
0
LINE
8
BLACK
6
CONTINUOUS
10
5.374
20
-4.499
11
5.394
21
-4.499
0
LINE
8
BLACK
6
CONTINUOUS
10
5.394
20
-4.499
11
5.394
21
-4.519
0
LINE
8
BLACK
6
CONTINUOUS
10
5.2908
20
-4.45363
11
5.2917
21
-4.45467
0
LINE
8
BLACK
6
CONTINUOUS
10
5.2917
20
-4.45467
11
5.2916
21
-4.45604
0
LINE
8
BLACK
6
CONTINUOUS
10
5.2916
20
-4.45604
11
5.29056
21
-4.45695
0
LINE
8
BLACK
6
CONTINUOUS
10
5.29056
20
-4.45695
11
5.27853
21
-4.46095
0
LINE
8
BLACK
6
CONTINUOUS
10
5.27853
20
-4.46095
11
5.27853
21
-4.48045
0
LINE
8
BLACK
6
CONTINUOUS
10
5.27853
20
-4.48045
11
5.29056
21
-4.48446
0
LINE
8
BLACK
6
CONTINUOUS
10
5.29056
20
-4.48446
11
5.2916
21
-4.48537
0
LINE
8
BLACK
6
CONTINUOUS
10
5.2916
20
-4.48537
11
5.2917
21
-4.48674
0
LINE
8
BLACK
6
CONTINUOUS
10
5.2917
20
-4.48674
11
5.2908
21
-4.48778
0
LINE
8
BLACK
6
CONTINUOUS
10
5.2908
20
-4.48778
11
5.28942
21
-4.48788
0
LINE
8
BLACK
6
CONTINUOUS
10
5.28942
20
-4.48788
11
5.24302
21
-4.47241
0
LINE
8
BLACK
6
CONTINUOUS
10
5.24302
20
-4.47241
11
5.24292
21
-4.47232
0
LINE
8
BLACK
6
CONTINUOUS
10
5.24292
20
-4.47232
11
5.24279
21
-4.47231
0
LINE
8
BLACK
6
CONTINUOUS
10
5.24279
20
-4.47231
11
5.24241
21
-4.47188
0
LINE
8
BLACK
6
CONTINUOUS
10
5.24241
20
-4.47188
11
5.24198
21
-4.47151
0
LINE
8
BLACK
6
CONTINUOUS
10
5.24198
20
-4.47151
11
5.24197
21
-4.47138
0
LINE
8
BLACK
6
CONTINUOUS
10
5.24197
20
-4.47138
11
5.24188
21
-4.47127
0
LINE
8
BLACK
6
CONTINUOUS
10
5.24188
20
-4.47127
11
5.24192
21
-4.4707
0
LINE
8
BLACK
6
CONTINUOUS
10
5.24192
20
-4.4707
11
5.24188
21
-4.47014
0
LINE
8
BLACK
6
CONTINUOUS
10
5.24188
20
-4.47014
11
5.24197
21
-4.47003
0
LINE
8
BLACK
6
CONTINUOUS
10
5.24197
20
-4.47003
11
5.24198
21
-4.4699
0
LINE
8
BLACK
6
CONTINUOUS
10
5.24198
20
-4.4699
11
5.24241
21
-4.46953
0
LINE
8
BLACK
6
CONTINUOUS
10
5.24241
20
-4.46953
11
5.24279
21
-4.46909
0
LINE
8
BLACK
6
CONTINUOUS
10
5.24279
20
-4.46909
11
5.24292
21
-4.46909
0
LINE
8
BLACK
6
CONTINUOUS
10
5.24292
20
-4.46909
11
5.24302
21
-4.469
0
LINE
8
BLACK
6
CONTINUOUS
10
5.24302
20
-4.469
11
5.28942
21
-4.45353
0
LINE
8
BLACK
6
CONTINUOUS
10
5.28942
20
-4.45353
11
5.2908
21
-4.45363
0
LINE
8
BLACK
6
CONTINUOUS
10
5.24928
20
-4.4707
11
5.27493
21
-4.47925
0
LINE
8
BLACK
6
CONTINUOUS
10
5.27493
20
-4.47925
11
5.27493
21
-4.46215
0
LINE
8
BLACK
6
CONTINUOUS
10
5.27493
20
-4.46215
11
5.24928
21
-4.4707
0
LINE
8
BLACK
6
CONTINUOUS
10
5.27253
20
-4.41375
11
5.27275
21
-4.41372
0
LINE
8
BLACK
6
CONTINUOUS
10
5.27275
20
-4.41372
11
5.28159
21
-4.41593
0
LINE
8
BLACK
6
CONTINUOUS
10
5.28159
20
-4.41593
11
5.28175
21
-4.41605
0
LINE
8
BLACK
6
CONTINUOUS
10
5.28175
20
-4.41605
11
5.28196
21
-4.41607
0
LINE
8
BLACK
6
CONTINUOUS
10
5.28196
20
-4.41607
11
5.28638
21
-4.41828
0
LINE
8
BLACK
6
CONTINUOUS
10
5.28638
20
-4.41828
11
5.28657
21
-4.4185
0
LINE
8
BLACK
6
CONTINUOUS
10
5.28657
20
-4.4185
11
5.28684
21
-4.41861
0
LINE
8
BLACK
6
CONTINUOUS
10
5.28684
20
-4.41861
11
5.28905
21
-4.42082
0
LINE
8
BLACK
6
CONTINUOUS
10
5.28905
20
-4.42082
11
5.28917
21
-4.4211
0
LINE
8
BLACK
6
CONTINUOUS
10
5.28917
20
-4.4211
11
5.28939
21
-4.42129
0
LINE
8
BLACK
6
CONTINUOUS
10
5.28939
20
-4.42129
11
5.2916
21
-4.42571
0
LINE
8
BLACK
6
CONTINUOUS
10
5.2916
20
-4.42571
11
5.29163
21
-4.42613
0
LINE
8
BLACK
6
CONTINUOUS
10
5.29163
20
-4.42613
11
5.29179
21
-4.42651
0
LINE
8
BLACK
6
CONTINUOUS
10
5.29179
20
-4.42651
11
5.29179
21
-4.43093
0
LINE
8
BLACK
6
CONTINUOUS
10
5.29179
20
-4.43093
11
5.29163
21
-4.43132
0
LINE
8
BLACK
6
CONTINUOUS
10
5.29163
20
-4.43132
11
5.2916
21
-4.43174
0
LINE
8
BLACK
6
CONTINUOUS
10
5.2916
20
-4.43174
11
5.28939
21
-4.43616
0
LINE
8
BLACK
6
CONTINUOUS
10
5.28939
20
-4.43616
11
5.28917
21
-4.43635
0
LINE
8
BLACK
6
CONTINUOUS
10
5.28917
20
-4.43635
11
5.28905
21
-4.43663
0
LINE
8
BLACK
6
CONTINUOUS
10
5.28905
20
-4.43663
11
5.28684
21
-4.43883
0
LINE
8
BLACK
6
CONTINUOUS
10
5.28684
20
-4.43883
11
5.28657
21
-4.43895
0
LINE
8
BLACK
6
CONTINUOUS
10
5.28657
20
-4.43895
11
5.28638
21
-4.43917
0
LINE
8
BLACK
6
CONTINUOUS
10
5.28638
20
-4.43917
11
5.28196
21
-4.44138
0
LINE
8
BLACK
6
CONTINUOUS
10
5.28196
20
-4.44138
11
5.28175
21
-4.4414
0
LINE
8
BLACK
6
CONTINUOUS
10
5.28175
20
-4.4414
11
5.28159
21
-4.44152
0
LINE
8
BLACK
6
CONTINUOUS
10
5.28159
20
-4.44152
11
5.27275
21
-4.44373
0
LINE
8
BLACK
6
CONTINUOUS
10
5.27275
20
-4.44373
11
5.27253
21
-4.44369
0
LINE
8
BLACK
6
CONTINUOUS
10
5.27253
20
-4.44369
11
5.27231
21
-4.44378
0
LINE
8
BLACK
6
CONTINUOUS
10
5.27231
20
-4.44378
11
5.26127
21
-4.44378
0
LINE
8
BLACK
6
CONTINUOUS
10
5.26127
20
-4.44378
11
5.26106
21
-4.44369
0
LINE
8
BLACK
6
CONTINUOUS
10
5.26106
20
-4.44369
11
5.26083
21
-4.44373
0
LINE
8
BLACK
6
CONTINUOUS
10
5.26083
20
-4.44373
11
5.25199
21
-4.44152
0
LINE
8
BLACK
6
CONTINUOUS
10
5.25199
20
-4.44152
11
5.25183
21
-4.4414
0
LINE
8
BLACK
6
CONTINUOUS
10
5.25183
20
-4.4414
11
5.25162
21
-4.44138
0
LINE
8
BLACK
6
CONTINUOUS
10
5.25162
20
-4.44138
11
5.2472
21
-4.43917
0
LINE
8
BLACK
6
CONTINUOUS
10
5.2472
20
-4.43917
11
5.24701
21
-4.43895
0
LINE
8
BLACK
6
CONTINUOUS
10
5.24701
20
-4.43895
11
5.24674
21
-4.43883
0
LINE
8
BLACK
6
CONTINUOUS
10
5.24674
20
-4.43883
11
5.24453
21
-4.43663
0
LINE
8
BLACK
6
CONTINUOUS
10
5.24453
20
-4.43663
11
5.24441
21
-4.43635
0
LINE
8
BLACK
6
CONTINUOUS
10
5.24441
20
-4.43635
11
5.24419
21
-4.43616
0
LINE
8
BLACK
6
CONTINUOUS
10
5.24419
20
-4.43616
11
5.24198
21
-4.43174
0
LINE
8
BLACK
6
CONTINUOUS
10
5.24198
20
-4.43174
11
5.24195
21
-4.43132
0
LINE
8
BLACK
6
CONTINUOUS
10
5.24195
20
-4.43132
11
5.24179
21
-4.43093
0
LINE
8
BLACK
6
CONTINUOUS
10
5.24179
20
-4.43093
11
5.24179
21
-4.42651
0
LINE
8
BLACK
6
CONTINUOUS
10
5.24179
20
-4.42651
11
5.24195
21
-4.42613
0
LINE
8
BLACK
6
CONTINUOUS
10
5.24195
20
-4.42613
11
5.24198
21
-4.42571
0
LINE
8
BLACK
6
CONTINUOUS
10
5.24198
20
-4.42571
11
5.24419
21
-4.42129
0
LINE
8
BLACK
6
CONTINUOUS
10
5.24419
20
-4.42129
11
5.24441
21
-4.4211
0
LINE
8
BLACK
6
CONTINUOUS
10
5.24441
20
-4.4211
11
5.24453
21
-4.42082
0
LINE
8
BLACK
6
CONTINUOUS
10
5.24453
20
-4.42082
11
5.24674
21
-4.41861
0
LINE
8
BLACK
6
CONTINUOUS
10
5.24674
20
-4.41861
11
5.24701
21
-4.4185
0
LINE
8
BLACK
6
CONTINUOUS
10
5.24701
20
-4.4185
11
5.2472
21
-4.41828
0
LINE
8
BLACK
6
CONTINUOUS
10
5.2472
20
-4.41828
11
5.25162
21
-4.41607
0
LINE
8
BLACK
6
CONTINUOUS
10
5.25162
20
-4.41607
11
5.25183
21
-4.41605
0
LINE
8
BLACK
6
CONTINUOUS
10
5.25183
20
-4.41605
11
5.25199
21
-4.41593
0
LINE
8
BLACK
6
CONTINUOUS
10
5.25199
20
-4.41593
11
5.26083
21
-4.41372
0
LINE
8
BLACK
6
CONTINUOUS
10
5.26083
20
-4.41372
11
5.26106
21
-4.41375
0
LINE
8
BLACK
6
CONTINUOUS
10
5.26106
20
-4.41375
11
5.26127
21
-4.41367
0
LINE
8
BLACK
6
CONTINUOUS
10
5.26127
20
-4.41367
11
5.27231
21
-4.41367
0
LINE
8
BLACK
6
CONTINUOUS
10
5.27231
20
-4.41367
11
5.27253
21
-4.41375
0
LINE
8
BLACK
6
CONTINUOUS
10
5.26149
20
-4.41727
11
5.25306
21
-4.41937
0
LINE
8
BLACK
6
CONTINUOUS
10
5.25306
20
-4.41937
11
5.24908
21
-4.42137
0
LINE
8
BLACK
6
CONTINUOUS
10
5.24908
20
-4.42137
11
5.24728
21
-4.42316
0
LINE
8
BLACK
6
CONTINUOUS
10
5.24728
20
-4.42316
11
5.24539
21
-4.42694
0
LINE
8
BLACK
6
CONTINUOUS
10
5.24539
20
-4.42694
11
5.24539
21
-4.43051
0
LINE
8
BLACK
6
CONTINUOUS
10
5.24539
20
-4.43051
11
5.24728
21
-4.43429
0
LINE
8
BLACK
6
CONTINUOUS
10
5.24728
20
-4.43429
11
5.24908
21
-4.43608
0
LINE
8
BLACK
6
CONTINUOUS
10
5.24908
20
-4.43608
11
5.25306
21
-4.43807
0
LINE
8
BLACK
6
CONTINUOUS
10
5.25306
20
-4.43807
11
5.26149
21
-4.44018
0
LINE
8
BLACK
6
CONTINUOUS
10
5.26149
20
-4.44018
11
5.27209
21
-4.44018
0
LINE
8
BLACK
6
CONTINUOUS
10
5.27209
20
-4.44018
11
5.28052
21
-4.43807
0
LINE
8
BLACK
6
CONTINUOUS
10
5.28052
20
-4.43807
11
5.28451
21
-4.43608
0
LINE
8
BLACK
6
CONTINUOUS
10
5.28451
20
-4.43608
11
5.2863
21
-4.43429
0
LINE
8
BLACK
6
CONTINUOUS
10
5.2863
20
-4.43429
11
5.28819
21
-4.43051
0
LINE
8
BLACK
6
CONTINUOUS
10
5.28819
20
-4.43051
11
5.28819
21
-4.42694
0
LINE
8
BLACK
6
CONTINUOUS
10
5.28819
20
-4.42694
11
5.2863
21
-4.42316
0
LINE
8
BLACK
6
CONTINUOUS
10
5.2863
20
-4.42316
11
5.28451
21
-4.42136
0
LINE
8
BLACK
6
CONTINUOUS
10
5.28451
20
-4.42136
11
5.28052
21
-4.41937
0
LINE
8
BLACK
6
CONTINUOUS
10
5.28052
20
-4.41937
11
5.27209
21
-4.41727
0
LINE
8
BLACK
6
CONTINUOUS
10
5.27209
20
-4.41727
11
5.26149
21
-4.41727
0
LINE
8
BLACK
6
CONTINUOUS
10
5.28154
20
-4.36964
11
5.28196
21
-4.36967
0
LINE
8
BLACK
6
CONTINUOUS
10
5.28196
20
-4.36967
11
5.28638
21
-4.37188
0
LINE
8
BLACK
6
CONTINUOUS
10
5.28638
20
-4.37188
11
5.28657
21
-4.3721
0
LINE
8
BLACK
6
CONTINUOUS
10
5.28657
20
-4.3721
11
5.28684
21
-4.37221
0
LINE
8
BLACK
6
CONTINUOUS
10
5.28684
20
-4.37221
11
5.28905
21
-4.37442
0
LINE
8
BLACK
6
CONTINUOUS
10
5.28905
20
-4.37442
11
5.28917
21
-4.3747
0
LINE
8
BLACK
6
CONTINUOUS
10
5.28917
20
-4.3747
11
5.28939
21
-4.37489
0
LINE
8
BLACK
6
CONTINUOUS
10
5.28939
20
-4.37489
11
5.2916
21
-4.37931
0
LINE
8
BLACK
6
CONTINUOUS
10
5.2916
20
-4.37931
11
5.29163
21
-4.37973
0
LINE
8
BLACK
6
CONTINUOUS
10
5.29163
20
-4.37973
11
5.29179
21
-4.38011
0
LINE
8
BLACK
6
CONTINUOUS
10
5.29179
20
-4.38011
11
5.29179
21
-4.39337
0
LINE
8
BLACK
6
CONTINUOUS
10
5.29179
20
-4.39337
11
5.29163
21
-4.39376
0
LINE
8
BLACK
6
CONTINUOUS
10
5.29163
20
-4.39376
11
5.2916
21
-4.39418
0
LINE
8
BLACK
6
CONTINUOUS
10
5.2916
20
-4.39418
11
5.28939
21
-4.3986
0
LINE
8
BLACK
6
CONTINUOUS
10
5.28939
20
-4.3986
11
5.28917
21
-4.39879
0
LINE
8
BLACK
6
CONTINUOUS
10
5.28917
20
-4.39879
11
5.28905
21
-4.39906
0
LINE
8
BLACK
6
CONTINUOUS
10
5.28905
20
-4.39906
11
5.28684
21
-4.40127
0
LINE
8
BLACK
6
CONTINUOUS
10
5.28684
20
-4.40127
11
5.28557
21
-4.4018
0
LINE
8
BLACK
6
CONTINUOUS
10
5.28557
20
-4.4018
11
5.2843
21
-4.40127
0
LINE
8
BLACK
6
CONTINUOUS
10
5.2843
20
-4.40127
11
5.28377
21
-4.4
0
LINE
8
BLACK
6
CONTINUOUS
10
5.28377
20
-4.4
11
5.2843
21
-4.39873
0
LINE
8
BLACK
6
CONTINUOUS
10
5.2843
20
-4.39873
11
5.2863
21
-4.39672
0
LINE
8
BLACK
6
CONTINUOUS
10
5.2863
20
-4.39672
11
5.28819
21
-4.39295
0
LINE
8
BLACK
6
CONTINUOUS
10
5.28819
20
-4.39295
11
5.28819
21
-4.38054
0
LINE
8
BLACK
6
CONTINUOUS
10
5.28819
20
-4.38054
11
5.2863
21
-4.37676
0
LINE
8
BLACK
6
CONTINUOUS
10
5.2863
20
-4.37676
11
5.28451
21
-4.37496
0
LINE
8
BLACK
6
CONTINUOUS
10
5.28451
20
-4.37496
11
5.28073
21
-4.37308
0
LINE
8
BLACK
6
CONTINUOUS
10
5.28073
20
-4.37308
11
5.27053
21
-4.37308
0
LINE
8
BLACK
6
CONTINUOUS
10
5.27053
20
-4.37308
11
5.26675
21
-4.37497
0
LINE
8
BLACK
6
CONTINUOUS
10
5.26675
20
-4.37497
11
5.26496
21
-4.37676
0
LINE
8
BLACK
6
CONTINUOUS
10
5.26496
20
-4.37676
11
5.26307
21
-4.38054
0
LINE
8
BLACK
6
CONTINUOUS
10
5.26307
20
-4.38054
11
5.26307
21
-4.38674
0
LINE
8
BLACK
6
CONTINUOUS
10
5.26307
20
-4.38674
11
5.26282
21
-4.38733
0
LINE
8
BLACK
6
CONTINUOUS
10
5.26282
20
-4.38733
11
5.26262
21
-4.38793
0
LINE
8
BLACK
6
CONTINUOUS
10
5.26262
20
-4.38793
11
5.26256
21
-4.38796
0
LINE
8
BLACK
6
CONTINUOUS
10
5.26256
20
-4.38796
11
5.26254
21
-4.38802
0
LINE
8
BLACK
6
CONTINUOUS
10
5.26254
20
-4.38802
11
5.26195
21
-4.38826
0
LINE
8
BLACK
6
CONTINUOUS
10
5.26195
20
-4.38826
11
5.26139
21
-4.38854
0
LINE
8
BLACK
6
CONTINUOUS
10
5.26139
20
-4.38854
11
5.26133
21
-4.38852
0
LINE
8
BLACK
6
CONTINUOUS
10
5.26133
20
-4.38852
11
5.26127
21
-4.38854
0
LINE
8
BLACK
6
CONTINUOUS
10
5.26127
20
-4.38854
11
5.26068
21
-4.3883
0
LINE
8
BLACK
6
CONTINUOUS
10
5.26068
20
-4.3883
11
5.26008
21
-4.3881
0
LINE
8
BLACK
6
CONTINUOUS
10
5.26008
20
-4.3881
11
5.24539
21
-4.37524
0
LINE
8
BLACK
6
CONTINUOUS
10
5.24539
20
-4.37524
11
5.24539
21
-4.4
0
LINE
8
BLACK
6
CONTINUOUS
10
5.24539
20
-4.4
11
5.24486
21
-4.40127
0
LINE
8
BLACK
6
CONTINUOUS
10
5.24486
20
-4.40127
11
5.24359
21
-4.4018
0
LINE
8
BLACK
6
CONTINUOUS
10
5.24359
20
-4.4018
11
5.24232
21
-4.40127
0
LINE
8
BLACK
6
CONTINUOUS
10
5.24232
20
-4.40127
11
5.24179
21
-4.4
0
LINE
8
BLACK
6
CONTINUOUS
10
5.24179
20
-4.4
11
5.24179
21
-4.37128
0
LINE
8
BLACK
6
CONTINUOUS
10
5.24179
20
-4.37128
11
5.24203
21
-4.37069
0
LINE
8
BLACK
6
CONTINUOUS
10
5.24203
20
-4.37069
11
5.24224
21
-4.37009
0
LINE
8
BLACK
6
CONTINUOUS
10
5.24224
20
-4.37009
11
5.24229
21
-4.37006
0
LINE
8
BLACK
6
CONTINUOUS
10
5.24229
20
-4.37006
11
5.24232
21
-4.37
0
LINE
8
BLACK
6
CONTINUOUS
10
5.24232
20
-4.37
11
5.2429
21
-4.36976
0
LINE
8
BLACK
6
CONTINUOUS
10
5.2429
20
-4.36976
11
5.24347
21
-4.36948
0
LINE
8
BLACK
6
CONTINUOUS
10
5.24347
20
-4.36948
11
5.24353
21
-4.3695
0
LINE
8
BLACK
6
CONTINUOUS
10
5.24353
20
-4.3695
11
5.24359
21
-4.36948
0
LINE
8
BLACK
6
CONTINUOUS
10
5.24359
20
-4.36948
11
5.24418
21
-4.36972
0
LINE
8
BLACK
6
CONTINUOUS
10
5.24418
20
-4.36972
11
5.24478
21
-4.36992
0
LINE
8
BLACK
6
CONTINUOUS
10
5.24478
20
-4.36992
11
5.25947
21
-4.38278
0
LINE
8
BLACK
6
CONTINUOUS
10
5.25947
20
-4.38278
11
5.25947
21
-4.38011
0
LINE
8
BLACK
6
CONTINUOUS
10
5.25947
20
-4.38011
11
5.25963
21
-4.37973
0
LINE
8
BLACK
6
CONTINUOUS
10
5.25963
20
-4.37973
11
5.25966
21
-4.37931
0
LINE
8
BLACK
6
CONTINUOUS
10
5.25966
20
-4.37931
11
5.26187
21
-4.37489
0
LINE
8
BLACK
6
CONTINUOUS
10
5.26187
20
-4.37489
11
5.26209
21
-4.3747
0
LINE
8
BLACK
6
CONTINUOUS
10
5.26209
20
-4.3747
11
5.2622
21
-4.37442
0
LINE
8
BLACK
6
CONTINUOUS
10
5.2622
20
-4.37442
11
5.26441
21
-4.37221
0
LINE
8
BLACK
6
CONTINUOUS
10
5.26441
20
-4.37221
11
5.26469
21
-4.3721
0
LINE
8
BLACK
6
CONTINUOUS
10
5.26469
20
-4.3721
11
5.26488
21
-4.37188
0
LINE
8
BLACK
6
CONTINUOUS
10
5.26488
20
-4.37188
11
5.2693
21
-4.36967
0
LINE
8
BLACK
6
CONTINUOUS
10
5.2693
20
-4.36967
11
5.26972
21
-4.36964
0
LINE
8
BLACK
6
CONTINUOUS
10
5.26972
20
-4.36964
11
5.2701
21
-4.36948
0
LINE
8
BLACK
6
CONTINUOUS
10
5.2701
20
-4.36948
11
5.28115
21
-4.36948
0
LINE
8
BLACK
6
CONTINUOUS
10
5.28115
20
-4.36948
11
5.28154
21
-4.36964
0
LINE
8
BLACK
6
CONTINUOUS
10
5.27359
20
-4.31477
11
5.27411
21
-4.31604
0
LINE
8
BLACK
6
CONTINUOUS
10
5.27411
20
-4.31604
11
5.27411
21
-4.35139
0
LINE
8
BLACK
6
CONTINUOUS
10
5.27411
20
-4.35139
11
5.27359
21
-4.35266
0
LINE
8
BLACK
6
CONTINUOUS
10
5.27359
20
-4.35266
11
5.27231
21
-4.35319
0
LINE
8
BLACK
6
CONTINUOUS
10
5.27231
20
-4.35319
11
5.27104
21
-4.35266
0
LINE
8
BLACK
6
CONTINUOUS
10
5.27104
20
-4.35266
11
5.27051
21
-4.35139
0
LINE
8
BLACK
6
CONTINUOUS
10
5.27051
20
-4.35139
11
5.27051
21
-4.31604
0
LINE
8
BLACK
6
CONTINUOUS
10
5.27051
20
-4.31604
11
5.27104
21
-4.31477
0
LINE
8
BLACK
6
CONTINUOUS
10
5.27104
20
-4.31477
11
5.27231
21
-4.31424
0
LINE
8
BLACK
6
CONTINUOUS
10
5.27231
20
-4.31424
11
5.27359
21
-4.31477
0
LINE
8
BLACK
6
CONTINUOUS
10
5.394
20
-4.319
11
5.374
21
-4.319
0
LINE
8
BLACK
6
CONTINUOUS
10
5.374
20
-4.319
11
5.374
21
-4.299
0
LINE
8
BLACK
6
CONTINUOUS
10
5.374
20
-4.299
11
5.394
21
-4.299
0
LINE
8
BLACK
6
CONTINUOUS
10
5.394
20
-4.299
11
5.394
21
-4.319
0
LINE
8
BLACK
6
CONTINUOUS
10
5.29126
20
-4.26837
11
5.29179
21
-4.26964
0
LINE
8
BLACK
6
CONTINUOUS
10
5.29179
20
-4.26964
11
5.29179
21
-4.29615
0
LINE
8
BLACK
6
CONTINUOUS
10
5.29179
20
-4.29615
11
5.29126
21
-4.29743
0
LINE
8
BLACK
6
CONTINUOUS
10
5.29126
20
-4.29743
11
5.28999
21
-4.29795
0
LINE
8
BLACK
6
CONTINUOUS
10
5.28999
20
-4.29795
11
5.28872
21
-4.29743
0
LINE
8
BLACK
6
CONTINUOUS
10
5.28872
20
-4.29743
11
5.28819
21
-4.29615
0
LINE
8
BLACK
6
CONTINUOUS
10
5.28819
20
-4.29615
11
5.28819
21
-4.2847
0
LINE
8
BLACK
6
CONTINUOUS
10
5.28819
20
-4.2847
11
5.24954
21
-4.2847
0
LINE
8
BLACK
6
CONTINUOUS
10
5.24954
20
-4.2847
11
5.25122
21
-4.28582
0
LINE
8
BLACK
6
CONTINUOUS
10
5.25122
20
-4.28582
11
5.25132
21
-4.28597
0
LINE
8
BLACK
6
CONTINUOUS
10
5.25132
20
-4.28597
11
5.25149
21
-4.28604
0
LINE
8
BLACK
6
CONTINUOUS
10
5.25149
20
-4.28604
11
5.25591
21
-4.29046
0
LINE
8
BLACK
6
CONTINUOUS
10
5.25591
20
-4.29046
11
5.25602
21
-4.29073
0
LINE
8
BLACK
6
CONTINUOUS
10
5.25602
20
-4.29073
11
5.25625
21
-4.29093
0
LINE
8
BLACK
6
CONTINUOUS
10
5.25625
20
-4.29093
11
5.25846
21
-4.29535
0
LINE
8
BLACK
6
CONTINUOUS
10
5.25846
20
-4.29535
11
5.25856
21
-4.29672
0
LINE
8
BLACK
6
CONTINUOUS
10
5.25856
20
-4.29672
11
5.25765
21
-4.29776
0
LINE
8
BLACK
6
CONTINUOUS
10
5.25765
20
-4.29776
11
5.25628
21
-4.29786
0
LINE
8
BLACK
6
CONTINUOUS
10
5.25628
20
-4.29786
11
5.25524
21
-4.29696
0
LINE
8
BLACK
6
CONTINUOUS
10
5.25524
20
-4.29696
11
5.25316
21
-4.2928
0
LINE
8
BLACK
6
CONTINUOUS
10
5.25316
20
-4.2928
11
5.24907
21
-4.28871
0
LINE
8
BLACK
6
CONTINUOUS
10
5.24907
20
-4.28871
11
5.24259
21
-4.28439
0
LINE
8
BLACK
6
CONTINUOUS
10
5.24259
20
-4.28439
11
5.24249
21
-4.28424
0
LINE
8
BLACK
6
CONTINUOUS
10
5.24249
20
-4.28424
11
5.24232
21
-4.28417
0
LINE
8
BLACK
6
CONTINUOUS
10
5.24232
20
-4.28417
11
5.24212
21
-4.28368
0
LINE
8
BLACK
6
CONTINUOUS
10
5.24212
20
-4.28368
11
5.24183
21
-4.28325
0
LINE
8
BLACK
6
CONTINUOUS
10
5.24183
20
-4.28325
11
5.24186
21
-4.28307
0
LINE
8
BLACK
6
CONTINUOUS
10
5.24186
20
-4.28307
11
5.24179
21
-4.2829
0
LINE
8
BLACK
6
CONTINUOUS
10
5.24179
20
-4.2829
11
5.24199
21
-4.28241
0
LINE
8
BLACK
6
CONTINUOUS
10
5.24199
20
-4.28241
11
5.24209
21
-4.2819
0
LINE
8
BLACK
6
CONTINUOUS
10
5.24209
20
-4.2819
11
5.24225
21
-4.28179
0
LINE
8
BLACK
6
CONTINUOUS
10
5.24225
20
-4.28179
11
5.24232
21
-4.28162
0
LINE
8
BLACK
6
CONTINUOUS
10
5.24232
20
-4.28162
11
5.2428
21
-4.28142
0
LINE
8
BLACK
6
CONTINUOUS
10
5.2428
20
-4.28142
11
5.24324
21
-4.28113
0
LINE
8
BLACK
6
CONTINUOUS
10
5.24324
20
-4.28113
11
5.24342
21
-4.28117
0
LINE
8
BLACK
6
CONTINUOUS
10
5.24342
20
-4.28117
11
5.24359
21
-4.2811
0
LINE
8
BLACK
6
CONTINUOUS
10
5.24359
20
-4.2811
11
5.28819
21
-4.2811
0
LINE
8
BLACK
6
CONTINUOUS
10
5.28819
20
-4.2811
11
5.28819
21
-4.26964
0
LINE
8
BLACK
6
CONTINUOUS
10
5.28819
20
-4.26964
11
5.28872
21
-4.26837
0
LINE
8
BLACK
6
CONTINUOUS
10
5.28872
20
-4.26837
11
5.28999
21
-4.26784
0
LINE
8
BLACK
6
CONTINUOUS
10
5.28999
20
-4.26784
11
5.29126
21
-4.26837
0
LINE
8
BLACK
6
CONTINUOUS
10
5.5065
20
-4.0815
11
5.4865
21
-4.0815
0
LINE
8
BLACK
6
CONTINUOUS
10
5.4865
20
-4.0815
11
5.4865
21
-4.0615
0
LINE
8
BLACK
6
CONTINUOUS
10
5.4865
20
-4.0615
11
5.5065
21
-4.0615
0
LINE
8
BLACK
6
CONTINUOUS
10
5.5065
20
-4.0615
11
5.5065
21
-4.0815
0
LINE
8
BLACK
6
CONTINUOUS
10
5.5065
20
-3.9815
11
5.4865
21
-3.9815
0
LINE
8
BLACK
6
CONTINUOUS
10
5.4865
20
-3.9815
11
5.4865
21
-3.9615
0
LINE
8
BLACK
6
CONTINUOUS
10
5.4865
20
-3.9615
11
5.5065
21
-3.9615
0
LINE
8
BLACK
6
CONTINUOUS
10
5.5065
20
-3.9615
11
5.5065
21
-3.9815
0
LINE
8
BLACK
6
CONTINUOUS
10
5.92815
20
-3.88444
11
5.92854
21
-3.88446
0
LINE
8
BLACK
6
CONTINUOUS
10
5.92854
20
-3.88446
11
5.92876
21
-3.8847
0
LINE
8
BLACK
6
CONTINUOUS
10
5.92876
20
-3.8847
11
5.92905
21
-3.88482
0
LINE
8
BLACK
6
CONTINUOUS
10
5.92905
20
-3.88482
11
5.92921
21
-3.88518
0
LINE
8
BLACK
6
CONTINUOUS
10
5.92921
20
-3.88518
11
5.92947
21
-3.88548
0
LINE
8
BLACK
6
CONTINUOUS
10
5.92947
20
-3.88548
11
5.92946
21
-3.88579
0
LINE
8
BLACK
6
CONTINUOUS
10
5.92946
20
-3.88579
11
5.92958
21
-3.88609
0
LINE
8
BLACK
6
CONTINUOUS
10
5.92958
20
-3.88609
11
5.92958
21
-3.93249
0
LINE
8
BLACK
6
CONTINUOUS
10
5.92958
20
-3.93249
11
5.92905
21
-3.93376
0
LINE
8
BLACK
6
CONTINUOUS
10
5.92905
20
-3.93376
11
5.92778
21
-3.93429
0
LINE
8
BLACK
6
CONTINUOUS
10
5.92778
20
-3.93429
11
5.92651
21
-3.93376
0
LINE
8
BLACK
6
CONTINUOUS
10
5.92651
20
-3.93376
11
5.92598
21
-3.93249
0
LINE
8
BLACK
6
CONTINUOUS
10
5.92598
20
-3.93249
11
5.92598
21
-3.8942
0
LINE
8
BLACK
6
CONTINUOUS
10
5.92598
20
-3.8942
11
5.91395
21
-3.91999
0
LINE
8
BLACK
6
CONTINUOUS
10
5.91395
20
-3.91999
11
5.91349
21
-3.92041
0
LINE
8
BLACK
6
CONTINUOUS
10
5.91349
20
-3.92041
11
5.91308
21
-3.92086
0
LINE
8
BLACK
6
CONTINUOUS
10
5.91308
20
-3.92086
11
5.91299
21
-3.92087
0
LINE
8
BLACK
6
CONTINUOUS
10
5.91299
20
-3.92087
11
5.91293
21
-3.92092
0
LINE
8
BLACK
6
CONTINUOUS
10
5.91293
20
-3.92092
11
5.91231
21
-3.9209
0
LINE
8
BLACK
6
CONTINUOUS
10
5.91231
20
-3.9209
11
5.9117
21
-3.92092
0
LINE
8
BLACK
6
CONTINUOUS
10
5.9117
20
-3.92092
11
5.91164
21
-3.92087
0
LINE
8
BLACK
6
CONTINUOUS
10
5.91164
20
-3.92087
11
5.91155
21
-3.92086
0
LINE
8
BLACK
6
CONTINUOUS
10
5.91155
20
-3.92086
11
5.91114
21
-3.92041
0
LINE
8
BLACK
6
CONTINUOUS
10
5.91114
20
-3.92041
11
5.91068
21
-3.91999
0
LINE
8
BLACK
6
CONTINUOUS
10
5.91068
20
-3.91999
11
5.89865
21
-3.8942
0
LINE
8
BLACK
6
CONTINUOUS
10
5.89865
20
-3.8942
11
5.89865
21
-3.93249
0
LINE
8
BLACK
6
CONTINUOUS
10
5.89865
20
-3.93249
11
5.89812
21
-3.93376
0
LINE
8
BLACK
6
CONTINUOUS
10
5.89812
20
-3.93376
11
5.89685
21
-3.93429
0
LINE
8
BLACK
6
CONTINUOUS
10
5.89685
20
-3.93429
11
5.89557
21
-3.93376
0
LINE
8
BLACK
6
CONTINUOUS
10
5.89557
20
-3.93376
11
5.89505
21
-3.93249
0
LINE
8
BLACK
6
CONTINUOUS
10
5.89505
20
-3.93249
11
5.89505
21
-3.88609
0
LINE
8
BLACK
6
CONTINUOUS
10
5.89505
20
-3.88609
11
5.89517
21
-3.88579
0
LINE
8
BLACK
6
CONTINUOUS
10
5.89517
20
-3.88579
11
5.89516
21
-3.88548
0
LINE
8
BLACK
6
CONTINUOUS
10
5.89516
20
-3.88548
11
5.89542
21
-3.88518
0
LINE
8
BLACK
6
CONTINUOUS
10
5.89542
20
-3.88518
11
5.89557
21
-3.88482
0
LINE
8
BLACK
6
CONTINUOUS
10
5.89557
20
-3.88482
11
5.89587
21
-3.8847
0
LINE
8
BLACK
6
CONTINUOUS
10
5.89587
20
-3.8847
11
5.89609
21
-3.88446
0
LINE
8
BLACK
6
CONTINUOUS
10
5.89609
20
-3.88446
11
5.89648
21
-3.88444
0
LINE
8
BLACK
6
CONTINUOUS
10
5.89648
20
-3.88444
11
5.89685
21
-3.88429
0
LINE
8
BLACK
6
CONTINUOUS
10
5.89685
20
-3.88429
11
5.89714
21
-3.88441
0
LINE
8
BLACK
6
CONTINUOUS
10
5.89714
20
-3.88441
11
5.89746
21
-3.8844
0
LINE
8
BLACK
6
CONTINUOUS
10
5.89746
20
-3.8844
11
5.89775
21
-3.88467
0
LINE
8
BLACK
6
CONTINUOUS
10
5.89775
20
-3.88467
11
5.89812
21
-3.88482
0
LINE
8
BLACK
6
CONTINUOUS
10
5.89812
20
-3.88482
11
5.89824
21
-3.88511
0
LINE
8
BLACK
6
CONTINUOUS
10
5.89824
20
-3.88511
11
5.89848
21
-3.88533
0
LINE
8
BLACK
6
CONTINUOUS
10
5.89848
20
-3.88533
11
5.91231
21
-3.91498
0
LINE
8
BLACK
6
CONTINUOUS
10
5.91231
20
-3.91498
11
5.92615
21
-3.88533
0
LINE
8
BLACK
6
CONTINUOUS
10
5.92615
20
-3.88533
11
5.92639
21
-3.88511
0
LINE
8
BLACK
6
CONTINUOUS
10
5.92639
20
-3.88511
11
5.92651
21
-3.88482
0
LINE
8
BLACK
6
CONTINUOUS
10
5.92651
20
-3.88482
11
5.92687
21
-3.88467
0
LINE
8
BLACK
6
CONTINUOUS
10
5.92687
20
-3.88467
11
5.92717
21
-3.8844
0
LINE
8
BLACK
6
CONTINUOUS
10
5.92717
20
-3.8844
11
5.92749
21
-3.88441
0
LINE
8
BLACK
6
CONTINUOUS
10
5.92749
20
-3.88441
11
5.92778
21
-3.88429
0
LINE
8
BLACK
6
CONTINUOUS
10
5.92778
20
-3.88429
11
5.92815
21
-3.88444
0
LINE
8
BLACK
6
CONTINUOUS
10
6.00329
20
-3.88445
11
6.00371
21
-3.88448
0
LINE
8
BLACK
6
CONTINUOUS
10
6.00371
20
-3.88448
11
6.00813
21
-3.88669
0
LINE
8
BLACK
6
CONTINUOUS
10
6.00813
20
-3.88669
11
6.00832
21
-3.88691
0
LINE
8
BLACK
6
CONTINUOUS
10
6.00832
20
-3.88691
11
6.0086
21
-3.88703
0
LINE
8
BLACK
6
CONTINUOUS
10
6.0086
20
-3.88703
11
6.01081
21
-3.88924
0
LINE
8
BLACK
6
CONTINUOUS
10
6.01081
20
-3.88924
11
6.01092
21
-3.88951
0
LINE
8
BLACK
6
CONTINUOUS
10
6.01092
20
-3.88951
11
6.01114
21
-3.8897
0
LINE
8
BLACK
6
CONTINUOUS
10
6.01114
20
-3.8897
11
6.01335
21
-3.89412
0
LINE
8
BLACK
6
CONTINUOUS
10
6.01335
20
-3.89412
11
6.01337
21
-3.89433
0
LINE
8
BLACK
6
CONTINUOUS
10
6.01337
20
-3.89433
11
6.01349
21
-3.89449
0
LINE
8
BLACK
6
CONTINUOUS
10
6.01349
20
-3.89449
11
6.0157
21
-3.90333
0
LINE
8
BLACK
6
CONTINUOUS
10
6.0157
20
-3.90333
11
6.01567
21
-3.90356
0
LINE
8
BLACK
6
CONTINUOUS
10
6.01567
20
-3.90356
11
6.01575
21
-3.90377
0
LINE
8
BLACK
6
CONTINUOUS
10
6.01575
20
-3.90377
11
6.01575
21
-3.91481
0
LINE
8
BLACK
6
CONTINUOUS
10
6.01575
20
-3.91481
11
6.01567
21
-3.91503
0
LINE
8
BLACK
6
CONTINUOUS
10
6.01567
20
-3.91503
11
6.0157
21
-3.91525
0
LINE
8
BLACK
6
CONTINUOUS
10
6.0157
20
-3.91525
11
6.01349
21
-3.92409
0
LINE
8
BLACK
6
CONTINUOUS
10
6.01349
20
-3.92409
11
6.01337
21
-3.92425
0
LINE
8
BLACK
6
CONTINUOUS
10
6.01337
20
-3.92425
11
6.01335
21
-3.92446
0
LINE
8
BLACK
6
CONTINUOUS
10
6.01335
20
-3.92446
11
6.01114
21
-3.92888
0
LINE
8
BLACK
6
CONTINUOUS
10
6.01114
20
-3.92888
11
6.01092
21
-3.92907
0
LINE
8
BLACK
6
CONTINUOUS
10
6.01092
20
-3.92907
11
6.01081
21
-3.92934
0
LINE
8
BLACK
6
CONTINUOUS
10
6.01081
20
-3.92934
11
6.0086
21
-3.93155
0
LINE
8
BLACK
6
CONTINUOUS
10
6.0086
20
-3.93155
11
6.00832
21
-3.93167
0
LINE
8
BLACK
6
CONTINUOUS
10
6.00832
20
-3.93167
11
6.00813
21
-3.93189
0
LINE
8
BLACK
6
CONTINUOUS
10
6.00813
20
-3.93189
11
6.00371
21
-3.9341
0
LINE
8
BLACK
6
CONTINUOUS
10
6.00371
20
-3.9341
11
6.00329
21
-3.93413
0
LINE
8
BLACK
6
CONTINUOUS
10
6.00329
20
-3.93413
11
6.0029
21
-3.93429
0
LINE
8
BLACK
6
CONTINUOUS
10
6.0029
20
-3.93429
11
5.99849
21
-3.93429
0
LINE
8
BLACK
6
CONTINUOUS
10
5.99849
20
-3.93429
11
5.9981
21
-3.93413
0
LINE
8
BLACK
6
CONTINUOUS
10
5.9981
20
-3.93413
11
5.99768
21
-3.9341
0
LINE
8
BLACK
6
CONTINUOUS
10
5.99768
20
-3.9341
11
5.99326
21
-3.93189
0
LINE
8
BLACK
6
CONTINUOUS
10
5.99326
20
-3.93189
11
5.99307
21
-3.93167
0
LINE
8
BLACK
6
CONTINUOUS
10
5.99307
20
-3.93167
11
5.99279
21
-3.93155
0
LINE
8
BLACK
6
CONTINUOUS
10
5.99279
20
-3.93155
11
5.99058
21
-3.92934
0
LINE
8
BLACK
6
CONTINUOUS
10
5.99058
20
-3.92934
11
5.99047
21
-3.92907
0
LINE
8
BLACK
6
CONTINUOUS
10
5.99047
20
-3.92907
11
5.99025
21
-3.92888
0
LINE
8
BLACK
6
CONTINUOUS
10
5.99025
20
-3.92888
11
5.98804
21
-3.92446
0
LINE
8
BLACK
6
CONTINUOUS
10
5.98804
20
-3.92446
11
5.98802
21
-3.92425
0
LINE
8
BLACK
6
CONTINUOUS
10
5.98802
20
-3.92425
11
5.9879
21
-3.92409
0
LINE
8
BLACK
6
CONTINUOUS
10
5.9879
20
-3.92409
11
5.98569
21
-3.91525
0
LINE
8
BLACK
6
CONTINUOUS
10
5.98569
20
-3.91525
11
5.98573
21
-3.91503
0
LINE
8
BLACK
6
CONTINUOUS
10
5.98573
20
-3.91503
11
5.98564
21
-3.91481
0
LINE
8
BLACK
6
CONTINUOUS
10
5.98564
20
-3.91481
11
5.98564
21
-3.90377
0
LINE
8
BLACK
6
CONTINUOUS
10
5.98564
20
-3.90377
11
5.98573
21
-3.90356
0
LINE
8
BLACK
6
CONTINUOUS
10
5.98573
20
-3.90356
11
5.98569
21
-3.90333
0
LINE
8
BLACK
6
CONTINUOUS
10
5.98569
20
-3.90333
11
5.9879
21
-3.89449
0
LINE
8
BLACK
6
CONTINUOUS
10
5.9879
20
-3.89449
11
5.98802
21
-3.89433
0
LINE
8
BLACK
6
CONTINUOUS
10
5.98802
20
-3.89433
11
5.98804
21
-3.89412
0
LINE
8
BLACK
6
CONTINUOUS
10
5.98804
20
-3.89412
11
5.99025
21
-3.8897
0
LINE
8
BLACK
6
CONTINUOUS
10
5.99025
20
-3.8897
11
5.99047
21
-3.88951
0
LINE
8
BLACK
6
CONTINUOUS
10
5.99047
20
-3.88951
11
5.99058
21
-3.88924
0
LINE
8
BLACK
6
CONTINUOUS
10
5.99058
20
-3.88924
11
5.99279
21
-3.88703
0
LINE
8
BLACK
6
CONTINUOUS
10
5.99279
20
-3.88703
11
5.99307
21
-3.88691
0
LINE
8
BLACK
6
CONTINUOUS
10
5.99307
20
-3.88691
11
5.99326
21
-3.88669
0
LINE
8
BLACK
6
CONTINUOUS
10
5.99326
20
-3.88669
11
5.99768
21
-3.88448
0
LINE
8
BLACK
6
CONTINUOUS
10
5.99768
20
-3.88448
11
5.9981
21
-3.88445
0
LINE
8
BLACK
6
CONTINUOUS
10
5.9981
20
-3.88445
11
5.99849
21
-3.88429
0
LINE
8
BLACK
6
CONTINUOUS
10
5.99849
20
-3.88429
11
6.0029
21
-3.88429
0
LINE
8
BLACK
6
CONTINUOUS
10
6.0029
20
-3.88429
11
6.00329
21
-3.88445
0
LINE
8
BLACK
6
CONTINUOUS
10
5.99891
20
-3.88789
11
5.99513
21
-3.88978
0
LINE
8
BLACK
6
CONTINUOUS
10
5.99513
20
-3.88978
11
5.99334
21
-3.89158
0
LINE
8
BLACK
6
CONTINUOUS
10
5.99334
20
-3.89158
11
5.99135
21
-3.89556
0
LINE
8
BLACK
6
CONTINUOUS
10
5.99135
20
-3.89556
11
5.98924
21
-3.90399
0
LINE
8
BLACK
6
CONTINUOUS
10
5.98924
20
-3.90399
11
5.98924
21
-3.91459
0
LINE
8
BLACK
6
CONTINUOUS
10
5.98924
20
-3.91459
11
5.99135
21
-3.92302
0
LINE
8
BLACK
6
CONTINUOUS
10
5.99135
20
-3.92302
11
5.99334
21
-3.92701
0
LINE
8
BLACK
6
CONTINUOUS
10
5.99334
20
-3.92701
11
5.99513
21
-3.9288
0
LINE
8
BLACK
6
CONTINUOUS
10
5.99513
20
-3.9288
11
5.99891
21
-3.93069
0
LINE
8
BLACK
6
CONTINUOUS
10
5.99891
20
-3.93069
11
6.00248
21
-3.93069
0
LINE
8
BLACK
6
CONTINUOUS
10
6.00248
20
-3.93069
11
6.00626
21
-3.9288
0
LINE
8
BLACK
6
CONTINUOUS
10
6.00626
20
-3.9288
11
6.00805
21
-3.92701
0
LINE
8
BLACK
6
CONTINUOUS
10
6.00805
20
-3.92701
11
6.01004
21
-3.92302
0
LINE
8
BLACK
6
CONTINUOUS
10
6.01004
20
-3.92302
11
6.01215
21
-3.91459
0
LINE
8
BLACK
6
CONTINUOUS
10
6.01215
20
-3.91459
11
6.01215
21
-3.90399
0
LINE
8
BLACK
6
CONTINUOUS
10
6.01215
20
-3.90399
11
6.01004
21
-3.89556
0
LINE
8
BLACK
6
CONTINUOUS
10
6.01004
20
-3.89556
11
6.00805
21
-3.89158
0
LINE
8
BLACK
6
CONTINUOUS
10
6.00805
20
-3.89158
11
6.00626
21
-3.88978
0
LINE
8
BLACK
6
CONTINUOUS
10
6.00626
20
-3.88978
11
6.00248
21
-3.88789
0
LINE
8
BLACK
6
CONTINUOUS
10
6.00248
20
-3.88789
11
5.99891
21
-3.88789
0
LINE
8
BLACK
6
CONTINUOUS
10
6.05873
20
-3.88453
11
6.05933
21
-3.88474
0
LINE
8
BLACK
6
CONTINUOUS
10
6.05933
20
-3.88474
11
6.05936
21
-3.88479
0
LINE
8
BLACK
6
CONTINUOUS
10
6.05936
20
-3.88479
11
6.05942
21
-3.88482
0
LINE
8
BLACK
6
CONTINUOUS
10
6.05942
20
-3.88482
11
6.05966
21
-3.8854
0
LINE
8
BLACK
6
CONTINUOUS
10
6.05966
20
-3.8854
11
6.05994
21
-3.88597
0
LINE
8
BLACK
6
CONTINUOUS
10
6.05994
20
-3.88597
11
6.05992
21
-3.88603
0
LINE
8
BLACK
6
CONTINUOUS
10
6.05992
20
-3.88603
11
6.05994
21
-3.88609
0
LINE
8
BLACK
6
CONTINUOUS
10
6.05994
20
-3.88609
11
6.0597
21
-3.88668
0
LINE
8
BLACK
6
CONTINUOUS
10
6.0597
20
-3.88668
11
6.0595
21
-3.88728
0
LINE
8
BLACK
6
CONTINUOUS
10
6.0595
20
-3.88728
11
6.04664
21
-3.90197
0
LINE
8
BLACK
6
CONTINUOUS
10
6.04664
20
-3.90197
11
6.0493
21
-3.90197
0
LINE
8
BLACK
6
CONTINUOUS
10
6.0493
20
-3.90197
11
6.04969
21
-3.90213
0
LINE
8
BLACK
6
CONTINUOUS
10
6.04969
20
-3.90213
11
6.05011
21
-3.90216
0
LINE
8
BLACK
6
CONTINUOUS
10
6.05011
20
-3.90216
11
6.05453
21
-3.90437
0
LINE
8
BLACK
6
CONTINUOUS
10
6.05453
20
-3.90437
11
6.05472
21
-3.90459
0
LINE
8
BLACK
6
CONTINUOUS
10
6.05472
20
-3.90459
11
6.055
21
-3.9047
0
LINE
8
BLACK
6
CONTINUOUS
10
6.055
20
-3.9047
11
6.05721
21
-3.90691
0
LINE
8
BLACK
6
CONTINUOUS
10
6.05721
20
-3.90691
11
6.05732
21
-3.90719
0
LINE
8
BLACK
6
CONTINUOUS
10
6.05732
20
-3.90719
11
6.05754
21
-3.90738
0
LINE
8
BLACK
6
CONTINUOUS
10
6.05754
20
-3.90738
11
6.05975
21
-3.9118
0
LINE
8
BLACK
6
CONTINUOUS
10
6.05975
20
-3.9118
11
6.05978
21
-3.91222
0
LINE
8
BLACK
6
CONTINUOUS
10
6.05978
20
-3.91222
11
6.05994
21
-3.9126
0
LINE
8
BLACK
6
CONTINUOUS
10
6.05994
20
-3.9126
11
6.05994
21
-3.92365
0
LINE
8
BLACK
6
CONTINUOUS
10
6.05994
20
-3.92365
11
6.05978
21
-3.92404
0
LINE
8
BLACK
6
CONTINUOUS
10
6.05978
20
-3.92404
11
6.05975
21
-3.92446
0
LINE
8
BLACK
6
CONTINUOUS
10
6.05975
20
-3.92446
11
6.05754
21
-3.92888
0
LINE
8
BLACK
6
CONTINUOUS
10
6.05754
20
-3.92888
11
6.05732
21
-3.92907
0
LINE
8
BLACK
6
CONTINUOUS
10
6.05732
20
-3.92907
11
6.05721
21
-3.92934
0
LINE
8
BLACK
6
CONTINUOUS
10
6.05721
20
-3.92934
11
6.055
21
-3.93155
0
LINE
8
BLACK
6
CONTINUOUS
10
6.055
20
-3.93155
11
6.05472
21
-3.93167
0
LINE
8
BLACK
6
CONTINUOUS
10
6.05472
20
-3.93167
11
6.05453
21
-3.93189
0
LINE
8
BLACK
6
CONTINUOUS
10
6.05453
20
-3.93189
11
6.05011
21
-3.9341
0
LINE
8
BLACK
6
CONTINUOUS
10
6.05011
20
-3.9341
11
6.04969
21
-3.93413
0
LINE
8
BLACK
6
CONTINUOUS
10
6.04969
20
-3.93413
11
6.0493
21
-3.93429
0
LINE
8
BLACK
6
CONTINUOUS
10
6.0493
20
-3.93429
11
6.03605
21
-3.93429
0
LINE
8
BLACK
6
CONTINUOUS
10
6.03605
20
-3.93429
11
6.03566
21
-3.93413
0
LINE
8
BLACK
6
CONTINUOUS
10
6.03566
20
-3.93413
11
6.03524
21
-3.9341
0
LINE
8
BLACK
6
CONTINUOUS
10
6.03524
20
-3.9341
11
6.03082
21
-3.93189
0
LINE
8
BLACK
6
CONTINUOUS
10
6.03082
20
-3.93189
11
6.03063
21
-3.93167
0
LINE
8
BLACK
6
CONTINUOUS
10
6.03063
20
-3.93167
11
6.03036
21
-3.93155
0
LINE
8
BLACK
6
CONTINUOUS
10
6.03036
20
-3.93155
11
6.02815
21
-3.92934
0
LINE
8
BLACK
6
CONTINUOUS
10
6.02815
20
-3.92934
11
6.02762
21
-3.92807
0
LINE
8
BLACK
6
CONTINUOUS
10
6.02762
20
-3.92807
11
6.02815
21
-3.9268
0
LINE
8
BLACK
6
CONTINUOUS
10
6.02815
20
-3.9268
11
6.02942
21
-3.92627
0
LINE
8
BLACK
6
CONTINUOUS
10
6.02942
20
-3.92627
11
6.03069
21
-3.9268
0
LINE
8
BLACK
6
CONTINUOUS
10
6.03069
20
-3.9268
11
6.03269
21
-3.9288
0
LINE
8
BLACK
6
CONTINUOUS
10
6.03269
20
-3.9288
11
6.03647
21
-3.93069
0
LINE
8
BLACK
6
CONTINUOUS
10
6.03647
20
-3.93069
11
6.04888
21
-3.93069
0
LINE
8
BLACK
6
CONTINUOUS
10
6.04888
20
-3.93069
11
6.05266
21
-3.9288
0
LINE
8
BLACK
6
CONTINUOUS
10
6.05266
20
-3.9288
11
6.05445
21
-3.92701
0
LINE
8
BLACK
6
CONTINUOUS
10
6.05445
20
-3.92701
11
6.05634
21
-3.92323
0
LINE
8
BLACK
6
CONTINUOUS
10
6.05634
20
-3.92323
11
6.05634
21
-3.91303
0
LINE
8
BLACK
6
CONTINUOUS
10
6.05634
20
-3.91303
11
6.05445
21
-3.90925
0
LINE
8
BLACK
6
CONTINUOUS
10
6.05445
20
-3.90925
11
6.05266
21
-3.90746
0
LINE
8
BLACK
6
CONTINUOUS
10
6.05266
20
-3.90746
11
6.04888
21
-3.90557
0
LINE
8
BLACK
6
CONTINUOUS
10
6.04888
20
-3.90557
11
6.04268
21
-3.90557
0
LINE
8
BLACK
6
CONTINUOUS
10
6.04268
20
-3.90557
11
6.04209
21
-3.90532
0
LINE
8
BLACK
6
CONTINUOUS
10
6.04209
20
-3.90532
11
6.04149
21
-3.90512
0
LINE
8
BLACK
6
CONTINUOUS
10
6.04149
20
-3.90512
11
6.04146
21
-3.90506
0
LINE
8
BLACK
6
CONTINUOUS
10
6.04146
20
-3.90506
11
6.0414
21
-3.90504
0
LINE
8
BLACK
6
CONTINUOUS
10
6.0414
20
-3.90504
11
6.04116
21
-3.90445
0
LINE
8
BLACK
6
CONTINUOUS
10
6.04116
20
-3.90445
11
6.04088
21
-3.90389
0
LINE
8
BLACK
6
CONTINUOUS
10
6.04088
20
-3.90389
11
6.0409
21
-3.90383
0
LINE
8
BLACK
6
CONTINUOUS
10
6.0409
20
-3.90383
11
6.04088
21
-3.90377
0
LINE
8
BLACK
6
CONTINUOUS
10
6.04088
20
-3.90377
11
6.04112
21
-3.90318
0
LINE
8
BLACK
6
CONTINUOUS
10
6.04112
20
-3.90318
11
6.04132
21
-3.90258
0
LINE
8
BLACK
6
CONTINUOUS
10
6.04132
20
-3.90258
11
6.05418
21
-3.88789
0
LINE
8
BLACK
6
CONTINUOUS
10
6.05418
20
-3.88789
11
6.02942
21
-3.88789
0
LINE
8
BLACK
6
CONTINUOUS
10
6.02942
20
-3.88789
11
6.02815
21
-3.88736
0
LINE
8
BLACK
6
CONTINUOUS
10
6.02815
20
-3.88736
11
6.02762
21
-3.88609
0
LINE
8
BLACK
6
CONTINUOUS
10
6.02762
20
-3.88609
11
6.02815
21
-3.88482
0
LINE
8
BLACK
6
CONTINUOUS
10
6.02815
20
-3.88482
11
6.02942
21
-3.88429
0
LINE
8
BLACK
6
CONTINUOUS
10
6.02942
20
-3.88429
11
6.05814
21
-3.88429
0
LINE
8
BLACK
6
CONTINUOUS
10
6.05814
20
-3.88429
11
6.05873
21
-3.88453
0
LINE
8
BLACK
6
CONTINUOUS
10
6.15133
20
-3.88445
11
6.15175
21
-3.88448
0
LINE
8
BLACK
6
CONTINUOUS
10
6.15175
20
-3.88448
11
6.15617
21
-3.88669
0
LINE
8
BLACK
6
CONTINUOUS
10
6.15617
20
-3.88669
11
6.15636
21
-3.88691
0
LINE
8
BLACK
6
CONTINUOUS
10
6.15636
20
-3.88691
11
6.15663
21
-3.88703
0
LINE
8
BLACK
6
CONTINUOUS
10
6.15663
20
-3.88703
11
6.15884
21
-3.88924
0
LINE
8
BLACK
6
CONTINUOUS
10
6.15884
20
-3.88924
11
6.15896
21
-3.88951
0
LINE
8
BLACK
6
CONTINUOUS
10
6.15896
20
-3.88951
11
6.15918
21
-3.8897
0
LINE
8
BLACK
6
CONTINUOUS
10
6.15918
20
-3.8897
11
6.16139
21
-3.89412
0
LINE
8
BLACK
6
CONTINUOUS
10
6.16139
20
-3.89412
11
6.16142
21
-3.89454
0
LINE
8
BLACK
6
CONTINUOUS
10
6.16142
20
-3.89454
11
6.16158
21
-3.89493
0
LINE
8
BLACK
6
CONTINUOUS
10
6.16158
20
-3.89493
11
6.16158
21
-3.89935
0
LINE
8
BLACK
6
CONTINUOUS
10
6.16158
20
-3.89935
11
6.16147
21
-3.89962
0
LINE
8
BLACK
6
CONTINUOUS
10
6.16147
20
-3.89962
11
6.16149
21
-3.89992
0
LINE
8
BLACK
6
CONTINUOUS
10
6.16149
20
-3.89992
11
6.15928
21
-3.90655
0
LINE
8
BLACK
6
CONTINUOUS
10
6.15928
20
-3.90655
11
6.159
21
-3.90686
0
LINE
8
BLACK
6
CONTINUOUS
10
6.159
20
-3.90686
11
6.15884
21
-3.90725
0
LINE
8
BLACK
6
CONTINUOUS
10
6.15884
20
-3.90725
11
6.1354
21
-3.93069
0
LINE
8
BLACK
6
CONTINUOUS
10
6.1354
20
-3.93069
11
6.15978
21
-3.93069
0
LINE
8
BLACK
6
CONTINUOUS
10
6.15978
20
-3.93069
11
6.16105
21
-3.93122
0
LINE
8
BLACK
6
CONTINUOUS
10
6.16105
20
-3.93122
11
6.16158
21
-3.93249
0
LINE
8
BLACK
6
CONTINUOUS
10
6.16158
20
-3.93249
11
6.16105
21
-3.93376
0
LINE
8
BLACK
6
CONTINUOUS
10
6.16105
20
-3.93376
11
6.15978
21
-3.93429
0
LINE
8
BLACK
6
CONTINUOUS
10
6.15978
20
-3.93429
11
6.13106
21
-3.93429
0
LINE
8
BLACK
6
CONTINUOUS
10
6.13106
20
-3.93429
11
6.12978
21
-3.93376
0
LINE
8
BLACK
6
CONTINUOUS
10
6.12978
20
-3.93376
11
6.12926
21
-3.93249
0
LINE
8
BLACK
6
CONTINUOUS
10
6.12926
20
-3.93249
11
6.12978
21
-3.93122
0
LINE
8
BLACK
6
CONTINUOUS
10
6.12978
20
-3.93122
11
6.156
21
-3.905
0
LINE
8
BLACK
6
CONTINUOUS
10
6.156
20
-3.905
11
6.15798
21
-3.89906
0
LINE
8
BLACK
6
CONTINUOUS
10
6.15798
20
-3.89906
11
6.15798
21
-3.89535
0
LINE
8
BLACK
6
CONTINUOUS
10
6.15798
20
-3.89535
11
6.15609
21
-3.89158
0
LINE
8
BLACK
6
CONTINUOUS
10
6.15609
20
-3.89158
11
6.1543
21
-3.88978
0
LINE
8
BLACK
6
CONTINUOUS
10
6.1543
20
-3.88978
11
6.15052
21
-3.88789
0
LINE
8
BLACK
6
CONTINUOUS
10
6.15052
20
-3.88789
11
6.14032
21
-3.88789
0
LINE
8
BLACK
6
CONTINUOUS
10
6.14032
20
-3.88789
11
6.13654
21
-3.88978
0
LINE
8
BLACK
6
CONTINUOUS
10
6.13654
20
-3.88978
11
6.13454
21
-3.89178
0
LINE
8
BLACK
6
CONTINUOUS
10
6.13454
20
-3.89178
11
6.13327
21
-3.89231
0
LINE
8
BLACK
6
CONTINUOUS
10
6.13327
20
-3.89231
11
6.13199
21
-3.89178
0
LINE
8
BLACK
6
CONTINUOUS
10
6.13199
20
-3.89178
11
6.13147
21
-3.89051
0
LINE
8
BLACK
6
CONTINUOUS
10
6.13147
20
-3.89051
11
6.13199
21
-3.88924
0
LINE
8
BLACK
6
CONTINUOUS
10
6.13199
20
-3.88924
11
6.1342
21
-3.88703
0
LINE
8
BLACK
6
CONTINUOUS
10
6.1342
20
-3.88703
11
6.13448
21
-3.88691
0
LINE
8
BLACK
6
CONTINUOUS
10
6.13448
20
-3.88691
11
6.13467
21
-3.88669
0
LINE
8
BLACK
6
CONTINUOUS
10
6.13467
20
-3.88669
11
6.13909
21
-3.88448
0
LINE
8
BLACK
6
CONTINUOUS
10
6.13909
20
-3.88448
11
6.13951
21
-3.88445
0
LINE
8
BLACK
6
CONTINUOUS
10
6.13951
20
-3.88445
11
6.1399
21
-3.88429
0
LINE
8
BLACK
6
CONTINUOUS
10
6.1399
20
-3.88429
11
6.15094
21
-3.88429
0
LINE
8
BLACK
6
CONTINUOUS
10
6.15094
20
-3.88429
11
6.15133
21
-3.88445
0
LINE
8
BLACK
6
CONTINUOUS
10
5.95939
20
-3.88447
11
5.95952
21
-3.88448
0
LINE
8
BLACK
6
CONTINUOUS
10
5.95952
20
-3.88448
11
5.95989
21
-3.88491
0
LINE
8
BLACK
6
CONTINUOUS
10
5.95989
20
-3.88491
11
5.96032
21
-3.88529
0
LINE
8
BLACK
6
CONTINUOUS
10
5.96032
20
-3.88529
11
5.96033
21
-3.88542
0
LINE
8
BLACK
6
CONTINUOUS
10
5.96033
20
-3.88542
11
5.96042
21
-3.88552
0
LINE
8
BLACK
6
CONTINUOUS
10
5.96042
20
-3.88552
11
5.97589
21
-3.93192
0
LINE
8
BLACK
6
CONTINUOUS
10
5.97589
20
-3.93192
11
5.97579
21
-3.9333
0
LINE
8
BLACK
6
CONTINUOUS
10
5.97579
20
-3.9333
11
5.97475
21
-3.9342
0
LINE
8
BLACK
6
CONTINUOUS
10
5.97475
20
-3.9342
11
5.97338
21
-3.9341
0
LINE
8
BLACK
6
CONTINUOUS
10
5.97338
20
-3.9341
11
5.97247
21
-3.93306
0
LINE
8
BLACK
6
CONTINUOUS
10
5.97247
20
-3.93306
11
5.96846
21
-3.92103
0
LINE
8
BLACK
6
CONTINUOUS
10
5.96846
20
-3.92103
11
5.94896
21
-3.92103
0
LINE
8
BLACK
6
CONTINUOUS
10
5.94896
20
-3.92103
11
5.94496
21
-3.93306
0
LINE
8
BLACK
6
CONTINUOUS
10
5.94496
20
-3.93306
11
5.94405
21
-3.9341
0
LINE
8
BLACK
6
CONTINUOUS
10
5.94405
20
-3.9341
11
5.94268
21
-3.9342
0
LINE
8
BLACK
6
CONTINUOUS
10
5.94268
20
-3.9342
11
5.94164
21
-3.9333
0
LINE
8
BLACK
6
CONTINUOUS
10
5.94164
20
-3.9333
11
5.94154
21
-3.93192
0
LINE
8
BLACK
6
CONTINUOUS
10
5.94154
20
-3.93192
11
5.95701
21
-3.88552
0
LINE
8
BLACK
6
CONTINUOUS
10
5.95701
20
-3.88552
11
5.95709
21
-3.88542
0
LINE
8
BLACK
6
CONTINUOUS
10
5.95709
20
-3.88542
11
5.9571
21
-3.88529
0
LINE
8
BLACK
6
CONTINUOUS
10
5.9571
20
-3.88529
11
5.95754
21
-3.88491
0
LINE
8
BLACK
6
CONTINUOUS
10
5.95754
20
-3.88491
11
5.95791
21
-3.88448
0
LINE
8
BLACK
6
CONTINUOUS
10
5.95791
20
-3.88448
11
5.95804
21
-3.88447
0
LINE
8
BLACK
6
CONTINUOUS
10
5.95804
20
-3.88447
11
5.95815
21
-3.88438
0
LINE
8
BLACK
6
CONTINUOUS
10
5.95815
20
-3.88438
11
5.95871
21
-3.88442
0
LINE
8
BLACK
6
CONTINUOUS
10
5.95871
20
-3.88442
11
5.95928
21
-3.88438
0
LINE
8
BLACK
6
CONTINUOUS
10
5.95928
20
-3.88438
11
5.95939
21
-3.88447
0
LINE
8
BLACK
6
CONTINUOUS
10
5.95016
20
-3.91743
11
5.96726
21
-3.91743
0
LINE
8
BLACK
6
CONTINUOUS
10
5.96726
20
-3.91743
11
5.95871
21
-3.89178
0
LINE
8
BLACK
6
CONTINUOUS
10
5.95871
20
-3.89178
11
5.95016
21
-3.91743
0
LINE
8
BLACK
6
CONTINUOUS
10
6.11465
20
-3.91354
11
6.11518
21
-3.91481
0
LINE
8
BLACK
6
CONTINUOUS
10
6.11518
20
-3.91481
11
6.11465
21
-3.91609
0
LINE
8
BLACK
6
CONTINUOUS
10
6.11465
20
-3.91609
11
6.11338
21
-3.91661
0
LINE
8
BLACK
6
CONTINUOUS
10
6.11338
20
-3.91661
11
6.07803
21
-3.91661
0
LINE
8
BLACK
6
CONTINUOUS
10
6.07803
20
-3.91661
11
6.07676
21
-3.91609
0
LINE
8
BLACK
6
CONTINUOUS
10
6.07676
20
-3.91609
11
6.07623
21
-3.91481
0
LINE
8
BLACK
6
CONTINUOUS
10
6.07623
20
-3.91481
11
6.07676
21
-3.91354
0
LINE
8
BLACK
6
CONTINUOUS
10
6.07676
20
-3.91354
11
6.07803
21
-3.91301
0
LINE
8
BLACK
6
CONTINUOUS
10
6.07803
20
-3.91301
11
6.11338
21
-3.91301
0
LINE
8
BLACK
6
CONTINUOUS
10
6.11338
20
-3.91301
11
6.11465
21
-3.91354
0
LINE
8
BLACK
6
CONTINUOUS
10
5.49073
20
-3.85854
11
5.49126
21
-3.85981
0
LINE
8
BLACK
6
CONTINUOUS
10
5.49126
20
-3.85981
11
5.49073
21
-3.86109
0
LINE
8
BLACK
6
CONTINUOUS
10
5.49073
20
-3.86109
11
5.48974
21
-3.8615
0
LINE
8
BLACK
6
CONTINUOUS
10
5.48974
20
-3.8615
11
5.5065
21
-3.8615
0
LINE
8
BLACK
6
CONTINUOUS
10
5.5065
20
-3.8615
11
5.5065
21
-3.8815
0
LINE
8
BLACK
6
CONTINUOUS
10
5.5065
20
-3.8815
11
5.4865
21
-3.8815
0
LINE
8
BLACK
6
CONTINUOUS
10
5.4865
20
-3.8815
11
5.4865
21
-3.86161
0
LINE
8
BLACK
6
CONTINUOUS
10
5.4865
20
-3.86161
11
5.45411
21
-3.86161
0
LINE
8
BLACK
6
CONTINUOUS
10
5.45411
20
-3.86161
11
5.45284
21
-3.86109
0
LINE
8
BLACK
6
CONTINUOUS
10
5.45284
20
-3.86109
11
5.45231
21
-3.85981
0
LINE
8
BLACK
6
CONTINUOUS
10
5.45231
20
-3.85981
11
5.45284
21
-3.85854
0
LINE
8
BLACK
6
CONTINUOUS
10
5.45284
20
-3.85854
11
5.45411
21
-3.85801
0
LINE
8
BLACK
6
CONTINUOUS
10
5.45411
20
-3.85801
11
5.48946
21
-3.85801
0
LINE
8
BLACK
6
CONTINUOUS
10
5.48946
20
-3.85801
11
5.49073
21
-3.85854
0
LINE
8
BLACK
6
CONTINUOUS
10
5.37937
20
-3.82945
11
5.37979
21
-3.82948
0
LINE
8
BLACK
6
CONTINUOUS
10
5.37979
20
-3.82948
11
5.38421
21
-3.83169
0
LINE
8
BLACK
6
CONTINUOUS
10
5.38421
20
-3.83169
11
5.3844
21
-3.83191
0
LINE
8
BLACK
6
CONTINUOUS
10
5.3844
20
-3.83191
11
5.38468
21
-3.83203
0
LINE
8
BLACK
6
CONTINUOUS
10
5.38468
20
-3.83203
11
5.38689
21
-3.83424
0
LINE
8
BLACK
6
CONTINUOUS
10
5.38689
20
-3.83424
11
5.387
21
-3.83451
0
LINE
8
BLACK
6
CONTINUOUS
10
5.387
20
-3.83451
11
5.38722
21
-3.8347
0
LINE
8
BLACK
6
CONTINUOUS
10
5.38722
20
-3.8347
11
5.38943
21
-3.83912
0
LINE
8
BLACK
6
CONTINUOUS
10
5.38943
20
-3.83912
11
5.38945
21
-3.83933
0
LINE
8
BLACK
6
CONTINUOUS
10
5.38945
20
-3.83933
11
5.38957
21
-3.83949
0
LINE
8
BLACK
6
CONTINUOUS
10
5.38957
20
-3.83949
11
5.39178
21
-3.84833
0
LINE
8
BLACK
6
CONTINUOUS
10
5.39178
20
-3.84833
11
5.39175
21
-3.84856
0
LINE
8
BLACK
6
CONTINUOUS
10
5.39175
20
-3.84856
11
5.39183
21
-3.84877
0
LINE
8
BLACK
6
CONTINUOUS
10
5.39183
20
-3.84877
11
5.39183
21
-3.85981
0
LINE
8
BLACK
6
CONTINUOUS
10
5.39183
20
-3.85981
11
5.39175
21
-3.86003
0
LINE
8
BLACK
6
CONTINUOUS
10
5.39175
20
-3.86003
11
5.39178
21
-3.86025
0
LINE
8
BLACK
6
CONTINUOUS
10
5.39178
20
-3.86025
11
5.39147
21
-3.8615
0
LINE
8
BLACK
6
CONTINUOUS
10
5.39147
20
-3.8615
11
5.4065
21
-3.8615
0
LINE
8
BLACK
6
CONTINUOUS
10
5.4065
20
-3.8615
11
5.4065
21
-3.87394
0
LINE
8
BLACK
6
CONTINUOUS
10
5.4065
20
-3.87394
11
5.43044
21
-3.85
0
LINE
8
BLACK
6
CONTINUOUS
10
5.43044
20
-3.85
11
5.43242
21
-3.84406
0
LINE
8
BLACK
6
CONTINUOUS
10
5.43242
20
-3.84406
11
5.43242
21
-3.84035
0
LINE
8
BLACK
6
CONTINUOUS
10
5.43242
20
-3.84035
11
5.43053
21
-3.83658
0
LINE
8
BLACK
6
CONTINUOUS
10
5.43053
20
-3.83658
11
5.42874
21
-3.83478
0
LINE
8
BLACK
6
CONTINUOUS
10
5.42874
20
-3.83478
11
5.42496
21
-3.83289
0
LINE
8
BLACK
6
CONTINUOUS
10
5.42496
20
-3.83289
11
5.41476
21
-3.83289
0
LINE
8
BLACK
6
CONTINUOUS
10
5.41476
20
-3.83289
11
5.41099
21
-3.83478
0
LINE
8
BLACK
6
CONTINUOUS
10
5.41099
20
-3.83478
11
5.40898
21
-3.83678
0
LINE
8
BLACK
6
CONTINUOUS
10
5.40898
20
-3.83678
11
5.40771
21
-3.83731
0
LINE
8
BLACK
6
CONTINUOUS
10
5.40771
20
-3.83731
11
5.40644
21
-3.83678
0
LINE
8
BLACK
6
CONTINUOUS
10
5.40644
20
-3.83678
11
5.40591
21
-3.83551
0
LINE
8
BLACK
6
CONTINUOUS
10
5.40591
20
-3.83551
11
5.40644
21
-3.83424
0
LINE
8
BLACK
6
CONTINUOUS
10
5.40644
20
-3.83424
11
5.40865
21
-3.83203
0
LINE
8
BLACK
6
CONTINUOUS
10
5.40865
20
-3.83203
11
5.40892
21
-3.83191
0
LINE
8
BLACK
6
CONTINUOUS
10
5.40892
20
-3.83191
11
5.40911
21
-3.83169
0
LINE
8
BLACK
6
CONTINUOUS
10
5.40911
20
-3.83169
11
5.41353
21
-3.82948
0
LINE
8
BLACK
6
CONTINUOUS
10
5.41353
20
-3.82948
11
5.41395
21
-3.82945
0
LINE
8
BLACK
6
CONTINUOUS
10
5.41395
20
-3.82945
11
5.41434
21
-3.82929
0
LINE
8
BLACK
6
CONTINUOUS
10
5.41434
20
-3.82929
11
5.42539
21
-3.82929
0
LINE
8
BLACK
6
CONTINUOUS
10
5.42539
20
-3.82929
11
5.42577
21
-3.82945
0
LINE
8
BLACK
6
CONTINUOUS
10
5.42577
20
-3.82945
11
5.42619
21
-3.82948
0
LINE
8
BLACK
6
CONTINUOUS
10
5.42619
20
-3.82948
11
5.43061
21
-3.83169
0
LINE
8
BLACK
6
CONTINUOUS
10
5.43061
20
-3.83169
11
5.4308
21
-3.83191
0
LINE
8
BLACK
6
CONTINUOUS
10
5.4308
20
-3.83191
11
5.43108
21
-3.83203
0
LINE
8
BLACK
6
CONTINUOUS
10
5.43108
20
-3.83203
11
5.43329
21
-3.83424
0
LINE
8
BLACK
6
CONTINUOUS
10
5.43329
20
-3.83424
11
5.4334
21
-3.83451
0
LINE
8
BLACK
6
CONTINUOUS
10
5.4334
20
-3.83451
11
5.43362
21
-3.8347
0
LINE
8
BLACK
6
CONTINUOUS
10
5.43362
20
-3.8347
11
5.43583
21
-3.83912
0
LINE
8
BLACK
6
CONTINUOUS
10
5.43583
20
-3.83912
11
5.43586
21
-3.83954
0
LINE
8
BLACK
6
CONTINUOUS
10
5.43586
20
-3.83954
11
5.43602
21
-3.83993
0
LINE
8
BLACK
6
CONTINUOUS
10
5.43602
20
-3.83993
11
5.43602
21
-3.84435
0
LINE
8
BLACK
6
CONTINUOUS
10
5.43602
20
-3.84435
11
5.43591
21
-3.84462
0
LINE
8
BLACK
6
CONTINUOUS
10
5.43591
20
-3.84462
11
5.43593
21
-3.84492
0
LINE
8
BLACK
6
CONTINUOUS
10
5.43593
20
-3.84492
11
5.43372
21
-3.85155
0
LINE
8
BLACK
6
CONTINUOUS
10
5.43372
20
-3.85155
11
5.43345
21
-3.85186
0
LINE
8
BLACK
6
CONTINUOUS
10
5.43345
20
-3.85186
11
5.43329
21
-3.85225
0
LINE
8
BLACK
6
CONTINUOUS
10
5.43329
20
-3.85225
11
5.40985
21
-3.87569
0
LINE
8
BLACK
6
CONTINUOUS
10
5.40985
20
-3.87569
11
5.43422
21
-3.87569
0
LINE
8
BLACK
6
CONTINUOUS
10
5.43422
20
-3.87569
11
5.4355
21
-3.87622
0
LINE
8
BLACK
6
CONTINUOUS
10
5.4355
20
-3.87622
11
5.43602
21
-3.87749
0
LINE
8
BLACK
6
CONTINUOUS
10
5.43602
20
-3.87749
11
5.4355
21
-3.87876
0
LINE
8
BLACK
6
CONTINUOUS
10
5.4355
20
-3.87876
11
5.43422
21
-3.87929
0
LINE
8
BLACK
6
CONTINUOUS
10
5.43422
20
-3.87929
11
5.4065
21
-3.87929
0
LINE
8
BLACK
6
CONTINUOUS
10
5.4065
20
-3.87929
11
5.4065
21
-3.8815
0
LINE
8
BLACK
6
CONTINUOUS
10
5.4065
20
-3.8815
11
5.3865
21
-3.8815
0
LINE
8
BLACK
6
CONTINUOUS
10
5.3865
20
-3.8815
11
5.3865
21
-3.87473
0
LINE
8
BLACK
6
CONTINUOUS
10
5.3865
20
-3.87473
11
5.38468
21
-3.87655
0
LINE
8
BLACK
6
CONTINUOUS
10
5.38468
20
-3.87655
11
5.3844
21
-3.87667
0
LINE
8
BLACK
6
CONTINUOUS
10
5.3844
20
-3.87667
11
5.38421
21
-3.87689
0
LINE
8
BLACK
6
CONTINUOUS
10
5.38421
20
-3.87689
11
5.37979
21
-3.8791
0
LINE
8
BLACK
6
CONTINUOUS
10
5.37979
20
-3.8791
11
5.37937
21
-3.87913
0
LINE
8
BLACK
6
CONTINUOUS
10
5.37937
20
-3.87913
11
5.37899
21
-3.87929
0
LINE
8
BLACK
6
CONTINUOUS
10
5.37899
20
-3.87929
11
5.37457
21
-3.87929
0
LINE
8
BLACK
6
CONTINUOUS
10
5.37457
20
-3.87929
11
5.37418
21
-3.87913
0
LINE
8
BLACK
6
CONTINUOUS
10
5.37418
20
-3.87913
11
5.37376
21
-3.8791
0
LINE
8
BLACK
6
CONTINUOUS
10
5.37376
20
-3.8791
11
5.36934
21
-3.87689
0
LINE
8
BLACK
6
CONTINUOUS
10
5.36934
20
-3.87689
11
5.36915
21
-3.87667
0
LINE
8
BLACK
6
CONTINUOUS
10
5.36915
20
-3.87667
11
5.36887
21
-3.87655
0
LINE
8
BLACK
6
CONTINUOUS
10
5.36887
20
-3.87655
11
5.36667
21
-3.87434
0
LINE
8
BLACK
6
CONTINUOUS
10
5.36667
20
-3.87434
11
5.36655
21
-3.87407
0
LINE
8
BLACK
6
CONTINUOUS
10
5.36655
20
-3.87407
11
5.36633
21
-3.87388
0
LINE
8
BLACK
6
CONTINUOUS
10
5.36633
20
-3.87388
11
5.36412
21
-3.86946
0
LINE
8
BLACK
6
CONTINUOUS
10
5.36412
20
-3.86946
11
5.3641
21
-3.86925
0
LINE
8
BLACK
6
CONTINUOUS
10
5.3641
20
-3.86925
11
5.36398
21
-3.86909
0
LINE
8
BLACK
6
CONTINUOUS
10
5.36398
20
-3.86909
11
5.36177
21
-3.86025
0
LINE
8
BLACK
6
CONTINUOUS
10
5.36177
20
-3.86025
11
5.36181
21
-3.86003
0
LINE
8
BLACK
6
CONTINUOUS
10
5.36181
20
-3.86003
11
5.36172
21
-3.85981
0
LINE
8
BLACK
6
CONTINUOUS
10
5.36172
20
-3.85981
11
5.36172
21
-3.84877
0
LINE
8
BLACK
6
CONTINUOUS
10
5.36172
20
-3.84877
11
5.36181
21
-3.84856
0
LINE
8
BLACK
6
CONTINUOUS
10
5.36181
20
-3.84856
11
5.36177
21
-3.84833
0
LINE
8
BLACK
6
CONTINUOUS
10
5.36177
20
-3.84833
11
5.36398
21
-3.83949
0
LINE
8
BLACK
6
CONTINUOUS
10
5.36398
20
-3.83949
11
5.3641
21
-3.83933
0
LINE
8
BLACK
6
CONTINUOUS
10
5.3641
20
-3.83933
11
5.36412
21
-3.83912
0
LINE
8
BLACK
6
CONTINUOUS
10
5.36412
20
-3.83912
11
5.36633
21
-3.8347
0
LINE
8
BLACK
6
CONTINUOUS
10
5.36633
20
-3.8347
11
5.36655
21
-3.83451
0
LINE
8
BLACK
6
CONTINUOUS
10
5.36655
20
-3.83451
11
5.36667
21
-3.83424
0
LINE
8
BLACK
6
CONTINUOUS
10
5.36667
20
-3.83424
11
5.36887
21
-3.83203
0
LINE
8
BLACK
6
CONTINUOUS
10
5.36887
20
-3.83203
11
5.36915
21
-3.83191
0
LINE
8
BLACK
6
CONTINUOUS
10
5.36915
20
-3.83191
11
5.36934
21
-3.83169
0
LINE
8
BLACK
6
CONTINUOUS
10
5.36934
20
-3.83169
11
5.37376
21
-3.82948
0
LINE
8
BLACK
6
CONTINUOUS
10
5.37376
20
-3.82948
11
5.37418
21
-3.82945
0
LINE
8
BLACK
6
CONTINUOUS
10
5.37418
20
-3.82945
11
5.37457
21
-3.82929
0
LINE
8
BLACK
6
CONTINUOUS
10
5.37457
20
-3.82929
11
5.37899
21
-3.82929
0
LINE
8
BLACK
6
CONTINUOUS
10
5.37899
20
-3.82929
11
5.37937
21
-3.82945
0
LINE
8
BLACK
6
CONTINUOUS
10
5.37499
20
-3.83289
11
5.37121
21
-3.83478
0
LINE
8
BLACK
6
CONTINUOUS
10
5.37121
20
-3.83478
11
5.36942
21
-3.83658
0
LINE
8
BLACK
6
CONTINUOUS
10
5.36942
20
-3.83658
11
5.36743
21
-3.84056
0
LINE
8
BLACK
6
CONTINUOUS
10
5.36743
20
-3.84056
11
5.36532
21
-3.84899
0
LINE
8
BLACK
6
CONTINUOUS
10
5.36532
20
-3.84899
11
5.36532
21
-3.85959
0
LINE
8
BLACK
6
CONTINUOUS
10
5.36532
20
-3.85959
11
5.36743
21
-3.86802
0
LINE
8
BLACK
6
CONTINUOUS
10
5.36743
20
-3.86802
11
5.36942
21
-3.87201
0
LINE
8
BLACK
6
CONTINUOUS
10
5.36942
20
-3.87201
11
5.37121
21
-3.8738
0
LINE
8
BLACK
6
CONTINUOUS
10
5.37121
20
-3.8738
11
5.37499
21
-3.87569
0
LINE
8
BLACK
6
CONTINUOUS
10
5.37499
20
-3.87569
11
5.37856
21
-3.87569
0
LINE
8
BLACK
6
CONTINUOUS
10
5.37856
20
-3.87569
11
5.38234
21
-3.8738
0
LINE
8
BLACK
6
CONTINUOUS
10
5.38234
20
-3.8738
11
5.38413
21
-3.87201
0
LINE
8
BLACK
6
CONTINUOUS
10
5.38413
20
-3.87201
11
5.38613
21
-3.86802
0
LINE
8
BLACK
6
CONTINUOUS
10
5.38613
20
-3.86802
11
5.3865
21
-3.86653
0
LINE
8
BLACK
6
CONTINUOUS
10
5.3865
20
-3.86653
11
5.3865
21
-3.8615
0
LINE
8
BLACK
6
CONTINUOUS
10
5.3865
20
-3.8615
11
5.38776
21
-3.8615
0
LINE
8
BLACK
6
CONTINUOUS
10
5.38776
20
-3.8615
11
5.38823
21
-3.85959
0
LINE
8
BLACK
6
CONTINUOUS
10
5.38823
20
-3.85959
11
5.38823
21
-3.84899
0
LINE
8
BLACK
6
CONTINUOUS
10
5.38823
20
-3.84899
11
5.38613
21
-3.84056
0
LINE
8
BLACK
6
CONTINUOUS
10
5.38613
20
-3.84056
11
5.38413
21
-3.83658
0
LINE
8
BLACK
6
CONTINUOUS
10
5.38413
20
-3.83658
11
5.38234
21
-3.83478
0
LINE
8
BLACK
6
CONTINUOUS
10
5.38234
20
-3.83478
11
5.37856
21
-3.83289
0
LINE
8
BLACK
6
CONTINUOUS
10
5.37856
20
-3.83289
11
5.37499
21
-3.83289
0
LINE
8
BLACK
6
CONTINUOUS
10
5.50807
20
-3.87876
11
5.50755
21
-3.87749
0
LINE
8
BLACK
6
CONTINUOUS
10
5.50755
20
-3.87749
11
5.50807
21
-3.87622
0
LINE
8
BLACK
6
CONTINUOUS
10
5.50807
20
-3.87622
11
5.50935
21
-3.87569
0
LINE
8
BLACK
6
CONTINUOUS
10
5.50935
20
-3.87569
11
5.5208
21
-3.87569
0
LINE
8
BLACK
6
CONTINUOUS
10
5.5208
20
-3.87569
11
5.5208
21
-3.83704
0
LINE
8
BLACK
6
CONTINUOUS
10
5.5208
20
-3.83704
11
5.51968
21
-3.83872
0
LINE
8
BLACK
6
CONTINUOUS
10
5.51968
20
-3.83872
11
5.51953
21
-3.83882
0
LINE
8
BLACK
6
CONTINUOUS
10
5.51953
20
-3.83882
11
5.51946
21
-3.83899
0
LINE
8
BLACK
6
CONTINUOUS
10
5.51946
20
-3.83899
11
5.51504
21
-3.84341
0
LINE
8
BLACK
6
CONTINUOUS
10
5.51504
20
-3.84341
11
5.51477
21
-3.84352
0
LINE
8
BLACK
6
CONTINUOUS
10
5.51477
20
-3.84352
11
5.51457
21
-3.84375
0
LINE
8
BLACK
6
CONTINUOUS
10
5.51457
20
-3.84375
11
5.51015
21
-3.84596
0
LINE
8
BLACK
6
CONTINUOUS
10
5.51015
20
-3.84596
11
5.50878
21
-3.84606
0
LINE
8
BLACK
6
CONTINUOUS
10
5.50878
20
-3.84606
11
5.50774
21
-3.84515
0
LINE
8
BLACK
6
CONTINUOUS
10
5.50774
20
-3.84515
11
5.50764
21
-3.84378
0
LINE
8
BLACK
6
CONTINUOUS
10
5.50764
20
-3.84378
11
5.50854
21
-3.84274
0
LINE
8
BLACK
6
CONTINUOUS
10
5.50854
20
-3.84274
11
5.5127
21
-3.84066
0
LINE
8
BLACK
6
CONTINUOUS
10
5.5127
20
-3.84066
11
5.51679
21
-3.83657
0
LINE
8
BLACK
6
CONTINUOUS
10
5.51679
20
-3.83657
11
5.52111
21
-3.83009
0
LINE
8
BLACK
6
CONTINUOUS
10
5.52111
20
-3.83009
11
5.52126
21
-3.82999
0
LINE
8
BLACK
6
CONTINUOUS
10
5.52126
20
-3.82999
11
5.52133
21
-3.82982
0
LINE
8
BLACK
6
CONTINUOUS
10
5.52133
20
-3.82982
11
5.52182
21
-3.82962
0
LINE
8
BLACK
6
CONTINUOUS
10
5.52182
20
-3.82962
11
5.52225
21
-3.82933
0
LINE
8
BLACK
6
CONTINUOUS
10
5.52225
20
-3.82933
11
5.52243
21
-3.82936
0
LINE
8
BLACK
6
CONTINUOUS
10
5.52243
20
-3.82936
11
5.5226
21
-3.82929
0
LINE
8
BLACK
6
CONTINUOUS
10
5.5226
20
-3.82929
11
5.52309
21
-3.82949
0
LINE
8
BLACK
6
CONTINUOUS
10
5.52309
20
-3.82949
11
5.5236
21
-3.82959
0
LINE
8
BLACK
6
CONTINUOUS
10
5.5236
20
-3.82959
11
5.52371
21
-3.82975
0
LINE
8
BLACK
6
CONTINUOUS
10
5.52371
20
-3.82975
11
5.52388
21
-3.82982
0
LINE
8
BLACK
6
CONTINUOUS
10
5.52388
20
-3.82982
11
5.52408
21
-3.8303
0
LINE
8
BLACK
6
CONTINUOUS
10
5.52408
20
-3.8303
11
5.52437
21
-3.83074
0
LINE
8
BLACK
6
CONTINUOUS
10
5.52437
20
-3.83074
11
5.52433
21
-3.83092
0
LINE
8
BLACK
6
CONTINUOUS
10
5.52433
20
-3.83092
11
5.5244
21
-3.83109
0
LINE
8
BLACK
6
CONTINUOUS
10
5.5244
20
-3.83109
11
5.5244
21
-3.87569
0
LINE
8
BLACK
6
CONTINUOUS
10
5.5244
20
-3.87569
11
5.53586
21
-3.87569
0
LINE
8
BLACK
6
CONTINUOUS
10
5.53586
20
-3.87569
11
5.53713
21
-3.87622
0
LINE
8
BLACK
6
CONTINUOUS
10
5.53713
20
-3.87622
11
5.53766
21
-3.87749
0
LINE
8
BLACK
6
CONTINUOUS
10
5.53766
20
-3.87749
11
5.53713
21
-3.87876
0
LINE
8
BLACK
6
CONTINUOUS
10
5.53713
20
-3.87876
11
5.53586
21
-3.87929
0
LINE
8
BLACK
6
CONTINUOUS
10
5.53586
20
-3.87929
11
5.50935
21
-3.87929
0
LINE
8
BLACK
6
CONTINUOUS
10
5.50935
20
-3.87929
11
5.50807
21
-3.87876
0
LINE
8
BLACK
6
CONTINUOUS
10
5.30423
20
-3.82944
11
5.30462
21
-3.82946
0
LINE
8
BLACK
6
CONTINUOUS
10
5.30462
20
-3.82946
11
5.30484
21
-3.8297
0
LINE
8
BLACK
6
CONTINUOUS
10
5.30484
20
-3.8297
11
5.30513
21
-3.82982
0
LINE
8
BLACK
6
CONTINUOUS
10
5.30513
20
-3.82982
11
5.30529
21
-3.83018
0
LINE
8
BLACK
6
CONTINUOUS
10
5.30529
20
-3.83018
11
5.30555
21
-3.83048
0
LINE
8
BLACK
6
CONTINUOUS
10
5.30555
20
-3.83048
11
5.30554
21
-3.83079
0
LINE
8
BLACK
6
CONTINUOUS
10
5.30554
20
-3.83079
11
5.30566
21
-3.83109
0
LINE
8
BLACK
6
CONTINUOUS
10
5.30566
20
-3.83109
11
5.30566
21
-3.87749
0
LINE
8
BLACK
6
CONTINUOUS
10
5.30566
20
-3.87749
11
5.30513
21
-3.87876
0
LINE
8
BLACK
6
CONTINUOUS
10
5.30513
20
-3.87876
11
5.30386
21
-3.87929
0
LINE
8
BLACK
6
CONTINUOUS
10
5.30386
20
-3.87929
11
5.30259
21
-3.87876
0
LINE
8
BLACK
6
CONTINUOUS
10
5.30259
20
-3.87876
11
5.30206
21
-3.87749
0
LINE
8
BLACK
6
CONTINUOUS
10
5.30206
20
-3.87749
11
5.30206
21
-3.8392
0
LINE
8
BLACK
6
CONTINUOUS
10
5.30206
20
-3.8392
11
5.29003
21
-3.86499
0
LINE
8
BLACK
6
CONTINUOUS
10
5.29003
20
-3.86499
11
5.28957
21
-3.86541
0
LINE
8
BLACK
6
CONTINUOUS
10
5.28957
20
-3.86541
11
5.28916
21
-3.86586
0
LINE
8
BLACK
6
CONTINUOUS
10
5.28916
20
-3.86586
11
5.28907
21
-3.86587
0
LINE
8
BLACK
6
CONTINUOUS
10
5.28907
20
-3.86587
11
5.28901
21
-3.86592
0
LINE
8
BLACK
6
CONTINUOUS
10
5.28901
20
-3.86592
11
5.2884
21
-3.8659
0
LINE
8
BLACK
6
CONTINUOUS
10
5.2884
20
-3.8659
11
5.28778
21
-3.86592
0
LINE
8
BLACK
6
CONTINUOUS
10
5.28778
20
-3.86592
11
5.28772
21
-3.86587
0
LINE
8
BLACK
6
CONTINUOUS
10
5.28772
20
-3.86587
11
5.28763
21
-3.86586
0
LINE
8
BLACK
6
CONTINUOUS
10
5.28763
20
-3.86586
11
5.28722
21
-3.86541
0
LINE
8
BLACK
6
CONTINUOUS
10
5.28722
20
-3.86541
11
5.28676
21
-3.86499
0
LINE
8
BLACK
6
CONTINUOUS
10
5.28676
20
-3.86499
11
5.27473
21
-3.8392
0
LINE
8
BLACK
6
CONTINUOUS
10
5.27473
20
-3.8392
11
5.27473
21
-3.87749
0
LINE
8
BLACK
6
CONTINUOUS
10
5.27473
20
-3.87749
11
5.2742
21
-3.87876
0
LINE
8
BLACK
6
CONTINUOUS
10
5.2742
20
-3.87876
11
5.27293
21
-3.87929
0
LINE
8
BLACK
6
CONTINUOUS
10
5.27293
20
-3.87929
11
5.27166
21
-3.87876
0
LINE
8
BLACK
6
CONTINUOUS
10
5.27166
20
-3.87876
11
5.27113
21
-3.87749
0
LINE
8
BLACK
6
CONTINUOUS
10
5.27113
20
-3.87749
11
5.27113
21
-3.83109
0
LINE
8
BLACK
6
CONTINUOUS
10
5.27113
20
-3.83109
11
5.27125
21
-3.83079
0
LINE
8
BLACK
6
CONTINUOUS
10
5.27125
20
-3.83079
11
5.27124
21
-3.83048
0
LINE
8
BLACK
6
CONTINUOUS
10
5.27124
20
-3.83048
11
5.2715
21
-3.83018
0
LINE
8
BLACK
6
CONTINUOUS
10
5.2715
20
-3.83018
11
5.27166
21
-3.82982
0
LINE
8
BLACK
6
CONTINUOUS
10
5.27166
20
-3.82982
11
5.27195
21
-3.8297
0
LINE
8
BLACK
6
CONTINUOUS
10
5.27195
20
-3.8297
11
5.27217
21
-3.82946
0
LINE
8
BLACK
6
CONTINUOUS
10
5.27217
20
-3.82946
11
5.27256
21
-3.82944
0
LINE
8
BLACK
6
CONTINUOUS
10
5.27256
20
-3.82944
11
5.27293
21
-3.82929
0
LINE
8
BLACK
6
CONTINUOUS
10
5.27293
20
-3.82929
11
5.27322
21
-3.82941
0
LINE
8
BLACK
6
CONTINUOUS
10
5.27322
20
-3.82941
11
5.27354
21
-3.8294
0
LINE
8
BLACK
6
CONTINUOUS
10
5.27354
20
-3.8294
11
5.27384
21
-3.82967
0
LINE
8
BLACK
6
CONTINUOUS
10
5.27384
20
-3.82967
11
5.2742
21
-3.82982
0
LINE
8
BLACK
6
CONTINUOUS
10
5.2742
20
-3.82982
11
5.27432
21
-3.83011
0
LINE
8
BLACK
6
CONTINUOUS
10
5.27432
20
-3.83011
11
5.27456
21
-3.83033
0
LINE
8
BLACK
6
CONTINUOUS
10
5.27456
20
-3.83033
11
5.2884
21
-3.85998
0
LINE
8
BLACK
6
CONTINUOUS
10
5.2884
20
-3.85998
11
5.30223
21
-3.83033
0
LINE
8
BLACK
6
CONTINUOUS
10
5.30223
20
-3.83033
11
5.30247
21
-3.83011
0
LINE
8
BLACK
6
CONTINUOUS
10
5.30247
20
-3.83011
11
5.30259
21
-3.82982
0
LINE
8
BLACK
6
CONTINUOUS
10
5.30259
20
-3.82982
11
5.30295
21
-3.82967
0
LINE
8
BLACK
6
CONTINUOUS
10
5.30295
20
-3.82967
11
5.30325
21
-3.8294
0
LINE
8
BLACK
6
CONTINUOUS
10
5.30325
20
-3.8294
11
5.30357
21
-3.82941
0
LINE
8
BLACK
6
CONTINUOUS
10
5.30357
20
-3.82941
11
5.30386
21
-3.82929
0
LINE
8
BLACK
6
CONTINUOUS
10
5.30386
20
-3.82929
11
5.30423
21
-3.82944
0
LINE
8
BLACK
6
CONTINUOUS
10
5.33547
20
-3.82947
11
5.3356
21
-3.82948
0
LINE
8
BLACK
6
CONTINUOUS
10
5.3356
20
-3.82948
11
5.33597
21
-3.82991
0
LINE
8
BLACK
6
CONTINUOUS
10
5.33597
20
-3.82991
11
5.33641
21
-3.83029
0
LINE
8
BLACK
6
CONTINUOUS
10
5.33641
20
-3.83029
11
5.33641
21
-3.83042
0
LINE
8
BLACK
6
CONTINUOUS
10
5.33641
20
-3.83042
11
5.3365
21
-3.83052
0
LINE
8
BLACK
6
CONTINUOUS
10
5.3365
20
-3.83052
11
5.35197
21
-3.87692
0
LINE
8
BLACK
6
CONTINUOUS
10
5.35197
20
-3.87692
11
5.35187
21
-3.8783
0
LINE
8
BLACK
6
CONTINUOUS
10
5.35187
20
-3.8783
11
5.35083
21
-3.8792
0
LINE
8
BLACK
6
CONTINUOUS
10
5.35083
20
-3.8792
11
5.34946
21
-3.8791
0
LINE
8
BLACK
6
CONTINUOUS
10
5.34946
20
-3.8791
11
5.34855
21
-3.87806
0
LINE
8
BLACK
6
CONTINUOUS
10
5.34855
20
-3.87806
11
5.34455
21
-3.86603
0
LINE
8
BLACK
6
CONTINUOUS
10
5.34455
20
-3.86603
11
5.32505
21
-3.86603
0
LINE
8
BLACK
6
CONTINUOUS
10
5.32505
20
-3.86603
11
5.32104
21
-3.87806
0
LINE
8
BLACK
6
CONTINUOUS
10
5.32104
20
-3.87806
11
5.32013
21
-3.8791
0
LINE
8
BLACK
6
CONTINUOUS
10
5.32013
20
-3.8791
11
5.31876
21
-3.8792
0
LINE
8
BLACK
6
CONTINUOUS
10
5.31876
20
-3.8792
11
5.31772
21
-3.8783
0
LINE
8
BLACK
6
CONTINUOUS
10
5.31772
20
-3.8783
11
5.31762
21
-3.87692
0
LINE
8
BLACK
6
CONTINUOUS
10
5.31762
20
-3.87692
11
5.33309
21
-3.83052
0
LINE
8
BLACK
6
CONTINUOUS
10
5.33309
20
-3.83052
11
5.33318
21
-3.83042
0
LINE
8
BLACK
6
CONTINUOUS
10
5.33318
20
-3.83042
11
5.33319
21
-3.83029
0
LINE
8
BLACK
6
CONTINUOUS
10
5.33319
20
-3.83029
11
5.33362
21
-3.82991
0
LINE
8
BLACK
6
CONTINUOUS
10
5.33362
20
-3.82991
11
5.33399
21
-3.82948
0
LINE
8
BLACK
6
CONTINUOUS
10
5.33399
20
-3.82948
11
5.33412
21
-3.82947
0
LINE
8
BLACK
6
CONTINUOUS
10
5.33412
20
-3.82947
11
5.33423
21
-3.82938
0
LINE
8
BLACK
6
CONTINUOUS
10
5.33423
20
-3.82938
11
5.3348
21
-3.82942
0
LINE
8
BLACK
6
CONTINUOUS
10
5.3348
20
-3.82942
11
5.33536
21
-3.82938
0
LINE
8
BLACK
6
CONTINUOUS
10
5.33536
20
-3.82938
11
5.33547
21
-3.82947
0
LINE
8
BLACK
6
CONTINUOUS
10
5.32625
20
-3.86243
11
5.34335
21
-3.86243
0
LINE
8
BLACK
6
CONTINUOUS
10
5.34335
20
-3.86243
11
5.3348
21
-3.83678
0
LINE
8
BLACK
6
CONTINUOUS
10
5.3348
20
-3.83678
11
5.32625
21
-3.86243
0
LINE
8
BLACK
6
CONTINUOUS
10
5.63376
20
-3.77645
11
5.63429
21
-3.77772
0
LINE
8
BLACK
6
CONTINUOUS
10
5.63429
20
-3.77772
11
5.63376
21
-3.77899
0
LINE
8
BLACK
6
CONTINUOUS
10
5.63376
20
-3.77899
11
5.63249
21
-3.77952
0
LINE
8
BLACK
6
CONTINUOUS
10
5.63249
20
-3.77952
11
5.5942
21
-3.77952
0
LINE
8
BLACK
6
CONTINUOUS
10
5.5942
20
-3.77952
11
5.61999
21
-3.79155
0
LINE
8
BLACK
6
CONTINUOUS
10
5.61999
20
-3.79155
11
5.62041
21
-3.79201
0
LINE
8
BLACK
6
CONTINUOUS
10
5.62041
20
-3.79201
11
5.62086
21
-3.79242
0
LINE
8
BLACK
6
CONTINUOUS
10
5.62086
20
-3.79242
11
5.62087
21
-3.79251
0
LINE
8
BLACK
6
CONTINUOUS
10
5.62087
20
-3.79251
11
5.62092
21
-3.79257
0
LINE
8
BLACK
6
CONTINUOUS
10
5.62092
20
-3.79257
11
5.6209
21
-3.79319
0
LINE
8
BLACK
6
CONTINUOUS
10
5.6209
20
-3.79319
11
5.62092
21
-3.7938
0
LINE
8
BLACK
6
CONTINUOUS
10
5.62092
20
-3.7938
11
5.62087
21
-3.79386
0
LINE
8
BLACK
6
CONTINUOUS
10
5.62087
20
-3.79386
11
5.62086
21
-3.79395
0
LINE
8
BLACK
6
CONTINUOUS
10
5.62086
20
-3.79395
11
5.62041
21
-3.79436
0
LINE
8
BLACK
6
CONTINUOUS
10
5.62041
20
-3.79436
11
5.61999
21
-3.79482
0
LINE
8
BLACK
6
CONTINUOUS
10
5.61999
20
-3.79482
11
5.5942
21
-3.80685
0
LINE
8
BLACK
6
CONTINUOUS
10
5.5942
20
-3.80685
11
5.63249
21
-3.80685
0
LINE
8
BLACK
6
CONTINUOUS
10
5.63249
20
-3.80685
11
5.63376
21
-3.80738
0
LINE
8
BLACK
6
CONTINUOUS
10
5.63376
20
-3.80738
11
5.63429
21
-3.80865
0
LINE
8
BLACK
6
CONTINUOUS
10
5.63429
20
-3.80865
11
5.63376
21
-3.80993
0
LINE
8
BLACK
6
CONTINUOUS
10
5.63376
20
-3.80993
11
5.63249
21
-3.81045
0
LINE
8
BLACK
6
CONTINUOUS
10
5.63249
20
-3.81045
11
5.58609
21
-3.81045
0
LINE
8
BLACK
6
CONTINUOUS
10
5.58609
20
-3.81045
11
5.58579
21
-3.81033
0
LINE
8
BLACK
6
CONTINUOUS
10
5.58579
20
-3.81033
11
5.58548
21
-3.81034
0
LINE
8
BLACK
6
CONTINUOUS
10
5.58548
20
-3.81034
11
5.58518
21
-3.81008
0
LINE
8
BLACK
6
CONTINUOUS
10
5.58518
20
-3.81008
11
5.58482
21
-3.80993
0
LINE
8
BLACK
6
CONTINUOUS
10
5.58482
20
-3.80993
11
5.5847
21
-3.80963
0
LINE
8
BLACK
6
CONTINUOUS
10
5.5847
20
-3.80963
11
5.58446
21
-3.80941
0
LINE
8
BLACK
6
CONTINUOUS
10
5.58446
20
-3.80941
11
5.58444
21
-3.80902
0
LINE
8
BLACK
6
CONTINUOUS
10
5.58444
20
-3.80902
11
5.58429
21
-3.80865
0
LINE
8
BLACK
6
CONTINUOUS
10
5.58429
20
-3.80865
11
5.58441
21
-3.80836
0
LINE
8
BLACK
6
CONTINUOUS
10
5.58441
20
-3.80836
11
5.5844
21
-3.80804
0
LINE
8
BLACK
6
CONTINUOUS
10
5.5844
20
-3.80804
11
5.58467
21
-3.80775
0
LINE
8
BLACK
6
CONTINUOUS
10
5.58467
20
-3.80775
11
5.58482
21
-3.80738
0
LINE
8
BLACK
6
CONTINUOUS
10
5.58482
20
-3.80738
11
5.58511
21
-3.80726
0
LINE
8
BLACK
6
CONTINUOUS
10
5.58511
20
-3.80726
11
5.58533
21
-3.80702
0
LINE
8
BLACK
6
CONTINUOUS
10
5.58533
20
-3.80702
11
5.61498
21
-3.79319
0
LINE
8
BLACK
6
CONTINUOUS
10
5.61498
20
-3.79319
11
5.58533
21
-3.77935
0
LINE
8
BLACK
6
CONTINUOUS
10
5.58533
20
-3.77935
11
5.58511
21
-3.77911
0
LINE
8
BLACK
6
CONTINUOUS
10
5.58511
20
-3.77911
11
5.58482
21
-3.77899
0
LINE
8
BLACK
6
CONTINUOUS
10
5.58482
20
-3.77899
11
5.58467
21
-3.77863
0
LINE
8
BLACK
6
CONTINUOUS
10
5.58467
20
-3.77863
11
5.5844
21
-3.77833
0
LINE
8
BLACK
6
CONTINUOUS
10
5.5844
20
-3.77833
11
5.58441
21
-3.77801
0
LINE
8
BLACK
6
CONTINUOUS
10
5.58441
20
-3.77801
11
5.58429
21
-3.77772
0
LINE
8
BLACK
6
CONTINUOUS
10
5.58429
20
-3.77772
11
5.58444
21
-3.77735
0
LINE
8
BLACK
6
CONTINUOUS
10
5.58444
20
-3.77735
11
5.58446
21
-3.77696
0
LINE
8
BLACK
6
CONTINUOUS
10
5.58446
20
-3.77696
11
5.5847
21
-3.77674
0
LINE
8
BLACK
6
CONTINUOUS
10
5.5847
20
-3.77674
11
5.58482
21
-3.77645
0
LINE
8
BLACK
6
CONTINUOUS
10
5.58482
20
-3.77645
11
5.58518
21
-3.77629
0
LINE
8
BLACK
6
CONTINUOUS
10
5.58518
20
-3.77629
11
5.58548
21
-3.77603
0
LINE
8
BLACK
6
CONTINUOUS
10
5.58548
20
-3.77603
11
5.58579
21
-3.77604
0
LINE
8
BLACK
6
CONTINUOUS
10
5.58579
20
-3.77604
11
5.58609
21
-3.77592
0
LINE
8
BLACK
6
CONTINUOUS
10
5.58609
20
-3.77592
11
5.63249
21
-3.77592
0
LINE
8
BLACK
6
CONTINUOUS
10
5.63249
20
-3.77592
11
5.63376
21
-3.77645
0
LINE
8
BLACK
6
CONTINUOUS
10
5.844
20
-3.8065
11
5.824
21
-3.8065
0
LINE
8
BLACK
6
CONTINUOUS
10
5.824
20
-3.8065
11
5.824
21
-3.7865
0
LINE
8
BLACK
6
CONTINUOUS
10
5.824
20
-3.7865
11
5.844
21
-3.7865
0
LINE
8
BLACK
6
CONTINUOUS
10
5.844
20
-3.7865
11
5.844
21
-3.8065
0
LINE
8
BLACK
6
CONTINUOUS
10
5.944
20
-3.8065
11
5.924
21
-3.8065
0
LINE
8
BLACK
6
CONTINUOUS
10
5.924
20
-3.8065
11
5.924
21
-3.7865
0
LINE
8
BLACK
6
CONTINUOUS
10
5.924
20
-3.7865
11
5.944
21
-3.7865
0
LINE
8
BLACK
6
CONTINUOUS
10
5.944
20
-3.7865
11
5.944
21
-3.8065
0
LINE
8
BLACK
6
CONTINUOUS
10
6.044
20
-3.8065
11
6.024
21
-3.8065
0
LINE
8
BLACK
6
CONTINUOUS
10
6.024
20
-3.8065
11
6.024
21
-3.7865
0
LINE
8
BLACK
6
CONTINUOUS
10
6.024
20
-3.7865
11
6.044
21
-3.7865
0
LINE
8
BLACK
6
CONTINUOUS
10
6.044
20
-3.7865
11
6.044
21
-3.8065
0
LINE
8
BLACK
6
CONTINUOUS
10
5.5065
20
-3.7815
11
5.4865
21
-3.7815
0
LINE
8
BLACK
6
CONTINUOUS
10
5.4865
20
-3.7815
11
5.4865
21
-3.7615
0
LINE
8
BLACK
6
CONTINUOUS
10
5.4865
20
-3.7615
11
5.5065
21
-3.7615
0
LINE
8
BLACK
6
CONTINUOUS
10
5.5065
20
-3.7615
11
5.5065
21
-3.7815
0
LINE
8
BLACK
6
CONTINUOUS
10
5.4065
20
-3.7815
11
5.3865
21
-3.7815
0
LINE
8
BLACK
6
CONTINUOUS
10
5.3865
20
-3.7815
11
5.3865
21
-3.7615
0
LINE
8
BLACK
6
CONTINUOUS
10
5.3865
20
-3.7615
11
5.4065
21
-3.7615
0
LINE
8
BLACK
6
CONTINUOUS
10
5.4065
20
-3.7615
11
5.4065
21
-3.7815
0
LINE
8
BLACK
6
CONTINUOUS
10
5.6333
20
-3.72971
11
5.6342
21
-3.73075
0
LINE
8
BLACK
6
CONTINUOUS
10
5.6342
20
-3.73075
11
5.6341
21
-3.73212
0
LINE
8
BLACK
6
CONTINUOUS
10
5.6341
20
-3.73212
11
5.63306
21
-3.73303
0
LINE
8
BLACK
6
CONTINUOUS
10
5.63306
20
-3.73303
11
5.62103
21
-3.73704
0
LINE
8
BLACK
6
CONTINUOUS
10
5.62103
20
-3.73704
11
5.62103
21
-3.75654
0
LINE
8
BLACK
6
CONTINUOUS
10
5.62103
20
-3.75654
11
5.63306
21
-3.76054
0
LINE
8
BLACK
6
CONTINUOUS
10
5.63306
20
-3.76054
11
5.6341
21
-3.76145
0
LINE
8
BLACK
6
CONTINUOUS
10
5.6341
20
-3.76145
11
5.6342
21
-3.76282
0
LINE
8
BLACK
6
CONTINUOUS
10
5.6342
20
-3.76282
11
5.6333
21
-3.76386
0
LINE
8
BLACK
6
CONTINUOUS
10
5.6333
20
-3.76386
11
5.63192
21
-3.76396
0
LINE
8
BLACK
6
CONTINUOUS
10
5.63192
20
-3.76396
11
5.58552
21
-3.74849
0
LINE
8
BLACK
6
CONTINUOUS
10
5.58552
20
-3.74849
11
5.58542
21
-3.74841
0
LINE
8
BLACK
6
CONTINUOUS
10
5.58542
20
-3.74841
11
5.58529
21
-3.7484
0
LINE
8
BLACK
6
CONTINUOUS
10
5.58529
20
-3.7484
11
5.58491
21
-3.74796
0
LINE
8
BLACK
6
CONTINUOUS
10
5.58491
20
-3.74796
11
5.58448
21
-3.74759
0
LINE
8
BLACK
6
CONTINUOUS
10
5.58448
20
-3.74759
11
5.58447
21
-3.74746
0
LINE
8
BLACK
6
CONTINUOUS
10
5.58447
20
-3.74746
11
5.58438
21
-3.74735
0
LINE
8
BLACK
6
CONTINUOUS
10
5.58438
20
-3.74735
11
5.58442
21
-3.74679
0
LINE
8
BLACK
6
CONTINUOUS
10
5.58442
20
-3.74679
11
5.58438
21
-3.74622
0
LINE
8
BLACK
6
CONTINUOUS
10
5.58438
20
-3.74622
11
5.58447
21
-3.74611
0
LINE
8
BLACK
6
CONTINUOUS
10
5.58447
20
-3.74611
11
5.58448
21
-3.74598
0
LINE
8
BLACK
6
CONTINUOUS
10
5.58448
20
-3.74598
11
5.58491
21
-3.74561
0
LINE
8
BLACK
6
CONTINUOUS
10
5.58491
20
-3.74561
11
5.58529
21
-3.74518
0
LINE
8
BLACK
6
CONTINUOUS
10
5.58529
20
-3.74518
11
5.58542
21
-3.74517
0
LINE
8
BLACK
6
CONTINUOUS
10
5.58542
20
-3.74517
11
5.58552
21
-3.74508
0
LINE
8
BLACK
6
CONTINUOUS
10
5.58552
20
-3.74508
11
5.63192
21
-3.72961
0
LINE
8
BLACK
6
CONTINUOUS
10
5.63192
20
-3.72961
11
5.6333
21
-3.72971
0
LINE
8
BLACK
6
CONTINUOUS
10
5.59178
20
-3.74679
11
5.61743
21
-3.75534
0
LINE
8
BLACK
6
CONTINUOUS
10
5.61743
20
-3.75534
11
5.61743
21
-3.73824
0
LINE
8
BLACK
6
CONTINUOUS
10
5.61743
20
-3.73824
11
5.59178
21
-3.74679
0
LINE
8
BLACK
6
CONTINUOUS
10
5.61503
20
-3.68983
11
5.61525
21
-3.6898
0
LINE
8
BLACK
6
CONTINUOUS
10
5.61525
20
-3.6898
11
5.62409
21
-3.69201
0
LINE
8
BLACK
6
CONTINUOUS
10
5.62409
20
-3.69201
11
5.62425
21
-3.69213
0
LINE
8
BLACK
6
CONTINUOUS
10
5.62425
20
-3.69213
11
5.62446
21
-3.69215
0
LINE
8
BLACK
6
CONTINUOUS
10
5.62446
20
-3.69215
11
5.62888
21
-3.69436
0
LINE
8
BLACK
6
CONTINUOUS
10
5.62888
20
-3.69436
11
5.62907
21
-3.69458
0
LINE
8
BLACK
6
CONTINUOUS
10
5.62907
20
-3.69458
11
5.62934
21
-3.69469
0
LINE
8
BLACK
6
CONTINUOUS
10
5.62934
20
-3.69469
11
5.63155
21
-3.6969
0
LINE
8
BLACK
6
CONTINUOUS
10
5.63155
20
-3.6969
11
5.63167
21
-3.69718
0
LINE
8
BLACK
6
CONTINUOUS
10
5.63167
20
-3.69718
11
5.63189
21
-3.69737
0
LINE
8
BLACK
6
CONTINUOUS
10
5.63189
20
-3.69737
11
5.6341
21
-3.70179
0
LINE
8
BLACK
6
CONTINUOUS
10
5.6341
20
-3.70179
11
5.63413
21
-3.70221
0
LINE
8
BLACK
6
CONTINUOUS
10
5.63413
20
-3.70221
11
5.63429
21
-3.7026
0
LINE
8
BLACK
6
CONTINUOUS
10
5.63429
20
-3.7026
11
5.63429
21
-3.70701
0
LINE
8
BLACK
6
CONTINUOUS
10
5.63429
20
-3.70701
11
5.63413
21
-3.7074
0
LINE
8
BLACK
6
CONTINUOUS
10
5.63413
20
-3.7074
11
5.6341
21
-3.70782
0
LINE
8
BLACK
6
CONTINUOUS
10
5.6341
20
-3.70782
11
5.63189
21
-3.71224
0
LINE
8
BLACK
6
CONTINUOUS
10
5.63189
20
-3.71224
11
5.63167
21
-3.71243
0
LINE
8
BLACK
6
CONTINUOUS
10
5.63167
20
-3.71243
11
5.63155
21
-3.71271
0
LINE
8
BLACK
6
CONTINUOUS
10
5.63155
20
-3.71271
11
5.62934
21
-3.71492
0
LINE
8
BLACK
6
CONTINUOUS
10
5.62934
20
-3.71492
11
5.62907
21
-3.71503
0
LINE
8
BLACK
6
CONTINUOUS
10
5.62907
20
-3.71503
11
5.62888
21
-3.71525
0
LINE
8
BLACK
6
CONTINUOUS
10
5.62888
20
-3.71525
11
5.62446
21
-3.71746
0
LINE
8
BLACK
6
CONTINUOUS
10
5.62446
20
-3.71746
11
5.62425
21
-3.71748
0
LINE
8
BLACK
6
CONTINUOUS
10
5.62425
20
-3.71748
11
5.62409
21
-3.7176
0
LINE
8
BLACK
6
CONTINUOUS
10
5.62409
20
-3.7176
11
5.61525
21
-3.71981
0
LINE
8
BLACK
6
CONTINUOUS
10
5.61525
20
-3.71981
11
5.61503
21
-3.71977
0
LINE
8
BLACK
6
CONTINUOUS
10
5.61503
20
-3.71977
11
5.61481
21
-3.71986
0
LINE
8
BLACK
6
CONTINUOUS
10
5.61481
20
-3.71986
11
5.60377
21
-3.71986
0
LINE
8
BLACK
6
CONTINUOUS
10
5.60377
20
-3.71986
11
5.60356
21
-3.71977
0
LINE
8
BLACK
6
CONTINUOUS
10
5.60356
20
-3.71977
11
5.60333
21
-3.71981
0
LINE
8
BLACK
6
CONTINUOUS
10
5.60333
20
-3.71981
11
5.59449
21
-3.7176
0
LINE
8
BLACK
6
CONTINUOUS
10
5.59449
20
-3.7176
11
5.59433
21
-3.71748
0
LINE
8
BLACK
6
CONTINUOUS
10
5.59433
20
-3.71748
11
5.59412
21
-3.71746
0
LINE
8
BLACK
6
CONTINUOUS
10
5.59412
20
-3.71746
11
5.5897
21
-3.71525
0
LINE
8
BLACK
6
CONTINUOUS
10
5.5897
20
-3.71525
11
5.58951
21
-3.71503
0
LINE
8
BLACK
6
CONTINUOUS
10
5.58951
20
-3.71503
11
5.58924
21
-3.71492
0
LINE
8
BLACK
6
CONTINUOUS
10
5.58924
20
-3.71492
11
5.58703
21
-3.71271
0
LINE
8
BLACK
6
CONTINUOUS
10
5.58703
20
-3.71271
11
5.58691
21
-3.71243
0
LINE
8
BLACK
6
CONTINUOUS
10
5.58691
20
-3.71243
11
5.58669
21
-3.71224
0
LINE
8
BLACK
6
CONTINUOUS
10
5.58669
20
-3.71224
11
5.58448
21
-3.70782
0
LINE
8
BLACK
6
CONTINUOUS
10
5.58448
20
-3.70782
11
5.58445
21
-3.7074
0
LINE
8
BLACK
6
CONTINUOUS
10
5.58445
20
-3.7074
11
5.58429
21
-3.70701
0
LINE
8
BLACK
6
CONTINUOUS
10
5.58429
20
-3.70701
11
5.58429
21
-3.7026
0
LINE
8
BLACK
6
CONTINUOUS
10
5.58429
20
-3.7026
11
5.58445
21
-3.70221
0
LINE
8
BLACK
6
CONTINUOUS
10
5.58445
20
-3.70221
11
5.58448
21
-3.70179
0
LINE
8
BLACK
6
CONTINUOUS
10
5.58448
20
-3.70179
11
5.58669
21
-3.69737
0
LINE
8
BLACK
6
CONTINUOUS
10
5.58669
20
-3.69737
11
5.58691
21
-3.69718
0
LINE
8
BLACK
6
CONTINUOUS
10
5.58691
20
-3.69718
11
5.58703
21
-3.6969
0
LINE
8
BLACK
6
CONTINUOUS
10
5.58703
20
-3.6969
11
5.58924
21
-3.69469
0
LINE
8
BLACK
6
CONTINUOUS
10
5.58924
20
-3.69469
11
5.58951
21
-3.69458
0
LINE
8
BLACK
6
CONTINUOUS
10
5.58951
20
-3.69458
11
5.5897
21
-3.69436
0
LINE
8
BLACK
6
CONTINUOUS
10
5.5897
20
-3.69436
11
5.59412
21
-3.69215
0
LINE
8
BLACK
6
CONTINUOUS
10
5.59412
20
-3.69215
11
5.59433
21
-3.69213
0
LINE
8
BLACK
6
CONTINUOUS
10
5.59433
20
-3.69213
11
5.59449
21
-3.69201
0
LINE
8
BLACK
6
CONTINUOUS
10
5.59449
20
-3.69201
11
5.60333
21
-3.6898
0
LINE
8
BLACK
6
CONTINUOUS
10
5.60333
20
-3.6898
11
5.60356
21
-3.68983
0
LINE
8
BLACK
6
CONTINUOUS
10
5.60356
20
-3.68983
11
5.60377
21
-3.68975
0
LINE
8
BLACK
6
CONTINUOUS
10
5.60377
20
-3.68975
11
5.61481
21
-3.68975
0
LINE
8
BLACK
6
CONTINUOUS
10
5.61481
20
-3.68975
11
5.61503
21
-3.68983
0
LINE
8
BLACK
6
CONTINUOUS
10
5.60399
20
-3.69335
11
5.59556
21
-3.69546
0
LINE
8
BLACK
6
CONTINUOUS
10
5.59556
20
-3.69546
11
5.59158
21
-3.69745
0
LINE
8
BLACK
6
CONTINUOUS
10
5.59158
20
-3.69745
11
5.58978
21
-3.69924
0
LINE
8
BLACK
6
CONTINUOUS
10
5.58978
20
-3.69924
11
5.58789
21
-3.70302
0
LINE
8
BLACK
6
CONTINUOUS
10
5.58789
20
-3.70302
11
5.58789
21
-3.70659
0
LINE
8
BLACK
6
CONTINUOUS
10
5.58789
20
-3.70659
11
5.58978
21
-3.71037
0
LINE
8
BLACK
6
CONTINUOUS
10
5.58978
20
-3.71037
11
5.59158
21
-3.71216
0
LINE
8
BLACK
6
CONTINUOUS
10
5.59158
20
-3.71216
11
5.59556
21
-3.71415
0
LINE
8
BLACK
6
CONTINUOUS
10
5.59556
20
-3.71415
11
5.60399
21
-3.71626
0
LINE
8
BLACK
6
CONTINUOUS
10
5.60399
20
-3.71626
11
5.61459
21
-3.71626
0
LINE
8
BLACK
6
CONTINUOUS
10
5.61459
20
-3.71626
11
5.62302
21
-3.71415
0
LINE
8
BLACK
6
CONTINUOUS
10
5.62302
20
-3.71415
11
5.62701
21
-3.71216
0
LINE
8
BLACK
6
CONTINUOUS
10
5.62701
20
-3.71216
11
5.6288
21
-3.71037
0
LINE
8
BLACK
6
CONTINUOUS
10
5.6288
20
-3.71037
11
5.63069
21
-3.70659
0
LINE
8
BLACK
6
CONTINUOUS
10
5.63069
20
-3.70659
11
5.63069
21
-3.70302
0
LINE
8
BLACK
6
CONTINUOUS
10
5.63069
20
-3.70302
11
5.6288
21
-3.69924
0
LINE
8
BLACK
6
CONTINUOUS
10
5.6288
20
-3.69924
11
5.62701
21
-3.69745
0
LINE
8
BLACK
6
CONTINUOUS
10
5.62701
20
-3.69745
11
5.62302
21
-3.69546
0
LINE
8
BLACK
6
CONTINUOUS
10
5.62302
20
-3.69546
11
5.61459
21
-3.69335
0
LINE
8
BLACK
6
CONTINUOUS
10
5.61459
20
-3.69335
11
5.60399
21
-3.69335
0
LINE
8
BLACK
6
CONTINUOUS
10
5.944
20
-3.7065
11
5.924
21
-3.7065
0
LINE
8
BLACK
6
CONTINUOUS
10
5.924
20
-3.7065
11
5.924
21
-3.6865
0
LINE
8
BLACK
6
CONTINUOUS
10
5.924
20
-3.6865
11
5.944
21
-3.6865
0
LINE
8
BLACK
6
CONTINUOUS
10
5.944
20
-3.6865
11
5.944
21
-3.7065
0
LINE
8
BLACK
6
CONTINUOUS
10
5.844
20
-3.7065
11
5.824
21
-3.7065
0
LINE
8
BLACK
6
CONTINUOUS
10
5.824
20
-3.7065
11
5.824
21
-3.6865
0
LINE
8
BLACK
6
CONTINUOUS
10
5.824
20
-3.6865
11
5.844
21
-3.6865
0
LINE
8
BLACK
6
CONTINUOUS
10
5.844
20
-3.6865
11
5.844
21
-3.7065
0
LINE
8
BLACK
6
CONTINUOUS
10
6.044
20
-3.7065
11
6.024
21
-3.7065
0
LINE
8
BLACK
6
CONTINUOUS
10
6.024
20
-3.7065
11
6.024
21
-3.6865
0
LINE
8
BLACK
6
CONTINUOUS
10
6.024
20
-3.6865
11
6.044
21
-3.6865
0
LINE
8
BLACK
6
CONTINUOUS
10
6.044
20
-3.6865
11
6.044
21
-3.7065
0
LINE
8
BLACK
6
CONTINUOUS
10
5.59962
20
-3.64567
11
5.59992
21
-3.64565
0
LINE
8
BLACK
6
CONTINUOUS
10
5.59992
20
-3.64565
11
5.60655
21
-3.64786
0
LINE
8
BLACK
6
CONTINUOUS
10
5.60655
20
-3.64786
11
5.60686
21
-3.64813
0
LINE
8
BLACK
6
CONTINUOUS
10
5.60686
20
-3.64813
11
5.60725
21
-3.64829
0
LINE
8
BLACK
6
CONTINUOUS
10
5.60725
20
-3.64829
11
5.63069
21
-3.67174
0
LINE
8
BLACK
6
CONTINUOUS
10
5.63069
20
-3.67174
11
5.63069
21
-3.64736
0
LINE
8
BLACK
6
CONTINUOUS
10
5.63069
20
-3.64736
11
5.63122
21
-3.64608
0
LINE
8
BLACK
6
CONTINUOUS
10
5.63122
20
-3.64608
11
5.63249
21
-3.64556
0
LINE
8
BLACK
6
CONTINUOUS
10
5.63249
20
-3.64556
11
5.63376
21
-3.64608
0
LINE
8
BLACK
6
CONTINUOUS
10
5.63376
20
-3.64608
11
5.63429
21
-3.64736
0
LINE
8
BLACK
6
CONTINUOUS
10
5.63429
20
-3.64736
11
5.63429
21
-3.67608
0
LINE
8
BLACK
6
CONTINUOUS
10
5.63429
20
-3.67608
11
5.63376
21
-3.67735
0
LINE
8
BLACK
6
CONTINUOUS
10
5.63376
20
-3.67735
11
5.63249
21
-3.67788
0
LINE
8
BLACK
6
CONTINUOUS
10
5.63249
20
-3.67788
11
5.63122
21
-3.67735
0
LINE
8
BLACK
6
CONTINUOUS
10
5.63122
20
-3.67735
11
5.605
21
-3.65114
0
LINE
8
BLACK
6
CONTINUOUS
10
5.605
20
-3.65114
11
5.59906
21
-3.64916
0
LINE
8
BLACK
6
CONTINUOUS
10
5.59906
20
-3.64916
11
5.59535
21
-3.64916
0
LINE
8
BLACK
6
CONTINUOUS
10
5.59535
20
-3.64916
11
5.59158
21
-3.65105
0
LINE
8
BLACK
6
CONTINUOUS
10
5.59158
20
-3.65105
11
5.58978
21
-3.65284
0
LINE
8
BLACK
6
CONTINUOUS
10
5.58978
20
-3.65284
11
5.58789
21
-3.65662
0
LINE
8
BLACK
6
CONTINUOUS
10
5.58789
20
-3.65662
11
5.58789
21
-3.66682
0
LINE
8
BLACK
6
CONTINUOUS
10
5.58789
20
-3.66682
11
5.58978
21
-3.6706
0
LINE
8
BLACK
6
CONTINUOUS
10
5.58978
20
-3.6706
11
5.59178
21
-3.6726
0
LINE
8
BLACK
6
CONTINUOUS
10
5.59178
20
-3.6726
11
5.59231
21
-3.67387
0
LINE
8
BLACK
6
CONTINUOUS
10
5.59231
20
-3.67387
11
5.59178
21
-3.67514
0
LINE
8
BLACK
6
CONTINUOUS
10
5.59178
20
-3.67514
11
5.59051
21
-3.67567
0
LINE
8
BLACK
6
CONTINUOUS
10
5.59051
20
-3.67567
11
5.58924
21
-3.67514
0
LINE
8
BLACK
6
CONTINUOUS
10
5.58924
20
-3.67514
11
5.58703
21
-3.67293
0
LINE
8
BLACK
6
CONTINUOUS
10
5.58703
20
-3.67293
11
5.58691
21
-3.67266
0
LINE
8
BLACK
6
CONTINUOUS
10
5.58691
20
-3.67266
11
5.58669
21
-3.67247
0
LINE
8
BLACK
6
CONTINUOUS
10
5.58669
20
-3.67247
11
5.58448
21
-3.66805
0
LINE
8
BLACK
6
CONTINUOUS
10
5.58448
20
-3.66805
11
5.58445
21
-3.66763
0
LINE
8
BLACK
6
CONTINUOUS
10
5.58445
20
-3.66763
11
5.58429
21
-3.66724
0
LINE
8
BLACK
6
CONTINUOUS
10
5.58429
20
-3.66724
11
5.58429
21
-3.6562
0
LINE
8
BLACK
6
CONTINUOUS
10
5.58429
20
-3.6562
11
5.58445
21
-3.65581
0
LINE
8
BLACK
6
CONTINUOUS
10
5.58445
20
-3.65581
11
5.58448
21
-3.65539
0
LINE
8
BLACK
6
CONTINUOUS
10
5.58448
20
-3.65539
11
5.58669
21
-3.65097
0
LINE
8
BLACK
6
CONTINUOUS
10
5.58669
20
-3.65097
11
5.58691
21
-3.65078
0
LINE
8
BLACK
6
CONTINUOUS
10
5.58691
20
-3.65078
11
5.58703
21
-3.6505
0
LINE
8
BLACK
6
CONTINUOUS
10
5.58703
20
-3.6505
11
5.58924
21
-3.64829
0
LINE
8
BLACK
6
CONTINUOUS
10
5.58924
20
-3.64829
11
5.58951
21
-3.64818
0
LINE
8
BLACK
6
CONTINUOUS
10
5.58951
20
-3.64818
11
5.5897
21
-3.64796
0
LINE
8
BLACK
6
CONTINUOUS
10
5.5897
20
-3.64796
11
5.59412
21
-3.64575
0
LINE
8
BLACK
6
CONTINUOUS
10
5.59412
20
-3.64575
11
5.59454
21
-3.64572
0
LINE
8
BLACK
6
CONTINUOUS
10
5.59454
20
-3.64572
11
5.59493
21
-3.64556
0
LINE
8
BLACK
6
CONTINUOUS
10
5.59493
20
-3.64556
11
5.59935
21
-3.64556
0
LINE
8
BLACK
6
CONTINUOUS
10
5.59935
20
-3.64556
11
5.59962
21
-3.64567
0
LINE
8
BLACK
6
CONTINUOUS
10
5.61609
20
-3.59085
11
5.61661
21
-3.59212
0
LINE
8
BLACK
6
CONTINUOUS
10
5.61661
20
-3.59212
11
5.61661
21
-3.62747
0
LINE
8
BLACK
6
CONTINUOUS
10
5.61661
20
-3.62747
11
5.61609
21
-3.62874
0
LINE
8
BLACK
6
CONTINUOUS
10
5.61609
20
-3.62874
11
5.61481
21
-3.62927
0
LINE
8
BLACK
6
CONTINUOUS
10
5.61481
20
-3.62927
11
5.61354
21
-3.62874
0
LINE
8
BLACK
6
CONTINUOUS
10
5.61354
20
-3.62874
11
5.61301
21
-3.62747
0
LINE
8
BLACK
6
CONTINUOUS
10
5.61301
20
-3.62747
11
5.61301
21
-3.59212
0
LINE
8
BLACK
6
CONTINUOUS
10
5.61301
20
-3.59212
11
5.61354
21
-3.59085
0
LINE
8
BLACK
6
CONTINUOUS
10
5.61354
20
-3.59085
11
5.61481
21
-3.59032
0
LINE
8
BLACK
6
CONTINUOUS
10
5.61481
20
-3.59032
11
5.61609
21
-3.59085
0
LINE
8
BLACK
6
CONTINUOUS
10
6.044
20
-3.6065
11
6.024
21
-3.6065
0
LINE
8
BLACK
6
CONTINUOUS
10
6.024
20
-3.6065
11
6.024
21
-3.5865
0
LINE
8
BLACK
6
CONTINUOUS
10
6.024
20
-3.5865
11
6.044
21
-3.5865
0
LINE
8
BLACK
6
CONTINUOUS
10
6.044
20
-3.5865
11
6.044
21
-3.6065
0
LINE
8
BLACK
6
CONTINUOUS
10
5.844
20
-3.6065
11
5.824
21
-3.6065
0
LINE
8
BLACK
6
CONTINUOUS
10
5.824
20
-3.6065
11
5.824
21
-3.5865
0
LINE
8
BLACK
6
CONTINUOUS
10
5.824
20
-3.5865
11
5.844
21
-3.5865
0
LINE
8
BLACK
6
CONTINUOUS
10
5.844
20
-3.5865
11
5.844
21
-3.6065
0
LINE
8
BLACK
6
CONTINUOUS
10
5.944
20
-3.6065
11
5.924
21
-3.6065
0
LINE
8
BLACK
6
CONTINUOUS
10
5.924
20
-3.6065
11
5.924
21
-3.5865
0
LINE
8
BLACK
6
CONTINUOUS
10
5.924
20
-3.5865
11
5.944
21
-3.5865
0
LINE
8
BLACK
6
CONTINUOUS
10
5.944
20
-3.5865
11
5.944
21
-3.6065
0
LINE
8
BLACK
6
CONTINUOUS
10
5.62404
20
-3.54408
11
5.62446
21
-3.54411
0
LINE
8
BLACK
6
CONTINUOUS
10
5.62446
20
-3.54411
11
5.62888
21
-3.54632
0
LINE
8
BLACK
6
CONTINUOUS
10
5.62888
20
-3.54632
11
5.62907
21
-3.54654
0
LINE
8
BLACK
6
CONTINUOUS
10
5.62907
20
-3.54654
11
5.62934
21
-3.54666
0
LINE
8
BLACK
6
CONTINUOUS
10
5.62934
20
-3.54666
11
5.63155
21
-3.54887
0
LINE
8
BLACK
6
CONTINUOUS
10
5.63155
20
-3.54887
11
5.63167
21
-3.54914
0
LINE
8
BLACK
6
CONTINUOUS
10
5.63167
20
-3.54914
11
5.63189
21
-3.54933
0
LINE
8
BLACK
6
CONTINUOUS
10
5.63189
20
-3.54933
11
5.6341
21
-3.55375
0
LINE
8
BLACK
6
CONTINUOUS
10
5.6341
20
-3.55375
11
5.63413
21
-3.55417
0
LINE
8
BLACK
6
CONTINUOUS
10
5.63413
20
-3.55417
11
5.63429
21
-3.55456
0
LINE
8
BLACK
6
CONTINUOUS
10
5.63429
20
-3.55456
11
5.63429
21
-3.56781
0
LINE
8
BLACK
6
CONTINUOUS
10
5.63429
20
-3.56781
11
5.63413
21
-3.5682
0
LINE
8
BLACK
6
CONTINUOUS
10
5.63413
20
-3.5682
11
5.6341
21
-3.56862
0
LINE
8
BLACK
6
CONTINUOUS
10
5.6341
20
-3.56862
11
5.63189
21
-3.57304
0
LINE
8
BLACK
6
CONTINUOUS
10
5.63189
20
-3.57304
11
5.63167
21
-3.57323
0
LINE
8
BLACK
6
CONTINUOUS
10
5.63167
20
-3.57323
11
5.63155
21
-3.57351
0
LINE
8
BLACK
6
CONTINUOUS
10
5.63155
20
-3.57351
11
5.62934
21
-3.57572
0
LINE
8
BLACK
6
CONTINUOUS
10
5.62934
20
-3.57572
11
5.62807
21
-3.57624
0
LINE
8
BLACK
6
CONTINUOUS
10
5.62807
20
-3.57624
11
5.6268
21
-3.57572
0
LINE
8
BLACK
6
CONTINUOUS
10
5.6268
20
-3.57572
11
5.62627
21
-3.57444
0
LINE
8
BLACK
6
CONTINUOUS
10
5.62627
20
-3.57444
11
5.6268
21
-3.57317
0
LINE
8
BLACK
6
CONTINUOUS
10
5.6268
20
-3.57317
11
5.6288
21
-3.57117
0
LINE
8
BLACK
6
CONTINUOUS
10
5.6288
20
-3.57117
11
5.63069
21
-3.56739
0
LINE
8
BLACK
6
CONTINUOUS
10
5.63069
20
-3.56739
11
5.63069
21
-3.55498
0
LINE
8
BLACK
6
CONTINUOUS
10
5.63069
20
-3.55498
11
5.6288
21
-3.5512
0
LINE
8
BLACK
6
CONTINUOUS
10
5.6288
20
-3.5512
11
5.62701
21
-3.54941
0
LINE
8
BLACK
6
CONTINUOUS
10
5.62701
20
-3.54941
11
5.62323
21
-3.54752
0
LINE
8
BLACK
6
CONTINUOUS
10
5.62323
20
-3.54752
11
5.61303
21
-3.54752
0
LINE
8
BLACK
6
CONTINUOUS
10
5.61303
20
-3.54752
11
5.60925
21
-3.54941
0
LINE
8
BLACK
6
CONTINUOUS
10
5.60925
20
-3.54941
11
5.60746
21
-3.5512
0
LINE
8
BLACK
6
CONTINUOUS
10
5.60746
20
-3.5512
11
5.60557
21
-3.55498
0
LINE
8
BLACK
6
CONTINUOUS
10
5.60557
20
-3.55498
11
5.60557
21
-3.56119
0
LINE
8
BLACK
6
CONTINUOUS
10
5.60557
20
-3.56119
11
5.60532
21
-3.56177
0
LINE
8
BLACK
6
CONTINUOUS
10
5.60532
20
-3.56177
11
5.60512
21
-3.56237
0
LINE
8
BLACK
6
CONTINUOUS
10
5.60512
20
-3.56237
11
5.60506
21
-3.5624
0
LINE
8
BLACK
6
CONTINUOUS
10
5.60506
20
-3.5624
11
5.60504
21
-3.56246
0
LINE
8
BLACK
6
CONTINUOUS
10
5.60504
20
-3.56246
11
5.60445
21
-3.5627
0
LINE
8
BLACK
6
CONTINUOUS
10
5.60445
20
-3.5627
11
5.60389
21
-3.56298
0
LINE
8
BLACK
6
CONTINUOUS
10
5.60389
20
-3.56298
11
5.60383
21
-3.56296
0
LINE
8
BLACK
6
CONTINUOUS
10
5.60383
20
-3.56296
11
5.60377
21
-3.56299
0
LINE
8
BLACK
6
CONTINUOUS
10
5.60377
20
-3.56299
11
5.60318
21
-3.56274
0
LINE
8
BLACK
6
CONTINUOUS
10
5.60318
20
-3.56274
11
5.60258
21
-3.56254
0
LINE
8
BLACK
6
CONTINUOUS
10
5.60258
20
-3.56254
11
5.58789
21
-3.54969
0
LINE
8
BLACK
6
CONTINUOUS
10
5.58789
20
-3.54969
11
5.58789
21
-3.57444
0
LINE
8
BLACK
6
CONTINUOUS
10
5.58789
20
-3.57444
11
5.58736
21
-3.57572
0
LINE
8
BLACK
6
CONTINUOUS
10
5.58736
20
-3.57572
11
5.58609
21
-3.57624
0
LINE
8
BLACK
6
CONTINUOUS
10
5.58609
20
-3.57624
11
5.58482
21
-3.57572
0
LINE
8
BLACK
6
CONTINUOUS
10
5.58482
20
-3.57572
11
5.58429
21
-3.57444
0
LINE
8
BLACK
6
CONTINUOUS
10
5.58429
20
-3.57444
11
5.58429
21
-3.54572
0
LINE
8
BLACK
6
CONTINUOUS
10
5.58429
20
-3.54572
11
5.58453
21
-3.54513
0
LINE
8
BLACK
6
CONTINUOUS
10
5.58453
20
-3.54513
11
5.58474
21
-3.54453
0
LINE
8
BLACK
6
CONTINUOUS
10
5.58474
20
-3.54453
11
5.58479
21
-3.54451
0
LINE
8
BLACK
6
CONTINUOUS
10
5.58479
20
-3.54451
11
5.58482
21
-3.54445
0
LINE
8
BLACK
6
CONTINUOUS
10
5.58482
20
-3.54445
11
5.5854
21
-3.5442
0
LINE
8
BLACK
6
CONTINUOUS
10
5.5854
20
-3.5442
11
5.58597
21
-3.54392
0
LINE
8
BLACK
6
CONTINUOUS
10
5.58597
20
-3.54392
11
5.58603
21
-3.54394
0
LINE
8
BLACK
6
CONTINUOUS
10
5.58603
20
-3.54394
11
5.58609
21
-3.54392
0
LINE
8
BLACK
6
CONTINUOUS
10
5.58609
20
-3.54392
11
5.58668
21
-3.54416
0
LINE
8
BLACK
6
CONTINUOUS
10
5.58668
20
-3.54416
11
5.58728
21
-3.54436
0
LINE
8
BLACK
6
CONTINUOUS
10
5.58728
20
-3.54436
11
5.60197
21
-3.55722
0
LINE
8
BLACK
6
CONTINUOUS
10
5.60197
20
-3.55722
11
5.60197
21
-3.55456
0
LINE
8
BLACK
6
CONTINUOUS
10
5.60197
20
-3.55456
11
5.60213
21
-3.55417
0
LINE
8
BLACK
6
CONTINUOUS
10
5.60213
20
-3.55417
11
5.60216
21
-3.55375
0
LINE
8
BLACK
6
CONTINUOUS
10
5.60216
20
-3.55375
11
5.60437
21
-3.54933
0
LINE
8
BLACK
6
CONTINUOUS
10
5.60437
20
-3.54933
11
5.60459
21
-3.54914
0
LINE
8
BLACK
6
CONTINUOUS
10
5.60459
20
-3.54914
11
5.6047
21
-3.54887
0
LINE
8
BLACK
6
CONTINUOUS
10
5.6047
20
-3.54887
11
5.60691
21
-3.54666
0
LINE
8
BLACK
6
CONTINUOUS
10
5.60691
20
-3.54666
11
5.60719
21
-3.54654
0
LINE
8
BLACK
6
CONTINUOUS
10
5.60719
20
-3.54654
11
5.60738
21
-3.54632
0
LINE
8
BLACK
6
CONTINUOUS
10
5.60738
20
-3.54632
11
5.6118
21
-3.54411
0
LINE
8
BLACK
6
CONTINUOUS
10
5.6118
20
-3.54411
11
5.61222
21
-3.54408
0
LINE
8
BLACK
6
CONTINUOUS
10
5.61222
20
-3.54408
11
5.6126
21
-3.54392
0
LINE
8
BLACK
6
CONTINUOUS
10
5.6126
20
-3.54392
11
5.62365
21
-3.54392
0
LINE
8
BLACK
6
CONTINUOUS
10
5.62365
20
-3.54392
11
5.62404
21
-3.54408
0
LINE
8
BLACK
6
CONTINUOUS
10
6.044
20
-3.5065
11
6.024
21
-3.5065
0
LINE
8
BLACK
6
CONTINUOUS
10
6.024
20
-3.5065
11
6.024
21
-3.4865
0
LINE
8
BLACK
6
CONTINUOUS
10
6.024
20
-3.4865
11
6.044
21
-3.4865
0
LINE
8
BLACK
6
CONTINUOUS
10
6.044
20
-3.4865
11
6.044
21
-3.5065
0
LINE
8
BLACK
6
CONTINUOUS
10
5.944
20
-3.5065
11
5.924
21
-3.5065
0
LINE
8
BLACK
6
CONTINUOUS
10
5.924
20
-3.5065
11
5.924
21
-3.4865
0
LINE
8
BLACK
6
CONTINUOUS
10
5.924
20
-3.4865
11
5.944
21
-3.4865
0
LINE
8
BLACK
6
CONTINUOUS
10
5.944
20
-3.4865
11
5.944
21
-3.5065
0
LINE
8
BLACK
6
CONTINUOUS
10
5.844
20
-3.5065
11
5.824
21
-3.5065
0
LINE
8
BLACK
6
CONTINUOUS
10
5.824
20
-3.5065
11
5.824
21
-3.4865
0
LINE
8
BLACK
6
CONTINUOUS
10
5.824
20
-3.4865
11
5.844
21
-3.4865
0
LINE
8
BLACK
6
CONTINUOUS
10
5.844
20
-3.4865
11
5.844
21
-3.5065
0
LINE
8
BLACK
6
CONTINUOUS
10
5.96491
20
-3.35445
11
5.96533
21
-3.35448
0
LINE
8
BLACK
6
CONTINUOUS
10
5.96533
20
-3.35448
11
5.96975
21
-3.35669
0
LINE
8
BLACK
6
CONTINUOUS
10
5.96975
20
-3.35669
11
5.96994
21
-3.35691
0
LINE
8
BLACK
6
CONTINUOUS
10
5.96994
20
-3.35691
11
5.97022
21
-3.35703
0
LINE
8
BLACK
6
CONTINUOUS
10
5.97022
20
-3.35703
11
5.97243
21
-3.35924
0
LINE
8
BLACK
6
CONTINUOUS
10
5.97243
20
-3.35924
11
5.97254
21
-3.35951
0
LINE
8
BLACK
6
CONTINUOUS
10
5.97254
20
-3.35951
11
5.97276
21
-3.3597
0
LINE
8
BLACK
6
CONTINUOUS
10
5.97276
20
-3.3597
11
5.97497
21
-3.36412
0
LINE
8
BLACK
6
CONTINUOUS
10
5.97497
20
-3.36412
11
5.975
21
-3.36454
0
LINE
8
BLACK
6
CONTINUOUS
10
5.975
20
-3.36454
11
5.97516
21
-3.36493
0
LINE
8
BLACK
6
CONTINUOUS
10
5.97516
20
-3.36493
11
5.97516
21
-3.36935
0
LINE
8
BLACK
6
CONTINUOUS
10
5.97516
20
-3.36935
11
5.97505
21
-3.36962
0
LINE
8
BLACK
6
CONTINUOUS
10
5.97505
20
-3.36962
11
5.97507
21
-3.36992
0
LINE
8
BLACK
6
CONTINUOUS
10
5.97507
20
-3.36992
11
5.97286
21
-3.37655
0
LINE
8
BLACK
6
CONTINUOUS
10
5.97286
20
-3.37655
11
5.97259
21
-3.37686
0
LINE
8
BLACK
6
CONTINUOUS
10
5.97259
20
-3.37686
11
5.97243
21
-3.37725
0
LINE
8
BLACK
6
CONTINUOUS
10
5.97243
20
-3.37725
11
5.94898
21
-3.40069
0
LINE
8
BLACK
6
CONTINUOUS
10
5.94898
20
-3.40069
11
5.97336
21
-3.40069
0
LINE
8
BLACK
6
CONTINUOUS
10
5.97336
20
-3.40069
11
5.97463
21
-3.40122
0
LINE
8
BLACK
6
CONTINUOUS
10
5.97463
20
-3.40122
11
5.97516
21
-3.40249
0
LINE
8
BLACK
6
CONTINUOUS
10
5.97516
20
-3.40249
11
5.97463
21
-3.40376
0
LINE
8
BLACK
6
CONTINUOUS
10
5.97463
20
-3.40376
11
5.97336
21
-3.40429
0
LINE
8
BLACK
6
CONTINUOUS
10
5.97336
20
-3.40429
11
5.94464
21
-3.40429
0
LINE
8
BLACK
6
CONTINUOUS
10
5.94464
20
-3.40429
11
5.94337
21
-3.40376
0
LINE
8
BLACK
6
CONTINUOUS
10
5.94337
20
-3.40376
11
5.94284
21
-3.40249
0
LINE
8
BLACK
6
CONTINUOUS
10
5.94284
20
-3.40249
11
5.94337
21
-3.40122
0
LINE
8
BLACK
6
CONTINUOUS
10
5.94337
20
-3.40122
11
5.96958
21
-3.375
0
LINE
8
BLACK
6
CONTINUOUS
10
5.96958
20
-3.375
11
5.97156
21
-3.36906
0
LINE
8
BLACK
6
CONTINUOUS
10
5.97156
20
-3.36906
11
5.97156
21
-3.36535
0
LINE
8
BLACK
6
CONTINUOUS
10
5.97156
20
-3.36535
11
5.96967
21
-3.36158
0
LINE
8
BLACK
6
CONTINUOUS
10
5.96967
20
-3.36158
11
5.96788
21
-3.35978
0
LINE
8
BLACK
6
CONTINUOUS
10
5.96788
20
-3.35978
11
5.9641
21
-3.35789
0
LINE
8
BLACK
6
CONTINUOUS
10
5.9641
20
-3.35789
11
5.9539
21
-3.35789
0
LINE
8
BLACK
6
CONTINUOUS
10
5.9539
20
-3.35789
11
5.95012
21
-3.35978
0
LINE
8
BLACK
6
CONTINUOUS
10
5.95012
20
-3.35978
11
5.94812
21
-3.36178
0
LINE
8
BLACK
6
CONTINUOUS
10
5.94812
20
-3.36178
11
5.94685
21
-3.36231
0
LINE
8
BLACK
6
CONTINUOUS
10
5.94685
20
-3.36231
11
5.94557
21
-3.36178
0
LINE
8
BLACK
6
CONTINUOUS
10
5.94557
20
-3.36178
11
5.94505
21
-3.36051
0
LINE
8
BLACK
6
CONTINUOUS
10
5.94505
20
-3.36051
11
5.94557
21
-3.35924
0
LINE
8
BLACK
6
CONTINUOUS
10
5.94557
20
-3.35924
11
5.94778
21
-3.35703
0
LINE
8
BLACK
6
CONTINUOUS
10
5.94778
20
-3.35703
11
5.94806
21
-3.35691
0
LINE
8
BLACK
6
CONTINUOUS
10
5.94806
20
-3.35691
11
5.94825
21
-3.35669
0
LINE
8
BLACK
6
CONTINUOUS
10
5.94825
20
-3.35669
11
5.95267
21
-3.35448
0
LINE
8
BLACK
6
CONTINUOUS
10
5.95267
20
-3.35448
11
5.95309
21
-3.35445
0
LINE
8
BLACK
6
CONTINUOUS
10
5.95309
20
-3.35445
11
5.95348
21
-3.35429
0
LINE
8
BLACK
6
CONTINUOUS
10
5.95348
20
-3.35429
11
5.96452
21
-3.35429
0
LINE
8
BLACK
6
CONTINUOUS
10
5.96452
20
-3.35429
11
5.96491
21
-3.35445
0
LINE
8
BLACK
6
CONTINUOUS
10
5.74173
20
-3.35444
11
5.74212
21
-3.35446
0
LINE
8
BLACK
6
CONTINUOUS
10
5.74212
20
-3.35446
11
5.74234
21
-3.3547
0
LINE
8
BLACK
6
CONTINUOUS
10
5.74234
20
-3.3547
11
5.74263
21
-3.35482
0
LINE
8
BLACK
6
CONTINUOUS
10
5.74263
20
-3.35482
11
5.74279
21
-3.35518
0
LINE
8
BLACK
6
CONTINUOUS
10
5.74279
20
-3.35518
11
5.74305
21
-3.35548
0
LINE
8
BLACK
6
CONTINUOUS
10
5.74305
20
-3.35548
11
5.74304
21
-3.35579
0
LINE
8
BLACK
6
CONTINUOUS
10
5.74304
20
-3.35579
11
5.74316
21
-3.35609
0
LINE
8
BLACK
6
CONTINUOUS
10
5.74316
20
-3.35609
11
5.74316
21
-3.40249
0
LINE
8
BLACK
6
CONTINUOUS
10
5.74316
20
-3.40249
11
5.74263
21
-3.40376
0
LINE
8
BLACK
6
CONTINUOUS
10
5.74263
20
-3.40376
11
5.74136
21
-3.40429
0
LINE
8
BLACK
6
CONTINUOUS
10
5.74136
20
-3.40429
11
5.74009
21
-3.40376
0
LINE
8
BLACK
6
CONTINUOUS
10
5.74009
20
-3.40376
11
5.73956
21
-3.40249
0
LINE
8
BLACK
6
CONTINUOUS
10
5.73956
20
-3.40249
11
5.73956
21
-3.3642
0
LINE
8
BLACK
6
CONTINUOUS
10
5.73956
20
-3.3642
11
5.72753
21
-3.38999
0
LINE
8
BLACK
6
CONTINUOUS
10
5.72753
20
-3.38999
11
5.72707
21
-3.39041
0
LINE
8
BLACK
6
CONTINUOUS
10
5.72707
20
-3.39041
11
5.72666
21
-3.39086
0
LINE
8
BLACK
6
CONTINUOUS
10
5.72666
20
-3.39086
11
5.72657
21
-3.39087
0
LINE
8
BLACK
6
CONTINUOUS
10
5.72657
20
-3.39087
11
5.72651
21
-3.39092
0
LINE
8
BLACK
6
CONTINUOUS
10
5.72651
20
-3.39092
11
5.7259
21
-3.3909
0
LINE
8
BLACK
6
CONTINUOUS
10
5.7259
20
-3.3909
11
5.72528
21
-3.39092
0
LINE
8
BLACK
6
CONTINUOUS
10
5.72528
20
-3.39092
11
5.72522
21
-3.39087
0
LINE
8
BLACK
6
CONTINUOUS
10
5.72522
20
-3.39087
11
5.72513
21
-3.39086
0
LINE
8
BLACK
6
CONTINUOUS
10
5.72513
20
-3.39086
11
5.72472
21
-3.39041
0
LINE
8
BLACK
6
CONTINUOUS
10
5.72472
20
-3.39041
11
5.72426
21
-3.38999
0
LINE
8
BLACK
6
CONTINUOUS
10
5.72426
20
-3.38999
11
5.71223
21
-3.3642
0
LINE
8
BLACK
6
CONTINUOUS
10
5.71223
20
-3.3642
11
5.71223
21
-3.40249
0
LINE
8
BLACK
6
CONTINUOUS
10
5.71223
20
-3.40249
11
5.7117
21
-3.40376
0
LINE
8
BLACK
6
CONTINUOUS
10
5.7117
20
-3.40376
11
5.71043
21
-3.40429
0
LINE
8
BLACK
6
CONTINUOUS
10
5.71043
20
-3.40429
11
5.70916
21
-3.40376
0
LINE
8
BLACK
6
CONTINUOUS
10
5.70916
20
-3.40376
11
5.70863
21
-3.40249
0
LINE
8
BLACK
6
CONTINUOUS
10
5.70863
20
-3.40249
11
5.70863
21
-3.35609
0
LINE
8
BLACK
6
CONTINUOUS
10
5.70863
20
-3.35609
11
5.70875
21
-3.35579
0
LINE
8
BLACK
6
CONTINUOUS
10
5.70875
20
-3.35579
11
5.70874
21
-3.35548
0
LINE
8
BLACK
6
CONTINUOUS
10
5.70874
20
-3.35548
11
5.709
21
-3.35518
0
LINE
8
BLACK
6
CONTINUOUS
10
5.709
20
-3.35518
11
5.70916
21
-3.35482
0
LINE
8
BLACK
6
CONTINUOUS
10
5.70916
20
-3.35482
11
5.70945
21
-3.3547
0
LINE
8
BLACK
6
CONTINUOUS
10
5.70945
20
-3.3547
11
5.70967
21
-3.35446
0
LINE
8
BLACK
6
CONTINUOUS
10
5.70967
20
-3.35446
11
5.71006
21
-3.35444
0
LINE
8
BLACK
6
CONTINUOUS
10
5.71006
20
-3.35444
11
5.71043
21
-3.35429
0
LINE
8
BLACK
6
CONTINUOUS
10
5.71043
20
-3.35429
11
5.71072
21
-3.35441
0
LINE
8
BLACK
6
CONTINUOUS
10
5.71072
20
-3.35441
11
5.71104
21
-3.3544
0
LINE
8
BLACK
6
CONTINUOUS
10
5.71104
20
-3.3544
11
5.71134
21
-3.35467
0
LINE
8
BLACK
6
CONTINUOUS
10
5.71134
20
-3.35467
11
5.7117
21
-3.35482
0
LINE
8
BLACK
6
CONTINUOUS
10
5.7117
20
-3.35482
11
5.71182
21
-3.35511
0
LINE
8
BLACK
6
CONTINUOUS
10
5.71182
20
-3.35511
11
5.71206
21
-3.35533
0
LINE
8
BLACK
6
CONTINUOUS
10
5.71206
20
-3.35533
11
5.7259
21
-3.38498
0
LINE
8
BLACK
6
CONTINUOUS
10
5.7259
20
-3.38498
11
5.73973
21
-3.35533
0
LINE
8
BLACK
6
CONTINUOUS
10
5.73973
20
-3.35533
11
5.73997
21
-3.35511
0
LINE
8
BLACK
6
CONTINUOUS
10
5.73997
20
-3.35511
11
5.74009
21
-3.35482
0
LINE
8
BLACK
6
CONTINUOUS
10
5.74009
20
-3.35482
11
5.74045
21
-3.35467
0
LINE
8
BLACK
6
CONTINUOUS
10
5.74045
20
-3.35467
11
5.74075
21
-3.3544
0
LINE
8
BLACK
6
CONTINUOUS
10
5.74075
20
-3.3544
11
5.74107
21
-3.35441
0
LINE
8
BLACK
6
CONTINUOUS
10
5.74107
20
-3.35441
11
5.74136
21
-3.35429
0
LINE
8
BLACK
6
CONTINUOUS
10
5.74136
20
-3.35429
11
5.74173
21
-3.35444
0
LINE
8
BLACK
6
CONTINUOUS
10
5.81687
20
-3.35445
11
5.81729
21
-3.35448
0
LINE
8
BLACK
6
CONTINUOUS
10
5.81729
20
-3.35448
11
5.82171
21
-3.35669
0
LINE
8
BLACK
6
CONTINUOUS
10
5.82171
20
-3.35669
11
5.8219
21
-3.35691
0
LINE
8
BLACK
6
CONTINUOUS
10
5.8219
20
-3.35691
11
5.82218
21
-3.35703
0
LINE
8
BLACK
6
CONTINUOUS
10
5.82218
20
-3.35703
11
5.82439
21
-3.35924
0
LINE
8
BLACK
6
CONTINUOUS
10
5.82439
20
-3.35924
11
5.8245
21
-3.35951
0
LINE
8
BLACK
6
CONTINUOUS
10
5.8245
20
-3.35951
11
5.82472
21
-3.3597
0
LINE
8
BLACK
6
CONTINUOUS
10
5.82472
20
-3.3597
11
5.82693
21
-3.36412
0
LINE
8
BLACK
6
CONTINUOUS
10
5.82693
20
-3.36412
11
5.82695
21
-3.36433
0
LINE
8
BLACK
6
CONTINUOUS
10
5.82695
20
-3.36433
11
5.82707
21
-3.36449
0
LINE
8
BLACK
6
CONTINUOUS
10
5.82707
20
-3.36449
11
5.82928
21
-3.37333
0
LINE
8
BLACK
6
CONTINUOUS
10
5.82928
20
-3.37333
11
5.82925
21
-3.37356
0
LINE
8
BLACK
6
CONTINUOUS
10
5.82925
20
-3.37356
11
5.82933
21
-3.37377
0
LINE
8
BLACK
6
CONTINUOUS
10
5.82933
20
-3.37377
11
5.82933
21
-3.38481
0
LINE
8
BLACK
6
CONTINUOUS
10
5.82933
20
-3.38481
11
5.82925
21
-3.38503
0
LINE
8
BLACK
6
CONTINUOUS
10
5.82925
20
-3.38503
11
5.82928
21
-3.38525
0
LINE
8
BLACK
6
CONTINUOUS
10
5.82928
20
-3.38525
11
5.82707
21
-3.39409
0
LINE
8
BLACK
6
CONTINUOUS
10
5.82707
20
-3.39409
11
5.82695
21
-3.39425
0
LINE
8
BLACK
6
CONTINUOUS
10
5.82695
20
-3.39425
11
5.82693
21
-3.39446
0
LINE
8
BLACK
6
CONTINUOUS
10
5.82693
20
-3.39446
11
5.82472
21
-3.39888
0
LINE
8
BLACK
6
CONTINUOUS
10
5.82472
20
-3.39888
11
5.8245
21
-3.39907
0
LINE
8
BLACK
6
CONTINUOUS
10
5.8245
20
-3.39907
11
5.82439
21
-3.39934
0
LINE
8
BLACK
6
CONTINUOUS
10
5.82439
20
-3.39934
11
5.82218
21
-3.40155
0
LINE
8
BLACK
6
CONTINUOUS
10
5.82218
20
-3.40155
11
5.8219
21
-3.40167
0
LINE
8
BLACK
6
CONTINUOUS
10
5.8219
20
-3.40167
11
5.82171
21
-3.40189
0
LINE
8
BLACK
6
CONTINUOUS
10
5.82171
20
-3.40189
11
5.81729
21
-3.4041
0
LINE
8
BLACK
6
CONTINUOUS
10
5.81729
20
-3.4041
11
5.81687
21
-3.40413
0
LINE
8
BLACK
6
CONTINUOUS
10
5.81687
20
-3.40413
11
5.81649
21
-3.40429
0
LINE
8
BLACK
6
CONTINUOUS
10
5.81649
20
-3.40429
11
5.81207
21
-3.40429
0
LINE
8
BLACK
6
CONTINUOUS
10
5.81207
20
-3.40429
11
5.81168
21
-3.40413
0
LINE
8
BLACK
6
CONTINUOUS
10
5.81168
20
-3.40413
11
5.81126
21
-3.4041
0
LINE
8
BLACK
6
CONTINUOUS
10
5.81126
20
-3.4041
11
5.80684
21
-3.40189
0
LINE
8
BLACK
6
CONTINUOUS
10
5.80684
20
-3.40189
11
5.80665
21
-3.40167
0
LINE
8
BLACK
6
CONTINUOUS
10
5.80665
20
-3.40167
11
5.80637
21
-3.40155
0
LINE
8
BLACK
6
CONTINUOUS
10
5.80637
20
-3.40155
11
5.80417
21
-3.39934
0
LINE
8
BLACK
6
CONTINUOUS
10
5.80417
20
-3.39934
11
5.80405
21
-3.39907
0
LINE
8
BLACK
6
CONTINUOUS
10
5.80405
20
-3.39907
11
5.80383
21
-3.39888
0
LINE
8
BLACK
6
CONTINUOUS
10
5.80383
20
-3.39888
11
5.80162
21
-3.39446
0
LINE
8
BLACK
6
CONTINUOUS
10
5.80162
20
-3.39446
11
5.8016
21
-3.39425
0
LINE
8
BLACK
6
CONTINUOUS
10
5.8016
20
-3.39425
11
5.80148
21
-3.39409
0
LINE
8
BLACK
6
CONTINUOUS
10
5.80148
20
-3.39409
11
5.79927
21
-3.38525
0
LINE
8
BLACK
6
CONTINUOUS
10
5.79927
20
-3.38525
11
5.79931
21
-3.38503
0
LINE
8
BLACK
6
CONTINUOUS
10
5.79931
20
-3.38503
11
5.79922
21
-3.38481
0
LINE
8
BLACK
6
CONTINUOUS
10
5.79922
20
-3.38481
11
5.79922
21
-3.37377
0
LINE
8
BLACK
6
CONTINUOUS
10
5.79922
20
-3.37377
11
5.79931
21
-3.37356
0
LINE
8
BLACK
6
CONTINUOUS
10
5.79931
20
-3.37356
11
5.79927
21
-3.37333
0
LINE
8
BLACK
6
CONTINUOUS
10
5.79927
20
-3.37333
11
5.80148
21
-3.36449
0
LINE
8
BLACK
6
CONTINUOUS
10
5.80148
20
-3.36449
11
5.8016
21
-3.36433
0
LINE
8
BLACK
6
CONTINUOUS
10
5.8016
20
-3.36433
11
5.80162
21
-3.36412
0
LINE
8
BLACK
6
CONTINUOUS
10
5.80162
20
-3.36412
11
5.80383
21
-3.3597
0
LINE
8
BLACK
6
CONTINUOUS
10
5.80383
20
-3.3597
11
5.80405
21
-3.35951
0
LINE
8
BLACK
6
CONTINUOUS
10
5.80405
20
-3.35951
11
5.80417
21
-3.35924
0
LINE
8
BLACK
6
CONTINUOUS
10
5.80417
20
-3.35924
11
5.80637
21
-3.35703
0
LINE
8
BLACK
6
CONTINUOUS
10
5.80637
20
-3.35703
11
5.80665
21
-3.35691
0
LINE
8
BLACK
6
CONTINUOUS
10
5.80665
20
-3.35691
11
5.80684
21
-3.35669
0
LINE
8
BLACK
6
CONTINUOUS
10
5.80684
20
-3.35669
11
5.81126
21
-3.35448
0
LINE
8
BLACK
6
CONTINUOUS
10
5.81126
20
-3.35448
11
5.81168
21
-3.35445
0
LINE
8
BLACK
6
CONTINUOUS
10
5.81168
20
-3.35445
11
5.81207
21
-3.35429
0
LINE
8
BLACK
6
CONTINUOUS
10
5.81207
20
-3.35429
11
5.81649
21
-3.35429
0
LINE
8
BLACK
6
CONTINUOUS
10
5.81649
20
-3.35429
11
5.81687
21
-3.35445
0
LINE
8
BLACK
6
CONTINUOUS
10
5.81249
20
-3.35789
11
5.80871
21
-3.35978
0
LINE
8
BLACK
6
CONTINUOUS
10
5.80871
20
-3.35978
11
5.80692
21
-3.36158
0
LINE
8
BLACK
6
CONTINUOUS
10
5.80692
20
-3.36158
11
5.80493
21
-3.36556
0
LINE
8
BLACK
6
CONTINUOUS
10
5.80493
20
-3.36556
11
5.80282
21
-3.37399
0
LINE
8
BLACK
6
CONTINUOUS
10
5.80282
20
-3.37399
11
5.80282
21
-3.38459
0
LINE
8
BLACK
6
CONTINUOUS
10
5.80282
20
-3.38459
11
5.80493
21
-3.39302
0
LINE
8
BLACK
6
CONTINUOUS
10
5.80493
20
-3.39302
11
5.80692
21
-3.39701
0
LINE
8
BLACK
6
CONTINUOUS
10
5.80692
20
-3.39701
11
5.80871
21
-3.3988
0
LINE
8
BLACK
6
CONTINUOUS
10
5.80871
20
-3.3988
11
5.81249
21
-3.40069
0
LINE
8
BLACK
6
CONTINUOUS
10
5.81249
20
-3.40069
11
5.81606
21
-3.40069
0
LINE
8
BLACK
6
CONTINUOUS
10
5.81606
20
-3.40069
11
5.81984
21
-3.3988
0
LINE
8
BLACK
6
CONTINUOUS
10
5.81984
20
-3.3988
11
5.82163
21
-3.39701
0
LINE
8
BLACK
6
CONTINUOUS
10
5.82163
20
-3.39701
11
5.82363
21
-3.39302
0
LINE
8
BLACK
6
CONTINUOUS
10
5.82363
20
-3.39302
11
5.82573
21
-3.38459
0
LINE
8
BLACK
6
CONTINUOUS
10
5.82573
20
-3.38459
11
5.82573
21
-3.37399
0
LINE
8
BLACK
6
CONTINUOUS
10
5.82573
20
-3.37399
11
5.82363
21
-3.36556
0
LINE
8
BLACK
6
CONTINUOUS
10
5.82363
20
-3.36556
11
5.82163
21
-3.36158
0
LINE
8
BLACK
6
CONTINUOUS
10
5.82163
20
-3.36158
11
5.81984
21
-3.35978
0
LINE
8
BLACK
6
CONTINUOUS
10
5.81984
20
-3.35978
11
5.81606
21
-3.35789
0
LINE
8
BLACK
6
CONTINUOUS
10
5.81606
20
-3.35789
11
5.81249
21
-3.35789
0
LINE
8
BLACK
6
CONTINUOUS
10
5.87231
20
-3.35453
11
5.87291
21
-3.35474
0
LINE
8
BLACK
6
CONTINUOUS
10
5.87291
20
-3.35474
11
5.87294
21
-3.35479
0
LINE
8
BLACK
6
CONTINUOUS
10
5.87294
20
-3.35479
11
5.873
21
-3.35482
0
LINE
8
BLACK
6
CONTINUOUS
10
5.873
20
-3.35482
11
5.87324
21
-3.3554
0
LINE
8
BLACK
6
CONTINUOUS
10
5.87324
20
-3.3554
11
5.87352
21
-3.35597
0
LINE
8
BLACK
6
CONTINUOUS
10
5.87352
20
-3.35597
11
5.8735
21
-3.35603
0
LINE
8
BLACK
6
CONTINUOUS
10
5.8735
20
-3.35603
11
5.87352
21
-3.35609
0
LINE
8
BLACK
6
CONTINUOUS
10
5.87352
20
-3.35609
11
5.87328
21
-3.35668
0
LINE
8
BLACK
6
CONTINUOUS
10
5.87328
20
-3.35668
11
5.87308
21
-3.35728
0
LINE
8
BLACK
6
CONTINUOUS
10
5.87308
20
-3.35728
11
5.86022
21
-3.37197
0
LINE
8
BLACK
6
CONTINUOUS
10
5.86022
20
-3.37197
11
5.86289
21
-3.37197
0
LINE
8
BLACK
6
CONTINUOUS
10
5.86289
20
-3.37197
11
5.86327
21
-3.37213
0
LINE
8
BLACK
6
CONTINUOUS
10
5.86327
20
-3.37213
11
5.86369
21
-3.37216
0
LINE
8
BLACK
6
CONTINUOUS
10
5.86369
20
-3.37216
11
5.86811
21
-3.37437
0
LINE
8
BLACK
6
CONTINUOUS
10
5.86811
20
-3.37437
11
5.8683
21
-3.37459
0
LINE
8
BLACK
6
CONTINUOUS
10
5.8683
20
-3.37459
11
5.86858
21
-3.3747
0
LINE
8
BLACK
6
CONTINUOUS
10
5.86858
20
-3.3747
11
5.87079
21
-3.37691
0
LINE
8
BLACK
6
CONTINUOUS
10
5.87079
20
-3.37691
11
5.8709
21
-3.37719
0
LINE
8
BLACK
6
CONTINUOUS
10
5.8709
20
-3.37719
11
5.87112
21
-3.37738
0
LINE
8
BLACK
6
CONTINUOUS
10
5.87112
20
-3.37738
11
5.87333
21
-3.3818
0
LINE
8
BLACK
6
CONTINUOUS
10
5.87333
20
-3.3818
11
5.87336
21
-3.38222
0
LINE
8
BLACK
6
CONTINUOUS
10
5.87336
20
-3.38222
11
5.87352
21
-3.3826
0
LINE
8
BLACK
6
CONTINUOUS
10
5.87352
20
-3.3826
11
5.87352
21
-3.39365
0
LINE
8
BLACK
6
CONTINUOUS
10
5.87352
20
-3.39365
11
5.87336
21
-3.39404
0
LINE
8
BLACK
6
CONTINUOUS
10
5.87336
20
-3.39404
11
5.87333
21
-3.39446
0
LINE
8
BLACK
6
CONTINUOUS
10
5.87333
20
-3.39446
11
5.87112
21
-3.39888
0
LINE
8
BLACK
6
CONTINUOUS
10
5.87112
20
-3.39888
11
5.8709
21
-3.39907
0
LINE
8
BLACK
6
CONTINUOUS
10
5.8709
20
-3.39907
11
5.87079
21
-3.39934
0
LINE
8
BLACK
6
CONTINUOUS
10
5.87079
20
-3.39934
11
5.86858
21
-3.40155
0
LINE
8
BLACK
6
CONTINUOUS
10
5.86858
20
-3.40155
11
5.8683
21
-3.40167
0
LINE
8
BLACK
6
CONTINUOUS
10
5.8683
20
-3.40167
11
5.86811
21
-3.40189
0
LINE
8
BLACK
6
CONTINUOUS
10
5.86811
20
-3.40189
11
5.86369
21
-3.4041
0
LINE
8
BLACK
6
CONTINUOUS
10
5.86369
20
-3.4041
11
5.86327
21
-3.40413
0
LINE
8
BLACK
6
CONTINUOUS
10
5.86327
20
-3.40413
11
5.86289
21
-3.40429
0
LINE
8
BLACK
6
CONTINUOUS
10
5.86289
20
-3.40429
11
5.84963
21
-3.40429
0
LINE
8
BLACK
6
CONTINUOUS
10
5.84963
20
-3.40429
11
5.84924
21
-3.40413
0
LINE
8
BLACK
6
CONTINUOUS
10
5.84924
20
-3.40413
11
5.84882
21
-3.4041
0
LINE
8
BLACK
6
CONTINUOUS
10
5.84882
20
-3.4041
11
5.8444
21
-3.40189
0
LINE
8
BLACK
6
CONTINUOUS
10
5.8444
20
-3.40189
11
5.84421
21
-3.40167
0
LINE
8
BLACK
6
CONTINUOUS
10
5.84421
20
-3.40167
11
5.84394
21
-3.40155
0
LINE
8
BLACK
6
CONTINUOUS
10
5.84394
20
-3.40155
11
5.84173
21
-3.39934
0
LINE
8
BLACK
6
CONTINUOUS
10
5.84173
20
-3.39934
11
5.8412
21
-3.39807
0
LINE
8
BLACK
6
CONTINUOUS
10
5.8412
20
-3.39807
11
5.84173
21
-3.3968
0
LINE
8
BLACK
6
CONTINUOUS
10
5.84173
20
-3.3968
11
5.843
21
-3.39627
0
LINE
8
BLACK
6
CONTINUOUS
10
5.843
20
-3.39627
11
5.84427
21
-3.3968
0
LINE
8
BLACK
6
CONTINUOUS
10
5.84427
20
-3.3968
11
5.84628
21
-3.3988
0
LINE
8
BLACK
6
CONTINUOUS
10
5.84628
20
-3.3988
11
5.85005
21
-3.40069
0
LINE
8
BLACK
6
CONTINUOUS
10
5.85005
20
-3.40069
11
5.86246
21
-3.40069
0
LINE
8
BLACK
6
CONTINUOUS
10
5.86246
20
-3.40069
11
5.86624
21
-3.3988
0
LINE
8
BLACK
6
CONTINUOUS
10
5.86624
20
-3.3988
11
5.86803
21
-3.39701
0
LINE
8
BLACK
6
CONTINUOUS
10
5.86803
20
-3.39701
11
5.86992
21
-3.39323
0
LINE
8
BLACK
6
CONTINUOUS
10
5.86992
20
-3.39323
11
5.86992
21
-3.38303
0
LINE
8
BLACK
6
CONTINUOUS
10
5.86992
20
-3.38303
11
5.86803
21
-3.37925
0
LINE
8
BLACK
6
CONTINUOUS
10
5.86803
20
-3.37925
11
5.86624
21
-3.37746
0
LINE
8
BLACK
6
CONTINUOUS
10
5.86624
20
-3.37746
11
5.86246
21
-3.37557
0
LINE
8
BLACK
6
CONTINUOUS
10
5.86246
20
-3.37557
11
5.85626
21
-3.37557
0
LINE
8
BLACK
6
CONTINUOUS
10
5.85626
20
-3.37557
11
5.85567
21
-3.37532
0
LINE
8
BLACK
6
CONTINUOUS
10
5.85567
20
-3.37532
11
5.85507
21
-3.37512
0
LINE
8
BLACK
6
CONTINUOUS
10
5.85507
20
-3.37512
11
5.85504
21
-3.37506
0
LINE
8
BLACK
6
CONTINUOUS
10
5.85504
20
-3.37506
11
5.85498
21
-3.37504
0
LINE
8
BLACK
6
CONTINUOUS
10
5.85498
20
-3.37504
11
5.85474
21
-3.37445
0
LINE
8
BLACK
6
CONTINUOUS
10
5.85474
20
-3.37445
11
5.85446
21
-3.37389
0
LINE
8
BLACK
6
CONTINUOUS
10
5.85446
20
-3.37389
11
5.85448
21
-3.37383
0
LINE
8
BLACK
6
CONTINUOUS
10
5.85448
20
-3.37383
11
5.85446
21
-3.37377
0
LINE
8
BLACK
6
CONTINUOUS
10
5.85446
20
-3.37377
11
5.8547
21
-3.37318
0
LINE
8
BLACK
6
CONTINUOUS
10
5.8547
20
-3.37318
11
5.8549
21
-3.37258
0
LINE
8
BLACK
6
CONTINUOUS
10
5.8549
20
-3.37258
11
5.86776
21
-3.35789
0
LINE
8
BLACK
6
CONTINUOUS
10
5.86776
20
-3.35789
11
5.843
21
-3.35789
0
LINE
8
BLACK
6
CONTINUOUS
10
5.843
20
-3.35789
11
5.84173
21
-3.35736
0
LINE
8
BLACK
6
CONTINUOUS
10
5.84173
20
-3.35736
11
5.8412
21
-3.35609
0
LINE
8
BLACK
6
CONTINUOUS
10
5.8412
20
-3.35609
11
5.84173
21
-3.35482
0
LINE
8
BLACK
6
CONTINUOUS
10
5.84173
20
-3.35482
11
5.843
21
-3.35429
0
LINE
8
BLACK
6
CONTINUOUS
10
5.843
20
-3.35429
11
5.87172
21
-3.35429
0
LINE
8
BLACK
6
CONTINUOUS
10
5.87172
20
-3.35429
11
5.87231
21
-3.35453
0
LINE
8
BLACK
6
CONTINUOUS
10
5.77297
20
-3.35447
11
5.7731
21
-3.35448
0
LINE
8
BLACK
6
CONTINUOUS
10
5.7731
20
-3.35448
11
5.77347
21
-3.35491
0
LINE
8
BLACK
6
CONTINUOUS
10
5.77347
20
-3.35491
11
5.77391
21
-3.35529
0
LINE
8
BLACK
6
CONTINUOUS
10
5.77391
20
-3.35529
11
5.77391
21
-3.35542
0
LINE
8
BLACK
6
CONTINUOUS
10
5.77391
20
-3.35542
11
5.774
21
-3.35552
0
LINE
8
BLACK
6
CONTINUOUS
10
5.774
20
-3.35552
11
5.78947
21
-3.40192
0
LINE
8
BLACK
6
CONTINUOUS
10
5.78947
20
-3.40192
11
5.78937
21
-3.4033
0
LINE
8
BLACK
6
CONTINUOUS
10
5.78937
20
-3.4033
11
5.78833
21
-3.4042
0
LINE
8
BLACK
6
CONTINUOUS
10
5.78833
20
-3.4042
11
5.78696
21
-3.4041
0
LINE
8
BLACK
6
CONTINUOUS
10
5.78696
20
-3.4041
11
5.78605
21
-3.40306
0
LINE
8
BLACK
6
CONTINUOUS
10
5.78605
20
-3.40306
11
5.78205
21
-3.39103
0
LINE
8
BLACK
6
CONTINUOUS
10
5.78205
20
-3.39103
11
5.76255
21
-3.39103
0
LINE
8
BLACK
6
CONTINUOUS
10
5.76255
20
-3.39103
11
5.75854
21
-3.40306
0
LINE
8
BLACK
6
CONTINUOUS
10
5.75854
20
-3.40306
11
5.75763
21
-3.4041
0
LINE
8
BLACK
6
CONTINUOUS
10
5.75763
20
-3.4041
11
5.75626
21
-3.4042
0
LINE
8
BLACK
6
CONTINUOUS
10
5.75626
20
-3.4042
11
5.75522
21
-3.4033
0
LINE
8
BLACK
6
CONTINUOUS
10
5.75522
20
-3.4033
11
5.75512
21
-3.40192
0
LINE
8
BLACK
6
CONTINUOUS
10
5.75512
20
-3.40192
11
5.77059
21
-3.35552
0
LINE
8
BLACK
6
CONTINUOUS
10
5.77059
20
-3.35552
11
5.77068
21
-3.35542
0
LINE
8
BLACK
6
CONTINUOUS
10
5.77068
20
-3.35542
11
5.77069
21
-3.35529
0
LINE
8
BLACK
6
CONTINUOUS
10
5.77069
20
-3.35529
11
5.77112
21
-3.35491
0
LINE
8
BLACK
6
CONTINUOUS
10
5.77112
20
-3.35491
11
5.77149
21
-3.35448
0
LINE
8
BLACK
6
CONTINUOUS
10
5.77149
20
-3.35448
11
5.77162
21
-3.35447
0
LINE
8
BLACK
6
CONTINUOUS
10
5.77162
20
-3.35447
11
5.77173
21
-3.35438
0
LINE
8
BLACK
6
CONTINUOUS
10
5.77173
20
-3.35438
11
5.7723
21
-3.35442
0
LINE
8
BLACK
6
CONTINUOUS
10
5.7723
20
-3.35442
11
5.77286
21
-3.35438
0
LINE
8
BLACK
6
CONTINUOUS
10
5.77286
20
-3.35438
11
5.77297
21
-3.35447
0
LINE
8
BLACK
6
CONTINUOUS
10
5.76375
20
-3.38743
11
5.78085
21
-3.38743
0
LINE
8
BLACK
6
CONTINUOUS
10
5.78085
20
-3.38743
11
5.7723
21
-3.36178
0
LINE
8
BLACK
6
CONTINUOUS
10
5.7723
20
-3.36178
11
5.76375
21
-3.38743
0
LINE
8
BLACK
6
CONTINUOUS
10
5.92823
20
-3.38354
11
5.92876
21
-3.38481
0
LINE
8
BLACK
6
CONTINUOUS
10
5.92876
20
-3.38481
11
5.92823
21
-3.38609
0
LINE
8
BLACK
6
CONTINUOUS
10
5.92823
20
-3.38609
11
5.92696
21
-3.38661
0
LINE
8
BLACK
6
CONTINUOUS
10
5.92696
20
-3.38661
11
5.89161
21
-3.38661
0
LINE
8
BLACK
6
CONTINUOUS
10
5.89161
20
-3.38661
11
5.89034
21
-3.38609
0
LINE
8
BLACK
6
CONTINUOUS
10
5.89034
20
-3.38609
11
5.88981
21
-3.38481
0
LINE
8
BLACK
6
CONTINUOUS
10
5.88981
20
-3.38481
11
5.89034
21
-3.38354
0
LINE
8
BLACK
6
CONTINUOUS
10
5.89034
20
-3.38354
11
5.89161
21
-3.38301
0
LINE
8
BLACK
6
CONTINUOUS
10
5.89161
20
-3.38301
11
5.92696
21
-3.38301
0
LINE
8
BLACK
6
CONTINUOUS
10
5.92696
20
-3.38301
11
5.92823
21
-3.38354
0
LINE
8
BLACK
6
CONTINUOUS
10
6.12442
20
-4.70447
11
6.12847
21
-4.69104
0
LINE
8
BLACK
6
CONTINUOUS
10
6.12847
20
-4.69104
11
6.134
21
-4.67815
0
LINE
8
BLACK
6
CONTINUOUS
10
6.134
20
-4.67815
11
6.14092
21
-4.66596
0
LINE
8
BLACK
6
CONTINUOUS
10
6.14092
20
-4.66596
11
6.14917
21
-4.65462
0
LINE
8
BLACK
6
CONTINUOUS
10
6.14917
20
-4.65462
11
6.15862
21
-4.64426
0
LINE
8
BLACK
6
CONTINUOUS
10
6.15862
20
-4.64426
11
6.16917
21
-4.63503
0
LINE
8
BLACK
6
CONTINUOUS
10
6.16917
20
-4.63503
11
6.18069
21
-4.62702
0
LINE
8
BLACK
6
CONTINUOUS
10
6.18069
20
-4.62702
11
6.19302
21
-4.62035
0
LINE
8
BLACK
6
CONTINUOUS
10
6.19302
20
-4.62035
11
6.20602
21
-4.6151
0
LINE
8
BLACK
6
CONTINUOUS
10
6.20602
20
-4.6151
11
6.21953
21
-4.61133
0
LINE
8
BLACK
6
CONTINUOUS
10
6.21953
20
-4.61133
11
6.23337
21
-4.60909
0
LINE
8
BLACK
6
CONTINUOUS
10
6.23337
20
-4.60909
11
6.24738
21
-4.6084
0
LINE
8
BLACK
6
CONTINUOUS
10
6.24738
20
-4.6084
11
6.26137
21
-4.60928
0
LINE
8
BLACK
6
CONTINUOUS
10
6.26137
20
-4.60928
11
6.27518
21
-4.61172
0
LINE
8
BLACK
6
CONTINUOUS
10
6.27518
20
-4.61172
11
6.28863
21
-4.61568
0
LINE
8
BLACK
6
CONTINUOUS
10
6.28863
20
-4.61568
11
6.30156
21
-4.62111
0
LINE
8
BLACK
6
CONTINUOUS
10
6.30156
20
-4.62111
11
6.3138
21
-4.62795
0
LINE
8
BLACK
6
CONTINUOUS
10
6.3138
20
-4.62795
11
6.3252
21
-4.63612
0
LINE
8
BLACK
6
CONTINUOUS
10
6.3252
20
-4.63612
11
6.33562
21
-4.6455
0
LINE
8
BLACK
6
CONTINUOUS
10
6.33562
20
-4.6455
11
6.34493
21
-4.65598
0
LINE
8
BLACK
6
CONTINUOUS
10
6.34493
20
-4.65598
11
6.35301
21
-4.66744
0
LINE
8
BLACK
6
CONTINUOUS
10
6.35301
20
-4.66744
11
6.35977
21
-4.67973
0
LINE
8
BLACK
6
CONTINUOUS
10
6.35977
20
-4.67973
11
6.36511
21
-4.69269
0
LINE
8
BLACK
6
CONTINUOUS
10
6.36511
20
-4.69269
11
6.36898
21
-4.70617
0
LINE
8
BLACK
6
CONTINUOUS
10
6.36898
20
-4.70617
11
6.37132
21
-4.72
0
LINE
8
BLACK
6
CONTINUOUS
10
6.37132
20
-4.72
11
6.3721
21
-4.734
0
LINE
8
BLACK
6
CONTINUOUS
10
6.3721
20
-4.734
11
6.37205
21
-4.73751
0
LINE
8
BLACK
6
CONTINUOUS
10
6.37205
20
-4.73751
11
6.37088
21
-4.75148
0
LINE
8
BLACK
6
CONTINUOUS
10
6.37088
20
-4.75148
11
6.36815
21
-4.76524
0
LINE
8
BLACK
6
CONTINUOUS
10
6.36815
20
-4.76524
11
6.36391
21
-4.7786
0
LINE
8
BLACK
6
CONTINUOUS
10
6.36391
20
-4.7786
11
6.35821
21
-4.79141
0
LINE
8
BLACK
6
CONTINUOUS
10
6.35821
20
-4.79141
11
6.35111
21
-4.80351
0
LINE
8
BLACK
6
CONTINUOUS
10
6.35111
20
-4.80351
11
6.34272
21
-4.81473
0
LINE
8
BLACK
6
CONTINUOUS
10
6.34272
20
-4.81473
11
6.33312
21
-4.82496
0
LINE
8
BLACK
6
CONTINUOUS
10
6.33312
20
-4.82496
11
6.32244
21
-4.83404
0
LINE
8
BLACK
6
CONTINUOUS
10
6.32244
20
-4.83404
11
6.31081
21
-4.84189
0
LINE
8
BLACK
6
CONTINUOUS
10
6.31081
20
-4.84189
11
6.29839
21
-4.84838
0
LINE
8
BLACK
6
CONTINUOUS
10
6.29839
20
-4.84838
11
6.28531
21
-4.85345
0
LINE
8
BLACK
6
CONTINUOUS
10
6.28531
20
-4.85345
11
6.27176
21
-4.85703
0
LINE
8
BLACK
6
CONTINUOUS
10
6.27176
20
-4.85703
11
6.25788
21
-4.85908
0
LINE
8
BLACK
6
CONTINUOUS
10
6.25788
20
-4.85908
11
6.24387
21
-4.85957
0
LINE
8
BLACK
6
CONTINUOUS
10
6.24387
20
-4.85957
11
6.22989
21
-4.8585
0
LINE
8
BLACK
6
CONTINUOUS
10
6.22989
20
-4.8585
11
6.21611
21
-4.85587
0
LINE
8
BLACK
6
CONTINUOUS
10
6.21611
20
-4.85587
11
6.20272
21
-4.85172
0
LINE
8
BLACK
6
CONTINUOUS
10
6.20272
20
-4.85172
11
6.18987
21
-4.84611
0
LINE
8
BLACK
6
CONTINUOUS
10
6.18987
20
-4.84611
11
6.17773
21
-4.8391
0
LINE
8
BLACK
6
CONTINUOUS
10
6.17773
20
-4.8391
11
6.16644
21
-4.83078
0
LINE
8
BLACK
6
CONTINUOUS
10
6.16644
20
-4.83078
11
6.15615
21
-4.82125
0
LINE
8
BLACK
6
CONTINUOUS
10
6.15615
20
-4.82125
11
6.14699
21
-4.81063
0
LINE
8
BLACK
6
CONTINUOUS
10
6.14699
20
-4.81063
11
6.13907
21
-4.79906
0
LINE
8
BLACK
6
CONTINUOUS
10
6.13907
20
-4.79906
11
6.13248
21
-4.78668
0
LINE
8
BLACK
6
CONTINUOUS
10
6.13248
20
-4.78668
11
6.12732
21
-4.77365
0
LINE
8
BLACK
6
CONTINUOUS
10
6.12732
20
-4.77365
11
6.12364
21
-4.76011
0
LINE
8
BLACK
6
CONTINUOUS
10
6.12364
20
-4.76011
11
6.1215
21
-4.74626
0
LINE
8
BLACK
6
CONTINUOUS
10
6.1215
20
-4.74626
11
6.12091
21
-4.73225
0
LINE
8
BLACK
6
CONTINUOUS
10
6.12091
20
-4.73225
11
6.12103
21
-4.73052
0
LINE
8
BLACK
6
CONTINUOUS
10
6.12103
20
-4.73052
11
6.12189
21
-4.71826
0
LINE
8
BLACK
6
CONTINUOUS
10
6.12189
20
-4.71826
11
6.12442
21
-4.70447
0
LINE
8
BLACK
6
CONTINUOUS
10
6.1379
20
-4.7559
11
6.14113
21
-4.76824
0
LINE
8
BLACK
6
CONTINUOUS
10
6.14113
20
-4.76824
11
6.14577
21
-4.78012
0
LINE
8
BLACK
6
CONTINUOUS
10
6.14577
20
-4.78012
11
6.15174
21
-4.79139
0
LINE
8
BLACK
6
CONTINUOUS
10
6.15174
20
-4.79139
11
6.15896
21
-4.8019
0
LINE
8
BLACK
6
CONTINUOUS
10
6.15896
20
-4.8019
11
6.16735
21
-4.81151
0
LINE
8
BLACK
6
CONTINUOUS
10
6.16735
20
-4.81151
11
6.17678
21
-4.8201
0
LINE
8
BLACK
6
CONTINUOUS
10
6.17678
20
-4.8201
11
6.18714
21
-4.82754
0
LINE
8
BLACK
6
CONTINUOUS
10
6.18714
20
-4.82754
11
6.19828
21
-4.83374
0
LINE
8
BLACK
6
CONTINUOUS
10
6.19828
20
-4.83374
11
6.21007
21
-4.83863
0
LINE
8
BLACK
6
CONTINUOUS
10
6.21007
20
-4.83863
11
6.22233
21
-4.84212
0
LINE
8
BLACK
6
CONTINUOUS
10
6.22233
20
-4.84212
11
6.23492
21
-4.84418
0
LINE
8
BLACK
6
CONTINUOUS
10
6.23492
20
-4.84418
11
6.24766
21
-4.84478
0
LINE
8
BLACK
6
CONTINUOUS
10
6.24766
20
-4.84478
11
6.26039
21
-4.84391
0
LINE
8
BLACK
6
CONTINUOUS
10
6.26039
20
-4.84391
11
6.27293
21
-4.84159
0
LINE
8
BLACK
6
CONTINUOUS
10
6.27293
20
-4.84159
11
6.28512
21
-4.83784
0
LINE
8
BLACK
6
CONTINUOUS
10
6.28512
20
-4.83784
11
6.2968
21
-4.83271
0
LINE
8
BLACK
6
CONTINUOUS
10
6.2968
20
-4.83271
11
6.30781
21
-4.82628
0
LINE
8
BLACK
6
CONTINUOUS
10
6.30781
20
-4.82628
11
6.31801
21
-4.81862
0
LINE
8
BLACK
6
CONTINUOUS
10
6.31801
20
-4.81862
11
6.32726
21
-4.80984
0
LINE
8
BLACK
6
CONTINUOUS
10
6.32726
20
-4.80984
11
6.33544
21
-4.80005
0
LINE
8
BLACK
6
CONTINUOUS
10
6.33544
20
-4.80005
11
6.34244
21
-4.78939
0
LINE
8
BLACK
6
CONTINUOUS
10
6.34244
20
-4.78939
11
6.34818
21
-4.778
0
LINE
8
BLACK
6
CONTINUOUS
10
6.34818
20
-4.778
11
6.35256
21
-4.76602
0
LINE
8
BLACK
6
CONTINUOUS
10
6.35256
20
-4.76602
11
6.35554
21
-4.75362
0
LINE
8
BLACK
6
CONTINUOUS
10
6.35554
20
-4.75362
11
6.35707
21
-4.74096
0
LINE
8
BLACK
6
CONTINUOUS
10
6.35707
20
-4.74096
11
6.35729
21
-4.734
0
LINE
8
BLACK
6
CONTINUOUS
10
6.35729
20
-4.734
11
6.35655
21
-4.72127
0
LINE
8
BLACK
6
CONTINUOUS
10
6.35655
20
-4.72127
11
6.35436
21
-4.7087
0
LINE
8
BLACK
6
CONTINUOUS
10
6.35436
20
-4.7087
11
6.35074
21
-4.69647
0
LINE
8
BLACK
6
CONTINUOUS
10
6.35074
20
-4.69647
11
6.34573
21
-4.68474
0
LINE
8
BLACK
6
CONTINUOUS
10
6.34573
20
-4.68474
11
6.33941
21
-4.67366
0
LINE
8
BLACK
6
CONTINUOUS
10
6.33941
20
-4.67366
11
6.33186
21
-4.66338
0
LINE
8
BLACK
6
CONTINUOUS
10
6.33186
20
-4.66338
11
6.32318
21
-4.65404
0
LINE
8
BLACK
6
CONTINUOUS
10
6.32318
20
-4.65404
11
6.31348
21
-4.64575
0
LINE
8
BLACK
6
CONTINUOUS
10
6.31348
20
-4.64575
11
6.3029
21
-4.63864
0
LINE
8
BLACK
6
CONTINUOUS
10
6.3029
20
-4.63864
11
6.29156
21
-4.63279
0
LINE
8
BLACK
6
CONTINUOUS
10
6.29156
20
-4.63279
11
6.27963
21
-4.62828
0
LINE
8
BLACK
6
CONTINUOUS
10
6.27963
20
-4.62828
11
6.26726
21
-4.62517
0
LINE
8
BLACK
6
CONTINUOUS
10
6.26726
20
-4.62517
11
6.25461
21
-4.62351
0
LINE
8
BLACK
6
CONTINUOUS
10
6.25461
20
-4.62351
11
6.24186
21
-4.62331
0
LINE
8
BLACK
6
CONTINUOUS
10
6.24186
20
-4.62331
11
6.22917
21
-4.62458
0
LINE
8
BLACK
6
CONTINUOUS
10
6.22917
20
-4.62458
11
6.21671
21
-4.62729
0
LINE
8
BLACK
6
CONTINUOUS
10
6.21671
20
-4.62729
11
6.20464
21
-4.63143
0
LINE
8
BLACK
6
CONTINUOUS
10
6.20464
20
-4.63143
11
6.19313
21
-4.63692
0
LINE
8
BLACK
6
CONTINUOUS
10
6.19313
20
-4.63692
11
6.18232
21
-4.64369
0
LINE
8
BLACK
6
CONTINUOUS
10
6.18232
20
-4.64369
11
6.17237
21
-4.65167
0
LINE
8
BLACK
6
CONTINUOUS
10
6.17237
20
-4.65167
11
6.1634
21
-4.66073
0
LINE
8
BLACK
6
CONTINUOUS
10
6.1634
20
-4.66073
11
6.15553
21
-4.67077
0
LINE
8
BLACK
6
CONTINUOUS
10
6.15553
20
-4.67077
11
6.14886
21
-4.68165
0
LINE
8
BLACK
6
CONTINUOUS
10
6.14886
20
-4.68165
11
6.14349
21
-4.69322
0
LINE
8
BLACK
6
CONTINUOUS
10
6.14349
20
-4.69322
11
6.13949
21
-4.70533
0
LINE
8
BLACK
6
CONTINUOUS
10
6.13949
20
-4.70533
11
6.1369
21
-4.71782
0
LINE
8
BLACK
6
CONTINUOUS
10
6.1369
20
-4.71782
11
6.13577
21
-4.73052
0
LINE
8
BLACK
6
CONTINUOUS
10
6.13577
20
-4.73052
11
6.1361
21
-4.74327
0
LINE
8
BLACK
6
CONTINUOUS
10
6.1361
20
-4.74327
11
6.1379
21
-4.7559
0
LINE
8
BLACK
6
CONTINUOUS
10
5.32442
20
-4.70447
11
5.32847
21
-4.69104
0
LINE
8
BLACK
6
CONTINUOUS
10
5.32847
20
-4.69104
11
5.334
21
-4.67815
0
LINE
8
BLACK
6
CONTINUOUS
10
5.334
20
-4.67815
11
5.34092
21
-4.66596
0
LINE
8
BLACK
6
CONTINUOUS
10
5.34092
20
-4.66596
11
5.34917
21
-4.65462
0
LINE
8
BLACK
6
CONTINUOUS
10
5.34917
20
-4.65462
11
5.35862
21
-4.64426
0
LINE
8
BLACK
6
CONTINUOUS
10
5.35862
20
-4.64426
11
5.36917
21
-4.63503
0
LINE
8
BLACK
6
CONTINUOUS
10
5.36917
20
-4.63503
11
5.38069
21
-4.62702
0
LINE
8
BLACK
6
CONTINUOUS
10
5.38069
20
-4.62702
11
5.39302
21
-4.62035
0
LINE
8
BLACK
6
CONTINUOUS
10
5.39302
20
-4.62035
11
5.40602
21
-4.6151
0
LINE
8
BLACK
6
CONTINUOUS
10
5.40602
20
-4.6151
11
5.41953
21
-4.61133
0
LINE
8
BLACK
6
CONTINUOUS
10
5.41953
20
-4.61133
11
5.43337
21
-4.60909
0
LINE
8
BLACK
6
CONTINUOUS
10
5.43337
20
-4.60909
11
5.44738
21
-4.6084
0
LINE
8
BLACK
6
CONTINUOUS
10
5.44738
20
-4.6084
11
5.46137
21
-4.60928
0
LINE
8
BLACK
6
CONTINUOUS
10
5.46137
20
-4.60928
11
5.47518
21
-4.61172
0
LINE
8
BLACK
6
CONTINUOUS
10
5.47518
20
-4.61172
11
5.48863
21
-4.61568
0
LINE
8
BLACK
6
CONTINUOUS
10
5.48863
20
-4.61568
11
5.50156
21
-4.62111
0
LINE
8
BLACK
6
CONTINUOUS
10
5.50156
20
-4.62111
11
5.5138
21
-4.62795
0
LINE
8
BLACK
6
CONTINUOUS
10
5.5138
20
-4.62795
11
5.5252
21
-4.63612
0
LINE
8
BLACK
6
CONTINUOUS
10
5.5252
20
-4.63612
11
5.53562
21
-4.6455
0
LINE
8
BLACK
6
CONTINUOUS
10
5.53562
20
-4.6455
11
5.54493
21
-4.65598
0
LINE
8
BLACK
6
CONTINUOUS
10
5.54493
20
-4.65598
11
5.55301
21
-4.66744
0
LINE
8
BLACK
6
CONTINUOUS
10
5.55301
20
-4.66744
11
5.55977
21
-4.67973
0
LINE
8
BLACK
6
CONTINUOUS
10
5.55977
20
-4.67973
11
5.56511
21
-4.69269
0
LINE
8
BLACK
6
CONTINUOUS
10
5.56511
20
-4.69269
11
5.56898
21
-4.70617
0
LINE
8
BLACK
6
CONTINUOUS
10
5.56898
20
-4.70617
11
5.57132
21
-4.72
0
LINE
8
BLACK
6
CONTINUOUS
10
5.57132
20
-4.72
11
5.5721
21
-4.734
0
LINE
8
BLACK
6
CONTINUOUS
10
5.5721
20
-4.734
11
5.57205
21
-4.73751
0
LINE
8
BLACK
6
CONTINUOUS
10
5.57205
20
-4.73751
11
5.57088
21
-4.75148
0
LINE
8
BLACK
6
CONTINUOUS
10
5.57088
20
-4.75148
11
5.56815
21
-4.76524
0
LINE
8
BLACK
6
CONTINUOUS
10
5.56815
20
-4.76524
11
5.56391
21
-4.7786
0
LINE
8
BLACK
6
CONTINUOUS
10
5.56391
20
-4.7786
11
5.55821
21
-4.79141
0
LINE
8
BLACK
6
CONTINUOUS
10
5.55821
20
-4.79141
11
5.55111
21
-4.80351
0
LINE
8
BLACK
6
CONTINUOUS
10
5.55111
20
-4.80351
11
5.54272
21
-4.81473
0
LINE
8
BLACK
6
CONTINUOUS
10
5.54272
20
-4.81473
11
5.53312
21
-4.82496
0
LINE
8
BLACK
6
CONTINUOUS
10
5.53312
20
-4.82496
11
5.52244
21
-4.83404
0
LINE
8
BLACK
6
CONTINUOUS
10
5.52244
20
-4.83404
11
5.51081
21
-4.84189
0
LINE
8
BLACK
6
CONTINUOUS
10
5.51081
20
-4.84189
11
5.49839
21
-4.84838
0
LINE
8
BLACK
6
CONTINUOUS
10
5.49839
20
-4.84838
11
5.48531
21
-4.85345
0
LINE
8
BLACK
6
CONTINUOUS
10
5.48531
20
-4.85345
11
5.47176
21
-4.85703
0
LINE
8
BLACK
6
CONTINUOUS
10
5.47176
20
-4.85703
11
5.45788
21
-4.85908
0
LINE
8
BLACK
6
CONTINUOUS
10
5.45788
20
-4.85908
11
5.44387
21
-4.85957
0
LINE
8
BLACK
6
CONTINUOUS
10
5.44387
20
-4.85957
11
5.42989
21
-4.8585
0
LINE
8
BLACK
6
CONTINUOUS
10
5.42989
20
-4.8585
11
5.41611
21
-4.85587
0
LINE
8
BLACK
6
CONTINUOUS
10
5.41611
20
-4.85587
11
5.40272
21
-4.85172
0
LINE
8
BLACK
6
CONTINUOUS
10
5.40272
20
-4.85172
11
5.38987
21
-4.84611
0
LINE
8
BLACK
6
CONTINUOUS
10
5.38987
20
-4.84611
11
5.37773
21
-4.8391
0
LINE
8
BLACK
6
CONTINUOUS
10
5.37773
20
-4.8391
11
5.36644
21
-4.83078
0
LINE
8
BLACK
6
CONTINUOUS
10
5.36644
20
-4.83078
11
5.35615
21
-4.82125
0
LINE
8
BLACK
6
CONTINUOUS
10
5.35615
20
-4.82125
11
5.34699
21
-4.81063
0
LINE
8
BLACK
6
CONTINUOUS
10
5.34699
20
-4.81063
11
5.33907
21
-4.79906
0
LINE
8
BLACK
6
CONTINUOUS
10
5.33907
20
-4.79906
11
5.33248
21
-4.78668
0
LINE
8
BLACK
6
CONTINUOUS
10
5.33248
20
-4.78668
11
5.32732
21
-4.77365
0
LINE
8
BLACK
6
CONTINUOUS
10
5.32732
20
-4.77365
11
5.32364
21
-4.76011
0
LINE
8
BLACK
6
CONTINUOUS
10
5.32364
20
-4.76011
11
5.3215
21
-4.74626
0
LINE
8
BLACK
6
CONTINUOUS
10
5.3215
20
-4.74626
11
5.32091
21
-4.73225
0
LINE
8
BLACK
6
CONTINUOUS
10
5.32091
20
-4.73225
11
5.32103
21
-4.73052
0
LINE
8
BLACK
6
CONTINUOUS
10
5.32103
20
-4.73052
11
5.32189
21
-4.71826
0
LINE
8
BLACK
6
CONTINUOUS
10
5.32189
20
-4.71826
11
5.32442
21
-4.70447
0
LINE
8
BLACK
6
CONTINUOUS
10
5.3379
20
-4.7559
11
5.34113
21
-4.76824
0
LINE
8
BLACK
6
CONTINUOUS
10
5.34113
20
-4.76824
11
5.34577
21
-4.78012
0
LINE
8
BLACK
6
CONTINUOUS
10
5.34577
20
-4.78012
11
5.35174
21
-4.79139
0
LINE
8
BLACK
6
CONTINUOUS
10
5.35174
20
-4.79139
11
5.35896
21
-4.8019
0
LINE
8
BLACK
6
CONTINUOUS
10
5.35896
20
-4.8019
11
5.36735
21
-4.81151
0
LINE
8
BLACK
6
CONTINUOUS
10
5.36735
20
-4.81151
11
5.37678
21
-4.8201
0
LINE
8
BLACK
6
CONTINUOUS
10
5.37678
20
-4.8201
11
5.38714
21
-4.82754
0
LINE
8
BLACK
6
CONTINUOUS
10
5.38714
20
-4.82754
11
5.39828
21
-4.83374
0
LINE
8
BLACK
6
CONTINUOUS
10
5.39828
20
-4.83374
11
5.41007
21
-4.83863
0
LINE
8
BLACK
6
CONTINUOUS
10
5.41007
20
-4.83863
11
5.42233
21
-4.84212
0
LINE
8
BLACK
6
CONTINUOUS
10
5.42233
20
-4.84212
11
5.43492
21
-4.84418
0
LINE
8
BLACK
6
CONTINUOUS
10
5.43492
20
-4.84418
11
5.44766
21
-4.84478
0
LINE
8
BLACK
6
CONTINUOUS
10
5.44766
20
-4.84478
11
5.46039
21
-4.84391
0
LINE
8
BLACK
6
CONTINUOUS
10
5.46039
20
-4.84391
11
5.47293
21
-4.84159
0
LINE
8
BLACK
6
CONTINUOUS
10
5.47293
20
-4.84159
11
5.48512
21
-4.83784
0
LINE
8
BLACK
6
CONTINUOUS
10
5.48512
20
-4.83784
11
5.4968
21
-4.83271
0
LINE
8
BLACK
6
CONTINUOUS
10
5.4968
20
-4.83271
11
5.50781
21
-4.82628
0
LINE
8
BLACK
6
CONTINUOUS
10
5.50781
20
-4.82628
11
5.51801
21
-4.81862
0
LINE
8
BLACK
6
CONTINUOUS
10
5.51801
20
-4.81862
11
5.52726
21
-4.80984
0
LINE
8
BLACK
6
CONTINUOUS
10
5.52726
20
-4.80984
11
5.53544
21
-4.80005
0
LINE
8
BLACK
6
CONTINUOUS
10
5.53544
20
-4.80005
11
5.54244
21
-4.78939
0
LINE
8
BLACK
6
CONTINUOUS
10
5.54244
20
-4.78939
11
5.54818
21
-4.778
0
LINE
8
BLACK
6
CONTINUOUS
10
5.54818
20
-4.778
11
5.55256
21
-4.76602
0
LINE
8
BLACK
6
CONTINUOUS
10
5.55256
20
-4.76602
11
5.55554
21
-4.75362
0
LINE
8
BLACK
6
CONTINUOUS
10
5.55554
20
-4.75362
11
5.55707
21
-4.74096
0
LINE
8
BLACK
6
CONTINUOUS
10
5.55707
20
-4.74096
11
5.55729
21
-4.734
0
LINE
8
BLACK
6
CONTINUOUS
10
5.55729
20
-4.734
11
5.55655
21
-4.72127
0
LINE
8
BLACK
6
CONTINUOUS
10
5.55655
20
-4.72127
11
5.55436
21
-4.7087
0
LINE
8
BLACK
6
CONTINUOUS
10
5.55436
20
-4.7087
11
5.55074
21
-4.69647
0
LINE
8
BLACK
6
CONTINUOUS
10
5.55074
20
-4.69647
11
5.54573
21
-4.68474
0
LINE
8
BLACK
6
CONTINUOUS
10
5.54573
20
-4.68474
11
5.53941
21
-4.67366
0
LINE
8
BLACK
6
CONTINUOUS
10
5.53941
20
-4.67366
11
5.53186
21
-4.66338
0
LINE
8
BLACK
6
CONTINUOUS
10
5.53186
20
-4.66338
11
5.52318
21
-4.65404
0
LINE
8
BLACK
6
CONTINUOUS
10
5.52318
20
-4.65404
11
5.51348
21
-4.64575
0
LINE
8
BLACK
6
CONTINUOUS
10
5.51348
20
-4.64575
11
5.5029
21
-4.63864
0
LINE
8
BLACK
6
CONTINUOUS
10
5.5029
20
-4.63864
11
5.49156
21
-4.63279
0
LINE
8
BLACK
6
CONTINUOUS
10
5.49156
20
-4.63279
11
5.47963
21
-4.62828
0
LINE
8
BLACK
6
CONTINUOUS
10
5.47963
20
-4.62828
11
5.46726
21
-4.62517
0
LINE
8
BLACK
6
CONTINUOUS
10
5.46726
20
-4.62517
11
5.45461
21
-4.62351
0
LINE
8
BLACK
6
CONTINUOUS
10
5.45461
20
-4.62351
11
5.44186
21
-4.62331
0
LINE
8
BLACK
6
CONTINUOUS
10
5.44186
20
-4.62331
11
5.42917
21
-4.62458
0
LINE
8
BLACK
6
CONTINUOUS
10
5.42917
20
-4.62458
11
5.41671
21
-4.62729
0
LINE
8
BLACK
6
CONTINUOUS
10
5.41671
20
-4.62729
11
5.40464
21
-4.63143
0
LINE
8
BLACK
6
CONTINUOUS
10
5.40464
20
-4.63143
11
5.39313
21
-4.63692
0
LINE
8
BLACK
6
CONTINUOUS
10
5.39313
20
-4.63692
11
5.38232
21
-4.64369
0
LINE
8
BLACK
6
CONTINUOUS
10
5.38232
20
-4.64369
11
5.37237
21
-4.65167
0
LINE
8
BLACK
6
CONTINUOUS
10
5.37237
20
-4.65167
11
5.3634
21
-4.66073
0
LINE
8
BLACK
6
CONTINUOUS
10
5.3634
20
-4.66073
11
5.35553
21
-4.67077
0
LINE
8
BLACK
6
CONTINUOUS
10
5.35553
20
-4.67077
11
5.34886
21
-4.68165
0
LINE
8
BLACK
6
CONTINUOUS
10
5.34886
20
-4.68165
11
5.34349
21
-4.69322
0
LINE
8
BLACK
6
CONTINUOUS
10
5.34349
20
-4.69322
11
5.33949
21
-4.70533
0
LINE
8
BLACK
6
CONTINUOUS
10
5.33949
20
-4.70533
11
5.3369
21
-4.71782
0
LINE
8
BLACK
6
CONTINUOUS
10
5.3369
20
-4.71782
11
5.33577
21
-4.73052
0
LINE
8
BLACK
6
CONTINUOUS
10
5.33577
20
-4.73052
11
5.3361
21
-4.74327
0
LINE
8
BLACK
6
CONTINUOUS
10
5.3361
20
-4.74327
11
5.3379
21
-4.7559
0
LINE
8
BLACK
6
CONTINUOUS
10
5.32442
20
-3.50447
11
5.32847
21
-3.49104
0
LINE
8
BLACK
6
CONTINUOUS
10
5.32847
20
-3.49104
11
5.334
21
-3.47815
0
LINE
8
BLACK
6
CONTINUOUS
10
5.334
20
-3.47815
11
5.34092
21
-3.46596
0
LINE
8
BLACK
6
CONTINUOUS
10
5.34092
20
-3.46596
11
5.34917
21
-3.45462
0
LINE
8
BLACK
6
CONTINUOUS
10
5.34917
20
-3.45462
11
5.35862
21
-3.44426
0
LINE
8
BLACK
6
CONTINUOUS
10
5.35862
20
-3.44426
11
5.36917
21
-3.43503
0
LINE
8
BLACK
6
CONTINUOUS
10
5.36917
20
-3.43503
11
5.38069
21
-3.42702
0
LINE
8
BLACK
6
CONTINUOUS
10
5.38069
20
-3.42702
11
5.39302
21
-3.42035
0
LINE
8
BLACK
6
CONTINUOUS
10
5.39302
20
-3.42035
11
5.40602
21
-3.4151
0
LINE
8
BLACK
6
CONTINUOUS
10
5.40602
20
-3.4151
11
5.41953
21
-3.41133
0
LINE
8
BLACK
6
CONTINUOUS
10
5.41953
20
-3.41133
11
5.43337
21
-3.40909
0
LINE
8
BLACK
6
CONTINUOUS
10
5.43337
20
-3.40909
11
5.44738
21
-3.4084
0
LINE
8
BLACK
6
CONTINUOUS
10
5.44738
20
-3.4084
11
5.46137
21
-3.40928
0
LINE
8
BLACK
6
CONTINUOUS
10
5.46137
20
-3.40928
11
5.47518
21
-3.41172
0
LINE
8
BLACK
6
CONTINUOUS
10
5.47518
20
-3.41172
11
5.48863
21
-3.41568
0
LINE
8
BLACK
6
CONTINUOUS
10
5.48863
20
-3.41568
11
5.50156
21
-3.42111
0
LINE
8
BLACK
6
CONTINUOUS
10
5.50156
20
-3.42111
11
5.5138
21
-3.42795
0
LINE
8
BLACK
6
CONTINUOUS
10
5.5138
20
-3.42795
11
5.5252
21
-3.43612
0
LINE
8
BLACK
6
CONTINUOUS
10
5.5252
20
-3.43612
11
5.53562
21
-3.4455
0
LINE
8
BLACK
6
CONTINUOUS
10
5.53562
20
-3.4455
11
5.54493
21
-3.45598
0
LINE
8
BLACK
6
CONTINUOUS
10
5.54493
20
-3.45598
11
5.55301
21
-3.46744
0
LINE
8
BLACK
6
CONTINUOUS
10
5.55301
20
-3.46744
11
5.55977
21
-3.47973
0
LINE
8
BLACK
6
CONTINUOUS
10
5.55977
20
-3.47973
11
5.56511
21
-3.49269
0
LINE
8
BLACK
6
CONTINUOUS
10
5.56511
20
-3.49269
11
5.56898
21
-3.50617
0
LINE
8
BLACK
6
CONTINUOUS
10
5.56898
20
-3.50617
11
5.57132
21
-3.52
0
LINE
8
BLACK
6
CONTINUOUS
10
5.57132
20
-3.52
11
5.5721
21
-3.534
0
LINE
8
BLACK
6
CONTINUOUS
10
5.5721
20
-3.534
11
5.57205
21
-3.53751
0
LINE
8
BLACK
6
CONTINUOUS
10
5.57205
20
-3.53751
11
5.57088
21
-3.55148
0
LINE
8
BLACK
6
CONTINUOUS
10
5.57088
20
-3.55148
11
5.56815
21
-3.56524
0
LINE
8
BLACK
6
CONTINUOUS
10
5.56815
20
-3.56524
11
5.56391
21
-3.5786
0
LINE
8
BLACK
6
CONTINUOUS
10
5.56391
20
-3.5786
11
5.55821
21
-3.59141
0
LINE
8
BLACK
6
CONTINUOUS
10
5.55821
20
-3.59141
11
5.55111
21
-3.60351
0
LINE
8
BLACK
6
CONTINUOUS
10
5.55111
20
-3.60351
11
5.54272
21
-3.61473
0
LINE
8
BLACK
6
CONTINUOUS
10
5.54272
20
-3.61473
11
5.53312
21
-3.62496
0
LINE
8
BLACK
6
CONTINUOUS
10
5.53312
20
-3.62496
11
5.52244
21
-3.63404
0
LINE
8
BLACK
6
CONTINUOUS
10
5.52244
20
-3.63404
11
5.51081
21
-3.64189
0
LINE
8
BLACK
6
CONTINUOUS
10
5.51081
20
-3.64189
11
5.49839
21
-3.64838
0
LINE
8
BLACK
6
CONTINUOUS
10
5.49839
20
-3.64838
11
5.48531
21
-3.65345
0
LINE
8
BLACK
6
CONTINUOUS
10
5.48531
20
-3.65345
11
5.47176
21
-3.65703
0
LINE
8
BLACK
6
CONTINUOUS
10
5.47176
20
-3.65703
11
5.45788
21
-3.65908
0
LINE
8
BLACK
6
CONTINUOUS
10
5.45788
20
-3.65908
11
5.44387
21
-3.65957
0
LINE
8
BLACK
6
CONTINUOUS
10
5.44387
20
-3.65957
11
5.42989
21
-3.6585
0
LINE
8
BLACK
6
CONTINUOUS
10
5.42989
20
-3.6585
11
5.41611
21
-3.65587
0
LINE
8
BLACK
6
CONTINUOUS
10
5.41611
20
-3.65587
11
5.40272
21
-3.65172
0
LINE
8
BLACK
6
CONTINUOUS
10
5.40272
20
-3.65172
11
5.38987
21
-3.64611
0
LINE
8
BLACK
6
CONTINUOUS
10
5.38987
20
-3.64611
11
5.37773
21
-3.6391
0
LINE
8
BLACK
6
CONTINUOUS
10
5.37773
20
-3.6391
11
5.36644
21
-3.63078
0
LINE
8
BLACK
6
CONTINUOUS
10
5.36644
20
-3.63078
11
5.35615
21
-3.62125
0
LINE
8
BLACK
6
CONTINUOUS
10
5.35615
20
-3.62125
11
5.34699
21
-3.61063
0
LINE
8
BLACK
6
CONTINUOUS
10
5.34699
20
-3.61063
11
5.33907
21
-3.59906
0
LINE
8
BLACK
6
CONTINUOUS
10
5.33907
20
-3.59906
11
5.33248
21
-3.58668
0
LINE
8
BLACK
6
CONTINUOUS
10
5.33248
20
-3.58668
11
5.32732
21
-3.57365
0
LINE
8
BLACK
6
CONTINUOUS
10
5.32732
20
-3.57365
11
5.32364
21
-3.56011
0
LINE
8
BLACK
6
CONTINUOUS
10
5.32364
20
-3.56011
11
5.3215
21
-3.54626
0
LINE
8
BLACK
6
CONTINUOUS
10
5.3215
20
-3.54626
11
5.32091
21
-3.53225
0
LINE
8
BLACK
6
CONTINUOUS
10
5.32091
20
-3.53225
11
5.32103
21
-3.53052
0
LINE
8
BLACK
6
CONTINUOUS
10
5.32103
20
-3.53052
11
5.32189
21
-3.51826
0
LINE
8
BLACK
6
CONTINUOUS
10
5.32189
20
-3.51826
11
5.32442
21
-3.50447
0
LINE
8
BLACK
6
CONTINUOUS
10
5.3379
20
-3.5559
11
5.34113
21
-3.56824
0
LINE
8
BLACK
6
CONTINUOUS
10
5.34113
20
-3.56824
11
5.34577
21
-3.58012
0
LINE
8
BLACK
6
CONTINUOUS
10
5.34577
20
-3.58012
11
5.35174
21
-3.59139
0
LINE
8
BLACK
6
CONTINUOUS
10
5.35174
20
-3.59139
11
5.35896
21
-3.6019
0
LINE
8
BLACK
6
CONTINUOUS
10
5.35896
20
-3.6019
11
5.36735
21
-3.61151
0
LINE
8
BLACK
6
CONTINUOUS
10
5.36735
20
-3.61151
11
5.37678
21
-3.6201
0
LINE
8
BLACK
6
CONTINUOUS
10
5.37678
20
-3.6201
11
5.38714
21
-3.62754
0
LINE
8
BLACK
6
CONTINUOUS
10
5.38714
20
-3.62754
11
5.39828
21
-3.63374
0
LINE
8
BLACK
6
CONTINUOUS
10
5.39828
20
-3.63374
11
5.41007
21
-3.63863
0
LINE
8
BLACK
6
CONTINUOUS
10
5.41007
20
-3.63863
11
5.42233
21
-3.64212
0
LINE
8
BLACK
6
CONTINUOUS
10
5.42233
20
-3.64212
11
5.43492
21
-3.64418
0
LINE
8
BLACK
6
CONTINUOUS
10
5.43492
20
-3.64418
11
5.44766
21
-3.64478
0
LINE
8
BLACK
6
CONTINUOUS
10
5.44766
20
-3.64478
11
5.46039
21
-3.64391
0
LINE
8
BLACK
6
CONTINUOUS
10
5.46039
20
-3.64391
11
5.47293
21
-3.64159
0
LINE
8
BLACK
6
CONTINUOUS
10
5.47293
20
-3.64159
11
5.48512
21
-3.63784
0
LINE
8
BLACK
6
CONTINUOUS
10
5.48512
20
-3.63784
11
5.4968
21
-3.63271
0
LINE
8
BLACK
6
CONTINUOUS
10
5.4968
20
-3.63271
11
5.50781
21
-3.62628
0
LINE
8
BLACK
6
CONTINUOUS
10
5.50781
20
-3.62628
11
5.51801
21
-3.61862
0
LINE
8
BLACK
6
CONTINUOUS
10
5.51801
20
-3.61862
11
5.52726
21
-3.60984
0
LINE
8
BLACK
6
CONTINUOUS
10
5.52726
20
-3.60984
11
5.53544
21
-3.60005
0
LINE
8
BLACK
6
CONTINUOUS
10
5.53544
20
-3.60005
11
5.54244
21
-3.58939
0
LINE
8
BLACK
6
CONTINUOUS
10
5.54244
20
-3.58939
11
5.54818
21
-3.578
0
LINE
8
BLACK
6
CONTINUOUS
10
5.54818
20
-3.578
11
5.55256
21
-3.56602
0
LINE
8
BLACK
6
CONTINUOUS
10
5.55256
20
-3.56602
11
5.55554
21
-3.55362
0
LINE
8
BLACK
6
CONTINUOUS
10
5.55554
20
-3.55362
11
5.55707
21
-3.54096
0
LINE
8
BLACK
6
CONTINUOUS
10
5.55707
20
-3.54096
11
5.55729
21
-3.534
0
LINE
8
BLACK
6
CONTINUOUS
10
5.55729
20
-3.534
11
5.55655
21
-3.52127
0
LINE
8
BLACK
6
CONTINUOUS
10
5.55655
20
-3.52127
11
5.55436
21
-3.5087
0
LINE
8
BLACK
6
CONTINUOUS
10
5.55436
20
-3.5087
11
5.55074
21
-3.49647
0
LINE
8
BLACK
6
CONTINUOUS
10
5.55074
20
-3.49647
11
5.54573
21
-3.48474
0
LINE
8
BLACK
6
CONTINUOUS
10
5.54573
20
-3.48474
11
5.53941
21
-3.47366
0
LINE
8
BLACK
6
CONTINUOUS
10
5.53941
20
-3.47366
11
5.53186
21
-3.46338
0
LINE
8
BLACK
6
CONTINUOUS
10
5.53186
20
-3.46338
11
5.52318
21
-3.45404
0
LINE
8
BLACK
6
CONTINUOUS
10
5.52318
20
-3.45404
11
5.51348
21
-3.44575
0
LINE
8
BLACK
6
CONTINUOUS
10
5.51348
20
-3.44575
11
5.5029
21
-3.43864
0
LINE
8
BLACK
6
CONTINUOUS
10
5.5029
20
-3.43864
11
5.49156
21
-3.43279
0
LINE
8
BLACK
6
CONTINUOUS
10
5.49156
20
-3.43279
11
5.47963
21
-3.42828
0
LINE
8
BLACK
6
CONTINUOUS
10
5.47963
20
-3.42828
11
5.46726
21
-3.42517
0
LINE
8
BLACK
6
CONTINUOUS
10
5.46726
20
-3.42517
11
5.45461
21
-3.42351
0
LINE
8
BLACK
6
CONTINUOUS
10
5.45461
20
-3.42351
11
5.44186
21
-3.42331
0
LINE
8
BLACK
6
CONTINUOUS
10
5.44186
20
-3.42331
11
5.42917
21
-3.42458
0
LINE
8
BLACK
6
CONTINUOUS
10
5.42917
20
-3.42458
11
5.41671
21
-3.42729
0
LINE
8
BLACK
6
CONTINUOUS
10
5.41671
20
-3.42729
11
5.40464
21
-3.43143
0
LINE
8
BLACK
6
CONTINUOUS
10
5.40464
20
-3.43143
11
5.39313
21
-3.43692
0
LINE
8
BLACK
6
CONTINUOUS
10
5.39313
20
-3.43692
11
5.38232
21
-3.44369
0
LINE
8
BLACK
6
CONTINUOUS
10
5.38232
20
-3.44369
11
5.37237
21
-3.45167
0
LINE
8
BLACK
6
CONTINUOUS
10
5.37237
20
-3.45167
11
5.3634
21
-3.46073
0
LINE
8
BLACK
6
CONTINUOUS
10
5.3634
20
-3.46073
11
5.35553
21
-3.47077
0
LINE
8
BLACK
6
CONTINUOUS
10
5.35553
20
-3.47077
11
5.34886
21
-3.48165
0
LINE
8
BLACK
6
CONTINUOUS
10
5.34886
20
-3.48165
11
5.34349
21
-3.49322
0
LINE
8
BLACK
6
CONTINUOUS
10
5.34349
20
-3.49322
11
5.33949
21
-3.50533
0
LINE
8
BLACK
6
CONTINUOUS
10
5.33949
20
-3.50533
11
5.3369
21
-3.51782
0
LINE
8
BLACK
6
CONTINUOUS
10
5.3369
20
-3.51782
11
5.33577
21
-3.53052
0
LINE
8
BLACK
6
CONTINUOUS
10
5.33577
20
-3.53052
11
5.3361
21
-3.54327
0
LINE
8
BLACK
6
CONTINUOUS
10
5.3361
20
-3.54327
11
5.3379
21
-3.5559
0
LINE
8
BLACK
6
CONTINUOUS
10
6.12442
20
-3.50447
11
6.12847
21
-3.49104
0
LINE
8
BLACK
6
CONTINUOUS
10
6.12847
20
-3.49104
11
6.134
21
-3.47815
0
LINE
8
BLACK
6
CONTINUOUS
10
6.134
20
-3.47815
11
6.14092
21
-3.46596
0
LINE
8
BLACK
6
CONTINUOUS
10
6.14092
20
-3.46596
11
6.14917
21
-3.45462
0
LINE
8
BLACK
6
CONTINUOUS
10
6.14917
20
-3.45462
11
6.15862
21
-3.44426
0
LINE
8
BLACK
6
CONTINUOUS
10
6.15862
20
-3.44426
11
6.16917
21
-3.43503
0
LINE
8
BLACK
6
CONTINUOUS
10
6.16917
20
-3.43503
11
6.18069
21
-3.42702
0
LINE
8
BLACK
6
CONTINUOUS
10
6.18069
20
-3.42702
11
6.19302
21
-3.42035
0
LINE
8
BLACK
6
CONTINUOUS
10
6.19302
20
-3.42035
11
6.20602
21
-3.4151
0
LINE
8
BLACK
6
CONTINUOUS
10
6.20602
20
-3.4151
11
6.21953
21
-3.41133
0
LINE
8
BLACK
6
CONTINUOUS
10
6.21953
20
-3.41133
11
6.23337
21
-3.40909
0
LINE
8
BLACK
6
CONTINUOUS
10
6.23337
20
-3.40909
11
6.24738
21
-3.4084
0
LINE
8
BLACK
6
CONTINUOUS
10
6.24738
20
-3.4084
11
6.26137
21
-3.40928
0
LINE
8
BLACK
6
CONTINUOUS
10
6.26137
20
-3.40928
11
6.27518
21
-3.41172
0
LINE
8
BLACK
6
CONTINUOUS
10
6.27518
20
-3.41172
11
6.28863
21
-3.41568
0
LINE
8
BLACK
6
CONTINUOUS
10
6.28863
20
-3.41568
11
6.30156
21
-3.42111
0
LINE
8
BLACK
6
CONTINUOUS
10
6.30156
20
-3.42111
11
6.3138
21
-3.42795
0
LINE
8
BLACK
6
CONTINUOUS
10
6.3138
20
-3.42795
11
6.3252
21
-3.43612
0
LINE
8
BLACK
6
CONTINUOUS
10
6.3252
20
-3.43612
11
6.33562
21
-3.4455
0
LINE
8
BLACK
6
CONTINUOUS
10
6.33562
20
-3.4455
11
6.34493
21
-3.45598
0
LINE
8
BLACK
6
CONTINUOUS
10
6.34493
20
-3.45598
11
6.35301
21
-3.46744
0
LINE
8
BLACK
6
CONTINUOUS
10
6.35301
20
-3.46744
11
6.35977
21
-3.47973
0
LINE
8
BLACK
6
CONTINUOUS
10
6.35977
20
-3.47973
11
6.36511
21
-3.49269
0
LINE
8
BLACK
6
CONTINUOUS
10
6.36511
20
-3.49269
11
6.36898
21
-3.50617
0
LINE
8
BLACK
6
CONTINUOUS
10
6.36898
20
-3.50617
11
6.37132
21
-3.52
0
LINE
8
BLACK
6
CONTINUOUS
10
6.37132
20
-3.52
11
6.3721
21
-3.534
0
LINE
8
BLACK
6
CONTINUOUS
10
6.3721
20
-3.534
11
6.37205
21
-3.53751
0
LINE
8
BLACK
6
CONTINUOUS
10
6.37205
20
-3.53751
11
6.37088
21
-3.55148
0
LINE
8
BLACK
6
CONTINUOUS
10
6.37088
20
-3.55148
11
6.36815
21
-3.56524
0
LINE
8
BLACK
6
CONTINUOUS
10
6.36815
20
-3.56524
11
6.36391
21
-3.5786
0
LINE
8
BLACK
6
CONTINUOUS
10
6.36391
20
-3.5786
11
6.35821
21
-3.59141
0
LINE
8
BLACK
6
CONTINUOUS
10
6.35821
20
-3.59141
11
6.35111
21
-3.60351
0
LINE
8
BLACK
6
CONTINUOUS
10
6.35111
20
-3.60351
11
6.34272
21
-3.61473
0
LINE
8
BLACK
6
CONTINUOUS
10
6.34272
20
-3.61473
11
6.33312
21
-3.62496
0
LINE
8
BLACK
6
CONTINUOUS
10
6.33312
20
-3.62496
11
6.32244
21
-3.63404
0
LINE
8
BLACK
6
CONTINUOUS
10
6.32244
20
-3.63404
11
6.31081
21
-3.64189
0
LINE
8
BLACK
6
CONTINUOUS
10
6.31081
20
-3.64189
11
6.29839
21
-3.64838
0
LINE
8
BLACK
6
CONTINUOUS
10
6.29839
20
-3.64838
11
6.28531
21
-3.65345
0
LINE
8
BLACK
6
CONTINUOUS
10
6.28531
20
-3.65345
11
6.27176
21
-3.65703
0
LINE
8
BLACK
6
CONTINUOUS
10
6.27176
20
-3.65703
11
6.25788
21
-3.65908
0
LINE
8
BLACK
6
CONTINUOUS
10
6.25788
20
-3.65908
11
6.24387
21
-3.65957
0
LINE
8
BLACK
6
CONTINUOUS
10
6.24387
20
-3.65957
11
6.22989
21
-3.6585
0
LINE
8
BLACK
6
CONTINUOUS
10
6.22989
20
-3.6585
11
6.21611
21
-3.65587
0
LINE
8
BLACK
6
CONTINUOUS
10
6.21611
20
-3.65587
11
6.20272
21
-3.65172
0
LINE
8
BLACK
6
CONTINUOUS
10
6.20272
20
-3.65172
11
6.18987
21
-3.64611
0
LINE
8
BLACK
6
CONTINUOUS
10
6.18987
20
-3.64611
11
6.17773
21
-3.6391
0
LINE
8
BLACK
6
CONTINUOUS
10
6.17773
20
-3.6391
11
6.16644
21
-3.63078
0
LINE
8
BLACK
6
CONTINUOUS
10
6.16644
20
-3.63078
11
6.15615
21
-3.62125
0
LINE
8
BLACK
6
CONTINUOUS
10
6.15615
20
-3.62125
11
6.14699
21
-3.61063
0
LINE
8
BLACK
6
CONTINUOUS
10
6.14699
20
-3.61063
11
6.13907
21
-3.59906
0
LINE
8
BLACK
6
CONTINUOUS
10
6.13907
20
-3.59906
11
6.13248
21
-3.58668
0
LINE
8
BLACK
6
CONTINUOUS
10
6.13248
20
-3.58668
11
6.12732
21
-3.57365
0
LINE
8
BLACK
6
CONTINUOUS
10
6.12732
20
-3.57365
11
6.12364
21
-3.56011
0
LINE
8
BLACK
6
CONTINUOUS
10
6.12364
20
-3.56011
11
6.1215
21
-3.54626
0
LINE
8
BLACK
6
CONTINUOUS
10
6.1215
20
-3.54626
11
6.12091
21
-3.53225
0
LINE
8
BLACK
6
CONTINUOUS
10
6.12091
20
-3.53225
11
6.12103
21
-3.53052
0
LINE
8
BLACK
6
CONTINUOUS
10
6.12103
20
-3.53052
11
6.12189
21
-3.51826
0
LINE
8
BLACK
6
CONTINUOUS
10
6.12189
20
-3.51826
11
6.12442
21
-3.50447
0
LINE
8
BLACK
6
CONTINUOUS
10
6.1379
20
-3.5559
11
6.14113
21
-3.56824
0
LINE
8
BLACK
6
CONTINUOUS
10
6.14113
20
-3.56824
11
6.14577
21
-3.58012
0
LINE
8
BLACK
6
CONTINUOUS
10
6.14577
20
-3.58012
11
6.15174
21
-3.59139
0
LINE
8
BLACK
6
CONTINUOUS
10
6.15174
20
-3.59139
11
6.15896
21
-3.6019
0
LINE
8
BLACK
6
CONTINUOUS
10
6.15896
20
-3.6019
11
6.16735
21
-3.61151
0
LINE
8
BLACK
6
CONTINUOUS
10
6.16735
20
-3.61151
11
6.17678
21
-3.6201
0
LINE
8
BLACK
6
CONTINUOUS
10
6.17678
20
-3.6201
11
6.18714
21
-3.62754
0
LINE
8
BLACK
6
CONTINUOUS
10
6.18714
20
-3.62754
11
6.19828
21
-3.63374
0
LINE
8
BLACK
6
CONTINUOUS
10
6.19828
20
-3.63374
11
6.21007
21
-3.63863
0
LINE
8
BLACK
6
CONTINUOUS
10
6.21007
20
-3.63863
11
6.22233
21
-3.64212
0
LINE
8
BLACK
6
CONTINUOUS
10
6.22233
20
-3.64212
11
6.23492
21
-3.64418
0
LINE
8
BLACK
6
CONTINUOUS
10
6.23492
20
-3.64418
11
6.24766
21
-3.64478
0
LINE
8
BLACK
6
CONTINUOUS
10
6.24766
20
-3.64478
11
6.26039
21
-3.64391
0
LINE
8
BLACK
6
CONTINUOUS
10
6.26039
20
-3.64391
11
6.27293
21
-3.64159
0
LINE
8
BLACK
6
CONTINUOUS
10
6.27293
20
-3.64159
11
6.28512
21
-3.63784
0
LINE
8
BLACK
6
CONTINUOUS
10
6.28512
20
-3.63784
11
6.2968
21
-3.63271
0
LINE
8
BLACK
6
CONTINUOUS
10
6.2968
20
-3.63271
11
6.30781
21
-3.62628
0
LINE
8
BLACK
6
CONTINUOUS
10
6.30781
20
-3.62628
11
6.31801
21
-3.61862
0
LINE
8
BLACK
6
CONTINUOUS
10
6.31801
20
-3.61862
11
6.32726
21
-3.60984
0
LINE
8
BLACK
6
CONTINUOUS
10
6.32726
20
-3.60984
11
6.33544
21
-3.60005
0
LINE
8
BLACK
6
CONTINUOUS
10
6.33544
20
-3.60005
11
6.34244
21
-3.58939
0
LINE
8
BLACK
6
CONTINUOUS
10
6.34244
20
-3.58939
11
6.34818
21
-3.578
0
LINE
8
BLACK
6
CONTINUOUS
10
6.34818
20
-3.578
11
6.35256
21
-3.56602
0
LINE
8
BLACK
6
CONTINUOUS
10
6.35256
20
-3.56602
11
6.35554
21
-3.55362
0
LINE
8
BLACK
6
CONTINUOUS
10
6.35554
20
-3.55362
11
6.35707
21
-3.54096
0
LINE
8
BLACK
6
CONTINUOUS
10
6.35707
20
-3.54096
11
6.35729
21
-3.534
0
LINE
8
BLACK
6
CONTINUOUS
10
6.35729
20
-3.534
11
6.35655
21
-3.52127
0
LINE
8
BLACK
6
CONTINUOUS
10
6.35655
20
-3.52127
11
6.35436
21
-3.5087
0
LINE
8
BLACK
6
CONTINUOUS
10
6.35436
20
-3.5087
11
6.35074
21
-3.49647
0
LINE
8
BLACK
6
CONTINUOUS
10
6.35074
20
-3.49647
11
6.34573
21
-3.48474
0
LINE
8
BLACK
6
CONTINUOUS
10
6.34573
20
-3.48474
11
6.33941
21
-3.47366
0
LINE
8
BLACK
6
CONTINUOUS
10
6.33941
20
-3.47366
11
6.33186
21
-3.46338
0
LINE
8
BLACK
6
CONTINUOUS
10
6.33186
20
-3.46338
11
6.32318
21
-3.45404
0
LINE
8
BLACK
6
CONTINUOUS
10
6.32318
20
-3.45404
11
6.31348
21
-3.44575
0
LINE
8
BLACK
6
CONTINUOUS
10
6.31348
20
-3.44575
11
6.3029
21
-3.43864
0
LINE
8
BLACK
6
CONTINUOUS
10
6.3029
20
-3.43864
11
6.29156
21
-3.43279
0
LINE
8
BLACK
6
CONTINUOUS
10
6.29156
20
-3.43279
11
6.27963
21
-3.42828
0
LINE
8
BLACK
6
CONTINUOUS
10
6.27963
20
-3.42828
11
6.26726
21
-3.42517
0
LINE
8
BLACK
6
CONTINUOUS
10
6.26726
20
-3.42517
11
6.25461
21
-3.42351
0
LINE
8
BLACK
6
CONTINUOUS
10
6.25461
20
-3.42351
11
6.24186
21
-3.42331
0
LINE
8
BLACK
6
CONTINUOUS
10
6.24186
20
-3.42331
11
6.22917
21
-3.42458
0
LINE
8
BLACK
6
CONTINUOUS
10
6.22917
20
-3.42458
11
6.21671
21
-3.42729
0
LINE
8
BLACK
6
CONTINUOUS
10
6.21671
20
-3.42729
11
6.20464
21
-3.43143
0
LINE
8
BLACK
6
CONTINUOUS
10
6.20464
20
-3.43143
11
6.19313
21
-3.43692
0
LINE
8
BLACK
6
CONTINUOUS
10
6.19313
20
-3.43692
11
6.18232
21
-3.44369
0
LINE
8
BLACK
6
CONTINUOUS
10
6.18232
20
-3.44369
11
6.17237
21
-3.45167
0
LINE
8
BLACK
6
CONTINUOUS
10
6.17237
20
-3.45167
11
6.1634
21
-3.46073
0
LINE
8
BLACK
6
CONTINUOUS
10
6.1634
20
-3.46073
11
6.15553
21
-3.47077
0
LINE
8
BLACK
6
CONTINUOUS
10
6.15553
20
-3.47077
11
6.14886
21
-3.48165
0
LINE
8
BLACK
6
CONTINUOUS
10
6.14886
20
-3.48165
11
6.14349
21
-3.49322
0
LINE
8
BLACK
6
CONTINUOUS
10
6.14349
20
-3.49322
11
6.13949
21
-3.50533
0
LINE
8
BLACK
6
CONTINUOUS
10
6.13949
20
-3.50533
11
6.1369
21
-3.51782
0
LINE
8
BLACK
6
CONTINUOUS
10
6.1369
20
-3.51782
11
6.13577
21
-3.53052
0
LINE
8
BLACK
6
CONTINUOUS
10
6.13577
20
-3.53052
11
6.1361
21
-3.54327
0
LINE
8
BLACK
6
CONTINUOUS
10
6.1361
20
-3.54327
11
6.1379
21
-3.5559
  0
ENDSEC
  0
EOF
