  0
SECTION
  2
HEADER
  9
$ANGBASE
  50
0.0
  9
$ANGDIR
  70
1
  9
$MEASUREMENT
  70
0
  0
ENDSEC
  0
SECTION
  2
TABLES
  0
TABLE
  2
LTYPE
  70
4
  0
LTYPE
  5
40F
  2
CONTINUOUS
  70
0
  3
Solid line
  72
65
  73
0
  40
0.0
  0
LTYPE
  5
410
  2
DASHDOT
 70
0
  3
Dash Dot ____ _ ____ _
 72
65
 73
4
 40
2.0
 49
1.25
 49
-0.25
 49
0.25
 49
-0.25
  0
LTYPE
  5
411
  2
DASHED
 70
0
  3
Dashed __ __ __ __ __
 72
65
 73
2
 40
0.75
 49
0.5
 49
-0.25
  0
LTYPE
  5
43B
  2
DOTTED
 70
0
  3
Dotted .  .  .  .
 72
65
 73
2
 40
0.2
 49
0.0
 49
-0.2
  0
ENDTAB
  0
TABLE
  2
STYLE
  70
4
  0
STYLE
  2
KICAD
  70
0
  40
0
  41
1
  42
1
  50
0
  71
0
  3
isocp.shx
  0
STYLE
  2
KICADB
  70
0
  40
0
  41
1
  42
1
  50
0
  71
0
  3
isocp.shx
  0
STYLE
  2
KICADI
  70
0
  40
0
  41
1
  42
1
  50
15
  71
0
  3
isocp.shx
  0
STYLE
  2
KICADBI
  70
0
  40
0
  41
1
  42
1
  50
15
  71
0
  3
isocp.shx
  0
ENDTAB
  0
TABLE
  2
LAYER
  70
1
  0
LAYER
  2
BLACK
  70
0
  62
7
  6
CONTINUOUS
  0
ENDTAB
  0
ENDSEC
  0
SECTION
  2
ENTITIES
0
LINE
8
BLACK
6
CONTINUOUS
10
5.70496
20
-4.83764
11
5.63804
21
-4.83764
0
LINE
8
BLACK
6
CONTINUOUS
10
5.63804
20
-4.83764
11
5.63804
21
-4.76678
0
LINE
8
BLACK
6
CONTINUOUS
10
5.63804
20
-4.76678
11
5.70496
21
-4.76678
0
LINE
8
BLACK
6
CONTINUOUS
10
5.70496
20
-4.76678
11
5.70496
21
-4.83764
0
LINE
8
BLACK
6
CONTINUOUS
10
5.70496
20
-4.67622
11
5.63804
21
-4.67622
0
LINE
8
BLACK
6
CONTINUOUS
10
5.63804
20
-4.67622
11
5.63804
21
-4.60536
0
LINE
8
BLACK
6
CONTINUOUS
10
5.63804
20
-4.60536
11
5.70496
21
-4.60536
0
LINE
8
BLACK
6
CONTINUOUS
10
5.70496
20
-4.60536
11
5.70496
21
-4.67622
0
LINE
8
BLACK
6
CONTINUOUS
10
5.55713
20
-4.58843
11
5.48233
21
-4.58843
0
LINE
8
BLACK
6
CONTINUOUS
10
5.48233
20
-4.58843
11
5.48233
21
-4.45457
0
LINE
8
BLACK
6
CONTINUOUS
10
5.48233
20
-4.45457
11
5.55713
21
-4.45457
0
LINE
8
BLACK
6
CONTINUOUS
10
5.55713
20
-4.45457
11
5.55713
21
-4.58843
0
LINE
8
BLACK
6
CONTINUOUS
10
5.71067
20
-4.58843
11
5.63587
21
-4.58843
0
LINE
8
BLACK
6
CONTINUOUS
10
5.63587
20
-4.58843
11
5.63587
21
-4.45457
0
LINE
8
BLACK
6
CONTINUOUS
10
5.63587
20
-4.45457
11
5.71067
21
-4.45457
0
LINE
8
BLACK
6
CONTINUOUS
10
5.71067
20
-4.45457
11
5.71067
21
-4.58843
0
LINE
8
BLACK
6
CONTINUOUS
10
6.27977
20
-4.43991
11
6.06323
21
-4.43991
0
LINE
8
BLACK
6
CONTINUOUS
10
6.06323
20
-4.43991
11
6.06323
21
-4.3218
0
LINE
8
BLACK
6
CONTINUOUS
10
6.06323
20
-4.3218
11
6.27977
21
-4.3218
0
LINE
8
BLACK
6
CONTINUOUS
10
6.27977
20
-4.3218
11
6.27977
21
-4.43991
0
LINE
8
BLACK
6
CONTINUOUS
10
5.5515
20
-4.434
11
5.4665
21
-4.434
0
LINE
8
BLACK
6
CONTINUOUS
10
5.4665
20
-4.434
11
5.4665
21
-4.334
0
LINE
8
BLACK
6
CONTINUOUS
10
5.4665
20
-4.334
11
5.5515
21
-4.334
0
LINE
8
BLACK
6
CONTINUOUS
10
5.5515
20
-4.334
11
5.5515
21
-4.434
0
LINE
8
BLACK
6
CONTINUOUS
10
5.9159
20
-4.422
11
5.8769
21
-4.422
0
LINE
8
BLACK
6
CONTINUOUS
10
5.8769
20
-4.422
11
5.8769
21
-4.371
0
LINE
8
BLACK
6
CONTINUOUS
10
5.8769
20
-4.371
11
5.9159
21
-4.371
0
LINE
8
BLACK
6
CONTINUOUS
10
5.9159
20
-4.371
11
5.9159
21
-4.422
0
LINE
8
BLACK
6
CONTINUOUS
10
5.8411
20
-4.422
11
5.8021
21
-4.422
0
LINE
8
BLACK
6
CONTINUOUS
10
5.8021
20
-4.422
11
5.8021
21
-4.371
0
LINE
8
BLACK
6
CONTINUOUS
10
5.8021
20
-4.371
11
5.8411
21
-4.371
0
LINE
8
BLACK
6
CONTINUOUS
10
5.8411
20
-4.371
11
5.8411
21
-4.422
0
LINE
8
BLACK
6
CONTINUOUS
10
5.80733
20
-4.2838
11
5.7963
21
-4.2838
0
LINE
8
BLACK
6
CONTINUOUS
10
5.7963
20
-4.2838
11
5.7963
21
-4.25034
0
LINE
8
BLACK
6
CONTINUOUS
10
5.7963
20
-4.25034
11
5.80733
21
-4.25034
0
LINE
8
BLACK
6
CONTINUOUS
10
5.80733
20
-4.25034
11
5.80733
21
-4.2838
0
LINE
8
BLACK
6
CONTINUOUS
10
5.82701
20
-4.2838
11
5.81599
21
-4.2838
0
LINE
8
BLACK
6
CONTINUOUS
10
5.81599
20
-4.2838
11
5.81599
21
-4.25034
0
LINE
8
BLACK
6
CONTINUOUS
10
5.81599
20
-4.25034
11
5.82701
21
-4.25034
0
LINE
8
BLACK
6
CONTINUOUS
10
5.82701
20
-4.25034
11
5.82701
21
-4.2838
0
LINE
8
BLACK
6
CONTINUOUS
10
5.8467
20
-4.2838
11
5.83567
21
-4.2838
0
LINE
8
BLACK
6
CONTINUOUS
10
5.83567
20
-4.2838
11
5.83567
21
-4.25034
0
LINE
8
BLACK
6
CONTINUOUS
10
5.83567
20
-4.25034
11
5.8467
21
-4.25034
0
LINE
8
BLACK
6
CONTINUOUS
10
5.8467
20
-4.25034
11
5.8467
21
-4.2838
0
LINE
8
BLACK
6
CONTINUOUS
10
5.78764
20
-4.2838
11
5.77662
21
-4.2838
0
LINE
8
BLACK
6
CONTINUOUS
10
5.77662
20
-4.2838
11
5.77662
21
-4.25034
0
LINE
8
BLACK
6
CONTINUOUS
10
5.77662
20
-4.25034
11
5.78764
21
-4.25034
0
LINE
8
BLACK
6
CONTINUOUS
10
5.78764
20
-4.25034
11
5.78764
21
-4.2838
0
LINE
8
BLACK
6
CONTINUOUS
10
5.86638
20
-4.2838
11
5.85536
21
-4.2838
0
LINE
8
BLACK
6
CONTINUOUS
10
5.85536
20
-4.2838
11
5.85536
21
-4.25034
0
LINE
8
BLACK
6
CONTINUOUS
10
5.85536
20
-4.25034
11
5.86638
21
-4.25034
0
LINE
8
BLACK
6
CONTINUOUS
10
5.86638
20
-4.25034
11
5.86638
21
-4.2838
0
LINE
8
BLACK
6
CONTINUOUS
10
5.44237
20
-4.24109
11
5.38725
21
-4.24109
0
LINE
8
BLACK
6
CONTINUOUS
10
5.38725
20
-4.24109
11
5.38725
21
-4.20172
0
LINE
8
BLACK
6
CONTINUOUS
10
5.38725
20
-4.20172
11
5.44237
21
-4.20172
0
LINE
8
BLACK
6
CONTINUOUS
10
5.44237
20
-4.20172
11
5.44237
21
-4.24109
0
LINE
8
BLACK
6
CONTINUOUS
10
5.5515
20
-4.234
11
5.4665
21
-4.234
0
LINE
8
BLACK
6
CONTINUOUS
10
5.4665
20
-4.234
11
5.4665
21
-4.134
0
LINE
8
BLACK
6
CONTINUOUS
10
5.4665
20
-4.134
11
5.5515
21
-4.134
0
LINE
8
BLACK
6
CONTINUOUS
10
5.5515
20
-4.134
11
5.5515
21
-4.234
0
LINE
8
BLACK
6
CONTINUOUS
10
5.35575
20
-4.20369
11
5.30063
21
-4.20369
0
LINE
8
BLACK
6
CONTINUOUS
10
5.30063
20
-4.20369
11
5.30063
21
-4.16431
0
LINE
8
BLACK
6
CONTINUOUS
10
5.30063
20
-4.16431
11
5.35575
21
-4.16431
0
LINE
8
BLACK
6
CONTINUOUS
10
5.35575
20
-4.16431
11
5.35575
21
-4.20369
0
LINE
8
BLACK
6
CONTINUOUS
10
5.89138
20
-4.1962
11
5.89138
21
-4.20605
0
LINE
8
BLACK
6
CONTINUOUS
10
5.89138
20
-4.20605
11
5.86382
21
-4.20605
0
LINE
8
BLACK
6
CONTINUOUS
10
5.86382
20
-4.20605
11
5.86382
21
-4.21195
0
LINE
8
BLACK
6
CONTINUOUS
10
5.86382
20
-4.21195
11
5.89138
21
-4.21195
0
LINE
8
BLACK
6
CONTINUOUS
10
5.89138
20
-4.21195
11
5.89138
21
-4.2218
0
LINE
8
BLACK
6
CONTINUOUS
10
5.89138
20
-4.2218
11
5.86382
21
-4.2218
0
LINE
8
BLACK
6
CONTINUOUS
10
5.86382
20
-4.2218
11
5.86382
21
-4.2277
0
LINE
8
BLACK
6
CONTINUOUS
10
5.86382
20
-4.2277
11
5.89138
21
-4.2277
0
LINE
8
BLACK
6
CONTINUOUS
10
5.89138
20
-4.2277
11
5.89138
21
-4.23754
0
LINE
8
BLACK
6
CONTINUOUS
10
5.89138
20
-4.23754
11
5.86382
21
-4.23754
0
LINE
8
BLACK
6
CONTINUOUS
10
5.86382
20
-4.23754
11
5.86382
21
-4.24246
0
LINE
8
BLACK
6
CONTINUOUS
10
5.86382
20
-4.24246
11
5.77918
21
-4.24246
0
LINE
8
BLACK
6
CONTINUOUS
10
5.77918
20
-4.24246
11
5.77918
21
-4.23754
0
LINE
8
BLACK
6
CONTINUOUS
10
5.77918
20
-4.23754
11
5.75162
21
-4.23754
0
LINE
8
BLACK
6
CONTINUOUS
10
5.75162
20
-4.23754
11
5.75162
21
-4.2277
0
LINE
8
BLACK
6
CONTINUOUS
10
5.75162
20
-4.2277
11
5.77918
21
-4.2277
0
LINE
8
BLACK
6
CONTINUOUS
10
5.77918
20
-4.2277
11
5.77918
21
-4.2218
0
LINE
8
BLACK
6
CONTINUOUS
10
5.77918
20
-4.2218
11
5.75162
21
-4.2218
0
LINE
8
BLACK
6
CONTINUOUS
10
5.75162
20
-4.2218
11
5.75162
21
-4.21195
0
LINE
8
BLACK
6
CONTINUOUS
10
5.75162
20
-4.21195
11
5.77918
21
-4.21195
0
LINE
8
BLACK
6
CONTINUOUS
10
5.77918
20
-4.21195
11
5.77918
21
-4.20605
0
LINE
8
BLACK
6
CONTINUOUS
10
5.77918
20
-4.20605
11
5.75162
21
-4.20605
0
LINE
8
BLACK
6
CONTINUOUS
10
5.75162
20
-4.20605
11
5.75162
21
-4.1962
0
LINE
8
BLACK
6
CONTINUOUS
10
5.75162
20
-4.1962
11
5.77918
21
-4.1962
0
LINE
8
BLACK
6
CONTINUOUS
10
5.77918
20
-4.1962
11
5.77918
21
-4.1903
0
LINE
8
BLACK
6
CONTINUOUS
10
5.77918
20
-4.1903
11
5.75162
21
-4.1903
0
LINE
8
BLACK
6
CONTINUOUS
10
5.75162
20
-4.1903
11
5.75162
21
-4.18046
0
LINE
8
BLACK
6
CONTINUOUS
10
5.75162
20
-4.18046
11
5.77918
21
-4.18046
0
LINE
8
BLACK
6
CONTINUOUS
10
5.77918
20
-4.18046
11
5.77918
21
-4.17554
0
LINE
8
BLACK
6
CONTINUOUS
10
5.77918
20
-4.17554
11
5.86382
21
-4.17554
0
LINE
8
BLACK
6
CONTINUOUS
10
5.86382
20
-4.17554
11
5.86382
21
-4.18046
0
LINE
8
BLACK
6
CONTINUOUS
10
5.86382
20
-4.18046
11
5.89138
21
-4.18046
0
LINE
8
BLACK
6
CONTINUOUS
10
5.89138
20
-4.18046
11
5.89138
21
-4.1903
0
LINE
8
BLACK
6
CONTINUOUS
10
5.89138
20
-4.1903
11
5.86382
21
-4.1903
0
LINE
8
BLACK
6
CONTINUOUS
10
5.86382
20
-4.1903
11
5.86382
21
-4.1962
0
LINE
8
BLACK
6
CONTINUOUS
10
5.86382
20
-4.1962
11
5.89138
21
-4.1962
0
LINE
8
BLACK
6
CONTINUOUS
10
5.86638
20
-4.16766
11
5.85536
21
-4.16766
0
LINE
8
BLACK
6
CONTINUOUS
10
5.85536
20
-4.16766
11
5.85536
21
-4.1342
0
LINE
8
BLACK
6
CONTINUOUS
10
5.85536
20
-4.1342
11
5.86638
21
-4.1342
0
LINE
8
BLACK
6
CONTINUOUS
10
5.86638
20
-4.1342
11
5.86638
21
-4.16766
0
LINE
8
BLACK
6
CONTINUOUS
10
5.8467
20
-4.16766
11
5.83567
21
-4.16766
0
LINE
8
BLACK
6
CONTINUOUS
10
5.83567
20
-4.16766
11
5.83567
21
-4.1342
0
LINE
8
BLACK
6
CONTINUOUS
10
5.83567
20
-4.1342
11
5.8467
21
-4.1342
0
LINE
8
BLACK
6
CONTINUOUS
10
5.8467
20
-4.1342
11
5.8467
21
-4.16766
0
LINE
8
BLACK
6
CONTINUOUS
10
5.82701
20
-4.16766
11
5.81599
21
-4.16766
0
LINE
8
BLACK
6
CONTINUOUS
10
5.81599
20
-4.16766
11
5.81599
21
-4.1342
0
LINE
8
BLACK
6
CONTINUOUS
10
5.81599
20
-4.1342
11
5.82701
21
-4.1342
0
LINE
8
BLACK
6
CONTINUOUS
10
5.82701
20
-4.1342
11
5.82701
21
-4.16766
0
LINE
8
BLACK
6
CONTINUOUS
10
5.80733
20
-4.16766
11
5.7963
21
-4.16766
0
LINE
8
BLACK
6
CONTINUOUS
10
5.7963
20
-4.16766
11
5.7963
21
-4.1342
0
LINE
8
BLACK
6
CONTINUOUS
10
5.7963
20
-4.1342
11
5.80733
21
-4.1342
0
LINE
8
BLACK
6
CONTINUOUS
10
5.80733
20
-4.1342
11
5.80733
21
-4.16766
0
LINE
8
BLACK
6
CONTINUOUS
10
5.78764
20
-4.16766
11
5.77662
21
-4.16766
0
LINE
8
BLACK
6
CONTINUOUS
10
5.77662
20
-4.16766
11
5.77662
21
-4.1342
0
LINE
8
BLACK
6
CONTINUOUS
10
5.77662
20
-4.1342
11
5.78764
21
-4.1342
0
LINE
8
BLACK
6
CONTINUOUS
10
5.78764
20
-4.1342
11
5.78764
21
-4.16766
0
LINE
8
BLACK
6
CONTINUOUS
10
5.44237
20
-4.16628
11
5.38725
21
-4.16628
0
LINE
8
BLACK
6
CONTINUOUS
10
5.38725
20
-4.16628
11
5.38725
21
-4.12691
0
LINE
8
BLACK
6
CONTINUOUS
10
5.38725
20
-4.12691
11
5.44237
21
-4.12691
0
LINE
8
BLACK
6
CONTINUOUS
10
5.44237
20
-4.12691
11
5.44237
21
-4.16628
0
LINE
8
BLACK
6
CONTINUOUS
10
5.7345
20
-4.1534
11
5.6835
21
-4.1534
0
LINE
8
BLACK
6
CONTINUOUS
10
5.6835
20
-4.1534
11
5.6835
21
-4.1144
0
LINE
8
BLACK
6
CONTINUOUS
10
5.6835
20
-4.1144
11
5.7345
21
-4.1144
0
LINE
8
BLACK
6
CONTINUOUS
10
5.7345
20
-4.1144
11
5.7345
21
-4.1534
0
LINE
8
BLACK
6
CONTINUOUS
10
5.6595
20
-4.1534
11
5.6085
21
-4.1534
0
LINE
8
BLACK
6
CONTINUOUS
10
5.6085
20
-4.1534
11
5.6085
21
-4.1144
0
LINE
8
BLACK
6
CONTINUOUS
10
5.6085
20
-4.1144
11
5.6595
21
-4.1144
0
LINE
8
BLACK
6
CONTINUOUS
10
5.6595
20
-4.1144
11
5.6595
21
-4.1534
0
LINE
8
BLACK
6
CONTINUOUS
10
5.7345
20
-4.0786
11
5.6835
21
-4.0786
0
LINE
8
BLACK
6
CONTINUOUS
10
5.6835
20
-4.0786
11
5.6835
21
-4.0396
0
LINE
8
BLACK
6
CONTINUOUS
10
5.6835
20
-4.0396
11
5.7345
21
-4.0396
0
LINE
8
BLACK
6
CONTINUOUS
10
5.7345
20
-4.0396
11
5.7345
21
-4.0786
0
LINE
8
BLACK
6
CONTINUOUS
10
5.6595
20
-4.0786
11
5.6085
21
-4.0786
0
LINE
8
BLACK
6
CONTINUOUS
10
5.6085
20
-4.0786
11
5.6085
21
-4.0396
0
LINE
8
BLACK
6
CONTINUOUS
10
5.6085
20
-4.0396
11
5.6595
21
-4.0396
0
LINE
8
BLACK
6
CONTINUOUS
10
5.6595
20
-4.0396
11
5.6595
21
-4.0786
0
LINE
8
BLACK
6
CONTINUOUS
10
6.27977
20
-4.0462
11
6.06323
21
-4.0462
0
LINE
8
BLACK
6
CONTINUOUS
10
6.06323
20
-4.0462
11
6.06323
21
-3.92809
0
LINE
8
BLACK
6
CONTINUOUS
10
6.06323
20
-3.92809
11
6.27977
21
-3.92809
0
LINE
8
BLACK
6
CONTINUOUS
10
6.27977
20
-3.92809
11
6.27977
21
-4.0462
0
LINE
8
BLACK
6
CONTINUOUS
10
5.797
20
-4.0409
11
5.746
21
-4.0409
0
LINE
8
BLACK
6
CONTINUOUS
10
5.746
20
-4.0409
11
5.746
21
-4.0019
0
LINE
8
BLACK
6
CONTINUOUS
10
5.746
20
-4.0019
11
5.797
21
-4.0019
0
LINE
8
BLACK
6
CONTINUOUS
10
5.797
20
-4.0019
11
5.797
21
-4.0409
0
LINE
8
BLACK
6
CONTINUOUS
10
5.6036
20
-3.997
11
5.5646
21
-3.997
0
LINE
8
BLACK
6
CONTINUOUS
10
5.5646
20
-3.997
11
5.5646
21
-3.946
0
LINE
8
BLACK
6
CONTINUOUS
10
5.5646
20
-3.946
11
5.6036
21
-3.946
0
LINE
8
BLACK
6
CONTINUOUS
10
5.6036
20
-3.946
11
5.6036
21
-3.997
0
LINE
8
BLACK
6
CONTINUOUS
10
5.6784
20
-3.997
11
5.6394
21
-3.997
0
LINE
8
BLACK
6
CONTINUOUS
10
5.6394
20
-3.997
11
5.6394
21
-3.946
0
LINE
8
BLACK
6
CONTINUOUS
10
5.6394
20
-3.946
11
5.6784
21
-3.946
0
LINE
8
BLACK
6
CONTINUOUS
10
5.6784
20
-3.946
11
5.6784
21
-3.997
0
LINE
8
BLACK
6
CONTINUOUS
10
5.797
20
-3.9661
11
5.746
21
-3.9661
0
LINE
8
BLACK
6
CONTINUOUS
10
5.746
20
-3.9661
11
5.746
21
-3.9271
0
LINE
8
BLACK
6
CONTINUOUS
10
5.746
20
-3.9271
11
5.797
21
-3.9271
0
LINE
8
BLACK
6
CONTINUOUS
10
5.797
20
-3.9271
11
5.797
21
-3.9661
0
LINE
8
BLACK
6
CONTINUOUS
10
5.6411
20
-3.922
11
5.6021
21
-3.922
0
LINE
8
BLACK
6
CONTINUOUS
10
5.6021
20
-3.922
11
5.6021
21
-3.871
0
LINE
8
BLACK
6
CONTINUOUS
10
5.6021
20
-3.871
11
5.6411
21
-3.871
0
LINE
8
BLACK
6
CONTINUOUS
10
5.6411
20
-3.871
11
5.6411
21
-3.922
0
LINE
8
BLACK
6
CONTINUOUS
10
5.7159
20
-3.922
11
5.6769
21
-3.922
0
LINE
8
BLACK
6
CONTINUOUS
10
5.6769
20
-3.922
11
5.6769
21
-3.871
0
LINE
8
BLACK
6
CONTINUOUS
10
5.6769
20
-3.871
11
5.7159
21
-3.871
0
LINE
8
BLACK
6
CONTINUOUS
10
5.7159
20
-3.871
11
5.7159
21
-3.922
0
LINE
8
BLACK
6
CONTINUOUS
10
6.409
20
-3.864
11
6.309
21
-3.864
0
LINE
8
BLACK
6
CONTINUOUS
10
6.309
20
-3.864
11
6.309
21
-3.779
0
LINE
8
BLACK
6
CONTINUOUS
10
6.309
20
-3.779
11
6.409
21
-3.779
0
LINE
8
BLACK
6
CONTINUOUS
10
6.409
20
-3.779
11
6.409
21
-3.864
0
LINE
8
BLACK
6
CONTINUOUS
10
6.209
20
-3.864
11
6.109
21
-3.864
0
LINE
8
BLACK
6
CONTINUOUS
10
6.109
20
-3.864
11
6.109
21
-3.779
0
LINE
8
BLACK
6
CONTINUOUS
10
6.109
20
-3.779
11
6.209
21
-3.779
0
LINE
8
BLACK
6
CONTINUOUS
10
6.209
20
-3.779
11
6.209
21
-3.864
0
LINE
8
BLACK
6
CONTINUOUS
10
5.6784
20
-3.847
11
5.6394
21
-3.847
0
LINE
8
BLACK
6
CONTINUOUS
10
5.6394
20
-3.847
11
5.6394
21
-3.796
0
LINE
8
BLACK
6
CONTINUOUS
10
5.6394
20
-3.796
11
5.6784
21
-3.796
0
LINE
8
BLACK
6
CONTINUOUS
10
5.6784
20
-3.796
11
5.6784
21
-3.847
0
LINE
8
BLACK
6
CONTINUOUS
10
5.6036
20
-3.847
11
5.5646
21
-3.847
0
LINE
8
BLACK
6
CONTINUOUS
10
5.5646
20
-3.847
11
5.5646
21
-3.796
0
LINE
8
BLACK
6
CONTINUOUS
10
5.5646
20
-3.796
11
5.6036
21
-3.796
0
LINE
8
BLACK
6
CONTINUOUS
10
5.6036
20
-3.796
11
5.6036
21
-3.847
0
LINE
8
BLACK
6
CONTINUOUS
10
5.7265
20
-3.759
11
5.6415
21
-3.759
0
LINE
8
BLACK
6
CONTINUOUS
10
5.6415
20
-3.759
11
5.6415
21
-3.659
0
LINE
8
BLACK
6
CONTINUOUS
10
5.6415
20
-3.659
11
5.7265
21
-3.659
0
LINE
8
BLACK
6
CONTINUOUS
10
5.7265
20
-3.659
11
5.7265
21
-3.759
0
LINE
8
BLACK
6
CONTINUOUS
10
6.1536
20
-3.7345
11
6.1146
21
-3.7345
0
LINE
8
BLACK
6
CONTINUOUS
10
6.1146
20
-3.7345
11
6.1146
21
-3.6835
0
LINE
8
BLACK
6
CONTINUOUS
10
6.1146
20
-3.6835
11
6.1536
21
-3.6835
0
LINE
8
BLACK
6
CONTINUOUS
10
6.1536
20
-3.6835
11
6.1536
21
-3.7345
0
LINE
8
BLACK
6
CONTINUOUS
10
6.2284
20
-3.7345
11
6.1894
21
-3.7345
0
LINE
8
BLACK
6
CONTINUOUS
10
6.1894
20
-3.7345
11
6.1894
21
-3.6835
0
LINE
8
BLACK
6
CONTINUOUS
10
6.1894
20
-3.6835
11
6.2284
21
-3.6835
0
LINE
8
BLACK
6
CONTINUOUS
10
6.2284
20
-3.6835
11
6.2284
21
-3.7345
0
LINE
8
BLACK
6
CONTINUOUS
10
5.7265
20
-3.559
11
5.6415
21
-3.559
0
LINE
8
BLACK
6
CONTINUOUS
10
5.6415
20
-3.559
11
5.6415
21
-3.459
0
LINE
8
BLACK
6
CONTINUOUS
10
5.6415
20
-3.459
11
5.7265
21
-3.459
0
LINE
8
BLACK
6
CONTINUOUS
10
5.7265
20
-3.459
11
5.7265
21
-3.559
  0
ENDSEC
  0
EOF
