  0
SECTION
  2
HEADER
  9
$ANGBASE
  50
0.0
  9
$ANGDIR
  70
1
  9
$MEASUREMENT
  70
0
  0
ENDSEC
  0
SECTION
  2
TABLES
  0
TABLE
  2
LTYPE
  70
4
  0
LTYPE
  5
40F
  2
CONTINUOUS
  70
0
  3
Solid line
  72
65
  73
0
  40
0.0
  0
LTYPE
  5
410
  2
DASHDOT
 70
0
  3
Dash Dot ____ _ ____ _
 72
65
 73
4
 40
2.0
 49
1.25
 49
-0.25
 49
0.25
 49
-0.25
  0
LTYPE
  5
411
  2
DASHED
 70
0
  3
Dashed __ __ __ __ __
 72
65
 73
2
 40
0.75
 49
0.5
 49
-0.25
  0
LTYPE
  5
43B
  2
DOTTED
 70
0
  3
Dotted .  .  .  .
 72
65
 73
2
 40
0.2
 49
0.0
 49
-0.2
  0
ENDTAB
  0
TABLE
  2
STYLE
  70
4
  0
STYLE
  2
KICAD
  70
0
  40
0
  41
1
  42
1
  50
0
  71
0
  3
isocp.shx
  0
STYLE
  2
KICADB
  70
0
  40
0
  41
1
  42
1
  50
0
  71
0
  3
isocp.shx
  0
STYLE
  2
KICADI
  70
0
  40
0
  41
1
  42
1
  50
15
  71
0
  3
isocp.shx
  0
STYLE
  2
KICADBI
  70
0
  40
0
  41
1
  42
1
  50
15
  71
0
  3
isocp.shx
  0
ENDTAB
  0
TABLE
  2
LAYER
  70
1
  0
LAYER
  2
BLACK
  70
0
  62
7
  6
CONTINUOUS
  0
ENDTAB
  0
ENDSEC
  0
SECTION
  2
ENTITIES
0
LINE
8
BLACK
6
CONTINUOUS
10
5.45515
20
-4.61621
11
5.46863
21
-4.61798
0
LINE
8
BLACK
6
CONTINUOUS
10
5.46863
20
-4.61798
11
5.48182
21
-4.62129
0
LINE
8
BLACK
6
CONTINUOUS
10
5.48182
20
-4.62129
11
5.49454
21
-4.6261
0
LINE
8
BLACK
6
CONTINUOUS
10
5.49454
20
-4.6261
11
5.50662
21
-4.63234
0
LINE
8
BLACK
6
CONTINUOUS
10
5.50662
20
-4.63234
11
5.51791
21
-4.63992
0
LINE
8
BLACK
6
CONTINUOUS
10
5.51791
20
-4.63992
11
5.52825
21
-4.64875
0
LINE
8
BLACK
6
CONTINUOUS
10
5.52825
20
-4.64875
11
5.53751
21
-4.65871
0
LINE
8
BLACK
6
CONTINUOUS
10
5.53751
20
-4.65871
11
5.54556
21
-4.66967
0
LINE
8
BLACK
6
CONTINUOUS
10
5.54556
20
-4.66967
11
5.55229
21
-4.68148
0
LINE
8
BLACK
6
CONTINUOUS
10
5.55229
20
-4.68148
11
5.55763
21
-4.69399
0
LINE
8
BLACK
6
CONTINUOUS
10
5.55763
20
-4.69399
11
5.56149
21
-4.70703
0
LINE
8
BLACK
6
CONTINUOUS
10
5.56149
20
-4.70703
11
5.56383
21
-4.72042
0
LINE
8
BLACK
6
CONTINUOUS
10
5.56383
20
-4.72042
11
5.56461
21
-4.734
0
LINE
8
BLACK
6
CONTINUOUS
10
5.56461
20
-4.734
11
5.56438
21
-4.74142
0
LINE
8
BLACK
6
CONTINUOUS
10
5.56438
20
-4.74142
11
5.56274
21
-4.75492
0
LINE
8
BLACK
6
CONTINUOUS
10
5.56274
20
-4.75492
11
5.55957
21
-4.76814
0
LINE
8
BLACK
6
CONTINUOUS
10
5.55957
20
-4.76814
11
5.5549
21
-4.78091
0
LINE
8
BLACK
6
CONTINUOUS
10
5.5549
20
-4.78091
11
5.54879
21
-4.79306
0
LINE
8
BLACK
6
CONTINUOUS
10
5.54879
20
-4.79306
11
5.54132
21
-4.80442
0
LINE
8
BLACK
6
CONTINUOUS
10
5.54132
20
-4.80442
11
5.5326
21
-4.81485
0
LINE
8
BLACK
6
CONTINUOUS
10
5.5326
20
-4.81485
11
5.52274
21
-4.82421
0
LINE
8
BLACK
6
CONTINUOUS
10
5.52274
20
-4.82421
11
5.51186
21
-4.83238
0
LINE
8
BLACK
6
CONTINUOUS
10
5.51186
20
-4.83238
11
5.50012
21
-4.83924
0
LINE
8
BLACK
6
CONTINUOUS
10
5.50012
20
-4.83924
11
5.48767
21
-4.8447
0
LINE
8
BLACK
6
CONTINUOUS
10
5.48767
20
-4.8447
11
5.47467
21
-4.8487
0
LINE
8
BLACK
6
CONTINUOUS
10
5.47467
20
-4.8487
11
5.4613
21
-4.85118
0
LINE
8
BLACK
6
CONTINUOUS
10
5.4613
20
-4.85118
11
5.44774
21
-4.8521
0
LINE
8
BLACK
6
CONTINUOUS
10
5.44774
20
-4.8521
11
5.43415
21
-4.85146
0
LINE
8
BLACK
6
CONTINUOUS
10
5.43415
20
-4.85146
11
5.42074
21
-4.84927
0
LINE
8
BLACK
6
CONTINUOUS
10
5.42074
20
-4.84927
11
5.40766
21
-4.84554
0
LINE
8
BLACK
6
CONTINUOUS
10
5.40766
20
-4.84554
11
5.39509
21
-4.84034
0
LINE
8
BLACK
6
CONTINUOUS
10
5.39509
20
-4.84034
11
5.38321
21
-4.83372
0
LINE
8
BLACK
6
CONTINUOUS
10
5.38321
20
-4.83372
11
5.37217
21
-4.82579
0
LINE
8
BLACK
6
CONTINUOUS
10
5.37217
20
-4.82579
11
5.36211
21
-4.81664
0
LINE
8
BLACK
6
CONTINUOUS
10
5.36211
20
-4.81664
11
5.35317
21
-4.80639
0
LINE
8
BLACK
6
CONTINUOUS
10
5.35317
20
-4.80639
11
5.34547
21
-4.79518
0
LINE
8
BLACK
6
CONTINUOUS
10
5.34547
20
-4.79518
11
5.33911
21
-4.78317
0
LINE
8
BLACK
6
CONTINUOUS
10
5.33911
20
-4.78317
11
5.33417
21
-4.7705
0
LINE
8
BLACK
6
CONTINUOUS
10
5.33417
20
-4.7705
11
5.33072
21
-4.75735
0
LINE
8
BLACK
6
CONTINUOUS
10
5.33072
20
-4.75735
11
5.3288
21
-4.74388
0
LINE
8
BLACK
6
CONTINUOUS
10
5.3288
20
-4.74388
11
5.32845
21
-4.73029
0
LINE
8
BLACK
6
CONTINUOUS
10
5.32845
20
-4.73029
11
5.32966
21
-4.71675
0
LINE
8
BLACK
6
CONTINUOUS
10
5.32966
20
-4.71675
11
5.33241
21
-4.70343
0
LINE
8
BLACK
6
CONTINUOUS
10
5.33241
20
-4.70343
11
5.33668
21
-4.69052
0
LINE
8
BLACK
6
CONTINUOUS
10
5.33668
20
-4.69052
11
5.34241
21
-4.67819
0
LINE
8
BLACK
6
CONTINUOUS
10
5.34241
20
-4.67819
11
5.34951
21
-4.66659
0
LINE
8
BLACK
6
CONTINUOUS
10
5.34951
20
-4.66659
11
5.3579
21
-4.65589
0
LINE
8
BLACK
6
CONTINUOUS
10
5.3579
20
-4.65589
11
5.36747
21
-4.64623
0
LINE
8
BLACK
6
CONTINUOUS
10
5.36747
20
-4.64623
11
5.37808
21
-4.63773
0
LINE
8
BLACK
6
CONTINUOUS
10
5.37808
20
-4.63773
11
5.3896
21
-4.6305
0
LINE
8
BLACK
6
CONTINUOUS
10
5.3896
20
-4.6305
11
5.40187
21
-4.62465
0
LINE
8
BLACK
6
CONTINUOUS
10
5.40187
20
-4.62465
11
5.41474
21
-4.62024
0
LINE
8
BLACK
6
CONTINUOUS
10
5.41474
20
-4.62024
11
5.42802
21
-4.61734
0
LINE
8
BLACK
6
CONTINUOUS
10
5.42802
20
-4.61734
11
5.44155
21
-4.61599
0
LINE
8
BLACK
6
CONTINUOUS
10
5.44155
20
-4.61599
11
5.45515
21
-4.61621
0
LINE
8
BLACK
6
CONTINUOUS
10
6.25515
20
-4.61621
11
6.26863
21
-4.61798
0
LINE
8
BLACK
6
CONTINUOUS
10
6.26863
20
-4.61798
11
6.28182
21
-4.62129
0
LINE
8
BLACK
6
CONTINUOUS
10
6.28182
20
-4.62129
11
6.29454
21
-4.6261
0
LINE
8
BLACK
6
CONTINUOUS
10
6.29454
20
-4.6261
11
6.30662
21
-4.63234
0
LINE
8
BLACK
6
CONTINUOUS
10
6.30662
20
-4.63234
11
6.31791
21
-4.63992
0
LINE
8
BLACK
6
CONTINUOUS
10
6.31791
20
-4.63992
11
6.32825
21
-4.64875
0
LINE
8
BLACK
6
CONTINUOUS
10
6.32825
20
-4.64875
11
6.33751
21
-4.65871
0
LINE
8
BLACK
6
CONTINUOUS
10
6.33751
20
-4.65871
11
6.34556
21
-4.66967
0
LINE
8
BLACK
6
CONTINUOUS
10
6.34556
20
-4.66967
11
6.35229
21
-4.68148
0
LINE
8
BLACK
6
CONTINUOUS
10
6.35229
20
-4.68148
11
6.35763
21
-4.69399
0
LINE
8
BLACK
6
CONTINUOUS
10
6.35763
20
-4.69399
11
6.36149
21
-4.70703
0
LINE
8
BLACK
6
CONTINUOUS
10
6.36149
20
-4.70703
11
6.36383
21
-4.72042
0
LINE
8
BLACK
6
CONTINUOUS
10
6.36383
20
-4.72042
11
6.36461
21
-4.734
0
LINE
8
BLACK
6
CONTINUOUS
10
6.36461
20
-4.734
11
6.36438
21
-4.74142
0
LINE
8
BLACK
6
CONTINUOUS
10
6.36438
20
-4.74142
11
6.36274
21
-4.75492
0
LINE
8
BLACK
6
CONTINUOUS
10
6.36274
20
-4.75492
11
6.35957
21
-4.76814
0
LINE
8
BLACK
6
CONTINUOUS
10
6.35957
20
-4.76814
11
6.3549
21
-4.78091
0
LINE
8
BLACK
6
CONTINUOUS
10
6.3549
20
-4.78091
11
6.34879
21
-4.79306
0
LINE
8
BLACK
6
CONTINUOUS
10
6.34879
20
-4.79306
11
6.34132
21
-4.80442
0
LINE
8
BLACK
6
CONTINUOUS
10
6.34132
20
-4.80442
11
6.3326
21
-4.81485
0
LINE
8
BLACK
6
CONTINUOUS
10
6.3326
20
-4.81485
11
6.32274
21
-4.82421
0
LINE
8
BLACK
6
CONTINUOUS
10
6.32274
20
-4.82421
11
6.31186
21
-4.83238
0
LINE
8
BLACK
6
CONTINUOUS
10
6.31186
20
-4.83238
11
6.30012
21
-4.83924
0
LINE
8
BLACK
6
CONTINUOUS
10
6.30012
20
-4.83924
11
6.28767
21
-4.8447
0
LINE
8
BLACK
6
CONTINUOUS
10
6.28767
20
-4.8447
11
6.27467
21
-4.8487
0
LINE
8
BLACK
6
CONTINUOUS
10
6.27467
20
-4.8487
11
6.2613
21
-4.85118
0
LINE
8
BLACK
6
CONTINUOUS
10
6.2613
20
-4.85118
11
6.24774
21
-4.8521
0
LINE
8
BLACK
6
CONTINUOUS
10
6.24774
20
-4.8521
11
6.23415
21
-4.85146
0
LINE
8
BLACK
6
CONTINUOUS
10
6.23415
20
-4.85146
11
6.22074
21
-4.84927
0
LINE
8
BLACK
6
CONTINUOUS
10
6.22074
20
-4.84927
11
6.20766
21
-4.84554
0
LINE
8
BLACK
6
CONTINUOUS
10
6.20766
20
-4.84554
11
6.19509
21
-4.84034
0
LINE
8
BLACK
6
CONTINUOUS
10
6.19509
20
-4.84034
11
6.18321
21
-4.83372
0
LINE
8
BLACK
6
CONTINUOUS
10
6.18321
20
-4.83372
11
6.17217
21
-4.82579
0
LINE
8
BLACK
6
CONTINUOUS
10
6.17217
20
-4.82579
11
6.16211
21
-4.81664
0
LINE
8
BLACK
6
CONTINUOUS
10
6.16211
20
-4.81664
11
6.15317
21
-4.80639
0
LINE
8
BLACK
6
CONTINUOUS
10
6.15317
20
-4.80639
11
6.14547
21
-4.79518
0
LINE
8
BLACK
6
CONTINUOUS
10
6.14547
20
-4.79518
11
6.13911
21
-4.78317
0
LINE
8
BLACK
6
CONTINUOUS
10
6.13911
20
-4.78317
11
6.13417
21
-4.7705
0
LINE
8
BLACK
6
CONTINUOUS
10
6.13417
20
-4.7705
11
6.13072
21
-4.75735
0
LINE
8
BLACK
6
CONTINUOUS
10
6.13072
20
-4.75735
11
6.1288
21
-4.74388
0
LINE
8
BLACK
6
CONTINUOUS
10
6.1288
20
-4.74388
11
6.12845
21
-4.73029
0
LINE
8
BLACK
6
CONTINUOUS
10
6.12845
20
-4.73029
11
6.12966
21
-4.71675
0
LINE
8
BLACK
6
CONTINUOUS
10
6.12966
20
-4.71675
11
6.13241
21
-4.70343
0
LINE
8
BLACK
6
CONTINUOUS
10
6.13241
20
-4.70343
11
6.13668
21
-4.69052
0
LINE
8
BLACK
6
CONTINUOUS
10
6.13668
20
-4.69052
11
6.14241
21
-4.67819
0
LINE
8
BLACK
6
CONTINUOUS
10
6.14241
20
-4.67819
11
6.14951
21
-4.66659
0
LINE
8
BLACK
6
CONTINUOUS
10
6.14951
20
-4.66659
11
6.1579
21
-4.65589
0
LINE
8
BLACK
6
CONTINUOUS
10
6.1579
20
-4.65589
11
6.16747
21
-4.64623
0
LINE
8
BLACK
6
CONTINUOUS
10
6.16747
20
-4.64623
11
6.17808
21
-4.63773
0
LINE
8
BLACK
6
CONTINUOUS
10
6.17808
20
-4.63773
11
6.1896
21
-4.6305
0
LINE
8
BLACK
6
CONTINUOUS
10
6.1896
20
-4.6305
11
6.20187
21
-4.62465
0
LINE
8
BLACK
6
CONTINUOUS
10
6.20187
20
-4.62465
11
6.21474
21
-4.62024
0
LINE
8
BLACK
6
CONTINUOUS
10
6.21474
20
-4.62024
11
6.22802
21
-4.61734
0
LINE
8
BLACK
6
CONTINUOUS
10
6.22802
20
-4.61734
11
6.24155
21
-4.61599
0
LINE
8
BLACK
6
CONTINUOUS
10
6.24155
20
-4.61599
11
6.25515
21
-4.61621
0
LINE
8
BLACK
6
CONTINUOUS
10
5.70693
20
-4.84945
11
5.63607
21
-4.84945
0
LINE
8
BLACK
6
CONTINUOUS
10
5.63607
20
-4.84945
11
5.63607
21
-4.75103
0
LINE
8
BLACK
6
CONTINUOUS
10
5.63607
20
-4.75103
11
5.70693
21
-4.75103
0
LINE
8
BLACK
6
CONTINUOUS
10
5.70693
20
-4.75103
11
5.70693
21
-4.84945
0
LINE
8
BLACK
6
CONTINUOUS
10
6.01803
20
-4.7228
11
6.01933
21
-4.72367
0
LINE
8
BLACK
6
CONTINUOUS
10
6.01933
20
-4.72367
11
6.0202
21
-4.72497
0
LINE
8
BLACK
6
CONTINUOUS
10
6.0202
20
-4.72497
11
6.0205
21
-4.7265
0
LINE
8
BLACK
6
CONTINUOUS
10
6.0205
20
-4.7265
11
6.0205
21
-4.7915
0
LINE
8
BLACK
6
CONTINUOUS
10
6.0205
20
-4.7915
11
6.0202
21
-4.79303
0
LINE
8
BLACK
6
CONTINUOUS
10
6.0202
20
-4.79303
11
6.01933
21
-4.79433
0
LINE
8
BLACK
6
CONTINUOUS
10
6.01933
20
-4.79433
11
6.01803
21
-4.7952
0
LINE
8
BLACK
6
CONTINUOUS
10
6.01803
20
-4.7952
11
6.0165
21
-4.7955
0
LINE
8
BLACK
6
CONTINUOUS
10
6.0165
20
-4.7955
11
5.9515
21
-4.7955
0
LINE
8
BLACK
6
CONTINUOUS
10
5.9515
20
-4.7955
11
5.94997
21
-4.7952
0
LINE
8
BLACK
6
CONTINUOUS
10
5.94997
20
-4.7952
11
5.94867
21
-4.79433
0
LINE
8
BLACK
6
CONTINUOUS
10
5.94867
20
-4.79433
11
5.9478
21
-4.79303
0
LINE
8
BLACK
6
CONTINUOUS
10
5.9478
20
-4.79303
11
5.9475
21
-4.7915
0
LINE
8
BLACK
6
CONTINUOUS
10
5.9475
20
-4.7915
11
5.9475
21
-4.7265
0
LINE
8
BLACK
6
CONTINUOUS
10
5.9475
20
-4.7265
11
5.9478
21
-4.72497
0
LINE
8
BLACK
6
CONTINUOUS
10
5.9478
20
-4.72497
11
5.94867
21
-4.72367
0
LINE
8
BLACK
6
CONTINUOUS
10
5.94867
20
-4.72367
11
5.94997
21
-4.7228
0
LINE
8
BLACK
6
CONTINUOUS
10
5.94997
20
-4.7228
11
5.9515
21
-4.7225
0
LINE
8
BLACK
6
CONTINUOUS
10
5.9515
20
-4.7225
11
6.0165
21
-4.7225
0
LINE
8
BLACK
6
CONTINUOUS
10
6.0165
20
-4.7225
11
6.01803
21
-4.7228
0
LINE
8
BLACK
6
CONTINUOUS
10
5.91803
20
-4.7228
11
5.91933
21
-4.72367
0
LINE
8
BLACK
6
CONTINUOUS
10
5.91933
20
-4.72367
11
5.9202
21
-4.72497
0
LINE
8
BLACK
6
CONTINUOUS
10
5.9202
20
-4.72497
11
5.9205
21
-4.7265
0
LINE
8
BLACK
6
CONTINUOUS
10
5.9205
20
-4.7265
11
5.9205
21
-4.7915
0
LINE
8
BLACK
6
CONTINUOUS
10
5.9205
20
-4.7915
11
5.9202
21
-4.79303
0
LINE
8
BLACK
6
CONTINUOUS
10
5.9202
20
-4.79303
11
5.91933
21
-4.79433
0
LINE
8
BLACK
6
CONTINUOUS
10
5.91933
20
-4.79433
11
5.91803
21
-4.7952
0
LINE
8
BLACK
6
CONTINUOUS
10
5.91803
20
-4.7952
11
5.9165
21
-4.7955
0
LINE
8
BLACK
6
CONTINUOUS
10
5.9165
20
-4.7955
11
5.8515
21
-4.7955
0
LINE
8
BLACK
6
CONTINUOUS
10
5.8515
20
-4.7955
11
5.84997
21
-4.7952
0
LINE
8
BLACK
6
CONTINUOUS
10
5.84997
20
-4.7952
11
5.84867
21
-4.79433
0
LINE
8
BLACK
6
CONTINUOUS
10
5.84867
20
-4.79433
11
5.8478
21
-4.79303
0
LINE
8
BLACK
6
CONTINUOUS
10
5.8478
20
-4.79303
11
5.8475
21
-4.7915
0
LINE
8
BLACK
6
CONTINUOUS
10
5.8475
20
-4.7915
11
5.8475
21
-4.7265
0
LINE
8
BLACK
6
CONTINUOUS
10
5.8475
20
-4.7265
11
5.8478
21
-4.72497
0
LINE
8
BLACK
6
CONTINUOUS
10
5.8478
20
-4.72497
11
5.84867
21
-4.72367
0
LINE
8
BLACK
6
CONTINUOUS
10
5.84867
20
-4.72367
11
5.84997
21
-4.7228
0
LINE
8
BLACK
6
CONTINUOUS
10
5.84997
20
-4.7228
11
5.8515
21
-4.7225
0
LINE
8
BLACK
6
CONTINUOUS
10
5.8515
20
-4.7225
11
5.9165
21
-4.7225
0
LINE
8
BLACK
6
CONTINUOUS
10
5.9165
20
-4.7225
11
5.91803
21
-4.7228
0
LINE
8
BLACK
6
CONTINUOUS
10
5.81803
20
-4.7228
11
5.81933
21
-4.72367
0
LINE
8
BLACK
6
CONTINUOUS
10
5.81933
20
-4.72367
11
5.8202
21
-4.72497
0
LINE
8
BLACK
6
CONTINUOUS
10
5.8202
20
-4.72497
11
5.8205
21
-4.7265
0
LINE
8
BLACK
6
CONTINUOUS
10
5.8205
20
-4.7265
11
5.8205
21
-4.7915
0
LINE
8
BLACK
6
CONTINUOUS
10
5.8205
20
-4.7915
11
5.8202
21
-4.79303
0
LINE
8
BLACK
6
CONTINUOUS
10
5.8202
20
-4.79303
11
5.81933
21
-4.79433
0
LINE
8
BLACK
6
CONTINUOUS
10
5.81933
20
-4.79433
11
5.81803
21
-4.7952
0
LINE
8
BLACK
6
CONTINUOUS
10
5.81803
20
-4.7952
11
5.8165
21
-4.7955
0
LINE
8
BLACK
6
CONTINUOUS
10
5.8165
20
-4.7955
11
5.7515
21
-4.7955
0
LINE
8
BLACK
6
CONTINUOUS
10
5.7515
20
-4.7955
11
5.74997
21
-4.7952
0
LINE
8
BLACK
6
CONTINUOUS
10
5.74997
20
-4.7952
11
5.74867
21
-4.79433
0
LINE
8
BLACK
6
CONTINUOUS
10
5.74867
20
-4.79433
11
5.7478
21
-4.79303
0
LINE
8
BLACK
6
CONTINUOUS
10
5.7478
20
-4.79303
11
5.7475
21
-4.7915
0
LINE
8
BLACK
6
CONTINUOUS
10
5.7475
20
-4.7915
11
5.7475
21
-4.7265
0
LINE
8
BLACK
6
CONTINUOUS
10
5.7475
20
-4.7265
11
5.7478
21
-4.72497
0
LINE
8
BLACK
6
CONTINUOUS
10
5.7478
20
-4.72497
11
5.74867
21
-4.72367
0
LINE
8
BLACK
6
CONTINUOUS
10
5.74867
20
-4.72367
11
5.74997
21
-4.7228
0
LINE
8
BLACK
6
CONTINUOUS
10
5.74997
20
-4.7228
11
5.7515
21
-4.7225
0
LINE
8
BLACK
6
CONTINUOUS
10
5.7515
20
-4.7225
11
5.8165
21
-4.7225
0
LINE
8
BLACK
6
CONTINUOUS
10
5.8165
20
-4.7225
11
5.81803
21
-4.7228
0
LINE
8
BLACK
6
CONTINUOUS
10
6.01803
20
-4.6228
11
6.01933
21
-4.62367
0
LINE
8
BLACK
6
CONTINUOUS
10
6.01933
20
-4.62367
11
6.0202
21
-4.62497
0
LINE
8
BLACK
6
CONTINUOUS
10
6.0202
20
-4.62497
11
6.0205
21
-4.6265
0
LINE
8
BLACK
6
CONTINUOUS
10
6.0205
20
-4.6265
11
6.0205
21
-4.6915
0
LINE
8
BLACK
6
CONTINUOUS
10
6.0205
20
-4.6915
11
6.0202
21
-4.69303
0
LINE
8
BLACK
6
CONTINUOUS
10
6.0202
20
-4.69303
11
6.01933
21
-4.69433
0
LINE
8
BLACK
6
CONTINUOUS
10
6.01933
20
-4.69433
11
6.01803
21
-4.6952
0
LINE
8
BLACK
6
CONTINUOUS
10
6.01803
20
-4.6952
11
6.0165
21
-4.6955
0
LINE
8
BLACK
6
CONTINUOUS
10
6.0165
20
-4.6955
11
5.9515
21
-4.6955
0
LINE
8
BLACK
6
CONTINUOUS
10
5.9515
20
-4.6955
11
5.94997
21
-4.6952
0
LINE
8
BLACK
6
CONTINUOUS
10
5.94997
20
-4.6952
11
5.94867
21
-4.69433
0
LINE
8
BLACK
6
CONTINUOUS
10
5.94867
20
-4.69433
11
5.9478
21
-4.69303
0
LINE
8
BLACK
6
CONTINUOUS
10
5.9478
20
-4.69303
11
5.9475
21
-4.6915
0
LINE
8
BLACK
6
CONTINUOUS
10
5.9475
20
-4.6915
11
5.9475
21
-4.6265
0
LINE
8
BLACK
6
CONTINUOUS
10
5.9475
20
-4.6265
11
5.9478
21
-4.62497
0
LINE
8
BLACK
6
CONTINUOUS
10
5.9478
20
-4.62497
11
5.94867
21
-4.62367
0
LINE
8
BLACK
6
CONTINUOUS
10
5.94867
20
-4.62367
11
5.94997
21
-4.6228
0
LINE
8
BLACK
6
CONTINUOUS
10
5.94997
20
-4.6228
11
5.9515
21
-4.6225
0
LINE
8
BLACK
6
CONTINUOUS
10
5.9515
20
-4.6225
11
6.0165
21
-4.6225
0
LINE
8
BLACK
6
CONTINUOUS
10
6.0165
20
-4.6225
11
6.01803
21
-4.6228
0
LINE
8
BLACK
6
CONTINUOUS
10
5.91803
20
-4.6228
11
5.91933
21
-4.62367
0
LINE
8
BLACK
6
CONTINUOUS
10
5.91933
20
-4.62367
11
5.9202
21
-4.62497
0
LINE
8
BLACK
6
CONTINUOUS
10
5.9202
20
-4.62497
11
5.9205
21
-4.6265
0
LINE
8
BLACK
6
CONTINUOUS
10
5.9205
20
-4.6265
11
5.9205
21
-4.6915
0
LINE
8
BLACK
6
CONTINUOUS
10
5.9205
20
-4.6915
11
5.9202
21
-4.69303
0
LINE
8
BLACK
6
CONTINUOUS
10
5.9202
20
-4.69303
11
5.91933
21
-4.69433
0
LINE
8
BLACK
6
CONTINUOUS
10
5.91933
20
-4.69433
11
5.91803
21
-4.6952
0
LINE
8
BLACK
6
CONTINUOUS
10
5.91803
20
-4.6952
11
5.9165
21
-4.6955
0
LINE
8
BLACK
6
CONTINUOUS
10
5.9165
20
-4.6955
11
5.8515
21
-4.6955
0
LINE
8
BLACK
6
CONTINUOUS
10
5.8515
20
-4.6955
11
5.84997
21
-4.6952
0
LINE
8
BLACK
6
CONTINUOUS
10
5.84997
20
-4.6952
11
5.84867
21
-4.69433
0
LINE
8
BLACK
6
CONTINUOUS
10
5.84867
20
-4.69433
11
5.8478
21
-4.69303
0
LINE
8
BLACK
6
CONTINUOUS
10
5.8478
20
-4.69303
11
5.8475
21
-4.6915
0
LINE
8
BLACK
6
CONTINUOUS
10
5.8475
20
-4.6915
11
5.8475
21
-4.6265
0
LINE
8
BLACK
6
CONTINUOUS
10
5.8475
20
-4.6265
11
5.8478
21
-4.62497
0
LINE
8
BLACK
6
CONTINUOUS
10
5.8478
20
-4.62497
11
5.84867
21
-4.62367
0
LINE
8
BLACK
6
CONTINUOUS
10
5.84867
20
-4.62367
11
5.84997
21
-4.6228
0
LINE
8
BLACK
6
CONTINUOUS
10
5.84997
20
-4.6228
11
5.8515
21
-4.6225
0
LINE
8
BLACK
6
CONTINUOUS
10
5.8515
20
-4.6225
11
5.9165
21
-4.6225
0
LINE
8
BLACK
6
CONTINUOUS
10
5.9165
20
-4.6225
11
5.91803
21
-4.6228
0
LINE
8
BLACK
6
CONTINUOUS
10
5.81803
20
-4.6228
11
5.81933
21
-4.62367
0
LINE
8
BLACK
6
CONTINUOUS
10
5.81933
20
-4.62367
11
5.8202
21
-4.62497
0
LINE
8
BLACK
6
CONTINUOUS
10
5.8202
20
-4.62497
11
5.8205
21
-4.6265
0
LINE
8
BLACK
6
CONTINUOUS
10
5.8205
20
-4.6265
11
5.8205
21
-4.6915
0
LINE
8
BLACK
6
CONTINUOUS
10
5.8205
20
-4.6915
11
5.8202
21
-4.69303
0
LINE
8
BLACK
6
CONTINUOUS
10
5.8202
20
-4.69303
11
5.81933
21
-4.69433
0
LINE
8
BLACK
6
CONTINUOUS
10
5.81933
20
-4.69433
11
5.81803
21
-4.6952
0
LINE
8
BLACK
6
CONTINUOUS
10
5.81803
20
-4.6952
11
5.8165
21
-4.6955
0
LINE
8
BLACK
6
CONTINUOUS
10
5.8165
20
-4.6955
11
5.7515
21
-4.6955
0
LINE
8
BLACK
6
CONTINUOUS
10
5.7515
20
-4.6955
11
5.74997
21
-4.6952
0
LINE
8
BLACK
6
CONTINUOUS
10
5.74997
20
-4.6952
11
5.74867
21
-4.69433
0
LINE
8
BLACK
6
CONTINUOUS
10
5.74867
20
-4.69433
11
5.7478
21
-4.69303
0
LINE
8
BLACK
6
CONTINUOUS
10
5.7478
20
-4.69303
11
5.7475
21
-4.6915
0
LINE
8
BLACK
6
CONTINUOUS
10
5.7475
20
-4.6915
11
5.7475
21
-4.6265
0
LINE
8
BLACK
6
CONTINUOUS
10
5.7475
20
-4.6265
11
5.7478
21
-4.62497
0
LINE
8
BLACK
6
CONTINUOUS
10
5.7478
20
-4.62497
11
5.74867
21
-4.62367
0
LINE
8
BLACK
6
CONTINUOUS
10
5.74867
20
-4.62367
11
5.74997
21
-4.6228
0
LINE
8
BLACK
6
CONTINUOUS
10
5.74997
20
-4.6228
11
5.7515
21
-4.6225
0
LINE
8
BLACK
6
CONTINUOUS
10
5.7515
20
-4.6225
11
5.8165
21
-4.6225
0
LINE
8
BLACK
6
CONTINUOUS
10
5.8165
20
-4.6225
11
5.81803
21
-4.6228
0
LINE
8
BLACK
6
CONTINUOUS
10
5.70693
20
-4.69197
11
5.63607
21
-4.69197
0
LINE
8
BLACK
6
CONTINUOUS
10
5.63607
20
-4.69197
11
5.63607
21
-4.59355
0
LINE
8
BLACK
6
CONTINUOUS
10
5.63607
20
-4.59355
11
5.70693
21
-4.59355
0
LINE
8
BLACK
6
CONTINUOUS
10
5.70693
20
-4.59355
11
5.70693
21
-4.69197
0
LINE
8
BLACK
6
CONTINUOUS
10
5.56063
20
-4.58693
11
5.48583
21
-4.58693
0
LINE
8
BLACK
6
CONTINUOUS
10
5.48583
20
-4.58693
11
5.48583
21
-4.45307
0
LINE
8
BLACK
6
CONTINUOUS
10
5.48583
20
-4.45307
11
5.56063
21
-4.45307
0
LINE
8
BLACK
6
CONTINUOUS
10
5.56063
20
-4.45307
11
5.56063
21
-4.58693
0
LINE
8
BLACK
6
CONTINUOUS
10
5.71417
20
-4.58693
11
5.63937
21
-4.58693
0
LINE
8
BLACK
6
CONTINUOUS
10
5.63937
20
-4.58693
11
5.63937
21
-4.45307
0
LINE
8
BLACK
6
CONTINUOUS
10
5.63937
20
-4.45307
11
5.71417
21
-4.45307
0
LINE
8
BLACK
6
CONTINUOUS
10
5.71417
20
-4.45307
11
5.71417
21
-4.58693
0
LINE
8
BLACK
6
CONTINUOUS
10
5.41803
20
-4.4728
11
5.41933
21
-4.47367
0
LINE
8
BLACK
6
CONTINUOUS
10
5.41933
20
-4.47367
11
5.4202
21
-4.47497
0
LINE
8
BLACK
6
CONTINUOUS
10
5.4202
20
-4.47497
11
5.4205
21
-4.4765
0
LINE
8
BLACK
6
CONTINUOUS
10
5.4205
20
-4.4765
11
5.4205
21
-4.5415
0
LINE
8
BLACK
6
CONTINUOUS
10
5.4205
20
-4.5415
11
5.4202
21
-4.54303
0
LINE
8
BLACK
6
CONTINUOUS
10
5.4202
20
-4.54303
11
5.41933
21
-4.54433
0
LINE
8
BLACK
6
CONTINUOUS
10
5.41933
20
-4.54433
11
5.41803
21
-4.5452
0
LINE
8
BLACK
6
CONTINUOUS
10
5.41803
20
-4.5452
11
5.4165
21
-4.5455
0
LINE
8
BLACK
6
CONTINUOUS
10
5.4165
20
-4.5455
11
5.3515
21
-4.5455
0
LINE
8
BLACK
6
CONTINUOUS
10
5.3515
20
-4.5455
11
5.34997
21
-4.5452
0
LINE
8
BLACK
6
CONTINUOUS
10
5.34997
20
-4.5452
11
5.34867
21
-4.54433
0
LINE
8
BLACK
6
CONTINUOUS
10
5.34867
20
-4.54433
11
5.3478
21
-4.54303
0
LINE
8
BLACK
6
CONTINUOUS
10
5.3478
20
-4.54303
11
5.3475
21
-4.5415
0
LINE
8
BLACK
6
CONTINUOUS
10
5.3475
20
-4.5415
11
5.3475
21
-4.4765
0
LINE
8
BLACK
6
CONTINUOUS
10
5.3475
20
-4.4765
11
5.3478
21
-4.47497
0
LINE
8
BLACK
6
CONTINUOUS
10
5.3478
20
-4.47497
11
5.34867
21
-4.47367
0
LINE
8
BLACK
6
CONTINUOUS
10
5.34867
20
-4.47367
11
5.34997
21
-4.4728
0
LINE
8
BLACK
6
CONTINUOUS
10
5.34997
20
-4.4728
11
5.3515
21
-4.4725
0
LINE
8
BLACK
6
CONTINUOUS
10
5.3515
20
-4.4725
11
5.4165
21
-4.4725
0
LINE
8
BLACK
6
CONTINUOUS
10
5.4165
20
-4.4725
11
5.41803
21
-4.4728
0
LINE
8
BLACK
6
CONTINUOUS
10
5.41803
20
-4.3728
11
5.41933
21
-4.37367
0
LINE
8
BLACK
6
CONTINUOUS
10
5.41933
20
-4.37367
11
5.4202
21
-4.37497
0
LINE
8
BLACK
6
CONTINUOUS
10
5.4202
20
-4.37497
11
5.4205
21
-4.3765
0
LINE
8
BLACK
6
CONTINUOUS
10
5.4205
20
-4.3765
11
5.4205
21
-4.4415
0
LINE
8
BLACK
6
CONTINUOUS
10
5.4205
20
-4.4415
11
5.4202
21
-4.44303
0
LINE
8
BLACK
6
CONTINUOUS
10
5.4202
20
-4.44303
11
5.41933
21
-4.44433
0
LINE
8
BLACK
6
CONTINUOUS
10
5.41933
20
-4.44433
11
5.41803
21
-4.4452
0
LINE
8
BLACK
6
CONTINUOUS
10
5.41803
20
-4.4452
11
5.4165
21
-4.4455
0
LINE
8
BLACK
6
CONTINUOUS
10
5.4165
20
-4.4455
11
5.3515
21
-4.4455
0
LINE
8
BLACK
6
CONTINUOUS
10
5.3515
20
-4.4455
11
5.34997
21
-4.4452
0
LINE
8
BLACK
6
CONTINUOUS
10
5.34997
20
-4.4452
11
5.34867
21
-4.44433
0
LINE
8
BLACK
6
CONTINUOUS
10
5.34867
20
-4.44433
11
5.3478
21
-4.44303
0
LINE
8
BLACK
6
CONTINUOUS
10
5.3478
20
-4.44303
11
5.3475
21
-4.4415
0
LINE
8
BLACK
6
CONTINUOUS
10
5.3475
20
-4.4415
11
5.3475
21
-4.3765
0
LINE
8
BLACK
6
CONTINUOUS
10
5.3475
20
-4.3765
11
5.3478
21
-4.37497
0
LINE
8
BLACK
6
CONTINUOUS
10
5.3478
20
-4.37497
11
5.34867
21
-4.37367
0
LINE
8
BLACK
6
CONTINUOUS
10
5.34867
20
-4.37367
11
5.34997
21
-4.3728
0
LINE
8
BLACK
6
CONTINUOUS
10
5.34997
20
-4.3728
11
5.3515
21
-4.3725
0
LINE
8
BLACK
6
CONTINUOUS
10
5.3515
20
-4.3725
11
5.4165
21
-4.3725
0
LINE
8
BLACK
6
CONTINUOUS
10
5.4165
20
-4.3725
11
5.41803
21
-4.3728
0
LINE
8
BLACK
6
CONTINUOUS
10
6.27977
20
-4.43991
11
6.06323
21
-4.43991
0
LINE
8
BLACK
6
CONTINUOUS
10
6.06323
20
-4.43991
11
6.06323
21
-4.3218
0
LINE
8
BLACK
6
CONTINUOUS
10
6.06323
20
-4.3218
11
6.27977
21
-4.3218
0
LINE
8
BLACK
6
CONTINUOUS
10
6.27977
20
-4.3218
11
6.27977
21
-4.43991
0
LINE
8
BLACK
6
CONTINUOUS
10
5.5582
20
-4.4336
11
5.4598
21
-4.4336
0
LINE
8
BLACK
6
CONTINUOUS
10
5.4598
20
-4.4336
11
5.4598
21
-4.3332
0
LINE
8
BLACK
6
CONTINUOUS
10
5.4598
20
-4.3332
11
5.5582
21
-4.3332
0
LINE
8
BLACK
6
CONTINUOUS
10
5.5582
20
-4.3332
11
5.5582
21
-4.4336
0
LINE
8
BLACK
6
CONTINUOUS
10
5.91001
20
-4.36871
11
5.9132
21
-4.37084
0
LINE
8
BLACK
6
CONTINUOUS
10
5.9132
20
-4.37084
11
5.91534
21
-4.37403
0
LINE
8
BLACK
6
CONTINUOUS
10
5.91534
20
-4.37403
11
5.91609
21
-4.3778
0
LINE
8
BLACK
6
CONTINUOUS
10
5.91609
20
-4.3778
11
5.91609
21
-4.4152
0
LINE
8
BLACK
6
CONTINUOUS
10
5.91609
20
-4.4152
11
5.91534
21
-4.41897
0
LINE
8
BLACK
6
CONTINUOUS
10
5.91534
20
-4.41897
11
5.9132
21
-4.42216
0
LINE
8
BLACK
6
CONTINUOUS
10
5.9132
20
-4.42216
11
5.91001
21
-4.42429
0
LINE
8
BLACK
6
CONTINUOUS
10
5.91001
20
-4.42429
11
5.90624
21
-4.42504
0
LINE
8
BLACK
6
CONTINUOUS
10
5.90624
20
-4.42504
11
5.88656
21
-4.42504
0
LINE
8
BLACK
6
CONTINUOUS
10
5.88656
20
-4.42504
11
5.88279
21
-4.42429
0
LINE
8
BLACK
6
CONTINUOUS
10
5.88279
20
-4.42429
11
5.8796
21
-4.42216
0
LINE
8
BLACK
6
CONTINUOUS
10
5.8796
20
-4.42216
11
5.87747
21
-4.41897
0
LINE
8
BLACK
6
CONTINUOUS
10
5.87747
20
-4.41897
11
5.87672
21
-4.4152
0
LINE
8
BLACK
6
CONTINUOUS
10
5.87672
20
-4.4152
11
5.87672
21
-4.3778
0
LINE
8
BLACK
6
CONTINUOUS
10
5.87672
20
-4.3778
11
5.87747
21
-4.37403
0
LINE
8
BLACK
6
CONTINUOUS
10
5.87747
20
-4.37403
11
5.8796
21
-4.37084
0
LINE
8
BLACK
6
CONTINUOUS
10
5.8796
20
-4.37084
11
5.88279
21
-4.36871
0
LINE
8
BLACK
6
CONTINUOUS
10
5.88279
20
-4.36871
11
5.88656
21
-4.36796
0
LINE
8
BLACK
6
CONTINUOUS
10
5.88656
20
-4.36796
11
5.90624
21
-4.36796
0
LINE
8
BLACK
6
CONTINUOUS
10
5.90624
20
-4.36796
11
5.91001
21
-4.36871
0
LINE
8
BLACK
6
CONTINUOUS
10
5.83521
20
-4.36871
11
5.8384
21
-4.37084
0
LINE
8
BLACK
6
CONTINUOUS
10
5.8384
20
-4.37084
11
5.84053
21
-4.37403
0
LINE
8
BLACK
6
CONTINUOUS
10
5.84053
20
-4.37403
11
5.84128
21
-4.3778
0
LINE
8
BLACK
6
CONTINUOUS
10
5.84128
20
-4.3778
11
5.84128
21
-4.4152
0
LINE
8
BLACK
6
CONTINUOUS
10
5.84128
20
-4.4152
11
5.84053
21
-4.41897
0
LINE
8
BLACK
6
CONTINUOUS
10
5.84053
20
-4.41897
11
5.8384
21
-4.42216
0
LINE
8
BLACK
6
CONTINUOUS
10
5.8384
20
-4.42216
11
5.83521
21
-4.42429
0
LINE
8
BLACK
6
CONTINUOUS
10
5.83521
20
-4.42429
11
5.83144
21
-4.42504
0
LINE
8
BLACK
6
CONTINUOUS
10
5.83144
20
-4.42504
11
5.81176
21
-4.42504
0
LINE
8
BLACK
6
CONTINUOUS
10
5.81176
20
-4.42504
11
5.80799
21
-4.42429
0
LINE
8
BLACK
6
CONTINUOUS
10
5.80799
20
-4.42429
11
5.8048
21
-4.42216
0
LINE
8
BLACK
6
CONTINUOUS
10
5.8048
20
-4.42216
11
5.80266
21
-4.41897
0
LINE
8
BLACK
6
CONTINUOUS
10
5.80266
20
-4.41897
11
5.80191
21
-4.4152
0
LINE
8
BLACK
6
CONTINUOUS
10
5.80191
20
-4.4152
11
5.80191
21
-4.3778
0
LINE
8
BLACK
6
CONTINUOUS
10
5.80191
20
-4.3778
11
5.80266
21
-4.37403
0
LINE
8
BLACK
6
CONTINUOUS
10
5.80266
20
-4.37403
11
5.8048
21
-4.37084
0
LINE
8
BLACK
6
CONTINUOUS
10
5.8048
20
-4.37084
11
5.80799
21
-4.36871
0
LINE
8
BLACK
6
CONTINUOUS
10
5.80799
20
-4.36871
11
5.81176
21
-4.36796
0
LINE
8
BLACK
6
CONTINUOUS
10
5.81176
20
-4.36796
11
5.83144
21
-4.36796
0
LINE
8
BLACK
6
CONTINUOUS
10
5.83144
20
-4.36796
11
5.83521
21
-4.36871
0
LINE
8
BLACK
6
CONTINUOUS
10
5.41803
20
-4.2728
11
5.41933
21
-4.27367
0
LINE
8
BLACK
6
CONTINUOUS
10
5.41933
20
-4.27367
11
5.4202
21
-4.27497
0
LINE
8
BLACK
6
CONTINUOUS
10
5.4202
20
-4.27497
11
5.4205
21
-4.2765
0
LINE
8
BLACK
6
CONTINUOUS
10
5.4205
20
-4.2765
11
5.4205
21
-4.3415
0
LINE
8
BLACK
6
CONTINUOUS
10
5.4205
20
-4.3415
11
5.4202
21
-4.34303
0
LINE
8
BLACK
6
CONTINUOUS
10
5.4202
20
-4.34303
11
5.41933
21
-4.34433
0
LINE
8
BLACK
6
CONTINUOUS
10
5.41933
20
-4.34433
11
5.41803
21
-4.3452
0
LINE
8
BLACK
6
CONTINUOUS
10
5.41803
20
-4.3452
11
5.4165
21
-4.3455
0
LINE
8
BLACK
6
CONTINUOUS
10
5.4165
20
-4.3455
11
5.3515
21
-4.3455
0
LINE
8
BLACK
6
CONTINUOUS
10
5.3515
20
-4.3455
11
5.34997
21
-4.3452
0
LINE
8
BLACK
6
CONTINUOUS
10
5.34997
20
-4.3452
11
5.34867
21
-4.34433
0
LINE
8
BLACK
6
CONTINUOUS
10
5.34867
20
-4.34433
11
5.3478
21
-4.34303
0
LINE
8
BLACK
6
CONTINUOUS
10
5.3478
20
-4.34303
11
5.3475
21
-4.3415
0
LINE
8
BLACK
6
CONTINUOUS
10
5.3475
20
-4.3415
11
5.3475
21
-4.2765
0
LINE
8
BLACK
6
CONTINUOUS
10
5.3475
20
-4.2765
11
5.3478
21
-4.27497
0
LINE
8
BLACK
6
CONTINUOUS
10
5.3478
20
-4.27497
11
5.34867
21
-4.27367
0
LINE
8
BLACK
6
CONTINUOUS
10
5.34867
20
-4.27367
11
5.34997
21
-4.2728
0
LINE
8
BLACK
6
CONTINUOUS
10
5.34997
20
-4.2728
11
5.3515
21
-4.2725
0
LINE
8
BLACK
6
CONTINUOUS
10
5.3515
20
-4.2725
11
5.4165
21
-4.2725
0
LINE
8
BLACK
6
CONTINUOUS
10
5.4165
20
-4.2725
11
5.41803
21
-4.2728
0
LINE
8
BLACK
6
CONTINUOUS
10
5.82956
20
-4.28486
11
5.82896
21
-4.28575
0
LINE
8
BLACK
6
CONTINUOUS
10
5.82896
20
-4.28575
11
5.82807
21
-4.28635
0
LINE
8
BLACK
6
CONTINUOUS
10
5.82807
20
-4.28635
11
5.82701
21
-4.28656
0
LINE
8
BLACK
6
CONTINUOUS
10
5.82701
20
-4.28656
11
5.81599
21
-4.28656
0
LINE
8
BLACK
6
CONTINUOUS
10
5.81599
20
-4.28656
11
5.81493
21
-4.28635
0
LINE
8
BLACK
6
CONTINUOUS
10
5.81493
20
-4.28635
11
5.81404
21
-4.28575
0
LINE
8
BLACK
6
CONTINUOUS
10
5.81404
20
-4.28575
11
5.81344
21
-4.28486
0
LINE
8
BLACK
6
CONTINUOUS
10
5.81344
20
-4.28486
11
5.81323
21
-4.2838
0
LINE
8
BLACK
6
CONTINUOUS
10
5.81323
20
-4.2838
11
5.81323
21
-4.25585
0
LINE
8
BLACK
6
CONTINUOUS
10
5.81323
20
-4.25585
11
5.81386
21
-4.25269
0
LINE
8
BLACK
6
CONTINUOUS
10
5.81386
20
-4.25269
11
5.81565
21
-4.25
0
LINE
8
BLACK
6
CONTINUOUS
10
5.81565
20
-4.25
11
5.81834
21
-4.24821
0
LINE
8
BLACK
6
CONTINUOUS
10
5.81834
20
-4.24821
11
5.8215
21
-4.24758
0
LINE
8
BLACK
6
CONTINUOUS
10
5.8215
20
-4.24758
11
5.82466
21
-4.24821
0
LINE
8
BLACK
6
CONTINUOUS
10
5.82466
20
-4.24821
11
5.82735
21
-4.25
0
LINE
8
BLACK
6
CONTINUOUS
10
5.82735
20
-4.25
11
5.82914
21
-4.25269
0
LINE
8
BLACK
6
CONTINUOUS
10
5.82914
20
-4.25269
11
5.82977
21
-4.25585
0
LINE
8
BLACK
6
CONTINUOUS
10
5.82977
20
-4.25585
11
5.82977
21
-4.2838
0
LINE
8
BLACK
6
CONTINUOUS
10
5.82977
20
-4.2838
11
5.82956
21
-4.28486
0
LINE
8
BLACK
6
CONTINUOUS
10
5.86893
20
-4.28486
11
5.86833
21
-4.28575
0
LINE
8
BLACK
6
CONTINUOUS
10
5.86833
20
-4.28575
11
5.86744
21
-4.28635
0
LINE
8
BLACK
6
CONTINUOUS
10
5.86744
20
-4.28635
11
5.86638
21
-4.28656
0
LINE
8
BLACK
6
CONTINUOUS
10
5.86638
20
-4.28656
11
5.85536
21
-4.28656
0
LINE
8
BLACK
6
CONTINUOUS
10
5.85536
20
-4.28656
11
5.8543
21
-4.28635
0
LINE
8
BLACK
6
CONTINUOUS
10
5.8543
20
-4.28635
11
5.85341
21
-4.28575
0
LINE
8
BLACK
6
CONTINUOUS
10
5.85341
20
-4.28575
11
5.85281
21
-4.28486
0
LINE
8
BLACK
6
CONTINUOUS
10
5.85281
20
-4.28486
11
5.8526
21
-4.2838
0
LINE
8
BLACK
6
CONTINUOUS
10
5.8526
20
-4.2838
11
5.8526
21
-4.25585
0
LINE
8
BLACK
6
CONTINUOUS
10
5.8526
20
-4.25585
11
5.85323
21
-4.25269
0
LINE
8
BLACK
6
CONTINUOUS
10
5.85323
20
-4.25269
11
5.85502
21
-4.25
0
LINE
8
BLACK
6
CONTINUOUS
10
5.85502
20
-4.25
11
5.85771
21
-4.24821
0
LINE
8
BLACK
6
CONTINUOUS
10
5.85771
20
-4.24821
11
5.86087
21
-4.24758
0
LINE
8
BLACK
6
CONTINUOUS
10
5.86087
20
-4.24758
11
5.86403
21
-4.24821
0
LINE
8
BLACK
6
CONTINUOUS
10
5.86403
20
-4.24821
11
5.86672
21
-4.25
0
LINE
8
BLACK
6
CONTINUOUS
10
5.86672
20
-4.25
11
5.86851
21
-4.25269
0
LINE
8
BLACK
6
CONTINUOUS
10
5.86851
20
-4.25269
11
5.86914
21
-4.25585
0
LINE
8
BLACK
6
CONTINUOUS
10
5.86914
20
-4.25585
11
5.86914
21
-4.2838
0
LINE
8
BLACK
6
CONTINUOUS
10
5.86914
20
-4.2838
11
5.86893
21
-4.28486
0
LINE
8
BLACK
6
CONTINUOUS
10
5.84924
20
-4.28486
11
5.84865
21
-4.28575
0
LINE
8
BLACK
6
CONTINUOUS
10
5.84865
20
-4.28575
11
5.84775
21
-4.28635
0
LINE
8
BLACK
6
CONTINUOUS
10
5.84775
20
-4.28635
11
5.8467
21
-4.28656
0
LINE
8
BLACK
6
CONTINUOUS
10
5.8467
20
-4.28656
11
5.83567
21
-4.28656
0
LINE
8
BLACK
6
CONTINUOUS
10
5.83567
20
-4.28656
11
5.83462
21
-4.28635
0
LINE
8
BLACK
6
CONTINUOUS
10
5.83462
20
-4.28635
11
5.83372
21
-4.28575
0
LINE
8
BLACK
6
CONTINUOUS
10
5.83372
20
-4.28575
11
5.83313
21
-4.28486
0
LINE
8
BLACK
6
CONTINUOUS
10
5.83313
20
-4.28486
11
5.83292
21
-4.2838
0
LINE
8
BLACK
6
CONTINUOUS
10
5.83292
20
-4.2838
11
5.83292
21
-4.25585
0
LINE
8
BLACK
6
CONTINUOUS
10
5.83292
20
-4.25585
11
5.83355
21
-4.25269
0
LINE
8
BLACK
6
CONTINUOUS
10
5.83355
20
-4.25269
11
5.83534
21
-4.25
0
LINE
8
BLACK
6
CONTINUOUS
10
5.83534
20
-4.25
11
5.83802
21
-4.24821
0
LINE
8
BLACK
6
CONTINUOUS
10
5.83802
20
-4.24821
11
5.84119
21
-4.24758
0
LINE
8
BLACK
6
CONTINUOUS
10
5.84119
20
-4.24758
11
5.84435
21
-4.24821
0
LINE
8
BLACK
6
CONTINUOUS
10
5.84435
20
-4.24821
11
5.84703
21
-4.25
0
LINE
8
BLACK
6
CONTINUOUS
10
5.84703
20
-4.25
11
5.84882
21
-4.25269
0
LINE
8
BLACK
6
CONTINUOUS
10
5.84882
20
-4.25269
11
5.84945
21
-4.25585
0
LINE
8
BLACK
6
CONTINUOUS
10
5.84945
20
-4.25585
11
5.84945
21
-4.2838
0
LINE
8
BLACK
6
CONTINUOUS
10
5.84945
20
-4.2838
11
5.84924
21
-4.28486
0
LINE
8
BLACK
6
CONTINUOUS
10
5.80987
20
-4.28486
11
5.80928
21
-4.28575
0
LINE
8
BLACK
6
CONTINUOUS
10
5.80928
20
-4.28575
11
5.80838
21
-4.28635
0
LINE
8
BLACK
6
CONTINUOUS
10
5.80838
20
-4.28635
11
5.80733
21
-4.28656
0
LINE
8
BLACK
6
CONTINUOUS
10
5.80733
20
-4.28656
11
5.7963
21
-4.28656
0
LINE
8
BLACK
6
CONTINUOUS
10
5.7963
20
-4.28656
11
5.79525
21
-4.28635
0
LINE
8
BLACK
6
CONTINUOUS
10
5.79525
20
-4.28635
11
5.79435
21
-4.28575
0
LINE
8
BLACK
6
CONTINUOUS
10
5.79435
20
-4.28575
11
5.79376
21
-4.28486
0
LINE
8
BLACK
6
CONTINUOUS
10
5.79376
20
-4.28486
11
5.79355
21
-4.2838
0
LINE
8
BLACK
6
CONTINUOUS
10
5.79355
20
-4.2838
11
5.79355
21
-4.25585
0
LINE
8
BLACK
6
CONTINUOUS
10
5.79355
20
-4.25585
11
5.79418
21
-4.25269
0
LINE
8
BLACK
6
CONTINUOUS
10
5.79418
20
-4.25269
11
5.79597
21
-4.25
0
LINE
8
BLACK
6
CONTINUOUS
10
5.79597
20
-4.25
11
5.79865
21
-4.24821
0
LINE
8
BLACK
6
CONTINUOUS
10
5.79865
20
-4.24821
11
5.80181
21
-4.24758
0
LINE
8
BLACK
6
CONTINUOUS
10
5.80181
20
-4.24758
11
5.80498
21
-4.24821
0
LINE
8
BLACK
6
CONTINUOUS
10
5.80498
20
-4.24821
11
5.80766
21
-4.25
0
LINE
8
BLACK
6
CONTINUOUS
10
5.80766
20
-4.25
11
5.80945
21
-4.25269
0
LINE
8
BLACK
6
CONTINUOUS
10
5.80945
20
-4.25269
11
5.81008
21
-4.25585
0
LINE
8
BLACK
6
CONTINUOUS
10
5.81008
20
-4.25585
11
5.81008
21
-4.2838
0
LINE
8
BLACK
6
CONTINUOUS
10
5.81008
20
-4.2838
11
5.80987
21
-4.28486
0
LINE
8
BLACK
6
CONTINUOUS
10
5.79019
20
-4.28486
11
5.78959
21
-4.28575
0
LINE
8
BLACK
6
CONTINUOUS
10
5.78959
20
-4.28575
11
5.7887
21
-4.28635
0
LINE
8
BLACK
6
CONTINUOUS
10
5.7887
20
-4.28635
11
5.78764
21
-4.28656
0
LINE
8
BLACK
6
CONTINUOUS
10
5.78764
20
-4.28656
11
5.77662
21
-4.28656
0
LINE
8
BLACK
6
CONTINUOUS
10
5.77662
20
-4.28656
11
5.77556
21
-4.28635
0
LINE
8
BLACK
6
CONTINUOUS
10
5.77556
20
-4.28635
11
5.77467
21
-4.28575
0
LINE
8
BLACK
6
CONTINUOUS
10
5.77467
20
-4.28575
11
5.77407
21
-4.28486
0
LINE
8
BLACK
6
CONTINUOUS
10
5.77407
20
-4.28486
11
5.77386
21
-4.2838
0
LINE
8
BLACK
6
CONTINUOUS
10
5.77386
20
-4.2838
11
5.77386
21
-4.25585
0
LINE
8
BLACK
6
CONTINUOUS
10
5.77386
20
-4.25585
11
5.77449
21
-4.25269
0
LINE
8
BLACK
6
CONTINUOUS
10
5.77449
20
-4.25269
11
5.77628
21
-4.25
0
LINE
8
BLACK
6
CONTINUOUS
10
5.77628
20
-4.25
11
5.77897
21
-4.24821
0
LINE
8
BLACK
6
CONTINUOUS
10
5.77897
20
-4.24821
11
5.78213
21
-4.24758
0
LINE
8
BLACK
6
CONTINUOUS
10
5.78213
20
-4.24758
11
5.78529
21
-4.24821
0
LINE
8
BLACK
6
CONTINUOUS
10
5.78529
20
-4.24821
11
5.78798
21
-4.25
0
LINE
8
BLACK
6
CONTINUOUS
10
5.78798
20
-4.25
11
5.78977
21
-4.25269
0
LINE
8
BLACK
6
CONTINUOUS
10
5.78977
20
-4.25269
11
5.7904
21
-4.25585
0
LINE
8
BLACK
6
CONTINUOUS
10
5.7904
20
-4.25585
11
5.7904
21
-4.2838
0
LINE
8
BLACK
6
CONTINUOUS
10
5.7904
20
-4.2838
11
5.79019
21
-4.28486
0
LINE
8
BLACK
6
CONTINUOUS
10
5.4439
20
-4.19802
11
5.44519
21
-4.19889
0
LINE
8
BLACK
6
CONTINUOUS
10
5.44519
20
-4.19889
11
5.44606
21
-4.20019
0
LINE
8
BLACK
6
CONTINUOUS
10
5.44606
20
-4.20019
11
5.44637
21
-4.20172
0
LINE
8
BLACK
6
CONTINUOUS
10
5.44637
20
-4.20172
11
5.44637
21
-4.24109
0
LINE
8
BLACK
6
CONTINUOUS
10
5.44637
20
-4.24109
11
5.44606
21
-4.24262
0
LINE
8
BLACK
6
CONTINUOUS
10
5.44606
20
-4.24262
11
5.44519
21
-4.24392
0
LINE
8
BLACK
6
CONTINUOUS
10
5.44519
20
-4.24392
11
5.4439
21
-4.24478
0
LINE
8
BLACK
6
CONTINUOUS
10
5.4439
20
-4.24478
11
5.44237
21
-4.24509
0
LINE
8
BLACK
6
CONTINUOUS
10
5.44237
20
-4.24509
11
5.38725
21
-4.24509
0
LINE
8
BLACK
6
CONTINUOUS
10
5.38725
20
-4.24509
11
5.38572
21
-4.24478
0
LINE
8
BLACK
6
CONTINUOUS
10
5.38572
20
-4.24478
11
5.38442
21
-4.24392
0
LINE
8
BLACK
6
CONTINUOUS
10
5.38442
20
-4.24392
11
5.38355
21
-4.24262
0
LINE
8
BLACK
6
CONTINUOUS
10
5.38355
20
-4.24262
11
5.38325
21
-4.24109
0
LINE
8
BLACK
6
CONTINUOUS
10
5.38325
20
-4.24109
11
5.38325
21
-4.20172
0
LINE
8
BLACK
6
CONTINUOUS
10
5.38325
20
-4.20172
11
5.38355
21
-4.20019
0
LINE
8
BLACK
6
CONTINUOUS
10
5.38355
20
-4.20019
11
5.38442
21
-4.19889
0
LINE
8
BLACK
6
CONTINUOUS
10
5.38442
20
-4.19889
11
5.38572
21
-4.19802
0
LINE
8
BLACK
6
CONTINUOUS
10
5.38572
20
-4.19802
11
5.38725
21
-4.19772
0
LINE
8
BLACK
6
CONTINUOUS
10
5.38725
20
-4.19772
11
5.44237
21
-4.19772
0
LINE
8
BLACK
6
CONTINUOUS
10
5.44237
20
-4.19772
11
5.4439
21
-4.19802
0
LINE
8
BLACK
6
CONTINUOUS
10
5.5582
20
-4.2348
11
5.4598
21
-4.2348
0
LINE
8
BLACK
6
CONTINUOUS
10
5.4598
20
-4.2348
11
5.4598
21
-4.1344
0
LINE
8
BLACK
6
CONTINUOUS
10
5.4598
20
-4.1344
11
5.5582
21
-4.1344
0
LINE
8
BLACK
6
CONTINUOUS
10
5.5582
20
-4.1344
11
5.5582
21
-4.2348
0
LINE
8
BLACK
6
CONTINUOUS
10
5.35728
20
-4.16062
11
5.35858
21
-4.16149
0
LINE
8
BLACK
6
CONTINUOUS
10
5.35858
20
-4.16149
11
5.35945
21
-4.16278
0
LINE
8
BLACK
6
CONTINUOUS
10
5.35945
20
-4.16278
11
5.35975
21
-4.16431
0
LINE
8
BLACK
6
CONTINUOUS
10
5.35975
20
-4.16431
11
5.35975
21
-4.20369
0
LINE
8
BLACK
6
CONTINUOUS
10
5.35975
20
-4.20369
11
5.35945
21
-4.20522
0
LINE
8
BLACK
6
CONTINUOUS
10
5.35945
20
-4.20522
11
5.35858
21
-4.20651
0
LINE
8
BLACK
6
CONTINUOUS
10
5.35858
20
-4.20651
11
5.35728
21
-4.20738
0
LINE
8
BLACK
6
CONTINUOUS
10
5.35728
20
-4.20738
11
5.35575
21
-4.20769
0
LINE
8
BLACK
6
CONTINUOUS
10
5.35575
20
-4.20769
11
5.30063
21
-4.20769
0
LINE
8
BLACK
6
CONTINUOUS
10
5.30063
20
-4.20769
11
5.2991
21
-4.20738
0
LINE
8
BLACK
6
CONTINUOUS
10
5.2991
20
-4.20738
11
5.29781
21
-4.20651
0
LINE
8
BLACK
6
CONTINUOUS
10
5.29781
20
-4.20651
11
5.29694
21
-4.20522
0
LINE
8
BLACK
6
CONTINUOUS
10
5.29694
20
-4.20522
11
5.29663
21
-4.20369
0
LINE
8
BLACK
6
CONTINUOUS
10
5.29663
20
-4.20369
11
5.29663
21
-4.16431
0
LINE
8
BLACK
6
CONTINUOUS
10
5.29663
20
-4.16431
11
5.29694
21
-4.16278
0
LINE
8
BLACK
6
CONTINUOUS
10
5.29694
20
-4.16278
11
5.29781
21
-4.16149
0
LINE
8
BLACK
6
CONTINUOUS
10
5.29781
20
-4.16149
11
5.2991
21
-4.16062
0
LINE
8
BLACK
6
CONTINUOUS
10
5.2991
20
-4.16062
11
5.30063
21
-4.16031
0
LINE
8
BLACK
6
CONTINUOUS
10
5.30063
20
-4.16031
11
5.35575
21
-4.16031
0
LINE
8
BLACK
6
CONTINUOUS
10
5.35575
20
-4.16031
11
5.35728
21
-4.16062
0
LINE
8
BLACK
6
CONTINUOUS
10
5.89138
20
-4.1962
11
5.89138
21
-4.20605
0
LINE
8
BLACK
6
CONTINUOUS
10
5.89138
20
-4.20605
11
5.86382
21
-4.20605
0
LINE
8
BLACK
6
CONTINUOUS
10
5.86382
20
-4.20605
11
5.86382
21
-4.21195
0
LINE
8
BLACK
6
CONTINUOUS
10
5.86382
20
-4.21195
11
5.89138
21
-4.21195
0
LINE
8
BLACK
6
CONTINUOUS
10
5.89138
20
-4.21195
11
5.89138
21
-4.2218
0
LINE
8
BLACK
6
CONTINUOUS
10
5.89138
20
-4.2218
11
5.86382
21
-4.2218
0
LINE
8
BLACK
6
CONTINUOUS
10
5.86382
20
-4.2218
11
5.86382
21
-4.2277
0
LINE
8
BLACK
6
CONTINUOUS
10
5.86382
20
-4.2277
11
5.89138
21
-4.2277
0
LINE
8
BLACK
6
CONTINUOUS
10
5.89138
20
-4.2277
11
5.89138
21
-4.23754
0
LINE
8
BLACK
6
CONTINUOUS
10
5.89138
20
-4.23754
11
5.86382
21
-4.23754
0
LINE
8
BLACK
6
CONTINUOUS
10
5.86382
20
-4.23754
11
5.86382
21
-4.24246
0
LINE
8
BLACK
6
CONTINUOUS
10
5.86382
20
-4.24246
11
5.77918
21
-4.24246
0
LINE
8
BLACK
6
CONTINUOUS
10
5.77918
20
-4.24246
11
5.77918
21
-4.23754
0
LINE
8
BLACK
6
CONTINUOUS
10
5.77918
20
-4.23754
11
5.75162
21
-4.23754
0
LINE
8
BLACK
6
CONTINUOUS
10
5.75162
20
-4.23754
11
5.75162
21
-4.2277
0
LINE
8
BLACK
6
CONTINUOUS
10
5.75162
20
-4.2277
11
5.77918
21
-4.2277
0
LINE
8
BLACK
6
CONTINUOUS
10
5.77918
20
-4.2277
11
5.77918
21
-4.2218
0
LINE
8
BLACK
6
CONTINUOUS
10
5.77918
20
-4.2218
11
5.75162
21
-4.2218
0
LINE
8
BLACK
6
CONTINUOUS
10
5.75162
20
-4.2218
11
5.75162
21
-4.21195
0
LINE
8
BLACK
6
CONTINUOUS
10
5.75162
20
-4.21195
11
5.77918
21
-4.21195
0
LINE
8
BLACK
6
CONTINUOUS
10
5.77918
20
-4.21195
11
5.77918
21
-4.20605
0
LINE
8
BLACK
6
CONTINUOUS
10
5.77918
20
-4.20605
11
5.75162
21
-4.20605
0
LINE
8
BLACK
6
CONTINUOUS
10
5.75162
20
-4.20605
11
5.75162
21
-4.1962
0
LINE
8
BLACK
6
CONTINUOUS
10
5.75162
20
-4.1962
11
5.77918
21
-4.1962
0
LINE
8
BLACK
6
CONTINUOUS
10
5.77918
20
-4.1962
11
5.77918
21
-4.1903
0
LINE
8
BLACK
6
CONTINUOUS
10
5.77918
20
-4.1903
11
5.75162
21
-4.1903
0
LINE
8
BLACK
6
CONTINUOUS
10
5.75162
20
-4.1903
11
5.75162
21
-4.18046
0
LINE
8
BLACK
6
CONTINUOUS
10
5.75162
20
-4.18046
11
5.77918
21
-4.18046
0
LINE
8
BLACK
6
CONTINUOUS
10
5.77918
20
-4.18046
11
5.77918
21
-4.17554
0
LINE
8
BLACK
6
CONTINUOUS
10
5.77918
20
-4.17554
11
5.86382
21
-4.17554
0
LINE
8
BLACK
6
CONTINUOUS
10
5.86382
20
-4.17554
11
5.86382
21
-4.18046
0
LINE
8
BLACK
6
CONTINUOUS
10
5.86382
20
-4.18046
11
5.89138
21
-4.18046
0
LINE
8
BLACK
6
CONTINUOUS
10
5.89138
20
-4.18046
11
5.89138
21
-4.1903
0
LINE
8
BLACK
6
CONTINUOUS
10
5.89138
20
-4.1903
11
5.86382
21
-4.1903
0
LINE
8
BLACK
6
CONTINUOUS
10
5.86382
20
-4.1903
11
5.86382
21
-4.1962
0
LINE
8
BLACK
6
CONTINUOUS
10
5.86382
20
-4.1962
11
5.89138
21
-4.1962
0
LINE
8
BLACK
6
CONTINUOUS
10
5.86851
20
-4.16531
11
5.86672
21
-4.168
0
LINE
8
BLACK
6
CONTINUOUS
10
5.86672
20
-4.168
11
5.86403
21
-4.16979
0
LINE
8
BLACK
6
CONTINUOUS
10
5.86403
20
-4.16979
11
5.86087
21
-4.17042
0
LINE
8
BLACK
6
CONTINUOUS
10
5.86087
20
-4.17042
11
5.85771
21
-4.16979
0
LINE
8
BLACK
6
CONTINUOUS
10
5.85771
20
-4.16979
11
5.85502
21
-4.168
0
LINE
8
BLACK
6
CONTINUOUS
10
5.85502
20
-4.168
11
5.85323
21
-4.16531
0
LINE
8
BLACK
6
CONTINUOUS
10
5.85323
20
-4.16531
11
5.8526
21
-4.16215
0
LINE
8
BLACK
6
CONTINUOUS
10
5.8526
20
-4.16215
11
5.8526
21
-4.1342
0
LINE
8
BLACK
6
CONTINUOUS
10
5.8526
20
-4.1342
11
5.85281
21
-4.13314
0
LINE
8
BLACK
6
CONTINUOUS
10
5.85281
20
-4.13314
11
5.85341
21
-4.13225
0
LINE
8
BLACK
6
CONTINUOUS
10
5.85341
20
-4.13225
11
5.8543
21
-4.13165
0
LINE
8
BLACK
6
CONTINUOUS
10
5.8543
20
-4.13165
11
5.85536
21
-4.13144
0
LINE
8
BLACK
6
CONTINUOUS
10
5.85536
20
-4.13144
11
5.86638
21
-4.13144
0
LINE
8
BLACK
6
CONTINUOUS
10
5.86638
20
-4.13144
11
5.86744
21
-4.13165
0
LINE
8
BLACK
6
CONTINUOUS
10
5.86744
20
-4.13165
11
5.86833
21
-4.13225
0
LINE
8
BLACK
6
CONTINUOUS
10
5.86833
20
-4.13225
11
5.86893
21
-4.13314
0
LINE
8
BLACK
6
CONTINUOUS
10
5.86893
20
-4.13314
11
5.86914
21
-4.1342
0
LINE
8
BLACK
6
CONTINUOUS
10
5.86914
20
-4.1342
11
5.86914
21
-4.16215
0
LINE
8
BLACK
6
CONTINUOUS
10
5.86914
20
-4.16215
11
5.86851
21
-4.16531
0
LINE
8
BLACK
6
CONTINUOUS
10
5.84882
20
-4.16531
11
5.84703
21
-4.168
0
LINE
8
BLACK
6
CONTINUOUS
10
5.84703
20
-4.168
11
5.84435
21
-4.16979
0
LINE
8
BLACK
6
CONTINUOUS
10
5.84435
20
-4.16979
11
5.84119
21
-4.17042
0
LINE
8
BLACK
6
CONTINUOUS
10
5.84119
20
-4.17042
11
5.83802
21
-4.16979
0
LINE
8
BLACK
6
CONTINUOUS
10
5.83802
20
-4.16979
11
5.83534
21
-4.168
0
LINE
8
BLACK
6
CONTINUOUS
10
5.83534
20
-4.168
11
5.83355
21
-4.16531
0
LINE
8
BLACK
6
CONTINUOUS
10
5.83355
20
-4.16531
11
5.83292
21
-4.16215
0
LINE
8
BLACK
6
CONTINUOUS
10
5.83292
20
-4.16215
11
5.83292
21
-4.1342
0
LINE
8
BLACK
6
CONTINUOUS
10
5.83292
20
-4.1342
11
5.83313
21
-4.13314
0
LINE
8
BLACK
6
CONTINUOUS
10
5.83313
20
-4.13314
11
5.83372
21
-4.13225
0
LINE
8
BLACK
6
CONTINUOUS
10
5.83372
20
-4.13225
11
5.83462
21
-4.13165
0
LINE
8
BLACK
6
CONTINUOUS
10
5.83462
20
-4.13165
11
5.83567
21
-4.13144
0
LINE
8
BLACK
6
CONTINUOUS
10
5.83567
20
-4.13144
11
5.8467
21
-4.13144
0
LINE
8
BLACK
6
CONTINUOUS
10
5.8467
20
-4.13144
11
5.84775
21
-4.13165
0
LINE
8
BLACK
6
CONTINUOUS
10
5.84775
20
-4.13165
11
5.84865
21
-4.13225
0
LINE
8
BLACK
6
CONTINUOUS
10
5.84865
20
-4.13225
11
5.84924
21
-4.13314
0
LINE
8
BLACK
6
CONTINUOUS
10
5.84924
20
-4.13314
11
5.84945
21
-4.1342
0
LINE
8
BLACK
6
CONTINUOUS
10
5.84945
20
-4.1342
11
5.84945
21
-4.16215
0
LINE
8
BLACK
6
CONTINUOUS
10
5.84945
20
-4.16215
11
5.84882
21
-4.16531
0
LINE
8
BLACK
6
CONTINUOUS
10
5.82914
20
-4.16531
11
5.82735
21
-4.168
0
LINE
8
BLACK
6
CONTINUOUS
10
5.82735
20
-4.168
11
5.82466
21
-4.16979
0
LINE
8
BLACK
6
CONTINUOUS
10
5.82466
20
-4.16979
11
5.8215
21
-4.17042
0
LINE
8
BLACK
6
CONTINUOUS
10
5.8215
20
-4.17042
11
5.81834
21
-4.16979
0
LINE
8
BLACK
6
CONTINUOUS
10
5.81834
20
-4.16979
11
5.81565
21
-4.168
0
LINE
8
BLACK
6
CONTINUOUS
10
5.81565
20
-4.168
11
5.81386
21
-4.16531
0
LINE
8
BLACK
6
CONTINUOUS
10
5.81386
20
-4.16531
11
5.81323
21
-4.16215
0
LINE
8
BLACK
6
CONTINUOUS
10
5.81323
20
-4.16215
11
5.81323
21
-4.1342
0
LINE
8
BLACK
6
CONTINUOUS
10
5.81323
20
-4.1342
11
5.81344
21
-4.13314
0
LINE
8
BLACK
6
CONTINUOUS
10
5.81344
20
-4.13314
11
5.81404
21
-4.13225
0
LINE
8
BLACK
6
CONTINUOUS
10
5.81404
20
-4.13225
11
5.81493
21
-4.13165
0
LINE
8
BLACK
6
CONTINUOUS
10
5.81493
20
-4.13165
11
5.81599
21
-4.13144
0
LINE
8
BLACK
6
CONTINUOUS
10
5.81599
20
-4.13144
11
5.82701
21
-4.13144
0
LINE
8
BLACK
6
CONTINUOUS
10
5.82701
20
-4.13144
11
5.82807
21
-4.13165
0
LINE
8
BLACK
6
CONTINUOUS
10
5.82807
20
-4.13165
11
5.82896
21
-4.13225
0
LINE
8
BLACK
6
CONTINUOUS
10
5.82896
20
-4.13225
11
5.82956
21
-4.13314
0
LINE
8
BLACK
6
CONTINUOUS
10
5.82956
20
-4.13314
11
5.82977
21
-4.1342
0
LINE
8
BLACK
6
CONTINUOUS
10
5.82977
20
-4.1342
11
5.82977
21
-4.16215
0
LINE
8
BLACK
6
CONTINUOUS
10
5.82977
20
-4.16215
11
5.82914
21
-4.16531
0
LINE
8
BLACK
6
CONTINUOUS
10
5.80945
20
-4.16531
11
5.80766
21
-4.168
0
LINE
8
BLACK
6
CONTINUOUS
10
5.80766
20
-4.168
11
5.80498
21
-4.16979
0
LINE
8
BLACK
6
CONTINUOUS
10
5.80498
20
-4.16979
11
5.80181
21
-4.17042
0
LINE
8
BLACK
6
CONTINUOUS
10
5.80181
20
-4.17042
11
5.79865
21
-4.16979
0
LINE
8
BLACK
6
CONTINUOUS
10
5.79865
20
-4.16979
11
5.79597
21
-4.168
0
LINE
8
BLACK
6
CONTINUOUS
10
5.79597
20
-4.168
11
5.79418
21
-4.16531
0
LINE
8
BLACK
6
CONTINUOUS
10
5.79418
20
-4.16531
11
5.79355
21
-4.16215
0
LINE
8
BLACK
6
CONTINUOUS
10
5.79355
20
-4.16215
11
5.79355
21
-4.1342
0
LINE
8
BLACK
6
CONTINUOUS
10
5.79355
20
-4.1342
11
5.79376
21
-4.13314
0
LINE
8
BLACK
6
CONTINUOUS
10
5.79376
20
-4.13314
11
5.79435
21
-4.13225
0
LINE
8
BLACK
6
CONTINUOUS
10
5.79435
20
-4.13225
11
5.79525
21
-4.13165
0
LINE
8
BLACK
6
CONTINUOUS
10
5.79525
20
-4.13165
11
5.7963
21
-4.13144
0
LINE
8
BLACK
6
CONTINUOUS
10
5.7963
20
-4.13144
11
5.80733
21
-4.13144
0
LINE
8
BLACK
6
CONTINUOUS
10
5.80733
20
-4.13144
11
5.80838
21
-4.13165
0
LINE
8
BLACK
6
CONTINUOUS
10
5.80838
20
-4.13165
11
5.80928
21
-4.13225
0
LINE
8
BLACK
6
CONTINUOUS
10
5.80928
20
-4.13225
11
5.80987
21
-4.13314
0
LINE
8
BLACK
6
CONTINUOUS
10
5.80987
20
-4.13314
11
5.81008
21
-4.1342
0
LINE
8
BLACK
6
CONTINUOUS
10
5.81008
20
-4.1342
11
5.81008
21
-4.16215
0
LINE
8
BLACK
6
CONTINUOUS
10
5.81008
20
-4.16215
11
5.80945
21
-4.16531
0
LINE
8
BLACK
6
CONTINUOUS
10
5.78977
20
-4.16531
11
5.78798
21
-4.168
0
LINE
8
BLACK
6
CONTINUOUS
10
5.78798
20
-4.168
11
5.78529
21
-4.16979
0
LINE
8
BLACK
6
CONTINUOUS
10
5.78529
20
-4.16979
11
5.78213
21
-4.17042
0
LINE
8
BLACK
6
CONTINUOUS
10
5.78213
20
-4.17042
11
5.77897
21
-4.16979
0
LINE
8
BLACK
6
CONTINUOUS
10
5.77897
20
-4.16979
11
5.77628
21
-4.168
0
LINE
8
BLACK
6
CONTINUOUS
10
5.77628
20
-4.168
11
5.77449
21
-4.16531
0
LINE
8
BLACK
6
CONTINUOUS
10
5.77449
20
-4.16531
11
5.77386
21
-4.16215
0
LINE
8
BLACK
6
CONTINUOUS
10
5.77386
20
-4.16215
11
5.77386
21
-4.1342
0
LINE
8
BLACK
6
CONTINUOUS
10
5.77386
20
-4.1342
11
5.77407
21
-4.13314
0
LINE
8
BLACK
6
CONTINUOUS
10
5.77407
20
-4.13314
11
5.77467
21
-4.13225
0
LINE
8
BLACK
6
CONTINUOUS
10
5.77467
20
-4.13225
11
5.77556
21
-4.13165
0
LINE
8
BLACK
6
CONTINUOUS
10
5.77556
20
-4.13165
11
5.77662
21
-4.13144
0
LINE
8
BLACK
6
CONTINUOUS
10
5.77662
20
-4.13144
11
5.78764
21
-4.13144
0
LINE
8
BLACK
6
CONTINUOUS
10
5.78764
20
-4.13144
11
5.7887
21
-4.13165
0
LINE
8
BLACK
6
CONTINUOUS
10
5.7887
20
-4.13165
11
5.78959
21
-4.13225
0
LINE
8
BLACK
6
CONTINUOUS
10
5.78959
20
-4.13225
11
5.79019
21
-4.13314
0
LINE
8
BLACK
6
CONTINUOUS
10
5.79019
20
-4.13314
11
5.7904
21
-4.1342
0
LINE
8
BLACK
6
CONTINUOUS
10
5.7904
20
-4.1342
11
5.7904
21
-4.16215
0
LINE
8
BLACK
6
CONTINUOUS
10
5.7904
20
-4.16215
11
5.78977
21
-4.16531
0
LINE
8
BLACK
6
CONTINUOUS
10
5.4439
20
-4.12322
11
5.44519
21
-4.12408
0
LINE
8
BLACK
6
CONTINUOUS
10
5.44519
20
-4.12408
11
5.44606
21
-4.12538
0
LINE
8
BLACK
6
CONTINUOUS
10
5.44606
20
-4.12538
11
5.44637
21
-4.12691
0
LINE
8
BLACK
6
CONTINUOUS
10
5.44637
20
-4.12691
11
5.44637
21
-4.16628
0
LINE
8
BLACK
6
CONTINUOUS
10
5.44637
20
-4.16628
11
5.44606
21
-4.16781
0
LINE
8
BLACK
6
CONTINUOUS
10
5.44606
20
-4.16781
11
5.44519
21
-4.16911
0
LINE
8
BLACK
6
CONTINUOUS
10
5.44519
20
-4.16911
11
5.4439
21
-4.16998
0
LINE
8
BLACK
6
CONTINUOUS
10
5.4439
20
-4.16998
11
5.44237
21
-4.17028
0
LINE
8
BLACK
6
CONTINUOUS
10
5.44237
20
-4.17028
11
5.38725
21
-4.17028
0
LINE
8
BLACK
6
CONTINUOUS
10
5.38725
20
-4.17028
11
5.38572
21
-4.16998
0
LINE
8
BLACK
6
CONTINUOUS
10
5.38572
20
-4.16998
11
5.38442
21
-4.16911
0
LINE
8
BLACK
6
CONTINUOUS
10
5.38442
20
-4.16911
11
5.38355
21
-4.16781
0
LINE
8
BLACK
6
CONTINUOUS
10
5.38355
20
-4.16781
11
5.38325
21
-4.16628
0
LINE
8
BLACK
6
CONTINUOUS
10
5.38325
20
-4.16628
11
5.38325
21
-4.12691
0
LINE
8
BLACK
6
CONTINUOUS
10
5.38325
20
-4.12691
11
5.38355
21
-4.12538
0
LINE
8
BLACK
6
CONTINUOUS
10
5.38355
20
-4.12538
11
5.38442
21
-4.12408
0
LINE
8
BLACK
6
CONTINUOUS
10
5.38442
20
-4.12408
11
5.38572
21
-4.12322
0
LINE
8
BLACK
6
CONTINUOUS
10
5.38572
20
-4.12322
11
5.38725
21
-4.12291
0
LINE
8
BLACK
6
CONTINUOUS
10
5.38725
20
-4.12291
11
5.44237
21
-4.12291
0
LINE
8
BLACK
6
CONTINUOUS
10
5.44237
20
-4.12291
11
5.4439
21
-4.12322
0
LINE
8
BLACK
6
CONTINUOUS
10
5.73147
20
-4.11497
11
5.73466
21
-4.1171
0
LINE
8
BLACK
6
CONTINUOUS
10
5.73466
20
-4.1171
11
5.73679
21
-4.12029
0
LINE
8
BLACK
6
CONTINUOUS
10
5.73679
20
-4.12029
11
5.73754
21
-4.12406
0
LINE
8
BLACK
6
CONTINUOUS
10
5.73754
20
-4.12406
11
5.73754
21
-4.14374
0
LINE
8
BLACK
6
CONTINUOUS
10
5.73754
20
-4.14374
11
5.73679
21
-4.14751
0
LINE
8
BLACK
6
CONTINUOUS
10
5.73679
20
-4.14751
11
5.73466
21
-4.1507
0
LINE
8
BLACK
6
CONTINUOUS
10
5.73466
20
-4.1507
11
5.73147
21
-4.15284
0
LINE
8
BLACK
6
CONTINUOUS
10
5.73147
20
-4.15284
11
5.7277
21
-4.15359
0
LINE
8
BLACK
6
CONTINUOUS
10
5.7277
20
-4.15359
11
5.6903
21
-4.15359
0
LINE
8
BLACK
6
CONTINUOUS
10
5.6903
20
-4.15359
11
5.68653
21
-4.15284
0
LINE
8
BLACK
6
CONTINUOUS
10
5.68653
20
-4.15284
11
5.68334
21
-4.1507
0
LINE
8
BLACK
6
CONTINUOUS
10
5.68334
20
-4.1507
11
5.68121
21
-4.14751
0
LINE
8
BLACK
6
CONTINUOUS
10
5.68121
20
-4.14751
11
5.68046
21
-4.14374
0
LINE
8
BLACK
6
CONTINUOUS
10
5.68046
20
-4.14374
11
5.68046
21
-4.12406
0
LINE
8
BLACK
6
CONTINUOUS
10
5.68046
20
-4.12406
11
5.68121
21
-4.12029
0
LINE
8
BLACK
6
CONTINUOUS
10
5.68121
20
-4.12029
11
5.68334
21
-4.1171
0
LINE
8
BLACK
6
CONTINUOUS
10
5.68334
20
-4.1171
11
5.68653
21
-4.11497
0
LINE
8
BLACK
6
CONTINUOUS
10
5.68653
20
-4.11497
11
5.6903
21
-4.11422
0
LINE
8
BLACK
6
CONTINUOUS
10
5.6903
20
-4.11422
11
5.7277
21
-4.11422
0
LINE
8
BLACK
6
CONTINUOUS
10
5.7277
20
-4.11422
11
5.73147
21
-4.11497
0
LINE
8
BLACK
6
CONTINUOUS
10
5.65548
20
-4.113
11
5.65868
21
-4.11513
0
LINE
8
BLACK
6
CONTINUOUS
10
5.65868
20
-4.11513
11
5.66081
21
-4.11832
0
LINE
8
BLACK
6
CONTINUOUS
10
5.66081
20
-4.11832
11
5.66156
21
-4.12209
0
LINE
8
BLACK
6
CONTINUOUS
10
5.66156
20
-4.12209
11
5.66156
21
-4.14276
0
LINE
8
BLACK
6
CONTINUOUS
10
5.66156
20
-4.14276
11
5.66081
21
-4.14653
0
LINE
8
BLACK
6
CONTINUOUS
10
5.66081
20
-4.14653
11
5.65868
21
-4.14972
0
LINE
8
BLACK
6
CONTINUOUS
10
5.65868
20
-4.14972
11
5.65548
21
-4.15185
0
LINE
8
BLACK
6
CONTINUOUS
10
5.65548
20
-4.15185
11
5.65172
21
-4.1526
0
LINE
8
BLACK
6
CONTINUOUS
10
5.65172
20
-4.1526
11
5.61628
21
-4.1526
0
LINE
8
BLACK
6
CONTINUOUS
10
5.61628
20
-4.1526
11
5.61252
21
-4.15185
0
LINE
8
BLACK
6
CONTINUOUS
10
5.61252
20
-4.15185
11
5.60932
21
-4.14972
0
LINE
8
BLACK
6
CONTINUOUS
10
5.60932
20
-4.14972
11
5.60719
21
-4.14653
0
LINE
8
BLACK
6
CONTINUOUS
10
5.60719
20
-4.14653
11
5.60644
21
-4.14276
0
LINE
8
BLACK
6
CONTINUOUS
10
5.60644
20
-4.14276
11
5.60644
21
-4.12209
0
LINE
8
BLACK
6
CONTINUOUS
10
5.60644
20
-4.12209
11
5.60719
21
-4.11832
0
LINE
8
BLACK
6
CONTINUOUS
10
5.60719
20
-4.11832
11
5.60932
21
-4.11513
0
LINE
8
BLACK
6
CONTINUOUS
10
5.60932
20
-4.11513
11
5.61252
21
-4.113
0
LINE
8
BLACK
6
CONTINUOUS
10
5.61252
20
-4.113
11
5.61628
21
-4.11225
0
LINE
8
BLACK
6
CONTINUOUS
10
5.61628
20
-4.11225
11
5.65172
21
-4.11225
0
LINE
8
BLACK
6
CONTINUOUS
10
5.65172
20
-4.11225
11
5.65548
21
-4.113
0
LINE
8
BLACK
6
CONTINUOUS
10
5.43053
20
-4.0353
11
5.43183
21
-4.03617
0
LINE
8
BLACK
6
CONTINUOUS
10
5.43183
20
-4.03617
11
5.4327
21
-4.03747
0
LINE
8
BLACK
6
CONTINUOUS
10
5.4327
20
-4.03747
11
5.433
21
-4.039
0
LINE
8
BLACK
6
CONTINUOUS
10
5.433
20
-4.039
11
5.433
21
-4.104
0
LINE
8
BLACK
6
CONTINUOUS
10
5.433
20
-4.104
11
5.4327
21
-4.10553
0
LINE
8
BLACK
6
CONTINUOUS
10
5.4327
20
-4.10553
11
5.43183
21
-4.10683
0
LINE
8
BLACK
6
CONTINUOUS
10
5.43183
20
-4.10683
11
5.43053
21
-4.1077
0
LINE
8
BLACK
6
CONTINUOUS
10
5.43053
20
-4.1077
11
5.429
21
-4.108
0
LINE
8
BLACK
6
CONTINUOUS
10
5.429
20
-4.108
11
5.364
21
-4.108
0
LINE
8
BLACK
6
CONTINUOUS
10
5.364
20
-4.108
11
5.36247
21
-4.1077
0
LINE
8
BLACK
6
CONTINUOUS
10
5.36247
20
-4.1077
11
5.36117
21
-4.10683
0
LINE
8
BLACK
6
CONTINUOUS
10
5.36117
20
-4.10683
11
5.3603
21
-4.10553
0
LINE
8
BLACK
6
CONTINUOUS
10
5.3603
20
-4.10553
11
5.36
21
-4.104
0
LINE
8
BLACK
6
CONTINUOUS
10
5.36
20
-4.104
11
5.36
21
-4.039
0
LINE
8
BLACK
6
CONTINUOUS
10
5.36
20
-4.039
11
5.3603
21
-4.03747
0
LINE
8
BLACK
6
CONTINUOUS
10
5.3603
20
-4.03747
11
5.36117
21
-4.03617
0
LINE
8
BLACK
6
CONTINUOUS
10
5.36117
20
-4.03617
11
5.36247
21
-4.0353
0
LINE
8
BLACK
6
CONTINUOUS
10
5.36247
20
-4.0353
11
5.364
21
-4.035
0
LINE
8
BLACK
6
CONTINUOUS
10
5.364
20
-4.035
11
5.429
21
-4.035
0
LINE
8
BLACK
6
CONTINUOUS
10
5.429
20
-4.035
11
5.43053
21
-4.0353
0
LINE
8
BLACK
6
CONTINUOUS
10
5.53053
20
-4.0353
11
5.53183
21
-4.03617
0
LINE
8
BLACK
6
CONTINUOUS
10
5.53183
20
-4.03617
11
5.5327
21
-4.03747
0
LINE
8
BLACK
6
CONTINUOUS
10
5.5327
20
-4.03747
11
5.533
21
-4.039
0
LINE
8
BLACK
6
CONTINUOUS
10
5.533
20
-4.039
11
5.533
21
-4.104
0
LINE
8
BLACK
6
CONTINUOUS
10
5.533
20
-4.104
11
5.5327
21
-4.10553
0
LINE
8
BLACK
6
CONTINUOUS
10
5.5327
20
-4.10553
11
5.53183
21
-4.10683
0
LINE
8
BLACK
6
CONTINUOUS
10
5.53183
20
-4.10683
11
5.53053
21
-4.1077
0
LINE
8
BLACK
6
CONTINUOUS
10
5.53053
20
-4.1077
11
5.529
21
-4.108
0
LINE
8
BLACK
6
CONTINUOUS
10
5.529
20
-4.108
11
5.464
21
-4.108
0
LINE
8
BLACK
6
CONTINUOUS
10
5.464
20
-4.108
11
5.46247
21
-4.1077
0
LINE
8
BLACK
6
CONTINUOUS
10
5.46247
20
-4.1077
11
5.46117
21
-4.10683
0
LINE
8
BLACK
6
CONTINUOUS
10
5.46117
20
-4.10683
11
5.4603
21
-4.10553
0
LINE
8
BLACK
6
CONTINUOUS
10
5.4603
20
-4.10553
11
5.46
21
-4.104
0
LINE
8
BLACK
6
CONTINUOUS
10
5.46
20
-4.104
11
5.46
21
-4.039
0
LINE
8
BLACK
6
CONTINUOUS
10
5.46
20
-4.039
11
5.4603
21
-4.03747
0
LINE
8
BLACK
6
CONTINUOUS
10
5.4603
20
-4.03747
11
5.46117
21
-4.03617
0
LINE
8
BLACK
6
CONTINUOUS
10
5.46117
20
-4.03617
11
5.46247
21
-4.0353
0
LINE
8
BLACK
6
CONTINUOUS
10
5.46247
20
-4.0353
11
5.464
21
-4.035
0
LINE
8
BLACK
6
CONTINUOUS
10
5.464
20
-4.035
11
5.529
21
-4.035
0
LINE
8
BLACK
6
CONTINUOUS
10
5.529
20
-4.035
11
5.53053
21
-4.0353
0
LINE
8
BLACK
6
CONTINUOUS
10
5.65548
20
-4.04115
11
5.65868
21
-4.04328
0
LINE
8
BLACK
6
CONTINUOUS
10
5.65868
20
-4.04328
11
5.66081
21
-4.04647
0
LINE
8
BLACK
6
CONTINUOUS
10
5.66081
20
-4.04647
11
5.66156
21
-4.05024
0
LINE
8
BLACK
6
CONTINUOUS
10
5.66156
20
-4.05024
11
5.66156
21
-4.07091
0
LINE
8
BLACK
6
CONTINUOUS
10
5.66156
20
-4.07091
11
5.66081
21
-4.07468
0
LINE
8
BLACK
6
CONTINUOUS
10
5.66081
20
-4.07468
11
5.65868
21
-4.07787
0
LINE
8
BLACK
6
CONTINUOUS
10
5.65868
20
-4.07787
11
5.65548
21
-4.08
0
LINE
8
BLACK
6
CONTINUOUS
10
5.65548
20
-4.08
11
5.65172
21
-4.08075
0
LINE
8
BLACK
6
CONTINUOUS
10
5.65172
20
-4.08075
11
5.61628
21
-4.08075
0
LINE
8
BLACK
6
CONTINUOUS
10
5.61628
20
-4.08075
11
5.61252
21
-4.08
0
LINE
8
BLACK
6
CONTINUOUS
10
5.61252
20
-4.08
11
5.60932
21
-4.07787
0
LINE
8
BLACK
6
CONTINUOUS
10
5.60932
20
-4.07787
11
5.60719
21
-4.07468
0
LINE
8
BLACK
6
CONTINUOUS
10
5.60719
20
-4.07468
11
5.60644
21
-4.07091
0
LINE
8
BLACK
6
CONTINUOUS
10
5.60644
20
-4.07091
11
5.60644
21
-4.05024
0
LINE
8
BLACK
6
CONTINUOUS
10
5.60644
20
-4.05024
11
5.60719
21
-4.04647
0
LINE
8
BLACK
6
CONTINUOUS
10
5.60719
20
-4.04647
11
5.60932
21
-4.04328
0
LINE
8
BLACK
6
CONTINUOUS
10
5.60932
20
-4.04328
11
5.61252
21
-4.04115
0
LINE
8
BLACK
6
CONTINUOUS
10
5.61252
20
-4.04115
11
5.61628
21
-4.0404
0
LINE
8
BLACK
6
CONTINUOUS
10
5.61628
20
-4.0404
11
5.65172
21
-4.0404
0
LINE
8
BLACK
6
CONTINUOUS
10
5.65172
20
-4.0404
11
5.65548
21
-4.04115
0
LINE
8
BLACK
6
CONTINUOUS
10
5.73147
20
-4.04016
11
5.73466
21
-4.0423
0
LINE
8
BLACK
6
CONTINUOUS
10
5.73466
20
-4.0423
11
5.73679
21
-4.04549
0
LINE
8
BLACK
6
CONTINUOUS
10
5.73679
20
-4.04549
11
5.73754
21
-4.04926
0
LINE
8
BLACK
6
CONTINUOUS
10
5.73754
20
-4.04926
11
5.73754
21
-4.06894
0
LINE
8
BLACK
6
CONTINUOUS
10
5.73754
20
-4.06894
11
5.73679
21
-4.07271
0
LINE
8
BLACK
6
CONTINUOUS
10
5.73679
20
-4.07271
11
5.73466
21
-4.0759
0
LINE
8
BLACK
6
CONTINUOUS
10
5.73466
20
-4.0759
11
5.73147
21
-4.07803
0
LINE
8
BLACK
6
CONTINUOUS
10
5.73147
20
-4.07803
11
5.7277
21
-4.07878
0
LINE
8
BLACK
6
CONTINUOUS
10
5.7277
20
-4.07878
11
5.6903
21
-4.07878
0
LINE
8
BLACK
6
CONTINUOUS
10
5.6903
20
-4.07878
11
5.68653
21
-4.07803
0
LINE
8
BLACK
6
CONTINUOUS
10
5.68653
20
-4.07803
11
5.68334
21
-4.0759
0
LINE
8
BLACK
6
CONTINUOUS
10
5.68334
20
-4.0759
11
5.68121
21
-4.07271
0
LINE
8
BLACK
6
CONTINUOUS
10
5.68121
20
-4.07271
11
5.68046
21
-4.06894
0
LINE
8
BLACK
6
CONTINUOUS
10
5.68046
20
-4.06894
11
5.68046
21
-4.04926
0
LINE
8
BLACK
6
CONTINUOUS
10
5.68046
20
-4.04926
11
5.68121
21
-4.04549
0
LINE
8
BLACK
6
CONTINUOUS
10
5.68121
20
-4.04549
11
5.68334
21
-4.0423
0
LINE
8
BLACK
6
CONTINUOUS
10
5.68334
20
-4.0423
11
5.68653
21
-4.04016
0
LINE
8
BLACK
6
CONTINUOUS
10
5.68653
20
-4.04016
11
5.6903
21
-4.03941
0
LINE
8
BLACK
6
CONTINUOUS
10
5.6903
20
-4.03941
11
5.7277
21
-4.03941
0
LINE
8
BLACK
6
CONTINUOUS
10
5.7277
20
-4.03941
11
5.73147
21
-4.04016
0
LINE
8
BLACK
6
CONTINUOUS
10
6.27977
20
-4.0462
11
6.06323
21
-4.0462
0
LINE
8
BLACK
6
CONTINUOUS
10
6.06323
20
-4.0462
11
6.06323
21
-3.92809
0
LINE
8
BLACK
6
CONTINUOUS
10
6.06323
20
-3.92809
11
6.27977
21
-3.92809
0
LINE
8
BLACK
6
CONTINUOUS
10
6.27977
20
-3.92809
11
6.27977
21
-4.0462
0
LINE
8
BLACK
6
CONTINUOUS
10
5.79397
20
-4.00247
11
5.79716
21
-4.0046
0
LINE
8
BLACK
6
CONTINUOUS
10
5.79716
20
-4.0046
11
5.79929
21
-4.00779
0
LINE
8
BLACK
6
CONTINUOUS
10
5.79929
20
-4.00779
11
5.80004
21
-4.01156
0
LINE
8
BLACK
6
CONTINUOUS
10
5.80004
20
-4.01156
11
5.80004
21
-4.03124
0
LINE
8
BLACK
6
CONTINUOUS
10
5.80004
20
-4.03124
11
5.79929
21
-4.03501
0
LINE
8
BLACK
6
CONTINUOUS
10
5.79929
20
-4.03501
11
5.79716
21
-4.0382
0
LINE
8
BLACK
6
CONTINUOUS
10
5.79716
20
-4.0382
11
5.79397
21
-4.04034
0
LINE
8
BLACK
6
CONTINUOUS
10
5.79397
20
-4.04034
11
5.7902
21
-4.04109
0
LINE
8
BLACK
6
CONTINUOUS
10
5.7902
20
-4.04109
11
5.7528
21
-4.04109
0
LINE
8
BLACK
6
CONTINUOUS
10
5.7528
20
-4.04109
11
5.74903
21
-4.04034
0
LINE
8
BLACK
6
CONTINUOUS
10
5.74903
20
-4.04034
11
5.74584
21
-4.0382
0
LINE
8
BLACK
6
CONTINUOUS
10
5.74584
20
-4.0382
11
5.74371
21
-4.03501
0
LINE
8
BLACK
6
CONTINUOUS
10
5.74371
20
-4.03501
11
5.74296
21
-4.03124
0
LINE
8
BLACK
6
CONTINUOUS
10
5.74296
20
-4.03124
11
5.74296
21
-4.01156
0
LINE
8
BLACK
6
CONTINUOUS
10
5.74296
20
-4.01156
11
5.74371
21
-4.00779
0
LINE
8
BLACK
6
CONTINUOUS
10
5.74371
20
-4.00779
11
5.74584
21
-4.0046
0
LINE
8
BLACK
6
CONTINUOUS
10
5.74584
20
-4.0046
11
5.74903
21
-4.00247
0
LINE
8
BLACK
6
CONTINUOUS
10
5.74903
20
-4.00247
11
5.7528
21
-4.00172
0
LINE
8
BLACK
6
CONTINUOUS
10
5.7528
20
-4.00172
11
5.7902
21
-4.00172
0
LINE
8
BLACK
6
CONTINUOUS
10
5.7902
20
-4.00172
11
5.79397
21
-4.00247
0
LINE
8
BLACK
6
CONTINUOUS
10
5.43053
20
-3.9353
11
5.43183
21
-3.93617
0
LINE
8
BLACK
6
CONTINUOUS
10
5.43183
20
-3.93617
11
5.4327
21
-3.93747
0
LINE
8
BLACK
6
CONTINUOUS
10
5.4327
20
-3.93747
11
5.433
21
-3.939
0
LINE
8
BLACK
6
CONTINUOUS
10
5.433
20
-3.939
11
5.433
21
-4.004
0
LINE
8
BLACK
6
CONTINUOUS
10
5.433
20
-4.004
11
5.4327
21
-4.00553
0
LINE
8
BLACK
6
CONTINUOUS
10
5.4327
20
-4.00553
11
5.43183
21
-4.00683
0
LINE
8
BLACK
6
CONTINUOUS
10
5.43183
20
-4.00683
11
5.43053
21
-4.0077
0
LINE
8
BLACK
6
CONTINUOUS
10
5.43053
20
-4.0077
11
5.429
21
-4.008
0
LINE
8
BLACK
6
CONTINUOUS
10
5.429
20
-4.008
11
5.364
21
-4.008
0
LINE
8
BLACK
6
CONTINUOUS
10
5.364
20
-4.008
11
5.36247
21
-4.0077
0
LINE
8
BLACK
6
CONTINUOUS
10
5.36247
20
-4.0077
11
5.36117
21
-4.00683
0
LINE
8
BLACK
6
CONTINUOUS
10
5.36117
20
-4.00683
11
5.3603
21
-4.00553
0
LINE
8
BLACK
6
CONTINUOUS
10
5.3603
20
-4.00553
11
5.36
21
-4.004
0
LINE
8
BLACK
6
CONTINUOUS
10
5.36
20
-4.004
11
5.36
21
-3.939
0
LINE
8
BLACK
6
CONTINUOUS
10
5.36
20
-3.939
11
5.3603
21
-3.93747
0
LINE
8
BLACK
6
CONTINUOUS
10
5.3603
20
-3.93747
11
5.36117
21
-3.93617
0
LINE
8
BLACK
6
CONTINUOUS
10
5.36117
20
-3.93617
11
5.36247
21
-3.9353
0
LINE
8
BLACK
6
CONTINUOUS
10
5.36247
20
-3.9353
11
5.364
21
-3.935
0
LINE
8
BLACK
6
CONTINUOUS
10
5.364
20
-3.935
11
5.429
21
-3.935
0
LINE
8
BLACK
6
CONTINUOUS
10
5.429
20
-3.935
11
5.43053
21
-3.9353
0
LINE
8
BLACK
6
CONTINUOUS
10
5.53053
20
-3.9353
11
5.53183
21
-3.93617
0
LINE
8
BLACK
6
CONTINUOUS
10
5.53183
20
-3.93617
11
5.5327
21
-3.93747
0
LINE
8
BLACK
6
CONTINUOUS
10
5.5327
20
-3.93747
11
5.533
21
-3.939
0
LINE
8
BLACK
6
CONTINUOUS
10
5.533
20
-3.939
11
5.533
21
-4.004
0
LINE
8
BLACK
6
CONTINUOUS
10
5.533
20
-4.004
11
5.5327
21
-4.00553
0
LINE
8
BLACK
6
CONTINUOUS
10
5.5327
20
-4.00553
11
5.53183
21
-4.00683
0
LINE
8
BLACK
6
CONTINUOUS
10
5.53183
20
-4.00683
11
5.53053
21
-4.0077
0
LINE
8
BLACK
6
CONTINUOUS
10
5.53053
20
-4.0077
11
5.529
21
-4.008
0
LINE
8
BLACK
6
CONTINUOUS
10
5.529
20
-4.008
11
5.464
21
-4.008
0
LINE
8
BLACK
6
CONTINUOUS
10
5.464
20
-4.008
11
5.46247
21
-4.0077
0
LINE
8
BLACK
6
CONTINUOUS
10
5.46247
20
-4.0077
11
5.46117
21
-4.00683
0
LINE
8
BLACK
6
CONTINUOUS
10
5.46117
20
-4.00683
11
5.4603
21
-4.00553
0
LINE
8
BLACK
6
CONTINUOUS
10
5.4603
20
-4.00553
11
5.46
21
-4.004
0
LINE
8
BLACK
6
CONTINUOUS
10
5.46
20
-4.004
11
5.46
21
-3.939
0
LINE
8
BLACK
6
CONTINUOUS
10
5.46
20
-3.939
11
5.4603
21
-3.93747
0
LINE
8
BLACK
6
CONTINUOUS
10
5.4603
20
-3.93747
11
5.46117
21
-3.93617
0
LINE
8
BLACK
6
CONTINUOUS
10
5.46117
20
-3.93617
11
5.46247
21
-3.9353
0
LINE
8
BLACK
6
CONTINUOUS
10
5.46247
20
-3.9353
11
5.464
21
-3.935
0
LINE
8
BLACK
6
CONTINUOUS
10
5.464
20
-3.935
11
5.529
21
-3.935
0
LINE
8
BLACK
6
CONTINUOUS
10
5.529
20
-3.935
11
5.53053
21
-3.9353
0
LINE
8
BLACK
6
CONTINUOUS
10
5.59968
20
-3.94469
11
5.60287
21
-3.94682
0
LINE
8
BLACK
6
CONTINUOUS
10
5.60287
20
-3.94682
11
5.605
21
-3.95002
0
LINE
8
BLACK
6
CONTINUOUS
10
5.605
20
-3.95002
11
5.60575
21
-3.95378
0
LINE
8
BLACK
6
CONTINUOUS
10
5.60575
20
-3.95378
11
5.60575
21
-3.98922
0
LINE
8
BLACK
6
CONTINUOUS
10
5.60575
20
-3.98922
11
5.605
21
-3.99298
0
LINE
8
BLACK
6
CONTINUOUS
10
5.605
20
-3.99298
11
5.60287
21
-3.99618
0
LINE
8
BLACK
6
CONTINUOUS
10
5.60287
20
-3.99618
11
5.59968
21
-3.99831
0
LINE
8
BLACK
6
CONTINUOUS
10
5.59968
20
-3.99831
11
5.59591
21
-3.99906
0
LINE
8
BLACK
6
CONTINUOUS
10
5.59591
20
-3.99906
11
5.57524
21
-3.99906
0
LINE
8
BLACK
6
CONTINUOUS
10
5.57524
20
-3.99906
11
5.57147
21
-3.99831
0
LINE
8
BLACK
6
CONTINUOUS
10
5.57147
20
-3.99831
11
5.56828
21
-3.99618
0
LINE
8
BLACK
6
CONTINUOUS
10
5.56828
20
-3.99618
11
5.56615
21
-3.99298
0
LINE
8
BLACK
6
CONTINUOUS
10
5.56615
20
-3.99298
11
5.5654
21
-3.98922
0
LINE
8
BLACK
6
CONTINUOUS
10
5.5654
20
-3.98922
11
5.5654
21
-3.95378
0
LINE
8
BLACK
6
CONTINUOUS
10
5.5654
20
-3.95378
11
5.56615
21
-3.95002
0
LINE
8
BLACK
6
CONTINUOUS
10
5.56615
20
-3.95002
11
5.56828
21
-3.94682
0
LINE
8
BLACK
6
CONTINUOUS
10
5.56828
20
-3.94682
11
5.57147
21
-3.94469
0
LINE
8
BLACK
6
CONTINUOUS
10
5.57147
20
-3.94469
11
5.57524
21
-3.94394
0
LINE
8
BLACK
6
CONTINUOUS
10
5.57524
20
-3.94394
11
5.59591
21
-3.94394
0
LINE
8
BLACK
6
CONTINUOUS
10
5.59591
20
-3.94394
11
5.59968
21
-3.94469
0
LINE
8
BLACK
6
CONTINUOUS
10
5.67153
20
-3.94469
11
5.67472
21
-3.94682
0
LINE
8
BLACK
6
CONTINUOUS
10
5.67472
20
-3.94682
11
5.67685
21
-3.95002
0
LINE
8
BLACK
6
CONTINUOUS
10
5.67685
20
-3.95002
11
5.6776
21
-3.95378
0
LINE
8
BLACK
6
CONTINUOUS
10
5.6776
20
-3.95378
11
5.6776
21
-3.98922
0
LINE
8
BLACK
6
CONTINUOUS
10
5.6776
20
-3.98922
11
5.67685
21
-3.99298
0
LINE
8
BLACK
6
CONTINUOUS
10
5.67685
20
-3.99298
11
5.67472
21
-3.99618
0
LINE
8
BLACK
6
CONTINUOUS
10
5.67472
20
-3.99618
11
5.67153
21
-3.99831
0
LINE
8
BLACK
6
CONTINUOUS
10
5.67153
20
-3.99831
11
5.66776
21
-3.99906
0
LINE
8
BLACK
6
CONTINUOUS
10
5.66776
20
-3.99906
11
5.64709
21
-3.99906
0
LINE
8
BLACK
6
CONTINUOUS
10
5.64709
20
-3.99906
11
5.64332
21
-3.99831
0
LINE
8
BLACK
6
CONTINUOUS
10
5.64332
20
-3.99831
11
5.64013
21
-3.99618
0
LINE
8
BLACK
6
CONTINUOUS
10
5.64013
20
-3.99618
11
5.638
21
-3.99298
0
LINE
8
BLACK
6
CONTINUOUS
10
5.638
20
-3.99298
11
5.63725
21
-3.98922
0
LINE
8
BLACK
6
CONTINUOUS
10
5.63725
20
-3.98922
11
5.63725
21
-3.95378
0
LINE
8
BLACK
6
CONTINUOUS
10
5.63725
20
-3.95378
11
5.638
21
-3.95002
0
LINE
8
BLACK
6
CONTINUOUS
10
5.638
20
-3.95002
11
5.64013
21
-3.94682
0
LINE
8
BLACK
6
CONTINUOUS
10
5.64013
20
-3.94682
11
5.64332
21
-3.94469
0
LINE
8
BLACK
6
CONTINUOUS
10
5.64332
20
-3.94469
11
5.64709
21
-3.94394
0
LINE
8
BLACK
6
CONTINUOUS
10
5.64709
20
-3.94394
11
5.66776
21
-3.94394
0
LINE
8
BLACK
6
CONTINUOUS
10
5.66776
20
-3.94394
11
5.67153
21
-3.94469
0
LINE
8
BLACK
6
CONTINUOUS
10
5.79397
20
-3.92766
11
5.79716
21
-3.9298
0
LINE
8
BLACK
6
CONTINUOUS
10
5.79716
20
-3.9298
11
5.79929
21
-3.93299
0
LINE
8
BLACK
6
CONTINUOUS
10
5.79929
20
-3.93299
11
5.80004
21
-3.93676
0
LINE
8
BLACK
6
CONTINUOUS
10
5.80004
20
-3.93676
11
5.80004
21
-3.95644
0
LINE
8
BLACK
6
CONTINUOUS
10
5.80004
20
-3.95644
11
5.79929
21
-3.96021
0
LINE
8
BLACK
6
CONTINUOUS
10
5.79929
20
-3.96021
11
5.79716
21
-3.9634
0
LINE
8
BLACK
6
CONTINUOUS
10
5.79716
20
-3.9634
11
5.79397
21
-3.96553
0
LINE
8
BLACK
6
CONTINUOUS
10
5.79397
20
-3.96553
11
5.7902
21
-3.96628
0
LINE
8
BLACK
6
CONTINUOUS
10
5.7902
20
-3.96628
11
5.7528
21
-3.96628
0
LINE
8
BLACK
6
CONTINUOUS
10
5.7528
20
-3.96628
11
5.74903
21
-3.96553
0
LINE
8
BLACK
6
CONTINUOUS
10
5.74903
20
-3.96553
11
5.74584
21
-3.9634
0
LINE
8
BLACK
6
CONTINUOUS
10
5.74584
20
-3.9634
11
5.74371
21
-3.96021
0
LINE
8
BLACK
6
CONTINUOUS
10
5.74371
20
-3.96021
11
5.74296
21
-3.95644
0
LINE
8
BLACK
6
CONTINUOUS
10
5.74296
20
-3.95644
11
5.74296
21
-3.93676
0
LINE
8
BLACK
6
CONTINUOUS
10
5.74296
20
-3.93676
11
5.74371
21
-3.93299
0
LINE
8
BLACK
6
CONTINUOUS
10
5.74371
20
-3.93299
11
5.74584
21
-3.9298
0
LINE
8
BLACK
6
CONTINUOUS
10
5.74584
20
-3.9298
11
5.74903
21
-3.92766
0
LINE
8
BLACK
6
CONTINUOUS
10
5.74903
20
-3.92766
11
5.7528
21
-3.92691
0
LINE
8
BLACK
6
CONTINUOUS
10
5.7528
20
-3.92691
11
5.7902
21
-3.92691
0
LINE
8
BLACK
6
CONTINUOUS
10
5.7902
20
-3.92691
11
5.79397
21
-3.92766
0
LINE
8
BLACK
6
CONTINUOUS
10
5.63718
20
-3.86969
11
5.64037
21
-3.87182
0
LINE
8
BLACK
6
CONTINUOUS
10
5.64037
20
-3.87182
11
5.6425
21
-3.87502
0
LINE
8
BLACK
6
CONTINUOUS
10
5.6425
20
-3.87502
11
5.64325
21
-3.87878
0
LINE
8
BLACK
6
CONTINUOUS
10
5.64325
20
-3.87878
11
5.64325
21
-3.91422
0
LINE
8
BLACK
6
CONTINUOUS
10
5.64325
20
-3.91422
11
5.6425
21
-3.91798
0
LINE
8
BLACK
6
CONTINUOUS
10
5.6425
20
-3.91798
11
5.64037
21
-3.92118
0
LINE
8
BLACK
6
CONTINUOUS
10
5.64037
20
-3.92118
11
5.63718
21
-3.92331
0
LINE
8
BLACK
6
CONTINUOUS
10
5.63718
20
-3.92331
11
5.63341
21
-3.92406
0
LINE
8
BLACK
6
CONTINUOUS
10
5.63341
20
-3.92406
11
5.61274
21
-3.92406
0
LINE
8
BLACK
6
CONTINUOUS
10
5.61274
20
-3.92406
11
5.60897
21
-3.92331
0
LINE
8
BLACK
6
CONTINUOUS
10
5.60897
20
-3.92331
11
5.60578
21
-3.92118
0
LINE
8
BLACK
6
CONTINUOUS
10
5.60578
20
-3.92118
11
5.60365
21
-3.91798
0
LINE
8
BLACK
6
CONTINUOUS
10
5.60365
20
-3.91798
11
5.6029
21
-3.91422
0
LINE
8
BLACK
6
CONTINUOUS
10
5.6029
20
-3.91422
11
5.6029
21
-3.87878
0
LINE
8
BLACK
6
CONTINUOUS
10
5.6029
20
-3.87878
11
5.60365
21
-3.87502
0
LINE
8
BLACK
6
CONTINUOUS
10
5.60365
20
-3.87502
11
5.60578
21
-3.87182
0
LINE
8
BLACK
6
CONTINUOUS
10
5.60578
20
-3.87182
11
5.60897
21
-3.86969
0
LINE
8
BLACK
6
CONTINUOUS
10
5.60897
20
-3.86969
11
5.61274
21
-3.86894
0
LINE
8
BLACK
6
CONTINUOUS
10
5.61274
20
-3.86894
11
5.63341
21
-3.86894
0
LINE
8
BLACK
6
CONTINUOUS
10
5.63341
20
-3.86894
11
5.63718
21
-3.86969
0
LINE
8
BLACK
6
CONTINUOUS
10
5.70903
20
-3.86969
11
5.71222
21
-3.87182
0
LINE
8
BLACK
6
CONTINUOUS
10
5.71222
20
-3.87182
11
5.71435
21
-3.87502
0
LINE
8
BLACK
6
CONTINUOUS
10
5.71435
20
-3.87502
11
5.7151
21
-3.87878
0
LINE
8
BLACK
6
CONTINUOUS
10
5.7151
20
-3.87878
11
5.7151
21
-3.91422
0
LINE
8
BLACK
6
CONTINUOUS
10
5.7151
20
-3.91422
11
5.71435
21
-3.91798
0
LINE
8
BLACK
6
CONTINUOUS
10
5.71435
20
-3.91798
11
5.71222
21
-3.92118
0
LINE
8
BLACK
6
CONTINUOUS
10
5.71222
20
-3.92118
11
5.70903
21
-3.92331
0
LINE
8
BLACK
6
CONTINUOUS
10
5.70903
20
-3.92331
11
5.70526
21
-3.92406
0
LINE
8
BLACK
6
CONTINUOUS
10
5.70526
20
-3.92406
11
5.68459
21
-3.92406
0
LINE
8
BLACK
6
CONTINUOUS
10
5.68459
20
-3.92406
11
5.68082
21
-3.92331
0
LINE
8
BLACK
6
CONTINUOUS
10
5.68082
20
-3.92331
11
5.67763
21
-3.92118
0
LINE
8
BLACK
6
CONTINUOUS
10
5.67763
20
-3.92118
11
5.6755
21
-3.91798
0
LINE
8
BLACK
6
CONTINUOUS
10
5.6755
20
-3.91798
11
5.67475
21
-3.91422
0
LINE
8
BLACK
6
CONTINUOUS
10
5.67475
20
-3.91422
11
5.67475
21
-3.87878
0
LINE
8
BLACK
6
CONTINUOUS
10
5.67475
20
-3.87878
11
5.6755
21
-3.87502
0
LINE
8
BLACK
6
CONTINUOUS
10
5.6755
20
-3.87502
11
5.67763
21
-3.87182
0
LINE
8
BLACK
6
CONTINUOUS
10
5.67763
20
-3.87182
11
5.68082
21
-3.86969
0
LINE
8
BLACK
6
CONTINUOUS
10
5.68082
20
-3.86969
11
5.68459
21
-3.86894
0
LINE
8
BLACK
6
CONTINUOUS
10
5.68459
20
-3.86894
11
5.70526
21
-3.86894
0
LINE
8
BLACK
6
CONTINUOUS
10
5.70526
20
-3.86894
11
5.70903
21
-3.86969
0
LINE
8
BLACK
6
CONTINUOUS
10
5.53053
20
-3.8353
11
5.53183
21
-3.83617
0
LINE
8
BLACK
6
CONTINUOUS
10
5.53183
20
-3.83617
11
5.5327
21
-3.83747
0
LINE
8
BLACK
6
CONTINUOUS
10
5.5327
20
-3.83747
11
5.533
21
-3.839
0
LINE
8
BLACK
6
CONTINUOUS
10
5.533
20
-3.839
11
5.533
21
-3.904
0
LINE
8
BLACK
6
CONTINUOUS
10
5.533
20
-3.904
11
5.5327
21
-3.90553
0
LINE
8
BLACK
6
CONTINUOUS
10
5.5327
20
-3.90553
11
5.53183
21
-3.90683
0
LINE
8
BLACK
6
CONTINUOUS
10
5.53183
20
-3.90683
11
5.53053
21
-3.9077
0
LINE
8
BLACK
6
CONTINUOUS
10
5.53053
20
-3.9077
11
5.529
21
-3.908
0
LINE
8
BLACK
6
CONTINUOUS
10
5.529
20
-3.908
11
5.464
21
-3.908
0
LINE
8
BLACK
6
CONTINUOUS
10
5.464
20
-3.908
11
5.46247
21
-3.9077
0
LINE
8
BLACK
6
CONTINUOUS
10
5.46247
20
-3.9077
11
5.46117
21
-3.90683
0
LINE
8
BLACK
6
CONTINUOUS
10
5.46117
20
-3.90683
11
5.4603
21
-3.90553
0
LINE
8
BLACK
6
CONTINUOUS
10
5.4603
20
-3.90553
11
5.46
21
-3.904
0
LINE
8
BLACK
6
CONTINUOUS
10
5.46
20
-3.904
11
5.46
21
-3.839
0
LINE
8
BLACK
6
CONTINUOUS
10
5.46
20
-3.839
11
5.4603
21
-3.83747
0
LINE
8
BLACK
6
CONTINUOUS
10
5.4603
20
-3.83747
11
5.46117
21
-3.83617
0
LINE
8
BLACK
6
CONTINUOUS
10
5.46117
20
-3.83617
11
5.46247
21
-3.8353
0
LINE
8
BLACK
6
CONTINUOUS
10
5.46247
20
-3.8353
11
5.464
21
-3.835
0
LINE
8
BLACK
6
CONTINUOUS
10
5.464
20
-3.835
11
5.529
21
-3.835
0
LINE
8
BLACK
6
CONTINUOUS
10
5.529
20
-3.835
11
5.53053
21
-3.8353
0
LINE
8
BLACK
6
CONTINUOUS
10
5.43053
20
-3.8353
11
5.43183
21
-3.83617
0
LINE
8
BLACK
6
CONTINUOUS
10
5.43183
20
-3.83617
11
5.4327
21
-3.83747
0
LINE
8
BLACK
6
CONTINUOUS
10
5.4327
20
-3.83747
11
5.433
21
-3.839
0
LINE
8
BLACK
6
CONTINUOUS
10
5.433
20
-3.839
11
5.433
21
-3.904
0
LINE
8
BLACK
6
CONTINUOUS
10
5.433
20
-3.904
11
5.4327
21
-3.90553
0
LINE
8
BLACK
6
CONTINUOUS
10
5.4327
20
-3.90553
11
5.43183
21
-3.90683
0
LINE
8
BLACK
6
CONTINUOUS
10
5.43183
20
-3.90683
11
5.43053
21
-3.9077
0
LINE
8
BLACK
6
CONTINUOUS
10
5.43053
20
-3.9077
11
5.429
21
-3.908
0
LINE
8
BLACK
6
CONTINUOUS
10
5.429
20
-3.908
11
5.364
21
-3.908
0
LINE
8
BLACK
6
CONTINUOUS
10
5.364
20
-3.908
11
5.36247
21
-3.9077
0
LINE
8
BLACK
6
CONTINUOUS
10
5.36247
20
-3.9077
11
5.36117
21
-3.90683
0
LINE
8
BLACK
6
CONTINUOUS
10
5.36117
20
-3.90683
11
5.3603
21
-3.90553
0
LINE
8
BLACK
6
CONTINUOUS
10
5.3603
20
-3.90553
11
5.36
21
-3.904
0
LINE
8
BLACK
6
CONTINUOUS
10
5.36
20
-3.904
11
5.36
21
-3.839
0
LINE
8
BLACK
6
CONTINUOUS
10
5.36
20
-3.839
11
5.3603
21
-3.83747
0
LINE
8
BLACK
6
CONTINUOUS
10
5.3603
20
-3.83747
11
5.36117
21
-3.83617
0
LINE
8
BLACK
6
CONTINUOUS
10
5.36117
20
-3.83617
11
5.36247
21
-3.8353
0
LINE
8
BLACK
6
CONTINUOUS
10
5.36247
20
-3.8353
11
5.364
21
-3.835
0
LINE
8
BLACK
6
CONTINUOUS
10
5.364
20
-3.835
11
5.429
21
-3.835
0
LINE
8
BLACK
6
CONTINUOUS
10
5.429
20
-3.835
11
5.43053
21
-3.8353
0
LINE
8
BLACK
6
CONTINUOUS
10
6.4086
20
-3.8707
11
6.3082
21
-3.8707
0
LINE
8
BLACK
6
CONTINUOUS
10
6.3082
20
-3.8707
11
6.3082
21
-3.7723
0
LINE
8
BLACK
6
CONTINUOUS
10
6.3082
20
-3.7723
11
6.4086
21
-3.7723
0
LINE
8
BLACK
6
CONTINUOUS
10
6.4086
20
-3.7723
11
6.4086
21
-3.8707
0
LINE
8
BLACK
6
CONTINUOUS
10
6.2098
20
-3.8707
11
6.1094
21
-3.8707
0
LINE
8
BLACK
6
CONTINUOUS
10
6.1094
20
-3.8707
11
6.1094
21
-3.7723
0
LINE
8
BLACK
6
CONTINUOUS
10
6.1094
20
-3.7723
11
6.2098
21
-3.7723
0
LINE
8
BLACK
6
CONTINUOUS
10
6.2098
20
-3.7723
11
6.2098
21
-3.8707
0
LINE
8
BLACK
6
CONTINUOUS
10
5.59968
20
-3.79469
11
5.60287
21
-3.79682
0
LINE
8
BLACK
6
CONTINUOUS
10
5.60287
20
-3.79682
11
5.605
21
-3.80002
0
LINE
8
BLACK
6
CONTINUOUS
10
5.605
20
-3.80002
11
5.60575
21
-3.80378
0
LINE
8
BLACK
6
CONTINUOUS
10
5.60575
20
-3.80378
11
5.60575
21
-3.83922
0
LINE
8
BLACK
6
CONTINUOUS
10
5.60575
20
-3.83922
11
5.605
21
-3.84298
0
LINE
8
BLACK
6
CONTINUOUS
10
5.605
20
-3.84298
11
5.60287
21
-3.84618
0
LINE
8
BLACK
6
CONTINUOUS
10
5.60287
20
-3.84618
11
5.59968
21
-3.84831
0
LINE
8
BLACK
6
CONTINUOUS
10
5.59968
20
-3.84831
11
5.59591
21
-3.84906
0
LINE
8
BLACK
6
CONTINUOUS
10
5.59591
20
-3.84906
11
5.57524
21
-3.84906
0
LINE
8
BLACK
6
CONTINUOUS
10
5.57524
20
-3.84906
11
5.57147
21
-3.84831
0
LINE
8
BLACK
6
CONTINUOUS
10
5.57147
20
-3.84831
11
5.56828
21
-3.84618
0
LINE
8
BLACK
6
CONTINUOUS
10
5.56828
20
-3.84618
11
5.56615
21
-3.84298
0
LINE
8
BLACK
6
CONTINUOUS
10
5.56615
20
-3.84298
11
5.5654
21
-3.83922
0
LINE
8
BLACK
6
CONTINUOUS
10
5.5654
20
-3.83922
11
5.5654
21
-3.80378
0
LINE
8
BLACK
6
CONTINUOUS
10
5.5654
20
-3.80378
11
5.56615
21
-3.80002
0
LINE
8
BLACK
6
CONTINUOUS
10
5.56615
20
-3.80002
11
5.56828
21
-3.79682
0
LINE
8
BLACK
6
CONTINUOUS
10
5.56828
20
-3.79682
11
5.57147
21
-3.79469
0
LINE
8
BLACK
6
CONTINUOUS
10
5.57147
20
-3.79469
11
5.57524
21
-3.79394
0
LINE
8
BLACK
6
CONTINUOUS
10
5.57524
20
-3.79394
11
5.59591
21
-3.79394
0
LINE
8
BLACK
6
CONTINUOUS
10
5.59591
20
-3.79394
11
5.59968
21
-3.79469
0
LINE
8
BLACK
6
CONTINUOUS
10
5.67153
20
-3.79469
11
5.67472
21
-3.79682
0
LINE
8
BLACK
6
CONTINUOUS
10
5.67472
20
-3.79682
11
5.67685
21
-3.80002
0
LINE
8
BLACK
6
CONTINUOUS
10
5.67685
20
-3.80002
11
5.6776
21
-3.80378
0
LINE
8
BLACK
6
CONTINUOUS
10
5.6776
20
-3.80378
11
5.6776
21
-3.83922
0
LINE
8
BLACK
6
CONTINUOUS
10
5.6776
20
-3.83922
11
5.67685
21
-3.84298
0
LINE
8
BLACK
6
CONTINUOUS
10
5.67685
20
-3.84298
11
5.67472
21
-3.84618
0
LINE
8
BLACK
6
CONTINUOUS
10
5.67472
20
-3.84618
11
5.67153
21
-3.84831
0
LINE
8
BLACK
6
CONTINUOUS
10
5.67153
20
-3.84831
11
5.66776
21
-3.84906
0
LINE
8
BLACK
6
CONTINUOUS
10
5.66776
20
-3.84906
11
5.64709
21
-3.84906
0
LINE
8
BLACK
6
CONTINUOUS
10
5.64709
20
-3.84906
11
5.64332
21
-3.84831
0
LINE
8
BLACK
6
CONTINUOUS
10
5.64332
20
-3.84831
11
5.64013
21
-3.84618
0
LINE
8
BLACK
6
CONTINUOUS
10
5.64013
20
-3.84618
11
5.638
21
-3.84298
0
LINE
8
BLACK
6
CONTINUOUS
10
5.638
20
-3.84298
11
5.63725
21
-3.83922
0
LINE
8
BLACK
6
CONTINUOUS
10
5.63725
20
-3.83922
11
5.63725
21
-3.80378
0
LINE
8
BLACK
6
CONTINUOUS
10
5.63725
20
-3.80378
11
5.638
21
-3.80002
0
LINE
8
BLACK
6
CONTINUOUS
10
5.638
20
-3.80002
11
5.64013
21
-3.79682
0
LINE
8
BLACK
6
CONTINUOUS
10
5.64013
20
-3.79682
11
5.64332
21
-3.79469
0
LINE
8
BLACK
6
CONTINUOUS
10
5.64332
20
-3.79469
11
5.64709
21
-3.79394
0
LINE
8
BLACK
6
CONTINUOUS
10
5.64709
20
-3.79394
11
5.66776
21
-3.79394
0
LINE
8
BLACK
6
CONTINUOUS
10
5.66776
20
-3.79394
11
5.67153
21
-3.79469
0
LINE
8
BLACK
6
CONTINUOUS
10
5.86803
20
-3.7603
11
5.86933
21
-3.76117
0
LINE
8
BLACK
6
CONTINUOUS
10
5.86933
20
-3.76117
11
5.8702
21
-3.76247
0
LINE
8
BLACK
6
CONTINUOUS
10
5.8702
20
-3.76247
11
5.8705
21
-3.764
0
LINE
8
BLACK
6
CONTINUOUS
10
5.8705
20
-3.764
11
5.8705
21
-3.829
0
LINE
8
BLACK
6
CONTINUOUS
10
5.8705
20
-3.829
11
5.8702
21
-3.83053
0
LINE
8
BLACK
6
CONTINUOUS
10
5.8702
20
-3.83053
11
5.86933
21
-3.83183
0
LINE
8
BLACK
6
CONTINUOUS
10
5.86933
20
-3.83183
11
5.86803
21
-3.8327
0
LINE
8
BLACK
6
CONTINUOUS
10
5.86803
20
-3.8327
11
5.8665
21
-3.833
0
LINE
8
BLACK
6
CONTINUOUS
10
5.8665
20
-3.833
11
5.8015
21
-3.833
0
LINE
8
BLACK
6
CONTINUOUS
10
5.8015
20
-3.833
11
5.79997
21
-3.8327
0
LINE
8
BLACK
6
CONTINUOUS
10
5.79997
20
-3.8327
11
5.79867
21
-3.83183
0
LINE
8
BLACK
6
CONTINUOUS
10
5.79867
20
-3.83183
11
5.7978
21
-3.83053
0
LINE
8
BLACK
6
CONTINUOUS
10
5.7978
20
-3.83053
11
5.7975
21
-3.829
0
LINE
8
BLACK
6
CONTINUOUS
10
5.7975
20
-3.829
11
5.7975
21
-3.764
0
LINE
8
BLACK
6
CONTINUOUS
10
5.7975
20
-3.764
11
5.7978
21
-3.76247
0
LINE
8
BLACK
6
CONTINUOUS
10
5.7978
20
-3.76247
11
5.79867
21
-3.76117
0
LINE
8
BLACK
6
CONTINUOUS
10
5.79867
20
-3.76117
11
5.79997
21
-3.7603
0
LINE
8
BLACK
6
CONTINUOUS
10
5.79997
20
-3.7603
11
5.8015
21
-3.76
0
LINE
8
BLACK
6
CONTINUOUS
10
5.8015
20
-3.76
11
5.8665
21
-3.76
0
LINE
8
BLACK
6
CONTINUOUS
10
5.8665
20
-3.76
11
5.86803
21
-3.7603
0
LINE
8
BLACK
6
CONTINUOUS
10
5.96803
20
-3.7603
11
5.96933
21
-3.76117
0
LINE
8
BLACK
6
CONTINUOUS
10
5.96933
20
-3.76117
11
5.9702
21
-3.76247
0
LINE
8
BLACK
6
CONTINUOUS
10
5.9702
20
-3.76247
11
5.9705
21
-3.764
0
LINE
8
BLACK
6
CONTINUOUS
10
5.9705
20
-3.764
11
5.9705
21
-3.829
0
LINE
8
BLACK
6
CONTINUOUS
10
5.9705
20
-3.829
11
5.9702
21
-3.83053
0
LINE
8
BLACK
6
CONTINUOUS
10
5.9702
20
-3.83053
11
5.96933
21
-3.83183
0
LINE
8
BLACK
6
CONTINUOUS
10
5.96933
20
-3.83183
11
5.96803
21
-3.8327
0
LINE
8
BLACK
6
CONTINUOUS
10
5.96803
20
-3.8327
11
5.9665
21
-3.833
0
LINE
8
BLACK
6
CONTINUOUS
10
5.9665
20
-3.833
11
5.9015
21
-3.833
0
LINE
8
BLACK
6
CONTINUOUS
10
5.9015
20
-3.833
11
5.89997
21
-3.8327
0
LINE
8
BLACK
6
CONTINUOUS
10
5.89997
20
-3.8327
11
5.89867
21
-3.83183
0
LINE
8
BLACK
6
CONTINUOUS
10
5.89867
20
-3.83183
11
5.8978
21
-3.83053
0
LINE
8
BLACK
6
CONTINUOUS
10
5.8978
20
-3.83053
11
5.8975
21
-3.829
0
LINE
8
BLACK
6
CONTINUOUS
10
5.8975
20
-3.829
11
5.8975
21
-3.764
0
LINE
8
BLACK
6
CONTINUOUS
10
5.8975
20
-3.764
11
5.8978
21
-3.76247
0
LINE
8
BLACK
6
CONTINUOUS
10
5.8978
20
-3.76247
11
5.89867
21
-3.76117
0
LINE
8
BLACK
6
CONTINUOUS
10
5.89867
20
-3.76117
11
5.89997
21
-3.7603
0
LINE
8
BLACK
6
CONTINUOUS
10
5.89997
20
-3.7603
11
5.9015
21
-3.76
0
LINE
8
BLACK
6
CONTINUOUS
10
5.9015
20
-3.76
11
5.9665
21
-3.76
0
LINE
8
BLACK
6
CONTINUOUS
10
5.9665
20
-3.76
11
5.96803
21
-3.7603
0
LINE
8
BLACK
6
CONTINUOUS
10
6.06803
20
-3.7603
11
6.06933
21
-3.76117
0
LINE
8
BLACK
6
CONTINUOUS
10
6.06933
20
-3.76117
11
6.0702
21
-3.76247
0
LINE
8
BLACK
6
CONTINUOUS
10
6.0702
20
-3.76247
11
6.0705
21
-3.764
0
LINE
8
BLACK
6
CONTINUOUS
10
6.0705
20
-3.764
11
6.0705
21
-3.829
0
LINE
8
BLACK
6
CONTINUOUS
10
6.0705
20
-3.829
11
6.0702
21
-3.83053
0
LINE
8
BLACK
6
CONTINUOUS
10
6.0702
20
-3.83053
11
6.06933
21
-3.83183
0
LINE
8
BLACK
6
CONTINUOUS
10
6.06933
20
-3.83183
11
6.06803
21
-3.8327
0
LINE
8
BLACK
6
CONTINUOUS
10
6.06803
20
-3.8327
11
6.0665
21
-3.833
0
LINE
8
BLACK
6
CONTINUOUS
10
6.0665
20
-3.833
11
6.0015
21
-3.833
0
LINE
8
BLACK
6
CONTINUOUS
10
6.0015
20
-3.833
11
5.99997
21
-3.8327
0
LINE
8
BLACK
6
CONTINUOUS
10
5.99997
20
-3.8327
11
5.99867
21
-3.83183
0
LINE
8
BLACK
6
CONTINUOUS
10
5.99867
20
-3.83183
11
5.9978
21
-3.83053
0
LINE
8
BLACK
6
CONTINUOUS
10
5.9978
20
-3.83053
11
5.9975
21
-3.829
0
LINE
8
BLACK
6
CONTINUOUS
10
5.9975
20
-3.829
11
5.9975
21
-3.764
0
LINE
8
BLACK
6
CONTINUOUS
10
5.9975
20
-3.764
11
5.9978
21
-3.76247
0
LINE
8
BLACK
6
CONTINUOUS
10
5.9978
20
-3.76247
11
5.99867
21
-3.76117
0
LINE
8
BLACK
6
CONTINUOUS
10
5.99867
20
-3.76117
11
5.99997
21
-3.7603
0
LINE
8
BLACK
6
CONTINUOUS
10
5.99997
20
-3.7603
11
6.0015
21
-3.76
0
LINE
8
BLACK
6
CONTINUOUS
10
6.0015
20
-3.76
11
6.0665
21
-3.76
0
LINE
8
BLACK
6
CONTINUOUS
10
6.0665
20
-3.76
11
6.06803
21
-3.7603
0
LINE
8
BLACK
6
CONTINUOUS
10
5.43053
20
-3.7353
11
5.43183
21
-3.73617
0
LINE
8
BLACK
6
CONTINUOUS
10
5.43183
20
-3.73617
11
5.4327
21
-3.73747
0
LINE
8
BLACK
6
CONTINUOUS
10
5.4327
20
-3.73747
11
5.433
21
-3.739
0
LINE
8
BLACK
6
CONTINUOUS
10
5.433
20
-3.739
11
5.433
21
-3.804
0
LINE
8
BLACK
6
CONTINUOUS
10
5.433
20
-3.804
11
5.4327
21
-3.80553
0
LINE
8
BLACK
6
CONTINUOUS
10
5.4327
20
-3.80553
11
5.43183
21
-3.80683
0
LINE
8
BLACK
6
CONTINUOUS
10
5.43183
20
-3.80683
11
5.43053
21
-3.8077
0
LINE
8
BLACK
6
CONTINUOUS
10
5.43053
20
-3.8077
11
5.429
21
-3.808
0
LINE
8
BLACK
6
CONTINUOUS
10
5.429
20
-3.808
11
5.364
21
-3.808
0
LINE
8
BLACK
6
CONTINUOUS
10
5.364
20
-3.808
11
5.36247
21
-3.8077
0
LINE
8
BLACK
6
CONTINUOUS
10
5.36247
20
-3.8077
11
5.36117
21
-3.80683
0
LINE
8
BLACK
6
CONTINUOUS
10
5.36117
20
-3.80683
11
5.3603
21
-3.80553
0
LINE
8
BLACK
6
CONTINUOUS
10
5.3603
20
-3.80553
11
5.36
21
-3.804
0
LINE
8
BLACK
6
CONTINUOUS
10
5.36
20
-3.804
11
5.36
21
-3.739
0
LINE
8
BLACK
6
CONTINUOUS
10
5.36
20
-3.739
11
5.3603
21
-3.73747
0
LINE
8
BLACK
6
CONTINUOUS
10
5.3603
20
-3.73747
11
5.36117
21
-3.73617
0
LINE
8
BLACK
6
CONTINUOUS
10
5.36117
20
-3.73617
11
5.36247
21
-3.7353
0
LINE
8
BLACK
6
CONTINUOUS
10
5.36247
20
-3.7353
11
5.364
21
-3.735
0
LINE
8
BLACK
6
CONTINUOUS
10
5.364
20
-3.735
11
5.429
21
-3.735
0
LINE
8
BLACK
6
CONTINUOUS
10
5.429
20
-3.735
11
5.43053
21
-3.7353
0
LINE
8
BLACK
6
CONTINUOUS
10
5.53053
20
-3.7353
11
5.53183
21
-3.73617
0
LINE
8
BLACK
6
CONTINUOUS
10
5.53183
20
-3.73617
11
5.5327
21
-3.73747
0
LINE
8
BLACK
6
CONTINUOUS
10
5.5327
20
-3.73747
11
5.533
21
-3.739
0
LINE
8
BLACK
6
CONTINUOUS
10
5.533
20
-3.739
11
5.533
21
-3.804
0
LINE
8
BLACK
6
CONTINUOUS
10
5.533
20
-3.804
11
5.5327
21
-3.80553
0
LINE
8
BLACK
6
CONTINUOUS
10
5.5327
20
-3.80553
11
5.53183
21
-3.80683
0
LINE
8
BLACK
6
CONTINUOUS
10
5.53183
20
-3.80683
11
5.53053
21
-3.8077
0
LINE
8
BLACK
6
CONTINUOUS
10
5.53053
20
-3.8077
11
5.529
21
-3.808
0
LINE
8
BLACK
6
CONTINUOUS
10
5.529
20
-3.808
11
5.464
21
-3.808
0
LINE
8
BLACK
6
CONTINUOUS
10
5.464
20
-3.808
11
5.46247
21
-3.8077
0
LINE
8
BLACK
6
CONTINUOUS
10
5.46247
20
-3.8077
11
5.46117
21
-3.80683
0
LINE
8
BLACK
6
CONTINUOUS
10
5.46117
20
-3.80683
11
5.4603
21
-3.80553
0
LINE
8
BLACK
6
CONTINUOUS
10
5.4603
20
-3.80553
11
5.46
21
-3.804
0
LINE
8
BLACK
6
CONTINUOUS
10
5.46
20
-3.804
11
5.46
21
-3.739
0
LINE
8
BLACK
6
CONTINUOUS
10
5.46
20
-3.739
11
5.4603
21
-3.73747
0
LINE
8
BLACK
6
CONTINUOUS
10
5.4603
20
-3.73747
11
5.46117
21
-3.73617
0
LINE
8
BLACK
6
CONTINUOUS
10
5.46117
20
-3.73617
11
5.46247
21
-3.7353
0
LINE
8
BLACK
6
CONTINUOUS
10
5.46247
20
-3.7353
11
5.464
21
-3.735
0
LINE
8
BLACK
6
CONTINUOUS
10
5.464
20
-3.735
11
5.529
21
-3.735
0
LINE
8
BLACK
6
CONTINUOUS
10
5.529
20
-3.735
11
5.53053
21
-3.7353
0
LINE
8
BLACK
6
CONTINUOUS
10
5.7332
20
-3.7586
11
5.6348
21
-3.7586
0
LINE
8
BLACK
6
CONTINUOUS
10
5.6348
20
-3.7586
11
5.6348
21
-3.6582
0
LINE
8
BLACK
6
CONTINUOUS
10
5.6348
20
-3.6582
11
5.7332
21
-3.6582
0
LINE
8
BLACK
6
CONTINUOUS
10
5.7332
20
-3.6582
11
5.7332
21
-3.7586
0
LINE
8
BLACK
6
CONTINUOUS
10
6.14771
20
-3.68121
11
6.1509
21
-3.68334
0
LINE
8
BLACK
6
CONTINUOUS
10
6.1509
20
-3.68334
11
6.15303
21
-3.68653
0
LINE
8
BLACK
6
CONTINUOUS
10
6.15303
20
-3.68653
11
6.15378
21
-3.6903
0
LINE
8
BLACK
6
CONTINUOUS
10
6.15378
20
-3.6903
11
6.15378
21
-3.7277
0
LINE
8
BLACK
6
CONTINUOUS
10
6.15378
20
-3.7277
11
6.15303
21
-3.73147
0
LINE
8
BLACK
6
CONTINUOUS
10
6.15303
20
-3.73147
11
6.1509
21
-3.73466
0
LINE
8
BLACK
6
CONTINUOUS
10
6.1509
20
-3.73466
11
6.14771
21
-3.73679
0
LINE
8
BLACK
6
CONTINUOUS
10
6.14771
20
-3.73679
11
6.14394
21
-3.73754
0
LINE
8
BLACK
6
CONTINUOUS
10
6.14394
20
-3.73754
11
6.12426
21
-3.73754
0
LINE
8
BLACK
6
CONTINUOUS
10
6.12426
20
-3.73754
11
6.12049
21
-3.73679
0
LINE
8
BLACK
6
CONTINUOUS
10
6.12049
20
-3.73679
11
6.1173
21
-3.73466
0
LINE
8
BLACK
6
CONTINUOUS
10
6.1173
20
-3.73466
11
6.11516
21
-3.73147
0
LINE
8
BLACK
6
CONTINUOUS
10
6.11516
20
-3.73147
11
6.11441
21
-3.7277
0
LINE
8
BLACK
6
CONTINUOUS
10
6.11441
20
-3.7277
11
6.11441
21
-3.6903
0
LINE
8
BLACK
6
CONTINUOUS
10
6.11441
20
-3.6903
11
6.11516
21
-3.68653
0
LINE
8
BLACK
6
CONTINUOUS
10
6.11516
20
-3.68653
11
6.1173
21
-3.68334
0
LINE
8
BLACK
6
CONTINUOUS
10
6.1173
20
-3.68334
11
6.12049
21
-3.68121
0
LINE
8
BLACK
6
CONTINUOUS
10
6.12049
20
-3.68121
11
6.12426
21
-3.68046
0
LINE
8
BLACK
6
CONTINUOUS
10
6.12426
20
-3.68046
11
6.14394
21
-3.68046
0
LINE
8
BLACK
6
CONTINUOUS
10
6.14394
20
-3.68046
11
6.14771
21
-3.68121
0
LINE
8
BLACK
6
CONTINUOUS
10
6.22251
20
-3.68121
11
6.2257
21
-3.68334
0
LINE
8
BLACK
6
CONTINUOUS
10
6.2257
20
-3.68334
11
6.22784
21
-3.68653
0
LINE
8
BLACK
6
CONTINUOUS
10
6.22784
20
-3.68653
11
6.22859
21
-3.6903
0
LINE
8
BLACK
6
CONTINUOUS
10
6.22859
20
-3.6903
11
6.22859
21
-3.7277
0
LINE
8
BLACK
6
CONTINUOUS
10
6.22859
20
-3.7277
11
6.22784
21
-3.73147
0
LINE
8
BLACK
6
CONTINUOUS
10
6.22784
20
-3.73147
11
6.2257
21
-3.73466
0
LINE
8
BLACK
6
CONTINUOUS
10
6.2257
20
-3.73466
11
6.22251
21
-3.73679
0
LINE
8
BLACK
6
CONTINUOUS
10
6.22251
20
-3.73679
11
6.21874
21
-3.73754
0
LINE
8
BLACK
6
CONTINUOUS
10
6.21874
20
-3.73754
11
6.19906
21
-3.73754
0
LINE
8
BLACK
6
CONTINUOUS
10
6.19906
20
-3.73754
11
6.19529
21
-3.73679
0
LINE
8
BLACK
6
CONTINUOUS
10
6.19529
20
-3.73679
11
6.1921
21
-3.73466
0
LINE
8
BLACK
6
CONTINUOUS
10
6.1921
20
-3.73466
11
6.18997
21
-3.73147
0
LINE
8
BLACK
6
CONTINUOUS
10
6.18997
20
-3.73147
11
6.18922
21
-3.7277
0
LINE
8
BLACK
6
CONTINUOUS
10
6.18922
20
-3.7277
11
6.18922
21
-3.6903
0
LINE
8
BLACK
6
CONTINUOUS
10
6.18922
20
-3.6903
11
6.18997
21
-3.68653
0
LINE
8
BLACK
6
CONTINUOUS
10
6.18997
20
-3.68653
11
6.1921
21
-3.68334
0
LINE
8
BLACK
6
CONTINUOUS
10
6.1921
20
-3.68334
11
6.19529
21
-3.68121
0
LINE
8
BLACK
6
CONTINUOUS
10
6.19529
20
-3.68121
11
6.19906
21
-3.68046
0
LINE
8
BLACK
6
CONTINUOUS
10
6.19906
20
-3.68046
11
6.21874
21
-3.68046
0
LINE
8
BLACK
6
CONTINUOUS
10
6.21874
20
-3.68046
11
6.22251
21
-3.68121
0
LINE
8
BLACK
6
CONTINUOUS
10
5.96803
20
-3.6603
11
5.96933
21
-3.66117
0
LINE
8
BLACK
6
CONTINUOUS
10
5.96933
20
-3.66117
11
5.9702
21
-3.66247
0
LINE
8
BLACK
6
CONTINUOUS
10
5.9702
20
-3.66247
11
5.9705
21
-3.664
0
LINE
8
BLACK
6
CONTINUOUS
10
5.9705
20
-3.664
11
5.9705
21
-3.729
0
LINE
8
BLACK
6
CONTINUOUS
10
5.9705
20
-3.729
11
5.9702
21
-3.73053
0
LINE
8
BLACK
6
CONTINUOUS
10
5.9702
20
-3.73053
11
5.96933
21
-3.73183
0
LINE
8
BLACK
6
CONTINUOUS
10
5.96933
20
-3.73183
11
5.96803
21
-3.7327
0
LINE
8
BLACK
6
CONTINUOUS
10
5.96803
20
-3.7327
11
5.9665
21
-3.733
0
LINE
8
BLACK
6
CONTINUOUS
10
5.9665
20
-3.733
11
5.9015
21
-3.733
0
LINE
8
BLACK
6
CONTINUOUS
10
5.9015
20
-3.733
11
5.89997
21
-3.7327
0
LINE
8
BLACK
6
CONTINUOUS
10
5.89997
20
-3.7327
11
5.89867
21
-3.73183
0
LINE
8
BLACK
6
CONTINUOUS
10
5.89867
20
-3.73183
11
5.8978
21
-3.73053
0
LINE
8
BLACK
6
CONTINUOUS
10
5.8978
20
-3.73053
11
5.8975
21
-3.729
0
LINE
8
BLACK
6
CONTINUOUS
10
5.8975
20
-3.729
11
5.8975
21
-3.664
0
LINE
8
BLACK
6
CONTINUOUS
10
5.8975
20
-3.664
11
5.8978
21
-3.66247
0
LINE
8
BLACK
6
CONTINUOUS
10
5.8978
20
-3.66247
11
5.89867
21
-3.66117
0
LINE
8
BLACK
6
CONTINUOUS
10
5.89867
20
-3.66117
11
5.89997
21
-3.6603
0
LINE
8
BLACK
6
CONTINUOUS
10
5.89997
20
-3.6603
11
5.9015
21
-3.66
0
LINE
8
BLACK
6
CONTINUOUS
10
5.9015
20
-3.66
11
5.9665
21
-3.66
0
LINE
8
BLACK
6
CONTINUOUS
10
5.9665
20
-3.66
11
5.96803
21
-3.6603
0
LINE
8
BLACK
6
CONTINUOUS
10
6.06803
20
-3.6603
11
6.06933
21
-3.66117
0
LINE
8
BLACK
6
CONTINUOUS
10
6.06933
20
-3.66117
11
6.0702
21
-3.66247
0
LINE
8
BLACK
6
CONTINUOUS
10
6.0702
20
-3.66247
11
6.0705
21
-3.664
0
LINE
8
BLACK
6
CONTINUOUS
10
6.0705
20
-3.664
11
6.0705
21
-3.729
0
LINE
8
BLACK
6
CONTINUOUS
10
6.0705
20
-3.729
11
6.0702
21
-3.73053
0
LINE
8
BLACK
6
CONTINUOUS
10
6.0702
20
-3.73053
11
6.06933
21
-3.73183
0
LINE
8
BLACK
6
CONTINUOUS
10
6.06933
20
-3.73183
11
6.06803
21
-3.7327
0
LINE
8
BLACK
6
CONTINUOUS
10
6.06803
20
-3.7327
11
6.0665
21
-3.733
0
LINE
8
BLACK
6
CONTINUOUS
10
6.0665
20
-3.733
11
6.0015
21
-3.733
0
LINE
8
BLACK
6
CONTINUOUS
10
6.0015
20
-3.733
11
5.99997
21
-3.7327
0
LINE
8
BLACK
6
CONTINUOUS
10
5.99997
20
-3.7327
11
5.99867
21
-3.73183
0
LINE
8
BLACK
6
CONTINUOUS
10
5.99867
20
-3.73183
11
5.9978
21
-3.73053
0
LINE
8
BLACK
6
CONTINUOUS
10
5.9978
20
-3.73053
11
5.9975
21
-3.729
0
LINE
8
BLACK
6
CONTINUOUS
10
5.9975
20
-3.729
11
5.9975
21
-3.664
0
LINE
8
BLACK
6
CONTINUOUS
10
5.9975
20
-3.664
11
5.9978
21
-3.66247
0
LINE
8
BLACK
6
CONTINUOUS
10
5.9978
20
-3.66247
11
5.99867
21
-3.66117
0
LINE
8
BLACK
6
CONTINUOUS
10
5.99867
20
-3.66117
11
5.99997
21
-3.6603
0
LINE
8
BLACK
6
CONTINUOUS
10
5.99997
20
-3.6603
11
6.0015
21
-3.66
0
LINE
8
BLACK
6
CONTINUOUS
10
6.0015
20
-3.66
11
6.0665
21
-3.66
0
LINE
8
BLACK
6
CONTINUOUS
10
6.0665
20
-3.66
11
6.06803
21
-3.6603
0
LINE
8
BLACK
6
CONTINUOUS
10
5.86803
20
-3.6603
11
5.86933
21
-3.66117
0
LINE
8
BLACK
6
CONTINUOUS
10
5.86933
20
-3.66117
11
5.8702
21
-3.66247
0
LINE
8
BLACK
6
CONTINUOUS
10
5.8702
20
-3.66247
11
5.8705
21
-3.664
0
LINE
8
BLACK
6
CONTINUOUS
10
5.8705
20
-3.664
11
5.8705
21
-3.729
0
LINE
8
BLACK
6
CONTINUOUS
10
5.8705
20
-3.729
11
5.8702
21
-3.73053
0
LINE
8
BLACK
6
CONTINUOUS
10
5.8702
20
-3.73053
11
5.86933
21
-3.73183
0
LINE
8
BLACK
6
CONTINUOUS
10
5.86933
20
-3.73183
11
5.86803
21
-3.7327
0
LINE
8
BLACK
6
CONTINUOUS
10
5.86803
20
-3.7327
11
5.8665
21
-3.733
0
LINE
8
BLACK
6
CONTINUOUS
10
5.8665
20
-3.733
11
5.8015
21
-3.733
0
LINE
8
BLACK
6
CONTINUOUS
10
5.8015
20
-3.733
11
5.79997
21
-3.7327
0
LINE
8
BLACK
6
CONTINUOUS
10
5.79997
20
-3.7327
11
5.79867
21
-3.73183
0
LINE
8
BLACK
6
CONTINUOUS
10
5.79867
20
-3.73183
11
5.7978
21
-3.73053
0
LINE
8
BLACK
6
CONTINUOUS
10
5.7978
20
-3.73053
11
5.7975
21
-3.729
0
LINE
8
BLACK
6
CONTINUOUS
10
5.7975
20
-3.729
11
5.7975
21
-3.664
0
LINE
8
BLACK
6
CONTINUOUS
10
5.7975
20
-3.664
11
5.7978
21
-3.66247
0
LINE
8
BLACK
6
CONTINUOUS
10
5.7978
20
-3.66247
11
5.79867
21
-3.66117
0
LINE
8
BLACK
6
CONTINUOUS
10
5.79867
20
-3.66117
11
5.79997
21
-3.6603
0
LINE
8
BLACK
6
CONTINUOUS
10
5.79997
20
-3.6603
11
5.8015
21
-3.66
0
LINE
8
BLACK
6
CONTINUOUS
10
5.8015
20
-3.66
11
5.8665
21
-3.66
0
LINE
8
BLACK
6
CONTINUOUS
10
5.8665
20
-3.66
11
5.86803
21
-3.6603
0
LINE
8
BLACK
6
CONTINUOUS
10
5.45515
20
-3.41621
11
5.46863
21
-3.41798
0
LINE
8
BLACK
6
CONTINUOUS
10
5.46863
20
-3.41798
11
5.48182
21
-3.42129
0
LINE
8
BLACK
6
CONTINUOUS
10
5.48182
20
-3.42129
11
5.49454
21
-3.4261
0
LINE
8
BLACK
6
CONTINUOUS
10
5.49454
20
-3.4261
11
5.50662
21
-3.43234
0
LINE
8
BLACK
6
CONTINUOUS
10
5.50662
20
-3.43234
11
5.51791
21
-3.43992
0
LINE
8
BLACK
6
CONTINUOUS
10
5.51791
20
-3.43992
11
5.52825
21
-3.44875
0
LINE
8
BLACK
6
CONTINUOUS
10
5.52825
20
-3.44875
11
5.53751
21
-3.45871
0
LINE
8
BLACK
6
CONTINUOUS
10
5.53751
20
-3.45871
11
5.54556
21
-3.46967
0
LINE
8
BLACK
6
CONTINUOUS
10
5.54556
20
-3.46967
11
5.55229
21
-3.48148
0
LINE
8
BLACK
6
CONTINUOUS
10
5.55229
20
-3.48148
11
5.55763
21
-3.49399
0
LINE
8
BLACK
6
CONTINUOUS
10
5.55763
20
-3.49399
11
5.56149
21
-3.50703
0
LINE
8
BLACK
6
CONTINUOUS
10
5.56149
20
-3.50703
11
5.56383
21
-3.52042
0
LINE
8
BLACK
6
CONTINUOUS
10
5.56383
20
-3.52042
11
5.56461
21
-3.534
0
LINE
8
BLACK
6
CONTINUOUS
10
5.56461
20
-3.534
11
5.56438
21
-3.54142
0
LINE
8
BLACK
6
CONTINUOUS
10
5.56438
20
-3.54142
11
5.56274
21
-3.55492
0
LINE
8
BLACK
6
CONTINUOUS
10
5.56274
20
-3.55492
11
5.55957
21
-3.56814
0
LINE
8
BLACK
6
CONTINUOUS
10
5.55957
20
-3.56814
11
5.5549
21
-3.58091
0
LINE
8
BLACK
6
CONTINUOUS
10
5.5549
20
-3.58091
11
5.54879
21
-3.59306
0
LINE
8
BLACK
6
CONTINUOUS
10
5.54879
20
-3.59306
11
5.54132
21
-3.60442
0
LINE
8
BLACK
6
CONTINUOUS
10
5.54132
20
-3.60442
11
5.5326
21
-3.61485
0
LINE
8
BLACK
6
CONTINUOUS
10
5.5326
20
-3.61485
11
5.52274
21
-3.62421
0
LINE
8
BLACK
6
CONTINUOUS
10
5.52274
20
-3.62421
11
5.51186
21
-3.63238
0
LINE
8
BLACK
6
CONTINUOUS
10
5.51186
20
-3.63238
11
5.50012
21
-3.63924
0
LINE
8
BLACK
6
CONTINUOUS
10
5.50012
20
-3.63924
11
5.48767
21
-3.6447
0
LINE
8
BLACK
6
CONTINUOUS
10
5.48767
20
-3.6447
11
5.47467
21
-3.6487
0
LINE
8
BLACK
6
CONTINUOUS
10
5.47467
20
-3.6487
11
5.4613
21
-3.65118
0
LINE
8
BLACK
6
CONTINUOUS
10
5.4613
20
-3.65118
11
5.44774
21
-3.6521
0
LINE
8
BLACK
6
CONTINUOUS
10
5.44774
20
-3.6521
11
5.43415
21
-3.65146
0
LINE
8
BLACK
6
CONTINUOUS
10
5.43415
20
-3.65146
11
5.42074
21
-3.64927
0
LINE
8
BLACK
6
CONTINUOUS
10
5.42074
20
-3.64927
11
5.40766
21
-3.64554
0
LINE
8
BLACK
6
CONTINUOUS
10
5.40766
20
-3.64554
11
5.39509
21
-3.64034
0
LINE
8
BLACK
6
CONTINUOUS
10
5.39509
20
-3.64034
11
5.38321
21
-3.63372
0
LINE
8
BLACK
6
CONTINUOUS
10
5.38321
20
-3.63372
11
5.37217
21
-3.62579
0
LINE
8
BLACK
6
CONTINUOUS
10
5.37217
20
-3.62579
11
5.36211
21
-3.61664
0
LINE
8
BLACK
6
CONTINUOUS
10
5.36211
20
-3.61664
11
5.35317
21
-3.60639
0
LINE
8
BLACK
6
CONTINUOUS
10
5.35317
20
-3.60639
11
5.34547
21
-3.59518
0
LINE
8
BLACK
6
CONTINUOUS
10
5.34547
20
-3.59518
11
5.33911
21
-3.58317
0
LINE
8
BLACK
6
CONTINUOUS
10
5.33911
20
-3.58317
11
5.33417
21
-3.5705
0
LINE
8
BLACK
6
CONTINUOUS
10
5.33417
20
-3.5705
11
5.33072
21
-3.55735
0
LINE
8
BLACK
6
CONTINUOUS
10
5.33072
20
-3.55735
11
5.3288
21
-3.54388
0
LINE
8
BLACK
6
CONTINUOUS
10
5.3288
20
-3.54388
11
5.32845
21
-3.53029
0
LINE
8
BLACK
6
CONTINUOUS
10
5.32845
20
-3.53029
11
5.32966
21
-3.51675
0
LINE
8
BLACK
6
CONTINUOUS
10
5.32966
20
-3.51675
11
5.33241
21
-3.50343
0
LINE
8
BLACK
6
CONTINUOUS
10
5.33241
20
-3.50343
11
5.33668
21
-3.49052
0
LINE
8
BLACK
6
CONTINUOUS
10
5.33668
20
-3.49052
11
5.34241
21
-3.47819
0
LINE
8
BLACK
6
CONTINUOUS
10
5.34241
20
-3.47819
11
5.34951
21
-3.46659
0
LINE
8
BLACK
6
CONTINUOUS
10
5.34951
20
-3.46659
11
5.3579
21
-3.45589
0
LINE
8
BLACK
6
CONTINUOUS
10
5.3579
20
-3.45589
11
5.36747
21
-3.44623
0
LINE
8
BLACK
6
CONTINUOUS
10
5.36747
20
-3.44623
11
5.37808
21
-3.43773
0
LINE
8
BLACK
6
CONTINUOUS
10
5.37808
20
-3.43773
11
5.3896
21
-3.4305
0
LINE
8
BLACK
6
CONTINUOUS
10
5.3896
20
-3.4305
11
5.40187
21
-3.42465
0
LINE
8
BLACK
6
CONTINUOUS
10
5.40187
20
-3.42465
11
5.41474
21
-3.42024
0
LINE
8
BLACK
6
CONTINUOUS
10
5.41474
20
-3.42024
11
5.42802
21
-3.41734
0
LINE
8
BLACK
6
CONTINUOUS
10
5.42802
20
-3.41734
11
5.44155
21
-3.41599
0
LINE
8
BLACK
6
CONTINUOUS
10
5.44155
20
-3.41599
11
5.45515
21
-3.41621
0
LINE
8
BLACK
6
CONTINUOUS
10
6.25515
20
-3.41621
11
6.26863
21
-3.41798
0
LINE
8
BLACK
6
CONTINUOUS
10
6.26863
20
-3.41798
11
6.28182
21
-3.42129
0
LINE
8
BLACK
6
CONTINUOUS
10
6.28182
20
-3.42129
11
6.29454
21
-3.4261
0
LINE
8
BLACK
6
CONTINUOUS
10
6.29454
20
-3.4261
11
6.30662
21
-3.43234
0
LINE
8
BLACK
6
CONTINUOUS
10
6.30662
20
-3.43234
11
6.31791
21
-3.43992
0
LINE
8
BLACK
6
CONTINUOUS
10
6.31791
20
-3.43992
11
6.32825
21
-3.44875
0
LINE
8
BLACK
6
CONTINUOUS
10
6.32825
20
-3.44875
11
6.33751
21
-3.45871
0
LINE
8
BLACK
6
CONTINUOUS
10
6.33751
20
-3.45871
11
6.34556
21
-3.46967
0
LINE
8
BLACK
6
CONTINUOUS
10
6.34556
20
-3.46967
11
6.35229
21
-3.48148
0
LINE
8
BLACK
6
CONTINUOUS
10
6.35229
20
-3.48148
11
6.35763
21
-3.49399
0
LINE
8
BLACK
6
CONTINUOUS
10
6.35763
20
-3.49399
11
6.36149
21
-3.50703
0
LINE
8
BLACK
6
CONTINUOUS
10
6.36149
20
-3.50703
11
6.36383
21
-3.52042
0
LINE
8
BLACK
6
CONTINUOUS
10
6.36383
20
-3.52042
11
6.36461
21
-3.534
0
LINE
8
BLACK
6
CONTINUOUS
10
6.36461
20
-3.534
11
6.36438
21
-3.54142
0
LINE
8
BLACK
6
CONTINUOUS
10
6.36438
20
-3.54142
11
6.36274
21
-3.55492
0
LINE
8
BLACK
6
CONTINUOUS
10
6.36274
20
-3.55492
11
6.35957
21
-3.56814
0
LINE
8
BLACK
6
CONTINUOUS
10
6.35957
20
-3.56814
11
6.3549
21
-3.58091
0
LINE
8
BLACK
6
CONTINUOUS
10
6.3549
20
-3.58091
11
6.34879
21
-3.59306
0
LINE
8
BLACK
6
CONTINUOUS
10
6.34879
20
-3.59306
11
6.34132
21
-3.60442
0
LINE
8
BLACK
6
CONTINUOUS
10
6.34132
20
-3.60442
11
6.3326
21
-3.61485
0
LINE
8
BLACK
6
CONTINUOUS
10
6.3326
20
-3.61485
11
6.32274
21
-3.62421
0
LINE
8
BLACK
6
CONTINUOUS
10
6.32274
20
-3.62421
11
6.31186
21
-3.63238
0
LINE
8
BLACK
6
CONTINUOUS
10
6.31186
20
-3.63238
11
6.30012
21
-3.63924
0
LINE
8
BLACK
6
CONTINUOUS
10
6.30012
20
-3.63924
11
6.28767
21
-3.6447
0
LINE
8
BLACK
6
CONTINUOUS
10
6.28767
20
-3.6447
11
6.27467
21
-3.6487
0
LINE
8
BLACK
6
CONTINUOUS
10
6.27467
20
-3.6487
11
6.2613
21
-3.65118
0
LINE
8
BLACK
6
CONTINUOUS
10
6.2613
20
-3.65118
11
6.24774
21
-3.6521
0
LINE
8
BLACK
6
CONTINUOUS
10
6.24774
20
-3.6521
11
6.23415
21
-3.65146
0
LINE
8
BLACK
6
CONTINUOUS
10
6.23415
20
-3.65146
11
6.22074
21
-3.64927
0
LINE
8
BLACK
6
CONTINUOUS
10
6.22074
20
-3.64927
11
6.20766
21
-3.64554
0
LINE
8
BLACK
6
CONTINUOUS
10
6.20766
20
-3.64554
11
6.19509
21
-3.64034
0
LINE
8
BLACK
6
CONTINUOUS
10
6.19509
20
-3.64034
11
6.18321
21
-3.63372
0
LINE
8
BLACK
6
CONTINUOUS
10
6.18321
20
-3.63372
11
6.17217
21
-3.62579
0
LINE
8
BLACK
6
CONTINUOUS
10
6.17217
20
-3.62579
11
6.16211
21
-3.61664
0
LINE
8
BLACK
6
CONTINUOUS
10
6.16211
20
-3.61664
11
6.15317
21
-3.60639
0
LINE
8
BLACK
6
CONTINUOUS
10
6.15317
20
-3.60639
11
6.14547
21
-3.59518
0
LINE
8
BLACK
6
CONTINUOUS
10
6.14547
20
-3.59518
11
6.13911
21
-3.58317
0
LINE
8
BLACK
6
CONTINUOUS
10
6.13911
20
-3.58317
11
6.13417
21
-3.5705
0
LINE
8
BLACK
6
CONTINUOUS
10
6.13417
20
-3.5705
11
6.13072
21
-3.55735
0
LINE
8
BLACK
6
CONTINUOUS
10
6.13072
20
-3.55735
11
6.1288
21
-3.54388
0
LINE
8
BLACK
6
CONTINUOUS
10
6.1288
20
-3.54388
11
6.12845
21
-3.53029
0
LINE
8
BLACK
6
CONTINUOUS
10
6.12845
20
-3.53029
11
6.12966
21
-3.51675
0
LINE
8
BLACK
6
CONTINUOUS
10
6.12966
20
-3.51675
11
6.13241
21
-3.50343
0
LINE
8
BLACK
6
CONTINUOUS
10
6.13241
20
-3.50343
11
6.13668
21
-3.49052
0
LINE
8
BLACK
6
CONTINUOUS
10
6.13668
20
-3.49052
11
6.14241
21
-3.47819
0
LINE
8
BLACK
6
CONTINUOUS
10
6.14241
20
-3.47819
11
6.14951
21
-3.46659
0
LINE
8
BLACK
6
CONTINUOUS
10
6.14951
20
-3.46659
11
6.1579
21
-3.45589
0
LINE
8
BLACK
6
CONTINUOUS
10
6.1579
20
-3.45589
11
6.16747
21
-3.44623
0
LINE
8
BLACK
6
CONTINUOUS
10
6.16747
20
-3.44623
11
6.17808
21
-3.43773
0
LINE
8
BLACK
6
CONTINUOUS
10
6.17808
20
-3.43773
11
6.1896
21
-3.4305
0
LINE
8
BLACK
6
CONTINUOUS
10
6.1896
20
-3.4305
11
6.20187
21
-3.42465
0
LINE
8
BLACK
6
CONTINUOUS
10
6.20187
20
-3.42465
11
6.21474
21
-3.42024
0
LINE
8
BLACK
6
CONTINUOUS
10
6.21474
20
-3.42024
11
6.22802
21
-3.41734
0
LINE
8
BLACK
6
CONTINUOUS
10
6.22802
20
-3.41734
11
6.24155
21
-3.41599
0
LINE
8
BLACK
6
CONTINUOUS
10
6.24155
20
-3.41599
11
6.25515
21
-3.41621
0
LINE
8
BLACK
6
CONTINUOUS
10
5.86803
20
-3.5603
11
5.86933
21
-3.56117
0
LINE
8
BLACK
6
CONTINUOUS
10
5.86933
20
-3.56117
11
5.8702
21
-3.56247
0
LINE
8
BLACK
6
CONTINUOUS
10
5.8702
20
-3.56247
11
5.8705
21
-3.564
0
LINE
8
BLACK
6
CONTINUOUS
10
5.8705
20
-3.564
11
5.8705
21
-3.629
0
LINE
8
BLACK
6
CONTINUOUS
10
5.8705
20
-3.629
11
5.8702
21
-3.63053
0
LINE
8
BLACK
6
CONTINUOUS
10
5.8702
20
-3.63053
11
5.86933
21
-3.63183
0
LINE
8
BLACK
6
CONTINUOUS
10
5.86933
20
-3.63183
11
5.86803
21
-3.6327
0
LINE
8
BLACK
6
CONTINUOUS
10
5.86803
20
-3.6327
11
5.8665
21
-3.633
0
LINE
8
BLACK
6
CONTINUOUS
10
5.8665
20
-3.633
11
5.8015
21
-3.633
0
LINE
8
BLACK
6
CONTINUOUS
10
5.8015
20
-3.633
11
5.79997
21
-3.6327
0
LINE
8
BLACK
6
CONTINUOUS
10
5.79997
20
-3.6327
11
5.79867
21
-3.63183
0
LINE
8
BLACK
6
CONTINUOUS
10
5.79867
20
-3.63183
11
5.7978
21
-3.63053
0
LINE
8
BLACK
6
CONTINUOUS
10
5.7978
20
-3.63053
11
5.7975
21
-3.629
0
LINE
8
BLACK
6
CONTINUOUS
10
5.7975
20
-3.629
11
5.7975
21
-3.564
0
LINE
8
BLACK
6
CONTINUOUS
10
5.7975
20
-3.564
11
5.7978
21
-3.56247
0
LINE
8
BLACK
6
CONTINUOUS
10
5.7978
20
-3.56247
11
5.79867
21
-3.56117
0
LINE
8
BLACK
6
CONTINUOUS
10
5.79867
20
-3.56117
11
5.79997
21
-3.5603
0
LINE
8
BLACK
6
CONTINUOUS
10
5.79997
20
-3.5603
11
5.8015
21
-3.56
0
LINE
8
BLACK
6
CONTINUOUS
10
5.8015
20
-3.56
11
5.8665
21
-3.56
0
LINE
8
BLACK
6
CONTINUOUS
10
5.8665
20
-3.56
11
5.86803
21
-3.5603
0
LINE
8
BLACK
6
CONTINUOUS
10
6.06803
20
-3.5603
11
6.06933
21
-3.56117
0
LINE
8
BLACK
6
CONTINUOUS
10
6.06933
20
-3.56117
11
6.0702
21
-3.56247
0
LINE
8
BLACK
6
CONTINUOUS
10
6.0702
20
-3.56247
11
6.0705
21
-3.564
0
LINE
8
BLACK
6
CONTINUOUS
10
6.0705
20
-3.564
11
6.0705
21
-3.629
0
LINE
8
BLACK
6
CONTINUOUS
10
6.0705
20
-3.629
11
6.0702
21
-3.63053
0
LINE
8
BLACK
6
CONTINUOUS
10
6.0702
20
-3.63053
11
6.06933
21
-3.63183
0
LINE
8
BLACK
6
CONTINUOUS
10
6.06933
20
-3.63183
11
6.06803
21
-3.6327
0
LINE
8
BLACK
6
CONTINUOUS
10
6.06803
20
-3.6327
11
6.0665
21
-3.633
0
LINE
8
BLACK
6
CONTINUOUS
10
6.0665
20
-3.633
11
6.0015
21
-3.633
0
LINE
8
BLACK
6
CONTINUOUS
10
6.0015
20
-3.633
11
5.99997
21
-3.6327
0
LINE
8
BLACK
6
CONTINUOUS
10
5.99997
20
-3.6327
11
5.99867
21
-3.63183
0
LINE
8
BLACK
6
CONTINUOUS
10
5.99867
20
-3.63183
11
5.9978
21
-3.63053
0
LINE
8
BLACK
6
CONTINUOUS
10
5.9978
20
-3.63053
11
5.9975
21
-3.629
0
LINE
8
BLACK
6
CONTINUOUS
10
5.9975
20
-3.629
11
5.9975
21
-3.564
0
LINE
8
BLACK
6
CONTINUOUS
10
5.9975
20
-3.564
11
5.9978
21
-3.56247
0
LINE
8
BLACK
6
CONTINUOUS
10
5.9978
20
-3.56247
11
5.99867
21
-3.56117
0
LINE
8
BLACK
6
CONTINUOUS
10
5.99867
20
-3.56117
11
5.99997
21
-3.5603
0
LINE
8
BLACK
6
CONTINUOUS
10
5.99997
20
-3.5603
11
6.0015
21
-3.56
0
LINE
8
BLACK
6
CONTINUOUS
10
6.0015
20
-3.56
11
6.0665
21
-3.56
0
LINE
8
BLACK
6
CONTINUOUS
10
6.0665
20
-3.56
11
6.06803
21
-3.5603
0
LINE
8
BLACK
6
CONTINUOUS
10
5.96803
20
-3.5603
11
5.96933
21
-3.56117
0
LINE
8
BLACK
6
CONTINUOUS
10
5.96933
20
-3.56117
11
5.9702
21
-3.56247
0
LINE
8
BLACK
6
CONTINUOUS
10
5.9702
20
-3.56247
11
5.9705
21
-3.564
0
LINE
8
BLACK
6
CONTINUOUS
10
5.9705
20
-3.564
11
5.9705
21
-3.629
0
LINE
8
BLACK
6
CONTINUOUS
10
5.9705
20
-3.629
11
5.9702
21
-3.63053
0
LINE
8
BLACK
6
CONTINUOUS
10
5.9702
20
-3.63053
11
5.96933
21
-3.63183
0
LINE
8
BLACK
6
CONTINUOUS
10
5.96933
20
-3.63183
11
5.96803
21
-3.6327
0
LINE
8
BLACK
6
CONTINUOUS
10
5.96803
20
-3.6327
11
5.9665
21
-3.633
0
LINE
8
BLACK
6
CONTINUOUS
10
5.9665
20
-3.633
11
5.9015
21
-3.633
0
LINE
8
BLACK
6
CONTINUOUS
10
5.9015
20
-3.633
11
5.89997
21
-3.6327
0
LINE
8
BLACK
6
CONTINUOUS
10
5.89997
20
-3.6327
11
5.89867
21
-3.63183
0
LINE
8
BLACK
6
CONTINUOUS
10
5.89867
20
-3.63183
11
5.8978
21
-3.63053
0
LINE
8
BLACK
6
CONTINUOUS
10
5.8978
20
-3.63053
11
5.8975
21
-3.629
0
LINE
8
BLACK
6
CONTINUOUS
10
5.8975
20
-3.629
11
5.8975
21
-3.564
0
LINE
8
BLACK
6
CONTINUOUS
10
5.8975
20
-3.564
11
5.8978
21
-3.56247
0
LINE
8
BLACK
6
CONTINUOUS
10
5.8978
20
-3.56247
11
5.89867
21
-3.56117
0
LINE
8
BLACK
6
CONTINUOUS
10
5.89867
20
-3.56117
11
5.89997
21
-3.5603
0
LINE
8
BLACK
6
CONTINUOUS
10
5.89997
20
-3.5603
11
5.9015
21
-3.56
0
LINE
8
BLACK
6
CONTINUOUS
10
5.9015
20
-3.56
11
5.9665
21
-3.56
0
LINE
8
BLACK
6
CONTINUOUS
10
5.9665
20
-3.56
11
5.96803
21
-3.5603
0
LINE
8
BLACK
6
CONTINUOUS
10
5.7332
20
-3.5598
11
5.6348
21
-3.5598
0
LINE
8
BLACK
6
CONTINUOUS
10
5.6348
20
-3.5598
11
5.6348
21
-3.4594
0
LINE
8
BLACK
6
CONTINUOUS
10
5.6348
20
-3.4594
11
5.7332
21
-3.4594
0
LINE
8
BLACK
6
CONTINUOUS
10
5.7332
20
-3.4594
11
5.7332
21
-3.5598
0
LINE
8
BLACK
6
CONTINUOUS
10
6.06803
20
-3.4603
11
6.06933
21
-3.46117
0
LINE
8
BLACK
6
CONTINUOUS
10
6.06933
20
-3.46117
11
6.0702
21
-3.46247
0
LINE
8
BLACK
6
CONTINUOUS
10
6.0702
20
-3.46247
11
6.0705
21
-3.464
0
LINE
8
BLACK
6
CONTINUOUS
10
6.0705
20
-3.464
11
6.0705
21
-3.529
0
LINE
8
BLACK
6
CONTINUOUS
10
6.0705
20
-3.529
11
6.0702
21
-3.53053
0
LINE
8
BLACK
6
CONTINUOUS
10
6.0702
20
-3.53053
11
6.06933
21
-3.53183
0
LINE
8
BLACK
6
CONTINUOUS
10
6.06933
20
-3.53183
11
6.06803
21
-3.5327
0
LINE
8
BLACK
6
CONTINUOUS
10
6.06803
20
-3.5327
11
6.0665
21
-3.533
0
LINE
8
BLACK
6
CONTINUOUS
10
6.0665
20
-3.533
11
6.0015
21
-3.533
0
LINE
8
BLACK
6
CONTINUOUS
10
6.0015
20
-3.533
11
5.99997
21
-3.5327
0
LINE
8
BLACK
6
CONTINUOUS
10
5.99997
20
-3.5327
11
5.99867
21
-3.53183
0
LINE
8
BLACK
6
CONTINUOUS
10
5.99867
20
-3.53183
11
5.9978
21
-3.53053
0
LINE
8
BLACK
6
CONTINUOUS
10
5.9978
20
-3.53053
11
5.9975
21
-3.529
0
LINE
8
BLACK
6
CONTINUOUS
10
5.9975
20
-3.529
11
5.9975
21
-3.464
0
LINE
8
BLACK
6
CONTINUOUS
10
5.9975
20
-3.464
11
5.9978
21
-3.46247
0
LINE
8
BLACK
6
CONTINUOUS
10
5.9978
20
-3.46247
11
5.99867
21
-3.46117
0
LINE
8
BLACK
6
CONTINUOUS
10
5.99867
20
-3.46117
11
5.99997
21
-3.4603
0
LINE
8
BLACK
6
CONTINUOUS
10
5.99997
20
-3.4603
11
6.0015
21
-3.46
0
LINE
8
BLACK
6
CONTINUOUS
10
6.0015
20
-3.46
11
6.0665
21
-3.46
0
LINE
8
BLACK
6
CONTINUOUS
10
6.0665
20
-3.46
11
6.06803
21
-3.4603
0
LINE
8
BLACK
6
CONTINUOUS
10
5.86803
20
-3.4603
11
5.86933
21
-3.46117
0
LINE
8
BLACK
6
CONTINUOUS
10
5.86933
20
-3.46117
11
5.8702
21
-3.46247
0
LINE
8
BLACK
6
CONTINUOUS
10
5.8702
20
-3.46247
11
5.8705
21
-3.464
0
LINE
8
BLACK
6
CONTINUOUS
10
5.8705
20
-3.464
11
5.8705
21
-3.529
0
LINE
8
BLACK
6
CONTINUOUS
10
5.8705
20
-3.529
11
5.8702
21
-3.53053
0
LINE
8
BLACK
6
CONTINUOUS
10
5.8702
20
-3.53053
11
5.86933
21
-3.53183
0
LINE
8
BLACK
6
CONTINUOUS
10
5.86933
20
-3.53183
11
5.86803
21
-3.5327
0
LINE
8
BLACK
6
CONTINUOUS
10
5.86803
20
-3.5327
11
5.8665
21
-3.533
0
LINE
8
BLACK
6
CONTINUOUS
10
5.8665
20
-3.533
11
5.8015
21
-3.533
0
LINE
8
BLACK
6
CONTINUOUS
10
5.8015
20
-3.533
11
5.79997
21
-3.5327
0
LINE
8
BLACK
6
CONTINUOUS
10
5.79997
20
-3.5327
11
5.79867
21
-3.53183
0
LINE
8
BLACK
6
CONTINUOUS
10
5.79867
20
-3.53183
11
5.7978
21
-3.53053
0
LINE
8
BLACK
6
CONTINUOUS
10
5.7978
20
-3.53053
11
5.7975
21
-3.529
0
LINE
8
BLACK
6
CONTINUOUS
10
5.7975
20
-3.529
11
5.7975
21
-3.464
0
LINE
8
BLACK
6
CONTINUOUS
10
5.7975
20
-3.464
11
5.7978
21
-3.46247
0
LINE
8
BLACK
6
CONTINUOUS
10
5.7978
20
-3.46247
11
5.79867
21
-3.46117
0
LINE
8
BLACK
6
CONTINUOUS
10
5.79867
20
-3.46117
11
5.79997
21
-3.4603
0
LINE
8
BLACK
6
CONTINUOUS
10
5.79997
20
-3.4603
11
5.8015
21
-3.46
0
LINE
8
BLACK
6
CONTINUOUS
10
5.8015
20
-3.46
11
5.8665
21
-3.46
0
LINE
8
BLACK
6
CONTINUOUS
10
5.8665
20
-3.46
11
5.86803
21
-3.4603
0
LINE
8
BLACK
6
CONTINUOUS
10
5.96803
20
-3.4603
11
5.96933
21
-3.46117
0
LINE
8
BLACK
6
CONTINUOUS
10
5.96933
20
-3.46117
11
5.9702
21
-3.46247
0
LINE
8
BLACK
6
CONTINUOUS
10
5.9702
20
-3.46247
11
5.9705
21
-3.464
0
LINE
8
BLACK
6
CONTINUOUS
10
5.9705
20
-3.464
11
5.9705
21
-3.529
0
LINE
8
BLACK
6
CONTINUOUS
10
5.9705
20
-3.529
11
5.9702
21
-3.53053
0
LINE
8
BLACK
6
CONTINUOUS
10
5.9702
20
-3.53053
11
5.96933
21
-3.53183
0
LINE
8
BLACK
6
CONTINUOUS
10
5.96933
20
-3.53183
11
5.96803
21
-3.5327
0
LINE
8
BLACK
6
CONTINUOUS
10
5.96803
20
-3.5327
11
5.9665
21
-3.533
0
LINE
8
BLACK
6
CONTINUOUS
10
5.9665
20
-3.533
11
5.9015
21
-3.533
0
LINE
8
BLACK
6
CONTINUOUS
10
5.9015
20
-3.533
11
5.89997
21
-3.5327
0
LINE
8
BLACK
6
CONTINUOUS
10
5.89997
20
-3.5327
11
5.89867
21
-3.53183
0
LINE
8
BLACK
6
CONTINUOUS
10
5.89867
20
-3.53183
11
5.8978
21
-3.53053
0
LINE
8
BLACK
6
CONTINUOUS
10
5.8978
20
-3.53053
11
5.8975
21
-3.529
0
LINE
8
BLACK
6
CONTINUOUS
10
5.8975
20
-3.529
11
5.8975
21
-3.464
0
LINE
8
BLACK
6
CONTINUOUS
10
5.8975
20
-3.464
11
5.8978
21
-3.46247
0
LINE
8
BLACK
6
CONTINUOUS
10
5.8978
20
-3.46247
11
5.89867
21
-3.46117
0
LINE
8
BLACK
6
CONTINUOUS
10
5.89867
20
-3.46117
11
5.89997
21
-3.4603
0
LINE
8
BLACK
6
CONTINUOUS
10
5.89997
20
-3.4603
11
5.9015
21
-3.46
0
LINE
8
BLACK
6
CONTINUOUS
10
5.9015
20
-3.46
11
5.9665
21
-3.46
0
LINE
8
BLACK
6
CONTINUOUS
10
5.9665
20
-3.46
11
5.96803
21
-3.4603
  0
ENDSEC
  0
EOF
