  0
SECTION
  2
HEADER
  9
$ANGBASE
  50
0.0
  9
$ANGDIR
  70
1
  9
$MEASUREMENT
  70
0
  0
ENDSEC
  0
SECTION
  2
TABLES
  0
TABLE
  2
LTYPE
  70
4
  0
LTYPE
  5
40F
  2
CONTINUOUS
  70
0
  3
Solid line
  72
65
  73
0
  40
0.0
  0
LTYPE
  5
410
  2
DASHDOT
 70
0
  3
Dash Dot ____ _ ____ _
 72
65
 73
4
 40
2.0
 49
1.25
 49
-0.25
 49
0.25
 49
-0.25
  0
LTYPE
  5
411
  2
DASHED
 70
0
  3
Dashed __ __ __ __ __
 72
65
 73
2
 40
0.75
 49
0.5
 49
-0.25
  0
LTYPE
  5
43B
  2
DOTTED
 70
0
  3
Dotted .  .  .  .
 72
65
 73
2
 40
0.2
 49
0.0
 49
-0.2
  0
ENDTAB
  0
TABLE
  2
STYLE
  70
4
  0
STYLE
  2
KICAD
  70
0
  40
0
  41
1
  42
1
  50
0
  71
0
  3
isocp.shx
  0
STYLE
  2
KICADB
  70
0
  40
0
  41
1
  42
1
  50
0
  71
0
  3
isocp.shx
  0
STYLE
  2
KICADI
  70
0
  40
0
  41
1
  42
1
  50
15
  71
0
  3
isocp.shx
  0
STYLE
  2
KICADBI
  70
0
  40
0
  41
1
  42
1
  50
15
  71
0
  3
isocp.shx
  0
ENDTAB
  0
TABLE
  2
LAYER
  70
1
  0
LAYER
  2
BLACK
  70
0
  62
7
  6
CONTINUOUS
  0
ENDTAB
  0
ENDSEC
  0
SECTION
  2
ENTITIES
0
LINE
8
BLACK
6
CONTINUOUS
10
5.67414
20
-4.84135
11
5.67898
21
-4.8428
0
LINE
8
BLACK
6
CONTINUOUS
10
5.67898
20
-4.8428
11
5.68323
21
-4.84555
0
LINE
8
BLACK
6
CONTINUOUS
10
5.68323
20
-4.84555
11
5.68653
21
-4.84939
0
LINE
8
BLACK
6
CONTINUOUS
10
5.68653
20
-4.84939
11
5.68863
21
-4.85399
0
LINE
8
BLACK
6
CONTINUOUS
10
5.68863
20
-4.85399
11
5.68934
21
-4.859
0
LINE
8
BLACK
6
CONTINUOUS
10
5.68934
20
-4.859
11
5.68934
21
-4.85944
0
LINE
8
BLACK
6
CONTINUOUS
10
5.68934
20
-4.85944
11
5.6885
21
-4.86442
0
LINE
8
BLACK
6
CONTINUOUS
10
5.6885
20
-4.86442
11
5.68629
21
-4.86898
0
LINE
8
BLACK
6
CONTINUOUS
10
5.68629
20
-4.86898
11
5.6829
21
-4.87273
0
LINE
8
BLACK
6
CONTINUOUS
10
5.6829
20
-4.87273
11
5.67859
21
-4.87538
0
LINE
8
BLACK
6
CONTINUOUS
10
5.67859
20
-4.87538
11
5.67371
21
-4.87671
0
LINE
8
BLACK
6
CONTINUOUS
10
5.67371
20
-4.87671
11
5.66865
21
-4.87661
0
LINE
8
BLACK
6
CONTINUOUS
10
5.66865
20
-4.87661
11
5.66382
21
-4.8751
0
LINE
8
BLACK
6
CONTINUOUS
10
5.66382
20
-4.8751
11
5.65961
21
-4.8723
0
LINE
8
BLACK
6
CONTINUOUS
10
5.65961
20
-4.8723
11
5.65635
21
-4.86843
0
LINE
8
BLACK
6
CONTINUOUS
10
5.65635
20
-4.86843
11
5.65431
21
-4.8638
0
LINE
8
BLACK
6
CONTINUOUS
10
5.65431
20
-4.8638
11
5.65366
21
-4.85878
0
LINE
8
BLACK
6
CONTINUOUS
10
5.65366
20
-4.85878
11
5.65444
21
-4.85378
0
LINE
8
BLACK
6
CONTINUOUS
10
5.65444
20
-4.85378
11
5.65659
21
-4.8492
0
LINE
8
BLACK
6
CONTINUOUS
10
5.65659
20
-4.8492
11
5.65994
21
-4.84541
0
LINE
8
BLACK
6
CONTINUOUS
10
5.65994
20
-4.84541
11
5.66421
21
-4.84271
0
LINE
8
BLACK
6
CONTINUOUS
10
5.66421
20
-4.84271
11
5.66908
21
-4.84132
0
LINE
8
BLACK
6
CONTINUOUS
10
5.66908
20
-4.84132
11
5.67414
21
-4.84135
0
LINE
8
BLACK
6
CONTINUOUS
10
5.62414
20
-4.82885
11
5.62898
21
-4.8303
0
LINE
8
BLACK
6
CONTINUOUS
10
5.62898
20
-4.8303
11
5.63323
21
-4.83305
0
LINE
8
BLACK
6
CONTINUOUS
10
5.63323
20
-4.83305
11
5.63653
21
-4.83689
0
LINE
8
BLACK
6
CONTINUOUS
10
5.63653
20
-4.83689
11
5.63863
21
-4.84149
0
LINE
8
BLACK
6
CONTINUOUS
10
5.63863
20
-4.84149
11
5.63934
21
-4.8465
0
LINE
8
BLACK
6
CONTINUOUS
10
5.63934
20
-4.8465
11
5.63934
21
-4.84694
0
LINE
8
BLACK
6
CONTINUOUS
10
5.63934
20
-4.84694
11
5.6385
21
-4.85192
0
LINE
8
BLACK
6
CONTINUOUS
10
5.6385
20
-4.85192
11
5.63629
21
-4.85648
0
LINE
8
BLACK
6
CONTINUOUS
10
5.63629
20
-4.85648
11
5.6329
21
-4.86023
0
LINE
8
BLACK
6
CONTINUOUS
10
5.6329
20
-4.86023
11
5.62859
21
-4.86288
0
LINE
8
BLACK
6
CONTINUOUS
10
5.62859
20
-4.86288
11
5.62371
21
-4.86421
0
LINE
8
BLACK
6
CONTINUOUS
10
5.62371
20
-4.86421
11
5.61865
21
-4.86411
0
LINE
8
BLACK
6
CONTINUOUS
10
5.61865
20
-4.86411
11
5.61382
21
-4.8626
0
LINE
8
BLACK
6
CONTINUOUS
10
5.61382
20
-4.8626
11
5.60961
21
-4.8598
0
LINE
8
BLACK
6
CONTINUOUS
10
5.60961
20
-4.8598
11
5.60635
21
-4.85593
0
LINE
8
BLACK
6
CONTINUOUS
10
5.60635
20
-4.85593
11
5.60431
21
-4.8513
0
LINE
8
BLACK
6
CONTINUOUS
10
5.60431
20
-4.8513
11
5.60366
21
-4.84628
0
LINE
8
BLACK
6
CONTINUOUS
10
5.60366
20
-4.84628
11
5.60444
21
-4.84128
0
LINE
8
BLACK
6
CONTINUOUS
10
5.60444
20
-4.84128
11
5.60659
21
-4.8367
0
LINE
8
BLACK
6
CONTINUOUS
10
5.60659
20
-4.8367
11
5.60994
21
-4.83291
0
LINE
8
BLACK
6
CONTINUOUS
10
5.60994
20
-4.83291
11
5.61421
21
-4.83021
0
LINE
8
BLACK
6
CONTINUOUS
10
5.61421
20
-4.83021
11
5.61908
21
-4.82882
0
LINE
8
BLACK
6
CONTINUOUS
10
5.61908
20
-4.82882
11
5.62414
21
-4.82885
0
LINE
8
BLACK
6
CONTINUOUS
10
6.08664
20
-4.82885
11
6.09148
21
-4.8303
0
LINE
8
BLACK
6
CONTINUOUS
10
6.09148
20
-4.8303
11
6.09573
21
-4.83305
0
LINE
8
BLACK
6
CONTINUOUS
10
6.09573
20
-4.83305
11
6.09903
21
-4.83689
0
LINE
8
BLACK
6
CONTINUOUS
10
6.09903
20
-4.83689
11
6.10113
21
-4.84149
0
LINE
8
BLACK
6
CONTINUOUS
10
6.10113
20
-4.84149
11
6.10184
21
-4.8465
0
LINE
8
BLACK
6
CONTINUOUS
10
6.10184
20
-4.8465
11
6.10184
21
-4.84694
0
LINE
8
BLACK
6
CONTINUOUS
10
6.10184
20
-4.84694
11
6.101
21
-4.85192
0
LINE
8
BLACK
6
CONTINUOUS
10
6.101
20
-4.85192
11
6.09879
21
-4.85648
0
LINE
8
BLACK
6
CONTINUOUS
10
6.09879
20
-4.85648
11
6.0954
21
-4.86023
0
LINE
8
BLACK
6
CONTINUOUS
10
6.0954
20
-4.86023
11
6.09109
21
-4.86288
0
LINE
8
BLACK
6
CONTINUOUS
10
6.09109
20
-4.86288
11
6.08621
21
-4.86421
0
LINE
8
BLACK
6
CONTINUOUS
10
6.08621
20
-4.86421
11
6.08115
21
-4.86411
0
LINE
8
BLACK
6
CONTINUOUS
10
6.08115
20
-4.86411
11
6.07632
21
-4.8626
0
LINE
8
BLACK
6
CONTINUOUS
10
6.07632
20
-4.8626
11
6.07211
21
-4.8598
0
LINE
8
BLACK
6
CONTINUOUS
10
6.07211
20
-4.8598
11
6.06885
21
-4.85593
0
LINE
8
BLACK
6
CONTINUOUS
10
6.06885
20
-4.85593
11
6.06681
21
-4.8513
0
LINE
8
BLACK
6
CONTINUOUS
10
6.06681
20
-4.8513
11
6.06616
21
-4.84628
0
LINE
8
BLACK
6
CONTINUOUS
10
6.06616
20
-4.84628
11
6.06694
21
-4.84128
0
LINE
8
BLACK
6
CONTINUOUS
10
6.06694
20
-4.84128
11
6.06909
21
-4.8367
0
LINE
8
BLACK
6
CONTINUOUS
10
6.06909
20
-4.8367
11
6.07244
21
-4.83291
0
LINE
8
BLACK
6
CONTINUOUS
10
6.07244
20
-4.83291
11
6.07671
21
-4.83021
0
LINE
8
BLACK
6
CONTINUOUS
10
6.07671
20
-4.83021
11
6.08158
21
-4.82882
0
LINE
8
BLACK
6
CONTINUOUS
10
6.08158
20
-4.82882
11
6.08664
21
-4.82885
0
LINE
8
BLACK
6
CONTINUOUS
10
5.98664
20
-4.82885
11
5.99148
21
-4.8303
0
LINE
8
BLACK
6
CONTINUOUS
10
5.99148
20
-4.8303
11
5.99573
21
-4.83305
0
LINE
8
BLACK
6
CONTINUOUS
10
5.99573
20
-4.83305
11
5.99903
21
-4.83689
0
LINE
8
BLACK
6
CONTINUOUS
10
5.99903
20
-4.83689
11
6.00113
21
-4.84149
0
LINE
8
BLACK
6
CONTINUOUS
10
6.00113
20
-4.84149
11
6.00184
21
-4.8465
0
LINE
8
BLACK
6
CONTINUOUS
10
6.00184
20
-4.8465
11
6.00184
21
-4.84694
0
LINE
8
BLACK
6
CONTINUOUS
10
6.00184
20
-4.84694
11
6.001
21
-4.85192
0
LINE
8
BLACK
6
CONTINUOUS
10
6.001
20
-4.85192
11
5.99879
21
-4.85648
0
LINE
8
BLACK
6
CONTINUOUS
10
5.99879
20
-4.85648
11
5.9954
21
-4.86023
0
LINE
8
BLACK
6
CONTINUOUS
10
5.9954
20
-4.86023
11
5.99109
21
-4.86288
0
LINE
8
BLACK
6
CONTINUOUS
10
5.99109
20
-4.86288
11
5.98621
21
-4.86421
0
LINE
8
BLACK
6
CONTINUOUS
10
5.98621
20
-4.86421
11
5.98115
21
-4.86411
0
LINE
8
BLACK
6
CONTINUOUS
10
5.98115
20
-4.86411
11
5.97632
21
-4.8626
0
LINE
8
BLACK
6
CONTINUOUS
10
5.97632
20
-4.8626
11
5.97211
21
-4.8598
0
LINE
8
BLACK
6
CONTINUOUS
10
5.97211
20
-4.8598
11
5.96885
21
-4.85593
0
LINE
8
BLACK
6
CONTINUOUS
10
5.96885
20
-4.85593
11
5.96681
21
-4.8513
0
LINE
8
BLACK
6
CONTINUOUS
10
5.96681
20
-4.8513
11
5.96616
21
-4.84628
0
LINE
8
BLACK
6
CONTINUOUS
10
5.96616
20
-4.84628
11
5.96694
21
-4.84128
0
LINE
8
BLACK
6
CONTINUOUS
10
5.96694
20
-4.84128
11
5.96909
21
-4.8367
0
LINE
8
BLACK
6
CONTINUOUS
10
5.96909
20
-4.8367
11
5.97244
21
-4.83291
0
LINE
8
BLACK
6
CONTINUOUS
10
5.97244
20
-4.83291
11
5.97671
21
-4.83021
0
LINE
8
BLACK
6
CONTINUOUS
10
5.97671
20
-4.83021
11
5.98158
21
-4.82882
0
LINE
8
BLACK
6
CONTINUOUS
10
5.98158
20
-4.82882
11
5.98664
21
-4.82885
0
LINE
8
BLACK
6
CONTINUOUS
10
5.77414
20
-4.82885
11
5.77898
21
-4.8303
0
LINE
8
BLACK
6
CONTINUOUS
10
5.77898
20
-4.8303
11
5.78323
21
-4.83305
0
LINE
8
BLACK
6
CONTINUOUS
10
5.78323
20
-4.83305
11
5.78653
21
-4.83689
0
LINE
8
BLACK
6
CONTINUOUS
10
5.78653
20
-4.83689
11
5.78863
21
-4.84149
0
LINE
8
BLACK
6
CONTINUOUS
10
5.78863
20
-4.84149
11
5.78934
21
-4.8465
0
LINE
8
BLACK
6
CONTINUOUS
10
5.78934
20
-4.8465
11
5.78934
21
-4.84694
0
LINE
8
BLACK
6
CONTINUOUS
10
5.78934
20
-4.84694
11
5.7885
21
-4.85192
0
LINE
8
BLACK
6
CONTINUOUS
10
5.7885
20
-4.85192
11
5.78629
21
-4.85648
0
LINE
8
BLACK
6
CONTINUOUS
10
5.78629
20
-4.85648
11
5.7829
21
-4.86023
0
LINE
8
BLACK
6
CONTINUOUS
10
5.7829
20
-4.86023
11
5.77859
21
-4.86288
0
LINE
8
BLACK
6
CONTINUOUS
10
5.77859
20
-4.86288
11
5.77371
21
-4.86421
0
LINE
8
BLACK
6
CONTINUOUS
10
5.77371
20
-4.86421
11
5.76865
21
-4.86411
0
LINE
8
BLACK
6
CONTINUOUS
10
5.76865
20
-4.86411
11
5.76382
21
-4.8626
0
LINE
8
BLACK
6
CONTINUOUS
10
5.76382
20
-4.8626
11
5.75961
21
-4.8598
0
LINE
8
BLACK
6
CONTINUOUS
10
5.75961
20
-4.8598
11
5.75635
21
-4.85593
0
LINE
8
BLACK
6
CONTINUOUS
10
5.75635
20
-4.85593
11
5.75431
21
-4.8513
0
LINE
8
BLACK
6
CONTINUOUS
10
5.75431
20
-4.8513
11
5.75366
21
-4.84628
0
LINE
8
BLACK
6
CONTINUOUS
10
5.75366
20
-4.84628
11
5.75444
21
-4.84128
0
LINE
8
BLACK
6
CONTINUOUS
10
5.75444
20
-4.84128
11
5.75659
21
-4.8367
0
LINE
8
BLACK
6
CONTINUOUS
10
5.75659
20
-4.8367
11
5.75994
21
-4.83291
0
LINE
8
BLACK
6
CONTINUOUS
10
5.75994
20
-4.83291
11
5.76421
21
-4.83021
0
LINE
8
BLACK
6
CONTINUOUS
10
5.76421
20
-4.83021
11
5.76908
21
-4.82882
0
LINE
8
BLACK
6
CONTINUOUS
10
5.76908
20
-4.82882
11
5.77414
21
-4.82885
0
LINE
8
BLACK
6
CONTINUOUS
10
5.93664
20
-4.82885
11
5.94148
21
-4.8303
0
LINE
8
BLACK
6
CONTINUOUS
10
5.94148
20
-4.8303
11
5.94573
21
-4.83305
0
LINE
8
BLACK
6
CONTINUOUS
10
5.94573
20
-4.83305
11
5.94903
21
-4.83689
0
LINE
8
BLACK
6
CONTINUOUS
10
5.94903
20
-4.83689
11
5.95113
21
-4.84149
0
LINE
8
BLACK
6
CONTINUOUS
10
5.95113
20
-4.84149
11
5.95184
21
-4.8465
0
LINE
8
BLACK
6
CONTINUOUS
10
5.95184
20
-4.8465
11
5.95184
21
-4.84694
0
LINE
8
BLACK
6
CONTINUOUS
10
5.95184
20
-4.84694
11
5.951
21
-4.85192
0
LINE
8
BLACK
6
CONTINUOUS
10
5.951
20
-4.85192
11
5.94879
21
-4.85648
0
LINE
8
BLACK
6
CONTINUOUS
10
5.94879
20
-4.85648
11
5.9454
21
-4.86023
0
LINE
8
BLACK
6
CONTINUOUS
10
5.9454
20
-4.86023
11
5.94109
21
-4.86288
0
LINE
8
BLACK
6
CONTINUOUS
10
5.94109
20
-4.86288
11
5.93621
21
-4.86421
0
LINE
8
BLACK
6
CONTINUOUS
10
5.93621
20
-4.86421
11
5.93115
21
-4.86411
0
LINE
8
BLACK
6
CONTINUOUS
10
5.93115
20
-4.86411
11
5.92632
21
-4.8626
0
LINE
8
BLACK
6
CONTINUOUS
10
5.92632
20
-4.8626
11
5.92211
21
-4.8598
0
LINE
8
BLACK
6
CONTINUOUS
10
5.92211
20
-4.8598
11
5.91885
21
-4.85593
0
LINE
8
BLACK
6
CONTINUOUS
10
5.91885
20
-4.85593
11
5.91681
21
-4.8513
0
LINE
8
BLACK
6
CONTINUOUS
10
5.91681
20
-4.8513
11
5.91616
21
-4.84628
0
LINE
8
BLACK
6
CONTINUOUS
10
5.91616
20
-4.84628
11
5.91694
21
-4.84128
0
LINE
8
BLACK
6
CONTINUOUS
10
5.91694
20
-4.84128
11
5.91909
21
-4.8367
0
LINE
8
BLACK
6
CONTINUOUS
10
5.91909
20
-4.8367
11
5.92244
21
-4.83291
0
LINE
8
BLACK
6
CONTINUOUS
10
5.92244
20
-4.83291
11
5.92671
21
-4.83021
0
LINE
8
BLACK
6
CONTINUOUS
10
5.92671
20
-4.83021
11
5.93158
21
-4.82882
0
LINE
8
BLACK
6
CONTINUOUS
10
5.93158
20
-4.82882
11
5.93664
21
-4.82885
0
LINE
8
BLACK
6
CONTINUOUS
10
5.82414
20
-4.82885
11
5.82898
21
-4.8303
0
LINE
8
BLACK
6
CONTINUOUS
10
5.82898
20
-4.8303
11
5.83323
21
-4.83305
0
LINE
8
BLACK
6
CONTINUOUS
10
5.83323
20
-4.83305
11
5.83653
21
-4.83689
0
LINE
8
BLACK
6
CONTINUOUS
10
5.83653
20
-4.83689
11
5.83863
21
-4.84149
0
LINE
8
BLACK
6
CONTINUOUS
10
5.83863
20
-4.84149
11
5.83934
21
-4.8465
0
LINE
8
BLACK
6
CONTINUOUS
10
5.83934
20
-4.8465
11
5.83934
21
-4.84694
0
LINE
8
BLACK
6
CONTINUOUS
10
5.83934
20
-4.84694
11
5.8385
21
-4.85192
0
LINE
8
BLACK
6
CONTINUOUS
10
5.8385
20
-4.85192
11
5.83629
21
-4.85648
0
LINE
8
BLACK
6
CONTINUOUS
10
5.83629
20
-4.85648
11
5.8329
21
-4.86023
0
LINE
8
BLACK
6
CONTINUOUS
10
5.8329
20
-4.86023
11
5.82859
21
-4.86288
0
LINE
8
BLACK
6
CONTINUOUS
10
5.82859
20
-4.86288
11
5.82371
21
-4.86421
0
LINE
8
BLACK
6
CONTINUOUS
10
5.82371
20
-4.86421
11
5.81865
21
-4.86411
0
LINE
8
BLACK
6
CONTINUOUS
10
5.81865
20
-4.86411
11
5.81382
21
-4.8626
0
LINE
8
BLACK
6
CONTINUOUS
10
5.81382
20
-4.8626
11
5.80961
21
-4.8598
0
LINE
8
BLACK
6
CONTINUOUS
10
5.80961
20
-4.8598
11
5.80635
21
-4.85593
0
LINE
8
BLACK
6
CONTINUOUS
10
5.80635
20
-4.85593
11
5.80431
21
-4.8513
0
LINE
8
BLACK
6
CONTINUOUS
10
5.80431
20
-4.8513
11
5.80366
21
-4.84628
0
LINE
8
BLACK
6
CONTINUOUS
10
5.80366
20
-4.84628
11
5.80444
21
-4.84128
0
LINE
8
BLACK
6
CONTINUOUS
10
5.80444
20
-4.84128
11
5.80659
21
-4.8367
0
LINE
8
BLACK
6
CONTINUOUS
10
5.80659
20
-4.8367
11
5.80994
21
-4.83291
0
LINE
8
BLACK
6
CONTINUOUS
10
5.80994
20
-4.83291
11
5.81421
21
-4.83021
0
LINE
8
BLACK
6
CONTINUOUS
10
5.81421
20
-4.83021
11
5.81908
21
-4.82882
0
LINE
8
BLACK
6
CONTINUOUS
10
5.81908
20
-4.82882
11
5.82414
21
-4.82885
0
LINE
8
BLACK
6
CONTINUOUS
10
5.87414
20
-4.82885
11
5.87898
21
-4.8303
0
LINE
8
BLACK
6
CONTINUOUS
10
5.87898
20
-4.8303
11
5.88323
21
-4.83305
0
LINE
8
BLACK
6
CONTINUOUS
10
5.88323
20
-4.83305
11
5.88653
21
-4.83689
0
LINE
8
BLACK
6
CONTINUOUS
10
5.88653
20
-4.83689
11
5.88863
21
-4.84149
0
LINE
8
BLACK
6
CONTINUOUS
10
5.88863
20
-4.84149
11
5.88934
21
-4.8465
0
LINE
8
BLACK
6
CONTINUOUS
10
5.88934
20
-4.8465
11
5.88934
21
-4.84694
0
LINE
8
BLACK
6
CONTINUOUS
10
5.88934
20
-4.84694
11
5.8885
21
-4.85192
0
LINE
8
BLACK
6
CONTINUOUS
10
5.8885
20
-4.85192
11
5.88629
21
-4.85648
0
LINE
8
BLACK
6
CONTINUOUS
10
5.88629
20
-4.85648
11
5.8829
21
-4.86023
0
LINE
8
BLACK
6
CONTINUOUS
10
5.8829
20
-4.86023
11
5.87859
21
-4.86288
0
LINE
8
BLACK
6
CONTINUOUS
10
5.87859
20
-4.86288
11
5.87371
21
-4.86421
0
LINE
8
BLACK
6
CONTINUOUS
10
5.87371
20
-4.86421
11
5.86865
21
-4.86411
0
LINE
8
BLACK
6
CONTINUOUS
10
5.86865
20
-4.86411
11
5.86382
21
-4.8626
0
LINE
8
BLACK
6
CONTINUOUS
10
5.86382
20
-4.8626
11
5.85961
21
-4.8598
0
LINE
8
BLACK
6
CONTINUOUS
10
5.85961
20
-4.8598
11
5.85635
21
-4.85593
0
LINE
8
BLACK
6
CONTINUOUS
10
5.85635
20
-4.85593
11
5.85431
21
-4.8513
0
LINE
8
BLACK
6
CONTINUOUS
10
5.85431
20
-4.8513
11
5.85366
21
-4.84628
0
LINE
8
BLACK
6
CONTINUOUS
10
5.85366
20
-4.84628
11
5.85444
21
-4.84128
0
LINE
8
BLACK
6
CONTINUOUS
10
5.85444
20
-4.84128
11
5.85659
21
-4.8367
0
LINE
8
BLACK
6
CONTINUOUS
10
5.85659
20
-4.8367
11
5.85994
21
-4.83291
0
LINE
8
BLACK
6
CONTINUOUS
10
5.85994
20
-4.83291
11
5.86421
21
-4.83021
0
LINE
8
BLACK
6
CONTINUOUS
10
5.86421
20
-4.83021
11
5.86908
21
-4.82882
0
LINE
8
BLACK
6
CONTINUOUS
10
5.86908
20
-4.82882
11
5.87414
21
-4.82885
0
LINE
8
BLACK
6
CONTINUOUS
10
5.72414
20
-4.82885
11
5.72898
21
-4.8303
0
LINE
8
BLACK
6
CONTINUOUS
10
5.72898
20
-4.8303
11
5.73323
21
-4.83305
0
LINE
8
BLACK
6
CONTINUOUS
10
5.73323
20
-4.83305
11
5.73653
21
-4.83689
0
LINE
8
BLACK
6
CONTINUOUS
10
5.73653
20
-4.83689
11
5.73863
21
-4.84149
0
LINE
8
BLACK
6
CONTINUOUS
10
5.73863
20
-4.84149
11
5.73934
21
-4.8465
0
LINE
8
BLACK
6
CONTINUOUS
10
5.73934
20
-4.8465
11
5.73934
21
-4.84694
0
LINE
8
BLACK
6
CONTINUOUS
10
5.73934
20
-4.84694
11
5.7385
21
-4.85192
0
LINE
8
BLACK
6
CONTINUOUS
10
5.7385
20
-4.85192
11
5.73629
21
-4.85648
0
LINE
8
BLACK
6
CONTINUOUS
10
5.73629
20
-4.85648
11
5.7329
21
-4.86023
0
LINE
8
BLACK
6
CONTINUOUS
10
5.7329
20
-4.86023
11
5.72859
21
-4.86288
0
LINE
8
BLACK
6
CONTINUOUS
10
5.72859
20
-4.86288
11
5.72371
21
-4.86421
0
LINE
8
BLACK
6
CONTINUOUS
10
5.72371
20
-4.86421
11
5.71865
21
-4.86411
0
LINE
8
BLACK
6
CONTINUOUS
10
5.71865
20
-4.86411
11
5.71382
21
-4.8626
0
LINE
8
BLACK
6
CONTINUOUS
10
5.71382
20
-4.8626
11
5.70961
21
-4.8598
0
LINE
8
BLACK
6
CONTINUOUS
10
5.70961
20
-4.8598
11
5.70635
21
-4.85593
0
LINE
8
BLACK
6
CONTINUOUS
10
5.70635
20
-4.85593
11
5.70431
21
-4.8513
0
LINE
8
BLACK
6
CONTINUOUS
10
5.70431
20
-4.8513
11
5.70366
21
-4.84628
0
LINE
8
BLACK
6
CONTINUOUS
10
5.70366
20
-4.84628
11
5.70444
21
-4.84128
0
LINE
8
BLACK
6
CONTINUOUS
10
5.70444
20
-4.84128
11
5.70659
21
-4.8367
0
LINE
8
BLACK
6
CONTINUOUS
10
5.70659
20
-4.8367
11
5.70994
21
-4.83291
0
LINE
8
BLACK
6
CONTINUOUS
10
5.70994
20
-4.83291
11
5.71421
21
-4.83021
0
LINE
8
BLACK
6
CONTINUOUS
10
5.71421
20
-4.83021
11
5.71908
21
-4.82882
0
LINE
8
BLACK
6
CONTINUOUS
10
5.71908
20
-4.82882
11
5.72414
21
-4.82885
0
LINE
8
BLACK
6
CONTINUOUS
10
6.03664
20
-4.82885
11
6.04148
21
-4.8303
0
LINE
8
BLACK
6
CONTINUOUS
10
6.04148
20
-4.8303
11
6.04573
21
-4.83305
0
LINE
8
BLACK
6
CONTINUOUS
10
6.04573
20
-4.83305
11
6.04903
21
-4.83689
0
LINE
8
BLACK
6
CONTINUOUS
10
6.04903
20
-4.83689
11
6.05113
21
-4.84149
0
LINE
8
BLACK
6
CONTINUOUS
10
6.05113
20
-4.84149
11
6.05184
21
-4.8465
0
LINE
8
BLACK
6
CONTINUOUS
10
6.05184
20
-4.8465
11
6.05184
21
-4.84694
0
LINE
8
BLACK
6
CONTINUOUS
10
6.05184
20
-4.84694
11
6.051
21
-4.85192
0
LINE
8
BLACK
6
CONTINUOUS
10
6.051
20
-4.85192
11
6.04879
21
-4.85648
0
LINE
8
BLACK
6
CONTINUOUS
10
6.04879
20
-4.85648
11
6.0454
21
-4.86023
0
LINE
8
BLACK
6
CONTINUOUS
10
6.0454
20
-4.86023
11
6.04109
21
-4.86288
0
LINE
8
BLACK
6
CONTINUOUS
10
6.04109
20
-4.86288
11
6.03621
21
-4.86421
0
LINE
8
BLACK
6
CONTINUOUS
10
6.03621
20
-4.86421
11
6.03115
21
-4.86411
0
LINE
8
BLACK
6
CONTINUOUS
10
6.03115
20
-4.86411
11
6.02632
21
-4.8626
0
LINE
8
BLACK
6
CONTINUOUS
10
6.02632
20
-4.8626
11
6.02211
21
-4.8598
0
LINE
8
BLACK
6
CONTINUOUS
10
6.02211
20
-4.8598
11
6.01885
21
-4.85593
0
LINE
8
BLACK
6
CONTINUOUS
10
6.01885
20
-4.85593
11
6.01681
21
-4.8513
0
LINE
8
BLACK
6
CONTINUOUS
10
6.01681
20
-4.8513
11
6.01616
21
-4.84628
0
LINE
8
BLACK
6
CONTINUOUS
10
6.01616
20
-4.84628
11
6.01694
21
-4.84128
0
LINE
8
BLACK
6
CONTINUOUS
10
6.01694
20
-4.84128
11
6.01909
21
-4.8367
0
LINE
8
BLACK
6
CONTINUOUS
10
6.01909
20
-4.8367
11
6.02244
21
-4.83291
0
LINE
8
BLACK
6
CONTINUOUS
10
6.02244
20
-4.83291
11
6.02671
21
-4.83021
0
LINE
8
BLACK
6
CONTINUOUS
10
6.02671
20
-4.83021
11
6.03158
21
-4.82882
0
LINE
8
BLACK
6
CONTINUOUS
10
6.03158
20
-4.82882
11
6.03664
21
-4.82885
0
LINE
8
BLACK
6
CONTINUOUS
10
5.46154
20
-4.60789
11
5.4755
21
-4.61036
0
LINE
8
BLACK
6
CONTINUOUS
10
5.4755
20
-4.61036
11
5.4891
21
-4.61436
0
LINE
8
BLACK
6
CONTINUOUS
10
5.4891
20
-4.61436
11
5.50217
21
-4.61985
0
LINE
8
BLACK
6
CONTINUOUS
10
5.50217
20
-4.61985
11
5.51455
21
-4.62677
0
LINE
8
BLACK
6
CONTINUOUS
10
5.51455
20
-4.62677
11
5.52608
21
-4.63502
0
LINE
8
BLACK
6
CONTINUOUS
10
5.52608
20
-4.63502
11
5.53662
21
-4.64451
0
LINE
8
BLACK
6
CONTINUOUS
10
5.53662
20
-4.64451
11
5.54603
21
-4.65511
0
LINE
8
BLACK
6
CONTINUOUS
10
5.54603
20
-4.65511
11
5.5542
21
-4.6667
0
LINE
8
BLACK
6
CONTINUOUS
10
5.5542
20
-4.6667
11
5.56103
21
-4.67913
0
LINE
8
BLACK
6
CONTINUOUS
10
5.56103
20
-4.67913
11
5.56644
21
-4.69223
0
LINE
8
BLACK
6
CONTINUOUS
10
5.56644
20
-4.69223
11
5.57034
21
-4.70586
0
LINE
8
BLACK
6
CONTINUOUS
10
5.57034
20
-4.70586
11
5.57271
21
-4.71984
0
LINE
8
BLACK
6
CONTINUOUS
10
5.57271
20
-4.71984
11
5.5735
21
-4.734
0
LINE
8
BLACK
6
CONTINUOUS
10
5.5735
20
-4.734
11
5.57345
21
-4.73755
0
LINE
8
BLACK
6
CONTINUOUS
10
5.57345
20
-4.73755
11
5.57226
21
-4.75167
0
LINE
8
BLACK
6
CONTINUOUS
10
5.57226
20
-4.75167
11
5.56951
21
-4.76558
0
LINE
8
BLACK
6
CONTINUOUS
10
5.56951
20
-4.76558
11
5.56522
21
-4.7791
0
LINE
8
BLACK
6
CONTINUOUS
10
5.56522
20
-4.7791
11
5.55946
21
-4.79205
0
LINE
8
BLACK
6
CONTINUOUS
10
5.55946
20
-4.79205
11
5.55228
21
-4.80428
0
LINE
8
BLACK
6
CONTINUOUS
10
5.55228
20
-4.80428
11
5.54379
21
-4.81563
0
LINE
8
BLACK
6
CONTINUOUS
10
5.54379
20
-4.81563
11
5.53408
21
-4.82597
0
LINE
8
BLACK
6
CONTINUOUS
10
5.53408
20
-4.82597
11
5.52328
21
-4.83516
0
LINE
8
BLACK
6
CONTINUOUS
10
5.52328
20
-4.83516
11
5.51153
21
-4.84309
0
LINE
8
BLACK
6
CONTINUOUS
10
5.51153
20
-4.84309
11
5.49896
21
-4.84966
0
LINE
8
BLACK
6
CONTINUOUS
10
5.49896
20
-4.84966
11
5.48575
21
-4.85478
0
LINE
8
BLACK
6
CONTINUOUS
10
5.48575
20
-4.85478
11
5.47204
21
-4.85841
0
LINE
8
BLACK
6
CONTINUOUS
10
5.47204
20
-4.85841
11
5.45801
21
-4.86048
0
LINE
8
BLACK
6
CONTINUOUS
10
5.45801
20
-4.86048
11
5.44384
21
-4.86097
0
LINE
8
BLACK
6
CONTINUOUS
10
5.44384
20
-4.86097
11
5.4297
21
-4.85988
0
LINE
8
BLACK
6
CONTINUOUS
10
5.4297
20
-4.85988
11
5.41578
21
-4.85723
0
LINE
8
BLACK
6
CONTINUOUS
10
5.41578
20
-4.85723
11
5.40223
21
-4.85303
0
LINE
8
BLACK
6
CONTINUOUS
10
5.40223
20
-4.85303
11
5.38924
21
-4.84736
0
LINE
8
BLACK
6
CONTINUOUS
10
5.38924
20
-4.84736
11
5.37696
21
-4.84027
0
LINE
8
BLACK
6
CONTINUOUS
10
5.37696
20
-4.84027
11
5.36555
21
-4.83186
0
LINE
8
BLACK
6
CONTINUOUS
10
5.36555
20
-4.83186
11
5.35514
21
-4.82222
0
LINE
8
BLACK
6
CONTINUOUS
10
5.35514
20
-4.82222
11
5.34588
21
-4.81149
0
LINE
8
BLACK
6
CONTINUOUS
10
5.34588
20
-4.81149
11
5.33787
21
-4.79979
0
LINE
8
BLACK
6
CONTINUOUS
10
5.33787
20
-4.79979
11
5.33121
21
-4.78727
0
LINE
8
BLACK
6
CONTINUOUS
10
5.33121
20
-4.78727
11
5.32599
21
-4.77409
0
LINE
8
BLACK
6
CONTINUOUS
10
5.32599
20
-4.77409
11
5.32228
21
-4.7604
0
LINE
8
BLACK
6
CONTINUOUS
10
5.32228
20
-4.7604
11
5.32011
21
-4.74639
0
LINE
8
BLACK
6
CONTINUOUS
10
5.32011
20
-4.74639
11
5.31951
21
-4.73223
0
LINE
8
BLACK
6
CONTINUOUS
10
5.31951
20
-4.73223
11
5.3205
21
-4.71808
0
LINE
8
BLACK
6
CONTINUOUS
10
5.3205
20
-4.71808
11
5.32306
21
-4.70414
0
LINE
8
BLACK
6
CONTINUOUS
10
5.32306
20
-4.70414
11
5.32716
21
-4.69056
0
LINE
8
BLACK
6
CONTINUOUS
10
5.32716
20
-4.69056
11
5.33274
21
-4.67753
0
LINE
8
BLACK
6
CONTINUOUS
10
5.33274
20
-4.67753
11
5.33975
21
-4.6652
0
LINE
8
BLACK
6
CONTINUOUS
10
5.33975
20
-4.6652
11
5.34808
21
-4.65373
0
LINE
8
BLACK
6
CONTINUOUS
10
5.34808
20
-4.65373
11
5.35764
21
-4.64326
0
LINE
8
BLACK
6
CONTINUOUS
10
5.35764
20
-4.64326
11
5.36831
21
-4.63392
0
LINE
8
BLACK
6
CONTINUOUS
10
5.36831
20
-4.63392
11
5.37995
21
-4.62583
0
LINE
8
BLACK
6
CONTINUOUS
10
5.37995
20
-4.62583
11
5.39243
21
-4.61909
0
LINE
8
BLACK
6
CONTINUOUS
10
5.39243
20
-4.61909
11
5.40557
21
-4.61378
0
LINE
8
BLACK
6
CONTINUOUS
10
5.40557
20
-4.61378
11
5.41923
21
-4.60996
0
LINE
8
BLACK
6
CONTINUOUS
10
5.41923
20
-4.60996
11
5.43322
21
-4.6077
0
LINE
8
BLACK
6
CONTINUOUS
10
5.43322
20
-4.6077
11
5.44739
21
-4.607
0
LINE
8
BLACK
6
CONTINUOUS
10
5.44739
20
-4.607
11
5.46154
21
-4.60789
0
LINE
8
BLACK
6
CONTINUOUS
10
6.26154
20
-4.60789
11
6.2755
21
-4.61036
0
LINE
8
BLACK
6
CONTINUOUS
10
6.2755
20
-4.61036
11
6.2891
21
-4.61436
0
LINE
8
BLACK
6
CONTINUOUS
10
6.2891
20
-4.61436
11
6.30217
21
-4.61985
0
LINE
8
BLACK
6
CONTINUOUS
10
6.30217
20
-4.61985
11
6.31455
21
-4.62677
0
LINE
8
BLACK
6
CONTINUOUS
10
6.31455
20
-4.62677
11
6.32608
21
-4.63502
0
LINE
8
BLACK
6
CONTINUOUS
10
6.32608
20
-4.63502
11
6.33662
21
-4.64451
0
LINE
8
BLACK
6
CONTINUOUS
10
6.33662
20
-4.64451
11
6.34603
21
-4.65511
0
LINE
8
BLACK
6
CONTINUOUS
10
6.34603
20
-4.65511
11
6.3542
21
-4.6667
0
LINE
8
BLACK
6
CONTINUOUS
10
6.3542
20
-4.6667
11
6.36103
21
-4.67913
0
LINE
8
BLACK
6
CONTINUOUS
10
6.36103
20
-4.67913
11
6.36644
21
-4.69223
0
LINE
8
BLACK
6
CONTINUOUS
10
6.36644
20
-4.69223
11
6.37034
21
-4.70586
0
LINE
8
BLACK
6
CONTINUOUS
10
6.37034
20
-4.70586
11
6.37271
21
-4.71984
0
LINE
8
BLACK
6
CONTINUOUS
10
6.37271
20
-4.71984
11
6.3735
21
-4.734
0
LINE
8
BLACK
6
CONTINUOUS
10
6.3735
20
-4.734
11
6.37345
21
-4.73755
0
LINE
8
BLACK
6
CONTINUOUS
10
6.37345
20
-4.73755
11
6.37226
21
-4.75167
0
LINE
8
BLACK
6
CONTINUOUS
10
6.37226
20
-4.75167
11
6.36951
21
-4.76558
0
LINE
8
BLACK
6
CONTINUOUS
10
6.36951
20
-4.76558
11
6.36522
21
-4.7791
0
LINE
8
BLACK
6
CONTINUOUS
10
6.36522
20
-4.7791
11
6.35946
21
-4.79205
0
LINE
8
BLACK
6
CONTINUOUS
10
6.35946
20
-4.79205
11
6.35228
21
-4.80428
0
LINE
8
BLACK
6
CONTINUOUS
10
6.35228
20
-4.80428
11
6.34379
21
-4.81563
0
LINE
8
BLACK
6
CONTINUOUS
10
6.34379
20
-4.81563
11
6.33408
21
-4.82597
0
LINE
8
BLACK
6
CONTINUOUS
10
6.33408
20
-4.82597
11
6.32328
21
-4.83516
0
LINE
8
BLACK
6
CONTINUOUS
10
6.32328
20
-4.83516
11
6.31153
21
-4.84309
0
LINE
8
BLACK
6
CONTINUOUS
10
6.31153
20
-4.84309
11
6.29896
21
-4.84966
0
LINE
8
BLACK
6
CONTINUOUS
10
6.29896
20
-4.84966
11
6.28575
21
-4.85478
0
LINE
8
BLACK
6
CONTINUOUS
10
6.28575
20
-4.85478
11
6.27204
21
-4.85841
0
LINE
8
BLACK
6
CONTINUOUS
10
6.27204
20
-4.85841
11
6.25801
21
-4.86048
0
LINE
8
BLACK
6
CONTINUOUS
10
6.25801
20
-4.86048
11
6.24384
21
-4.86097
0
LINE
8
BLACK
6
CONTINUOUS
10
6.24384
20
-4.86097
11
6.2297
21
-4.85988
0
LINE
8
BLACK
6
CONTINUOUS
10
6.2297
20
-4.85988
11
6.21578
21
-4.85723
0
LINE
8
BLACK
6
CONTINUOUS
10
6.21578
20
-4.85723
11
6.20223
21
-4.85303
0
LINE
8
BLACK
6
CONTINUOUS
10
6.20223
20
-4.85303
11
6.18924
21
-4.84736
0
LINE
8
BLACK
6
CONTINUOUS
10
6.18924
20
-4.84736
11
6.17696
21
-4.84027
0
LINE
8
BLACK
6
CONTINUOUS
10
6.17696
20
-4.84027
11
6.16555
21
-4.83186
0
LINE
8
BLACK
6
CONTINUOUS
10
6.16555
20
-4.83186
11
6.15514
21
-4.82222
0
LINE
8
BLACK
6
CONTINUOUS
10
6.15514
20
-4.82222
11
6.14588
21
-4.81149
0
LINE
8
BLACK
6
CONTINUOUS
10
6.14588
20
-4.81149
11
6.13787
21
-4.79979
0
LINE
8
BLACK
6
CONTINUOUS
10
6.13787
20
-4.79979
11
6.13121
21
-4.78727
0
LINE
8
BLACK
6
CONTINUOUS
10
6.13121
20
-4.78727
11
6.12599
21
-4.77409
0
LINE
8
BLACK
6
CONTINUOUS
10
6.12599
20
-4.77409
11
6.12228
21
-4.7604
0
LINE
8
BLACK
6
CONTINUOUS
10
6.12228
20
-4.7604
11
6.12011
21
-4.74639
0
LINE
8
BLACK
6
CONTINUOUS
10
6.12011
20
-4.74639
11
6.11951
21
-4.73223
0
LINE
8
BLACK
6
CONTINUOUS
10
6.11951
20
-4.73223
11
6.1205
21
-4.71808
0
LINE
8
BLACK
6
CONTINUOUS
10
6.1205
20
-4.71808
11
6.12306
21
-4.70414
0
LINE
8
BLACK
6
CONTINUOUS
10
6.12306
20
-4.70414
11
6.12716
21
-4.69056
0
LINE
8
BLACK
6
CONTINUOUS
10
6.12716
20
-4.69056
11
6.13274
21
-4.67753
0
LINE
8
BLACK
6
CONTINUOUS
10
6.13274
20
-4.67753
11
6.13975
21
-4.6652
0
LINE
8
BLACK
6
CONTINUOUS
10
6.13975
20
-4.6652
11
6.14808
21
-4.65373
0
LINE
8
BLACK
6
CONTINUOUS
10
6.14808
20
-4.65373
11
6.15764
21
-4.64326
0
LINE
8
BLACK
6
CONTINUOUS
10
6.15764
20
-4.64326
11
6.16831
21
-4.63392
0
LINE
8
BLACK
6
CONTINUOUS
10
6.16831
20
-4.63392
11
6.17995
21
-4.62583
0
LINE
8
BLACK
6
CONTINUOUS
10
6.17995
20
-4.62583
11
6.19243
21
-4.61909
0
LINE
8
BLACK
6
CONTINUOUS
10
6.19243
20
-4.61909
11
6.20557
21
-4.61378
0
LINE
8
BLACK
6
CONTINUOUS
10
6.20557
20
-4.61378
11
6.21923
21
-4.60996
0
LINE
8
BLACK
6
CONTINUOUS
10
6.21923
20
-4.60996
11
6.23322
21
-4.6077
0
LINE
8
BLACK
6
CONTINUOUS
10
6.23322
20
-4.6077
11
6.24739
21
-4.607
0
LINE
8
BLACK
6
CONTINUOUS
10
6.24739
20
-4.607
11
6.26154
21
-4.60789
0
LINE
8
BLACK
6
CONTINUOUS
10
5.57414
20
-4.80385
11
5.57898
21
-4.8053
0
LINE
8
BLACK
6
CONTINUOUS
10
5.57898
20
-4.8053
11
5.58323
21
-4.80805
0
LINE
8
BLACK
6
CONTINUOUS
10
5.58323
20
-4.80805
11
5.58653
21
-4.81189
0
LINE
8
BLACK
6
CONTINUOUS
10
5.58653
20
-4.81189
11
5.58863
21
-4.81649
0
LINE
8
BLACK
6
CONTINUOUS
10
5.58863
20
-4.81649
11
5.58934
21
-4.8215
0
LINE
8
BLACK
6
CONTINUOUS
10
5.58934
20
-4.8215
11
5.58934
21
-4.82194
0
LINE
8
BLACK
6
CONTINUOUS
10
5.58934
20
-4.82194
11
5.5885
21
-4.82692
0
LINE
8
BLACK
6
CONTINUOUS
10
5.5885
20
-4.82692
11
5.58629
21
-4.83148
0
LINE
8
BLACK
6
CONTINUOUS
10
5.58629
20
-4.83148
11
5.5829
21
-4.83523
0
LINE
8
BLACK
6
CONTINUOUS
10
5.5829
20
-4.83523
11
5.57859
21
-4.83788
0
LINE
8
BLACK
6
CONTINUOUS
10
5.57859
20
-4.83788
11
5.57371
21
-4.83921
0
LINE
8
BLACK
6
CONTINUOUS
10
5.57371
20
-4.83921
11
5.56865
21
-4.83911
0
LINE
8
BLACK
6
CONTINUOUS
10
5.56865
20
-4.83911
11
5.56382
21
-4.8376
0
LINE
8
BLACK
6
CONTINUOUS
10
5.56382
20
-4.8376
11
5.55961
21
-4.8348
0
LINE
8
BLACK
6
CONTINUOUS
10
5.55961
20
-4.8348
11
5.55635
21
-4.83093
0
LINE
8
BLACK
6
CONTINUOUS
10
5.55635
20
-4.83093
11
5.55431
21
-4.8263
0
LINE
8
BLACK
6
CONTINUOUS
10
5.55431
20
-4.8263
11
5.55366
21
-4.82128
0
LINE
8
BLACK
6
CONTINUOUS
10
5.55366
20
-4.82128
11
5.55444
21
-4.81628
0
LINE
8
BLACK
6
CONTINUOUS
10
5.55444
20
-4.81628
11
5.55659
21
-4.8117
0
LINE
8
BLACK
6
CONTINUOUS
10
5.55659
20
-4.8117
11
5.55994
21
-4.80791
0
LINE
8
BLACK
6
CONTINUOUS
10
5.55994
20
-4.80791
11
5.56421
21
-4.80521
0
LINE
8
BLACK
6
CONTINUOUS
10
5.56421
20
-4.80521
11
5.56908
21
-4.80382
0
LINE
8
BLACK
6
CONTINUOUS
10
5.56908
20
-4.80382
11
5.57414
21
-4.80385
0
LINE
8
BLACK
6
CONTINUOUS
10
6.11164
20
-4.79135
11
6.11648
21
-4.7928
0
LINE
8
BLACK
6
CONTINUOUS
10
6.11648
20
-4.7928
11
6.12073
21
-4.79555
0
LINE
8
BLACK
6
CONTINUOUS
10
6.12073
20
-4.79555
11
6.12403
21
-4.79939
0
LINE
8
BLACK
6
CONTINUOUS
10
6.12403
20
-4.79939
11
6.12613
21
-4.80399
0
LINE
8
BLACK
6
CONTINUOUS
10
6.12613
20
-4.80399
11
6.12684
21
-4.809
0
LINE
8
BLACK
6
CONTINUOUS
10
6.12684
20
-4.809
11
6.12684
21
-4.80944
0
LINE
8
BLACK
6
CONTINUOUS
10
6.12684
20
-4.80944
11
6.126
21
-4.81442
0
LINE
8
BLACK
6
CONTINUOUS
10
6.126
20
-4.81442
11
6.12379
21
-4.81898
0
LINE
8
BLACK
6
CONTINUOUS
10
6.12379
20
-4.81898
11
6.1204
21
-4.82273
0
LINE
8
BLACK
6
CONTINUOUS
10
6.1204
20
-4.82273
11
6.11609
21
-4.82538
0
LINE
8
BLACK
6
CONTINUOUS
10
6.11609
20
-4.82538
11
6.11121
21
-4.82671
0
LINE
8
BLACK
6
CONTINUOUS
10
6.11121
20
-4.82671
11
6.10615
21
-4.82661
0
LINE
8
BLACK
6
CONTINUOUS
10
6.10615
20
-4.82661
11
6.10132
21
-4.8251
0
LINE
8
BLACK
6
CONTINUOUS
10
6.10132
20
-4.8251
11
6.09711
21
-4.8223
0
LINE
8
BLACK
6
CONTINUOUS
10
6.09711
20
-4.8223
11
6.09385
21
-4.81843
0
LINE
8
BLACK
6
CONTINUOUS
10
6.09385
20
-4.81843
11
6.09181
21
-4.8138
0
LINE
8
BLACK
6
CONTINUOUS
10
6.09181
20
-4.8138
11
6.09116
21
-4.80878
0
LINE
8
BLACK
6
CONTINUOUS
10
6.09116
20
-4.80878
11
6.09194
21
-4.80378
0
LINE
8
BLACK
6
CONTINUOUS
10
6.09194
20
-4.80378
11
6.09409
21
-4.7992
0
LINE
8
BLACK
6
CONTINUOUS
10
6.09409
20
-4.7992
11
6.09744
21
-4.79541
0
LINE
8
BLACK
6
CONTINUOUS
10
6.09744
20
-4.79541
11
6.10171
21
-4.79271
0
LINE
8
BLACK
6
CONTINUOUS
10
6.10171
20
-4.79271
11
6.10658
21
-4.79132
0
LINE
8
BLACK
6
CONTINUOUS
10
6.10658
20
-4.79132
11
6.11164
21
-4.79135
0
LINE
8
BLACK
6
CONTINUOUS
10
6.0165
20
-4.7915
11
5.9515
21
-4.7915
0
LINE
8
BLACK
6
CONTINUOUS
10
5.9515
20
-4.7915
11
5.9515
21
-4.7265
0
LINE
8
BLACK
6
CONTINUOUS
10
5.9515
20
-4.7265
11
6.0165
21
-4.7265
0
LINE
8
BLACK
6
CONTINUOUS
10
6.0165
20
-4.7265
11
6.0165
21
-4.7915
0
LINE
8
BLACK
6
CONTINUOUS
10
5.8165
20
-4.7915
11
5.7515
21
-4.7915
0
LINE
8
BLACK
6
CONTINUOUS
10
5.7515
20
-4.7915
11
5.7515
21
-4.7265
0
LINE
8
BLACK
6
CONTINUOUS
10
5.7515
20
-4.7265
11
5.8165
21
-4.7265
0
LINE
8
BLACK
6
CONTINUOUS
10
5.8165
20
-4.7265
11
5.8165
21
-4.7915
0
LINE
8
BLACK
6
CONTINUOUS
10
5.9165
20
-4.7915
11
5.8515
21
-4.7915
0
LINE
8
BLACK
6
CONTINUOUS
10
5.8515
20
-4.7915
11
5.8515
21
-4.7265
0
LINE
8
BLACK
6
CONTINUOUS
10
5.8515
20
-4.7265
11
5.9165
21
-4.7265
0
LINE
8
BLACK
6
CONTINUOUS
10
5.9165
20
-4.7265
11
5.9165
21
-4.7915
0
LINE
8
BLACK
6
CONTINUOUS
10
5.9165
20
-4.6915
11
5.8515
21
-4.6915
0
LINE
8
BLACK
6
CONTINUOUS
10
5.8515
20
-4.6915
11
5.8515
21
-4.6265
0
LINE
8
BLACK
6
CONTINUOUS
10
5.8515
20
-4.6265
11
5.9165
21
-4.6265
0
LINE
8
BLACK
6
CONTINUOUS
10
5.9165
20
-4.6265
11
5.9165
21
-4.6915
0
LINE
8
BLACK
6
CONTINUOUS
10
6.0165
20
-4.6915
11
5.9515
21
-4.6915
0
LINE
8
BLACK
6
CONTINUOUS
10
5.9515
20
-4.6915
11
5.9515
21
-4.6265
0
LINE
8
BLACK
6
CONTINUOUS
10
5.9515
20
-4.6265
11
6.0165
21
-4.6265
0
LINE
8
BLACK
6
CONTINUOUS
10
6.0165
20
-4.6265
11
6.0165
21
-4.6915
0
LINE
8
BLACK
6
CONTINUOUS
10
5.8165
20
-4.6915
11
5.7515
21
-4.6915
0
LINE
8
BLACK
6
CONTINUOUS
10
5.7515
20
-4.6915
11
5.7515
21
-4.6265
0
LINE
8
BLACK
6
CONTINUOUS
10
5.7515
20
-4.6265
11
5.8165
21
-4.6265
0
LINE
8
BLACK
6
CONTINUOUS
10
5.8165
20
-4.6265
11
5.8165
21
-4.6915
0
LINE
8
BLACK
6
CONTINUOUS
10
6.11164
20
-4.62885
11
6.11648
21
-4.6303
0
LINE
8
BLACK
6
CONTINUOUS
10
6.11648
20
-4.6303
11
6.12073
21
-4.63305
0
LINE
8
BLACK
6
CONTINUOUS
10
6.12073
20
-4.63305
11
6.12403
21
-4.63689
0
LINE
8
BLACK
6
CONTINUOUS
10
6.12403
20
-4.63689
11
6.12613
21
-4.64149
0
LINE
8
BLACK
6
CONTINUOUS
10
6.12613
20
-4.64149
11
6.12684
21
-4.6465
0
LINE
8
BLACK
6
CONTINUOUS
10
6.12684
20
-4.6465
11
6.12684
21
-4.64694
0
LINE
8
BLACK
6
CONTINUOUS
10
6.12684
20
-4.64694
11
6.126
21
-4.65192
0
LINE
8
BLACK
6
CONTINUOUS
10
6.126
20
-4.65192
11
6.12379
21
-4.65648
0
LINE
8
BLACK
6
CONTINUOUS
10
6.12379
20
-4.65648
11
6.1204
21
-4.66023
0
LINE
8
BLACK
6
CONTINUOUS
10
6.1204
20
-4.66023
11
6.11609
21
-4.66288
0
LINE
8
BLACK
6
CONTINUOUS
10
6.11609
20
-4.66288
11
6.11121
21
-4.66421
0
LINE
8
BLACK
6
CONTINUOUS
10
6.11121
20
-4.66421
11
6.10615
21
-4.66411
0
LINE
8
BLACK
6
CONTINUOUS
10
6.10615
20
-4.66411
11
6.10132
21
-4.6626
0
LINE
8
BLACK
6
CONTINUOUS
10
6.10132
20
-4.6626
11
6.09711
21
-4.6598
0
LINE
8
BLACK
6
CONTINUOUS
10
6.09711
20
-4.6598
11
6.09385
21
-4.65593
0
LINE
8
BLACK
6
CONTINUOUS
10
6.09385
20
-4.65593
11
6.09181
21
-4.6513
0
LINE
8
BLACK
6
CONTINUOUS
10
6.09181
20
-4.6513
11
6.09116
21
-4.64628
0
LINE
8
BLACK
6
CONTINUOUS
10
6.09116
20
-4.64628
11
6.09194
21
-4.64128
0
LINE
8
BLACK
6
CONTINUOUS
10
6.09194
20
-4.64128
11
6.09409
21
-4.6367
0
LINE
8
BLACK
6
CONTINUOUS
10
6.09409
20
-4.6367
11
6.09744
21
-4.63291
0
LINE
8
BLACK
6
CONTINUOUS
10
6.09744
20
-4.63291
11
6.10171
21
-4.63021
0
LINE
8
BLACK
6
CONTINUOUS
10
6.10171
20
-4.63021
11
6.10658
21
-4.62882
0
LINE
8
BLACK
6
CONTINUOUS
10
6.10658
20
-4.62882
11
6.11164
21
-4.62885
0
LINE
8
BLACK
6
CONTINUOUS
10
6.11164
20
-4.57885
11
6.11648
21
-4.5803
0
LINE
8
BLACK
6
CONTINUOUS
10
6.11648
20
-4.5803
11
6.12073
21
-4.58305
0
LINE
8
BLACK
6
CONTINUOUS
10
6.12073
20
-4.58305
11
6.12403
21
-4.58689
0
LINE
8
BLACK
6
CONTINUOUS
10
6.12403
20
-4.58689
11
6.12613
21
-4.59149
0
LINE
8
BLACK
6
CONTINUOUS
10
6.12613
20
-4.59149
11
6.12684
21
-4.5965
0
LINE
8
BLACK
6
CONTINUOUS
10
6.12684
20
-4.5965
11
6.12684
21
-4.59694
0
LINE
8
BLACK
6
CONTINUOUS
10
6.12684
20
-4.59694
11
6.126
21
-4.60192
0
LINE
8
BLACK
6
CONTINUOUS
10
6.126
20
-4.60192
11
6.12379
21
-4.60648
0
LINE
8
BLACK
6
CONTINUOUS
10
6.12379
20
-4.60648
11
6.1204
21
-4.61023
0
LINE
8
BLACK
6
CONTINUOUS
10
6.1204
20
-4.61023
11
6.11609
21
-4.61288
0
LINE
8
BLACK
6
CONTINUOUS
10
6.11609
20
-4.61288
11
6.11121
21
-4.61421
0
LINE
8
BLACK
6
CONTINUOUS
10
6.11121
20
-4.61421
11
6.10615
21
-4.61411
0
LINE
8
BLACK
6
CONTINUOUS
10
6.10615
20
-4.61411
11
6.10132
21
-4.6126
0
LINE
8
BLACK
6
CONTINUOUS
10
6.10132
20
-4.6126
11
6.09711
21
-4.6098
0
LINE
8
BLACK
6
CONTINUOUS
10
6.09711
20
-4.6098
11
6.09385
21
-4.60593
0
LINE
8
BLACK
6
CONTINUOUS
10
6.09385
20
-4.60593
11
6.09181
21
-4.6013
0
LINE
8
BLACK
6
CONTINUOUS
10
6.09181
20
-4.6013
11
6.09116
21
-4.59628
0
LINE
8
BLACK
6
CONTINUOUS
10
6.09116
20
-4.59628
11
6.09194
21
-4.59128
0
LINE
8
BLACK
6
CONTINUOUS
10
6.09194
20
-4.59128
11
6.09409
21
-4.5867
0
LINE
8
BLACK
6
CONTINUOUS
10
6.09409
20
-4.5867
11
6.09744
21
-4.58291
0
LINE
8
BLACK
6
CONTINUOUS
10
6.09744
20
-4.58291
11
6.10171
21
-4.58021
0
LINE
8
BLACK
6
CONTINUOUS
10
6.10171
20
-4.58021
11
6.10658
21
-4.57882
0
LINE
8
BLACK
6
CONTINUOUS
10
6.10658
20
-4.57882
11
6.11164
21
-4.57885
0
LINE
8
BLACK
6
CONTINUOUS
10
6.11164
20
-4.52885
11
6.11648
21
-4.5303
0
LINE
8
BLACK
6
CONTINUOUS
10
6.11648
20
-4.5303
11
6.12073
21
-4.53305
0
LINE
8
BLACK
6
CONTINUOUS
10
6.12073
20
-4.53305
11
6.12403
21
-4.53689
0
LINE
8
BLACK
6
CONTINUOUS
10
6.12403
20
-4.53689
11
6.12613
21
-4.54149
0
LINE
8
BLACK
6
CONTINUOUS
10
6.12613
20
-4.54149
11
6.12684
21
-4.5465
0
LINE
8
BLACK
6
CONTINUOUS
10
6.12684
20
-4.5465
11
6.12684
21
-4.54694
0
LINE
8
BLACK
6
CONTINUOUS
10
6.12684
20
-4.54694
11
6.126
21
-4.55192
0
LINE
8
BLACK
6
CONTINUOUS
10
6.126
20
-4.55192
11
6.12379
21
-4.55648
0
LINE
8
BLACK
6
CONTINUOUS
10
6.12379
20
-4.55648
11
6.1204
21
-4.56023
0
LINE
8
BLACK
6
CONTINUOUS
10
6.1204
20
-4.56023
11
6.11609
21
-4.56288
0
LINE
8
BLACK
6
CONTINUOUS
10
6.11609
20
-4.56288
11
6.11121
21
-4.56421
0
LINE
8
BLACK
6
CONTINUOUS
10
6.11121
20
-4.56421
11
6.10615
21
-4.56411
0
LINE
8
BLACK
6
CONTINUOUS
10
6.10615
20
-4.56411
11
6.10132
21
-4.5626
0
LINE
8
BLACK
6
CONTINUOUS
10
6.10132
20
-4.5626
11
6.09711
21
-4.5598
0
LINE
8
BLACK
6
CONTINUOUS
10
6.09711
20
-4.5598
11
6.09385
21
-4.55593
0
LINE
8
BLACK
6
CONTINUOUS
10
6.09385
20
-4.55593
11
6.09181
21
-4.5513
0
LINE
8
BLACK
6
CONTINUOUS
10
6.09181
20
-4.5513
11
6.09116
21
-4.54628
0
LINE
8
BLACK
6
CONTINUOUS
10
6.09116
20
-4.54628
11
6.09194
21
-4.54128
0
LINE
8
BLACK
6
CONTINUOUS
10
6.09194
20
-4.54128
11
6.09409
21
-4.5367
0
LINE
8
BLACK
6
CONTINUOUS
10
6.09409
20
-4.5367
11
6.09744
21
-4.53291
0
LINE
8
BLACK
6
CONTINUOUS
10
6.09744
20
-4.53291
11
6.10171
21
-4.53021
0
LINE
8
BLACK
6
CONTINUOUS
10
6.10171
20
-4.53021
11
6.10658
21
-4.52882
0
LINE
8
BLACK
6
CONTINUOUS
10
6.10658
20
-4.52882
11
6.11164
21
-4.52885
0
LINE
8
BLACK
6
CONTINUOUS
10
5.4165
20
-4.5415
11
5.3515
21
-4.5415
0
LINE
8
BLACK
6
CONTINUOUS
10
5.3515
20
-4.5415
11
5.3515
21
-4.4765
0
LINE
8
BLACK
6
CONTINUOUS
10
5.3515
20
-4.4765
11
5.4165
21
-4.4765
0
LINE
8
BLACK
6
CONTINUOUS
10
5.4165
20
-4.4765
11
5.4165
21
-4.5415
0
LINE
8
BLACK
6
CONTINUOUS
10
6.11164
20
-4.47885
11
6.11648
21
-4.4803
0
LINE
8
BLACK
6
CONTINUOUS
10
6.11648
20
-4.4803
11
6.12073
21
-4.48305
0
LINE
8
BLACK
6
CONTINUOUS
10
6.12073
20
-4.48305
11
6.12403
21
-4.48689
0
LINE
8
BLACK
6
CONTINUOUS
10
6.12403
20
-4.48689
11
6.12613
21
-4.49149
0
LINE
8
BLACK
6
CONTINUOUS
10
6.12613
20
-4.49149
11
6.12684
21
-4.4965
0
LINE
8
BLACK
6
CONTINUOUS
10
6.12684
20
-4.4965
11
6.12684
21
-4.49694
0
LINE
8
BLACK
6
CONTINUOUS
10
6.12684
20
-4.49694
11
6.126
21
-4.50192
0
LINE
8
BLACK
6
CONTINUOUS
10
6.126
20
-4.50192
11
6.12379
21
-4.50648
0
LINE
8
BLACK
6
CONTINUOUS
10
6.12379
20
-4.50648
11
6.1204
21
-4.51023
0
LINE
8
BLACK
6
CONTINUOUS
10
6.1204
20
-4.51023
11
6.11609
21
-4.51288
0
LINE
8
BLACK
6
CONTINUOUS
10
6.11609
20
-4.51288
11
6.11121
21
-4.51421
0
LINE
8
BLACK
6
CONTINUOUS
10
6.11121
20
-4.51421
11
6.10615
21
-4.51411
0
LINE
8
BLACK
6
CONTINUOUS
10
6.10615
20
-4.51411
11
6.10132
21
-4.5126
0
LINE
8
BLACK
6
CONTINUOUS
10
6.10132
20
-4.5126
11
6.09711
21
-4.5098
0
LINE
8
BLACK
6
CONTINUOUS
10
6.09711
20
-4.5098
11
6.09385
21
-4.50593
0
LINE
8
BLACK
6
CONTINUOUS
10
6.09385
20
-4.50593
11
6.09181
21
-4.5013
0
LINE
8
BLACK
6
CONTINUOUS
10
6.09181
20
-4.5013
11
6.09116
21
-4.49628
0
LINE
8
BLACK
6
CONTINUOUS
10
6.09116
20
-4.49628
11
6.09194
21
-4.49128
0
LINE
8
BLACK
6
CONTINUOUS
10
6.09194
20
-4.49128
11
6.09409
21
-4.4867
0
LINE
8
BLACK
6
CONTINUOUS
10
6.09409
20
-4.4867
11
6.09744
21
-4.48291
0
LINE
8
BLACK
6
CONTINUOUS
10
6.09744
20
-4.48291
11
6.10171
21
-4.48021
0
LINE
8
BLACK
6
CONTINUOUS
10
6.10171
20
-4.48021
11
6.10658
21
-4.47882
0
LINE
8
BLACK
6
CONTINUOUS
10
6.10658
20
-4.47882
11
6.11164
21
-4.47885
0
LINE
8
BLACK
6
CONTINUOUS
10
6.16164
20
-4.46635
11
6.16648
21
-4.4678
0
LINE
8
BLACK
6
CONTINUOUS
10
6.16648
20
-4.4678
11
6.17073
21
-4.47055
0
LINE
8
BLACK
6
CONTINUOUS
10
6.17073
20
-4.47055
11
6.17403
21
-4.47439
0
LINE
8
BLACK
6
CONTINUOUS
10
6.17403
20
-4.47439
11
6.17613
21
-4.47899
0
LINE
8
BLACK
6
CONTINUOUS
10
6.17613
20
-4.47899
11
6.17684
21
-4.484
0
LINE
8
BLACK
6
CONTINUOUS
10
6.17684
20
-4.484
11
6.17684
21
-4.48444
0
LINE
8
BLACK
6
CONTINUOUS
10
6.17684
20
-4.48444
11
6.176
21
-4.48942
0
LINE
8
BLACK
6
CONTINUOUS
10
6.176
20
-4.48942
11
6.17379
21
-4.49398
0
LINE
8
BLACK
6
CONTINUOUS
10
6.17379
20
-4.49398
11
6.1704
21
-4.49773
0
LINE
8
BLACK
6
CONTINUOUS
10
6.1704
20
-4.49773
11
6.16609
21
-4.50038
0
LINE
8
BLACK
6
CONTINUOUS
10
6.16609
20
-4.50038
11
6.16121
21
-4.50171
0
LINE
8
BLACK
6
CONTINUOUS
10
6.16121
20
-4.50171
11
6.15615
21
-4.50161
0
LINE
8
BLACK
6
CONTINUOUS
10
6.15615
20
-4.50161
11
6.15132
21
-4.5001
0
LINE
8
BLACK
6
CONTINUOUS
10
6.15132
20
-4.5001
11
6.14711
21
-4.4973
0
LINE
8
BLACK
6
CONTINUOUS
10
6.14711
20
-4.4973
11
6.14385
21
-4.49343
0
LINE
8
BLACK
6
CONTINUOUS
10
6.14385
20
-4.49343
11
6.14181
21
-4.4888
0
LINE
8
BLACK
6
CONTINUOUS
10
6.14181
20
-4.4888
11
6.14116
21
-4.48378
0
LINE
8
BLACK
6
CONTINUOUS
10
6.14116
20
-4.48378
11
6.14194
21
-4.47878
0
LINE
8
BLACK
6
CONTINUOUS
10
6.14194
20
-4.47878
11
6.14409
21
-4.4742
0
LINE
8
BLACK
6
CONTINUOUS
10
6.14409
20
-4.4742
11
6.14744
21
-4.47041
0
LINE
8
BLACK
6
CONTINUOUS
10
6.14744
20
-4.47041
11
6.15171
21
-4.46771
0
LINE
8
BLACK
6
CONTINUOUS
10
6.15171
20
-4.46771
11
6.15658
21
-4.46632
0
LINE
8
BLACK
6
CONTINUOUS
10
6.15658
20
-4.46632
11
6.16164
21
-4.46635
0
LINE
8
BLACK
6
CONTINUOUS
10
6.21164
20
-4.46635
11
6.21648
21
-4.4678
0
LINE
8
BLACK
6
CONTINUOUS
10
6.21648
20
-4.4678
11
6.22073
21
-4.47055
0
LINE
8
BLACK
6
CONTINUOUS
10
6.22073
20
-4.47055
11
6.22403
21
-4.47439
0
LINE
8
BLACK
6
CONTINUOUS
10
6.22403
20
-4.47439
11
6.22613
21
-4.47899
0
LINE
8
BLACK
6
CONTINUOUS
10
6.22613
20
-4.47899
11
6.22684
21
-4.484
0
LINE
8
BLACK
6
CONTINUOUS
10
6.22684
20
-4.484
11
6.22684
21
-4.48444
0
LINE
8
BLACK
6
CONTINUOUS
10
6.22684
20
-4.48444
11
6.226
21
-4.48942
0
LINE
8
BLACK
6
CONTINUOUS
10
6.226
20
-4.48942
11
6.22379
21
-4.49398
0
LINE
8
BLACK
6
CONTINUOUS
10
6.22379
20
-4.49398
11
6.2204
21
-4.49773
0
LINE
8
BLACK
6
CONTINUOUS
10
6.2204
20
-4.49773
11
6.21609
21
-4.50038
0
LINE
8
BLACK
6
CONTINUOUS
10
6.21609
20
-4.50038
11
6.21121
21
-4.50171
0
LINE
8
BLACK
6
CONTINUOUS
10
6.21121
20
-4.50171
11
6.20615
21
-4.50161
0
LINE
8
BLACK
6
CONTINUOUS
10
6.20615
20
-4.50161
11
6.20132
21
-4.5001
0
LINE
8
BLACK
6
CONTINUOUS
10
6.20132
20
-4.5001
11
6.19711
21
-4.4973
0
LINE
8
BLACK
6
CONTINUOUS
10
6.19711
20
-4.4973
11
6.19385
21
-4.49343
0
LINE
8
BLACK
6
CONTINUOUS
10
6.19385
20
-4.49343
11
6.19181
21
-4.4888
0
LINE
8
BLACK
6
CONTINUOUS
10
6.19181
20
-4.4888
11
6.19116
21
-4.48378
0
LINE
8
BLACK
6
CONTINUOUS
10
6.19116
20
-4.48378
11
6.19194
21
-4.47878
0
LINE
8
BLACK
6
CONTINUOUS
10
6.19194
20
-4.47878
11
6.19409
21
-4.4742
0
LINE
8
BLACK
6
CONTINUOUS
10
6.19409
20
-4.4742
11
6.19744
21
-4.47041
0
LINE
8
BLACK
6
CONTINUOUS
10
6.19744
20
-4.47041
11
6.20171
21
-4.46771
0
LINE
8
BLACK
6
CONTINUOUS
10
6.20171
20
-4.46771
11
6.20658
21
-4.46632
0
LINE
8
BLACK
6
CONTINUOUS
10
6.20658
20
-4.46632
11
6.21164
21
-4.46635
0
LINE
8
BLACK
6
CONTINUOUS
10
6.26164
20
-4.46635
11
6.26648
21
-4.4678
0
LINE
8
BLACK
6
CONTINUOUS
10
6.26648
20
-4.4678
11
6.27073
21
-4.47055
0
LINE
8
BLACK
6
CONTINUOUS
10
6.27073
20
-4.47055
11
6.27403
21
-4.47439
0
LINE
8
BLACK
6
CONTINUOUS
10
6.27403
20
-4.47439
11
6.27613
21
-4.47899
0
LINE
8
BLACK
6
CONTINUOUS
10
6.27613
20
-4.47899
11
6.27684
21
-4.484
0
LINE
8
BLACK
6
CONTINUOUS
10
6.27684
20
-4.484
11
6.27684
21
-4.48444
0
LINE
8
BLACK
6
CONTINUOUS
10
6.27684
20
-4.48444
11
6.276
21
-4.48942
0
LINE
8
BLACK
6
CONTINUOUS
10
6.276
20
-4.48942
11
6.27379
21
-4.49398
0
LINE
8
BLACK
6
CONTINUOUS
10
6.27379
20
-4.49398
11
6.2704
21
-4.49773
0
LINE
8
BLACK
6
CONTINUOUS
10
6.2704
20
-4.49773
11
6.26609
21
-4.50038
0
LINE
8
BLACK
6
CONTINUOUS
10
6.26609
20
-4.50038
11
6.26121
21
-4.50171
0
LINE
8
BLACK
6
CONTINUOUS
10
6.26121
20
-4.50171
11
6.25615
21
-4.50161
0
LINE
8
BLACK
6
CONTINUOUS
10
6.25615
20
-4.50161
11
6.25132
21
-4.5001
0
LINE
8
BLACK
6
CONTINUOUS
10
6.25132
20
-4.5001
11
6.24711
21
-4.4973
0
LINE
8
BLACK
6
CONTINUOUS
10
6.24711
20
-4.4973
11
6.24385
21
-4.49343
0
LINE
8
BLACK
6
CONTINUOUS
10
6.24385
20
-4.49343
11
6.24181
21
-4.4888
0
LINE
8
BLACK
6
CONTINUOUS
10
6.24181
20
-4.4888
11
6.24116
21
-4.48378
0
LINE
8
BLACK
6
CONTINUOUS
10
6.24116
20
-4.48378
11
6.24194
21
-4.47878
0
LINE
8
BLACK
6
CONTINUOUS
10
6.24194
20
-4.47878
11
6.24409
21
-4.4742
0
LINE
8
BLACK
6
CONTINUOUS
10
6.24409
20
-4.4742
11
6.24744
21
-4.47041
0
LINE
8
BLACK
6
CONTINUOUS
10
6.24744
20
-4.47041
11
6.25171
21
-4.46771
0
LINE
8
BLACK
6
CONTINUOUS
10
6.25171
20
-4.46771
11
6.25658
21
-4.46632
0
LINE
8
BLACK
6
CONTINUOUS
10
6.25658
20
-4.46632
11
6.26164
21
-4.46635
0
LINE
8
BLACK
6
CONTINUOUS
10
6.31164
20
-4.44135
11
6.31648
21
-4.4428
0
LINE
8
BLACK
6
CONTINUOUS
10
6.31648
20
-4.4428
11
6.32073
21
-4.44555
0
LINE
8
BLACK
6
CONTINUOUS
10
6.32073
20
-4.44555
11
6.32403
21
-4.44939
0
LINE
8
BLACK
6
CONTINUOUS
10
6.32403
20
-4.44939
11
6.32613
21
-4.45399
0
LINE
8
BLACK
6
CONTINUOUS
10
6.32613
20
-4.45399
11
6.32684
21
-4.459
0
LINE
8
BLACK
6
CONTINUOUS
10
6.32684
20
-4.459
11
6.32684
21
-4.45944
0
LINE
8
BLACK
6
CONTINUOUS
10
6.32684
20
-4.45944
11
6.326
21
-4.46442
0
LINE
8
BLACK
6
CONTINUOUS
10
6.326
20
-4.46442
11
6.32379
21
-4.46898
0
LINE
8
BLACK
6
CONTINUOUS
10
6.32379
20
-4.46898
11
6.3204
21
-4.47273
0
LINE
8
BLACK
6
CONTINUOUS
10
6.3204
20
-4.47273
11
6.31609
21
-4.47538
0
LINE
8
BLACK
6
CONTINUOUS
10
6.31609
20
-4.47538
11
6.31121
21
-4.47671
0
LINE
8
BLACK
6
CONTINUOUS
10
6.31121
20
-4.47671
11
6.30615
21
-4.47661
0
LINE
8
BLACK
6
CONTINUOUS
10
6.30615
20
-4.47661
11
6.30132
21
-4.4751
0
LINE
8
BLACK
6
CONTINUOUS
10
6.30132
20
-4.4751
11
6.29711
21
-4.4723
0
LINE
8
BLACK
6
CONTINUOUS
10
6.29711
20
-4.4723
11
6.29385
21
-4.46843
0
LINE
8
BLACK
6
CONTINUOUS
10
6.29385
20
-4.46843
11
6.29181
21
-4.4638
0
LINE
8
BLACK
6
CONTINUOUS
10
6.29181
20
-4.4638
11
6.29116
21
-4.45878
0
LINE
8
BLACK
6
CONTINUOUS
10
6.29116
20
-4.45878
11
6.29194
21
-4.45378
0
LINE
8
BLACK
6
CONTINUOUS
10
6.29194
20
-4.45378
11
6.29409
21
-4.4492
0
LINE
8
BLACK
6
CONTINUOUS
10
6.29409
20
-4.4492
11
6.29744
21
-4.44541
0
LINE
8
BLACK
6
CONTINUOUS
10
6.29744
20
-4.44541
11
6.30171
21
-4.44271
0
LINE
8
BLACK
6
CONTINUOUS
10
6.30171
20
-4.44271
11
6.30658
21
-4.44132
0
LINE
8
BLACK
6
CONTINUOUS
10
6.30658
20
-4.44132
11
6.31164
21
-4.44135
0
LINE
8
BLACK
6
CONTINUOUS
10
5.4165
20
-4.4415
11
5.3515
21
-4.4415
0
LINE
8
BLACK
6
CONTINUOUS
10
5.3515
20
-4.4415
11
5.3515
21
-4.3765
0
LINE
8
BLACK
6
CONTINUOUS
10
5.3515
20
-4.3765
11
5.4165
21
-4.3765
0
LINE
8
BLACK
6
CONTINUOUS
10
5.4165
20
-4.3765
11
5.4165
21
-4.4415
0
LINE
8
BLACK
6
CONTINUOUS
10
5.98664
20
-4.40385
11
5.99148
21
-4.4053
0
LINE
8
BLACK
6
CONTINUOUS
10
5.99148
20
-4.4053
11
5.99573
21
-4.40805
0
LINE
8
BLACK
6
CONTINUOUS
10
5.99573
20
-4.40805
11
5.99903
21
-4.41189
0
LINE
8
BLACK
6
CONTINUOUS
10
5.99903
20
-4.41189
11
6.00113
21
-4.41649
0
LINE
8
BLACK
6
CONTINUOUS
10
6.00113
20
-4.41649
11
6.00184
21
-4.4215
0
LINE
8
BLACK
6
CONTINUOUS
10
6.00184
20
-4.4215
11
6.00184
21
-4.42194
0
LINE
8
BLACK
6
CONTINUOUS
10
6.00184
20
-4.42194
11
6.001
21
-4.42692
0
LINE
8
BLACK
6
CONTINUOUS
10
6.001
20
-4.42692
11
5.99879
21
-4.43148
0
LINE
8
BLACK
6
CONTINUOUS
10
5.99879
20
-4.43148
11
5.9954
21
-4.43523
0
LINE
8
BLACK
6
CONTINUOUS
10
5.9954
20
-4.43523
11
5.99109
21
-4.43788
0
LINE
8
BLACK
6
CONTINUOUS
10
5.99109
20
-4.43788
11
5.98621
21
-4.43921
0
LINE
8
BLACK
6
CONTINUOUS
10
5.98621
20
-4.43921
11
5.98115
21
-4.43911
0
LINE
8
BLACK
6
CONTINUOUS
10
5.98115
20
-4.43911
11
5.97632
21
-4.4376
0
LINE
8
BLACK
6
CONTINUOUS
10
5.97632
20
-4.4376
11
5.97211
21
-4.4348
0
LINE
8
BLACK
6
CONTINUOUS
10
5.97211
20
-4.4348
11
5.96885
21
-4.43093
0
LINE
8
BLACK
6
CONTINUOUS
10
5.96885
20
-4.43093
11
5.96681
21
-4.4263
0
LINE
8
BLACK
6
CONTINUOUS
10
5.96681
20
-4.4263
11
5.96616
21
-4.42128
0
LINE
8
BLACK
6
CONTINUOUS
10
5.96616
20
-4.42128
11
5.96694
21
-4.41628
0
LINE
8
BLACK
6
CONTINUOUS
10
5.96694
20
-4.41628
11
5.96909
21
-4.4117
0
LINE
8
BLACK
6
CONTINUOUS
10
5.96909
20
-4.4117
11
5.97244
21
-4.40791
0
LINE
8
BLACK
6
CONTINUOUS
10
5.97244
20
-4.40791
11
5.97671
21
-4.40521
0
LINE
8
BLACK
6
CONTINUOUS
10
5.97671
20
-4.40521
11
5.98158
21
-4.40382
0
LINE
8
BLACK
6
CONTINUOUS
10
5.98158
20
-4.40382
11
5.98664
21
-4.40385
0
LINE
8
BLACK
6
CONTINUOUS
10
6.31164
20
-4.37885
11
6.31648
21
-4.3803
0
LINE
8
BLACK
6
CONTINUOUS
10
6.31648
20
-4.3803
11
6.32073
21
-4.38305
0
LINE
8
BLACK
6
CONTINUOUS
10
6.32073
20
-4.38305
11
6.32403
21
-4.38689
0
LINE
8
BLACK
6
CONTINUOUS
10
6.32403
20
-4.38689
11
6.32613
21
-4.39149
0
LINE
8
BLACK
6
CONTINUOUS
10
6.32613
20
-4.39149
11
6.32684
21
-4.3965
0
LINE
8
BLACK
6
CONTINUOUS
10
6.32684
20
-4.3965
11
6.32684
21
-4.39694
0
LINE
8
BLACK
6
CONTINUOUS
10
6.32684
20
-4.39694
11
6.326
21
-4.40192
0
LINE
8
BLACK
6
CONTINUOUS
10
6.326
20
-4.40192
11
6.32379
21
-4.40648
0
LINE
8
BLACK
6
CONTINUOUS
10
6.32379
20
-4.40648
11
6.3204
21
-4.41023
0
LINE
8
BLACK
6
CONTINUOUS
10
6.3204
20
-4.41023
11
6.31609
21
-4.41288
0
LINE
8
BLACK
6
CONTINUOUS
10
6.31609
20
-4.41288
11
6.31121
21
-4.41421
0
LINE
8
BLACK
6
CONTINUOUS
10
6.31121
20
-4.41421
11
6.30615
21
-4.41411
0
LINE
8
BLACK
6
CONTINUOUS
10
6.30615
20
-4.41411
11
6.30132
21
-4.4126
0
LINE
8
BLACK
6
CONTINUOUS
10
6.30132
20
-4.4126
11
6.29711
21
-4.4098
0
LINE
8
BLACK
6
CONTINUOUS
10
6.29711
20
-4.4098
11
6.29385
21
-4.40593
0
LINE
8
BLACK
6
CONTINUOUS
10
6.29385
20
-4.40593
11
6.29181
21
-4.4013
0
LINE
8
BLACK
6
CONTINUOUS
10
6.29181
20
-4.4013
11
6.29116
21
-4.39628
0
LINE
8
BLACK
6
CONTINUOUS
10
6.29116
20
-4.39628
11
6.29194
21
-4.39128
0
LINE
8
BLACK
6
CONTINUOUS
10
6.29194
20
-4.39128
11
6.29409
21
-4.3867
0
LINE
8
BLACK
6
CONTINUOUS
10
6.29409
20
-4.3867
11
6.29744
21
-4.38291
0
LINE
8
BLACK
6
CONTINUOUS
10
6.29744
20
-4.38291
11
6.30171
21
-4.38021
0
LINE
8
BLACK
6
CONTINUOUS
10
6.30171
20
-4.38021
11
6.30658
21
-4.37882
0
LINE
8
BLACK
6
CONTINUOUS
10
6.30658
20
-4.37882
11
6.31164
21
-4.37885
0
LINE
8
BLACK
6
CONTINUOUS
10
6.31164
20
-4.31635
11
6.31648
21
-4.3178
0
LINE
8
BLACK
6
CONTINUOUS
10
6.31648
20
-4.3178
11
6.32073
21
-4.32055
0
LINE
8
BLACK
6
CONTINUOUS
10
6.32073
20
-4.32055
11
6.32403
21
-4.32439
0
LINE
8
BLACK
6
CONTINUOUS
10
6.32403
20
-4.32439
11
6.32613
21
-4.32899
0
LINE
8
BLACK
6
CONTINUOUS
10
6.32613
20
-4.32899
11
6.32684
21
-4.334
0
LINE
8
BLACK
6
CONTINUOUS
10
6.32684
20
-4.334
11
6.32684
21
-4.33444
0
LINE
8
BLACK
6
CONTINUOUS
10
6.32684
20
-4.33444
11
6.326
21
-4.33942
0
LINE
8
BLACK
6
CONTINUOUS
10
6.326
20
-4.33942
11
6.32379
21
-4.34398
0
LINE
8
BLACK
6
CONTINUOUS
10
6.32379
20
-4.34398
11
6.3204
21
-4.34773
0
LINE
8
BLACK
6
CONTINUOUS
10
6.3204
20
-4.34773
11
6.31609
21
-4.35038
0
LINE
8
BLACK
6
CONTINUOUS
10
6.31609
20
-4.35038
11
6.31121
21
-4.35171
0
LINE
8
BLACK
6
CONTINUOUS
10
6.31121
20
-4.35171
11
6.30615
21
-4.35161
0
LINE
8
BLACK
6
CONTINUOUS
10
6.30615
20
-4.35161
11
6.30132
21
-4.3501
0
LINE
8
BLACK
6
CONTINUOUS
10
6.30132
20
-4.3501
11
6.29711
21
-4.3473
0
LINE
8
BLACK
6
CONTINUOUS
10
6.29711
20
-4.3473
11
6.29385
21
-4.34343
0
LINE
8
BLACK
6
CONTINUOUS
10
6.29385
20
-4.34343
11
6.29181
21
-4.3388
0
LINE
8
BLACK
6
CONTINUOUS
10
6.29181
20
-4.3388
11
6.29116
21
-4.33378
0
LINE
8
BLACK
6
CONTINUOUS
10
6.29116
20
-4.33378
11
6.29194
21
-4.32878
0
LINE
8
BLACK
6
CONTINUOUS
10
6.29194
20
-4.32878
11
6.29409
21
-4.3242
0
LINE
8
BLACK
6
CONTINUOUS
10
6.29409
20
-4.3242
11
6.29744
21
-4.32041
0
LINE
8
BLACK
6
CONTINUOUS
10
6.29744
20
-4.32041
11
6.30171
21
-4.31771
0
LINE
8
BLACK
6
CONTINUOUS
10
6.30171
20
-4.31771
11
6.30658
21
-4.31632
0
LINE
8
BLACK
6
CONTINUOUS
10
6.30658
20
-4.31632
11
6.31164
21
-4.31635
0
LINE
8
BLACK
6
CONTINUOUS
10
5.4165
20
-4.3415
11
5.3515
21
-4.3415
0
LINE
8
BLACK
6
CONTINUOUS
10
5.3515
20
-4.3415
11
5.3515
21
-4.2765
0
LINE
8
BLACK
6
CONTINUOUS
10
5.3515
20
-4.2765
11
5.4165
21
-4.2765
0
LINE
8
BLACK
6
CONTINUOUS
10
5.4165
20
-4.2765
11
5.4165
21
-4.3415
0
LINE
8
BLACK
6
CONTINUOUS
10
6.31164
20
-4.25385
11
6.31648
21
-4.2553
0
LINE
8
BLACK
6
CONTINUOUS
10
6.31648
20
-4.2553
11
6.32073
21
-4.25805
0
LINE
8
BLACK
6
CONTINUOUS
10
6.32073
20
-4.25805
11
6.32403
21
-4.26189
0
LINE
8
BLACK
6
CONTINUOUS
10
6.32403
20
-4.26189
11
6.32613
21
-4.26649
0
LINE
8
BLACK
6
CONTINUOUS
10
6.32613
20
-4.26649
11
6.32684
21
-4.2715
0
LINE
8
BLACK
6
CONTINUOUS
10
6.32684
20
-4.2715
11
6.32684
21
-4.27194
0
LINE
8
BLACK
6
CONTINUOUS
10
6.32684
20
-4.27194
11
6.326
21
-4.27692
0
LINE
8
BLACK
6
CONTINUOUS
10
6.326
20
-4.27692
11
6.32379
21
-4.28148
0
LINE
8
BLACK
6
CONTINUOUS
10
6.32379
20
-4.28148
11
6.3204
21
-4.28523
0
LINE
8
BLACK
6
CONTINUOUS
10
6.3204
20
-4.28523
11
6.31609
21
-4.28788
0
LINE
8
BLACK
6
CONTINUOUS
10
6.31609
20
-4.28788
11
6.31121
21
-4.28921
0
LINE
8
BLACK
6
CONTINUOUS
10
6.31121
20
-4.28921
11
6.30615
21
-4.28911
0
LINE
8
BLACK
6
CONTINUOUS
10
6.30615
20
-4.28911
11
6.30132
21
-4.2876
0
LINE
8
BLACK
6
CONTINUOUS
10
6.30132
20
-4.2876
11
6.29711
21
-4.2848
0
LINE
8
BLACK
6
CONTINUOUS
10
6.29711
20
-4.2848
11
6.29385
21
-4.28093
0
LINE
8
BLACK
6
CONTINUOUS
10
6.29385
20
-4.28093
11
6.29181
21
-4.2763
0
LINE
8
BLACK
6
CONTINUOUS
10
6.29181
20
-4.2763
11
6.29116
21
-4.27128
0
LINE
8
BLACK
6
CONTINUOUS
10
6.29116
20
-4.27128
11
6.29194
21
-4.26628
0
LINE
8
BLACK
6
CONTINUOUS
10
6.29194
20
-4.26628
11
6.29409
21
-4.2617
0
LINE
8
BLACK
6
CONTINUOUS
10
6.29409
20
-4.2617
11
6.29744
21
-4.25791
0
LINE
8
BLACK
6
CONTINUOUS
10
6.29744
20
-4.25791
11
6.30171
21
-4.25521
0
LINE
8
BLACK
6
CONTINUOUS
10
6.30171
20
-4.25521
11
6.30658
21
-4.25382
0
LINE
8
BLACK
6
CONTINUOUS
10
6.30658
20
-4.25382
11
6.31164
21
-4.25385
0
LINE
8
BLACK
6
CONTINUOUS
10
5.54914
20
-4.24135
11
5.55398
21
-4.2428
0
LINE
8
BLACK
6
CONTINUOUS
10
5.55398
20
-4.2428
11
5.55823
21
-4.24555
0
LINE
8
BLACK
6
CONTINUOUS
10
5.55823
20
-4.24555
11
5.56153
21
-4.24939
0
LINE
8
BLACK
6
CONTINUOUS
10
5.56153
20
-4.24939
11
5.56363
21
-4.25399
0
LINE
8
BLACK
6
CONTINUOUS
10
5.56363
20
-4.25399
11
5.56434
21
-4.259
0
LINE
8
BLACK
6
CONTINUOUS
10
5.56434
20
-4.259
11
5.56434
21
-4.25944
0
LINE
8
BLACK
6
CONTINUOUS
10
5.56434
20
-4.25944
11
5.5635
21
-4.26442
0
LINE
8
BLACK
6
CONTINUOUS
10
5.5635
20
-4.26442
11
5.56129
21
-4.26898
0
LINE
8
BLACK
6
CONTINUOUS
10
5.56129
20
-4.26898
11
5.5579
21
-4.27273
0
LINE
8
BLACK
6
CONTINUOUS
10
5.5579
20
-4.27273
11
5.55359
21
-4.27538
0
LINE
8
BLACK
6
CONTINUOUS
10
5.55359
20
-4.27538
11
5.54871
21
-4.27671
0
LINE
8
BLACK
6
CONTINUOUS
10
5.54871
20
-4.27671
11
5.54365
21
-4.27661
0
LINE
8
BLACK
6
CONTINUOUS
10
5.54365
20
-4.27661
11
5.53882
21
-4.2751
0
LINE
8
BLACK
6
CONTINUOUS
10
5.53882
20
-4.2751
11
5.53461
21
-4.2723
0
LINE
8
BLACK
6
CONTINUOUS
10
5.53461
20
-4.2723
11
5.53135
21
-4.26843
0
LINE
8
BLACK
6
CONTINUOUS
10
5.53135
20
-4.26843
11
5.52931
21
-4.2638
0
LINE
8
BLACK
6
CONTINUOUS
10
5.52931
20
-4.2638
11
5.52866
21
-4.25878
0
LINE
8
BLACK
6
CONTINUOUS
10
5.52866
20
-4.25878
11
5.52944
21
-4.25378
0
LINE
8
BLACK
6
CONTINUOUS
10
5.52944
20
-4.25378
11
5.53159
21
-4.2492
0
LINE
8
BLACK
6
CONTINUOUS
10
5.53159
20
-4.2492
11
5.53494
21
-4.24541
0
LINE
8
BLACK
6
CONTINUOUS
10
5.53494
20
-4.24541
11
5.53921
21
-4.24271
0
LINE
8
BLACK
6
CONTINUOUS
10
5.53921
20
-4.24271
11
5.54408
21
-4.24132
0
LINE
8
BLACK
6
CONTINUOUS
10
5.54408
20
-4.24132
11
5.54914
21
-4.24135
0
LINE
8
BLACK
6
CONTINUOUS
10
5.47414
20
-4.24135
11
5.47898
21
-4.2428
0
LINE
8
BLACK
6
CONTINUOUS
10
5.47898
20
-4.2428
11
5.48323
21
-4.24555
0
LINE
8
BLACK
6
CONTINUOUS
10
5.48323
20
-4.24555
11
5.48653
21
-4.24939
0
LINE
8
BLACK
6
CONTINUOUS
10
5.48653
20
-4.24939
11
5.48863
21
-4.25399
0
LINE
8
BLACK
6
CONTINUOUS
10
5.48863
20
-4.25399
11
5.48934
21
-4.259
0
LINE
8
BLACK
6
CONTINUOUS
10
5.48934
20
-4.259
11
5.48934
21
-4.25944
0
LINE
8
BLACK
6
CONTINUOUS
10
5.48934
20
-4.25944
11
5.4885
21
-4.26442
0
LINE
8
BLACK
6
CONTINUOUS
10
5.4885
20
-4.26442
11
5.48629
21
-4.26898
0
LINE
8
BLACK
6
CONTINUOUS
10
5.48629
20
-4.26898
11
5.4829
21
-4.27273
0
LINE
8
BLACK
6
CONTINUOUS
10
5.4829
20
-4.27273
11
5.47859
21
-4.27538
0
LINE
8
BLACK
6
CONTINUOUS
10
5.47859
20
-4.27538
11
5.47371
21
-4.27671
0
LINE
8
BLACK
6
CONTINUOUS
10
5.47371
20
-4.27671
11
5.46865
21
-4.27661
0
LINE
8
BLACK
6
CONTINUOUS
10
5.46865
20
-4.27661
11
5.46382
21
-4.2751
0
LINE
8
BLACK
6
CONTINUOUS
10
5.46382
20
-4.2751
11
5.45961
21
-4.2723
0
LINE
8
BLACK
6
CONTINUOUS
10
5.45961
20
-4.2723
11
5.45635
21
-4.26843
0
LINE
8
BLACK
6
CONTINUOUS
10
5.45635
20
-4.26843
11
5.45431
21
-4.2638
0
LINE
8
BLACK
6
CONTINUOUS
10
5.45431
20
-4.2638
11
5.45366
21
-4.25878
0
LINE
8
BLACK
6
CONTINUOUS
10
5.45366
20
-4.25878
11
5.45444
21
-4.25378
0
LINE
8
BLACK
6
CONTINUOUS
10
5.45444
20
-4.25378
11
5.45659
21
-4.2492
0
LINE
8
BLACK
6
CONTINUOUS
10
5.45659
20
-4.2492
11
5.45994
21
-4.24541
0
LINE
8
BLACK
6
CONTINUOUS
10
5.45994
20
-4.24541
11
5.46421
21
-4.24271
0
LINE
8
BLACK
6
CONTINUOUS
10
5.46421
20
-4.24271
11
5.46908
21
-4.24132
0
LINE
8
BLACK
6
CONTINUOUS
10
5.46908
20
-4.24132
11
5.47414
21
-4.24135
0
LINE
8
BLACK
6
CONTINUOUS
10
5.86382
20
-4.24246
11
5.77918
21
-4.24246
0
LINE
8
BLACK
6
CONTINUOUS
10
5.77918
20
-4.24246
11
5.77918
21
-4.17554
0
LINE
8
BLACK
6
CONTINUOUS
10
5.77918
20
-4.17554
11
5.86382
21
-4.17554
0
LINE
8
BLACK
6
CONTINUOUS
10
5.86382
20
-4.17554
11
5.86382
21
-4.24246
0
LINE
8
BLACK
6
CONTINUOUS
10
6.29914
20
-4.19135
11
6.30398
21
-4.1928
0
LINE
8
BLACK
6
CONTINUOUS
10
6.30398
20
-4.1928
11
6.30823
21
-4.19555
0
LINE
8
BLACK
6
CONTINUOUS
10
6.30823
20
-4.19555
11
6.31153
21
-4.19939
0
LINE
8
BLACK
6
CONTINUOUS
10
6.31153
20
-4.19939
11
6.31363
21
-4.20399
0
LINE
8
BLACK
6
CONTINUOUS
10
6.31363
20
-4.20399
11
6.31434
21
-4.209
0
LINE
8
BLACK
6
CONTINUOUS
10
6.31434
20
-4.209
11
6.31434
21
-4.20944
0
LINE
8
BLACK
6
CONTINUOUS
10
6.31434
20
-4.20944
11
6.3135
21
-4.21442
0
LINE
8
BLACK
6
CONTINUOUS
10
6.3135
20
-4.21442
11
6.31129
21
-4.21898
0
LINE
8
BLACK
6
CONTINUOUS
10
6.31129
20
-4.21898
11
6.3079
21
-4.22273
0
LINE
8
BLACK
6
CONTINUOUS
10
6.3079
20
-4.22273
11
6.30359
21
-4.22538
0
LINE
8
BLACK
6
CONTINUOUS
10
6.30359
20
-4.22538
11
6.29871
21
-4.22671
0
LINE
8
BLACK
6
CONTINUOUS
10
6.29871
20
-4.22671
11
6.29365
21
-4.22661
0
LINE
8
BLACK
6
CONTINUOUS
10
6.29365
20
-4.22661
11
6.28882
21
-4.2251
0
LINE
8
BLACK
6
CONTINUOUS
10
6.28882
20
-4.2251
11
6.28461
21
-4.2223
0
LINE
8
BLACK
6
CONTINUOUS
10
6.28461
20
-4.2223
11
6.28135
21
-4.21843
0
LINE
8
BLACK
6
CONTINUOUS
10
6.28135
20
-4.21843
11
6.27931
21
-4.2138
0
LINE
8
BLACK
6
CONTINUOUS
10
6.27931
20
-4.2138
11
6.27866
21
-4.20878
0
LINE
8
BLACK
6
CONTINUOUS
10
6.27866
20
-4.20878
11
6.27944
21
-4.20378
0
LINE
8
BLACK
6
CONTINUOUS
10
6.27944
20
-4.20378
11
6.28159
21
-4.1992
0
LINE
8
BLACK
6
CONTINUOUS
10
6.28159
20
-4.1992
11
6.28494
21
-4.19541
0
LINE
8
BLACK
6
CONTINUOUS
10
6.28494
20
-4.19541
11
6.28921
21
-4.19271
0
LINE
8
BLACK
6
CONTINUOUS
10
6.28921
20
-4.19271
11
6.29408
21
-4.19132
0
LINE
8
BLACK
6
CONTINUOUS
10
6.29408
20
-4.19132
11
6.29914
21
-4.19135
0
LINE
8
BLACK
6
CONTINUOUS
10
5.92414
20
-4.19135
11
5.92898
21
-4.1928
0
LINE
8
BLACK
6
CONTINUOUS
10
5.92898
20
-4.1928
11
5.93323
21
-4.19555
0
LINE
8
BLACK
6
CONTINUOUS
10
5.93323
20
-4.19555
11
5.93653
21
-4.19939
0
LINE
8
BLACK
6
CONTINUOUS
10
5.93653
20
-4.19939
11
5.93863
21
-4.20399
0
LINE
8
BLACK
6
CONTINUOUS
10
5.93863
20
-4.20399
11
5.93934
21
-4.209
0
LINE
8
BLACK
6
CONTINUOUS
10
5.93934
20
-4.209
11
5.93934
21
-4.20944
0
LINE
8
BLACK
6
CONTINUOUS
10
5.93934
20
-4.20944
11
5.9385
21
-4.21442
0
LINE
8
BLACK
6
CONTINUOUS
10
5.9385
20
-4.21442
11
5.93629
21
-4.21898
0
LINE
8
BLACK
6
CONTINUOUS
10
5.93629
20
-4.21898
11
5.9329
21
-4.22273
0
LINE
8
BLACK
6
CONTINUOUS
10
5.9329
20
-4.22273
11
5.92859
21
-4.22538
0
LINE
8
BLACK
6
CONTINUOUS
10
5.92859
20
-4.22538
11
5.92371
21
-4.22671
0
LINE
8
BLACK
6
CONTINUOUS
10
5.92371
20
-4.22671
11
5.91865
21
-4.22661
0
LINE
8
BLACK
6
CONTINUOUS
10
5.91865
20
-4.22661
11
5.91382
21
-4.2251
0
LINE
8
BLACK
6
CONTINUOUS
10
5.91382
20
-4.2251
11
5.90961
21
-4.2223
0
LINE
8
BLACK
6
CONTINUOUS
10
5.90961
20
-4.2223
11
5.90635
21
-4.21843
0
LINE
8
BLACK
6
CONTINUOUS
10
5.90635
20
-4.21843
11
5.90431
21
-4.2138
0
LINE
8
BLACK
6
CONTINUOUS
10
5.90431
20
-4.2138
11
5.90366
21
-4.20878
0
LINE
8
BLACK
6
CONTINUOUS
10
5.90366
20
-4.20878
11
5.90444
21
-4.20378
0
LINE
8
BLACK
6
CONTINUOUS
10
5.90444
20
-4.20378
11
5.90659
21
-4.1992
0
LINE
8
BLACK
6
CONTINUOUS
10
5.90659
20
-4.1992
11
5.90994
21
-4.19541
0
LINE
8
BLACK
6
CONTINUOUS
10
5.90994
20
-4.19541
11
5.91421
21
-4.19271
0
LINE
8
BLACK
6
CONTINUOUS
10
5.91421
20
-4.19271
11
5.91908
21
-4.19132
0
LINE
8
BLACK
6
CONTINUOUS
10
5.91908
20
-4.19132
11
5.92414
21
-4.19135
0
LINE
8
BLACK
6
CONTINUOUS
10
6.03664
20
-4.17885
11
6.04148
21
-4.1803
0
LINE
8
BLACK
6
CONTINUOUS
10
6.04148
20
-4.1803
11
6.04573
21
-4.18305
0
LINE
8
BLACK
6
CONTINUOUS
10
6.04573
20
-4.18305
11
6.04903
21
-4.18689
0
LINE
8
BLACK
6
CONTINUOUS
10
6.04903
20
-4.18689
11
6.05113
21
-4.19149
0
LINE
8
BLACK
6
CONTINUOUS
10
6.05113
20
-4.19149
11
6.05184
21
-4.1965
0
LINE
8
BLACK
6
CONTINUOUS
10
6.05184
20
-4.1965
11
6.05184
21
-4.19694
0
LINE
8
BLACK
6
CONTINUOUS
10
6.05184
20
-4.19694
11
6.051
21
-4.20192
0
LINE
8
BLACK
6
CONTINUOUS
10
6.051
20
-4.20192
11
6.04879
21
-4.20648
0
LINE
8
BLACK
6
CONTINUOUS
10
6.04879
20
-4.20648
11
6.0454
21
-4.21023
0
LINE
8
BLACK
6
CONTINUOUS
10
6.0454
20
-4.21023
11
6.04109
21
-4.21288
0
LINE
8
BLACK
6
CONTINUOUS
10
6.04109
20
-4.21288
11
6.03621
21
-4.21421
0
LINE
8
BLACK
6
CONTINUOUS
10
6.03621
20
-4.21421
11
6.03115
21
-4.21411
0
LINE
8
BLACK
6
CONTINUOUS
10
6.03115
20
-4.21411
11
6.02632
21
-4.2126
0
LINE
8
BLACK
6
CONTINUOUS
10
6.02632
20
-4.2126
11
6.02211
21
-4.2098
0
LINE
8
BLACK
6
CONTINUOUS
10
6.02211
20
-4.2098
11
6.01885
21
-4.20593
0
LINE
8
BLACK
6
CONTINUOUS
10
6.01885
20
-4.20593
11
6.01681
21
-4.2013
0
LINE
8
BLACK
6
CONTINUOUS
10
6.01681
20
-4.2013
11
6.01616
21
-4.19628
0
LINE
8
BLACK
6
CONTINUOUS
10
6.01616
20
-4.19628
11
6.01694
21
-4.19128
0
LINE
8
BLACK
6
CONTINUOUS
10
6.01694
20
-4.19128
11
6.01909
21
-4.1867
0
LINE
8
BLACK
6
CONTINUOUS
10
6.01909
20
-4.1867
11
6.02244
21
-4.18291
0
LINE
8
BLACK
6
CONTINUOUS
10
6.02244
20
-4.18291
11
6.02671
21
-4.18021
0
LINE
8
BLACK
6
CONTINUOUS
10
6.02671
20
-4.18021
11
6.03158
21
-4.17882
0
LINE
8
BLACK
6
CONTINUOUS
10
6.03158
20
-4.17882
11
6.03664
21
-4.17885
0
LINE
8
BLACK
6
CONTINUOUS
10
6.08664
20
-4.17885
11
6.09148
21
-4.1803
0
LINE
8
BLACK
6
CONTINUOUS
10
6.09148
20
-4.1803
11
6.09573
21
-4.18305
0
LINE
8
BLACK
6
CONTINUOUS
10
6.09573
20
-4.18305
11
6.09903
21
-4.18689
0
LINE
8
BLACK
6
CONTINUOUS
10
6.09903
20
-4.18689
11
6.10113
21
-4.19149
0
LINE
8
BLACK
6
CONTINUOUS
10
6.10113
20
-4.19149
11
6.10184
21
-4.1965
0
LINE
8
BLACK
6
CONTINUOUS
10
6.10184
20
-4.1965
11
6.10184
21
-4.19694
0
LINE
8
BLACK
6
CONTINUOUS
10
6.10184
20
-4.19694
11
6.101
21
-4.20192
0
LINE
8
BLACK
6
CONTINUOUS
10
6.101
20
-4.20192
11
6.09879
21
-4.20648
0
LINE
8
BLACK
6
CONTINUOUS
10
6.09879
20
-4.20648
11
6.0954
21
-4.21023
0
LINE
8
BLACK
6
CONTINUOUS
10
6.0954
20
-4.21023
11
6.09109
21
-4.21288
0
LINE
8
BLACK
6
CONTINUOUS
10
6.09109
20
-4.21288
11
6.08621
21
-4.21421
0
LINE
8
BLACK
6
CONTINUOUS
10
6.08621
20
-4.21421
11
6.08115
21
-4.21411
0
LINE
8
BLACK
6
CONTINUOUS
10
6.08115
20
-4.21411
11
6.07632
21
-4.2126
0
LINE
8
BLACK
6
CONTINUOUS
10
6.07632
20
-4.2126
11
6.07211
21
-4.2098
0
LINE
8
BLACK
6
CONTINUOUS
10
6.07211
20
-4.2098
11
6.06885
21
-4.20593
0
LINE
8
BLACK
6
CONTINUOUS
10
6.06885
20
-4.20593
11
6.06681
21
-4.2013
0
LINE
8
BLACK
6
CONTINUOUS
10
6.06681
20
-4.2013
11
6.06616
21
-4.19628
0
LINE
8
BLACK
6
CONTINUOUS
10
6.06616
20
-4.19628
11
6.06694
21
-4.19128
0
LINE
8
BLACK
6
CONTINUOUS
10
6.06694
20
-4.19128
11
6.06909
21
-4.1867
0
LINE
8
BLACK
6
CONTINUOUS
10
6.06909
20
-4.1867
11
6.07244
21
-4.18291
0
LINE
8
BLACK
6
CONTINUOUS
10
6.07244
20
-4.18291
11
6.07671
21
-4.18021
0
LINE
8
BLACK
6
CONTINUOUS
10
6.07671
20
-4.18021
11
6.08158
21
-4.17882
0
LINE
8
BLACK
6
CONTINUOUS
10
6.08158
20
-4.17882
11
6.08664
21
-4.17885
0
LINE
8
BLACK
6
CONTINUOUS
10
6.23664
20
-4.17885
11
6.24148
21
-4.1803
0
LINE
8
BLACK
6
CONTINUOUS
10
6.24148
20
-4.1803
11
6.24573
21
-4.18305
0
LINE
8
BLACK
6
CONTINUOUS
10
6.24573
20
-4.18305
11
6.24903
21
-4.18689
0
LINE
8
BLACK
6
CONTINUOUS
10
6.24903
20
-4.18689
11
6.25113
21
-4.19149
0
LINE
8
BLACK
6
CONTINUOUS
10
6.25113
20
-4.19149
11
6.25184
21
-4.1965
0
LINE
8
BLACK
6
CONTINUOUS
10
6.25184
20
-4.1965
11
6.25184
21
-4.19694
0
LINE
8
BLACK
6
CONTINUOUS
10
6.25184
20
-4.19694
11
6.251
21
-4.20192
0
LINE
8
BLACK
6
CONTINUOUS
10
6.251
20
-4.20192
11
6.24879
21
-4.20648
0
LINE
8
BLACK
6
CONTINUOUS
10
6.24879
20
-4.20648
11
6.2454
21
-4.21023
0
LINE
8
BLACK
6
CONTINUOUS
10
6.2454
20
-4.21023
11
6.24109
21
-4.21288
0
LINE
8
BLACK
6
CONTINUOUS
10
6.24109
20
-4.21288
11
6.23621
21
-4.21421
0
LINE
8
BLACK
6
CONTINUOUS
10
6.23621
20
-4.21421
11
6.23115
21
-4.21411
0
LINE
8
BLACK
6
CONTINUOUS
10
6.23115
20
-4.21411
11
6.22632
21
-4.2126
0
LINE
8
BLACK
6
CONTINUOUS
10
6.22632
20
-4.2126
11
6.22211
21
-4.2098
0
LINE
8
BLACK
6
CONTINUOUS
10
6.22211
20
-4.2098
11
6.21885
21
-4.20593
0
LINE
8
BLACK
6
CONTINUOUS
10
6.21885
20
-4.20593
11
6.21681
21
-4.2013
0
LINE
8
BLACK
6
CONTINUOUS
10
6.21681
20
-4.2013
11
6.21616
21
-4.19628
0
LINE
8
BLACK
6
CONTINUOUS
10
6.21616
20
-4.19628
11
6.21694
21
-4.19128
0
LINE
8
BLACK
6
CONTINUOUS
10
6.21694
20
-4.19128
11
6.21909
21
-4.1867
0
LINE
8
BLACK
6
CONTINUOUS
10
6.21909
20
-4.1867
11
6.22244
21
-4.18291
0
LINE
8
BLACK
6
CONTINUOUS
10
6.22244
20
-4.18291
11
6.22671
21
-4.18021
0
LINE
8
BLACK
6
CONTINUOUS
10
6.22671
20
-4.18021
11
6.23158
21
-4.17882
0
LINE
8
BLACK
6
CONTINUOUS
10
6.23158
20
-4.17882
11
6.23664
21
-4.17885
0
LINE
8
BLACK
6
CONTINUOUS
10
6.13664
20
-4.17885
11
6.14148
21
-4.1803
0
LINE
8
BLACK
6
CONTINUOUS
10
6.14148
20
-4.1803
11
6.14573
21
-4.18305
0
LINE
8
BLACK
6
CONTINUOUS
10
6.14573
20
-4.18305
11
6.14903
21
-4.18689
0
LINE
8
BLACK
6
CONTINUOUS
10
6.14903
20
-4.18689
11
6.15113
21
-4.19149
0
LINE
8
BLACK
6
CONTINUOUS
10
6.15113
20
-4.19149
11
6.15184
21
-4.1965
0
LINE
8
BLACK
6
CONTINUOUS
10
6.15184
20
-4.1965
11
6.15184
21
-4.19694
0
LINE
8
BLACK
6
CONTINUOUS
10
6.15184
20
-4.19694
11
6.151
21
-4.20192
0
LINE
8
BLACK
6
CONTINUOUS
10
6.151
20
-4.20192
11
6.14879
21
-4.20648
0
LINE
8
BLACK
6
CONTINUOUS
10
6.14879
20
-4.20648
11
6.1454
21
-4.21023
0
LINE
8
BLACK
6
CONTINUOUS
10
6.1454
20
-4.21023
11
6.14109
21
-4.21288
0
LINE
8
BLACK
6
CONTINUOUS
10
6.14109
20
-4.21288
11
6.13621
21
-4.21421
0
LINE
8
BLACK
6
CONTINUOUS
10
6.13621
20
-4.21421
11
6.13115
21
-4.21411
0
LINE
8
BLACK
6
CONTINUOUS
10
6.13115
20
-4.21411
11
6.12632
21
-4.2126
0
LINE
8
BLACK
6
CONTINUOUS
10
6.12632
20
-4.2126
11
6.12211
21
-4.2098
0
LINE
8
BLACK
6
CONTINUOUS
10
6.12211
20
-4.2098
11
6.11885
21
-4.20593
0
LINE
8
BLACK
6
CONTINUOUS
10
6.11885
20
-4.20593
11
6.11681
21
-4.2013
0
LINE
8
BLACK
6
CONTINUOUS
10
6.11681
20
-4.2013
11
6.11616
21
-4.19628
0
LINE
8
BLACK
6
CONTINUOUS
10
6.11616
20
-4.19628
11
6.11694
21
-4.19128
0
LINE
8
BLACK
6
CONTINUOUS
10
6.11694
20
-4.19128
11
6.11909
21
-4.1867
0
LINE
8
BLACK
6
CONTINUOUS
10
6.11909
20
-4.1867
11
6.12244
21
-4.18291
0
LINE
8
BLACK
6
CONTINUOUS
10
6.12244
20
-4.18291
11
6.12671
21
-4.18021
0
LINE
8
BLACK
6
CONTINUOUS
10
6.12671
20
-4.18021
11
6.13158
21
-4.17882
0
LINE
8
BLACK
6
CONTINUOUS
10
6.13158
20
-4.17882
11
6.13664
21
-4.17885
0
LINE
8
BLACK
6
CONTINUOUS
10
5.98664
20
-4.17885
11
5.99148
21
-4.1803
0
LINE
8
BLACK
6
CONTINUOUS
10
5.99148
20
-4.1803
11
5.99573
21
-4.18305
0
LINE
8
BLACK
6
CONTINUOUS
10
5.99573
20
-4.18305
11
5.99903
21
-4.18689
0
LINE
8
BLACK
6
CONTINUOUS
10
5.99903
20
-4.18689
11
6.00113
21
-4.19149
0
LINE
8
BLACK
6
CONTINUOUS
10
6.00113
20
-4.19149
11
6.00184
21
-4.1965
0
LINE
8
BLACK
6
CONTINUOUS
10
6.00184
20
-4.1965
11
6.00184
21
-4.19694
0
LINE
8
BLACK
6
CONTINUOUS
10
6.00184
20
-4.19694
11
6.001
21
-4.20192
0
LINE
8
BLACK
6
CONTINUOUS
10
6.001
20
-4.20192
11
5.99879
21
-4.20648
0
LINE
8
BLACK
6
CONTINUOUS
10
5.99879
20
-4.20648
11
5.9954
21
-4.21023
0
LINE
8
BLACK
6
CONTINUOUS
10
5.9954
20
-4.21023
11
5.99109
21
-4.21288
0
LINE
8
BLACK
6
CONTINUOUS
10
5.99109
20
-4.21288
11
5.98621
21
-4.21421
0
LINE
8
BLACK
6
CONTINUOUS
10
5.98621
20
-4.21421
11
5.98115
21
-4.21411
0
LINE
8
BLACK
6
CONTINUOUS
10
5.98115
20
-4.21411
11
5.97632
21
-4.2126
0
LINE
8
BLACK
6
CONTINUOUS
10
5.97632
20
-4.2126
11
5.97211
21
-4.2098
0
LINE
8
BLACK
6
CONTINUOUS
10
5.97211
20
-4.2098
11
5.96885
21
-4.20593
0
LINE
8
BLACK
6
CONTINUOUS
10
5.96885
20
-4.20593
11
5.96681
21
-4.2013
0
LINE
8
BLACK
6
CONTINUOUS
10
5.96681
20
-4.2013
11
5.96616
21
-4.19628
0
LINE
8
BLACK
6
CONTINUOUS
10
5.96616
20
-4.19628
11
5.96694
21
-4.19128
0
LINE
8
BLACK
6
CONTINUOUS
10
5.96694
20
-4.19128
11
5.96909
21
-4.1867
0
LINE
8
BLACK
6
CONTINUOUS
10
5.96909
20
-4.1867
11
5.97244
21
-4.18291
0
LINE
8
BLACK
6
CONTINUOUS
10
5.97244
20
-4.18291
11
5.97671
21
-4.18021
0
LINE
8
BLACK
6
CONTINUOUS
10
5.97671
20
-4.18021
11
5.98158
21
-4.17882
0
LINE
8
BLACK
6
CONTINUOUS
10
5.98158
20
-4.17882
11
5.98664
21
-4.17885
0
LINE
8
BLACK
6
CONTINUOUS
10
6.18664
20
-4.17885
11
6.19148
21
-4.1803
0
LINE
8
BLACK
6
CONTINUOUS
10
6.19148
20
-4.1803
11
6.19573
21
-4.18305
0
LINE
8
BLACK
6
CONTINUOUS
10
6.19573
20
-4.18305
11
6.19903
21
-4.18689
0
LINE
8
BLACK
6
CONTINUOUS
10
6.19903
20
-4.18689
11
6.20113
21
-4.19149
0
LINE
8
BLACK
6
CONTINUOUS
10
6.20113
20
-4.19149
11
6.20184
21
-4.1965
0
LINE
8
BLACK
6
CONTINUOUS
10
6.20184
20
-4.1965
11
6.20184
21
-4.19694
0
LINE
8
BLACK
6
CONTINUOUS
10
6.20184
20
-4.19694
11
6.201
21
-4.20192
0
LINE
8
BLACK
6
CONTINUOUS
10
6.201
20
-4.20192
11
6.19879
21
-4.20648
0
LINE
8
BLACK
6
CONTINUOUS
10
6.19879
20
-4.20648
11
6.1954
21
-4.21023
0
LINE
8
BLACK
6
CONTINUOUS
10
6.1954
20
-4.21023
11
6.19109
21
-4.21288
0
LINE
8
BLACK
6
CONTINUOUS
10
6.19109
20
-4.21288
11
6.18621
21
-4.21421
0
LINE
8
BLACK
6
CONTINUOUS
10
6.18621
20
-4.21421
11
6.18115
21
-4.21411
0
LINE
8
BLACK
6
CONTINUOUS
10
6.18115
20
-4.21411
11
6.17632
21
-4.2126
0
LINE
8
BLACK
6
CONTINUOUS
10
6.17632
20
-4.2126
11
6.17211
21
-4.2098
0
LINE
8
BLACK
6
CONTINUOUS
10
6.17211
20
-4.2098
11
6.16885
21
-4.20593
0
LINE
8
BLACK
6
CONTINUOUS
10
6.16885
20
-4.20593
11
6.16681
21
-4.2013
0
LINE
8
BLACK
6
CONTINUOUS
10
6.16681
20
-4.2013
11
6.16616
21
-4.19628
0
LINE
8
BLACK
6
CONTINUOUS
10
6.16616
20
-4.19628
11
6.16694
21
-4.19128
0
LINE
8
BLACK
6
CONTINUOUS
10
6.16694
20
-4.19128
11
6.16909
21
-4.1867
0
LINE
8
BLACK
6
CONTINUOUS
10
6.16909
20
-4.1867
11
6.17244
21
-4.18291
0
LINE
8
BLACK
6
CONTINUOUS
10
6.17244
20
-4.18291
11
6.17671
21
-4.18021
0
LINE
8
BLACK
6
CONTINUOUS
10
6.17671
20
-4.18021
11
6.18158
21
-4.17882
0
LINE
8
BLACK
6
CONTINUOUS
10
6.18158
20
-4.17882
11
6.18664
21
-4.17885
0
LINE
8
BLACK
6
CONTINUOUS
10
5.73664
20
-4.16635
11
5.74148
21
-4.1678
0
LINE
8
BLACK
6
CONTINUOUS
10
5.74148
20
-4.1678
11
5.74573
21
-4.17055
0
LINE
8
BLACK
6
CONTINUOUS
10
5.74573
20
-4.17055
11
5.74903
21
-4.17439
0
LINE
8
BLACK
6
CONTINUOUS
10
5.74903
20
-4.17439
11
5.75113
21
-4.17899
0
LINE
8
BLACK
6
CONTINUOUS
10
5.75113
20
-4.17899
11
5.75184
21
-4.184
0
LINE
8
BLACK
6
CONTINUOUS
10
5.75184
20
-4.184
11
5.75184
21
-4.18444
0
LINE
8
BLACK
6
CONTINUOUS
10
5.75184
20
-4.18444
11
5.751
21
-4.18942
0
LINE
8
BLACK
6
CONTINUOUS
10
5.751
20
-4.18942
11
5.74879
21
-4.19398
0
LINE
8
BLACK
6
CONTINUOUS
10
5.74879
20
-4.19398
11
5.7454
21
-4.19773
0
LINE
8
BLACK
6
CONTINUOUS
10
5.7454
20
-4.19773
11
5.74109
21
-4.20038
0
LINE
8
BLACK
6
CONTINUOUS
10
5.74109
20
-4.20038
11
5.73621
21
-4.20171
0
LINE
8
BLACK
6
CONTINUOUS
10
5.73621
20
-4.20171
11
5.73115
21
-4.20161
0
LINE
8
BLACK
6
CONTINUOUS
10
5.73115
20
-4.20161
11
5.72632
21
-4.2001
0
LINE
8
BLACK
6
CONTINUOUS
10
5.72632
20
-4.2001
11
5.72211
21
-4.1973
0
LINE
8
BLACK
6
CONTINUOUS
10
5.72211
20
-4.1973
11
5.71885
21
-4.19343
0
LINE
8
BLACK
6
CONTINUOUS
10
5.71885
20
-4.19343
11
5.71681
21
-4.1888
0
LINE
8
BLACK
6
CONTINUOUS
10
5.71681
20
-4.1888
11
5.71616
21
-4.18378
0
LINE
8
BLACK
6
CONTINUOUS
10
5.71616
20
-4.18378
11
5.71694
21
-4.17878
0
LINE
8
BLACK
6
CONTINUOUS
10
5.71694
20
-4.17878
11
5.71909
21
-4.1742
0
LINE
8
BLACK
6
CONTINUOUS
10
5.71909
20
-4.1742
11
5.72244
21
-4.17041
0
LINE
8
BLACK
6
CONTINUOUS
10
5.72244
20
-4.17041
11
5.72671
21
-4.16771
0
LINE
8
BLACK
6
CONTINUOUS
10
5.72671
20
-4.16771
11
5.73158
21
-4.16632
0
LINE
8
BLACK
6
CONTINUOUS
10
5.73158
20
-4.16632
11
5.73664
21
-4.16635
0
LINE
8
BLACK
6
CONTINUOUS
10
6.02414
20
-4.14135
11
6.02898
21
-4.1428
0
LINE
8
BLACK
6
CONTINUOUS
10
6.02898
20
-4.1428
11
6.03323
21
-4.14555
0
LINE
8
BLACK
6
CONTINUOUS
10
6.03323
20
-4.14555
11
6.03653
21
-4.14939
0
LINE
8
BLACK
6
CONTINUOUS
10
6.03653
20
-4.14939
11
6.03863
21
-4.15399
0
LINE
8
BLACK
6
CONTINUOUS
10
6.03863
20
-4.15399
11
6.03934
21
-4.159
0
LINE
8
BLACK
6
CONTINUOUS
10
6.03934
20
-4.159
11
6.03934
21
-4.15944
0
LINE
8
BLACK
6
CONTINUOUS
10
6.03934
20
-4.15944
11
6.0385
21
-4.16442
0
LINE
8
BLACK
6
CONTINUOUS
10
6.0385
20
-4.16442
11
6.03629
21
-4.16898
0
LINE
8
BLACK
6
CONTINUOUS
10
6.03629
20
-4.16898
11
6.0329
21
-4.17273
0
LINE
8
BLACK
6
CONTINUOUS
10
6.0329
20
-4.17273
11
6.02859
21
-4.17538
0
LINE
8
BLACK
6
CONTINUOUS
10
6.02859
20
-4.17538
11
6.02371
21
-4.17671
0
LINE
8
BLACK
6
CONTINUOUS
10
6.02371
20
-4.17671
11
6.01865
21
-4.17661
0
LINE
8
BLACK
6
CONTINUOUS
10
6.01865
20
-4.17661
11
6.01382
21
-4.1751
0
LINE
8
BLACK
6
CONTINUOUS
10
6.01382
20
-4.1751
11
6.00961
21
-4.1723
0
LINE
8
BLACK
6
CONTINUOUS
10
6.00961
20
-4.1723
11
6.00635
21
-4.16843
0
LINE
8
BLACK
6
CONTINUOUS
10
6.00635
20
-4.16843
11
6.00431
21
-4.1638
0
LINE
8
BLACK
6
CONTINUOUS
10
6.00431
20
-4.1638
11
6.00366
21
-4.15878
0
LINE
8
BLACK
6
CONTINUOUS
10
6.00366
20
-4.15878
11
6.00444
21
-4.15378
0
LINE
8
BLACK
6
CONTINUOUS
10
6.00444
20
-4.15378
11
6.00659
21
-4.1492
0
LINE
8
BLACK
6
CONTINUOUS
10
6.00659
20
-4.1492
11
6.00994
21
-4.14541
0
LINE
8
BLACK
6
CONTINUOUS
10
6.00994
20
-4.14541
11
6.01421
21
-4.14271
0
LINE
8
BLACK
6
CONTINUOUS
10
6.01421
20
-4.14271
11
6.01908
21
-4.14132
0
LINE
8
BLACK
6
CONTINUOUS
10
6.01908
20
-4.14132
11
6.02414
21
-4.14135
0
LINE
8
BLACK
6
CONTINUOUS
10
6.16164
20
-4.10385
11
6.16648
21
-4.1053
0
LINE
8
BLACK
6
CONTINUOUS
10
6.16648
20
-4.1053
11
6.17073
21
-4.10805
0
LINE
8
BLACK
6
CONTINUOUS
10
6.17073
20
-4.10805
11
6.17403
21
-4.11189
0
LINE
8
BLACK
6
CONTINUOUS
10
6.17403
20
-4.11189
11
6.17613
21
-4.11649
0
LINE
8
BLACK
6
CONTINUOUS
10
6.17613
20
-4.11649
11
6.17684
21
-4.1215
0
LINE
8
BLACK
6
CONTINUOUS
10
6.17684
20
-4.1215
11
6.17684
21
-4.12194
0
LINE
8
BLACK
6
CONTINUOUS
10
6.17684
20
-4.12194
11
6.176
21
-4.12692
0
LINE
8
BLACK
6
CONTINUOUS
10
6.176
20
-4.12692
11
6.17379
21
-4.13148
0
LINE
8
BLACK
6
CONTINUOUS
10
6.17379
20
-4.13148
11
6.1704
21
-4.13523
0
LINE
8
BLACK
6
CONTINUOUS
10
6.1704
20
-4.13523
11
6.16609
21
-4.13788
0
LINE
8
BLACK
6
CONTINUOUS
10
6.16609
20
-4.13788
11
6.16121
21
-4.13921
0
LINE
8
BLACK
6
CONTINUOUS
10
6.16121
20
-4.13921
11
6.15615
21
-4.13911
0
LINE
8
BLACK
6
CONTINUOUS
10
6.15615
20
-4.13911
11
6.15132
21
-4.1376
0
LINE
8
BLACK
6
CONTINUOUS
10
6.15132
20
-4.1376
11
6.14711
21
-4.1348
0
LINE
8
BLACK
6
CONTINUOUS
10
6.14711
20
-4.1348
11
6.14385
21
-4.13093
0
LINE
8
BLACK
6
CONTINUOUS
10
6.14385
20
-4.13093
11
6.14181
21
-4.1263
0
LINE
8
BLACK
6
CONTINUOUS
10
6.14181
20
-4.1263
11
6.14116
21
-4.12128
0
LINE
8
BLACK
6
CONTINUOUS
10
6.14116
20
-4.12128
11
6.14194
21
-4.11628
0
LINE
8
BLACK
6
CONTINUOUS
10
6.14194
20
-4.11628
11
6.14409
21
-4.1117
0
LINE
8
BLACK
6
CONTINUOUS
10
6.14409
20
-4.1117
11
6.14744
21
-4.10791
0
LINE
8
BLACK
6
CONTINUOUS
10
6.14744
20
-4.10791
11
6.15171
21
-4.10521
0
LINE
8
BLACK
6
CONTINUOUS
10
6.15171
20
-4.10521
11
6.15658
21
-4.10382
0
LINE
8
BLACK
6
CONTINUOUS
10
6.15658
20
-4.10382
11
6.16164
21
-4.10385
0
LINE
8
BLACK
6
CONTINUOUS
10
6.26164
20
-4.10385
11
6.26648
21
-4.1053
0
LINE
8
BLACK
6
CONTINUOUS
10
6.26648
20
-4.1053
11
6.27073
21
-4.10805
0
LINE
8
BLACK
6
CONTINUOUS
10
6.27073
20
-4.10805
11
6.27403
21
-4.11189
0
LINE
8
BLACK
6
CONTINUOUS
10
6.27403
20
-4.11189
11
6.27613
21
-4.11649
0
LINE
8
BLACK
6
CONTINUOUS
10
6.27613
20
-4.11649
11
6.27684
21
-4.1215
0
LINE
8
BLACK
6
CONTINUOUS
10
6.27684
20
-4.1215
11
6.27684
21
-4.12194
0
LINE
8
BLACK
6
CONTINUOUS
10
6.27684
20
-4.12194
11
6.276
21
-4.12692
0
LINE
8
BLACK
6
CONTINUOUS
10
6.276
20
-4.12692
11
6.27379
21
-4.13148
0
LINE
8
BLACK
6
CONTINUOUS
10
6.27379
20
-4.13148
11
6.2704
21
-4.13523
0
LINE
8
BLACK
6
CONTINUOUS
10
6.2704
20
-4.13523
11
6.26609
21
-4.13788
0
LINE
8
BLACK
6
CONTINUOUS
10
6.26609
20
-4.13788
11
6.26121
21
-4.13921
0
LINE
8
BLACK
6
CONTINUOUS
10
6.26121
20
-4.13921
11
6.25615
21
-4.13911
0
LINE
8
BLACK
6
CONTINUOUS
10
6.25615
20
-4.13911
11
6.25132
21
-4.1376
0
LINE
8
BLACK
6
CONTINUOUS
10
6.25132
20
-4.1376
11
6.24711
21
-4.1348
0
LINE
8
BLACK
6
CONTINUOUS
10
6.24711
20
-4.1348
11
6.24385
21
-4.13093
0
LINE
8
BLACK
6
CONTINUOUS
10
6.24385
20
-4.13093
11
6.24181
21
-4.1263
0
LINE
8
BLACK
6
CONTINUOUS
10
6.24181
20
-4.1263
11
6.24116
21
-4.12128
0
LINE
8
BLACK
6
CONTINUOUS
10
6.24116
20
-4.12128
11
6.24194
21
-4.11628
0
LINE
8
BLACK
6
CONTINUOUS
10
6.24194
20
-4.11628
11
6.24409
21
-4.1117
0
LINE
8
BLACK
6
CONTINUOUS
10
6.24409
20
-4.1117
11
6.24744
21
-4.10791
0
LINE
8
BLACK
6
CONTINUOUS
10
6.24744
20
-4.10791
11
6.25171
21
-4.10521
0
LINE
8
BLACK
6
CONTINUOUS
10
6.25171
20
-4.10521
11
6.25658
21
-4.10382
0
LINE
8
BLACK
6
CONTINUOUS
10
6.25658
20
-4.10382
11
6.26164
21
-4.10385
0
LINE
8
BLACK
6
CONTINUOUS
10
6.06164
20
-4.10385
11
6.06648
21
-4.1053
0
LINE
8
BLACK
6
CONTINUOUS
10
6.06648
20
-4.1053
11
6.07073
21
-4.10805
0
LINE
8
BLACK
6
CONTINUOUS
10
6.07073
20
-4.10805
11
6.07403
21
-4.11189
0
LINE
8
BLACK
6
CONTINUOUS
10
6.07403
20
-4.11189
11
6.07613
21
-4.11649
0
LINE
8
BLACK
6
CONTINUOUS
10
6.07613
20
-4.11649
11
6.07684
21
-4.1215
0
LINE
8
BLACK
6
CONTINUOUS
10
6.07684
20
-4.1215
11
6.07684
21
-4.12194
0
LINE
8
BLACK
6
CONTINUOUS
10
6.07684
20
-4.12194
11
6.076
21
-4.12692
0
LINE
8
BLACK
6
CONTINUOUS
10
6.076
20
-4.12692
11
6.07379
21
-4.13148
0
LINE
8
BLACK
6
CONTINUOUS
10
6.07379
20
-4.13148
11
6.0704
21
-4.13523
0
LINE
8
BLACK
6
CONTINUOUS
10
6.0704
20
-4.13523
11
6.06609
21
-4.13788
0
LINE
8
BLACK
6
CONTINUOUS
10
6.06609
20
-4.13788
11
6.06121
21
-4.13921
0
LINE
8
BLACK
6
CONTINUOUS
10
6.06121
20
-4.13921
11
6.05615
21
-4.13911
0
LINE
8
BLACK
6
CONTINUOUS
10
6.05615
20
-4.13911
11
6.05132
21
-4.1376
0
LINE
8
BLACK
6
CONTINUOUS
10
6.05132
20
-4.1376
11
6.04711
21
-4.1348
0
LINE
8
BLACK
6
CONTINUOUS
10
6.04711
20
-4.1348
11
6.04385
21
-4.13093
0
LINE
8
BLACK
6
CONTINUOUS
10
6.04385
20
-4.13093
11
6.04181
21
-4.1263
0
LINE
8
BLACK
6
CONTINUOUS
10
6.04181
20
-4.1263
11
6.04116
21
-4.12128
0
LINE
8
BLACK
6
CONTINUOUS
10
6.04116
20
-4.12128
11
6.04194
21
-4.11628
0
LINE
8
BLACK
6
CONTINUOUS
10
6.04194
20
-4.11628
11
6.04409
21
-4.1117
0
LINE
8
BLACK
6
CONTINUOUS
10
6.04409
20
-4.1117
11
6.04744
21
-4.10791
0
LINE
8
BLACK
6
CONTINUOUS
10
6.04744
20
-4.10791
11
6.05171
21
-4.10521
0
LINE
8
BLACK
6
CONTINUOUS
10
6.05171
20
-4.10521
11
6.05658
21
-4.10382
0
LINE
8
BLACK
6
CONTINUOUS
10
6.05658
20
-4.10382
11
6.06164
21
-4.10385
0
LINE
8
BLACK
6
CONTINUOUS
10
6.11164
20
-4.10385
11
6.11648
21
-4.1053
0
LINE
8
BLACK
6
CONTINUOUS
10
6.11648
20
-4.1053
11
6.12073
21
-4.10805
0
LINE
8
BLACK
6
CONTINUOUS
10
6.12073
20
-4.10805
11
6.12403
21
-4.11189
0
LINE
8
BLACK
6
CONTINUOUS
10
6.12403
20
-4.11189
11
6.12613
21
-4.11649
0
LINE
8
BLACK
6
CONTINUOUS
10
6.12613
20
-4.11649
11
6.12684
21
-4.1215
0
LINE
8
BLACK
6
CONTINUOUS
10
6.12684
20
-4.1215
11
6.12684
21
-4.12194
0
LINE
8
BLACK
6
CONTINUOUS
10
6.12684
20
-4.12194
11
6.126
21
-4.12692
0
LINE
8
BLACK
6
CONTINUOUS
10
6.126
20
-4.12692
11
6.12379
21
-4.13148
0
LINE
8
BLACK
6
CONTINUOUS
10
6.12379
20
-4.13148
11
6.1204
21
-4.13523
0
LINE
8
BLACK
6
CONTINUOUS
10
6.1204
20
-4.13523
11
6.11609
21
-4.13788
0
LINE
8
BLACK
6
CONTINUOUS
10
6.11609
20
-4.13788
11
6.11121
21
-4.13921
0
LINE
8
BLACK
6
CONTINUOUS
10
6.11121
20
-4.13921
11
6.10615
21
-4.13911
0
LINE
8
BLACK
6
CONTINUOUS
10
6.10615
20
-4.13911
11
6.10132
21
-4.1376
0
LINE
8
BLACK
6
CONTINUOUS
10
6.10132
20
-4.1376
11
6.09711
21
-4.1348
0
LINE
8
BLACK
6
CONTINUOUS
10
6.09711
20
-4.1348
11
6.09385
21
-4.13093
0
LINE
8
BLACK
6
CONTINUOUS
10
6.09385
20
-4.13093
11
6.09181
21
-4.1263
0
LINE
8
BLACK
6
CONTINUOUS
10
6.09181
20
-4.1263
11
6.09116
21
-4.12128
0
LINE
8
BLACK
6
CONTINUOUS
10
6.09116
20
-4.12128
11
6.09194
21
-4.11628
0
LINE
8
BLACK
6
CONTINUOUS
10
6.09194
20
-4.11628
11
6.09409
21
-4.1117
0
LINE
8
BLACK
6
CONTINUOUS
10
6.09409
20
-4.1117
11
6.09744
21
-4.10791
0
LINE
8
BLACK
6
CONTINUOUS
10
6.09744
20
-4.10791
11
6.10171
21
-4.10521
0
LINE
8
BLACK
6
CONTINUOUS
10
6.10171
20
-4.10521
11
6.10658
21
-4.10382
0
LINE
8
BLACK
6
CONTINUOUS
10
6.10658
20
-4.10382
11
6.11164
21
-4.10385
0
LINE
8
BLACK
6
CONTINUOUS
10
6.21164
20
-4.10385
11
6.21648
21
-4.1053
0
LINE
8
BLACK
6
CONTINUOUS
10
6.21648
20
-4.1053
11
6.22073
21
-4.10805
0
LINE
8
BLACK
6
CONTINUOUS
10
6.22073
20
-4.10805
11
6.22403
21
-4.11189
0
LINE
8
BLACK
6
CONTINUOUS
10
6.22403
20
-4.11189
11
6.22613
21
-4.11649
0
LINE
8
BLACK
6
CONTINUOUS
10
6.22613
20
-4.11649
11
6.22684
21
-4.1215
0
LINE
8
BLACK
6
CONTINUOUS
10
6.22684
20
-4.1215
11
6.22684
21
-4.12194
0
LINE
8
BLACK
6
CONTINUOUS
10
6.22684
20
-4.12194
11
6.226
21
-4.12692
0
LINE
8
BLACK
6
CONTINUOUS
10
6.226
20
-4.12692
11
6.22379
21
-4.13148
0
LINE
8
BLACK
6
CONTINUOUS
10
6.22379
20
-4.13148
11
6.2204
21
-4.13523
0
LINE
8
BLACK
6
CONTINUOUS
10
6.2204
20
-4.13523
11
6.21609
21
-4.13788
0
LINE
8
BLACK
6
CONTINUOUS
10
6.21609
20
-4.13788
11
6.21121
21
-4.13921
0
LINE
8
BLACK
6
CONTINUOUS
10
6.21121
20
-4.13921
11
6.20615
21
-4.13911
0
LINE
8
BLACK
6
CONTINUOUS
10
6.20615
20
-4.13911
11
6.20132
21
-4.1376
0
LINE
8
BLACK
6
CONTINUOUS
10
6.20132
20
-4.1376
11
6.19711
21
-4.1348
0
LINE
8
BLACK
6
CONTINUOUS
10
6.19711
20
-4.1348
11
6.19385
21
-4.13093
0
LINE
8
BLACK
6
CONTINUOUS
10
6.19385
20
-4.13093
11
6.19181
21
-4.1263
0
LINE
8
BLACK
6
CONTINUOUS
10
6.19181
20
-4.1263
11
6.19116
21
-4.12128
0
LINE
8
BLACK
6
CONTINUOUS
10
6.19116
20
-4.12128
11
6.19194
21
-4.11628
0
LINE
8
BLACK
6
CONTINUOUS
10
6.19194
20
-4.11628
11
6.19409
21
-4.1117
0
LINE
8
BLACK
6
CONTINUOUS
10
6.19409
20
-4.1117
11
6.19744
21
-4.10791
0
LINE
8
BLACK
6
CONTINUOUS
10
6.19744
20
-4.10791
11
6.20171
21
-4.10521
0
LINE
8
BLACK
6
CONTINUOUS
10
6.20171
20
-4.10521
11
6.20658
21
-4.10382
0
LINE
8
BLACK
6
CONTINUOUS
10
6.20658
20
-4.10382
11
6.21164
21
-4.10385
0
LINE
8
BLACK
6
CONTINUOUS
10
6.29914
20
-4.07885
11
6.30398
21
-4.0803
0
LINE
8
BLACK
6
CONTINUOUS
10
6.30398
20
-4.0803
11
6.30823
21
-4.08305
0
LINE
8
BLACK
6
CONTINUOUS
10
6.30823
20
-4.08305
11
6.31153
21
-4.08689
0
LINE
8
BLACK
6
CONTINUOUS
10
6.31153
20
-4.08689
11
6.31363
21
-4.09149
0
LINE
8
BLACK
6
CONTINUOUS
10
6.31363
20
-4.09149
11
6.31434
21
-4.0965
0
LINE
8
BLACK
6
CONTINUOUS
10
6.31434
20
-4.0965
11
6.31434
21
-4.09694
0
LINE
8
BLACK
6
CONTINUOUS
10
6.31434
20
-4.09694
11
6.3135
21
-4.10192
0
LINE
8
BLACK
6
CONTINUOUS
10
6.3135
20
-4.10192
11
6.31129
21
-4.10648
0
LINE
8
BLACK
6
CONTINUOUS
10
6.31129
20
-4.10648
11
6.3079
21
-4.11023
0
LINE
8
BLACK
6
CONTINUOUS
10
6.3079
20
-4.11023
11
6.30359
21
-4.11288
0
LINE
8
BLACK
6
CONTINUOUS
10
6.30359
20
-4.11288
11
6.29871
21
-4.11421
0
LINE
8
BLACK
6
CONTINUOUS
10
6.29871
20
-4.11421
11
6.29365
21
-4.11411
0
LINE
8
BLACK
6
CONTINUOUS
10
6.29365
20
-4.11411
11
6.28882
21
-4.1126
0
LINE
8
BLACK
6
CONTINUOUS
10
6.28882
20
-4.1126
11
6.28461
21
-4.1098
0
LINE
8
BLACK
6
CONTINUOUS
10
6.28461
20
-4.1098
11
6.28135
21
-4.10593
0
LINE
8
BLACK
6
CONTINUOUS
10
6.28135
20
-4.10593
11
6.27931
21
-4.1013
0
LINE
8
BLACK
6
CONTINUOUS
10
6.27931
20
-4.1013
11
6.27866
21
-4.09628
0
LINE
8
BLACK
6
CONTINUOUS
10
6.27866
20
-4.09628
11
6.27944
21
-4.09128
0
LINE
8
BLACK
6
CONTINUOUS
10
6.27944
20
-4.09128
11
6.28159
21
-4.0867
0
LINE
8
BLACK
6
CONTINUOUS
10
6.28159
20
-4.0867
11
6.28494
21
-4.08291
0
LINE
8
BLACK
6
CONTINUOUS
10
6.28494
20
-4.08291
11
6.28921
21
-4.08021
0
LINE
8
BLACK
6
CONTINUOUS
10
6.28921
20
-4.08021
11
6.29408
21
-4.07882
0
LINE
8
BLACK
6
CONTINUOUS
10
6.29408
20
-4.07882
11
6.29914
21
-4.07885
0
LINE
8
BLACK
6
CONTINUOUS
10
5.529
20
-4.104
11
5.464
21
-4.104
0
LINE
8
BLACK
6
CONTINUOUS
10
5.464
20
-4.104
11
5.464
21
-4.039
0
LINE
8
BLACK
6
CONTINUOUS
10
5.464
20
-4.039
11
5.529
21
-4.039
0
LINE
8
BLACK
6
CONTINUOUS
10
5.529
20
-4.039
11
5.529
21
-4.104
0
LINE
8
BLACK
6
CONTINUOUS
10
5.429
20
-4.104
11
5.364
21
-4.104
0
LINE
8
BLACK
6
CONTINUOUS
10
5.364
20
-4.104
11
5.364
21
-4.039
0
LINE
8
BLACK
6
CONTINUOUS
10
5.364
20
-4.039
11
5.429
21
-4.039
0
LINE
8
BLACK
6
CONTINUOUS
10
5.429
20
-4.039
11
5.429
21
-4.104
0
LINE
8
BLACK
6
CONTINUOUS
10
5.529
20
-3.804
11
5.5025
21
-3.804
0
LINE
8
BLACK
6
CONTINUOUS
10
5.5025
20
-3.804
11
5.5025
21
-3.839
0
LINE
8
BLACK
6
CONTINUOUS
10
5.5025
20
-3.839
11
5.529
21
-3.839
0
LINE
8
BLACK
6
CONTINUOUS
10
5.529
20
-3.839
11
5.529
21
-3.8905
0
LINE
8
BLACK
6
CONTINUOUS
10
5.529
20
-3.8905
11
5.709
21
-3.8905
0
LINE
8
BLACK
6
CONTINUOUS
10
5.709
20
-3.8905
11
5.70976
21
-3.8907
0
LINE
8
BLACK
6
CONTINUOUS
10
5.70976
20
-3.8907
11
5.71055
21
-3.8907
0
LINE
8
BLACK
6
CONTINUOUS
10
5.71055
20
-3.8907
11
5.71124
21
-3.8911
0
LINE
8
BLACK
6
CONTINUOUS
10
5.71124
20
-3.8911
11
5.712
21
-3.8913
0
LINE
8
BLACK
6
CONTINUOUS
10
5.712
20
-3.8913
11
5.71256
21
-3.89186
0
LINE
8
BLACK
6
CONTINUOUS
10
5.71256
20
-3.89186
11
5.71324
21
-3.89226
0
LINE
8
BLACK
6
CONTINUOUS
10
5.71324
20
-3.89226
11
5.76324
21
-3.94226
0
LINE
8
BLACK
6
CONTINUOUS
10
5.76324
20
-3.94226
11
5.76364
21
-3.94294
0
LINE
8
BLACK
6
CONTINUOUS
10
5.76364
20
-3.94294
11
5.7642
21
-3.9435
0
LINE
8
BLACK
6
CONTINUOUS
10
5.7642
20
-3.9435
11
5.7644
21
-3.94426
0
LINE
8
BLACK
6
CONTINUOUS
10
5.7644
20
-3.94426
11
5.7648
21
-3.94495
0
LINE
8
BLACK
6
CONTINUOUS
10
5.7648
20
-3.94495
11
5.7648
21
-3.94574
0
LINE
8
BLACK
6
CONTINUOUS
10
5.7648
20
-3.94574
11
5.765
21
-3.9465
0
LINE
8
BLACK
6
CONTINUOUS
10
5.765
20
-3.9465
11
5.765
21
-4.05696
0
LINE
8
BLACK
6
CONTINUOUS
10
5.765
20
-4.05696
11
5.76833
21
-4.05866
0
LINE
8
BLACK
6
CONTINUOUS
10
5.76833
20
-4.05866
11
5.77184
21
-4.06217
0
LINE
8
BLACK
6
CONTINUOUS
10
5.77184
20
-4.06217
11
5.7741
21
-4.06659
0
LINE
8
BLACK
6
CONTINUOUS
10
5.7741
20
-4.06659
11
5.77487
21
-4.0715
0
LINE
8
BLACK
6
CONTINUOUS
10
5.77487
20
-4.0715
11
5.7741
21
-4.07641
0
LINE
8
BLACK
6
CONTINUOUS
10
5.7741
20
-4.07641
11
5.77184
21
-4.08083
0
LINE
8
BLACK
6
CONTINUOUS
10
5.77184
20
-4.08083
11
5.76833
21
-4.08434
0
LINE
8
BLACK
6
CONTINUOUS
10
5.76833
20
-4.08434
11
5.76391
21
-4.0866
0
LINE
8
BLACK
6
CONTINUOUS
10
5.76391
20
-4.0866
11
5.759
21
-4.08737
0
LINE
8
BLACK
6
CONTINUOUS
10
5.759
20
-4.08737
11
5.75409
21
-4.0866
0
LINE
8
BLACK
6
CONTINUOUS
10
5.75409
20
-4.0866
11
5.74967
21
-4.08434
0
LINE
8
BLACK
6
CONTINUOUS
10
5.74967
20
-4.08434
11
5.74616
21
-4.08083
0
LINE
8
BLACK
6
CONTINUOUS
10
5.74616
20
-4.08083
11
5.7439
21
-4.07641
0
LINE
8
BLACK
6
CONTINUOUS
10
5.7439
20
-4.07641
11
5.74313
21
-4.0715
0
LINE
8
BLACK
6
CONTINUOUS
10
5.74313
20
-4.0715
11
5.7439
21
-4.06659
0
LINE
8
BLACK
6
CONTINUOUS
10
5.7439
20
-4.06659
11
5.74616
21
-4.06217
0
LINE
8
BLACK
6
CONTINUOUS
10
5.74616
20
-4.06217
11
5.74967
21
-4.05866
0
LINE
8
BLACK
6
CONTINUOUS
10
5.74967
20
-4.05866
11
5.753
21
-4.05696
0
LINE
8
BLACK
6
CONTINUOUS
10
5.753
20
-4.05696
11
5.753
21
-3.94899
0
LINE
8
BLACK
6
CONTINUOUS
10
5.753
20
-3.94899
11
5.70651
21
-3.9025
0
LINE
8
BLACK
6
CONTINUOUS
10
5.70651
20
-3.9025
11
5.529
21
-3.9025
0
LINE
8
BLACK
6
CONTINUOUS
10
5.529
20
-3.9025
11
5.529
21
-3.904
0
LINE
8
BLACK
6
CONTINUOUS
10
5.529
20
-3.904
11
5.464
21
-3.904
0
LINE
8
BLACK
6
CONTINUOUS
10
5.464
20
-3.904
11
5.464
21
-3.839
0
LINE
8
BLACK
6
CONTINUOUS
10
5.464
20
-3.839
11
5.4905
21
-3.839
0
LINE
8
BLACK
6
CONTINUOUS
10
5.4905
20
-3.839
11
5.4905
21
-3.804
0
LINE
8
BLACK
6
CONTINUOUS
10
5.4905
20
-3.804
11
5.464
21
-3.804
0
LINE
8
BLACK
6
CONTINUOUS
10
5.464
20
-3.804
11
5.464
21
-3.739
0
LINE
8
BLACK
6
CONTINUOUS
10
5.464
20
-3.739
11
5.529
21
-3.739
0
LINE
8
BLACK
6
CONTINUOUS
10
5.529
20
-3.739
11
5.529
21
-3.804
0
LINE
8
BLACK
6
CONTINUOUS
10
6.32414
20
-4.02885
11
6.32898
21
-4.0303
0
LINE
8
BLACK
6
CONTINUOUS
10
6.32898
20
-4.0303
11
6.33323
21
-4.03305
0
LINE
8
BLACK
6
CONTINUOUS
10
6.33323
20
-4.03305
11
6.33653
21
-4.03689
0
LINE
8
BLACK
6
CONTINUOUS
10
6.33653
20
-4.03689
11
6.33863
21
-4.04149
0
LINE
8
BLACK
6
CONTINUOUS
10
6.33863
20
-4.04149
11
6.33934
21
-4.0465
0
LINE
8
BLACK
6
CONTINUOUS
10
6.33934
20
-4.0465
11
6.33934
21
-4.04694
0
LINE
8
BLACK
6
CONTINUOUS
10
6.33934
20
-4.04694
11
6.3385
21
-4.05192
0
LINE
8
BLACK
6
CONTINUOUS
10
6.3385
20
-4.05192
11
6.33629
21
-4.05648
0
LINE
8
BLACK
6
CONTINUOUS
10
6.33629
20
-4.05648
11
6.3329
21
-4.06023
0
LINE
8
BLACK
6
CONTINUOUS
10
6.3329
20
-4.06023
11
6.32859
21
-4.06288
0
LINE
8
BLACK
6
CONTINUOUS
10
6.32859
20
-4.06288
11
6.32371
21
-4.06421
0
LINE
8
BLACK
6
CONTINUOUS
10
6.32371
20
-4.06421
11
6.31865
21
-4.06411
0
LINE
8
BLACK
6
CONTINUOUS
10
6.31865
20
-4.06411
11
6.31382
21
-4.0626
0
LINE
8
BLACK
6
CONTINUOUS
10
6.31382
20
-4.0626
11
6.30961
21
-4.0598
0
LINE
8
BLACK
6
CONTINUOUS
10
6.30961
20
-4.0598
11
6.30635
21
-4.05593
0
LINE
8
BLACK
6
CONTINUOUS
10
6.30635
20
-4.05593
11
6.30431
21
-4.0513
0
LINE
8
BLACK
6
CONTINUOUS
10
6.30431
20
-4.0513
11
6.30366
21
-4.04628
0
LINE
8
BLACK
6
CONTINUOUS
10
6.30366
20
-4.04628
11
6.30444
21
-4.04128
0
LINE
8
BLACK
6
CONTINUOUS
10
6.30444
20
-4.04128
11
6.30659
21
-4.0367
0
LINE
8
BLACK
6
CONTINUOUS
10
6.30659
20
-4.0367
11
6.30994
21
-4.03291
0
LINE
8
BLACK
6
CONTINUOUS
10
6.30994
20
-4.03291
11
6.31421
21
-4.03021
0
LINE
8
BLACK
6
CONTINUOUS
10
6.31421
20
-4.03021
11
6.31908
21
-4.02882
0
LINE
8
BLACK
6
CONTINUOUS
10
6.31908
20
-4.02882
11
6.32414
21
-4.02885
0
LINE
8
BLACK
6
CONTINUOUS
10
5.71164
20
-3.97885
11
5.71648
21
-3.9803
0
LINE
8
BLACK
6
CONTINUOUS
10
5.71648
20
-3.9803
11
5.72073
21
-3.98305
0
LINE
8
BLACK
6
CONTINUOUS
10
5.72073
20
-3.98305
11
5.72403
21
-3.98689
0
LINE
8
BLACK
6
CONTINUOUS
10
5.72403
20
-3.98689
11
5.72613
21
-3.99149
0
LINE
8
BLACK
6
CONTINUOUS
10
5.72613
20
-3.99149
11
5.72684
21
-3.9965
0
LINE
8
BLACK
6
CONTINUOUS
10
5.72684
20
-3.9965
11
5.72684
21
-3.99694
0
LINE
8
BLACK
6
CONTINUOUS
10
5.72684
20
-3.99694
11
5.726
21
-4.00192
0
LINE
8
BLACK
6
CONTINUOUS
10
5.726
20
-4.00192
11
5.72379
21
-4.00648
0
LINE
8
BLACK
6
CONTINUOUS
10
5.72379
20
-4.00648
11
5.7204
21
-4.01023
0
LINE
8
BLACK
6
CONTINUOUS
10
5.7204
20
-4.01023
11
5.71609
21
-4.01288
0
LINE
8
BLACK
6
CONTINUOUS
10
5.71609
20
-4.01288
11
5.71121
21
-4.01421
0
LINE
8
BLACK
6
CONTINUOUS
10
5.71121
20
-4.01421
11
5.70615
21
-4.01411
0
LINE
8
BLACK
6
CONTINUOUS
10
5.70615
20
-4.01411
11
5.70132
21
-4.0126
0
LINE
8
BLACK
6
CONTINUOUS
10
5.70132
20
-4.0126
11
5.69711
21
-4.0098
0
LINE
8
BLACK
6
CONTINUOUS
10
5.69711
20
-4.0098
11
5.69385
21
-4.00593
0
LINE
8
BLACK
6
CONTINUOUS
10
5.69385
20
-4.00593
11
5.69181
21
-4.0013
0
LINE
8
BLACK
6
CONTINUOUS
10
5.69181
20
-4.0013
11
5.69116
21
-3.99628
0
LINE
8
BLACK
6
CONTINUOUS
10
5.69116
20
-3.99628
11
5.69194
21
-3.99128
0
LINE
8
BLACK
6
CONTINUOUS
10
5.69194
20
-3.99128
11
5.69409
21
-3.9867
0
LINE
8
BLACK
6
CONTINUOUS
10
5.69409
20
-3.9867
11
5.69744
21
-3.98291
0
LINE
8
BLACK
6
CONTINUOUS
10
5.69744
20
-3.98291
11
5.70171
21
-3.98021
0
LINE
8
BLACK
6
CONTINUOUS
10
5.70171
20
-3.98021
11
5.70658
21
-3.97882
0
LINE
8
BLACK
6
CONTINUOUS
10
5.70658
20
-3.97882
11
5.71164
21
-3.97885
0
LINE
8
BLACK
6
CONTINUOUS
10
5.529
20
-4.004
11
5.464
21
-4.004
0
LINE
8
BLACK
6
CONTINUOUS
10
5.464
20
-4.004
11
5.464
21
-3.939
0
LINE
8
BLACK
6
CONTINUOUS
10
5.464
20
-3.939
11
5.529
21
-3.939
0
LINE
8
BLACK
6
CONTINUOUS
10
5.529
20
-3.939
11
5.529
21
-4.004
0
LINE
8
BLACK
6
CONTINUOUS
10
5.429
20
-4.004
11
5.364
21
-4.004
0
LINE
8
BLACK
6
CONTINUOUS
10
5.364
20
-4.004
11
5.364
21
-3.939
0
LINE
8
BLACK
6
CONTINUOUS
10
5.364
20
-3.939
11
5.429
21
-3.939
0
LINE
8
BLACK
6
CONTINUOUS
10
5.429
20
-3.939
11
5.429
21
-4.004
0
LINE
8
BLACK
6
CONTINUOUS
10
5.83664
20
-3.96635
11
5.84148
21
-3.9678
0
LINE
8
BLACK
6
CONTINUOUS
10
5.84148
20
-3.9678
11
5.84573
21
-3.97055
0
LINE
8
BLACK
6
CONTINUOUS
10
5.84573
20
-3.97055
11
5.84903
21
-3.97439
0
LINE
8
BLACK
6
CONTINUOUS
10
5.84903
20
-3.97439
11
5.85113
21
-3.97899
0
LINE
8
BLACK
6
CONTINUOUS
10
5.85113
20
-3.97899
11
5.85184
21
-3.984
0
LINE
8
BLACK
6
CONTINUOUS
10
5.85184
20
-3.984
11
5.85184
21
-3.98444
0
LINE
8
BLACK
6
CONTINUOUS
10
5.85184
20
-3.98444
11
5.851
21
-3.98942
0
LINE
8
BLACK
6
CONTINUOUS
10
5.851
20
-3.98942
11
5.84879
21
-3.99398
0
LINE
8
BLACK
6
CONTINUOUS
10
5.84879
20
-3.99398
11
5.8454
21
-3.99773
0
LINE
8
BLACK
6
CONTINUOUS
10
5.8454
20
-3.99773
11
5.84109
21
-4.00038
0
LINE
8
BLACK
6
CONTINUOUS
10
5.84109
20
-4.00038
11
5.83621
21
-4.00171
0
LINE
8
BLACK
6
CONTINUOUS
10
5.83621
20
-4.00171
11
5.83115
21
-4.00161
0
LINE
8
BLACK
6
CONTINUOUS
10
5.83115
20
-4.00161
11
5.82632
21
-4.0001
0
LINE
8
BLACK
6
CONTINUOUS
10
5.82632
20
-4.0001
11
5.82211
21
-3.9973
0
LINE
8
BLACK
6
CONTINUOUS
10
5.82211
20
-3.9973
11
5.81885
21
-3.99343
0
LINE
8
BLACK
6
CONTINUOUS
10
5.81885
20
-3.99343
11
5.81681
21
-3.9888
0
LINE
8
BLACK
6
CONTINUOUS
10
5.81681
20
-3.9888
11
5.81616
21
-3.98378
0
LINE
8
BLACK
6
CONTINUOUS
10
5.81616
20
-3.98378
11
5.81694
21
-3.97878
0
LINE
8
BLACK
6
CONTINUOUS
10
5.81694
20
-3.97878
11
5.81909
21
-3.9742
0
LINE
8
BLACK
6
CONTINUOUS
10
5.81909
20
-3.9742
11
5.82244
21
-3.97041
0
LINE
8
BLACK
6
CONTINUOUS
10
5.82244
20
-3.97041
11
5.82671
21
-3.96771
0
LINE
8
BLACK
6
CONTINUOUS
10
5.82671
20
-3.96771
11
5.83158
21
-3.96632
0
LINE
8
BLACK
6
CONTINUOUS
10
5.83158
20
-3.96632
11
5.83664
21
-3.96635
0
LINE
8
BLACK
6
CONTINUOUS
10
6.32414
20
-3.96635
11
6.32898
21
-3.9678
0
LINE
8
BLACK
6
CONTINUOUS
10
6.32898
20
-3.9678
11
6.33323
21
-3.97055
0
LINE
8
BLACK
6
CONTINUOUS
10
6.33323
20
-3.97055
11
6.33653
21
-3.97439
0
LINE
8
BLACK
6
CONTINUOUS
10
6.33653
20
-3.97439
11
6.33863
21
-3.97899
0
LINE
8
BLACK
6
CONTINUOUS
10
6.33863
20
-3.97899
11
6.33934
21
-3.984
0
LINE
8
BLACK
6
CONTINUOUS
10
6.33934
20
-3.984
11
6.33934
21
-3.98444
0
LINE
8
BLACK
6
CONTINUOUS
10
6.33934
20
-3.98444
11
6.3385
21
-3.98942
0
LINE
8
BLACK
6
CONTINUOUS
10
6.3385
20
-3.98942
11
6.33629
21
-3.99398
0
LINE
8
BLACK
6
CONTINUOUS
10
6.33629
20
-3.99398
11
6.3329
21
-3.99773
0
LINE
8
BLACK
6
CONTINUOUS
10
6.3329
20
-3.99773
11
6.32859
21
-4.00038
0
LINE
8
BLACK
6
CONTINUOUS
10
6.32859
20
-4.00038
11
6.32371
21
-4.00171
0
LINE
8
BLACK
6
CONTINUOUS
10
6.32371
20
-4.00171
11
6.31865
21
-4.00161
0
LINE
8
BLACK
6
CONTINUOUS
10
6.31865
20
-4.00161
11
6.31382
21
-4.0001
0
LINE
8
BLACK
6
CONTINUOUS
10
6.31382
20
-4.0001
11
6.30961
21
-3.9973
0
LINE
8
BLACK
6
CONTINUOUS
10
6.30961
20
-3.9973
11
6.30635
21
-3.99343
0
LINE
8
BLACK
6
CONTINUOUS
10
6.30635
20
-3.99343
11
6.30431
21
-3.9888
0
LINE
8
BLACK
6
CONTINUOUS
10
6.30431
20
-3.9888
11
6.30366
21
-3.98378
0
LINE
8
BLACK
6
CONTINUOUS
10
6.30366
20
-3.98378
11
6.30444
21
-3.97878
0
LINE
8
BLACK
6
CONTINUOUS
10
6.30444
20
-3.97878
11
6.30659
21
-3.9742
0
LINE
8
BLACK
6
CONTINUOUS
10
6.30659
20
-3.9742
11
6.30994
21
-3.97041
0
LINE
8
BLACK
6
CONTINUOUS
10
6.30994
20
-3.97041
11
6.31421
21
-3.96771
0
LINE
8
BLACK
6
CONTINUOUS
10
6.31421
20
-3.96771
11
6.31908
21
-3.96632
0
LINE
8
BLACK
6
CONTINUOUS
10
6.31908
20
-3.96632
11
6.32414
21
-3.96635
0
LINE
8
BLACK
6
CONTINUOUS
10
5.84914
20
-3.92885
11
5.85398
21
-3.9303
0
LINE
8
BLACK
6
CONTINUOUS
10
5.85398
20
-3.9303
11
5.85823
21
-3.93305
0
LINE
8
BLACK
6
CONTINUOUS
10
5.85823
20
-3.93305
11
5.86153
21
-3.93689
0
LINE
8
BLACK
6
CONTINUOUS
10
5.86153
20
-3.93689
11
5.86363
21
-3.94149
0
LINE
8
BLACK
6
CONTINUOUS
10
5.86363
20
-3.94149
11
5.86434
21
-3.9465
0
LINE
8
BLACK
6
CONTINUOUS
10
5.86434
20
-3.9465
11
5.86434
21
-3.94694
0
LINE
8
BLACK
6
CONTINUOUS
10
5.86434
20
-3.94694
11
5.8635
21
-3.95192
0
LINE
8
BLACK
6
CONTINUOUS
10
5.8635
20
-3.95192
11
5.86129
21
-3.95648
0
LINE
8
BLACK
6
CONTINUOUS
10
5.86129
20
-3.95648
11
5.8579
21
-3.96023
0
LINE
8
BLACK
6
CONTINUOUS
10
5.8579
20
-3.96023
11
5.85359
21
-3.96288
0
LINE
8
BLACK
6
CONTINUOUS
10
5.85359
20
-3.96288
11
5.84871
21
-3.96421
0
LINE
8
BLACK
6
CONTINUOUS
10
5.84871
20
-3.96421
11
5.84365
21
-3.96411
0
LINE
8
BLACK
6
CONTINUOUS
10
5.84365
20
-3.96411
11
5.83882
21
-3.9626
0
LINE
8
BLACK
6
CONTINUOUS
10
5.83882
20
-3.9626
11
5.83461
21
-3.9598
0
LINE
8
BLACK
6
CONTINUOUS
10
5.83461
20
-3.9598
11
5.83135
21
-3.95593
0
LINE
8
BLACK
6
CONTINUOUS
10
5.83135
20
-3.95593
11
5.82931
21
-3.9513
0
LINE
8
BLACK
6
CONTINUOUS
10
5.82931
20
-3.9513
11
5.82866
21
-3.94628
0
LINE
8
BLACK
6
CONTINUOUS
10
5.82866
20
-3.94628
11
5.82944
21
-3.94128
0
LINE
8
BLACK
6
CONTINUOUS
10
5.82944
20
-3.94128
11
5.83159
21
-3.9367
0
LINE
8
BLACK
6
CONTINUOUS
10
5.83159
20
-3.9367
11
5.83494
21
-3.93291
0
LINE
8
BLACK
6
CONTINUOUS
10
5.83494
20
-3.93291
11
5.83921
21
-3.93021
0
LINE
8
BLACK
6
CONTINUOUS
10
5.83921
20
-3.93021
11
5.84408
21
-3.92882
0
LINE
8
BLACK
6
CONTINUOUS
10
5.84408
20
-3.92882
11
5.84914
21
-3.92885
0
LINE
8
BLACK
6
CONTINUOUS
10
5.71164
20
-3.92885
11
5.71648
21
-3.9303
0
LINE
8
BLACK
6
CONTINUOUS
10
5.71648
20
-3.9303
11
5.72073
21
-3.93305
0
LINE
8
BLACK
6
CONTINUOUS
10
5.72073
20
-3.93305
11
5.72403
21
-3.93689
0
LINE
8
BLACK
6
CONTINUOUS
10
5.72403
20
-3.93689
11
5.72613
21
-3.94149
0
LINE
8
BLACK
6
CONTINUOUS
10
5.72613
20
-3.94149
11
5.72684
21
-3.9465
0
LINE
8
BLACK
6
CONTINUOUS
10
5.72684
20
-3.9465
11
5.72684
21
-3.94694
0
LINE
8
BLACK
6
CONTINUOUS
10
5.72684
20
-3.94694
11
5.726
21
-3.95192
0
LINE
8
BLACK
6
CONTINUOUS
10
5.726
20
-3.95192
11
5.72379
21
-3.95648
0
LINE
8
BLACK
6
CONTINUOUS
10
5.72379
20
-3.95648
11
5.7204
21
-3.96023
0
LINE
8
BLACK
6
CONTINUOUS
10
5.7204
20
-3.96023
11
5.71609
21
-3.96288
0
LINE
8
BLACK
6
CONTINUOUS
10
5.71609
20
-3.96288
11
5.71121
21
-3.96421
0
LINE
8
BLACK
6
CONTINUOUS
10
5.71121
20
-3.96421
11
5.70615
21
-3.96411
0
LINE
8
BLACK
6
CONTINUOUS
10
5.70615
20
-3.96411
11
5.70132
21
-3.9626
0
LINE
8
BLACK
6
CONTINUOUS
10
5.70132
20
-3.9626
11
5.69711
21
-3.9598
0
LINE
8
BLACK
6
CONTINUOUS
10
5.69711
20
-3.9598
11
5.69385
21
-3.95593
0
LINE
8
BLACK
6
CONTINUOUS
10
5.69385
20
-3.95593
11
5.69181
21
-3.9513
0
LINE
8
BLACK
6
CONTINUOUS
10
5.69181
20
-3.9513
11
5.69116
21
-3.94628
0
LINE
8
BLACK
6
CONTINUOUS
10
5.69116
20
-3.94628
11
5.69194
21
-3.94128
0
LINE
8
BLACK
6
CONTINUOUS
10
5.69194
20
-3.94128
11
5.69409
21
-3.9367
0
LINE
8
BLACK
6
CONTINUOUS
10
5.69409
20
-3.9367
11
5.69744
21
-3.93291
0
LINE
8
BLACK
6
CONTINUOUS
10
5.69744
20
-3.93291
11
5.70171
21
-3.93021
0
LINE
8
BLACK
6
CONTINUOUS
10
5.70171
20
-3.93021
11
5.70658
21
-3.92882
0
LINE
8
BLACK
6
CONTINUOUS
10
5.70658
20
-3.92882
11
5.71164
21
-3.92885
0
LINE
8
BLACK
6
CONTINUOUS
10
6.32414
20
-3.91635
11
6.32898
21
-3.9178
0
LINE
8
BLACK
6
CONTINUOUS
10
6.32898
20
-3.9178
11
6.33323
21
-3.92055
0
LINE
8
BLACK
6
CONTINUOUS
10
6.33323
20
-3.92055
11
6.33653
21
-3.92439
0
LINE
8
BLACK
6
CONTINUOUS
10
6.33653
20
-3.92439
11
6.33863
21
-3.92899
0
LINE
8
BLACK
6
CONTINUOUS
10
6.33863
20
-3.92899
11
6.33934
21
-3.934
0
LINE
8
BLACK
6
CONTINUOUS
10
6.33934
20
-3.934
11
6.33934
21
-3.93444
0
LINE
8
BLACK
6
CONTINUOUS
10
6.33934
20
-3.93444
11
6.3385
21
-3.93942
0
LINE
8
BLACK
6
CONTINUOUS
10
6.3385
20
-3.93942
11
6.33629
21
-3.94398
0
LINE
8
BLACK
6
CONTINUOUS
10
6.33629
20
-3.94398
11
6.3329
21
-3.94773
0
LINE
8
BLACK
6
CONTINUOUS
10
6.3329
20
-3.94773
11
6.32859
21
-3.95038
0
LINE
8
BLACK
6
CONTINUOUS
10
6.32859
20
-3.95038
11
6.32371
21
-3.95171
0
LINE
8
BLACK
6
CONTINUOUS
10
6.32371
20
-3.95171
11
6.31865
21
-3.95161
0
LINE
8
BLACK
6
CONTINUOUS
10
6.31865
20
-3.95161
11
6.31382
21
-3.9501
0
LINE
8
BLACK
6
CONTINUOUS
10
6.31382
20
-3.9501
11
6.30961
21
-3.9473
0
LINE
8
BLACK
6
CONTINUOUS
10
6.30961
20
-3.9473
11
6.30635
21
-3.94343
0
LINE
8
BLACK
6
CONTINUOUS
10
6.30635
20
-3.94343
11
6.30431
21
-3.9388
0
LINE
8
BLACK
6
CONTINUOUS
10
6.30431
20
-3.9388
11
6.30366
21
-3.93378
0
LINE
8
BLACK
6
CONTINUOUS
10
6.30366
20
-3.93378
11
6.30444
21
-3.92878
0
LINE
8
BLACK
6
CONTINUOUS
10
6.30444
20
-3.92878
11
6.30659
21
-3.9242
0
LINE
8
BLACK
6
CONTINUOUS
10
6.30659
20
-3.9242
11
6.30994
21
-3.92041
0
LINE
8
BLACK
6
CONTINUOUS
10
6.30994
20
-3.92041
11
6.31421
21
-3.91771
0
LINE
8
BLACK
6
CONTINUOUS
10
6.31421
20
-3.91771
11
6.31908
21
-3.91632
0
LINE
8
BLACK
6
CONTINUOUS
10
6.31908
20
-3.91632
11
6.32414
21
-3.91635
0
LINE
8
BLACK
6
CONTINUOUS
10
6.02414
20
-3.90385
11
6.02898
21
-3.9053
0
LINE
8
BLACK
6
CONTINUOUS
10
6.02898
20
-3.9053
11
6.03323
21
-3.90805
0
LINE
8
BLACK
6
CONTINUOUS
10
6.03323
20
-3.90805
11
6.03653
21
-3.91189
0
LINE
8
BLACK
6
CONTINUOUS
10
6.03653
20
-3.91189
11
6.03863
21
-3.91649
0
LINE
8
BLACK
6
CONTINUOUS
10
6.03863
20
-3.91649
11
6.03934
21
-3.9215
0
LINE
8
BLACK
6
CONTINUOUS
10
6.03934
20
-3.9215
11
6.03934
21
-3.92194
0
LINE
8
BLACK
6
CONTINUOUS
10
6.03934
20
-3.92194
11
6.0385
21
-3.92692
0
LINE
8
BLACK
6
CONTINUOUS
10
6.0385
20
-3.92692
11
6.03629
21
-3.93148
0
LINE
8
BLACK
6
CONTINUOUS
10
6.03629
20
-3.93148
11
6.0329
21
-3.93523
0
LINE
8
BLACK
6
CONTINUOUS
10
6.0329
20
-3.93523
11
6.02859
21
-3.93788
0
LINE
8
BLACK
6
CONTINUOUS
10
6.02859
20
-3.93788
11
6.02371
21
-3.93921
0
LINE
8
BLACK
6
CONTINUOUS
10
6.02371
20
-3.93921
11
6.01865
21
-3.93911
0
LINE
8
BLACK
6
CONTINUOUS
10
6.01865
20
-3.93911
11
6.01382
21
-3.9376
0
LINE
8
BLACK
6
CONTINUOUS
10
6.01382
20
-3.9376
11
6.00961
21
-3.9348
0
LINE
8
BLACK
6
CONTINUOUS
10
6.00961
20
-3.9348
11
6.00635
21
-3.93093
0
LINE
8
BLACK
6
CONTINUOUS
10
6.00635
20
-3.93093
11
6.00431
21
-3.9263
0
LINE
8
BLACK
6
CONTINUOUS
10
6.00431
20
-3.9263
11
6.00366
21
-3.92128
0
LINE
8
BLACK
6
CONTINUOUS
10
6.00366
20
-3.92128
11
6.00444
21
-3.91628
0
LINE
8
BLACK
6
CONTINUOUS
10
6.00444
20
-3.91628
11
6.00659
21
-3.9117
0
LINE
8
BLACK
6
CONTINUOUS
10
6.00659
20
-3.9117
11
6.00994
21
-3.90791
0
LINE
8
BLACK
6
CONTINUOUS
10
6.00994
20
-3.90791
11
6.01421
21
-3.90521
0
LINE
8
BLACK
6
CONTINUOUS
10
6.01421
20
-3.90521
11
6.01908
21
-3.90382
0
LINE
8
BLACK
6
CONTINUOUS
10
6.01908
20
-3.90382
11
6.02414
21
-3.90385
0
LINE
8
BLACK
6
CONTINUOUS
10
5.429
20
-3.904
11
5.364
21
-3.904
0
LINE
8
BLACK
6
CONTINUOUS
10
5.364
20
-3.904
11
5.364
21
-3.839
0
LINE
8
BLACK
6
CONTINUOUS
10
5.364
20
-3.839
11
5.429
21
-3.839
0
LINE
8
BLACK
6
CONTINUOUS
10
5.429
20
-3.839
11
5.429
21
-3.904
0
LINE
8
BLACK
6
CONTINUOUS
10
6.27414
20
-3.86635
11
6.27898
21
-3.8678
0
LINE
8
BLACK
6
CONTINUOUS
10
6.27898
20
-3.8678
11
6.28323
21
-3.87055
0
LINE
8
BLACK
6
CONTINUOUS
10
6.28323
20
-3.87055
11
6.28653
21
-3.87439
0
LINE
8
BLACK
6
CONTINUOUS
10
6.28653
20
-3.87439
11
6.28863
21
-3.87899
0
LINE
8
BLACK
6
CONTINUOUS
10
6.28863
20
-3.87899
11
6.28934
21
-3.884
0
LINE
8
BLACK
6
CONTINUOUS
10
6.28934
20
-3.884
11
6.28934
21
-3.88444
0
LINE
8
BLACK
6
CONTINUOUS
10
6.28934
20
-3.88444
11
6.2885
21
-3.88942
0
LINE
8
BLACK
6
CONTINUOUS
10
6.2885
20
-3.88942
11
6.28629
21
-3.89398
0
LINE
8
BLACK
6
CONTINUOUS
10
6.28629
20
-3.89398
11
6.2829
21
-3.89773
0
LINE
8
BLACK
6
CONTINUOUS
10
6.2829
20
-3.89773
11
6.27859
21
-3.90038
0
LINE
8
BLACK
6
CONTINUOUS
10
6.27859
20
-3.90038
11
6.27371
21
-3.90171
0
LINE
8
BLACK
6
CONTINUOUS
10
6.27371
20
-3.90171
11
6.26865
21
-3.90161
0
LINE
8
BLACK
6
CONTINUOUS
10
6.26865
20
-3.90161
11
6.26382
21
-3.9001
0
LINE
8
BLACK
6
CONTINUOUS
10
6.26382
20
-3.9001
11
6.25961
21
-3.8973
0
LINE
8
BLACK
6
CONTINUOUS
10
6.25961
20
-3.8973
11
6.25635
21
-3.89343
0
LINE
8
BLACK
6
CONTINUOUS
10
6.25635
20
-3.89343
11
6.25431
21
-3.8888
0
LINE
8
BLACK
6
CONTINUOUS
10
6.25431
20
-3.8888
11
6.25366
21
-3.88378
0
LINE
8
BLACK
6
CONTINUOUS
10
6.25366
20
-3.88378
11
6.25444
21
-3.87878
0
LINE
8
BLACK
6
CONTINUOUS
10
6.25444
20
-3.87878
11
6.25659
21
-3.8742
0
LINE
8
BLACK
6
CONTINUOUS
10
6.25659
20
-3.8742
11
6.25994
21
-3.87041
0
LINE
8
BLACK
6
CONTINUOUS
10
6.25994
20
-3.87041
11
6.26421
21
-3.86771
0
LINE
8
BLACK
6
CONTINUOUS
10
6.26421
20
-3.86771
11
6.26908
21
-3.86632
0
LINE
8
BLACK
6
CONTINUOUS
10
6.26908
20
-3.86632
11
6.27414
21
-3.86635
0
LINE
8
BLACK
6
CONTINUOUS
10
6.24914
20
-3.82885
11
6.25398
21
-3.8303
0
LINE
8
BLACK
6
CONTINUOUS
10
6.25398
20
-3.8303
11
6.25823
21
-3.83305
0
LINE
8
BLACK
6
CONTINUOUS
10
6.25823
20
-3.83305
11
6.26153
21
-3.83689
0
LINE
8
BLACK
6
CONTINUOUS
10
6.26153
20
-3.83689
11
6.26363
21
-3.84149
0
LINE
8
BLACK
6
CONTINUOUS
10
6.26363
20
-3.84149
11
6.26434
21
-3.8465
0
LINE
8
BLACK
6
CONTINUOUS
10
6.26434
20
-3.8465
11
6.26434
21
-3.84694
0
LINE
8
BLACK
6
CONTINUOUS
10
6.26434
20
-3.84694
11
6.2635
21
-3.85192
0
LINE
8
BLACK
6
CONTINUOUS
10
6.2635
20
-3.85192
11
6.26129
21
-3.85648
0
LINE
8
BLACK
6
CONTINUOUS
10
6.26129
20
-3.85648
11
6.2579
21
-3.86023
0
LINE
8
BLACK
6
CONTINUOUS
10
6.2579
20
-3.86023
11
6.25359
21
-3.86288
0
LINE
8
BLACK
6
CONTINUOUS
10
6.25359
20
-3.86288
11
6.24871
21
-3.86421
0
LINE
8
BLACK
6
CONTINUOUS
10
6.24871
20
-3.86421
11
6.24365
21
-3.86411
0
LINE
8
BLACK
6
CONTINUOUS
10
6.24365
20
-3.86411
11
6.23882
21
-3.8626
0
LINE
8
BLACK
6
CONTINUOUS
10
6.23882
20
-3.8626
11
6.23461
21
-3.8598
0
LINE
8
BLACK
6
CONTINUOUS
10
6.23461
20
-3.8598
11
6.23135
21
-3.85593
0
LINE
8
BLACK
6
CONTINUOUS
10
6.23135
20
-3.85593
11
6.22931
21
-3.8513
0
LINE
8
BLACK
6
CONTINUOUS
10
6.22931
20
-3.8513
11
6.22866
21
-3.84628
0
LINE
8
BLACK
6
CONTINUOUS
10
6.22866
20
-3.84628
11
6.22944
21
-3.84128
0
LINE
8
BLACK
6
CONTINUOUS
10
6.22944
20
-3.84128
11
6.23159
21
-3.8367
0
LINE
8
BLACK
6
CONTINUOUS
10
6.23159
20
-3.8367
11
6.23494
21
-3.83291
0
LINE
8
BLACK
6
CONTINUOUS
10
6.23494
20
-3.83291
11
6.23921
21
-3.83021
0
LINE
8
BLACK
6
CONTINUOUS
10
6.23921
20
-3.83021
11
6.24408
21
-3.82882
0
LINE
8
BLACK
6
CONTINUOUS
10
6.24408
20
-3.82882
11
6.24914
21
-3.82885
0
LINE
8
BLACK
6
CONTINUOUS
10
6.0665
20
-3.829
11
6.0015
21
-3.829
0
LINE
8
BLACK
6
CONTINUOUS
10
6.0015
20
-3.829
11
6.0015
21
-3.764
0
LINE
8
BLACK
6
CONTINUOUS
10
6.0015
20
-3.764
11
6.0665
21
-3.764
0
LINE
8
BLACK
6
CONTINUOUS
10
6.0665
20
-3.764
11
6.0665
21
-3.829
0
LINE
8
BLACK
6
CONTINUOUS
10
5.9665
20
-3.829
11
5.9015
21
-3.829
0
LINE
8
BLACK
6
CONTINUOUS
10
5.9015
20
-3.829
11
5.9015
21
-3.764
0
LINE
8
BLACK
6
CONTINUOUS
10
5.9015
20
-3.764
11
5.9665
21
-3.764
0
LINE
8
BLACK
6
CONTINUOUS
10
5.9665
20
-3.764
11
5.9665
21
-3.829
0
LINE
8
BLACK
6
CONTINUOUS
10
5.8665
20
-3.829
11
5.8015
21
-3.829
0
LINE
8
BLACK
6
CONTINUOUS
10
5.8015
20
-3.829
11
5.8015
21
-3.764
0
LINE
8
BLACK
6
CONTINUOUS
10
5.8015
20
-3.764
11
5.8665
21
-3.764
0
LINE
8
BLACK
6
CONTINUOUS
10
5.8665
20
-3.764
11
5.8665
21
-3.829
0
LINE
8
BLACK
6
CONTINUOUS
10
5.77414
20
-3.77885
11
5.77898
21
-3.7803
0
LINE
8
BLACK
6
CONTINUOUS
10
5.77898
20
-3.7803
11
5.78323
21
-3.78305
0
LINE
8
BLACK
6
CONTINUOUS
10
5.78323
20
-3.78305
11
5.78653
21
-3.78689
0
LINE
8
BLACK
6
CONTINUOUS
10
5.78653
20
-3.78689
11
5.78863
21
-3.79149
0
LINE
8
BLACK
6
CONTINUOUS
10
5.78863
20
-3.79149
11
5.78934
21
-3.7965
0
LINE
8
BLACK
6
CONTINUOUS
10
5.78934
20
-3.7965
11
5.78934
21
-3.79694
0
LINE
8
BLACK
6
CONTINUOUS
10
5.78934
20
-3.79694
11
5.7885
21
-3.80192
0
LINE
8
BLACK
6
CONTINUOUS
10
5.7885
20
-3.80192
11
5.78629
21
-3.80648
0
LINE
8
BLACK
6
CONTINUOUS
10
5.78629
20
-3.80648
11
5.7829
21
-3.81023
0
LINE
8
BLACK
6
CONTINUOUS
10
5.7829
20
-3.81023
11
5.77859
21
-3.81288
0
LINE
8
BLACK
6
CONTINUOUS
10
5.77859
20
-3.81288
11
5.77371
21
-3.81421
0
LINE
8
BLACK
6
CONTINUOUS
10
5.77371
20
-3.81421
11
5.76865
21
-3.81411
0
LINE
8
BLACK
6
CONTINUOUS
10
5.76865
20
-3.81411
11
5.76382
21
-3.8126
0
LINE
8
BLACK
6
CONTINUOUS
10
5.76382
20
-3.8126
11
5.75961
21
-3.8098
0
LINE
8
BLACK
6
CONTINUOUS
10
5.75961
20
-3.8098
11
5.75635
21
-3.80593
0
LINE
8
BLACK
6
CONTINUOUS
10
5.75635
20
-3.80593
11
5.75431
21
-3.8013
0
LINE
8
BLACK
6
CONTINUOUS
10
5.75431
20
-3.8013
11
5.75366
21
-3.79628
0
LINE
8
BLACK
6
CONTINUOUS
10
5.75366
20
-3.79628
11
5.75444
21
-3.79128
0
LINE
8
BLACK
6
CONTINUOUS
10
5.75444
20
-3.79128
11
5.75659
21
-3.7867
0
LINE
8
BLACK
6
CONTINUOUS
10
5.75659
20
-3.7867
11
5.75994
21
-3.78291
0
LINE
8
BLACK
6
CONTINUOUS
10
5.75994
20
-3.78291
11
5.76421
21
-3.78021
0
LINE
8
BLACK
6
CONTINUOUS
10
5.76421
20
-3.78021
11
5.76908
21
-3.77882
0
LINE
8
BLACK
6
CONTINUOUS
10
5.76908
20
-3.77882
11
5.77414
21
-3.77885
0
LINE
8
BLACK
6
CONTINUOUS
10
5.429
20
-3.804
11
5.364
21
-3.804
0
LINE
8
BLACK
6
CONTINUOUS
10
5.364
20
-3.804
11
5.364
21
-3.739
0
LINE
8
BLACK
6
CONTINUOUS
10
5.364
20
-3.739
11
5.429
21
-3.739
0
LINE
8
BLACK
6
CONTINUOUS
10
5.429
20
-3.739
11
5.429
21
-3.804
0
LINE
8
BLACK
6
CONTINUOUS
10
6.24914
20
-3.76635
11
6.25398
21
-3.7678
0
LINE
8
BLACK
6
CONTINUOUS
10
6.25398
20
-3.7678
11
6.25823
21
-3.77055
0
LINE
8
BLACK
6
CONTINUOUS
10
6.25823
20
-3.77055
11
6.26153
21
-3.77439
0
LINE
8
BLACK
6
CONTINUOUS
10
6.26153
20
-3.77439
11
6.26363
21
-3.77899
0
LINE
8
BLACK
6
CONTINUOUS
10
6.26363
20
-3.77899
11
6.26434
21
-3.784
0
LINE
8
BLACK
6
CONTINUOUS
10
6.26434
20
-3.784
11
6.26434
21
-3.78444
0
LINE
8
BLACK
6
CONTINUOUS
10
6.26434
20
-3.78444
11
6.2635
21
-3.78942
0
LINE
8
BLACK
6
CONTINUOUS
10
6.2635
20
-3.78942
11
6.26129
21
-3.79398
0
LINE
8
BLACK
6
CONTINUOUS
10
6.26129
20
-3.79398
11
6.2579
21
-3.79773
0
LINE
8
BLACK
6
CONTINUOUS
10
6.2579
20
-3.79773
11
6.25359
21
-3.80038
0
LINE
8
BLACK
6
CONTINUOUS
10
6.25359
20
-3.80038
11
6.24871
21
-3.80171
0
LINE
8
BLACK
6
CONTINUOUS
10
6.24871
20
-3.80171
11
6.24365
21
-3.80161
0
LINE
8
BLACK
6
CONTINUOUS
10
6.24365
20
-3.80161
11
6.23882
21
-3.8001
0
LINE
8
BLACK
6
CONTINUOUS
10
6.23882
20
-3.8001
11
6.23461
21
-3.7973
0
LINE
8
BLACK
6
CONTINUOUS
10
6.23461
20
-3.7973
11
6.23135
21
-3.79343
0
LINE
8
BLACK
6
CONTINUOUS
10
6.23135
20
-3.79343
11
6.22931
21
-3.7888
0
LINE
8
BLACK
6
CONTINUOUS
10
6.22931
20
-3.7888
11
6.22866
21
-3.78378
0
LINE
8
BLACK
6
CONTINUOUS
10
6.22866
20
-3.78378
11
6.22944
21
-3.77878
0
LINE
8
BLACK
6
CONTINUOUS
10
6.22944
20
-3.77878
11
6.23159
21
-3.7742
0
LINE
8
BLACK
6
CONTINUOUS
10
6.23159
20
-3.7742
11
6.23494
21
-3.77041
0
LINE
8
BLACK
6
CONTINUOUS
10
6.23494
20
-3.77041
11
6.23921
21
-3.76771
0
LINE
8
BLACK
6
CONTINUOUS
10
6.23921
20
-3.76771
11
6.24408
21
-3.76632
0
LINE
8
BLACK
6
CONTINUOUS
10
6.24408
20
-3.76632
11
6.24914
21
-3.76635
0
LINE
8
BLACK
6
CONTINUOUS
10
5.77414
20
-3.72885
11
5.77898
21
-3.7303
0
LINE
8
BLACK
6
CONTINUOUS
10
5.77898
20
-3.7303
11
5.78323
21
-3.73305
0
LINE
8
BLACK
6
CONTINUOUS
10
5.78323
20
-3.73305
11
5.78653
21
-3.73689
0
LINE
8
BLACK
6
CONTINUOUS
10
5.78653
20
-3.73689
11
5.78863
21
-3.74149
0
LINE
8
BLACK
6
CONTINUOUS
10
5.78863
20
-3.74149
11
5.78934
21
-3.7465
0
LINE
8
BLACK
6
CONTINUOUS
10
5.78934
20
-3.7465
11
5.78934
21
-3.74694
0
LINE
8
BLACK
6
CONTINUOUS
10
5.78934
20
-3.74694
11
5.7885
21
-3.75192
0
LINE
8
BLACK
6
CONTINUOUS
10
5.7885
20
-3.75192
11
5.78629
21
-3.75648
0
LINE
8
BLACK
6
CONTINUOUS
10
5.78629
20
-3.75648
11
5.7829
21
-3.76023
0
LINE
8
BLACK
6
CONTINUOUS
10
5.7829
20
-3.76023
11
5.77859
21
-3.76288
0
LINE
8
BLACK
6
CONTINUOUS
10
5.77859
20
-3.76288
11
5.77371
21
-3.76421
0
LINE
8
BLACK
6
CONTINUOUS
10
5.77371
20
-3.76421
11
5.76865
21
-3.76411
0
LINE
8
BLACK
6
CONTINUOUS
10
5.76865
20
-3.76411
11
5.76382
21
-3.7626
0
LINE
8
BLACK
6
CONTINUOUS
10
5.76382
20
-3.7626
11
5.75961
21
-3.7598
0
LINE
8
BLACK
6
CONTINUOUS
10
5.75961
20
-3.7598
11
5.75635
21
-3.75593
0
LINE
8
BLACK
6
CONTINUOUS
10
5.75635
20
-3.75593
11
5.75431
21
-3.7513
0
LINE
8
BLACK
6
CONTINUOUS
10
5.75431
20
-3.7513
11
5.75366
21
-3.74628
0
LINE
8
BLACK
6
CONTINUOUS
10
5.75366
20
-3.74628
11
5.75444
21
-3.74128
0
LINE
8
BLACK
6
CONTINUOUS
10
5.75444
20
-3.74128
11
5.75659
21
-3.7367
0
LINE
8
BLACK
6
CONTINUOUS
10
5.75659
20
-3.7367
11
5.75994
21
-3.73291
0
LINE
8
BLACK
6
CONTINUOUS
10
5.75994
20
-3.73291
11
5.76421
21
-3.73021
0
LINE
8
BLACK
6
CONTINUOUS
10
5.76421
20
-3.73021
11
5.76908
21
-3.72882
0
LINE
8
BLACK
6
CONTINUOUS
10
5.76908
20
-3.72882
11
5.77414
21
-3.72885
0
LINE
8
BLACK
6
CONTINUOUS
10
6.31164
20
-3.70385
11
6.31648
21
-3.7053
0
LINE
8
BLACK
6
CONTINUOUS
10
6.31648
20
-3.7053
11
6.32073
21
-3.70805
0
LINE
8
BLACK
6
CONTINUOUS
10
6.32073
20
-3.70805
11
6.32403
21
-3.71189
0
LINE
8
BLACK
6
CONTINUOUS
10
6.32403
20
-3.71189
11
6.32613
21
-3.71649
0
LINE
8
BLACK
6
CONTINUOUS
10
6.32613
20
-3.71649
11
6.32684
21
-3.7215
0
LINE
8
BLACK
6
CONTINUOUS
10
6.32684
20
-3.7215
11
6.32684
21
-3.72194
0
LINE
8
BLACK
6
CONTINUOUS
10
6.32684
20
-3.72194
11
6.326
21
-3.72692
0
LINE
8
BLACK
6
CONTINUOUS
10
6.326
20
-3.72692
11
6.32379
21
-3.73148
0
LINE
8
BLACK
6
CONTINUOUS
10
6.32379
20
-3.73148
11
6.3204
21
-3.73523
0
LINE
8
BLACK
6
CONTINUOUS
10
6.3204
20
-3.73523
11
6.31609
21
-3.73788
0
LINE
8
BLACK
6
CONTINUOUS
10
6.31609
20
-3.73788
11
6.31121
21
-3.73921
0
LINE
8
BLACK
6
CONTINUOUS
10
6.31121
20
-3.73921
11
6.30615
21
-3.73911
0
LINE
8
BLACK
6
CONTINUOUS
10
6.30615
20
-3.73911
11
6.30132
21
-3.7376
0
LINE
8
BLACK
6
CONTINUOUS
10
6.30132
20
-3.7376
11
6.29711
21
-3.7348
0
LINE
8
BLACK
6
CONTINUOUS
10
6.29711
20
-3.7348
11
6.29385
21
-3.73093
0
LINE
8
BLACK
6
CONTINUOUS
10
6.29385
20
-3.73093
11
6.29181
21
-3.7263
0
LINE
8
BLACK
6
CONTINUOUS
10
6.29181
20
-3.7263
11
6.29116
21
-3.72128
0
LINE
8
BLACK
6
CONTINUOUS
10
6.29116
20
-3.72128
11
6.29194
21
-3.71628
0
LINE
8
BLACK
6
CONTINUOUS
10
6.29194
20
-3.71628
11
6.29409
21
-3.7117
0
LINE
8
BLACK
6
CONTINUOUS
10
6.29409
20
-3.7117
11
6.29744
21
-3.70791
0
LINE
8
BLACK
6
CONTINUOUS
10
6.29744
20
-3.70791
11
6.30171
21
-3.70521
0
LINE
8
BLACK
6
CONTINUOUS
10
6.30171
20
-3.70521
11
6.30658
21
-3.70382
0
LINE
8
BLACK
6
CONTINUOUS
10
6.30658
20
-3.70382
11
6.31164
21
-3.70385
0
LINE
8
BLACK
6
CONTINUOUS
10
6.26164
20
-3.70385
11
6.26648
21
-3.7053
0
LINE
8
BLACK
6
CONTINUOUS
10
6.26648
20
-3.7053
11
6.27073
21
-3.70805
0
LINE
8
BLACK
6
CONTINUOUS
10
6.27073
20
-3.70805
11
6.27403
21
-3.71189
0
LINE
8
BLACK
6
CONTINUOUS
10
6.27403
20
-3.71189
11
6.27613
21
-3.71649
0
LINE
8
BLACK
6
CONTINUOUS
10
6.27613
20
-3.71649
11
6.27684
21
-3.7215
0
LINE
8
BLACK
6
CONTINUOUS
10
6.27684
20
-3.7215
11
6.27684
21
-3.72194
0
LINE
8
BLACK
6
CONTINUOUS
10
6.27684
20
-3.72194
11
6.276
21
-3.72692
0
LINE
8
BLACK
6
CONTINUOUS
10
6.276
20
-3.72692
11
6.27379
21
-3.73148
0
LINE
8
BLACK
6
CONTINUOUS
10
6.27379
20
-3.73148
11
6.2704
21
-3.73523
0
LINE
8
BLACK
6
CONTINUOUS
10
6.2704
20
-3.73523
11
6.26609
21
-3.73788
0
LINE
8
BLACK
6
CONTINUOUS
10
6.26609
20
-3.73788
11
6.26121
21
-3.73921
0
LINE
8
BLACK
6
CONTINUOUS
10
6.26121
20
-3.73921
11
6.25615
21
-3.73911
0
LINE
8
BLACK
6
CONTINUOUS
10
6.25615
20
-3.73911
11
6.25132
21
-3.7376
0
LINE
8
BLACK
6
CONTINUOUS
10
6.25132
20
-3.7376
11
6.24711
21
-3.7348
0
LINE
8
BLACK
6
CONTINUOUS
10
6.24711
20
-3.7348
11
6.24385
21
-3.73093
0
LINE
8
BLACK
6
CONTINUOUS
10
6.24385
20
-3.73093
11
6.24181
21
-3.7263
0
LINE
8
BLACK
6
CONTINUOUS
10
6.24181
20
-3.7263
11
6.24116
21
-3.72128
0
LINE
8
BLACK
6
CONTINUOUS
10
6.24116
20
-3.72128
11
6.24194
21
-3.71628
0
LINE
8
BLACK
6
CONTINUOUS
10
6.24194
20
-3.71628
11
6.24409
21
-3.7117
0
LINE
8
BLACK
6
CONTINUOUS
10
6.24409
20
-3.7117
11
6.24744
21
-3.70791
0
LINE
8
BLACK
6
CONTINUOUS
10
6.24744
20
-3.70791
11
6.25171
21
-3.70521
0
LINE
8
BLACK
6
CONTINUOUS
10
6.25171
20
-3.70521
11
6.25658
21
-3.70382
0
LINE
8
BLACK
6
CONTINUOUS
10
6.25658
20
-3.70382
11
6.26164
21
-3.70385
0
LINE
8
BLACK
6
CONTINUOUS
10
6.0665
20
-3.729
11
6.0015
21
-3.729
0
LINE
8
BLACK
6
CONTINUOUS
10
6.0015
20
-3.729
11
6.0015
21
-3.664
0
LINE
8
BLACK
6
CONTINUOUS
10
6.0015
20
-3.664
11
6.0665
21
-3.664
0
LINE
8
BLACK
6
CONTINUOUS
10
6.0665
20
-3.664
11
6.0665
21
-3.729
0
LINE
8
BLACK
6
CONTINUOUS
10
5.9665
20
-3.729
11
5.9015
21
-3.729
0
LINE
8
BLACK
6
CONTINUOUS
10
5.9015
20
-3.729
11
5.9015
21
-3.664
0
LINE
8
BLACK
6
CONTINUOUS
10
5.9015
20
-3.664
11
5.9665
21
-3.664
0
LINE
8
BLACK
6
CONTINUOUS
10
5.9665
20
-3.664
11
5.9665
21
-3.729
0
LINE
8
BLACK
6
CONTINUOUS
10
5.8665
20
-3.729
11
5.8015
21
-3.729
0
LINE
8
BLACK
6
CONTINUOUS
10
5.8015
20
-3.729
11
5.8015
21
-3.664
0
LINE
8
BLACK
6
CONTINUOUS
10
5.8015
20
-3.664
11
5.8665
21
-3.664
0
LINE
8
BLACK
6
CONTINUOUS
10
5.8665
20
-3.664
11
5.8665
21
-3.729
0
LINE
8
BLACK
6
CONTINUOUS
10
5.59914
20
-3.67885
11
5.60398
21
-3.6803
0
LINE
8
BLACK
6
CONTINUOUS
10
5.60398
20
-3.6803
11
5.60823
21
-3.68305
0
LINE
8
BLACK
6
CONTINUOUS
10
5.60823
20
-3.68305
11
5.61153
21
-3.68689
0
LINE
8
BLACK
6
CONTINUOUS
10
5.61153
20
-3.68689
11
5.61363
21
-3.69149
0
LINE
8
BLACK
6
CONTINUOUS
10
5.61363
20
-3.69149
11
5.61434
21
-3.6965
0
LINE
8
BLACK
6
CONTINUOUS
10
5.61434
20
-3.6965
11
5.61434
21
-3.69694
0
LINE
8
BLACK
6
CONTINUOUS
10
5.61434
20
-3.69694
11
5.6135
21
-3.70192
0
LINE
8
BLACK
6
CONTINUOUS
10
5.6135
20
-3.70192
11
5.61129
21
-3.70648
0
LINE
8
BLACK
6
CONTINUOUS
10
5.61129
20
-3.70648
11
5.6079
21
-3.71023
0
LINE
8
BLACK
6
CONTINUOUS
10
5.6079
20
-3.71023
11
5.60359
21
-3.71288
0
LINE
8
BLACK
6
CONTINUOUS
10
5.60359
20
-3.71288
11
5.59871
21
-3.71421
0
LINE
8
BLACK
6
CONTINUOUS
10
5.59871
20
-3.71421
11
5.59365
21
-3.71411
0
LINE
8
BLACK
6
CONTINUOUS
10
5.59365
20
-3.71411
11
5.58882
21
-3.7126
0
LINE
8
BLACK
6
CONTINUOUS
10
5.58882
20
-3.7126
11
5.58461
21
-3.7098
0
LINE
8
BLACK
6
CONTINUOUS
10
5.58461
20
-3.7098
11
5.58135
21
-3.70593
0
LINE
8
BLACK
6
CONTINUOUS
10
5.58135
20
-3.70593
11
5.57931
21
-3.7013
0
LINE
8
BLACK
6
CONTINUOUS
10
5.57931
20
-3.7013
11
5.57866
21
-3.69628
0
LINE
8
BLACK
6
CONTINUOUS
10
5.57866
20
-3.69628
11
5.57944
21
-3.69128
0
LINE
8
BLACK
6
CONTINUOUS
10
5.57944
20
-3.69128
11
5.58159
21
-3.6867
0
LINE
8
BLACK
6
CONTINUOUS
10
5.58159
20
-3.6867
11
5.58494
21
-3.68291
0
LINE
8
BLACK
6
CONTINUOUS
10
5.58494
20
-3.68291
11
5.58921
21
-3.68021
0
LINE
8
BLACK
6
CONTINUOUS
10
5.58921
20
-3.68021
11
5.59408
21
-3.67882
0
LINE
8
BLACK
6
CONTINUOUS
10
5.59408
20
-3.67882
11
5.59914
21
-3.67885
0
LINE
8
BLACK
6
CONTINUOUS
10
5.77414
20
-3.67885
11
5.77898
21
-3.6803
0
LINE
8
BLACK
6
CONTINUOUS
10
5.77898
20
-3.6803
11
5.78323
21
-3.68305
0
LINE
8
BLACK
6
CONTINUOUS
10
5.78323
20
-3.68305
11
5.78653
21
-3.68689
0
LINE
8
BLACK
6
CONTINUOUS
10
5.78653
20
-3.68689
11
5.78863
21
-3.69149
0
LINE
8
BLACK
6
CONTINUOUS
10
5.78863
20
-3.69149
11
5.78934
21
-3.6965
0
LINE
8
BLACK
6
CONTINUOUS
10
5.78934
20
-3.6965
11
5.78934
21
-3.69694
0
LINE
8
BLACK
6
CONTINUOUS
10
5.78934
20
-3.69694
11
5.7885
21
-3.70192
0
LINE
8
BLACK
6
CONTINUOUS
10
5.7885
20
-3.70192
11
5.78629
21
-3.70648
0
LINE
8
BLACK
6
CONTINUOUS
10
5.78629
20
-3.70648
11
5.7829
21
-3.71023
0
LINE
8
BLACK
6
CONTINUOUS
10
5.7829
20
-3.71023
11
5.77859
21
-3.71288
0
LINE
8
BLACK
6
CONTINUOUS
10
5.77859
20
-3.71288
11
5.77371
21
-3.71421
0
LINE
8
BLACK
6
CONTINUOUS
10
5.77371
20
-3.71421
11
5.76865
21
-3.71411
0
LINE
8
BLACK
6
CONTINUOUS
10
5.76865
20
-3.71411
11
5.76382
21
-3.7126
0
LINE
8
BLACK
6
CONTINUOUS
10
5.76382
20
-3.7126
11
5.75961
21
-3.7098
0
LINE
8
BLACK
6
CONTINUOUS
10
5.75961
20
-3.7098
11
5.75635
21
-3.70593
0
LINE
8
BLACK
6
CONTINUOUS
10
5.75635
20
-3.70593
11
5.75431
21
-3.7013
0
LINE
8
BLACK
6
CONTINUOUS
10
5.75431
20
-3.7013
11
5.75366
21
-3.69628
0
LINE
8
BLACK
6
CONTINUOUS
10
5.75366
20
-3.69628
11
5.75444
21
-3.69128
0
LINE
8
BLACK
6
CONTINUOUS
10
5.75444
20
-3.69128
11
5.75659
21
-3.6867
0
LINE
8
BLACK
6
CONTINUOUS
10
5.75659
20
-3.6867
11
5.75994
21
-3.68291
0
LINE
8
BLACK
6
CONTINUOUS
10
5.75994
20
-3.68291
11
5.76421
21
-3.68021
0
LINE
8
BLACK
6
CONTINUOUS
10
5.76421
20
-3.68021
11
5.76908
21
-3.67882
0
LINE
8
BLACK
6
CONTINUOUS
10
5.76908
20
-3.67882
11
5.77414
21
-3.67885
0
LINE
8
BLACK
6
CONTINUOUS
10
6.09914
20
-3.64135
11
6.10398
21
-3.6428
0
LINE
8
BLACK
6
CONTINUOUS
10
6.10398
20
-3.6428
11
6.10823
21
-3.64555
0
LINE
8
BLACK
6
CONTINUOUS
10
6.10823
20
-3.64555
11
6.11153
21
-3.64939
0
LINE
8
BLACK
6
CONTINUOUS
10
6.11153
20
-3.64939
11
6.11363
21
-3.65399
0
LINE
8
BLACK
6
CONTINUOUS
10
6.11363
20
-3.65399
11
6.11434
21
-3.659
0
LINE
8
BLACK
6
CONTINUOUS
10
6.11434
20
-3.659
11
6.11434
21
-3.65944
0
LINE
8
BLACK
6
CONTINUOUS
10
6.11434
20
-3.65944
11
6.1135
21
-3.66442
0
LINE
8
BLACK
6
CONTINUOUS
10
6.1135
20
-3.66442
11
6.11129
21
-3.66898
0
LINE
8
BLACK
6
CONTINUOUS
10
6.11129
20
-3.66898
11
6.1079
21
-3.67273
0
LINE
8
BLACK
6
CONTINUOUS
10
6.1079
20
-3.67273
11
6.10359
21
-3.67538
0
LINE
8
BLACK
6
CONTINUOUS
10
6.10359
20
-3.67538
11
6.09871
21
-3.67671
0
LINE
8
BLACK
6
CONTINUOUS
10
6.09871
20
-3.67671
11
6.09365
21
-3.67661
0
LINE
8
BLACK
6
CONTINUOUS
10
6.09365
20
-3.67661
11
6.08882
21
-3.6751
0
LINE
8
BLACK
6
CONTINUOUS
10
6.08882
20
-3.6751
11
6.08461
21
-3.6723
0
LINE
8
BLACK
6
CONTINUOUS
10
6.08461
20
-3.6723
11
6.08135
21
-3.66843
0
LINE
8
BLACK
6
CONTINUOUS
10
6.08135
20
-3.66843
11
6.07931
21
-3.6638
0
LINE
8
BLACK
6
CONTINUOUS
10
6.07931
20
-3.6638
11
6.07866
21
-3.65878
0
LINE
8
BLACK
6
CONTINUOUS
10
6.07866
20
-3.65878
11
6.07944
21
-3.65378
0
LINE
8
BLACK
6
CONTINUOUS
10
6.07944
20
-3.65378
11
6.08159
21
-3.6492
0
LINE
8
BLACK
6
CONTINUOUS
10
6.08159
20
-3.6492
11
6.08494
21
-3.64541
0
LINE
8
BLACK
6
CONTINUOUS
10
6.08494
20
-3.64541
11
6.08921
21
-3.64271
0
LINE
8
BLACK
6
CONTINUOUS
10
6.08921
20
-3.64271
11
6.09408
21
-3.64132
0
LINE
8
BLACK
6
CONTINUOUS
10
6.09408
20
-3.64132
11
6.09914
21
-3.64135
0
LINE
8
BLACK
6
CONTINUOUS
10
5.59914
20
-3.62885
11
5.60398
21
-3.6303
0
LINE
8
BLACK
6
CONTINUOUS
10
5.60398
20
-3.6303
11
5.60823
21
-3.63305
0
LINE
8
BLACK
6
CONTINUOUS
10
5.60823
20
-3.63305
11
5.61153
21
-3.63689
0
LINE
8
BLACK
6
CONTINUOUS
10
5.61153
20
-3.63689
11
5.61363
21
-3.64149
0
LINE
8
BLACK
6
CONTINUOUS
10
5.61363
20
-3.64149
11
5.61434
21
-3.6465
0
LINE
8
BLACK
6
CONTINUOUS
10
5.61434
20
-3.6465
11
5.61434
21
-3.64694
0
LINE
8
BLACK
6
CONTINUOUS
10
5.61434
20
-3.64694
11
5.6135
21
-3.65192
0
LINE
8
BLACK
6
CONTINUOUS
10
5.6135
20
-3.65192
11
5.61129
21
-3.65648
0
LINE
8
BLACK
6
CONTINUOUS
10
5.61129
20
-3.65648
11
5.6079
21
-3.66023
0
LINE
8
BLACK
6
CONTINUOUS
10
5.6079
20
-3.66023
11
5.60359
21
-3.66288
0
LINE
8
BLACK
6
CONTINUOUS
10
5.60359
20
-3.66288
11
5.59871
21
-3.66421
0
LINE
8
BLACK
6
CONTINUOUS
10
5.59871
20
-3.66421
11
5.59365
21
-3.66411
0
LINE
8
BLACK
6
CONTINUOUS
10
5.59365
20
-3.66411
11
5.58882
21
-3.6626
0
LINE
8
BLACK
6
CONTINUOUS
10
5.58882
20
-3.6626
11
5.58461
21
-3.6598
0
LINE
8
BLACK
6
CONTINUOUS
10
5.58461
20
-3.6598
11
5.58135
21
-3.65593
0
LINE
8
BLACK
6
CONTINUOUS
10
5.58135
20
-3.65593
11
5.57931
21
-3.6513
0
LINE
8
BLACK
6
CONTINUOUS
10
5.57931
20
-3.6513
11
5.57866
21
-3.64628
0
LINE
8
BLACK
6
CONTINUOUS
10
5.57866
20
-3.64628
11
5.57944
21
-3.64128
0
LINE
8
BLACK
6
CONTINUOUS
10
5.57944
20
-3.64128
11
5.58159
21
-3.6367
0
LINE
8
BLACK
6
CONTINUOUS
10
5.58159
20
-3.6367
11
5.58494
21
-3.63291
0
LINE
8
BLACK
6
CONTINUOUS
10
5.58494
20
-3.63291
11
5.58921
21
-3.63021
0
LINE
8
BLACK
6
CONTINUOUS
10
5.58921
20
-3.63021
11
5.59408
21
-3.62882
0
LINE
8
BLACK
6
CONTINUOUS
10
5.59408
20
-3.62882
11
5.59914
21
-3.62885
0
LINE
8
BLACK
6
CONTINUOUS
10
5.77414
20
-3.62885
11
5.77898
21
-3.6303
0
LINE
8
BLACK
6
CONTINUOUS
10
5.77898
20
-3.6303
11
5.78323
21
-3.63305
0
LINE
8
BLACK
6
CONTINUOUS
10
5.78323
20
-3.63305
11
5.78653
21
-3.63689
0
LINE
8
BLACK
6
CONTINUOUS
10
5.78653
20
-3.63689
11
5.78863
21
-3.64149
0
LINE
8
BLACK
6
CONTINUOUS
10
5.78863
20
-3.64149
11
5.78934
21
-3.6465
0
LINE
8
BLACK
6
CONTINUOUS
10
5.78934
20
-3.6465
11
5.78934
21
-3.64694
0
LINE
8
BLACK
6
CONTINUOUS
10
5.78934
20
-3.64694
11
5.7885
21
-3.65192
0
LINE
8
BLACK
6
CONTINUOUS
10
5.7885
20
-3.65192
11
5.78629
21
-3.65648
0
LINE
8
BLACK
6
CONTINUOUS
10
5.78629
20
-3.65648
11
5.7829
21
-3.66023
0
LINE
8
BLACK
6
CONTINUOUS
10
5.7829
20
-3.66023
11
5.77859
21
-3.66288
0
LINE
8
BLACK
6
CONTINUOUS
10
5.77859
20
-3.66288
11
5.77371
21
-3.66421
0
LINE
8
BLACK
6
CONTINUOUS
10
5.77371
20
-3.66421
11
5.76865
21
-3.66411
0
LINE
8
BLACK
6
CONTINUOUS
10
5.76865
20
-3.66411
11
5.76382
21
-3.6626
0
LINE
8
BLACK
6
CONTINUOUS
10
5.76382
20
-3.6626
11
5.75961
21
-3.6598
0
LINE
8
BLACK
6
CONTINUOUS
10
5.75961
20
-3.6598
11
5.75635
21
-3.65593
0
LINE
8
BLACK
6
CONTINUOUS
10
5.75635
20
-3.65593
11
5.75431
21
-3.6513
0
LINE
8
BLACK
6
CONTINUOUS
10
5.75431
20
-3.6513
11
5.75366
21
-3.64628
0
LINE
8
BLACK
6
CONTINUOUS
10
5.75366
20
-3.64628
11
5.75444
21
-3.64128
0
LINE
8
BLACK
6
CONTINUOUS
10
5.75444
20
-3.64128
11
5.75659
21
-3.6367
0
LINE
8
BLACK
6
CONTINUOUS
10
5.75659
20
-3.6367
11
5.75994
21
-3.63291
0
LINE
8
BLACK
6
CONTINUOUS
10
5.75994
20
-3.63291
11
5.76421
21
-3.63021
0
LINE
8
BLACK
6
CONTINUOUS
10
5.76421
20
-3.63021
11
5.76908
21
-3.62882
0
LINE
8
BLACK
6
CONTINUOUS
10
5.76908
20
-3.62882
11
5.77414
21
-3.62885
0
LINE
8
BLACK
6
CONTINUOUS
10
6.26154
20
-3.40789
11
6.2755
21
-3.41036
0
LINE
8
BLACK
6
CONTINUOUS
10
6.2755
20
-3.41036
11
6.2891
21
-3.41436
0
LINE
8
BLACK
6
CONTINUOUS
10
6.2891
20
-3.41436
11
6.30217
21
-3.41985
0
LINE
8
BLACK
6
CONTINUOUS
10
6.30217
20
-3.41985
11
6.31455
21
-3.42677
0
LINE
8
BLACK
6
CONTINUOUS
10
6.31455
20
-3.42677
11
6.32608
21
-3.43502
0
LINE
8
BLACK
6
CONTINUOUS
10
6.32608
20
-3.43502
11
6.33662
21
-3.44451
0
LINE
8
BLACK
6
CONTINUOUS
10
6.33662
20
-3.44451
11
6.34603
21
-3.45511
0
LINE
8
BLACK
6
CONTINUOUS
10
6.34603
20
-3.45511
11
6.3542
21
-3.4667
0
LINE
8
BLACK
6
CONTINUOUS
10
6.3542
20
-3.4667
11
6.36103
21
-3.47913
0
LINE
8
BLACK
6
CONTINUOUS
10
6.36103
20
-3.47913
11
6.36644
21
-3.49223
0
LINE
8
BLACK
6
CONTINUOUS
10
6.36644
20
-3.49223
11
6.37034
21
-3.50586
0
LINE
8
BLACK
6
CONTINUOUS
10
6.37034
20
-3.50586
11
6.37271
21
-3.51984
0
LINE
8
BLACK
6
CONTINUOUS
10
6.37271
20
-3.51984
11
6.3735
21
-3.534
0
LINE
8
BLACK
6
CONTINUOUS
10
6.3735
20
-3.534
11
6.37345
21
-3.53755
0
LINE
8
BLACK
6
CONTINUOUS
10
6.37345
20
-3.53755
11
6.37226
21
-3.55167
0
LINE
8
BLACK
6
CONTINUOUS
10
6.37226
20
-3.55167
11
6.36951
21
-3.56558
0
LINE
8
BLACK
6
CONTINUOUS
10
6.36951
20
-3.56558
11
6.36522
21
-3.5791
0
LINE
8
BLACK
6
CONTINUOUS
10
6.36522
20
-3.5791
11
6.35946
21
-3.59205
0
LINE
8
BLACK
6
CONTINUOUS
10
6.35946
20
-3.59205
11
6.35228
21
-3.60428
0
LINE
8
BLACK
6
CONTINUOUS
10
6.35228
20
-3.60428
11
6.34379
21
-3.61563
0
LINE
8
BLACK
6
CONTINUOUS
10
6.34379
20
-3.61563
11
6.33408
21
-3.62597
0
LINE
8
BLACK
6
CONTINUOUS
10
6.33408
20
-3.62597
11
6.32328
21
-3.63516
0
LINE
8
BLACK
6
CONTINUOUS
10
6.32328
20
-3.63516
11
6.31153
21
-3.64309
0
LINE
8
BLACK
6
CONTINUOUS
10
6.31153
20
-3.64309
11
6.29896
21
-3.64966
0
LINE
8
BLACK
6
CONTINUOUS
10
6.29896
20
-3.64966
11
6.28575
21
-3.65478
0
LINE
8
BLACK
6
CONTINUOUS
10
6.28575
20
-3.65478
11
6.27204
21
-3.65841
0
LINE
8
BLACK
6
CONTINUOUS
10
6.27204
20
-3.65841
11
6.25801
21
-3.66048
0
LINE
8
BLACK
6
CONTINUOUS
10
6.25801
20
-3.66048
11
6.24384
21
-3.66097
0
LINE
8
BLACK
6
CONTINUOUS
10
6.24384
20
-3.66097
11
6.2297
21
-3.65988
0
LINE
8
BLACK
6
CONTINUOUS
10
6.2297
20
-3.65988
11
6.21578
21
-3.65723
0
LINE
8
BLACK
6
CONTINUOUS
10
6.21578
20
-3.65723
11
6.20223
21
-3.65303
0
LINE
8
BLACK
6
CONTINUOUS
10
6.20223
20
-3.65303
11
6.18924
21
-3.64736
0
LINE
8
BLACK
6
CONTINUOUS
10
6.18924
20
-3.64736
11
6.17696
21
-3.64027
0
LINE
8
BLACK
6
CONTINUOUS
10
6.17696
20
-3.64027
11
6.16555
21
-3.63186
0
LINE
8
BLACK
6
CONTINUOUS
10
6.16555
20
-3.63186
11
6.15514
21
-3.62222
0
LINE
8
BLACK
6
CONTINUOUS
10
6.15514
20
-3.62222
11
6.14588
21
-3.61149
0
LINE
8
BLACK
6
CONTINUOUS
10
6.14588
20
-3.61149
11
6.13787
21
-3.59979
0
LINE
8
BLACK
6
CONTINUOUS
10
6.13787
20
-3.59979
11
6.13121
21
-3.58727
0
LINE
8
BLACK
6
CONTINUOUS
10
6.13121
20
-3.58727
11
6.12599
21
-3.57409
0
LINE
8
BLACK
6
CONTINUOUS
10
6.12599
20
-3.57409
11
6.12228
21
-3.5604
0
LINE
8
BLACK
6
CONTINUOUS
10
6.12228
20
-3.5604
11
6.12011
21
-3.54639
0
LINE
8
BLACK
6
CONTINUOUS
10
6.12011
20
-3.54639
11
6.11951
21
-3.53223
0
LINE
8
BLACK
6
CONTINUOUS
10
6.11951
20
-3.53223
11
6.1205
21
-3.51808
0
LINE
8
BLACK
6
CONTINUOUS
10
6.1205
20
-3.51808
11
6.12306
21
-3.50414
0
LINE
8
BLACK
6
CONTINUOUS
10
6.12306
20
-3.50414
11
6.12716
21
-3.49056
0
LINE
8
BLACK
6
CONTINUOUS
10
6.12716
20
-3.49056
11
6.13274
21
-3.47753
0
LINE
8
BLACK
6
CONTINUOUS
10
6.13274
20
-3.47753
11
6.13975
21
-3.4652
0
LINE
8
BLACK
6
CONTINUOUS
10
6.13975
20
-3.4652
11
6.14808
21
-3.45373
0
LINE
8
BLACK
6
CONTINUOUS
10
6.14808
20
-3.45373
11
6.15764
21
-3.44326
0
LINE
8
BLACK
6
CONTINUOUS
10
6.15764
20
-3.44326
11
6.16831
21
-3.43392
0
LINE
8
BLACK
6
CONTINUOUS
10
6.16831
20
-3.43392
11
6.17995
21
-3.42583
0
LINE
8
BLACK
6
CONTINUOUS
10
6.17995
20
-3.42583
11
6.19243
21
-3.41909
0
LINE
8
BLACK
6
CONTINUOUS
10
6.19243
20
-3.41909
11
6.20557
21
-3.41378
0
LINE
8
BLACK
6
CONTINUOUS
10
6.20557
20
-3.41378
11
6.21923
21
-3.40996
0
LINE
8
BLACK
6
CONTINUOUS
10
6.21923
20
-3.40996
11
6.23322
21
-3.4077
0
LINE
8
BLACK
6
CONTINUOUS
10
6.23322
20
-3.4077
11
6.24739
21
-3.407
0
LINE
8
BLACK
6
CONTINUOUS
10
6.24739
20
-3.407
11
6.26154
21
-3.40789
0
LINE
8
BLACK
6
CONTINUOUS
10
5.46154
20
-3.40789
11
5.4755
21
-3.41036
0
LINE
8
BLACK
6
CONTINUOUS
10
5.4755
20
-3.41036
11
5.4891
21
-3.41436
0
LINE
8
BLACK
6
CONTINUOUS
10
5.4891
20
-3.41436
11
5.50217
21
-3.41985
0
LINE
8
BLACK
6
CONTINUOUS
10
5.50217
20
-3.41985
11
5.51455
21
-3.42677
0
LINE
8
BLACK
6
CONTINUOUS
10
5.51455
20
-3.42677
11
5.52608
21
-3.43502
0
LINE
8
BLACK
6
CONTINUOUS
10
5.52608
20
-3.43502
11
5.53662
21
-3.44451
0
LINE
8
BLACK
6
CONTINUOUS
10
5.53662
20
-3.44451
11
5.54603
21
-3.45511
0
LINE
8
BLACK
6
CONTINUOUS
10
5.54603
20
-3.45511
11
5.5542
21
-3.4667
0
LINE
8
BLACK
6
CONTINUOUS
10
5.5542
20
-3.4667
11
5.56103
21
-3.47913
0
LINE
8
BLACK
6
CONTINUOUS
10
5.56103
20
-3.47913
11
5.56644
21
-3.49223
0
LINE
8
BLACK
6
CONTINUOUS
10
5.56644
20
-3.49223
11
5.57034
21
-3.50586
0
LINE
8
BLACK
6
CONTINUOUS
10
5.57034
20
-3.50586
11
5.57271
21
-3.51984
0
LINE
8
BLACK
6
CONTINUOUS
10
5.57271
20
-3.51984
11
5.5735
21
-3.534
0
LINE
8
BLACK
6
CONTINUOUS
10
5.5735
20
-3.534
11
5.57345
21
-3.53755
0
LINE
8
BLACK
6
CONTINUOUS
10
5.57345
20
-3.53755
11
5.57226
21
-3.55167
0
LINE
8
BLACK
6
CONTINUOUS
10
5.57226
20
-3.55167
11
5.56951
21
-3.56558
0
LINE
8
BLACK
6
CONTINUOUS
10
5.56951
20
-3.56558
11
5.56522
21
-3.5791
0
LINE
8
BLACK
6
CONTINUOUS
10
5.56522
20
-3.5791
11
5.55946
21
-3.59205
0
LINE
8
BLACK
6
CONTINUOUS
10
5.55946
20
-3.59205
11
5.55228
21
-3.60428
0
LINE
8
BLACK
6
CONTINUOUS
10
5.55228
20
-3.60428
11
5.54379
21
-3.61563
0
LINE
8
BLACK
6
CONTINUOUS
10
5.54379
20
-3.61563
11
5.53408
21
-3.62597
0
LINE
8
BLACK
6
CONTINUOUS
10
5.53408
20
-3.62597
11
5.52328
21
-3.63516
0
LINE
8
BLACK
6
CONTINUOUS
10
5.52328
20
-3.63516
11
5.51153
21
-3.64309
0
LINE
8
BLACK
6
CONTINUOUS
10
5.51153
20
-3.64309
11
5.49896
21
-3.64966
0
LINE
8
BLACK
6
CONTINUOUS
10
5.49896
20
-3.64966
11
5.48575
21
-3.65478
0
LINE
8
BLACK
6
CONTINUOUS
10
5.48575
20
-3.65478
11
5.47204
21
-3.65841
0
LINE
8
BLACK
6
CONTINUOUS
10
5.47204
20
-3.65841
11
5.45801
21
-3.66048
0
LINE
8
BLACK
6
CONTINUOUS
10
5.45801
20
-3.66048
11
5.44384
21
-3.66097
0
LINE
8
BLACK
6
CONTINUOUS
10
5.44384
20
-3.66097
11
5.4297
21
-3.65988
0
LINE
8
BLACK
6
CONTINUOUS
10
5.4297
20
-3.65988
11
5.41578
21
-3.65723
0
LINE
8
BLACK
6
CONTINUOUS
10
5.41578
20
-3.65723
11
5.40223
21
-3.65303
0
LINE
8
BLACK
6
CONTINUOUS
10
5.40223
20
-3.65303
11
5.38924
21
-3.64736
0
LINE
8
BLACK
6
CONTINUOUS
10
5.38924
20
-3.64736
11
5.37696
21
-3.64027
0
LINE
8
BLACK
6
CONTINUOUS
10
5.37696
20
-3.64027
11
5.36555
21
-3.63186
0
LINE
8
BLACK
6
CONTINUOUS
10
5.36555
20
-3.63186
11
5.35514
21
-3.62222
0
LINE
8
BLACK
6
CONTINUOUS
10
5.35514
20
-3.62222
11
5.34588
21
-3.61149
0
LINE
8
BLACK
6
CONTINUOUS
10
5.34588
20
-3.61149
11
5.33787
21
-3.59979
0
LINE
8
BLACK
6
CONTINUOUS
10
5.33787
20
-3.59979
11
5.33121
21
-3.58727
0
LINE
8
BLACK
6
CONTINUOUS
10
5.33121
20
-3.58727
11
5.32599
21
-3.57409
0
LINE
8
BLACK
6
CONTINUOUS
10
5.32599
20
-3.57409
11
5.32228
21
-3.5604
0
LINE
8
BLACK
6
CONTINUOUS
10
5.32228
20
-3.5604
11
5.32011
21
-3.54639
0
LINE
8
BLACK
6
CONTINUOUS
10
5.32011
20
-3.54639
11
5.31951
21
-3.53223
0
LINE
8
BLACK
6
CONTINUOUS
10
5.31951
20
-3.53223
11
5.3205
21
-3.51808
0
LINE
8
BLACK
6
CONTINUOUS
10
5.3205
20
-3.51808
11
5.32306
21
-3.50414
0
LINE
8
BLACK
6
CONTINUOUS
10
5.32306
20
-3.50414
11
5.32716
21
-3.49056
0
LINE
8
BLACK
6
CONTINUOUS
10
5.32716
20
-3.49056
11
5.33274
21
-3.47753
0
LINE
8
BLACK
6
CONTINUOUS
10
5.33274
20
-3.47753
11
5.33975
21
-3.4652
0
LINE
8
BLACK
6
CONTINUOUS
10
5.33975
20
-3.4652
11
5.34808
21
-3.45373
0
LINE
8
BLACK
6
CONTINUOUS
10
5.34808
20
-3.45373
11
5.35764
21
-3.44326
0
LINE
8
BLACK
6
CONTINUOUS
10
5.35764
20
-3.44326
11
5.36831
21
-3.43392
0
LINE
8
BLACK
6
CONTINUOUS
10
5.36831
20
-3.43392
11
5.37995
21
-3.42583
0
LINE
8
BLACK
6
CONTINUOUS
10
5.37995
20
-3.42583
11
5.39243
21
-3.41909
0
LINE
8
BLACK
6
CONTINUOUS
10
5.39243
20
-3.41909
11
5.40557
21
-3.41378
0
LINE
8
BLACK
6
CONTINUOUS
10
5.40557
20
-3.41378
11
5.41923
21
-3.40996
0
LINE
8
BLACK
6
CONTINUOUS
10
5.41923
20
-3.40996
11
5.43322
21
-3.4077
0
LINE
8
BLACK
6
CONTINUOUS
10
5.43322
20
-3.4077
11
5.44739
21
-3.407
0
LINE
8
BLACK
6
CONTINUOUS
10
5.44739
20
-3.407
11
5.46154
21
-3.40789
0
LINE
8
BLACK
6
CONTINUOUS
10
5.8665
20
-3.629
11
5.8015
21
-3.629
0
LINE
8
BLACK
6
CONTINUOUS
10
5.8015
20
-3.629
11
5.8015
21
-3.564
0
LINE
8
BLACK
6
CONTINUOUS
10
5.8015
20
-3.564
11
5.8665
21
-3.564
0
LINE
8
BLACK
6
CONTINUOUS
10
5.8665
20
-3.564
11
5.8665
21
-3.629
0
LINE
8
BLACK
6
CONTINUOUS
10
5.9665
20
-3.629
11
5.9015
21
-3.629
0
LINE
8
BLACK
6
CONTINUOUS
10
5.9015
20
-3.629
11
5.9015
21
-3.564
0
LINE
8
BLACK
6
CONTINUOUS
10
5.9015
20
-3.564
11
5.9665
21
-3.564
0
LINE
8
BLACK
6
CONTINUOUS
10
5.9665
20
-3.564
11
5.9665
21
-3.629
0
LINE
8
BLACK
6
CONTINUOUS
10
6.0665
20
-3.629
11
6.0015
21
-3.629
0
LINE
8
BLACK
6
CONTINUOUS
10
6.0015
20
-3.629
11
6.0015
21
-3.564
0
LINE
8
BLACK
6
CONTINUOUS
10
6.0015
20
-3.564
11
6.0665
21
-3.564
0
LINE
8
BLACK
6
CONTINUOUS
10
6.0665
20
-3.564
11
6.0665
21
-3.629
0
LINE
8
BLACK
6
CONTINUOUS
10
6.09914
20
-3.59135
11
6.10398
21
-3.5928
0
LINE
8
BLACK
6
CONTINUOUS
10
6.10398
20
-3.5928
11
6.10823
21
-3.59555
0
LINE
8
BLACK
6
CONTINUOUS
10
6.10823
20
-3.59555
11
6.11153
21
-3.59939
0
LINE
8
BLACK
6
CONTINUOUS
10
6.11153
20
-3.59939
11
6.11363
21
-3.60399
0
LINE
8
BLACK
6
CONTINUOUS
10
6.11363
20
-3.60399
11
6.11434
21
-3.609
0
LINE
8
BLACK
6
CONTINUOUS
10
6.11434
20
-3.609
11
6.11434
21
-3.60944
0
LINE
8
BLACK
6
CONTINUOUS
10
6.11434
20
-3.60944
11
6.1135
21
-3.61442
0
LINE
8
BLACK
6
CONTINUOUS
10
6.1135
20
-3.61442
11
6.11129
21
-3.61898
0
LINE
8
BLACK
6
CONTINUOUS
10
6.11129
20
-3.61898
11
6.1079
21
-3.62273
0
LINE
8
BLACK
6
CONTINUOUS
10
6.1079
20
-3.62273
11
6.10359
21
-3.62538
0
LINE
8
BLACK
6
CONTINUOUS
10
6.10359
20
-3.62538
11
6.09871
21
-3.62671
0
LINE
8
BLACK
6
CONTINUOUS
10
6.09871
20
-3.62671
11
6.09365
21
-3.62661
0
LINE
8
BLACK
6
CONTINUOUS
10
6.09365
20
-3.62661
11
6.08882
21
-3.6251
0
LINE
8
BLACK
6
CONTINUOUS
10
6.08882
20
-3.6251
11
6.08461
21
-3.6223
0
LINE
8
BLACK
6
CONTINUOUS
10
6.08461
20
-3.6223
11
6.08135
21
-3.61843
0
LINE
8
BLACK
6
CONTINUOUS
10
6.08135
20
-3.61843
11
6.07931
21
-3.6138
0
LINE
8
BLACK
6
CONTINUOUS
10
6.07931
20
-3.6138
11
6.07866
21
-3.60878
0
LINE
8
BLACK
6
CONTINUOUS
10
6.07866
20
-3.60878
11
6.07944
21
-3.60378
0
LINE
8
BLACK
6
CONTINUOUS
10
6.07944
20
-3.60378
11
6.08159
21
-3.5992
0
LINE
8
BLACK
6
CONTINUOUS
10
6.08159
20
-3.5992
11
6.08494
21
-3.59541
0
LINE
8
BLACK
6
CONTINUOUS
10
6.08494
20
-3.59541
11
6.08921
21
-3.59271
0
LINE
8
BLACK
6
CONTINUOUS
10
6.08921
20
-3.59271
11
6.09408
21
-3.59132
0
LINE
8
BLACK
6
CONTINUOUS
10
6.09408
20
-3.59132
11
6.09914
21
-3.59135
0
LINE
8
BLACK
6
CONTINUOUS
10
5.77414
20
-3.57885
11
5.77898
21
-3.5803
0
LINE
8
BLACK
6
CONTINUOUS
10
5.77898
20
-3.5803
11
5.78323
21
-3.58305
0
LINE
8
BLACK
6
CONTINUOUS
10
5.78323
20
-3.58305
11
5.78653
21
-3.58689
0
LINE
8
BLACK
6
CONTINUOUS
10
5.78653
20
-3.58689
11
5.78863
21
-3.59149
0
LINE
8
BLACK
6
CONTINUOUS
10
5.78863
20
-3.59149
11
5.78934
21
-3.5965
0
LINE
8
BLACK
6
CONTINUOUS
10
5.78934
20
-3.5965
11
5.78934
21
-3.59694
0
LINE
8
BLACK
6
CONTINUOUS
10
5.78934
20
-3.59694
11
5.7885
21
-3.60192
0
LINE
8
BLACK
6
CONTINUOUS
10
5.7885
20
-3.60192
11
5.78629
21
-3.60648
0
LINE
8
BLACK
6
CONTINUOUS
10
5.78629
20
-3.60648
11
5.7829
21
-3.61023
0
LINE
8
BLACK
6
CONTINUOUS
10
5.7829
20
-3.61023
11
5.77859
21
-3.61288
0
LINE
8
BLACK
6
CONTINUOUS
10
5.77859
20
-3.61288
11
5.77371
21
-3.61421
0
LINE
8
BLACK
6
CONTINUOUS
10
5.77371
20
-3.61421
11
5.76865
21
-3.61411
0
LINE
8
BLACK
6
CONTINUOUS
10
5.76865
20
-3.61411
11
5.76382
21
-3.6126
0
LINE
8
BLACK
6
CONTINUOUS
10
5.76382
20
-3.6126
11
5.75961
21
-3.6098
0
LINE
8
BLACK
6
CONTINUOUS
10
5.75961
20
-3.6098
11
5.75635
21
-3.60593
0
LINE
8
BLACK
6
CONTINUOUS
10
5.75635
20
-3.60593
11
5.75431
21
-3.6013
0
LINE
8
BLACK
6
CONTINUOUS
10
5.75431
20
-3.6013
11
5.75366
21
-3.59628
0
LINE
8
BLACK
6
CONTINUOUS
10
5.75366
20
-3.59628
11
5.75444
21
-3.59128
0
LINE
8
BLACK
6
CONTINUOUS
10
5.75444
20
-3.59128
11
5.75659
21
-3.5867
0
LINE
8
BLACK
6
CONTINUOUS
10
5.75659
20
-3.5867
11
5.75994
21
-3.58291
0
LINE
8
BLACK
6
CONTINUOUS
10
5.75994
20
-3.58291
11
5.76421
21
-3.58021
0
LINE
8
BLACK
6
CONTINUOUS
10
5.76421
20
-3.58021
11
5.76908
21
-3.57882
0
LINE
8
BLACK
6
CONTINUOUS
10
5.76908
20
-3.57882
11
5.77414
21
-3.57885
0
LINE
8
BLACK
6
CONTINUOUS
10
6.09914
20
-3.54135
11
6.10398
21
-3.5428
0
LINE
8
BLACK
6
CONTINUOUS
10
6.10398
20
-3.5428
11
6.10823
21
-3.54555
0
LINE
8
BLACK
6
CONTINUOUS
10
6.10823
20
-3.54555
11
6.11153
21
-3.54939
0
LINE
8
BLACK
6
CONTINUOUS
10
6.11153
20
-3.54939
11
6.11363
21
-3.55399
0
LINE
8
BLACK
6
CONTINUOUS
10
6.11363
20
-3.55399
11
6.11434
21
-3.559
0
LINE
8
BLACK
6
CONTINUOUS
10
6.11434
20
-3.559
11
6.11434
21
-3.55944
0
LINE
8
BLACK
6
CONTINUOUS
10
6.11434
20
-3.55944
11
6.1135
21
-3.56442
0
LINE
8
BLACK
6
CONTINUOUS
10
6.1135
20
-3.56442
11
6.11129
21
-3.56898
0
LINE
8
BLACK
6
CONTINUOUS
10
6.11129
20
-3.56898
11
6.1079
21
-3.57273
0
LINE
8
BLACK
6
CONTINUOUS
10
6.1079
20
-3.57273
11
6.10359
21
-3.57538
0
LINE
8
BLACK
6
CONTINUOUS
10
6.10359
20
-3.57538
11
6.09871
21
-3.57671
0
LINE
8
BLACK
6
CONTINUOUS
10
6.09871
20
-3.57671
11
6.09365
21
-3.57661
0
LINE
8
BLACK
6
CONTINUOUS
10
6.09365
20
-3.57661
11
6.08882
21
-3.5751
0
LINE
8
BLACK
6
CONTINUOUS
10
6.08882
20
-3.5751
11
6.08461
21
-3.5723
0
LINE
8
BLACK
6
CONTINUOUS
10
6.08461
20
-3.5723
11
6.08135
21
-3.56843
0
LINE
8
BLACK
6
CONTINUOUS
10
6.08135
20
-3.56843
11
6.07931
21
-3.5638
0
LINE
8
BLACK
6
CONTINUOUS
10
6.07931
20
-3.5638
11
6.07866
21
-3.55878
0
LINE
8
BLACK
6
CONTINUOUS
10
6.07866
20
-3.55878
11
6.07944
21
-3.55378
0
LINE
8
BLACK
6
CONTINUOUS
10
6.07944
20
-3.55378
11
6.08159
21
-3.5492
0
LINE
8
BLACK
6
CONTINUOUS
10
6.08159
20
-3.5492
11
6.08494
21
-3.54541
0
LINE
8
BLACK
6
CONTINUOUS
10
6.08494
20
-3.54541
11
6.08921
21
-3.54271
0
LINE
8
BLACK
6
CONTINUOUS
10
6.08921
20
-3.54271
11
6.09408
21
-3.54132
0
LINE
8
BLACK
6
CONTINUOUS
10
6.09408
20
-3.54132
11
6.09914
21
-3.54135
0
LINE
8
BLACK
6
CONTINUOUS
10
5.77414
20
-3.52885
11
5.77898
21
-3.5303
0
LINE
8
BLACK
6
CONTINUOUS
10
5.77898
20
-3.5303
11
5.78323
21
-3.53305
0
LINE
8
BLACK
6
CONTINUOUS
10
5.78323
20
-3.53305
11
5.78653
21
-3.53689
0
LINE
8
BLACK
6
CONTINUOUS
10
5.78653
20
-3.53689
11
5.78863
21
-3.54149
0
LINE
8
BLACK
6
CONTINUOUS
10
5.78863
20
-3.54149
11
5.78934
21
-3.5465
0
LINE
8
BLACK
6
CONTINUOUS
10
5.78934
20
-3.5465
11
5.78934
21
-3.54694
0
LINE
8
BLACK
6
CONTINUOUS
10
5.78934
20
-3.54694
11
5.7885
21
-3.55192
0
LINE
8
BLACK
6
CONTINUOUS
10
5.7885
20
-3.55192
11
5.78629
21
-3.55648
0
LINE
8
BLACK
6
CONTINUOUS
10
5.78629
20
-3.55648
11
5.7829
21
-3.56023
0
LINE
8
BLACK
6
CONTINUOUS
10
5.7829
20
-3.56023
11
5.77859
21
-3.56288
0
LINE
8
BLACK
6
CONTINUOUS
10
5.77859
20
-3.56288
11
5.77371
21
-3.56421
0
LINE
8
BLACK
6
CONTINUOUS
10
5.77371
20
-3.56421
11
5.76865
21
-3.56411
0
LINE
8
BLACK
6
CONTINUOUS
10
5.76865
20
-3.56411
11
5.76382
21
-3.5626
0
LINE
8
BLACK
6
CONTINUOUS
10
5.76382
20
-3.5626
11
5.75961
21
-3.5598
0
LINE
8
BLACK
6
CONTINUOUS
10
5.75961
20
-3.5598
11
5.75635
21
-3.55593
0
LINE
8
BLACK
6
CONTINUOUS
10
5.75635
20
-3.55593
11
5.75431
21
-3.5513
0
LINE
8
BLACK
6
CONTINUOUS
10
5.75431
20
-3.5513
11
5.75366
21
-3.54628
0
LINE
8
BLACK
6
CONTINUOUS
10
5.75366
20
-3.54628
11
5.75444
21
-3.54128
0
LINE
8
BLACK
6
CONTINUOUS
10
5.75444
20
-3.54128
11
5.75659
21
-3.5367
0
LINE
8
BLACK
6
CONTINUOUS
10
5.75659
20
-3.5367
11
5.75994
21
-3.53291
0
LINE
8
BLACK
6
CONTINUOUS
10
5.75994
20
-3.53291
11
5.76421
21
-3.53021
0
LINE
8
BLACK
6
CONTINUOUS
10
5.76421
20
-3.53021
11
5.76908
21
-3.52882
0
LINE
8
BLACK
6
CONTINUOUS
10
5.76908
20
-3.52882
11
5.77414
21
-3.52885
0
LINE
8
BLACK
6
CONTINUOUS
10
5.8665
20
-3.529
11
5.8015
21
-3.529
0
LINE
8
BLACK
6
CONTINUOUS
10
5.8015
20
-3.529
11
5.8015
21
-3.464
0
LINE
8
BLACK
6
CONTINUOUS
10
5.8015
20
-3.464
11
5.8665
21
-3.464
0
LINE
8
BLACK
6
CONTINUOUS
10
5.8665
20
-3.464
11
5.8665
21
-3.529
0
LINE
8
BLACK
6
CONTINUOUS
10
5.9665
20
-3.529
11
5.9015
21
-3.529
0
LINE
8
BLACK
6
CONTINUOUS
10
5.9015
20
-3.529
11
5.9015
21
-3.464
0
LINE
8
BLACK
6
CONTINUOUS
10
5.9015
20
-3.464
11
5.9665
21
-3.464
0
LINE
8
BLACK
6
CONTINUOUS
10
5.9665
20
-3.464
11
5.9665
21
-3.529
0
LINE
8
BLACK
6
CONTINUOUS
10
6.0665
20
-3.529
11
6.0015
21
-3.529
0
LINE
8
BLACK
6
CONTINUOUS
10
6.0015
20
-3.529
11
6.0015
21
-3.464
0
LINE
8
BLACK
6
CONTINUOUS
10
6.0015
20
-3.464
11
6.0665
21
-3.464
0
LINE
8
BLACK
6
CONTINUOUS
10
6.0665
20
-3.464
11
6.0665
21
-3.529
0
LINE
8
BLACK
6
CONTINUOUS
10
6.09914
20
-3.49135
11
6.10398
21
-3.4928
0
LINE
8
BLACK
6
CONTINUOUS
10
6.10398
20
-3.4928
11
6.10823
21
-3.49555
0
LINE
8
BLACK
6
CONTINUOUS
10
6.10823
20
-3.49555
11
6.11153
21
-3.49939
0
LINE
8
BLACK
6
CONTINUOUS
10
6.11153
20
-3.49939
11
6.11363
21
-3.50399
0
LINE
8
BLACK
6
CONTINUOUS
10
6.11363
20
-3.50399
11
6.11434
21
-3.509
0
LINE
8
BLACK
6
CONTINUOUS
10
6.11434
20
-3.509
11
6.11434
21
-3.50944
0
LINE
8
BLACK
6
CONTINUOUS
10
6.11434
20
-3.50944
11
6.1135
21
-3.51442
0
LINE
8
BLACK
6
CONTINUOUS
10
6.1135
20
-3.51442
11
6.11129
21
-3.51898
0
LINE
8
BLACK
6
CONTINUOUS
10
6.11129
20
-3.51898
11
6.1079
21
-3.52273
0
LINE
8
BLACK
6
CONTINUOUS
10
6.1079
20
-3.52273
11
6.10359
21
-3.52538
0
LINE
8
BLACK
6
CONTINUOUS
10
6.10359
20
-3.52538
11
6.09871
21
-3.52671
0
LINE
8
BLACK
6
CONTINUOUS
10
6.09871
20
-3.52671
11
6.09365
21
-3.52661
0
LINE
8
BLACK
6
CONTINUOUS
10
6.09365
20
-3.52661
11
6.08882
21
-3.5251
0
LINE
8
BLACK
6
CONTINUOUS
10
6.08882
20
-3.5251
11
6.08461
21
-3.5223
0
LINE
8
BLACK
6
CONTINUOUS
10
6.08461
20
-3.5223
11
6.08135
21
-3.51843
0
LINE
8
BLACK
6
CONTINUOUS
10
6.08135
20
-3.51843
11
6.07931
21
-3.5138
0
LINE
8
BLACK
6
CONTINUOUS
10
6.07931
20
-3.5138
11
6.07866
21
-3.50878
0
LINE
8
BLACK
6
CONTINUOUS
10
6.07866
20
-3.50878
11
6.07944
21
-3.50378
0
LINE
8
BLACK
6
CONTINUOUS
10
6.07944
20
-3.50378
11
6.08159
21
-3.4992
0
LINE
8
BLACK
6
CONTINUOUS
10
6.08159
20
-3.4992
11
6.08494
21
-3.49541
0
LINE
8
BLACK
6
CONTINUOUS
10
6.08494
20
-3.49541
11
6.08921
21
-3.49271
0
LINE
8
BLACK
6
CONTINUOUS
10
6.08921
20
-3.49271
11
6.09408
21
-3.49132
0
LINE
8
BLACK
6
CONTINUOUS
10
6.09408
20
-3.49132
11
6.09914
21
-3.49135
0
LINE
8
BLACK
6
CONTINUOUS
10
5.77414
20
-3.47885
11
5.77898
21
-3.4803
0
LINE
8
BLACK
6
CONTINUOUS
10
5.77898
20
-3.4803
11
5.78323
21
-3.48305
0
LINE
8
BLACK
6
CONTINUOUS
10
5.78323
20
-3.48305
11
5.78653
21
-3.48689
0
LINE
8
BLACK
6
CONTINUOUS
10
5.78653
20
-3.48689
11
5.78863
21
-3.49149
0
LINE
8
BLACK
6
CONTINUOUS
10
5.78863
20
-3.49149
11
5.78934
21
-3.4965
0
LINE
8
BLACK
6
CONTINUOUS
10
5.78934
20
-3.4965
11
5.78934
21
-3.49694
0
LINE
8
BLACK
6
CONTINUOUS
10
5.78934
20
-3.49694
11
5.7885
21
-3.50192
0
LINE
8
BLACK
6
CONTINUOUS
10
5.7885
20
-3.50192
11
5.78629
21
-3.50648
0
LINE
8
BLACK
6
CONTINUOUS
10
5.78629
20
-3.50648
11
5.7829
21
-3.51023
0
LINE
8
BLACK
6
CONTINUOUS
10
5.7829
20
-3.51023
11
5.77859
21
-3.51288
0
LINE
8
BLACK
6
CONTINUOUS
10
5.77859
20
-3.51288
11
5.77371
21
-3.51421
0
LINE
8
BLACK
6
CONTINUOUS
10
5.77371
20
-3.51421
11
5.76865
21
-3.51411
0
LINE
8
BLACK
6
CONTINUOUS
10
5.76865
20
-3.51411
11
5.76382
21
-3.5126
0
LINE
8
BLACK
6
CONTINUOUS
10
5.76382
20
-3.5126
11
5.75961
21
-3.5098
0
LINE
8
BLACK
6
CONTINUOUS
10
5.75961
20
-3.5098
11
5.75635
21
-3.50593
0
LINE
8
BLACK
6
CONTINUOUS
10
5.75635
20
-3.50593
11
5.75431
21
-3.5013
0
LINE
8
BLACK
6
CONTINUOUS
10
5.75431
20
-3.5013
11
5.75366
21
-3.49628
0
LINE
8
BLACK
6
CONTINUOUS
10
5.75366
20
-3.49628
11
5.75444
21
-3.49128
0
LINE
8
BLACK
6
CONTINUOUS
10
5.75444
20
-3.49128
11
5.75659
21
-3.4867
0
LINE
8
BLACK
6
CONTINUOUS
10
5.75659
20
-3.4867
11
5.75994
21
-3.48291
0
LINE
8
BLACK
6
CONTINUOUS
10
5.75994
20
-3.48291
11
5.76421
21
-3.48021
0
LINE
8
BLACK
6
CONTINUOUS
10
5.76421
20
-3.48021
11
5.76908
21
-3.47882
0
LINE
8
BLACK
6
CONTINUOUS
10
5.76908
20
-3.47882
11
5.77414
21
-3.47885
0
LINE
8
BLACK
6
CONTINUOUS
10
6.09914
20
-3.44135
11
6.10398
21
-3.4428
0
LINE
8
BLACK
6
CONTINUOUS
10
6.10398
20
-3.4428
11
6.10823
21
-3.44555
0
LINE
8
BLACK
6
CONTINUOUS
10
6.10823
20
-3.44555
11
6.11153
21
-3.44939
0
LINE
8
BLACK
6
CONTINUOUS
10
6.11153
20
-3.44939
11
6.11363
21
-3.45399
0
LINE
8
BLACK
6
CONTINUOUS
10
6.11363
20
-3.45399
11
6.11434
21
-3.459
0
LINE
8
BLACK
6
CONTINUOUS
10
6.11434
20
-3.459
11
6.11434
21
-3.45944
0
LINE
8
BLACK
6
CONTINUOUS
10
6.11434
20
-3.45944
11
6.1135
21
-3.46442
0
LINE
8
BLACK
6
CONTINUOUS
10
6.1135
20
-3.46442
11
6.11129
21
-3.46898
0
LINE
8
BLACK
6
CONTINUOUS
10
6.11129
20
-3.46898
11
6.1079
21
-3.47273
0
LINE
8
BLACK
6
CONTINUOUS
10
6.1079
20
-3.47273
11
6.10359
21
-3.47538
0
LINE
8
BLACK
6
CONTINUOUS
10
6.10359
20
-3.47538
11
6.09871
21
-3.47671
0
LINE
8
BLACK
6
CONTINUOUS
10
6.09871
20
-3.47671
11
6.09365
21
-3.47661
0
LINE
8
BLACK
6
CONTINUOUS
10
6.09365
20
-3.47661
11
6.08882
21
-3.4751
0
LINE
8
BLACK
6
CONTINUOUS
10
6.08882
20
-3.4751
11
6.08461
21
-3.4723
0
LINE
8
BLACK
6
CONTINUOUS
10
6.08461
20
-3.4723
11
6.08135
21
-3.46843
0
LINE
8
BLACK
6
CONTINUOUS
10
6.08135
20
-3.46843
11
6.07931
21
-3.4638
0
LINE
8
BLACK
6
CONTINUOUS
10
6.07931
20
-3.4638
11
6.07866
21
-3.45878
0
LINE
8
BLACK
6
CONTINUOUS
10
6.07866
20
-3.45878
11
6.07944
21
-3.45378
0
LINE
8
BLACK
6
CONTINUOUS
10
6.07944
20
-3.45378
11
6.08159
21
-3.4492
0
LINE
8
BLACK
6
CONTINUOUS
10
6.08159
20
-3.4492
11
6.08494
21
-3.44541
0
LINE
8
BLACK
6
CONTINUOUS
10
6.08494
20
-3.44541
11
6.08921
21
-3.44271
0
LINE
8
BLACK
6
CONTINUOUS
10
6.08921
20
-3.44271
11
6.09408
21
-3.44132
0
LINE
8
BLACK
6
CONTINUOUS
10
6.09408
20
-3.44132
11
6.09914
21
-3.44135
0
LINE
8
BLACK
6
CONTINUOUS
10
5.77414
20
-3.41635
11
5.77898
21
-3.4178
0
LINE
8
BLACK
6
CONTINUOUS
10
5.77898
20
-3.4178
11
5.78323
21
-3.42055
0
LINE
8
BLACK
6
CONTINUOUS
10
5.78323
20
-3.42055
11
5.78653
21
-3.42439
0
LINE
8
BLACK
6
CONTINUOUS
10
5.78653
20
-3.42439
11
5.78863
21
-3.42899
0
LINE
8
BLACK
6
CONTINUOUS
10
5.78863
20
-3.42899
11
5.78934
21
-3.434
0
LINE
8
BLACK
6
CONTINUOUS
10
5.78934
20
-3.434
11
5.78934
21
-3.43444
0
LINE
8
BLACK
6
CONTINUOUS
10
5.78934
20
-3.43444
11
5.7885
21
-3.43942
0
LINE
8
BLACK
6
CONTINUOUS
10
5.7885
20
-3.43942
11
5.78629
21
-3.44398
0
LINE
8
BLACK
6
CONTINUOUS
10
5.78629
20
-3.44398
11
5.7829
21
-3.44773
0
LINE
8
BLACK
6
CONTINUOUS
10
5.7829
20
-3.44773
11
5.77859
21
-3.45038
0
LINE
8
BLACK
6
CONTINUOUS
10
5.77859
20
-3.45038
11
5.77371
21
-3.45171
0
LINE
8
BLACK
6
CONTINUOUS
10
5.77371
20
-3.45171
11
5.76865
21
-3.45161
0
LINE
8
BLACK
6
CONTINUOUS
10
5.76865
20
-3.45161
11
5.76382
21
-3.4501
0
LINE
8
BLACK
6
CONTINUOUS
10
5.76382
20
-3.4501
11
5.75961
21
-3.4473
0
LINE
8
BLACK
6
CONTINUOUS
10
5.75961
20
-3.4473
11
5.75635
21
-3.44343
0
LINE
8
BLACK
6
CONTINUOUS
10
5.75635
20
-3.44343
11
5.75431
21
-3.4388
0
LINE
8
BLACK
6
CONTINUOUS
10
5.75431
20
-3.4388
11
5.75366
21
-3.43378
0
LINE
8
BLACK
6
CONTINUOUS
10
5.75366
20
-3.43378
11
5.75444
21
-3.42878
0
LINE
8
BLACK
6
CONTINUOUS
10
5.75444
20
-3.42878
11
5.75659
21
-3.4242
0
LINE
8
BLACK
6
CONTINUOUS
10
5.75659
20
-3.4242
11
5.75994
21
-3.42041
0
LINE
8
BLACK
6
CONTINUOUS
10
5.75994
20
-3.42041
11
5.76421
21
-3.41771
0
LINE
8
BLACK
6
CONTINUOUS
10
5.76421
20
-3.41771
11
5.76908
21
-3.41632
0
LINE
8
BLACK
6
CONTINUOUS
10
5.76908
20
-3.41632
11
5.77414
21
-3.41635
0
LINE
8
BLACK
6
CONTINUOUS
10
5.82414
20
-3.40385
11
5.82898
21
-3.4053
0
LINE
8
BLACK
6
CONTINUOUS
10
5.82898
20
-3.4053
11
5.83323
21
-3.40805
0
LINE
8
BLACK
6
CONTINUOUS
10
5.83323
20
-3.40805
11
5.83653
21
-3.41189
0
LINE
8
BLACK
6
CONTINUOUS
10
5.83653
20
-3.41189
11
5.83863
21
-3.41649
0
LINE
8
BLACK
6
CONTINUOUS
10
5.83863
20
-3.41649
11
5.83934
21
-3.4215
0
LINE
8
BLACK
6
CONTINUOUS
10
5.83934
20
-3.4215
11
5.83934
21
-3.42194
0
LINE
8
BLACK
6
CONTINUOUS
10
5.83934
20
-3.42194
11
5.8385
21
-3.42692
0
LINE
8
BLACK
6
CONTINUOUS
10
5.8385
20
-3.42692
11
5.83629
21
-3.43148
0
LINE
8
BLACK
6
CONTINUOUS
10
5.83629
20
-3.43148
11
5.8329
21
-3.43523
0
LINE
8
BLACK
6
CONTINUOUS
10
5.8329
20
-3.43523
11
5.82859
21
-3.43788
0
LINE
8
BLACK
6
CONTINUOUS
10
5.82859
20
-3.43788
11
5.82371
21
-3.43921
0
LINE
8
BLACK
6
CONTINUOUS
10
5.82371
20
-3.43921
11
5.81865
21
-3.43911
0
LINE
8
BLACK
6
CONTINUOUS
10
5.81865
20
-3.43911
11
5.81382
21
-3.4376
0
LINE
8
BLACK
6
CONTINUOUS
10
5.81382
20
-3.4376
11
5.80961
21
-3.4348
0
LINE
8
BLACK
6
CONTINUOUS
10
5.80961
20
-3.4348
11
5.80635
21
-3.43093
0
LINE
8
BLACK
6
CONTINUOUS
10
5.80635
20
-3.43093
11
5.80431
21
-3.4263
0
LINE
8
BLACK
6
CONTINUOUS
10
5.80431
20
-3.4263
11
5.80366
21
-3.42128
0
LINE
8
BLACK
6
CONTINUOUS
10
5.80366
20
-3.42128
11
5.80444
21
-3.41628
0
LINE
8
BLACK
6
CONTINUOUS
10
5.80444
20
-3.41628
11
5.80659
21
-3.4117
0
LINE
8
BLACK
6
CONTINUOUS
10
5.80659
20
-3.4117
11
5.80994
21
-3.40791
0
LINE
8
BLACK
6
CONTINUOUS
10
5.80994
20
-3.40791
11
5.81421
21
-3.40521
0
LINE
8
BLACK
6
CONTINUOUS
10
5.81421
20
-3.40521
11
5.81908
21
-3.40382
0
LINE
8
BLACK
6
CONTINUOUS
10
5.81908
20
-3.40382
11
5.82414
21
-3.40385
0
LINE
8
BLACK
6
CONTINUOUS
10
6.06164
20
-3.40385
11
6.06648
21
-3.4053
0
LINE
8
BLACK
6
CONTINUOUS
10
6.06648
20
-3.4053
11
6.07073
21
-3.40805
0
LINE
8
BLACK
6
CONTINUOUS
10
6.07073
20
-3.40805
11
6.07403
21
-3.41189
0
LINE
8
BLACK
6
CONTINUOUS
10
6.07403
20
-3.41189
11
6.07613
21
-3.41649
0
LINE
8
BLACK
6
CONTINUOUS
10
6.07613
20
-3.41649
11
6.07684
21
-3.4215
0
LINE
8
BLACK
6
CONTINUOUS
10
6.07684
20
-3.4215
11
6.07684
21
-3.42194
0
LINE
8
BLACK
6
CONTINUOUS
10
6.07684
20
-3.42194
11
6.076
21
-3.42692
0
LINE
8
BLACK
6
CONTINUOUS
10
6.076
20
-3.42692
11
6.07379
21
-3.43148
0
LINE
8
BLACK
6
CONTINUOUS
10
6.07379
20
-3.43148
11
6.0704
21
-3.43523
0
LINE
8
BLACK
6
CONTINUOUS
10
6.0704
20
-3.43523
11
6.06609
21
-3.43788
0
LINE
8
BLACK
6
CONTINUOUS
10
6.06609
20
-3.43788
11
6.06121
21
-3.43921
0
LINE
8
BLACK
6
CONTINUOUS
10
6.06121
20
-3.43921
11
6.05615
21
-3.43911
0
LINE
8
BLACK
6
CONTINUOUS
10
6.05615
20
-3.43911
11
6.05132
21
-3.4376
0
LINE
8
BLACK
6
CONTINUOUS
10
6.05132
20
-3.4376
11
6.04711
21
-3.4348
0
LINE
8
BLACK
6
CONTINUOUS
10
6.04711
20
-3.4348
11
6.04385
21
-3.43093
0
LINE
8
BLACK
6
CONTINUOUS
10
6.04385
20
-3.43093
11
6.04181
21
-3.4263
0
LINE
8
BLACK
6
CONTINUOUS
10
6.04181
20
-3.4263
11
6.04116
21
-3.42128
0
LINE
8
BLACK
6
CONTINUOUS
10
6.04116
20
-3.42128
11
6.04194
21
-3.41628
0
LINE
8
BLACK
6
CONTINUOUS
10
6.04194
20
-3.41628
11
6.04409
21
-3.4117
0
LINE
8
BLACK
6
CONTINUOUS
10
6.04409
20
-3.4117
11
6.04744
21
-3.40791
0
LINE
8
BLACK
6
CONTINUOUS
10
6.04744
20
-3.40791
11
6.05171
21
-3.40521
0
LINE
8
BLACK
6
CONTINUOUS
10
6.05171
20
-3.40521
11
6.05658
21
-3.40382
0
LINE
8
BLACK
6
CONTINUOUS
10
6.05658
20
-3.40382
11
6.06164
21
-3.40385
0
LINE
8
BLACK
6
CONTINUOUS
10
5.91164
20
-3.37885
11
5.91648
21
-3.3803
0
LINE
8
BLACK
6
CONTINUOUS
10
5.91648
20
-3.3803
11
5.92073
21
-3.38305
0
LINE
8
BLACK
6
CONTINUOUS
10
5.92073
20
-3.38305
11
5.92403
21
-3.38689
0
LINE
8
BLACK
6
CONTINUOUS
10
5.92403
20
-3.38689
11
5.92613
21
-3.39149
0
LINE
8
BLACK
6
CONTINUOUS
10
5.92613
20
-3.39149
11
5.92684
21
-3.3965
0
LINE
8
BLACK
6
CONTINUOUS
10
5.92684
20
-3.3965
11
5.92684
21
-3.39694
0
LINE
8
BLACK
6
CONTINUOUS
10
5.92684
20
-3.39694
11
5.926
21
-3.40192
0
LINE
8
BLACK
6
CONTINUOUS
10
5.926
20
-3.40192
11
5.92379
21
-3.40648
0
LINE
8
BLACK
6
CONTINUOUS
10
5.92379
20
-3.40648
11
5.9204
21
-3.41023
0
LINE
8
BLACK
6
CONTINUOUS
10
5.9204
20
-3.41023
11
5.91609
21
-3.41288
0
LINE
8
BLACK
6
CONTINUOUS
10
5.91609
20
-3.41288
11
5.91121
21
-3.41421
0
LINE
8
BLACK
6
CONTINUOUS
10
5.91121
20
-3.41421
11
5.90615
21
-3.41411
0
LINE
8
BLACK
6
CONTINUOUS
10
5.90615
20
-3.41411
11
5.90132
21
-3.4126
0
LINE
8
BLACK
6
CONTINUOUS
10
5.90132
20
-3.4126
11
5.89711
21
-3.4098
0
LINE
8
BLACK
6
CONTINUOUS
10
5.89711
20
-3.4098
11
5.89385
21
-3.40593
0
LINE
8
BLACK
6
CONTINUOUS
10
5.89385
20
-3.40593
11
5.89181
21
-3.4013
0
LINE
8
BLACK
6
CONTINUOUS
10
5.89181
20
-3.4013
11
5.89116
21
-3.39628
0
LINE
8
BLACK
6
CONTINUOUS
10
5.89116
20
-3.39628
11
5.89194
21
-3.39128
0
LINE
8
BLACK
6
CONTINUOUS
10
5.89194
20
-3.39128
11
5.89409
21
-3.3867
0
LINE
8
BLACK
6
CONTINUOUS
10
5.89409
20
-3.3867
11
5.89744
21
-3.38291
0
LINE
8
BLACK
6
CONTINUOUS
10
5.89744
20
-3.38291
11
5.90171
21
-3.38021
0
LINE
8
BLACK
6
CONTINUOUS
10
5.90171
20
-3.38021
11
5.90658
21
-3.37882
0
LINE
8
BLACK
6
CONTINUOUS
10
5.90658
20
-3.37882
11
5.91164
21
-3.37885
0
LINE
8
BLACK
6
CONTINUOUS
10
5.96164
20
-3.37885
11
5.96648
21
-3.3803
0
LINE
8
BLACK
6
CONTINUOUS
10
5.96648
20
-3.3803
11
5.97073
21
-3.38305
0
LINE
8
BLACK
6
CONTINUOUS
10
5.97073
20
-3.38305
11
5.97403
21
-3.38689
0
LINE
8
BLACK
6
CONTINUOUS
10
5.97403
20
-3.38689
11
5.97613
21
-3.39149
0
LINE
8
BLACK
6
CONTINUOUS
10
5.97613
20
-3.39149
11
5.97684
21
-3.3965
0
LINE
8
BLACK
6
CONTINUOUS
10
5.97684
20
-3.3965
11
5.97684
21
-3.39694
0
LINE
8
BLACK
6
CONTINUOUS
10
5.97684
20
-3.39694
11
5.976
21
-3.40192
0
LINE
8
BLACK
6
CONTINUOUS
10
5.976
20
-3.40192
11
5.97379
21
-3.40648
0
LINE
8
BLACK
6
CONTINUOUS
10
5.97379
20
-3.40648
11
5.9704
21
-3.41023
0
LINE
8
BLACK
6
CONTINUOUS
10
5.9704
20
-3.41023
11
5.96609
21
-3.41288
0
LINE
8
BLACK
6
CONTINUOUS
10
5.96609
20
-3.41288
11
5.96121
21
-3.41421
0
LINE
8
BLACK
6
CONTINUOUS
10
5.96121
20
-3.41421
11
5.95615
21
-3.41411
0
LINE
8
BLACK
6
CONTINUOUS
10
5.95615
20
-3.41411
11
5.95132
21
-3.4126
0
LINE
8
BLACK
6
CONTINUOUS
10
5.95132
20
-3.4126
11
5.94711
21
-3.4098
0
LINE
8
BLACK
6
CONTINUOUS
10
5.94711
20
-3.4098
11
5.94385
21
-3.40593
0
LINE
8
BLACK
6
CONTINUOUS
10
5.94385
20
-3.40593
11
5.94181
21
-3.4013
0
LINE
8
BLACK
6
CONTINUOUS
10
5.94181
20
-3.4013
11
5.94116
21
-3.39628
0
LINE
8
BLACK
6
CONTINUOUS
10
5.94116
20
-3.39628
11
5.94194
21
-3.39128
0
LINE
8
BLACK
6
CONTINUOUS
10
5.94194
20
-3.39128
11
5.94409
21
-3.3867
0
LINE
8
BLACK
6
CONTINUOUS
10
5.94409
20
-3.3867
11
5.94744
21
-3.38291
0
LINE
8
BLACK
6
CONTINUOUS
10
5.94744
20
-3.38291
11
5.95171
21
-3.38021
0
LINE
8
BLACK
6
CONTINUOUS
10
5.95171
20
-3.38021
11
5.95658
21
-3.37882
0
LINE
8
BLACK
6
CONTINUOUS
10
5.95658
20
-3.37882
11
5.96164
21
-3.37885
0
LINE
8
BLACK
6
CONTINUOUS
10
5.86164
20
-3.37885
11
5.86648
21
-3.3803
0
LINE
8
BLACK
6
CONTINUOUS
10
5.86648
20
-3.3803
11
5.87073
21
-3.38305
0
LINE
8
BLACK
6
CONTINUOUS
10
5.87073
20
-3.38305
11
5.87403
21
-3.38689
0
LINE
8
BLACK
6
CONTINUOUS
10
5.87403
20
-3.38689
11
5.87613
21
-3.39149
0
LINE
8
BLACK
6
CONTINUOUS
10
5.87613
20
-3.39149
11
5.87684
21
-3.3965
0
LINE
8
BLACK
6
CONTINUOUS
10
5.87684
20
-3.3965
11
5.87684
21
-3.39694
0
LINE
8
BLACK
6
CONTINUOUS
10
5.87684
20
-3.39694
11
5.876
21
-3.40192
0
LINE
8
BLACK
6
CONTINUOUS
10
5.876
20
-3.40192
11
5.87379
21
-3.40648
0
LINE
8
BLACK
6
CONTINUOUS
10
5.87379
20
-3.40648
11
5.8704
21
-3.41023
0
LINE
8
BLACK
6
CONTINUOUS
10
5.8704
20
-3.41023
11
5.86609
21
-3.41288
0
LINE
8
BLACK
6
CONTINUOUS
10
5.86609
20
-3.41288
11
5.86121
21
-3.41421
0
LINE
8
BLACK
6
CONTINUOUS
10
5.86121
20
-3.41421
11
5.85615
21
-3.41411
0
LINE
8
BLACK
6
CONTINUOUS
10
5.85615
20
-3.41411
11
5.85132
21
-3.4126
0
LINE
8
BLACK
6
CONTINUOUS
10
5.85132
20
-3.4126
11
5.84711
21
-3.4098
0
LINE
8
BLACK
6
CONTINUOUS
10
5.84711
20
-3.4098
11
5.84385
21
-3.40593
0
LINE
8
BLACK
6
CONTINUOUS
10
5.84385
20
-3.40593
11
5.84181
21
-3.4013
0
LINE
8
BLACK
6
CONTINUOUS
10
5.84181
20
-3.4013
11
5.84116
21
-3.39628
0
LINE
8
BLACK
6
CONTINUOUS
10
5.84116
20
-3.39628
11
5.84194
21
-3.39128
0
LINE
8
BLACK
6
CONTINUOUS
10
5.84194
20
-3.39128
11
5.84409
21
-3.3867
0
LINE
8
BLACK
6
CONTINUOUS
10
5.84409
20
-3.3867
11
5.84744
21
-3.38291
0
LINE
8
BLACK
6
CONTINUOUS
10
5.84744
20
-3.38291
11
5.85171
21
-3.38021
0
LINE
8
BLACK
6
CONTINUOUS
10
5.85171
20
-3.38021
11
5.85658
21
-3.37882
0
LINE
8
BLACK
6
CONTINUOUS
10
5.85658
20
-3.37882
11
5.86164
21
-3.37885
0
LINE
8
BLACK
6
CONTINUOUS
10
6.01164
20
-3.37885
11
6.01648
21
-3.3803
0
LINE
8
BLACK
6
CONTINUOUS
10
6.01648
20
-3.3803
11
6.02073
21
-3.38305
0
LINE
8
BLACK
6
CONTINUOUS
10
6.02073
20
-3.38305
11
6.02403
21
-3.38689
0
LINE
8
BLACK
6
CONTINUOUS
10
6.02403
20
-3.38689
11
6.02613
21
-3.39149
0
LINE
8
BLACK
6
CONTINUOUS
10
6.02613
20
-3.39149
11
6.02684
21
-3.3965
0
LINE
8
BLACK
6
CONTINUOUS
10
6.02684
20
-3.3965
11
6.02684
21
-3.39694
0
LINE
8
BLACK
6
CONTINUOUS
10
6.02684
20
-3.39694
11
6.026
21
-3.40192
0
LINE
8
BLACK
6
CONTINUOUS
10
6.026
20
-3.40192
11
6.02379
21
-3.40648
0
LINE
8
BLACK
6
CONTINUOUS
10
6.02379
20
-3.40648
11
6.0204
21
-3.41023
0
LINE
8
BLACK
6
CONTINUOUS
10
6.0204
20
-3.41023
11
6.01609
21
-3.41288
0
LINE
8
BLACK
6
CONTINUOUS
10
6.01609
20
-3.41288
11
6.01121
21
-3.41421
0
LINE
8
BLACK
6
CONTINUOUS
10
6.01121
20
-3.41421
11
6.00615
21
-3.41411
0
LINE
8
BLACK
6
CONTINUOUS
10
6.00615
20
-3.41411
11
6.00132
21
-3.4126
0
LINE
8
BLACK
6
CONTINUOUS
10
6.00132
20
-3.4126
11
5.99711
21
-3.4098
0
LINE
8
BLACK
6
CONTINUOUS
10
5.99711
20
-3.4098
11
5.99385
21
-3.40593
0
LINE
8
BLACK
6
CONTINUOUS
10
5.99385
20
-3.40593
11
5.99181
21
-3.4013
0
LINE
8
BLACK
6
CONTINUOUS
10
5.99181
20
-3.4013
11
5.99116
21
-3.39628
0
LINE
8
BLACK
6
CONTINUOUS
10
5.99116
20
-3.39628
11
5.99194
21
-3.39128
0
LINE
8
BLACK
6
CONTINUOUS
10
5.99194
20
-3.39128
11
5.99409
21
-3.3867
0
LINE
8
BLACK
6
CONTINUOUS
10
5.99409
20
-3.3867
11
5.99744
21
-3.38291
0
LINE
8
BLACK
6
CONTINUOUS
10
5.99744
20
-3.38291
11
6.00171
21
-3.38021
0
LINE
8
BLACK
6
CONTINUOUS
10
6.00171
20
-3.38021
11
6.00658
21
-3.37882
0
LINE
8
BLACK
6
CONTINUOUS
10
6.00658
20
-3.37882
11
6.01164
21
-3.37885
0
CIRCLE
8
BLACK
10
6.009
20
-3.3965
40
0.00984252
0
CIRCLE
8
BLACK
10
6.184
20
-4.1965
40
0.00984252
0
CIRCLE
8
BLACK
10
6.109
20
-4.6465
40
0.00984252
0
CIRCLE
8
BLACK
10
5.709
20
-3.9465
40
0.00984252
0
CIRCLE
8
BLACK
10
6.209
20
-4.484
40
0.00984252
0
CIRCLE
8
BLACK
10
6.309
20
-4.2715
40
0.00984252
0
CIRCLE
8
BLACK
10
6.109
20
-4.5465
40
0.00984252
0
CIRCLE
8
BLACK
10
5.7715
20
-3.6965
40
0.00984252
0
CIRCLE
8
BLACK
10
5.5715
20
-4.8215
40
0.00984252
0
CIRCLE
8
BLACK
10
6.0965
20
-3.559
40
0.00984252
0
CIRCLE
8
BLACK
10
5.7215
20
-4.8465
40
0.00984252
0
CIRCLE
8
BLACK
10
6.2465
20
-3.8465
40
0.00984252
0
CIRCLE
8
BLACK
10
6.309
20
-4.459
40
0.00984252
0
CIRCLE
8
BLACK
10
6.3215
20
-3.984
40
0.00984252
0
CIRCLE
8
BLACK
10
6.109
20
-4.5965
40
0.00984252
0
CIRCLE
8
BLACK
10
5.7715
20
-3.7465
40
0.00984252
0
CIRCLE
8
BLACK
10
5.984
20
-4.4215
40
0.00984252
0
CIRCLE
8
BLACK
10
5.6715
20
-4.859
40
0.00984252
0
CIRCLE
8
BLACK
10
6.0965
20
-3.459
40
0.00984252
0
CIRCLE
8
BLACK
10
6.2715
20
-3.884
40
0.00984252
0
CIRCLE
8
BLACK
10
5.7715
20
-3.5965
40
0.00984252
0
CIRCLE
8
BLACK
10
5.7715
20
-3.5465
40
0.00984252
0
CIRCLE
8
BLACK
10
6.3215
20
-3.934
40
0.00984252
0
CIRCLE
8
BLACK
10
5.909
20
-3.3965
40
0.00984252
0
CIRCLE
8
BLACK
10
5.734
20
-4.184
40
0.00984252
0
CIRCLE
8
BLACK
10
5.984
20
-4.1965
40
0.00984252
0
CIRCLE
8
BLACK
10
6.159
20
-4.1215
40
0.00984252
0
CIRCLE
8
BLACK
10
6.109
20
-4.809
40
0.00984252
0
CIRCLE
8
BLACK
10
5.5965
20
-3.6965
40
0.00984252
0
CIRCLE
8
BLACK
10
5.8715
20
-4.8465
40
0.00984252
0
CIRCLE
8
BLACK
10
6.134
20
-4.1965
40
0.00984252
0
CIRCLE
8
BLACK
10
5.7715
20
-3.6465
40
0.00984252
0
CIRCLE
8
BLACK
10
6.0965
20
-3.609
40
0.00984252
0
CIRCLE
8
BLACK
10
6.309
20
-3.7215
40
0.00984252
0
CIRCLE
8
BLACK
10
6.0965
20
-3.659
40
0.00984252
0
CIRCLE
8
BLACK
10
6.259
20
-4.1215
40
0.00984252
0
CIRCLE
8
BLACK
10
6.059
20
-3.4215
40
0.00984252
0
CIRCLE
8
BLACK
10
5.7715
20
-3.4965
40
0.00984252
0
CIRCLE
8
BLACK
10
5.934
20
-4.8465
40
0.00984252
0
CIRCLE
8
BLACK
10
5.709
20
-3.9965
40
0.00984252
0
CIRCLE
8
BLACK
10
5.834
20
-3.984
40
0.00984252
0
CIRCLE
8
BLACK
10
6.309
20
-4.3965
40
0.00984252
0
CIRCLE
8
BLACK
10
6.159
20
-4.484
40
0.00984252
0
CIRCLE
8
BLACK
10
6.084
20
-4.8465
40
0.00984252
0
CIRCLE
8
BLACK
10
5.6215
20
-4.8465
40
0.00984252
0
CIRCLE
8
BLACK
10
5.9215
20
-4.209
40
0.00984252
0
CIRCLE
8
BLACK
10
5.5465
20
-4.259
40
0.00984252
0
CIRCLE
8
BLACK
10
5.5965
20
-3.6465
40
0.00984252
0
CIRCLE
8
BLACK
10
6.034
20
-4.8465
40
0.00984252
0
CIRCLE
8
BLACK
10
6.034
20
-4.1965
40
0.00984252
0
CIRCLE
8
BLACK
10
5.4715
20
-4.259
40
0.00984252
0
CIRCLE
8
BLACK
10
5.859
20
-3.3965
40
0.00984252
0
CIRCLE
8
BLACK
10
6.084
20
-4.1965
40
0.00984252
0
CIRCLE
8
BLACK
10
6.0215
20
-3.9215
40
0.00984252
0
CIRCLE
8
BLACK
10
6.2465
20
-3.784
40
0.00984252
0
CIRCLE
8
BLACK
10
6.259
20
-3.7215
40
0.00984252
0
CIRCLE
8
BLACK
10
6.209
20
-4.1215
40
0.00984252
0
CIRCLE
8
BLACK
10
5.7715
20
-3.7965
40
0.00984252
0
CIRCLE
8
BLACK
10
6.309
20
-4.334
40
0.00984252
0
CIRCLE
8
BLACK
10
5.984
20
-4.8465
40
0.00984252
0
CIRCLE
8
BLACK
10
6.2965
20
-4.0965
40
0.00984252
0
CIRCLE
8
BLACK
10
5.7715
20
-4.8465
40
0.00984252
0
CIRCLE
8
BLACK
10
5.8465
20
-3.9465
40
0.00984252
0
CIRCLE
8
BLACK
10
5.959
20
-3.3965
40
0.00984252
0
CIRCLE
8
BLACK
10
6.109
20
-4.1215
40
0.00984252
0
CIRCLE
8
BLACK
10
6.0965
20
-3.509
40
0.00984252
0
CIRCLE
8
BLACK
10
6.059
20
-4.1215
40
0.00984252
0
CIRCLE
8
BLACK
10
6.234
20
-4.1965
40
0.00984252
0
CIRCLE
8
BLACK
10
6.2965
20
-4.209
40
0.00984252
0
CIRCLE
8
BLACK
10
5.7715
20
-3.434
40
0.00984252
0
CIRCLE
8
BLACK
10
6.259
20
-4.484
40
0.00984252
0
CIRCLE
8
BLACK
10
6.109
20
-4.4965
40
0.00984252
0
CIRCLE
8
BLACK
10
5.8215
20
-3.4215
40
0.00984252
0
CIRCLE
8
BLACK
10
6.0215
20
-4.159
40
0.00984252
0
CIRCLE
8
BLACK
10
6.3215
20
-4.0465
40
0.00984252
0
CIRCLE
8
BLACK
10
5.8215
20
-4.8465
40
0.00984252
0
CIRCLE
8
BLACK
10
5.759
20
-4.0715
40
0.00787402
  0
ENDSEC
  0
EOF
