  0
SECTION
  2
HEADER
  9
$ANGBASE
  50
0.0
  9
$ANGDIR
  70
1
  9
$MEASUREMENT
  70
0
  0
ENDSEC
  0
SECTION
  2
TABLES
  0
TABLE
  2
LTYPE
  70
4
  0
LTYPE
  5
40F
  2
CONTINUOUS
  70
0
  3
Solid line
  72
65
  73
0
  40
0.0
  0
LTYPE
  5
410
  2
DASHDOT
 70
0
  3
Dash Dot ____ _ ____ _
 72
65
 73
4
 40
2.0
 49
1.25
 49
-0.25
 49
0.25
 49
-0.25
  0
LTYPE
  5
411
  2
DASHED
 70
0
  3
Dashed __ __ __ __ __
 72
65
 73
2
 40
0.75
 49
0.5
 49
-0.25
  0
LTYPE
  5
43B
  2
DOTTED
 70
0
  3
Dotted .  .  .  .
 72
65
 73
2
 40
0.2
 49
0.0
 49
-0.2
  0
ENDTAB
  0
TABLE
  2
STYLE
  70
4
  0
STYLE
  2
KICAD
  70
0
  40
0
  41
1
  42
1
  50
0
  71
0
  3
isocp.shx
  0
STYLE
  2
KICADB
  70
0
  40
0
  41
1
  42
1
  50
0
  71
0
  3
isocp.shx
  0
STYLE
  2
KICADI
  70
0
  40
0
  41
1
  42
1
  50
15
  71
0
  3
isocp.shx
  0
STYLE
  2
KICADBI
  70
0
  40
0
  41
1
  42
1
  50
15
  71
0
  3
isocp.shx
  0
ENDTAB
  0
TABLE
  2
LAYER
  70
1
  0
LAYER
  2
BLACK
  70
0
  62
7
  6
CONTINUOUS
  0
ENDTAB
  0
ENDSEC
  0
SECTION
  2
ENTITIES
0
LINE
8
BLACK
6
CONTINUOUS
10
5.45515
20
-4.61621
11
5.46863
21
-4.61798
0
LINE
8
BLACK
6
CONTINUOUS
10
5.46863
20
-4.61798
11
5.48182
21
-4.62129
0
LINE
8
BLACK
6
CONTINUOUS
10
5.48182
20
-4.62129
11
5.49454
21
-4.6261
0
LINE
8
BLACK
6
CONTINUOUS
10
5.49454
20
-4.6261
11
5.50662
21
-4.63234
0
LINE
8
BLACK
6
CONTINUOUS
10
5.50662
20
-4.63234
11
5.51791
21
-4.63992
0
LINE
8
BLACK
6
CONTINUOUS
10
5.51791
20
-4.63992
11
5.52825
21
-4.64875
0
LINE
8
BLACK
6
CONTINUOUS
10
5.52825
20
-4.64875
11
5.53751
21
-4.65871
0
LINE
8
BLACK
6
CONTINUOUS
10
5.53751
20
-4.65871
11
5.54556
21
-4.66967
0
LINE
8
BLACK
6
CONTINUOUS
10
5.54556
20
-4.66967
11
5.55229
21
-4.68148
0
LINE
8
BLACK
6
CONTINUOUS
10
5.55229
20
-4.68148
11
5.55763
21
-4.69399
0
LINE
8
BLACK
6
CONTINUOUS
10
5.55763
20
-4.69399
11
5.56149
21
-4.70703
0
LINE
8
BLACK
6
CONTINUOUS
10
5.56149
20
-4.70703
11
5.56383
21
-4.72042
0
LINE
8
BLACK
6
CONTINUOUS
10
5.56383
20
-4.72042
11
5.56461
21
-4.734
0
LINE
8
BLACK
6
CONTINUOUS
10
5.56461
20
-4.734
11
5.56438
21
-4.74142
0
LINE
8
BLACK
6
CONTINUOUS
10
5.56438
20
-4.74142
11
5.56274
21
-4.75492
0
LINE
8
BLACK
6
CONTINUOUS
10
5.56274
20
-4.75492
11
5.55957
21
-4.76814
0
LINE
8
BLACK
6
CONTINUOUS
10
5.55957
20
-4.76814
11
5.5549
21
-4.78091
0
LINE
8
BLACK
6
CONTINUOUS
10
5.5549
20
-4.78091
11
5.54879
21
-4.79306
0
LINE
8
BLACK
6
CONTINUOUS
10
5.54879
20
-4.79306
11
5.54132
21
-4.80442
0
LINE
8
BLACK
6
CONTINUOUS
10
5.54132
20
-4.80442
11
5.5326
21
-4.81485
0
LINE
8
BLACK
6
CONTINUOUS
10
5.5326
20
-4.81485
11
5.52274
21
-4.82421
0
LINE
8
BLACK
6
CONTINUOUS
10
5.52274
20
-4.82421
11
5.51186
21
-4.83238
0
LINE
8
BLACK
6
CONTINUOUS
10
5.51186
20
-4.83238
11
5.50012
21
-4.83924
0
LINE
8
BLACK
6
CONTINUOUS
10
5.50012
20
-4.83924
11
5.48767
21
-4.8447
0
LINE
8
BLACK
6
CONTINUOUS
10
5.48767
20
-4.8447
11
5.47467
21
-4.8487
0
LINE
8
BLACK
6
CONTINUOUS
10
5.47467
20
-4.8487
11
5.4613
21
-4.85118
0
LINE
8
BLACK
6
CONTINUOUS
10
5.4613
20
-4.85118
11
5.44774
21
-4.8521
0
LINE
8
BLACK
6
CONTINUOUS
10
5.44774
20
-4.8521
11
5.43415
21
-4.85146
0
LINE
8
BLACK
6
CONTINUOUS
10
5.43415
20
-4.85146
11
5.42074
21
-4.84927
0
LINE
8
BLACK
6
CONTINUOUS
10
5.42074
20
-4.84927
11
5.40766
21
-4.84554
0
LINE
8
BLACK
6
CONTINUOUS
10
5.40766
20
-4.84554
11
5.39509
21
-4.84034
0
LINE
8
BLACK
6
CONTINUOUS
10
5.39509
20
-4.84034
11
5.38321
21
-4.83372
0
LINE
8
BLACK
6
CONTINUOUS
10
5.38321
20
-4.83372
11
5.37217
21
-4.82579
0
LINE
8
BLACK
6
CONTINUOUS
10
5.37217
20
-4.82579
11
5.36211
21
-4.81664
0
LINE
8
BLACK
6
CONTINUOUS
10
5.36211
20
-4.81664
11
5.35317
21
-4.80639
0
LINE
8
BLACK
6
CONTINUOUS
10
5.35317
20
-4.80639
11
5.34547
21
-4.79518
0
LINE
8
BLACK
6
CONTINUOUS
10
5.34547
20
-4.79518
11
5.33911
21
-4.78317
0
LINE
8
BLACK
6
CONTINUOUS
10
5.33911
20
-4.78317
11
5.33417
21
-4.7705
0
LINE
8
BLACK
6
CONTINUOUS
10
5.33417
20
-4.7705
11
5.33072
21
-4.75735
0
LINE
8
BLACK
6
CONTINUOUS
10
5.33072
20
-4.75735
11
5.3288
21
-4.74388
0
LINE
8
BLACK
6
CONTINUOUS
10
5.3288
20
-4.74388
11
5.32845
21
-4.73029
0
LINE
8
BLACK
6
CONTINUOUS
10
5.32845
20
-4.73029
11
5.32966
21
-4.71675
0
LINE
8
BLACK
6
CONTINUOUS
10
5.32966
20
-4.71675
11
5.33241
21
-4.70343
0
LINE
8
BLACK
6
CONTINUOUS
10
5.33241
20
-4.70343
11
5.33668
21
-4.69052
0
LINE
8
BLACK
6
CONTINUOUS
10
5.33668
20
-4.69052
11
5.34241
21
-4.67819
0
LINE
8
BLACK
6
CONTINUOUS
10
5.34241
20
-4.67819
11
5.34951
21
-4.66659
0
LINE
8
BLACK
6
CONTINUOUS
10
5.34951
20
-4.66659
11
5.3579
21
-4.65589
0
LINE
8
BLACK
6
CONTINUOUS
10
5.3579
20
-4.65589
11
5.36747
21
-4.64623
0
LINE
8
BLACK
6
CONTINUOUS
10
5.36747
20
-4.64623
11
5.37808
21
-4.63773
0
LINE
8
BLACK
6
CONTINUOUS
10
5.37808
20
-4.63773
11
5.3896
21
-4.6305
0
LINE
8
BLACK
6
CONTINUOUS
10
5.3896
20
-4.6305
11
5.40187
21
-4.62465
0
LINE
8
BLACK
6
CONTINUOUS
10
5.40187
20
-4.62465
11
5.41474
21
-4.62024
0
LINE
8
BLACK
6
CONTINUOUS
10
5.41474
20
-4.62024
11
5.42802
21
-4.61734
0
LINE
8
BLACK
6
CONTINUOUS
10
5.42802
20
-4.61734
11
5.44155
21
-4.61599
0
LINE
8
BLACK
6
CONTINUOUS
10
5.44155
20
-4.61599
11
5.45515
21
-4.61621
0
LINE
8
BLACK
6
CONTINUOUS
10
6.25515
20
-4.61621
11
6.26863
21
-4.61798
0
LINE
8
BLACK
6
CONTINUOUS
10
6.26863
20
-4.61798
11
6.28182
21
-4.62129
0
LINE
8
BLACK
6
CONTINUOUS
10
6.28182
20
-4.62129
11
6.29454
21
-4.6261
0
LINE
8
BLACK
6
CONTINUOUS
10
6.29454
20
-4.6261
11
6.30662
21
-4.63234
0
LINE
8
BLACK
6
CONTINUOUS
10
6.30662
20
-4.63234
11
6.31791
21
-4.63992
0
LINE
8
BLACK
6
CONTINUOUS
10
6.31791
20
-4.63992
11
6.32825
21
-4.64875
0
LINE
8
BLACK
6
CONTINUOUS
10
6.32825
20
-4.64875
11
6.33751
21
-4.65871
0
LINE
8
BLACK
6
CONTINUOUS
10
6.33751
20
-4.65871
11
6.34556
21
-4.66967
0
LINE
8
BLACK
6
CONTINUOUS
10
6.34556
20
-4.66967
11
6.35229
21
-4.68148
0
LINE
8
BLACK
6
CONTINUOUS
10
6.35229
20
-4.68148
11
6.35763
21
-4.69399
0
LINE
8
BLACK
6
CONTINUOUS
10
6.35763
20
-4.69399
11
6.36149
21
-4.70703
0
LINE
8
BLACK
6
CONTINUOUS
10
6.36149
20
-4.70703
11
6.36383
21
-4.72042
0
LINE
8
BLACK
6
CONTINUOUS
10
6.36383
20
-4.72042
11
6.36461
21
-4.734
0
LINE
8
BLACK
6
CONTINUOUS
10
6.36461
20
-4.734
11
6.36438
21
-4.74142
0
LINE
8
BLACK
6
CONTINUOUS
10
6.36438
20
-4.74142
11
6.36274
21
-4.75492
0
LINE
8
BLACK
6
CONTINUOUS
10
6.36274
20
-4.75492
11
6.35957
21
-4.76814
0
LINE
8
BLACK
6
CONTINUOUS
10
6.35957
20
-4.76814
11
6.3549
21
-4.78091
0
LINE
8
BLACK
6
CONTINUOUS
10
6.3549
20
-4.78091
11
6.34879
21
-4.79306
0
LINE
8
BLACK
6
CONTINUOUS
10
6.34879
20
-4.79306
11
6.34132
21
-4.80442
0
LINE
8
BLACK
6
CONTINUOUS
10
6.34132
20
-4.80442
11
6.3326
21
-4.81485
0
LINE
8
BLACK
6
CONTINUOUS
10
6.3326
20
-4.81485
11
6.32274
21
-4.82421
0
LINE
8
BLACK
6
CONTINUOUS
10
6.32274
20
-4.82421
11
6.31186
21
-4.83238
0
LINE
8
BLACK
6
CONTINUOUS
10
6.31186
20
-4.83238
11
6.30012
21
-4.83924
0
LINE
8
BLACK
6
CONTINUOUS
10
6.30012
20
-4.83924
11
6.28767
21
-4.8447
0
LINE
8
BLACK
6
CONTINUOUS
10
6.28767
20
-4.8447
11
6.27467
21
-4.8487
0
LINE
8
BLACK
6
CONTINUOUS
10
6.27467
20
-4.8487
11
6.2613
21
-4.85118
0
LINE
8
BLACK
6
CONTINUOUS
10
6.2613
20
-4.85118
11
6.24774
21
-4.8521
0
LINE
8
BLACK
6
CONTINUOUS
10
6.24774
20
-4.8521
11
6.23415
21
-4.85146
0
LINE
8
BLACK
6
CONTINUOUS
10
6.23415
20
-4.85146
11
6.22074
21
-4.84927
0
LINE
8
BLACK
6
CONTINUOUS
10
6.22074
20
-4.84927
11
6.20766
21
-4.84554
0
LINE
8
BLACK
6
CONTINUOUS
10
6.20766
20
-4.84554
11
6.19509
21
-4.84034
0
LINE
8
BLACK
6
CONTINUOUS
10
6.19509
20
-4.84034
11
6.18321
21
-4.83372
0
LINE
8
BLACK
6
CONTINUOUS
10
6.18321
20
-4.83372
11
6.17217
21
-4.82579
0
LINE
8
BLACK
6
CONTINUOUS
10
6.17217
20
-4.82579
11
6.16211
21
-4.81664
0
LINE
8
BLACK
6
CONTINUOUS
10
6.16211
20
-4.81664
11
6.15317
21
-4.80639
0
LINE
8
BLACK
6
CONTINUOUS
10
6.15317
20
-4.80639
11
6.14547
21
-4.79518
0
LINE
8
BLACK
6
CONTINUOUS
10
6.14547
20
-4.79518
11
6.13911
21
-4.78317
0
LINE
8
BLACK
6
CONTINUOUS
10
6.13911
20
-4.78317
11
6.13417
21
-4.7705
0
LINE
8
BLACK
6
CONTINUOUS
10
6.13417
20
-4.7705
11
6.13072
21
-4.75735
0
LINE
8
BLACK
6
CONTINUOUS
10
6.13072
20
-4.75735
11
6.1288
21
-4.74388
0
LINE
8
BLACK
6
CONTINUOUS
10
6.1288
20
-4.74388
11
6.12845
21
-4.73029
0
LINE
8
BLACK
6
CONTINUOUS
10
6.12845
20
-4.73029
11
6.12966
21
-4.71675
0
LINE
8
BLACK
6
CONTINUOUS
10
6.12966
20
-4.71675
11
6.13241
21
-4.70343
0
LINE
8
BLACK
6
CONTINUOUS
10
6.13241
20
-4.70343
11
6.13668
21
-4.69052
0
LINE
8
BLACK
6
CONTINUOUS
10
6.13668
20
-4.69052
11
6.14241
21
-4.67819
0
LINE
8
BLACK
6
CONTINUOUS
10
6.14241
20
-4.67819
11
6.14951
21
-4.66659
0
LINE
8
BLACK
6
CONTINUOUS
10
6.14951
20
-4.66659
11
6.1579
21
-4.65589
0
LINE
8
BLACK
6
CONTINUOUS
10
6.1579
20
-4.65589
11
6.16747
21
-4.64623
0
LINE
8
BLACK
6
CONTINUOUS
10
6.16747
20
-4.64623
11
6.17808
21
-4.63773
0
LINE
8
BLACK
6
CONTINUOUS
10
6.17808
20
-4.63773
11
6.1896
21
-4.6305
0
LINE
8
BLACK
6
CONTINUOUS
10
6.1896
20
-4.6305
11
6.20187
21
-4.62465
0
LINE
8
BLACK
6
CONTINUOUS
10
6.20187
20
-4.62465
11
6.21474
21
-4.62024
0
LINE
8
BLACK
6
CONTINUOUS
10
6.21474
20
-4.62024
11
6.22802
21
-4.61734
0
LINE
8
BLACK
6
CONTINUOUS
10
6.22802
20
-4.61734
11
6.24155
21
-4.61599
0
LINE
8
BLACK
6
CONTINUOUS
10
6.24155
20
-4.61599
11
6.25515
21
-4.61621
0
LINE
8
BLACK
6
CONTINUOUS
10
5.81803
20
-4.7228
11
5.81933
21
-4.72367
0
LINE
8
BLACK
6
CONTINUOUS
10
5.81933
20
-4.72367
11
5.8202
21
-4.72497
0
LINE
8
BLACK
6
CONTINUOUS
10
5.8202
20
-4.72497
11
5.8205
21
-4.7265
0
LINE
8
BLACK
6
CONTINUOUS
10
5.8205
20
-4.7265
11
5.8205
21
-4.7915
0
LINE
8
BLACK
6
CONTINUOUS
10
5.8205
20
-4.7915
11
5.8202
21
-4.79303
0
LINE
8
BLACK
6
CONTINUOUS
10
5.8202
20
-4.79303
11
5.81933
21
-4.79433
0
LINE
8
BLACK
6
CONTINUOUS
10
5.81933
20
-4.79433
11
5.81803
21
-4.7952
0
LINE
8
BLACK
6
CONTINUOUS
10
5.81803
20
-4.7952
11
5.8165
21
-4.7955
0
LINE
8
BLACK
6
CONTINUOUS
10
5.8165
20
-4.7955
11
5.7515
21
-4.7955
0
LINE
8
BLACK
6
CONTINUOUS
10
5.7515
20
-4.7955
11
5.74997
21
-4.7952
0
LINE
8
BLACK
6
CONTINUOUS
10
5.74997
20
-4.7952
11
5.74867
21
-4.79433
0
LINE
8
BLACK
6
CONTINUOUS
10
5.74867
20
-4.79433
11
5.7478
21
-4.79303
0
LINE
8
BLACK
6
CONTINUOUS
10
5.7478
20
-4.79303
11
5.7475
21
-4.7915
0
LINE
8
BLACK
6
CONTINUOUS
10
5.7475
20
-4.7915
11
5.7475
21
-4.7265
0
LINE
8
BLACK
6
CONTINUOUS
10
5.7475
20
-4.7265
11
5.7478
21
-4.72497
0
LINE
8
BLACK
6
CONTINUOUS
10
5.7478
20
-4.72497
11
5.74867
21
-4.72367
0
LINE
8
BLACK
6
CONTINUOUS
10
5.74867
20
-4.72367
11
5.74997
21
-4.7228
0
LINE
8
BLACK
6
CONTINUOUS
10
5.74997
20
-4.7228
11
5.7515
21
-4.7225
0
LINE
8
BLACK
6
CONTINUOUS
10
5.7515
20
-4.7225
11
5.8165
21
-4.7225
0
LINE
8
BLACK
6
CONTINUOUS
10
5.8165
20
-4.7225
11
5.81803
21
-4.7228
0
LINE
8
BLACK
6
CONTINUOUS
10
5.91803
20
-4.7228
11
5.91933
21
-4.72367
0
LINE
8
BLACK
6
CONTINUOUS
10
5.91933
20
-4.72367
11
5.9202
21
-4.72497
0
LINE
8
BLACK
6
CONTINUOUS
10
5.9202
20
-4.72497
11
5.9205
21
-4.7265
0
LINE
8
BLACK
6
CONTINUOUS
10
5.9205
20
-4.7265
11
5.9205
21
-4.7915
0
LINE
8
BLACK
6
CONTINUOUS
10
5.9205
20
-4.7915
11
5.9202
21
-4.79303
0
LINE
8
BLACK
6
CONTINUOUS
10
5.9202
20
-4.79303
11
5.91933
21
-4.79433
0
LINE
8
BLACK
6
CONTINUOUS
10
5.91933
20
-4.79433
11
5.91803
21
-4.7952
0
LINE
8
BLACK
6
CONTINUOUS
10
5.91803
20
-4.7952
11
5.9165
21
-4.7955
0
LINE
8
BLACK
6
CONTINUOUS
10
5.9165
20
-4.7955
11
5.8515
21
-4.7955
0
LINE
8
BLACK
6
CONTINUOUS
10
5.8515
20
-4.7955
11
5.84997
21
-4.7952
0
LINE
8
BLACK
6
CONTINUOUS
10
5.84997
20
-4.7952
11
5.84867
21
-4.79433
0
LINE
8
BLACK
6
CONTINUOUS
10
5.84867
20
-4.79433
11
5.8478
21
-4.79303
0
LINE
8
BLACK
6
CONTINUOUS
10
5.8478
20
-4.79303
11
5.8475
21
-4.7915
0
LINE
8
BLACK
6
CONTINUOUS
10
5.8475
20
-4.7915
11
5.8475
21
-4.7265
0
LINE
8
BLACK
6
CONTINUOUS
10
5.8475
20
-4.7265
11
5.8478
21
-4.72497
0
LINE
8
BLACK
6
CONTINUOUS
10
5.8478
20
-4.72497
11
5.84867
21
-4.72367
0
LINE
8
BLACK
6
CONTINUOUS
10
5.84867
20
-4.72367
11
5.84997
21
-4.7228
0
LINE
8
BLACK
6
CONTINUOUS
10
5.84997
20
-4.7228
11
5.8515
21
-4.7225
0
LINE
8
BLACK
6
CONTINUOUS
10
5.8515
20
-4.7225
11
5.9165
21
-4.7225
0
LINE
8
BLACK
6
CONTINUOUS
10
5.9165
20
-4.7225
11
5.91803
21
-4.7228
0
LINE
8
BLACK
6
CONTINUOUS
10
6.01803
20
-4.7228
11
6.01933
21
-4.72367
0
LINE
8
BLACK
6
CONTINUOUS
10
6.01933
20
-4.72367
11
6.0202
21
-4.72497
0
LINE
8
BLACK
6
CONTINUOUS
10
6.0202
20
-4.72497
11
6.0205
21
-4.7265
0
LINE
8
BLACK
6
CONTINUOUS
10
6.0205
20
-4.7265
11
6.0205
21
-4.7915
0
LINE
8
BLACK
6
CONTINUOUS
10
6.0205
20
-4.7915
11
6.0202
21
-4.79303
0
LINE
8
BLACK
6
CONTINUOUS
10
6.0202
20
-4.79303
11
6.01933
21
-4.79433
0
LINE
8
BLACK
6
CONTINUOUS
10
6.01933
20
-4.79433
11
6.01803
21
-4.7952
0
LINE
8
BLACK
6
CONTINUOUS
10
6.01803
20
-4.7952
11
6.0165
21
-4.7955
0
LINE
8
BLACK
6
CONTINUOUS
10
6.0165
20
-4.7955
11
5.9515
21
-4.7955
0
LINE
8
BLACK
6
CONTINUOUS
10
5.9515
20
-4.7955
11
5.94997
21
-4.7952
0
LINE
8
BLACK
6
CONTINUOUS
10
5.94997
20
-4.7952
11
5.94867
21
-4.79433
0
LINE
8
BLACK
6
CONTINUOUS
10
5.94867
20
-4.79433
11
5.9478
21
-4.79303
0
LINE
8
BLACK
6
CONTINUOUS
10
5.9478
20
-4.79303
11
5.9475
21
-4.7915
0
LINE
8
BLACK
6
CONTINUOUS
10
5.9475
20
-4.7915
11
5.9475
21
-4.7265
0
LINE
8
BLACK
6
CONTINUOUS
10
5.9475
20
-4.7265
11
5.9478
21
-4.72497
0
LINE
8
BLACK
6
CONTINUOUS
10
5.9478
20
-4.72497
11
5.94867
21
-4.72367
0
LINE
8
BLACK
6
CONTINUOUS
10
5.94867
20
-4.72367
11
5.94997
21
-4.7228
0
LINE
8
BLACK
6
CONTINUOUS
10
5.94997
20
-4.7228
11
5.9515
21
-4.7225
0
LINE
8
BLACK
6
CONTINUOUS
10
5.9515
20
-4.7225
11
6.0165
21
-4.7225
0
LINE
8
BLACK
6
CONTINUOUS
10
6.0165
20
-4.7225
11
6.01803
21
-4.7228
0
LINE
8
BLACK
6
CONTINUOUS
10
5.81803
20
-4.6228
11
5.81933
21
-4.62367
0
LINE
8
BLACK
6
CONTINUOUS
10
5.81933
20
-4.62367
11
5.8202
21
-4.62497
0
LINE
8
BLACK
6
CONTINUOUS
10
5.8202
20
-4.62497
11
5.8205
21
-4.6265
0
LINE
8
BLACK
6
CONTINUOUS
10
5.8205
20
-4.6265
11
5.8205
21
-4.6915
0
LINE
8
BLACK
6
CONTINUOUS
10
5.8205
20
-4.6915
11
5.8202
21
-4.69303
0
LINE
8
BLACK
6
CONTINUOUS
10
5.8202
20
-4.69303
11
5.81933
21
-4.69433
0
LINE
8
BLACK
6
CONTINUOUS
10
5.81933
20
-4.69433
11
5.81803
21
-4.6952
0
LINE
8
BLACK
6
CONTINUOUS
10
5.81803
20
-4.6952
11
5.8165
21
-4.6955
0
LINE
8
BLACK
6
CONTINUOUS
10
5.8165
20
-4.6955
11
5.7515
21
-4.6955
0
LINE
8
BLACK
6
CONTINUOUS
10
5.7515
20
-4.6955
11
5.74997
21
-4.6952
0
LINE
8
BLACK
6
CONTINUOUS
10
5.74997
20
-4.6952
11
5.74867
21
-4.69433
0
LINE
8
BLACK
6
CONTINUOUS
10
5.74867
20
-4.69433
11
5.7478
21
-4.69303
0
LINE
8
BLACK
6
CONTINUOUS
10
5.7478
20
-4.69303
11
5.7475
21
-4.6915
0
LINE
8
BLACK
6
CONTINUOUS
10
5.7475
20
-4.6915
11
5.7475
21
-4.6265
0
LINE
8
BLACK
6
CONTINUOUS
10
5.7475
20
-4.6265
11
5.7478
21
-4.62497
0
LINE
8
BLACK
6
CONTINUOUS
10
5.7478
20
-4.62497
11
5.74867
21
-4.62367
0
LINE
8
BLACK
6
CONTINUOUS
10
5.74867
20
-4.62367
11
5.74997
21
-4.6228
0
LINE
8
BLACK
6
CONTINUOUS
10
5.74997
20
-4.6228
11
5.7515
21
-4.6225
0
LINE
8
BLACK
6
CONTINUOUS
10
5.7515
20
-4.6225
11
5.8165
21
-4.6225
0
LINE
8
BLACK
6
CONTINUOUS
10
5.8165
20
-4.6225
11
5.81803
21
-4.6228
0
LINE
8
BLACK
6
CONTINUOUS
10
5.91803
20
-4.6228
11
5.91933
21
-4.62367
0
LINE
8
BLACK
6
CONTINUOUS
10
5.91933
20
-4.62367
11
5.9202
21
-4.62497
0
LINE
8
BLACK
6
CONTINUOUS
10
5.9202
20
-4.62497
11
5.9205
21
-4.6265
0
LINE
8
BLACK
6
CONTINUOUS
10
5.9205
20
-4.6265
11
5.9205
21
-4.6915
0
LINE
8
BLACK
6
CONTINUOUS
10
5.9205
20
-4.6915
11
5.9202
21
-4.69303
0
LINE
8
BLACK
6
CONTINUOUS
10
5.9202
20
-4.69303
11
5.91933
21
-4.69433
0
LINE
8
BLACK
6
CONTINUOUS
10
5.91933
20
-4.69433
11
5.91803
21
-4.6952
0
LINE
8
BLACK
6
CONTINUOUS
10
5.91803
20
-4.6952
11
5.9165
21
-4.6955
0
LINE
8
BLACK
6
CONTINUOUS
10
5.9165
20
-4.6955
11
5.8515
21
-4.6955
0
LINE
8
BLACK
6
CONTINUOUS
10
5.8515
20
-4.6955
11
5.84997
21
-4.6952
0
LINE
8
BLACK
6
CONTINUOUS
10
5.84997
20
-4.6952
11
5.84867
21
-4.69433
0
LINE
8
BLACK
6
CONTINUOUS
10
5.84867
20
-4.69433
11
5.8478
21
-4.69303
0
LINE
8
BLACK
6
CONTINUOUS
10
5.8478
20
-4.69303
11
5.8475
21
-4.6915
0
LINE
8
BLACK
6
CONTINUOUS
10
5.8475
20
-4.6915
11
5.8475
21
-4.6265
0
LINE
8
BLACK
6
CONTINUOUS
10
5.8475
20
-4.6265
11
5.8478
21
-4.62497
0
LINE
8
BLACK
6
CONTINUOUS
10
5.8478
20
-4.62497
11
5.84867
21
-4.62367
0
LINE
8
BLACK
6
CONTINUOUS
10
5.84867
20
-4.62367
11
5.84997
21
-4.6228
0
LINE
8
BLACK
6
CONTINUOUS
10
5.84997
20
-4.6228
11
5.8515
21
-4.6225
0
LINE
8
BLACK
6
CONTINUOUS
10
5.8515
20
-4.6225
11
5.9165
21
-4.6225
0
LINE
8
BLACK
6
CONTINUOUS
10
5.9165
20
-4.6225
11
5.91803
21
-4.6228
0
LINE
8
BLACK
6
CONTINUOUS
10
6.01803
20
-4.6228
11
6.01933
21
-4.62367
0
LINE
8
BLACK
6
CONTINUOUS
10
6.01933
20
-4.62367
11
6.0202
21
-4.62497
0
LINE
8
BLACK
6
CONTINUOUS
10
6.0202
20
-4.62497
11
6.0205
21
-4.6265
0
LINE
8
BLACK
6
CONTINUOUS
10
6.0205
20
-4.6265
11
6.0205
21
-4.6915
0
LINE
8
BLACK
6
CONTINUOUS
10
6.0205
20
-4.6915
11
6.0202
21
-4.69303
0
LINE
8
BLACK
6
CONTINUOUS
10
6.0202
20
-4.69303
11
6.01933
21
-4.69433
0
LINE
8
BLACK
6
CONTINUOUS
10
6.01933
20
-4.69433
11
6.01803
21
-4.6952
0
LINE
8
BLACK
6
CONTINUOUS
10
6.01803
20
-4.6952
11
6.0165
21
-4.6955
0
LINE
8
BLACK
6
CONTINUOUS
10
6.0165
20
-4.6955
11
5.9515
21
-4.6955
0
LINE
8
BLACK
6
CONTINUOUS
10
5.9515
20
-4.6955
11
5.94997
21
-4.6952
0
LINE
8
BLACK
6
CONTINUOUS
10
5.94997
20
-4.6952
11
5.94867
21
-4.69433
0
LINE
8
BLACK
6
CONTINUOUS
10
5.94867
20
-4.69433
11
5.9478
21
-4.69303
0
LINE
8
BLACK
6
CONTINUOUS
10
5.9478
20
-4.69303
11
5.9475
21
-4.6915
0
LINE
8
BLACK
6
CONTINUOUS
10
5.9475
20
-4.6915
11
5.9475
21
-4.6265
0
LINE
8
BLACK
6
CONTINUOUS
10
5.9475
20
-4.6265
11
5.9478
21
-4.62497
0
LINE
8
BLACK
6
CONTINUOUS
10
5.9478
20
-4.62497
11
5.94867
21
-4.62367
0
LINE
8
BLACK
6
CONTINUOUS
10
5.94867
20
-4.62367
11
5.94997
21
-4.6228
0
LINE
8
BLACK
6
CONTINUOUS
10
5.94997
20
-4.6228
11
5.9515
21
-4.6225
0
LINE
8
BLACK
6
CONTINUOUS
10
5.9515
20
-4.6225
11
6.0165
21
-4.6225
0
LINE
8
BLACK
6
CONTINUOUS
10
6.0165
20
-4.6225
11
6.01803
21
-4.6228
0
LINE
8
BLACK
6
CONTINUOUS
10
5.41803
20
-4.4728
11
5.41933
21
-4.47367
0
LINE
8
BLACK
6
CONTINUOUS
10
5.41933
20
-4.47367
11
5.4202
21
-4.47497
0
LINE
8
BLACK
6
CONTINUOUS
10
5.4202
20
-4.47497
11
5.4205
21
-4.4765
0
LINE
8
BLACK
6
CONTINUOUS
10
5.4205
20
-4.4765
11
5.4205
21
-4.5415
0
LINE
8
BLACK
6
CONTINUOUS
10
5.4205
20
-4.5415
11
5.4202
21
-4.54303
0
LINE
8
BLACK
6
CONTINUOUS
10
5.4202
20
-4.54303
11
5.41933
21
-4.54433
0
LINE
8
BLACK
6
CONTINUOUS
10
5.41933
20
-4.54433
11
5.41803
21
-4.5452
0
LINE
8
BLACK
6
CONTINUOUS
10
5.41803
20
-4.5452
11
5.4165
21
-4.5455
0
LINE
8
BLACK
6
CONTINUOUS
10
5.4165
20
-4.5455
11
5.3515
21
-4.5455
0
LINE
8
BLACK
6
CONTINUOUS
10
5.3515
20
-4.5455
11
5.34997
21
-4.5452
0
LINE
8
BLACK
6
CONTINUOUS
10
5.34997
20
-4.5452
11
5.34867
21
-4.54433
0
LINE
8
BLACK
6
CONTINUOUS
10
5.34867
20
-4.54433
11
5.3478
21
-4.54303
0
LINE
8
BLACK
6
CONTINUOUS
10
5.3478
20
-4.54303
11
5.3475
21
-4.5415
0
LINE
8
BLACK
6
CONTINUOUS
10
5.3475
20
-4.5415
11
5.3475
21
-4.4765
0
LINE
8
BLACK
6
CONTINUOUS
10
5.3475
20
-4.4765
11
5.3478
21
-4.47497
0
LINE
8
BLACK
6
CONTINUOUS
10
5.3478
20
-4.47497
11
5.34867
21
-4.47367
0
LINE
8
BLACK
6
CONTINUOUS
10
5.34867
20
-4.47367
11
5.34997
21
-4.4728
0
LINE
8
BLACK
6
CONTINUOUS
10
5.34997
20
-4.4728
11
5.3515
21
-4.4725
0
LINE
8
BLACK
6
CONTINUOUS
10
5.3515
20
-4.4725
11
5.4165
21
-4.4725
0
LINE
8
BLACK
6
CONTINUOUS
10
5.4165
20
-4.4725
11
5.41803
21
-4.4728
0
LINE
8
BLACK
6
CONTINUOUS
10
5.41803
20
-4.3728
11
5.41933
21
-4.37367
0
LINE
8
BLACK
6
CONTINUOUS
10
5.41933
20
-4.37367
11
5.4202
21
-4.37497
0
LINE
8
BLACK
6
CONTINUOUS
10
5.4202
20
-4.37497
11
5.4205
21
-4.3765
0
LINE
8
BLACK
6
CONTINUOUS
10
5.4205
20
-4.3765
11
5.4205
21
-4.4415
0
LINE
8
BLACK
6
CONTINUOUS
10
5.4205
20
-4.4415
11
5.4202
21
-4.44303
0
LINE
8
BLACK
6
CONTINUOUS
10
5.4202
20
-4.44303
11
5.41933
21
-4.44433
0
LINE
8
BLACK
6
CONTINUOUS
10
5.41933
20
-4.44433
11
5.41803
21
-4.4452
0
LINE
8
BLACK
6
CONTINUOUS
10
5.41803
20
-4.4452
11
5.4165
21
-4.4455
0
LINE
8
BLACK
6
CONTINUOUS
10
5.4165
20
-4.4455
11
5.3515
21
-4.4455
0
LINE
8
BLACK
6
CONTINUOUS
10
5.3515
20
-4.4455
11
5.34997
21
-4.4452
0
LINE
8
BLACK
6
CONTINUOUS
10
5.34997
20
-4.4452
11
5.34867
21
-4.44433
0
LINE
8
BLACK
6
CONTINUOUS
10
5.34867
20
-4.44433
11
5.3478
21
-4.44303
0
LINE
8
BLACK
6
CONTINUOUS
10
5.3478
20
-4.44303
11
5.3475
21
-4.4415
0
LINE
8
BLACK
6
CONTINUOUS
10
5.3475
20
-4.4415
11
5.3475
21
-4.3765
0
LINE
8
BLACK
6
CONTINUOUS
10
5.3475
20
-4.3765
11
5.3478
21
-4.37497
0
LINE
8
BLACK
6
CONTINUOUS
10
5.3478
20
-4.37497
11
5.34867
21
-4.37367
0
LINE
8
BLACK
6
CONTINUOUS
10
5.34867
20
-4.37367
11
5.34997
21
-4.3728
0
LINE
8
BLACK
6
CONTINUOUS
10
5.34997
20
-4.3728
11
5.3515
21
-4.3725
0
LINE
8
BLACK
6
CONTINUOUS
10
5.3515
20
-4.3725
11
5.4165
21
-4.3725
0
LINE
8
BLACK
6
CONTINUOUS
10
5.4165
20
-4.3725
11
5.41803
21
-4.3728
0
LINE
8
BLACK
6
CONTINUOUS
10
5.41803
20
-4.2728
11
5.41933
21
-4.27367
0
LINE
8
BLACK
6
CONTINUOUS
10
5.41933
20
-4.27367
11
5.4202
21
-4.27497
0
LINE
8
BLACK
6
CONTINUOUS
10
5.4202
20
-4.27497
11
5.4205
21
-4.2765
0
LINE
8
BLACK
6
CONTINUOUS
10
5.4205
20
-4.2765
11
5.4205
21
-4.3415
0
LINE
8
BLACK
6
CONTINUOUS
10
5.4205
20
-4.3415
11
5.4202
21
-4.34303
0
LINE
8
BLACK
6
CONTINUOUS
10
5.4202
20
-4.34303
11
5.41933
21
-4.34433
0
LINE
8
BLACK
6
CONTINUOUS
10
5.41933
20
-4.34433
11
5.41803
21
-4.3452
0
LINE
8
BLACK
6
CONTINUOUS
10
5.41803
20
-4.3452
11
5.4165
21
-4.3455
0
LINE
8
BLACK
6
CONTINUOUS
10
5.4165
20
-4.3455
11
5.3515
21
-4.3455
0
LINE
8
BLACK
6
CONTINUOUS
10
5.3515
20
-4.3455
11
5.34997
21
-4.3452
0
LINE
8
BLACK
6
CONTINUOUS
10
5.34997
20
-4.3452
11
5.34867
21
-4.34433
0
LINE
8
BLACK
6
CONTINUOUS
10
5.34867
20
-4.34433
11
5.3478
21
-4.34303
0
LINE
8
BLACK
6
CONTINUOUS
10
5.3478
20
-4.34303
11
5.3475
21
-4.3415
0
LINE
8
BLACK
6
CONTINUOUS
10
5.3475
20
-4.3415
11
5.3475
21
-4.2765
0
LINE
8
BLACK
6
CONTINUOUS
10
5.3475
20
-4.2765
11
5.3478
21
-4.27497
0
LINE
8
BLACK
6
CONTINUOUS
10
5.3478
20
-4.27497
11
5.34867
21
-4.27367
0
LINE
8
BLACK
6
CONTINUOUS
10
5.34867
20
-4.27367
11
5.34997
21
-4.2728
0
LINE
8
BLACK
6
CONTINUOUS
10
5.34997
20
-4.2728
11
5.3515
21
-4.2725
0
LINE
8
BLACK
6
CONTINUOUS
10
5.3515
20
-4.2725
11
5.4165
21
-4.2725
0
LINE
8
BLACK
6
CONTINUOUS
10
5.4165
20
-4.2725
11
5.41803
21
-4.2728
0
LINE
8
BLACK
6
CONTINUOUS
10
5.80772
20
-4.21846
11
5.81086
21
-4.22109
0
LINE
8
BLACK
6
CONTINUOUS
10
5.81086
20
-4.22109
11
5.81291
21
-4.22465
0
LINE
8
BLACK
6
CONTINUOUS
10
5.81291
20
-4.22465
11
5.81363
21
-4.22869
0
LINE
8
BLACK
6
CONTINUOUS
10
5.81363
20
-4.22869
11
5.81291
21
-4.23272
0
LINE
8
BLACK
6
CONTINUOUS
10
5.81291
20
-4.23272
11
5.81086
21
-4.23628
0
LINE
8
BLACK
6
CONTINUOUS
10
5.81086
20
-4.23628
11
5.80772
21
-4.23891
0
LINE
8
BLACK
6
CONTINUOUS
10
5.80772
20
-4.23891
11
5.80387
21
-4.24032
0
LINE
8
BLACK
6
CONTINUOUS
10
5.80387
20
-4.24032
11
5.79976
21
-4.24032
0
LINE
8
BLACK
6
CONTINUOUS
10
5.79976
20
-4.24032
11
5.79591
21
-4.23891
0
LINE
8
BLACK
6
CONTINUOUS
10
5.79591
20
-4.23891
11
5.79277
21
-4.23628
0
LINE
8
BLACK
6
CONTINUOUS
10
5.79277
20
-4.23628
11
5.79072
21
-4.23272
0
LINE
8
BLACK
6
CONTINUOUS
10
5.79072
20
-4.23272
11
5.79
21
-4.22869
0
LINE
8
BLACK
6
CONTINUOUS
10
5.79
20
-4.22869
11
5.79072
21
-4.22465
0
LINE
8
BLACK
6
CONTINUOUS
10
5.79072
20
-4.22465
11
5.79277
21
-4.22109
0
LINE
8
BLACK
6
CONTINUOUS
10
5.79277
20
-4.22109
11
5.79591
21
-4.21846
0
LINE
8
BLACK
6
CONTINUOUS
10
5.79591
20
-4.21846
11
5.79976
21
-4.21705
0
LINE
8
BLACK
6
CONTINUOUS
10
5.79976
20
-4.21705
11
5.80387
21
-4.21705
0
LINE
8
BLACK
6
CONTINUOUS
10
5.80387
20
-4.21705
11
5.80772
21
-4.21846
0
LINE
8
BLACK
6
CONTINUOUS
10
5.84709
20
-4.21846
11
5.85023
21
-4.22109
0
LINE
8
BLACK
6
CONTINUOUS
10
5.85023
20
-4.22109
11
5.85228
21
-4.22465
0
LINE
8
BLACK
6
CONTINUOUS
10
5.85228
20
-4.22465
11
5.853
21
-4.22869
0
LINE
8
BLACK
6
CONTINUOUS
10
5.853
20
-4.22869
11
5.85228
21
-4.23272
0
LINE
8
BLACK
6
CONTINUOUS
10
5.85228
20
-4.23272
11
5.85023
21
-4.23628
0
LINE
8
BLACK
6
CONTINUOUS
10
5.85023
20
-4.23628
11
5.84709
21
-4.23891
0
LINE
8
BLACK
6
CONTINUOUS
10
5.84709
20
-4.23891
11
5.84324
21
-4.24032
0
LINE
8
BLACK
6
CONTINUOUS
10
5.84324
20
-4.24032
11
5.83913
21
-4.24032
0
LINE
8
BLACK
6
CONTINUOUS
10
5.83913
20
-4.24032
11
5.83528
21
-4.23891
0
LINE
8
BLACK
6
CONTINUOUS
10
5.83528
20
-4.23891
11
5.83214
21
-4.23628
0
LINE
8
BLACK
6
CONTINUOUS
10
5.83214
20
-4.23628
11
5.83009
21
-4.23272
0
LINE
8
BLACK
6
CONTINUOUS
10
5.83009
20
-4.23272
11
5.82937
21
-4.22869
0
LINE
8
BLACK
6
CONTINUOUS
10
5.82937
20
-4.22869
11
5.83009
21
-4.22465
0
LINE
8
BLACK
6
CONTINUOUS
10
5.83009
20
-4.22465
11
5.83214
21
-4.22109
0
LINE
8
BLACK
6
CONTINUOUS
10
5.83214
20
-4.22109
11
5.83528
21
-4.21846
0
LINE
8
BLACK
6
CONTINUOUS
10
5.83528
20
-4.21846
11
5.83913
21
-4.21705
0
LINE
8
BLACK
6
CONTINUOUS
10
5.83913
20
-4.21705
11
5.84324
21
-4.21705
0
LINE
8
BLACK
6
CONTINUOUS
10
5.84324
20
-4.21705
11
5.84709
21
-4.21846
0
LINE
8
BLACK
6
CONTINUOUS
10
5.82741
20
-4.19877
11
5.83055
21
-4.20141
0
LINE
8
BLACK
6
CONTINUOUS
10
5.83055
20
-4.20141
11
5.8326
21
-4.20496
0
LINE
8
BLACK
6
CONTINUOUS
10
5.8326
20
-4.20496
11
5.83331
21
-4.209
0
LINE
8
BLACK
6
CONTINUOUS
10
5.83331
20
-4.209
11
5.8326
21
-4.21304
0
LINE
8
BLACK
6
CONTINUOUS
10
5.8326
20
-4.21304
11
5.83055
21
-4.21659
0
LINE
8
BLACK
6
CONTINUOUS
10
5.83055
20
-4.21659
11
5.82741
21
-4.21923
0
LINE
8
BLACK
6
CONTINUOUS
10
5.82741
20
-4.21923
11
5.82355
21
-4.22063
0
LINE
8
BLACK
6
CONTINUOUS
10
5.82355
20
-4.22063
11
5.81945
21
-4.22063
0
LINE
8
BLACK
6
CONTINUOUS
10
5.81945
20
-4.22063
11
5.81559
21
-4.21923
0
LINE
8
BLACK
6
CONTINUOUS
10
5.81559
20
-4.21923
11
5.81245
21
-4.21659
0
LINE
8
BLACK
6
CONTINUOUS
10
5.81245
20
-4.21659
11
5.8104
21
-4.21304
0
LINE
8
BLACK
6
CONTINUOUS
10
5.8104
20
-4.21304
11
5.80969
21
-4.209
0
LINE
8
BLACK
6
CONTINUOUS
10
5.80969
20
-4.209
11
5.8104
21
-4.20496
0
LINE
8
BLACK
6
CONTINUOUS
10
5.8104
20
-4.20496
11
5.81245
21
-4.20141
0
LINE
8
BLACK
6
CONTINUOUS
10
5.81245
20
-4.20141
11
5.81559
21
-4.19877
0
LINE
8
BLACK
6
CONTINUOUS
10
5.81559
20
-4.19877
11
5.81945
21
-4.19737
0
LINE
8
BLACK
6
CONTINUOUS
10
5.81945
20
-4.19737
11
5.82355
21
-4.19737
0
LINE
8
BLACK
6
CONTINUOUS
10
5.82355
20
-4.19737
11
5.82741
21
-4.19877
0
LINE
8
BLACK
6
CONTINUOUS
10
5.80772
20
-4.17909
11
5.81086
21
-4.18172
0
LINE
8
BLACK
6
CONTINUOUS
10
5.81086
20
-4.18172
11
5.81291
21
-4.18528
0
LINE
8
BLACK
6
CONTINUOUS
10
5.81291
20
-4.18528
11
5.81363
21
-4.18931
0
LINE
8
BLACK
6
CONTINUOUS
10
5.81363
20
-4.18931
11
5.81291
21
-4.19335
0
LINE
8
BLACK
6
CONTINUOUS
10
5.81291
20
-4.19335
11
5.81086
21
-4.19691
0
LINE
8
BLACK
6
CONTINUOUS
10
5.81086
20
-4.19691
11
5.80772
21
-4.19954
0
LINE
8
BLACK
6
CONTINUOUS
10
5.80772
20
-4.19954
11
5.80387
21
-4.20095
0
LINE
8
BLACK
6
CONTINUOUS
10
5.80387
20
-4.20095
11
5.79976
21
-4.20095
0
LINE
8
BLACK
6
CONTINUOUS
10
5.79976
20
-4.20095
11
5.79591
21
-4.19954
0
LINE
8
BLACK
6
CONTINUOUS
10
5.79591
20
-4.19954
11
5.79277
21
-4.19691
0
LINE
8
BLACK
6
CONTINUOUS
10
5.79277
20
-4.19691
11
5.79072
21
-4.19335
0
LINE
8
BLACK
6
CONTINUOUS
10
5.79072
20
-4.19335
11
5.79
21
-4.18931
0
LINE
8
BLACK
6
CONTINUOUS
10
5.79
20
-4.18931
11
5.79072
21
-4.18528
0
LINE
8
BLACK
6
CONTINUOUS
10
5.79072
20
-4.18528
11
5.79277
21
-4.18172
0
LINE
8
BLACK
6
CONTINUOUS
10
5.79277
20
-4.18172
11
5.79591
21
-4.17909
0
LINE
8
BLACK
6
CONTINUOUS
10
5.79591
20
-4.17909
11
5.79976
21
-4.17768
0
LINE
8
BLACK
6
CONTINUOUS
10
5.79976
20
-4.17768
11
5.80387
21
-4.17768
0
LINE
8
BLACK
6
CONTINUOUS
10
5.80387
20
-4.17768
11
5.80772
21
-4.17909
0
LINE
8
BLACK
6
CONTINUOUS
10
5.84709
20
-4.17909
11
5.85023
21
-4.18172
0
LINE
8
BLACK
6
CONTINUOUS
10
5.85023
20
-4.18172
11
5.85228
21
-4.18528
0
LINE
8
BLACK
6
CONTINUOUS
10
5.85228
20
-4.18528
11
5.853
21
-4.18931
0
LINE
8
BLACK
6
CONTINUOUS
10
5.853
20
-4.18931
11
5.85228
21
-4.19335
0
LINE
8
BLACK
6
CONTINUOUS
10
5.85228
20
-4.19335
11
5.85023
21
-4.19691
0
LINE
8
BLACK
6
CONTINUOUS
10
5.85023
20
-4.19691
11
5.84709
21
-4.19954
0
LINE
8
BLACK
6
CONTINUOUS
10
5.84709
20
-4.19954
11
5.84324
21
-4.20095
0
LINE
8
BLACK
6
CONTINUOUS
10
5.84324
20
-4.20095
11
5.83913
21
-4.20095
0
LINE
8
BLACK
6
CONTINUOUS
10
5.83913
20
-4.20095
11
5.83528
21
-4.19954
0
LINE
8
BLACK
6
CONTINUOUS
10
5.83528
20
-4.19954
11
5.83214
21
-4.19691
0
LINE
8
BLACK
6
CONTINUOUS
10
5.83214
20
-4.19691
11
5.83009
21
-4.19335
0
LINE
8
BLACK
6
CONTINUOUS
10
5.83009
20
-4.19335
11
5.82937
21
-4.18931
0
LINE
8
BLACK
6
CONTINUOUS
10
5.82937
20
-4.18931
11
5.83009
21
-4.18528
0
LINE
8
BLACK
6
CONTINUOUS
10
5.83009
20
-4.18528
11
5.83214
21
-4.18172
0
LINE
8
BLACK
6
CONTINUOUS
10
5.83214
20
-4.18172
11
5.83528
21
-4.17909
0
LINE
8
BLACK
6
CONTINUOUS
10
5.83528
20
-4.17909
11
5.83913
21
-4.17768
0
LINE
8
BLACK
6
CONTINUOUS
10
5.83913
20
-4.17768
11
5.84324
21
-4.17768
0
LINE
8
BLACK
6
CONTINUOUS
10
5.84324
20
-4.17768
11
5.84709
21
-4.17909
0
LINE
8
BLACK
6
CONTINUOUS
10
5.53053
20
-4.0353
11
5.53183
21
-4.03617
0
LINE
8
BLACK
6
CONTINUOUS
10
5.53183
20
-4.03617
11
5.5327
21
-4.03747
0
LINE
8
BLACK
6
CONTINUOUS
10
5.5327
20
-4.03747
11
5.533
21
-4.039
0
LINE
8
BLACK
6
CONTINUOUS
10
5.533
20
-4.039
11
5.533
21
-4.104
0
LINE
8
BLACK
6
CONTINUOUS
10
5.533
20
-4.104
11
5.5327
21
-4.10553
0
LINE
8
BLACK
6
CONTINUOUS
10
5.5327
20
-4.10553
11
5.53183
21
-4.10683
0
LINE
8
BLACK
6
CONTINUOUS
10
5.53183
20
-4.10683
11
5.53053
21
-4.1077
0
LINE
8
BLACK
6
CONTINUOUS
10
5.53053
20
-4.1077
11
5.529
21
-4.108
0
LINE
8
BLACK
6
CONTINUOUS
10
5.529
20
-4.108
11
5.464
21
-4.108
0
LINE
8
BLACK
6
CONTINUOUS
10
5.464
20
-4.108
11
5.46247
21
-4.1077
0
LINE
8
BLACK
6
CONTINUOUS
10
5.46247
20
-4.1077
11
5.46117
21
-4.10683
0
LINE
8
BLACK
6
CONTINUOUS
10
5.46117
20
-4.10683
11
5.4603
21
-4.10553
0
LINE
8
BLACK
6
CONTINUOUS
10
5.4603
20
-4.10553
11
5.46
21
-4.104
0
LINE
8
BLACK
6
CONTINUOUS
10
5.46
20
-4.104
11
5.46
21
-4.039
0
LINE
8
BLACK
6
CONTINUOUS
10
5.46
20
-4.039
11
5.4603
21
-4.03747
0
LINE
8
BLACK
6
CONTINUOUS
10
5.4603
20
-4.03747
11
5.46117
21
-4.03617
0
LINE
8
BLACK
6
CONTINUOUS
10
5.46117
20
-4.03617
11
5.46247
21
-4.0353
0
LINE
8
BLACK
6
CONTINUOUS
10
5.46247
20
-4.0353
11
5.464
21
-4.035
0
LINE
8
BLACK
6
CONTINUOUS
10
5.464
20
-4.035
11
5.529
21
-4.035
0
LINE
8
BLACK
6
CONTINUOUS
10
5.529
20
-4.035
11
5.53053
21
-4.0353
0
LINE
8
BLACK
6
CONTINUOUS
10
5.43053
20
-4.0353
11
5.43183
21
-4.03617
0
LINE
8
BLACK
6
CONTINUOUS
10
5.43183
20
-4.03617
11
5.4327
21
-4.03747
0
LINE
8
BLACK
6
CONTINUOUS
10
5.4327
20
-4.03747
11
5.433
21
-4.039
0
LINE
8
BLACK
6
CONTINUOUS
10
5.433
20
-4.039
11
5.433
21
-4.104
0
LINE
8
BLACK
6
CONTINUOUS
10
5.433
20
-4.104
11
5.4327
21
-4.10553
0
LINE
8
BLACK
6
CONTINUOUS
10
5.4327
20
-4.10553
11
5.43183
21
-4.10683
0
LINE
8
BLACK
6
CONTINUOUS
10
5.43183
20
-4.10683
11
5.43053
21
-4.1077
0
LINE
8
BLACK
6
CONTINUOUS
10
5.43053
20
-4.1077
11
5.429
21
-4.108
0
LINE
8
BLACK
6
CONTINUOUS
10
5.429
20
-4.108
11
5.364
21
-4.108
0
LINE
8
BLACK
6
CONTINUOUS
10
5.364
20
-4.108
11
5.36247
21
-4.1077
0
LINE
8
BLACK
6
CONTINUOUS
10
5.36247
20
-4.1077
11
5.36117
21
-4.10683
0
LINE
8
BLACK
6
CONTINUOUS
10
5.36117
20
-4.10683
11
5.3603
21
-4.10553
0
LINE
8
BLACK
6
CONTINUOUS
10
5.3603
20
-4.10553
11
5.36
21
-4.104
0
LINE
8
BLACK
6
CONTINUOUS
10
5.36
20
-4.104
11
5.36
21
-4.039
0
LINE
8
BLACK
6
CONTINUOUS
10
5.36
20
-4.039
11
5.3603
21
-4.03747
0
LINE
8
BLACK
6
CONTINUOUS
10
5.3603
20
-4.03747
11
5.36117
21
-4.03617
0
LINE
8
BLACK
6
CONTINUOUS
10
5.36117
20
-4.03617
11
5.36247
21
-4.0353
0
LINE
8
BLACK
6
CONTINUOUS
10
5.36247
20
-4.0353
11
5.364
21
-4.035
0
LINE
8
BLACK
6
CONTINUOUS
10
5.364
20
-4.035
11
5.429
21
-4.035
0
LINE
8
BLACK
6
CONTINUOUS
10
5.429
20
-4.035
11
5.43053
21
-4.0353
0
LINE
8
BLACK
6
CONTINUOUS
10
5.53053
20
-3.9353
11
5.53183
21
-3.93617
0
LINE
8
BLACK
6
CONTINUOUS
10
5.53183
20
-3.93617
11
5.5327
21
-3.93747
0
LINE
8
BLACK
6
CONTINUOUS
10
5.5327
20
-3.93747
11
5.533
21
-3.939
0
LINE
8
BLACK
6
CONTINUOUS
10
5.533
20
-3.939
11
5.533
21
-4.004
0
LINE
8
BLACK
6
CONTINUOUS
10
5.533
20
-4.004
11
5.5327
21
-4.00553
0
LINE
8
BLACK
6
CONTINUOUS
10
5.5327
20
-4.00553
11
5.53183
21
-4.00683
0
LINE
8
BLACK
6
CONTINUOUS
10
5.53183
20
-4.00683
11
5.53053
21
-4.0077
0
LINE
8
BLACK
6
CONTINUOUS
10
5.53053
20
-4.0077
11
5.529
21
-4.008
0
LINE
8
BLACK
6
CONTINUOUS
10
5.529
20
-4.008
11
5.464
21
-4.008
0
LINE
8
BLACK
6
CONTINUOUS
10
5.464
20
-4.008
11
5.46247
21
-4.0077
0
LINE
8
BLACK
6
CONTINUOUS
10
5.46247
20
-4.0077
11
5.46117
21
-4.00683
0
LINE
8
BLACK
6
CONTINUOUS
10
5.46117
20
-4.00683
11
5.4603
21
-4.00553
0
LINE
8
BLACK
6
CONTINUOUS
10
5.4603
20
-4.00553
11
5.46
21
-4.004
0
LINE
8
BLACK
6
CONTINUOUS
10
5.46
20
-4.004
11
5.46
21
-3.939
0
LINE
8
BLACK
6
CONTINUOUS
10
5.46
20
-3.939
11
5.4603
21
-3.93747
0
LINE
8
BLACK
6
CONTINUOUS
10
5.4603
20
-3.93747
11
5.46117
21
-3.93617
0
LINE
8
BLACK
6
CONTINUOUS
10
5.46117
20
-3.93617
11
5.46247
21
-3.9353
0
LINE
8
BLACK
6
CONTINUOUS
10
5.46247
20
-3.9353
11
5.464
21
-3.935
0
LINE
8
BLACK
6
CONTINUOUS
10
5.464
20
-3.935
11
5.529
21
-3.935
0
LINE
8
BLACK
6
CONTINUOUS
10
5.529
20
-3.935
11
5.53053
21
-3.9353
0
LINE
8
BLACK
6
CONTINUOUS
10
5.43053
20
-3.9353
11
5.43183
21
-3.93617
0
LINE
8
BLACK
6
CONTINUOUS
10
5.43183
20
-3.93617
11
5.4327
21
-3.93747
0
LINE
8
BLACK
6
CONTINUOUS
10
5.4327
20
-3.93747
11
5.433
21
-3.939
0
LINE
8
BLACK
6
CONTINUOUS
10
5.433
20
-3.939
11
5.433
21
-4.004
0
LINE
8
BLACK
6
CONTINUOUS
10
5.433
20
-4.004
11
5.4327
21
-4.00553
0
LINE
8
BLACK
6
CONTINUOUS
10
5.4327
20
-4.00553
11
5.43183
21
-4.00683
0
LINE
8
BLACK
6
CONTINUOUS
10
5.43183
20
-4.00683
11
5.43053
21
-4.0077
0
LINE
8
BLACK
6
CONTINUOUS
10
5.43053
20
-4.0077
11
5.429
21
-4.008
0
LINE
8
BLACK
6
CONTINUOUS
10
5.429
20
-4.008
11
5.364
21
-4.008
0
LINE
8
BLACK
6
CONTINUOUS
10
5.364
20
-4.008
11
5.36247
21
-4.0077
0
LINE
8
BLACK
6
CONTINUOUS
10
5.36247
20
-4.0077
11
5.36117
21
-4.00683
0
LINE
8
BLACK
6
CONTINUOUS
10
5.36117
20
-4.00683
11
5.3603
21
-4.00553
0
LINE
8
BLACK
6
CONTINUOUS
10
5.3603
20
-4.00553
11
5.36
21
-4.004
0
LINE
8
BLACK
6
CONTINUOUS
10
5.36
20
-4.004
11
5.36
21
-3.939
0
LINE
8
BLACK
6
CONTINUOUS
10
5.36
20
-3.939
11
5.3603
21
-3.93747
0
LINE
8
BLACK
6
CONTINUOUS
10
5.3603
20
-3.93747
11
5.36117
21
-3.93617
0
LINE
8
BLACK
6
CONTINUOUS
10
5.36117
20
-3.93617
11
5.36247
21
-3.9353
0
LINE
8
BLACK
6
CONTINUOUS
10
5.36247
20
-3.9353
11
5.364
21
-3.935
0
LINE
8
BLACK
6
CONTINUOUS
10
5.364
20
-3.935
11
5.429
21
-3.935
0
LINE
8
BLACK
6
CONTINUOUS
10
5.429
20
-3.935
11
5.43053
21
-3.9353
0
LINE
8
BLACK
6
CONTINUOUS
10
5.53053
20
-3.8353
11
5.53183
21
-3.83617
0
LINE
8
BLACK
6
CONTINUOUS
10
5.53183
20
-3.83617
11
5.5327
21
-3.83747
0
LINE
8
BLACK
6
CONTINUOUS
10
5.5327
20
-3.83747
11
5.533
21
-3.839
0
LINE
8
BLACK
6
CONTINUOUS
10
5.533
20
-3.839
11
5.533
21
-3.904
0
LINE
8
BLACK
6
CONTINUOUS
10
5.533
20
-3.904
11
5.5327
21
-3.90553
0
LINE
8
BLACK
6
CONTINUOUS
10
5.5327
20
-3.90553
11
5.53183
21
-3.90683
0
LINE
8
BLACK
6
CONTINUOUS
10
5.53183
20
-3.90683
11
5.53053
21
-3.9077
0
LINE
8
BLACK
6
CONTINUOUS
10
5.53053
20
-3.9077
11
5.529
21
-3.908
0
LINE
8
BLACK
6
CONTINUOUS
10
5.529
20
-3.908
11
5.464
21
-3.908
0
LINE
8
BLACK
6
CONTINUOUS
10
5.464
20
-3.908
11
5.46247
21
-3.9077
0
LINE
8
BLACK
6
CONTINUOUS
10
5.46247
20
-3.9077
11
5.46117
21
-3.90683
0
LINE
8
BLACK
6
CONTINUOUS
10
5.46117
20
-3.90683
11
5.4603
21
-3.90553
0
LINE
8
BLACK
6
CONTINUOUS
10
5.4603
20
-3.90553
11
5.46
21
-3.904
0
LINE
8
BLACK
6
CONTINUOUS
10
5.46
20
-3.904
11
5.46
21
-3.839
0
LINE
8
BLACK
6
CONTINUOUS
10
5.46
20
-3.839
11
5.4603
21
-3.83747
0
LINE
8
BLACK
6
CONTINUOUS
10
5.4603
20
-3.83747
11
5.46117
21
-3.83617
0
LINE
8
BLACK
6
CONTINUOUS
10
5.46117
20
-3.83617
11
5.46247
21
-3.8353
0
LINE
8
BLACK
6
CONTINUOUS
10
5.46247
20
-3.8353
11
5.464
21
-3.835
0
LINE
8
BLACK
6
CONTINUOUS
10
5.464
20
-3.835
11
5.529
21
-3.835
0
LINE
8
BLACK
6
CONTINUOUS
10
5.529
20
-3.835
11
5.53053
21
-3.8353
0
LINE
8
BLACK
6
CONTINUOUS
10
5.43053
20
-3.8353
11
5.43183
21
-3.83617
0
LINE
8
BLACK
6
CONTINUOUS
10
5.43183
20
-3.83617
11
5.4327
21
-3.83747
0
LINE
8
BLACK
6
CONTINUOUS
10
5.4327
20
-3.83747
11
5.433
21
-3.839
0
LINE
8
BLACK
6
CONTINUOUS
10
5.433
20
-3.839
11
5.433
21
-3.904
0
LINE
8
BLACK
6
CONTINUOUS
10
5.433
20
-3.904
11
5.4327
21
-3.90553
0
LINE
8
BLACK
6
CONTINUOUS
10
5.4327
20
-3.90553
11
5.43183
21
-3.90683
0
LINE
8
BLACK
6
CONTINUOUS
10
5.43183
20
-3.90683
11
5.43053
21
-3.9077
0
LINE
8
BLACK
6
CONTINUOUS
10
5.43053
20
-3.9077
11
5.429
21
-3.908
0
LINE
8
BLACK
6
CONTINUOUS
10
5.429
20
-3.908
11
5.364
21
-3.908
0
LINE
8
BLACK
6
CONTINUOUS
10
5.364
20
-3.908
11
5.36247
21
-3.9077
0
LINE
8
BLACK
6
CONTINUOUS
10
5.36247
20
-3.9077
11
5.36117
21
-3.90683
0
LINE
8
BLACK
6
CONTINUOUS
10
5.36117
20
-3.90683
11
5.3603
21
-3.90553
0
LINE
8
BLACK
6
CONTINUOUS
10
5.3603
20
-3.90553
11
5.36
21
-3.904
0
LINE
8
BLACK
6
CONTINUOUS
10
5.36
20
-3.904
11
5.36
21
-3.839
0
LINE
8
BLACK
6
CONTINUOUS
10
5.36
20
-3.839
11
5.3603
21
-3.83747
0
LINE
8
BLACK
6
CONTINUOUS
10
5.3603
20
-3.83747
11
5.36117
21
-3.83617
0
LINE
8
BLACK
6
CONTINUOUS
10
5.36117
20
-3.83617
11
5.36247
21
-3.8353
0
LINE
8
BLACK
6
CONTINUOUS
10
5.36247
20
-3.8353
11
5.364
21
-3.835
0
LINE
8
BLACK
6
CONTINUOUS
10
5.364
20
-3.835
11
5.429
21
-3.835
0
LINE
8
BLACK
6
CONTINUOUS
10
5.429
20
-3.835
11
5.43053
21
-3.8353
0
LINE
8
BLACK
6
CONTINUOUS
10
5.86803
20
-3.7603
11
5.86933
21
-3.76117
0
LINE
8
BLACK
6
CONTINUOUS
10
5.86933
20
-3.76117
11
5.8702
21
-3.76247
0
LINE
8
BLACK
6
CONTINUOUS
10
5.8702
20
-3.76247
11
5.8705
21
-3.764
0
LINE
8
BLACK
6
CONTINUOUS
10
5.8705
20
-3.764
11
5.8705
21
-3.829
0
LINE
8
BLACK
6
CONTINUOUS
10
5.8705
20
-3.829
11
5.8702
21
-3.83053
0
LINE
8
BLACK
6
CONTINUOUS
10
5.8702
20
-3.83053
11
5.86933
21
-3.83183
0
LINE
8
BLACK
6
CONTINUOUS
10
5.86933
20
-3.83183
11
5.86803
21
-3.8327
0
LINE
8
BLACK
6
CONTINUOUS
10
5.86803
20
-3.8327
11
5.8665
21
-3.833
0
LINE
8
BLACK
6
CONTINUOUS
10
5.8665
20
-3.833
11
5.8015
21
-3.833
0
LINE
8
BLACK
6
CONTINUOUS
10
5.8015
20
-3.833
11
5.79997
21
-3.8327
0
LINE
8
BLACK
6
CONTINUOUS
10
5.79997
20
-3.8327
11
5.79867
21
-3.83183
0
LINE
8
BLACK
6
CONTINUOUS
10
5.79867
20
-3.83183
11
5.7978
21
-3.83053
0
LINE
8
BLACK
6
CONTINUOUS
10
5.7978
20
-3.83053
11
5.7975
21
-3.829
0
LINE
8
BLACK
6
CONTINUOUS
10
5.7975
20
-3.829
11
5.7975
21
-3.764
0
LINE
8
BLACK
6
CONTINUOUS
10
5.7975
20
-3.764
11
5.7978
21
-3.76247
0
LINE
8
BLACK
6
CONTINUOUS
10
5.7978
20
-3.76247
11
5.79867
21
-3.76117
0
LINE
8
BLACK
6
CONTINUOUS
10
5.79867
20
-3.76117
11
5.79997
21
-3.7603
0
LINE
8
BLACK
6
CONTINUOUS
10
5.79997
20
-3.7603
11
5.8015
21
-3.76
0
LINE
8
BLACK
6
CONTINUOUS
10
5.8015
20
-3.76
11
5.8665
21
-3.76
0
LINE
8
BLACK
6
CONTINUOUS
10
5.8665
20
-3.76
11
5.86803
21
-3.7603
0
LINE
8
BLACK
6
CONTINUOUS
10
5.96803
20
-3.7603
11
5.96933
21
-3.76117
0
LINE
8
BLACK
6
CONTINUOUS
10
5.96933
20
-3.76117
11
5.9702
21
-3.76247
0
LINE
8
BLACK
6
CONTINUOUS
10
5.9702
20
-3.76247
11
5.9705
21
-3.764
0
LINE
8
BLACK
6
CONTINUOUS
10
5.9705
20
-3.764
11
5.9705
21
-3.829
0
LINE
8
BLACK
6
CONTINUOUS
10
5.9705
20
-3.829
11
5.9702
21
-3.83053
0
LINE
8
BLACK
6
CONTINUOUS
10
5.9702
20
-3.83053
11
5.96933
21
-3.83183
0
LINE
8
BLACK
6
CONTINUOUS
10
5.96933
20
-3.83183
11
5.96803
21
-3.8327
0
LINE
8
BLACK
6
CONTINUOUS
10
5.96803
20
-3.8327
11
5.9665
21
-3.833
0
LINE
8
BLACK
6
CONTINUOUS
10
5.9665
20
-3.833
11
5.9015
21
-3.833
0
LINE
8
BLACK
6
CONTINUOUS
10
5.9015
20
-3.833
11
5.89997
21
-3.8327
0
LINE
8
BLACK
6
CONTINUOUS
10
5.89997
20
-3.8327
11
5.89867
21
-3.83183
0
LINE
8
BLACK
6
CONTINUOUS
10
5.89867
20
-3.83183
11
5.8978
21
-3.83053
0
LINE
8
BLACK
6
CONTINUOUS
10
5.8978
20
-3.83053
11
5.8975
21
-3.829
0
LINE
8
BLACK
6
CONTINUOUS
10
5.8975
20
-3.829
11
5.8975
21
-3.764
0
LINE
8
BLACK
6
CONTINUOUS
10
5.8975
20
-3.764
11
5.8978
21
-3.76247
0
LINE
8
BLACK
6
CONTINUOUS
10
5.8978
20
-3.76247
11
5.89867
21
-3.76117
0
LINE
8
BLACK
6
CONTINUOUS
10
5.89867
20
-3.76117
11
5.89997
21
-3.7603
0
LINE
8
BLACK
6
CONTINUOUS
10
5.89997
20
-3.7603
11
5.9015
21
-3.76
0
LINE
8
BLACK
6
CONTINUOUS
10
5.9015
20
-3.76
11
5.9665
21
-3.76
0
LINE
8
BLACK
6
CONTINUOUS
10
5.9665
20
-3.76
11
5.96803
21
-3.7603
0
LINE
8
BLACK
6
CONTINUOUS
10
6.06803
20
-3.7603
11
6.06933
21
-3.76117
0
LINE
8
BLACK
6
CONTINUOUS
10
6.06933
20
-3.76117
11
6.0702
21
-3.76247
0
LINE
8
BLACK
6
CONTINUOUS
10
6.0702
20
-3.76247
11
6.0705
21
-3.764
0
LINE
8
BLACK
6
CONTINUOUS
10
6.0705
20
-3.764
11
6.0705
21
-3.829
0
LINE
8
BLACK
6
CONTINUOUS
10
6.0705
20
-3.829
11
6.0702
21
-3.83053
0
LINE
8
BLACK
6
CONTINUOUS
10
6.0702
20
-3.83053
11
6.06933
21
-3.83183
0
LINE
8
BLACK
6
CONTINUOUS
10
6.06933
20
-3.83183
11
6.06803
21
-3.8327
0
LINE
8
BLACK
6
CONTINUOUS
10
6.06803
20
-3.8327
11
6.0665
21
-3.833
0
LINE
8
BLACK
6
CONTINUOUS
10
6.0665
20
-3.833
11
6.0015
21
-3.833
0
LINE
8
BLACK
6
CONTINUOUS
10
6.0015
20
-3.833
11
5.99997
21
-3.8327
0
LINE
8
BLACK
6
CONTINUOUS
10
5.99997
20
-3.8327
11
5.99867
21
-3.83183
0
LINE
8
BLACK
6
CONTINUOUS
10
5.99867
20
-3.83183
11
5.9978
21
-3.83053
0
LINE
8
BLACK
6
CONTINUOUS
10
5.9978
20
-3.83053
11
5.9975
21
-3.829
0
LINE
8
BLACK
6
CONTINUOUS
10
5.9975
20
-3.829
11
5.9975
21
-3.764
0
LINE
8
BLACK
6
CONTINUOUS
10
5.9975
20
-3.764
11
5.9978
21
-3.76247
0
LINE
8
BLACK
6
CONTINUOUS
10
5.9978
20
-3.76247
11
5.99867
21
-3.76117
0
LINE
8
BLACK
6
CONTINUOUS
10
5.99867
20
-3.76117
11
5.99997
21
-3.7603
0
LINE
8
BLACK
6
CONTINUOUS
10
5.99997
20
-3.7603
11
6.0015
21
-3.76
0
LINE
8
BLACK
6
CONTINUOUS
10
6.0015
20
-3.76
11
6.0665
21
-3.76
0
LINE
8
BLACK
6
CONTINUOUS
10
6.0665
20
-3.76
11
6.06803
21
-3.7603
0
LINE
8
BLACK
6
CONTINUOUS
10
5.53053
20
-3.7353
11
5.53183
21
-3.73617
0
LINE
8
BLACK
6
CONTINUOUS
10
5.53183
20
-3.73617
11
5.5327
21
-3.73747
0
LINE
8
BLACK
6
CONTINUOUS
10
5.5327
20
-3.73747
11
5.533
21
-3.739
0
LINE
8
BLACK
6
CONTINUOUS
10
5.533
20
-3.739
11
5.533
21
-3.804
0
LINE
8
BLACK
6
CONTINUOUS
10
5.533
20
-3.804
11
5.5327
21
-3.80553
0
LINE
8
BLACK
6
CONTINUOUS
10
5.5327
20
-3.80553
11
5.53183
21
-3.80683
0
LINE
8
BLACK
6
CONTINUOUS
10
5.53183
20
-3.80683
11
5.53053
21
-3.8077
0
LINE
8
BLACK
6
CONTINUOUS
10
5.53053
20
-3.8077
11
5.529
21
-3.808
0
LINE
8
BLACK
6
CONTINUOUS
10
5.529
20
-3.808
11
5.464
21
-3.808
0
LINE
8
BLACK
6
CONTINUOUS
10
5.464
20
-3.808
11
5.46247
21
-3.8077
0
LINE
8
BLACK
6
CONTINUOUS
10
5.46247
20
-3.8077
11
5.46117
21
-3.80683
0
LINE
8
BLACK
6
CONTINUOUS
10
5.46117
20
-3.80683
11
5.4603
21
-3.80553
0
LINE
8
BLACK
6
CONTINUOUS
10
5.4603
20
-3.80553
11
5.46
21
-3.804
0
LINE
8
BLACK
6
CONTINUOUS
10
5.46
20
-3.804
11
5.46
21
-3.739
0
LINE
8
BLACK
6
CONTINUOUS
10
5.46
20
-3.739
11
5.4603
21
-3.73747
0
LINE
8
BLACK
6
CONTINUOUS
10
5.4603
20
-3.73747
11
5.46117
21
-3.73617
0
LINE
8
BLACK
6
CONTINUOUS
10
5.46117
20
-3.73617
11
5.46247
21
-3.7353
0
LINE
8
BLACK
6
CONTINUOUS
10
5.46247
20
-3.7353
11
5.464
21
-3.735
0
LINE
8
BLACK
6
CONTINUOUS
10
5.464
20
-3.735
11
5.529
21
-3.735
0
LINE
8
BLACK
6
CONTINUOUS
10
5.529
20
-3.735
11
5.53053
21
-3.7353
0
LINE
8
BLACK
6
CONTINUOUS
10
5.43053
20
-3.7353
11
5.43183
21
-3.73617
0
LINE
8
BLACK
6
CONTINUOUS
10
5.43183
20
-3.73617
11
5.4327
21
-3.73747
0
LINE
8
BLACK
6
CONTINUOUS
10
5.4327
20
-3.73747
11
5.433
21
-3.739
0
LINE
8
BLACK
6
CONTINUOUS
10
5.433
20
-3.739
11
5.433
21
-3.804
0
LINE
8
BLACK
6
CONTINUOUS
10
5.433
20
-3.804
11
5.4327
21
-3.80553
0
LINE
8
BLACK
6
CONTINUOUS
10
5.4327
20
-3.80553
11
5.43183
21
-3.80683
0
LINE
8
BLACK
6
CONTINUOUS
10
5.43183
20
-3.80683
11
5.43053
21
-3.8077
0
LINE
8
BLACK
6
CONTINUOUS
10
5.43053
20
-3.8077
11
5.429
21
-3.808
0
LINE
8
BLACK
6
CONTINUOUS
10
5.429
20
-3.808
11
5.364
21
-3.808
0
LINE
8
BLACK
6
CONTINUOUS
10
5.364
20
-3.808
11
5.36247
21
-3.8077
0
LINE
8
BLACK
6
CONTINUOUS
10
5.36247
20
-3.8077
11
5.36117
21
-3.80683
0
LINE
8
BLACK
6
CONTINUOUS
10
5.36117
20
-3.80683
11
5.3603
21
-3.80553
0
LINE
8
BLACK
6
CONTINUOUS
10
5.3603
20
-3.80553
11
5.36
21
-3.804
0
LINE
8
BLACK
6
CONTINUOUS
10
5.36
20
-3.804
11
5.36
21
-3.739
0
LINE
8
BLACK
6
CONTINUOUS
10
5.36
20
-3.739
11
5.3603
21
-3.73747
0
LINE
8
BLACK
6
CONTINUOUS
10
5.3603
20
-3.73747
11
5.36117
21
-3.73617
0
LINE
8
BLACK
6
CONTINUOUS
10
5.36117
20
-3.73617
11
5.36247
21
-3.7353
0
LINE
8
BLACK
6
CONTINUOUS
10
5.36247
20
-3.7353
11
5.364
21
-3.735
0
LINE
8
BLACK
6
CONTINUOUS
10
5.364
20
-3.735
11
5.429
21
-3.735
0
LINE
8
BLACK
6
CONTINUOUS
10
5.429
20
-3.735
11
5.43053
21
-3.7353
0
LINE
8
BLACK
6
CONTINUOUS
10
5.86803
20
-3.6603
11
5.86933
21
-3.66117
0
LINE
8
BLACK
6
CONTINUOUS
10
5.86933
20
-3.66117
11
5.8702
21
-3.66247
0
LINE
8
BLACK
6
CONTINUOUS
10
5.8702
20
-3.66247
11
5.8705
21
-3.664
0
LINE
8
BLACK
6
CONTINUOUS
10
5.8705
20
-3.664
11
5.8705
21
-3.729
0
LINE
8
BLACK
6
CONTINUOUS
10
5.8705
20
-3.729
11
5.8702
21
-3.73053
0
LINE
8
BLACK
6
CONTINUOUS
10
5.8702
20
-3.73053
11
5.86933
21
-3.73183
0
LINE
8
BLACK
6
CONTINUOUS
10
5.86933
20
-3.73183
11
5.86803
21
-3.7327
0
LINE
8
BLACK
6
CONTINUOUS
10
5.86803
20
-3.7327
11
5.8665
21
-3.733
0
LINE
8
BLACK
6
CONTINUOUS
10
5.8665
20
-3.733
11
5.8015
21
-3.733
0
LINE
8
BLACK
6
CONTINUOUS
10
5.8015
20
-3.733
11
5.79997
21
-3.7327
0
LINE
8
BLACK
6
CONTINUOUS
10
5.79997
20
-3.7327
11
5.79867
21
-3.73183
0
LINE
8
BLACK
6
CONTINUOUS
10
5.79867
20
-3.73183
11
5.7978
21
-3.73053
0
LINE
8
BLACK
6
CONTINUOUS
10
5.7978
20
-3.73053
11
5.7975
21
-3.729
0
LINE
8
BLACK
6
CONTINUOUS
10
5.7975
20
-3.729
11
5.7975
21
-3.664
0
LINE
8
BLACK
6
CONTINUOUS
10
5.7975
20
-3.664
11
5.7978
21
-3.66247
0
LINE
8
BLACK
6
CONTINUOUS
10
5.7978
20
-3.66247
11
5.79867
21
-3.66117
0
LINE
8
BLACK
6
CONTINUOUS
10
5.79867
20
-3.66117
11
5.79997
21
-3.6603
0
LINE
8
BLACK
6
CONTINUOUS
10
5.79997
20
-3.6603
11
5.8015
21
-3.66
0
LINE
8
BLACK
6
CONTINUOUS
10
5.8015
20
-3.66
11
5.8665
21
-3.66
0
LINE
8
BLACK
6
CONTINUOUS
10
5.8665
20
-3.66
11
5.86803
21
-3.6603
0
LINE
8
BLACK
6
CONTINUOUS
10
5.96803
20
-3.6603
11
5.96933
21
-3.66117
0
LINE
8
BLACK
6
CONTINUOUS
10
5.96933
20
-3.66117
11
5.9702
21
-3.66247
0
LINE
8
BLACK
6
CONTINUOUS
10
5.9702
20
-3.66247
11
5.9705
21
-3.664
0
LINE
8
BLACK
6
CONTINUOUS
10
5.9705
20
-3.664
11
5.9705
21
-3.729
0
LINE
8
BLACK
6
CONTINUOUS
10
5.9705
20
-3.729
11
5.9702
21
-3.73053
0
LINE
8
BLACK
6
CONTINUOUS
10
5.9702
20
-3.73053
11
5.96933
21
-3.73183
0
LINE
8
BLACK
6
CONTINUOUS
10
5.96933
20
-3.73183
11
5.96803
21
-3.7327
0
LINE
8
BLACK
6
CONTINUOUS
10
5.96803
20
-3.7327
11
5.9665
21
-3.733
0
LINE
8
BLACK
6
CONTINUOUS
10
5.9665
20
-3.733
11
5.9015
21
-3.733
0
LINE
8
BLACK
6
CONTINUOUS
10
5.9015
20
-3.733
11
5.89997
21
-3.7327
0
LINE
8
BLACK
6
CONTINUOUS
10
5.89997
20
-3.7327
11
5.89867
21
-3.73183
0
LINE
8
BLACK
6
CONTINUOUS
10
5.89867
20
-3.73183
11
5.8978
21
-3.73053
0
LINE
8
BLACK
6
CONTINUOUS
10
5.8978
20
-3.73053
11
5.8975
21
-3.729
0
LINE
8
BLACK
6
CONTINUOUS
10
5.8975
20
-3.729
11
5.8975
21
-3.664
0
LINE
8
BLACK
6
CONTINUOUS
10
5.8975
20
-3.664
11
5.8978
21
-3.66247
0
LINE
8
BLACK
6
CONTINUOUS
10
5.8978
20
-3.66247
11
5.89867
21
-3.66117
0
LINE
8
BLACK
6
CONTINUOUS
10
5.89867
20
-3.66117
11
5.89997
21
-3.6603
0
LINE
8
BLACK
6
CONTINUOUS
10
5.89997
20
-3.6603
11
5.9015
21
-3.66
0
LINE
8
BLACK
6
CONTINUOUS
10
5.9015
20
-3.66
11
5.9665
21
-3.66
0
LINE
8
BLACK
6
CONTINUOUS
10
5.9665
20
-3.66
11
5.96803
21
-3.6603
0
LINE
8
BLACK
6
CONTINUOUS
10
6.06803
20
-3.6603
11
6.06933
21
-3.66117
0
LINE
8
BLACK
6
CONTINUOUS
10
6.06933
20
-3.66117
11
6.0702
21
-3.66247
0
LINE
8
BLACK
6
CONTINUOUS
10
6.0702
20
-3.66247
11
6.0705
21
-3.664
0
LINE
8
BLACK
6
CONTINUOUS
10
6.0705
20
-3.664
11
6.0705
21
-3.729
0
LINE
8
BLACK
6
CONTINUOUS
10
6.0705
20
-3.729
11
6.0702
21
-3.73053
0
LINE
8
BLACK
6
CONTINUOUS
10
6.0702
20
-3.73053
11
6.06933
21
-3.73183
0
LINE
8
BLACK
6
CONTINUOUS
10
6.06933
20
-3.73183
11
6.06803
21
-3.7327
0
LINE
8
BLACK
6
CONTINUOUS
10
6.06803
20
-3.7327
11
6.0665
21
-3.733
0
LINE
8
BLACK
6
CONTINUOUS
10
6.0665
20
-3.733
11
6.0015
21
-3.733
0
LINE
8
BLACK
6
CONTINUOUS
10
6.0015
20
-3.733
11
5.99997
21
-3.7327
0
LINE
8
BLACK
6
CONTINUOUS
10
5.99997
20
-3.7327
11
5.99867
21
-3.73183
0
LINE
8
BLACK
6
CONTINUOUS
10
5.99867
20
-3.73183
11
5.9978
21
-3.73053
0
LINE
8
BLACK
6
CONTINUOUS
10
5.9978
20
-3.73053
11
5.9975
21
-3.729
0
LINE
8
BLACK
6
CONTINUOUS
10
5.9975
20
-3.729
11
5.9975
21
-3.664
0
LINE
8
BLACK
6
CONTINUOUS
10
5.9975
20
-3.664
11
5.9978
21
-3.66247
0
LINE
8
BLACK
6
CONTINUOUS
10
5.9978
20
-3.66247
11
5.99867
21
-3.66117
0
LINE
8
BLACK
6
CONTINUOUS
10
5.99867
20
-3.66117
11
5.99997
21
-3.6603
0
LINE
8
BLACK
6
CONTINUOUS
10
5.99997
20
-3.6603
11
6.0015
21
-3.66
0
LINE
8
BLACK
6
CONTINUOUS
10
6.0015
20
-3.66
11
6.0665
21
-3.66
0
LINE
8
BLACK
6
CONTINUOUS
10
6.0665
20
-3.66
11
6.06803
21
-3.6603
0
LINE
8
BLACK
6
CONTINUOUS
10
5.45515
20
-3.41621
11
5.46863
21
-3.41798
0
LINE
8
BLACK
6
CONTINUOUS
10
5.46863
20
-3.41798
11
5.48182
21
-3.42129
0
LINE
8
BLACK
6
CONTINUOUS
10
5.48182
20
-3.42129
11
5.49454
21
-3.4261
0
LINE
8
BLACK
6
CONTINUOUS
10
5.49454
20
-3.4261
11
5.50662
21
-3.43234
0
LINE
8
BLACK
6
CONTINUOUS
10
5.50662
20
-3.43234
11
5.51791
21
-3.43992
0
LINE
8
BLACK
6
CONTINUOUS
10
5.51791
20
-3.43992
11
5.52825
21
-3.44875
0
LINE
8
BLACK
6
CONTINUOUS
10
5.52825
20
-3.44875
11
5.53751
21
-3.45871
0
LINE
8
BLACK
6
CONTINUOUS
10
5.53751
20
-3.45871
11
5.54556
21
-3.46967
0
LINE
8
BLACK
6
CONTINUOUS
10
5.54556
20
-3.46967
11
5.55229
21
-3.48148
0
LINE
8
BLACK
6
CONTINUOUS
10
5.55229
20
-3.48148
11
5.55763
21
-3.49399
0
LINE
8
BLACK
6
CONTINUOUS
10
5.55763
20
-3.49399
11
5.56149
21
-3.50703
0
LINE
8
BLACK
6
CONTINUOUS
10
5.56149
20
-3.50703
11
5.56383
21
-3.52042
0
LINE
8
BLACK
6
CONTINUOUS
10
5.56383
20
-3.52042
11
5.56461
21
-3.534
0
LINE
8
BLACK
6
CONTINUOUS
10
5.56461
20
-3.534
11
5.56438
21
-3.54142
0
LINE
8
BLACK
6
CONTINUOUS
10
5.56438
20
-3.54142
11
5.56274
21
-3.55492
0
LINE
8
BLACK
6
CONTINUOUS
10
5.56274
20
-3.55492
11
5.55957
21
-3.56814
0
LINE
8
BLACK
6
CONTINUOUS
10
5.55957
20
-3.56814
11
5.5549
21
-3.58091
0
LINE
8
BLACK
6
CONTINUOUS
10
5.5549
20
-3.58091
11
5.54879
21
-3.59306
0
LINE
8
BLACK
6
CONTINUOUS
10
5.54879
20
-3.59306
11
5.54132
21
-3.60442
0
LINE
8
BLACK
6
CONTINUOUS
10
5.54132
20
-3.60442
11
5.5326
21
-3.61485
0
LINE
8
BLACK
6
CONTINUOUS
10
5.5326
20
-3.61485
11
5.52274
21
-3.62421
0
LINE
8
BLACK
6
CONTINUOUS
10
5.52274
20
-3.62421
11
5.51186
21
-3.63238
0
LINE
8
BLACK
6
CONTINUOUS
10
5.51186
20
-3.63238
11
5.50012
21
-3.63924
0
LINE
8
BLACK
6
CONTINUOUS
10
5.50012
20
-3.63924
11
5.48767
21
-3.6447
0
LINE
8
BLACK
6
CONTINUOUS
10
5.48767
20
-3.6447
11
5.47467
21
-3.6487
0
LINE
8
BLACK
6
CONTINUOUS
10
5.47467
20
-3.6487
11
5.4613
21
-3.65118
0
LINE
8
BLACK
6
CONTINUOUS
10
5.4613
20
-3.65118
11
5.44774
21
-3.6521
0
LINE
8
BLACK
6
CONTINUOUS
10
5.44774
20
-3.6521
11
5.43415
21
-3.65146
0
LINE
8
BLACK
6
CONTINUOUS
10
5.43415
20
-3.65146
11
5.42074
21
-3.64927
0
LINE
8
BLACK
6
CONTINUOUS
10
5.42074
20
-3.64927
11
5.40766
21
-3.64554
0
LINE
8
BLACK
6
CONTINUOUS
10
5.40766
20
-3.64554
11
5.39509
21
-3.64034
0
LINE
8
BLACK
6
CONTINUOUS
10
5.39509
20
-3.64034
11
5.38321
21
-3.63372
0
LINE
8
BLACK
6
CONTINUOUS
10
5.38321
20
-3.63372
11
5.37217
21
-3.62579
0
LINE
8
BLACK
6
CONTINUOUS
10
5.37217
20
-3.62579
11
5.36211
21
-3.61664
0
LINE
8
BLACK
6
CONTINUOUS
10
5.36211
20
-3.61664
11
5.35317
21
-3.60639
0
LINE
8
BLACK
6
CONTINUOUS
10
5.35317
20
-3.60639
11
5.34547
21
-3.59518
0
LINE
8
BLACK
6
CONTINUOUS
10
5.34547
20
-3.59518
11
5.33911
21
-3.58317
0
LINE
8
BLACK
6
CONTINUOUS
10
5.33911
20
-3.58317
11
5.33417
21
-3.5705
0
LINE
8
BLACK
6
CONTINUOUS
10
5.33417
20
-3.5705
11
5.33072
21
-3.55735
0
LINE
8
BLACK
6
CONTINUOUS
10
5.33072
20
-3.55735
11
5.3288
21
-3.54388
0
LINE
8
BLACK
6
CONTINUOUS
10
5.3288
20
-3.54388
11
5.32845
21
-3.53029
0
LINE
8
BLACK
6
CONTINUOUS
10
5.32845
20
-3.53029
11
5.32966
21
-3.51675
0
LINE
8
BLACK
6
CONTINUOUS
10
5.32966
20
-3.51675
11
5.33241
21
-3.50343
0
LINE
8
BLACK
6
CONTINUOUS
10
5.33241
20
-3.50343
11
5.33668
21
-3.49052
0
LINE
8
BLACK
6
CONTINUOUS
10
5.33668
20
-3.49052
11
5.34241
21
-3.47819
0
LINE
8
BLACK
6
CONTINUOUS
10
5.34241
20
-3.47819
11
5.34951
21
-3.46659
0
LINE
8
BLACK
6
CONTINUOUS
10
5.34951
20
-3.46659
11
5.3579
21
-3.45589
0
LINE
8
BLACK
6
CONTINUOUS
10
5.3579
20
-3.45589
11
5.36747
21
-3.44623
0
LINE
8
BLACK
6
CONTINUOUS
10
5.36747
20
-3.44623
11
5.37808
21
-3.43773
0
LINE
8
BLACK
6
CONTINUOUS
10
5.37808
20
-3.43773
11
5.3896
21
-3.4305
0
LINE
8
BLACK
6
CONTINUOUS
10
5.3896
20
-3.4305
11
5.40187
21
-3.42465
0
LINE
8
BLACK
6
CONTINUOUS
10
5.40187
20
-3.42465
11
5.41474
21
-3.42024
0
LINE
8
BLACK
6
CONTINUOUS
10
5.41474
20
-3.42024
11
5.42802
21
-3.41734
0
LINE
8
BLACK
6
CONTINUOUS
10
5.42802
20
-3.41734
11
5.44155
21
-3.41599
0
LINE
8
BLACK
6
CONTINUOUS
10
5.44155
20
-3.41599
11
5.45515
21
-3.41621
0
LINE
8
BLACK
6
CONTINUOUS
10
6.25515
20
-3.41621
11
6.26863
21
-3.41798
0
LINE
8
BLACK
6
CONTINUOUS
10
6.26863
20
-3.41798
11
6.28182
21
-3.42129
0
LINE
8
BLACK
6
CONTINUOUS
10
6.28182
20
-3.42129
11
6.29454
21
-3.4261
0
LINE
8
BLACK
6
CONTINUOUS
10
6.29454
20
-3.4261
11
6.30662
21
-3.43234
0
LINE
8
BLACK
6
CONTINUOUS
10
6.30662
20
-3.43234
11
6.31791
21
-3.43992
0
LINE
8
BLACK
6
CONTINUOUS
10
6.31791
20
-3.43992
11
6.32825
21
-3.44875
0
LINE
8
BLACK
6
CONTINUOUS
10
6.32825
20
-3.44875
11
6.33751
21
-3.45871
0
LINE
8
BLACK
6
CONTINUOUS
10
6.33751
20
-3.45871
11
6.34556
21
-3.46967
0
LINE
8
BLACK
6
CONTINUOUS
10
6.34556
20
-3.46967
11
6.35229
21
-3.48148
0
LINE
8
BLACK
6
CONTINUOUS
10
6.35229
20
-3.48148
11
6.35763
21
-3.49399
0
LINE
8
BLACK
6
CONTINUOUS
10
6.35763
20
-3.49399
11
6.36149
21
-3.50703
0
LINE
8
BLACK
6
CONTINUOUS
10
6.36149
20
-3.50703
11
6.36383
21
-3.52042
0
LINE
8
BLACK
6
CONTINUOUS
10
6.36383
20
-3.52042
11
6.36461
21
-3.534
0
LINE
8
BLACK
6
CONTINUOUS
10
6.36461
20
-3.534
11
6.36438
21
-3.54142
0
LINE
8
BLACK
6
CONTINUOUS
10
6.36438
20
-3.54142
11
6.36274
21
-3.55492
0
LINE
8
BLACK
6
CONTINUOUS
10
6.36274
20
-3.55492
11
6.35957
21
-3.56814
0
LINE
8
BLACK
6
CONTINUOUS
10
6.35957
20
-3.56814
11
6.3549
21
-3.58091
0
LINE
8
BLACK
6
CONTINUOUS
10
6.3549
20
-3.58091
11
6.34879
21
-3.59306
0
LINE
8
BLACK
6
CONTINUOUS
10
6.34879
20
-3.59306
11
6.34132
21
-3.60442
0
LINE
8
BLACK
6
CONTINUOUS
10
6.34132
20
-3.60442
11
6.3326
21
-3.61485
0
LINE
8
BLACK
6
CONTINUOUS
10
6.3326
20
-3.61485
11
6.32274
21
-3.62421
0
LINE
8
BLACK
6
CONTINUOUS
10
6.32274
20
-3.62421
11
6.31186
21
-3.63238
0
LINE
8
BLACK
6
CONTINUOUS
10
6.31186
20
-3.63238
11
6.30012
21
-3.63924
0
LINE
8
BLACK
6
CONTINUOUS
10
6.30012
20
-3.63924
11
6.28767
21
-3.6447
0
LINE
8
BLACK
6
CONTINUOUS
10
6.28767
20
-3.6447
11
6.27467
21
-3.6487
0
LINE
8
BLACK
6
CONTINUOUS
10
6.27467
20
-3.6487
11
6.2613
21
-3.65118
0
LINE
8
BLACK
6
CONTINUOUS
10
6.2613
20
-3.65118
11
6.24774
21
-3.6521
0
LINE
8
BLACK
6
CONTINUOUS
10
6.24774
20
-3.6521
11
6.23415
21
-3.65146
0
LINE
8
BLACK
6
CONTINUOUS
10
6.23415
20
-3.65146
11
6.22074
21
-3.64927
0
LINE
8
BLACK
6
CONTINUOUS
10
6.22074
20
-3.64927
11
6.20766
21
-3.64554
0
LINE
8
BLACK
6
CONTINUOUS
10
6.20766
20
-3.64554
11
6.19509
21
-3.64034
0
LINE
8
BLACK
6
CONTINUOUS
10
6.19509
20
-3.64034
11
6.18321
21
-3.63372
0
LINE
8
BLACK
6
CONTINUOUS
10
6.18321
20
-3.63372
11
6.17217
21
-3.62579
0
LINE
8
BLACK
6
CONTINUOUS
10
6.17217
20
-3.62579
11
6.16211
21
-3.61664
0
LINE
8
BLACK
6
CONTINUOUS
10
6.16211
20
-3.61664
11
6.15317
21
-3.60639
0
LINE
8
BLACK
6
CONTINUOUS
10
6.15317
20
-3.60639
11
6.14547
21
-3.59518
0
LINE
8
BLACK
6
CONTINUOUS
10
6.14547
20
-3.59518
11
6.13911
21
-3.58317
0
LINE
8
BLACK
6
CONTINUOUS
10
6.13911
20
-3.58317
11
6.13417
21
-3.5705
0
LINE
8
BLACK
6
CONTINUOUS
10
6.13417
20
-3.5705
11
6.13072
21
-3.55735
0
LINE
8
BLACK
6
CONTINUOUS
10
6.13072
20
-3.55735
11
6.1288
21
-3.54388
0
LINE
8
BLACK
6
CONTINUOUS
10
6.1288
20
-3.54388
11
6.12845
21
-3.53029
0
LINE
8
BLACK
6
CONTINUOUS
10
6.12845
20
-3.53029
11
6.12966
21
-3.51675
0
LINE
8
BLACK
6
CONTINUOUS
10
6.12966
20
-3.51675
11
6.13241
21
-3.50343
0
LINE
8
BLACK
6
CONTINUOUS
10
6.13241
20
-3.50343
11
6.13668
21
-3.49052
0
LINE
8
BLACK
6
CONTINUOUS
10
6.13668
20
-3.49052
11
6.14241
21
-3.47819
0
LINE
8
BLACK
6
CONTINUOUS
10
6.14241
20
-3.47819
11
6.14951
21
-3.46659
0
LINE
8
BLACK
6
CONTINUOUS
10
6.14951
20
-3.46659
11
6.1579
21
-3.45589
0
LINE
8
BLACK
6
CONTINUOUS
10
6.1579
20
-3.45589
11
6.16747
21
-3.44623
0
LINE
8
BLACK
6
CONTINUOUS
10
6.16747
20
-3.44623
11
6.17808
21
-3.43773
0
LINE
8
BLACK
6
CONTINUOUS
10
6.17808
20
-3.43773
11
6.1896
21
-3.4305
0
LINE
8
BLACK
6
CONTINUOUS
10
6.1896
20
-3.4305
11
6.20187
21
-3.42465
0
LINE
8
BLACK
6
CONTINUOUS
10
6.20187
20
-3.42465
11
6.21474
21
-3.42024
0
LINE
8
BLACK
6
CONTINUOUS
10
6.21474
20
-3.42024
11
6.22802
21
-3.41734
0
LINE
8
BLACK
6
CONTINUOUS
10
6.22802
20
-3.41734
11
6.24155
21
-3.41599
0
LINE
8
BLACK
6
CONTINUOUS
10
6.24155
20
-3.41599
11
6.25515
21
-3.41621
0
LINE
8
BLACK
6
CONTINUOUS
10
6.06803
20
-3.5603
11
6.06933
21
-3.56117
0
LINE
8
BLACK
6
CONTINUOUS
10
6.06933
20
-3.56117
11
6.0702
21
-3.56247
0
LINE
8
BLACK
6
CONTINUOUS
10
6.0702
20
-3.56247
11
6.0705
21
-3.564
0
LINE
8
BLACK
6
CONTINUOUS
10
6.0705
20
-3.564
11
6.0705
21
-3.629
0
LINE
8
BLACK
6
CONTINUOUS
10
6.0705
20
-3.629
11
6.0702
21
-3.63053
0
LINE
8
BLACK
6
CONTINUOUS
10
6.0702
20
-3.63053
11
6.06933
21
-3.63183
0
LINE
8
BLACK
6
CONTINUOUS
10
6.06933
20
-3.63183
11
6.06803
21
-3.6327
0
LINE
8
BLACK
6
CONTINUOUS
10
6.06803
20
-3.6327
11
6.0665
21
-3.633
0
LINE
8
BLACK
6
CONTINUOUS
10
6.0665
20
-3.633
11
6.0015
21
-3.633
0
LINE
8
BLACK
6
CONTINUOUS
10
6.0015
20
-3.633
11
5.99997
21
-3.6327
0
LINE
8
BLACK
6
CONTINUOUS
10
5.99997
20
-3.6327
11
5.99867
21
-3.63183
0
LINE
8
BLACK
6
CONTINUOUS
10
5.99867
20
-3.63183
11
5.9978
21
-3.63053
0
LINE
8
BLACK
6
CONTINUOUS
10
5.9978
20
-3.63053
11
5.9975
21
-3.629
0
LINE
8
BLACK
6
CONTINUOUS
10
5.9975
20
-3.629
11
5.9975
21
-3.564
0
LINE
8
BLACK
6
CONTINUOUS
10
5.9975
20
-3.564
11
5.9978
21
-3.56247
0
LINE
8
BLACK
6
CONTINUOUS
10
5.9978
20
-3.56247
11
5.99867
21
-3.56117
0
LINE
8
BLACK
6
CONTINUOUS
10
5.99867
20
-3.56117
11
5.99997
21
-3.5603
0
LINE
8
BLACK
6
CONTINUOUS
10
5.99997
20
-3.5603
11
6.0015
21
-3.56
0
LINE
8
BLACK
6
CONTINUOUS
10
6.0015
20
-3.56
11
6.0665
21
-3.56
0
LINE
8
BLACK
6
CONTINUOUS
10
6.0665
20
-3.56
11
6.06803
21
-3.5603
0
LINE
8
BLACK
6
CONTINUOUS
10
5.96803
20
-3.5603
11
5.96933
21
-3.56117
0
LINE
8
BLACK
6
CONTINUOUS
10
5.96933
20
-3.56117
11
5.9702
21
-3.56247
0
LINE
8
BLACK
6
CONTINUOUS
10
5.9702
20
-3.56247
11
5.9705
21
-3.564
0
LINE
8
BLACK
6
CONTINUOUS
10
5.9705
20
-3.564
11
5.9705
21
-3.629
0
LINE
8
BLACK
6
CONTINUOUS
10
5.9705
20
-3.629
11
5.9702
21
-3.63053
0
LINE
8
BLACK
6
CONTINUOUS
10
5.9702
20
-3.63053
11
5.96933
21
-3.63183
0
LINE
8
BLACK
6
CONTINUOUS
10
5.96933
20
-3.63183
11
5.96803
21
-3.6327
0
LINE
8
BLACK
6
CONTINUOUS
10
5.96803
20
-3.6327
11
5.9665
21
-3.633
0
LINE
8
BLACK
6
CONTINUOUS
10
5.9665
20
-3.633
11
5.9015
21
-3.633
0
LINE
8
BLACK
6
CONTINUOUS
10
5.9015
20
-3.633
11
5.89997
21
-3.6327
0
LINE
8
BLACK
6
CONTINUOUS
10
5.89997
20
-3.6327
11
5.89867
21
-3.63183
0
LINE
8
BLACK
6
CONTINUOUS
10
5.89867
20
-3.63183
11
5.8978
21
-3.63053
0
LINE
8
BLACK
6
CONTINUOUS
10
5.8978
20
-3.63053
11
5.8975
21
-3.629
0
LINE
8
BLACK
6
CONTINUOUS
10
5.8975
20
-3.629
11
5.8975
21
-3.564
0
LINE
8
BLACK
6
CONTINUOUS
10
5.8975
20
-3.564
11
5.8978
21
-3.56247
0
LINE
8
BLACK
6
CONTINUOUS
10
5.8978
20
-3.56247
11
5.89867
21
-3.56117
0
LINE
8
BLACK
6
CONTINUOUS
10
5.89867
20
-3.56117
11
5.89997
21
-3.5603
0
LINE
8
BLACK
6
CONTINUOUS
10
5.89997
20
-3.5603
11
5.9015
21
-3.56
0
LINE
8
BLACK
6
CONTINUOUS
10
5.9015
20
-3.56
11
5.9665
21
-3.56
0
LINE
8
BLACK
6
CONTINUOUS
10
5.9665
20
-3.56
11
5.96803
21
-3.5603
0
LINE
8
BLACK
6
CONTINUOUS
10
5.86803
20
-3.5603
11
5.86933
21
-3.56117
0
LINE
8
BLACK
6
CONTINUOUS
10
5.86933
20
-3.56117
11
5.8702
21
-3.56247
0
LINE
8
BLACK
6
CONTINUOUS
10
5.8702
20
-3.56247
11
5.8705
21
-3.564
0
LINE
8
BLACK
6
CONTINUOUS
10
5.8705
20
-3.564
11
5.8705
21
-3.629
0
LINE
8
BLACK
6
CONTINUOUS
10
5.8705
20
-3.629
11
5.8702
21
-3.63053
0
LINE
8
BLACK
6
CONTINUOUS
10
5.8702
20
-3.63053
11
5.86933
21
-3.63183
0
LINE
8
BLACK
6
CONTINUOUS
10
5.86933
20
-3.63183
11
5.86803
21
-3.6327
0
LINE
8
BLACK
6
CONTINUOUS
10
5.86803
20
-3.6327
11
5.8665
21
-3.633
0
LINE
8
BLACK
6
CONTINUOUS
10
5.8665
20
-3.633
11
5.8015
21
-3.633
0
LINE
8
BLACK
6
CONTINUOUS
10
5.8015
20
-3.633
11
5.79997
21
-3.6327
0
LINE
8
BLACK
6
CONTINUOUS
10
5.79997
20
-3.6327
11
5.79867
21
-3.63183
0
LINE
8
BLACK
6
CONTINUOUS
10
5.79867
20
-3.63183
11
5.7978
21
-3.63053
0
LINE
8
BLACK
6
CONTINUOUS
10
5.7978
20
-3.63053
11
5.7975
21
-3.629
0
LINE
8
BLACK
6
CONTINUOUS
10
5.7975
20
-3.629
11
5.7975
21
-3.564
0
LINE
8
BLACK
6
CONTINUOUS
10
5.7975
20
-3.564
11
5.7978
21
-3.56247
0
LINE
8
BLACK
6
CONTINUOUS
10
5.7978
20
-3.56247
11
5.79867
21
-3.56117
0
LINE
8
BLACK
6
CONTINUOUS
10
5.79867
20
-3.56117
11
5.79997
21
-3.5603
0
LINE
8
BLACK
6
CONTINUOUS
10
5.79997
20
-3.5603
11
5.8015
21
-3.56
0
LINE
8
BLACK
6
CONTINUOUS
10
5.8015
20
-3.56
11
5.8665
21
-3.56
0
LINE
8
BLACK
6
CONTINUOUS
10
5.8665
20
-3.56
11
5.86803
21
-3.5603
0
LINE
8
BLACK
6
CONTINUOUS
10
6.06803
20
-3.4603
11
6.06933
21
-3.46117
0
LINE
8
BLACK
6
CONTINUOUS
10
6.06933
20
-3.46117
11
6.0702
21
-3.46247
0
LINE
8
BLACK
6
CONTINUOUS
10
6.0702
20
-3.46247
11
6.0705
21
-3.464
0
LINE
8
BLACK
6
CONTINUOUS
10
6.0705
20
-3.464
11
6.0705
21
-3.529
0
LINE
8
BLACK
6
CONTINUOUS
10
6.0705
20
-3.529
11
6.0702
21
-3.53053
0
LINE
8
BLACK
6
CONTINUOUS
10
6.0702
20
-3.53053
11
6.06933
21
-3.53183
0
LINE
8
BLACK
6
CONTINUOUS
10
6.06933
20
-3.53183
11
6.06803
21
-3.5327
0
LINE
8
BLACK
6
CONTINUOUS
10
6.06803
20
-3.5327
11
6.0665
21
-3.533
0
LINE
8
BLACK
6
CONTINUOUS
10
6.0665
20
-3.533
11
6.0015
21
-3.533
0
LINE
8
BLACK
6
CONTINUOUS
10
6.0015
20
-3.533
11
5.99997
21
-3.5327
0
LINE
8
BLACK
6
CONTINUOUS
10
5.99997
20
-3.5327
11
5.99867
21
-3.53183
0
LINE
8
BLACK
6
CONTINUOUS
10
5.99867
20
-3.53183
11
5.9978
21
-3.53053
0
LINE
8
BLACK
6
CONTINUOUS
10
5.9978
20
-3.53053
11
5.9975
21
-3.529
0
LINE
8
BLACK
6
CONTINUOUS
10
5.9975
20
-3.529
11
5.9975
21
-3.464
0
LINE
8
BLACK
6
CONTINUOUS
10
5.9975
20
-3.464
11
5.9978
21
-3.46247
0
LINE
8
BLACK
6
CONTINUOUS
10
5.9978
20
-3.46247
11
5.99867
21
-3.46117
0
LINE
8
BLACK
6
CONTINUOUS
10
5.99867
20
-3.46117
11
5.99997
21
-3.4603
0
LINE
8
BLACK
6
CONTINUOUS
10
5.99997
20
-3.4603
11
6.0015
21
-3.46
0
LINE
8
BLACK
6
CONTINUOUS
10
6.0015
20
-3.46
11
6.0665
21
-3.46
0
LINE
8
BLACK
6
CONTINUOUS
10
6.0665
20
-3.46
11
6.06803
21
-3.4603
0
LINE
8
BLACK
6
CONTINUOUS
10
5.96803
20
-3.4603
11
5.96933
21
-3.46117
0
LINE
8
BLACK
6
CONTINUOUS
10
5.96933
20
-3.46117
11
5.9702
21
-3.46247
0
LINE
8
BLACK
6
CONTINUOUS
10
5.9702
20
-3.46247
11
5.9705
21
-3.464
0
LINE
8
BLACK
6
CONTINUOUS
10
5.9705
20
-3.464
11
5.9705
21
-3.529
0
LINE
8
BLACK
6
CONTINUOUS
10
5.9705
20
-3.529
11
5.9702
21
-3.53053
0
LINE
8
BLACK
6
CONTINUOUS
10
5.9702
20
-3.53053
11
5.96933
21
-3.53183
0
LINE
8
BLACK
6
CONTINUOUS
10
5.96933
20
-3.53183
11
5.96803
21
-3.5327
0
LINE
8
BLACK
6
CONTINUOUS
10
5.96803
20
-3.5327
11
5.9665
21
-3.533
0
LINE
8
BLACK
6
CONTINUOUS
10
5.9665
20
-3.533
11
5.9015
21
-3.533
0
LINE
8
BLACK
6
CONTINUOUS
10
5.9015
20
-3.533
11
5.89997
21
-3.5327
0
LINE
8
BLACK
6
CONTINUOUS
10
5.89997
20
-3.5327
11
5.89867
21
-3.53183
0
LINE
8
BLACK
6
CONTINUOUS
10
5.89867
20
-3.53183
11
5.8978
21
-3.53053
0
LINE
8
BLACK
6
CONTINUOUS
10
5.8978
20
-3.53053
11
5.8975
21
-3.529
0
LINE
8
BLACK
6
CONTINUOUS
10
5.8975
20
-3.529
11
5.8975
21
-3.464
0
LINE
8
BLACK
6
CONTINUOUS
10
5.8975
20
-3.464
11
5.8978
21
-3.46247
0
LINE
8
BLACK
6
CONTINUOUS
10
5.8978
20
-3.46247
11
5.89867
21
-3.46117
0
LINE
8
BLACK
6
CONTINUOUS
10
5.89867
20
-3.46117
11
5.89997
21
-3.4603
0
LINE
8
BLACK
6
CONTINUOUS
10
5.89997
20
-3.4603
11
5.9015
21
-3.46
0
LINE
8
BLACK
6
CONTINUOUS
10
5.9015
20
-3.46
11
5.9665
21
-3.46
0
LINE
8
BLACK
6
CONTINUOUS
10
5.9665
20
-3.46
11
5.96803
21
-3.4603
0
LINE
8
BLACK
6
CONTINUOUS
10
5.86803
20
-3.4603
11
5.86933
21
-3.46117
0
LINE
8
BLACK
6
CONTINUOUS
10
5.86933
20
-3.46117
11
5.8702
21
-3.46247
0
LINE
8
BLACK
6
CONTINUOUS
10
5.8702
20
-3.46247
11
5.8705
21
-3.464
0
LINE
8
BLACK
6
CONTINUOUS
10
5.8705
20
-3.464
11
5.8705
21
-3.529
0
LINE
8
BLACK
6
CONTINUOUS
10
5.8705
20
-3.529
11
5.8702
21
-3.53053
0
LINE
8
BLACK
6
CONTINUOUS
10
5.8702
20
-3.53053
11
5.86933
21
-3.53183
0
LINE
8
BLACK
6
CONTINUOUS
10
5.86933
20
-3.53183
11
5.86803
21
-3.5327
0
LINE
8
BLACK
6
CONTINUOUS
10
5.86803
20
-3.5327
11
5.8665
21
-3.533
0
LINE
8
BLACK
6
CONTINUOUS
10
5.8665
20
-3.533
11
5.8015
21
-3.533
0
LINE
8
BLACK
6
CONTINUOUS
10
5.8015
20
-3.533
11
5.79997
21
-3.5327
0
LINE
8
BLACK
6
CONTINUOUS
10
5.79997
20
-3.5327
11
5.79867
21
-3.53183
0
LINE
8
BLACK
6
CONTINUOUS
10
5.79867
20
-3.53183
11
5.7978
21
-3.53053
0
LINE
8
BLACK
6
CONTINUOUS
10
5.7978
20
-3.53053
11
5.7975
21
-3.529
0
LINE
8
BLACK
6
CONTINUOUS
10
5.7975
20
-3.529
11
5.7975
21
-3.464
0
LINE
8
BLACK
6
CONTINUOUS
10
5.7975
20
-3.464
11
5.7978
21
-3.46247
0
LINE
8
BLACK
6
CONTINUOUS
10
5.7978
20
-3.46247
11
5.79867
21
-3.46117
0
LINE
8
BLACK
6
CONTINUOUS
10
5.79867
20
-3.46117
11
5.79997
21
-3.4603
0
LINE
8
BLACK
6
CONTINUOUS
10
5.79997
20
-3.4603
11
5.8015
21
-3.46
0
LINE
8
BLACK
6
CONTINUOUS
10
5.8015
20
-3.46
11
5.8665
21
-3.46
0
LINE
8
BLACK
6
CONTINUOUS
10
5.8665
20
-3.46
11
5.86803
21
-3.4603
  0
ENDSEC
  0
EOF
