  0
SECTION
  2
HEADER
  9
$ANGBASE
  50
0.0
  9
$ANGDIR
  70
1
  9
$MEASUREMENT
  70
0
  0
ENDSEC
  0
SECTION
  2
TABLES
  0
TABLE
  2
LTYPE
  70
4
  0
LTYPE
  5
40F
  2
CONTINUOUS
  70
0
  3
Solid line
  72
65
  73
0
  40
0.0
  0
LTYPE
  5
410
  2
DASHDOT
 70
0
  3
Dash Dot ____ _ ____ _
 72
65
 73
4
 40
2.0
 49
1.25
 49
-0.25
 49
0.25
 49
-0.25
  0
LTYPE
  5
411
  2
DASHED
 70
0
  3
Dashed __ __ __ __ __
 72
65
 73
2
 40
0.75
 49
0.5
 49
-0.25
  0
LTYPE
  5
43B
  2
DOTTED
 70
0
  3
Dotted .  .  .  .
 72
65
 73
2
 40
0.2
 49
0.0
 49
-0.2
  0
ENDTAB
  0
TABLE
  2
STYLE
  70
4
  0
STYLE
  2
KICAD
  70
0
  40
0
  41
1
  42
1
  50
0
  71
0
  3
isocp.shx
  0
STYLE
  2
KICADB
  70
0
  40
0
  41
1
  42
1
  50
0
  71
0
  3
isocp.shx
  0
STYLE
  2
KICADI
  70
0
  40
0
  41
1
  42
1
  50
15
  71
0
  3
isocp.shx
  0
STYLE
  2
KICADBI
  70
0
  40
0
  41
1
  42
1
  50
15
  71
0
  3
isocp.shx
  0
ENDTAB
  0
TABLE
  2
LAYER
  70
1
  0
LAYER
  2
BLACK
  70
0
  62
7
  6
CONTINUOUS
  0
ENDTAB
  0
ENDSEC
  0
SECTION
  2
ENTITIES
0
LINE
8
BLACK
6
CONTINUOUS
10
5.25818
20
-3.34604
11
5.25993
21
-3.34503
0
LINE
8
BLACK
6
CONTINUOUS
10
5.25993
20
-3.34503
11
5.26044
21
-3.34498
0
LINE
8
BLACK
6
CONTINUOUS
10
5.26044
20
-3.34498
11
6.43256
21
-3.34498
0
LINE
8
BLACK
6
CONTINUOUS
10
6.43256
20
-3.34498
11
6.43446
21
-3.34568
0
LINE
8
BLACK
6
CONTINUOUS
10
6.43446
20
-3.34568
11
6.43547
21
-3.34743
0
LINE
8
BLACK
6
CONTINUOUS
10
6.43547
20
-3.34743
11
6.43552
21
-3.34794
0
LINE
8
BLACK
6
CONTINUOUS
10
6.43552
20
-3.34794
11
6.43552
21
-4.92006
0
LINE
8
BLACK
6
CONTINUOUS
10
6.43552
20
-4.92006
11
6.43482
21
-4.92196
0
LINE
8
BLACK
6
CONTINUOUS
10
6.43482
20
-4.92196
11
6.43307
21
-4.92297
0
LINE
8
BLACK
6
CONTINUOUS
10
6.43307
20
-4.92297
11
6.43256
21
-4.92302
0
LINE
8
BLACK
6
CONTINUOUS
10
6.43256
20
-4.92302
11
5.26044
21
-4.92302
0
LINE
8
BLACK
6
CONTINUOUS
10
5.26044
20
-4.92302
11
5.25854
21
-4.92232
0
LINE
8
BLACK
6
CONTINUOUS
10
5.25854
20
-4.92232
11
5.25753
21
-4.92057
0
LINE
8
BLACK
6
CONTINUOUS
10
5.25753
20
-4.92057
11
5.25748
21
-4.92006
0
LINE
8
BLACK
6
CONTINUOUS
10
5.25748
20
-4.92006
11
5.25748
21
-3.34794
0
LINE
8
BLACK
6
CONTINUOUS
10
5.25748
20
-3.34794
11
5.25818
21
-3.34604
0
LINE
8
BLACK
6
CONTINUOUS
10
5.34583
20
-4.54385
11
5.34716
21
-4.54584
0
LINE
8
BLACK
6
CONTINUOUS
10
5.34716
20
-4.54584
11
5.3474
21
-4.546
0
LINE
8
BLACK
6
CONTINUOUS
10
5.3474
20
-4.546
11
5.34891
21
-4.54701
0
LINE
8
BLACK
6
CONTINUOUS
10
5.34891
20
-4.54701
11
5.34891
21
-4.54701
0
LINE
8
BLACK
6
CONTINUOUS
10
5.34891
20
-4.54701
11
5.34915
21
-4.54717
0
LINE
8
BLACK
6
CONTINUOUS
10
5.34915
20
-4.54717
11
5.35091
21
-4.54752
0
LINE
8
BLACK
6
CONTINUOUS
10
5.35091
20
-4.54752
11
5.384
21
-4.54752
0
LINE
8
BLACK
6
CONTINUOUS
10
5.384
20
-4.54752
11
5.41709
21
-4.54752
0
LINE
8
BLACK
6
CONTINUOUS
10
5.41709
20
-4.54752
11
5.41885
21
-4.54717
0
LINE
8
BLACK
6
CONTINUOUS
10
5.41885
20
-4.54717
11
5.42084
21
-4.54584
0
LINE
8
BLACK
6
CONTINUOUS
10
5.42084
20
-4.54584
11
5.42217
21
-4.54385
0
LINE
8
BLACK
6
CONTINUOUS
10
5.42217
20
-4.54385
11
5.42252
21
-4.54209
0
LINE
8
BLACK
6
CONTINUOUS
10
5.42252
20
-4.54209
11
5.42252
21
-4.47591
0
LINE
8
BLACK
6
CONTINUOUS
10
5.42252
20
-4.47591
11
5.42217
21
-4.47415
0
LINE
8
BLACK
6
CONTINUOUS
10
5.42217
20
-4.47415
11
5.42084
21
-4.47216
0
LINE
8
BLACK
6
CONTINUOUS
10
5.42084
20
-4.47216
11
5.41909
21
-4.47099
0
LINE
8
BLACK
6
CONTINUOUS
10
5.41909
20
-4.47099
11
5.41909
21
-4.47099
0
LINE
8
BLACK
6
CONTINUOUS
10
5.41909
20
-4.47099
11
5.41885
21
-4.47083
0
LINE
8
BLACK
6
CONTINUOUS
10
5.41885
20
-4.47083
11
5.41709
21
-4.47048
0
LINE
8
BLACK
6
CONTINUOUS
10
5.41709
20
-4.47048
11
5.384
21
-4.47048
0
LINE
8
BLACK
6
CONTINUOUS
10
5.384
20
-4.47048
11
5.35091
21
-4.47048
0
LINE
8
BLACK
6
CONTINUOUS
10
5.35091
20
-4.47048
11
5.34915
21
-4.47083
0
LINE
8
BLACK
6
CONTINUOUS
10
5.34915
20
-4.47083
11
5.34716
21
-4.47216
0
LINE
8
BLACK
6
CONTINUOUS
10
5.34716
20
-4.47216
11
5.34583
21
-4.47415
0
LINE
8
BLACK
6
CONTINUOUS
10
5.34583
20
-4.47415
11
5.34548
21
-4.47591
0
LINE
8
BLACK
6
CONTINUOUS
10
5.34548
20
-4.47591
11
5.34548
21
-4.54209
0
LINE
8
BLACK
6
CONTINUOUS
10
5.34548
20
-4.54209
11
5.34583
21
-4.54385
0
LINE
8
BLACK
6
CONTINUOUS
10
5.79134
20
-4.80547
11
5.81772
21
-4.80547
0
LINE
8
BLACK
6
CONTINUOUS
10
5.81772
20
-4.80547
11
5.81793
21
-4.80545
0
LINE
8
BLACK
6
CONTINUOUS
10
5.81793
20
-4.80545
11
5.82034
21
-4.8051
0
LINE
8
BLACK
6
CONTINUOUS
10
5.82034
20
-4.8051
11
5.82078
21
-4.80496
0
LINE
8
BLACK
6
CONTINUOUS
10
5.82078
20
-4.80496
11
5.82452
21
-4.80312
0
LINE
8
BLACK
6
CONTINUOUS
10
5.82452
20
-4.80312
11
5.82492
21
-4.80284
0
LINE
8
BLACK
6
CONTINUOUS
10
5.82492
20
-4.80284
11
5.82786
21
-4.7999
0
LINE
8
BLACK
6
CONTINUOUS
10
5.82786
20
-4.7999
11
5.82814
21
-4.7995
0
LINE
8
BLACK
6
CONTINUOUS
10
5.82814
20
-4.7995
11
5.82997
21
-4.79575
0
LINE
8
BLACK
6
CONTINUOUS
10
5.82997
20
-4.79575
11
5.8301
21
-4.79532
0
LINE
8
BLACK
6
CONTINUOUS
10
5.8301
20
-4.79532
11
5.83045
21
-4.79293
0
LINE
8
BLACK
6
CONTINUOUS
10
5.83045
20
-4.79293
11
5.83047
21
-4.79272
0
LINE
8
BLACK
6
CONTINUOUS
10
5.83047
20
-4.79272
11
5.83047
21
-4.76651
0
LINE
8
BLACK
6
CONTINUOUS
10
5.83047
20
-4.76651
11
5.83032
21
-4.76611
0
LINE
8
BLACK
6
CONTINUOUS
10
5.83032
20
-4.76611
11
5.83011
21
-4.76598
0
LINE
8
BLACK
6
CONTINUOUS
10
5.83011
20
-4.76598
11
5.8165
21
-4.76598
0
LINE
8
BLACK
6
CONTINUOUS
10
5.8165
20
-4.76598
11
5.8165
21
-4.7915
0
LINE
8
BLACK
6
CONTINUOUS
10
5.8165
20
-4.7915
11
5.79098
21
-4.7915
0
LINE
8
BLACK
6
CONTINUOUS
10
5.79098
20
-4.7915
11
5.79098
21
-4.80495
0
LINE
8
BLACK
6
CONTINUOUS
10
5.79098
20
-4.80495
11
5.79113
21
-4.80535
0
LINE
8
BLACK
6
CONTINUOUS
10
5.79113
20
-4.80535
11
5.79134
21
-4.80547
0
LINE
8
BLACK
6
CONTINUOUS
10
5.99134
20
-4.80547
11
6.01772
21
-4.80547
0
LINE
8
BLACK
6
CONTINUOUS
10
6.01772
20
-4.80547
11
6.01793
21
-4.80545
0
LINE
8
BLACK
6
CONTINUOUS
10
6.01793
20
-4.80545
11
6.02034
21
-4.8051
0
LINE
8
BLACK
6
CONTINUOUS
10
6.02034
20
-4.8051
11
6.02078
21
-4.80496
0
LINE
8
BLACK
6
CONTINUOUS
10
6.02078
20
-4.80496
11
6.02452
21
-4.80312
0
LINE
8
BLACK
6
CONTINUOUS
10
6.02452
20
-4.80312
11
6.02492
21
-4.80284
0
LINE
8
BLACK
6
CONTINUOUS
10
6.02492
20
-4.80284
11
6.02786
21
-4.7999
0
LINE
8
BLACK
6
CONTINUOUS
10
6.02786
20
-4.7999
11
6.02814
21
-4.7995
0
LINE
8
BLACK
6
CONTINUOUS
10
6.02814
20
-4.7995
11
6.02997
21
-4.79575
0
LINE
8
BLACK
6
CONTINUOUS
10
6.02997
20
-4.79575
11
6.0301
21
-4.79532
0
LINE
8
BLACK
6
CONTINUOUS
10
6.0301
20
-4.79532
11
6.03045
21
-4.79293
0
LINE
8
BLACK
6
CONTINUOUS
10
6.03045
20
-4.79293
11
6.03047
21
-4.79272
0
LINE
8
BLACK
6
CONTINUOUS
10
6.03047
20
-4.79272
11
6.03047
21
-4.76651
0
LINE
8
BLACK
6
CONTINUOUS
10
6.03047
20
-4.76651
11
6.03032
21
-4.76611
0
LINE
8
BLACK
6
CONTINUOUS
10
6.03032
20
-4.76611
11
6.03011
21
-4.76598
0
LINE
8
BLACK
6
CONTINUOUS
10
6.03011
20
-4.76598
11
6.0165
21
-4.76598
0
LINE
8
BLACK
6
CONTINUOUS
10
6.0165
20
-4.76598
11
6.0165
21
-4.7915
0
LINE
8
BLACK
6
CONTINUOUS
10
6.0165
20
-4.7915
11
5.99098
21
-4.7915
0
LINE
8
BLACK
6
CONTINUOUS
10
5.99098
20
-4.7915
11
5.99098
21
-4.80495
0
LINE
8
BLACK
6
CONTINUOUS
10
5.99098
20
-4.80495
11
5.99113
21
-4.80535
0
LINE
8
BLACK
6
CONTINUOUS
10
5.99113
20
-4.80535
11
5.99134
21
-4.80547
0
LINE
8
BLACK
6
CONTINUOUS
10
5.73789
20
-4.75202
11
5.7515
21
-4.75202
0
LINE
8
BLACK
6
CONTINUOUS
10
5.7515
20
-4.75202
11
5.7515
21
-4.7265
0
LINE
8
BLACK
6
CONTINUOUS
10
5.7515
20
-4.7265
11
5.77702
21
-4.7265
0
LINE
8
BLACK
6
CONTINUOUS
10
5.77702
20
-4.7265
11
5.77702
21
-4.71305
0
LINE
8
BLACK
6
CONTINUOUS
10
5.77702
20
-4.71305
11
5.77687
21
-4.71265
0
LINE
8
BLACK
6
CONTINUOUS
10
5.77687
20
-4.71265
11
5.77666
21
-4.71253
0
LINE
8
BLACK
6
CONTINUOUS
10
5.77666
20
-4.71253
11
5.75028
21
-4.71253
0
LINE
8
BLACK
6
CONTINUOUS
10
5.75028
20
-4.71253
11
5.75007
21
-4.71255
0
LINE
8
BLACK
6
CONTINUOUS
10
5.75007
20
-4.71255
11
5.74766
21
-4.7129
0
LINE
8
BLACK
6
CONTINUOUS
10
5.74766
20
-4.7129
11
5.74722
21
-4.71304
0
LINE
8
BLACK
6
CONTINUOUS
10
5.74722
20
-4.71304
11
5.74348
21
-4.71488
0
LINE
8
BLACK
6
CONTINUOUS
10
5.74348
20
-4.71488
11
5.74308
21
-4.71516
0
LINE
8
BLACK
6
CONTINUOUS
10
5.74308
20
-4.71516
11
5.74014
21
-4.7181
0
LINE
8
BLACK
6
CONTINUOUS
10
5.74014
20
-4.7181
11
5.73986
21
-4.7185
0
LINE
8
BLACK
6
CONTINUOUS
10
5.73986
20
-4.7185
11
5.73803
21
-4.72225
0
LINE
8
BLACK
6
CONTINUOUS
10
5.73803
20
-4.72225
11
5.7379
21
-4.72268
0
LINE
8
BLACK
6
CONTINUOUS
10
5.7379
20
-4.72268
11
5.73755
21
-4.72507
0
LINE
8
BLACK
6
CONTINUOUS
10
5.73755
20
-4.72507
11
5.73753
21
-4.72528
0
LINE
8
BLACK
6
CONTINUOUS
10
5.73753
20
-4.72528
11
5.73753
21
-4.75149
0
LINE
8
BLACK
6
CONTINUOUS
10
5.73753
20
-4.75149
11
5.73768
21
-4.75189
0
LINE
8
BLACK
6
CONTINUOUS
10
5.73768
20
-4.75189
11
5.73789
21
-4.75202
0
LINE
8
BLACK
6
CONTINUOUS
10
5.99151
20
-4.71253
11
5.99111
21
-4.71268
0
LINE
8
BLACK
6
CONTINUOUS
10
5.99111
20
-4.71268
11
5.99098
21
-4.71289
0
LINE
8
BLACK
6
CONTINUOUS
10
5.99098
20
-4.71289
11
5.99098
21
-4.7265
0
LINE
8
BLACK
6
CONTINUOUS
10
5.99098
20
-4.7265
11
6.0165
21
-4.7265
0
LINE
8
BLACK
6
CONTINUOUS
10
6.0165
20
-4.7265
11
6.0165
21
-4.75202
0
LINE
8
BLACK
6
CONTINUOUS
10
6.0165
20
-4.75202
11
6.02995
21
-4.75202
0
LINE
8
BLACK
6
CONTINUOUS
10
6.02995
20
-4.75202
11
6.03035
21
-4.75187
0
LINE
8
BLACK
6
CONTINUOUS
10
6.03035
20
-4.75187
11
6.03047
21
-4.75166
0
LINE
8
BLACK
6
CONTINUOUS
10
6.03047
20
-4.75166
11
6.03047
21
-4.72528
0
LINE
8
BLACK
6
CONTINUOUS
10
6.03047
20
-4.72528
11
6.03045
21
-4.72507
0
LINE
8
BLACK
6
CONTINUOUS
10
6.03045
20
-4.72507
11
6.0301
21
-4.72266
0
LINE
8
BLACK
6
CONTINUOUS
10
6.0301
20
-4.72266
11
6.02996
21
-4.72222
0
LINE
8
BLACK
6
CONTINUOUS
10
6.02996
20
-4.72222
11
6.02812
21
-4.71848
0
LINE
8
BLACK
6
CONTINUOUS
10
6.02812
20
-4.71848
11
6.02784
21
-4.71808
0
LINE
8
BLACK
6
CONTINUOUS
10
6.02784
20
-4.71808
11
6.0249
21
-4.71514
0
LINE
8
BLACK
6
CONTINUOUS
10
6.0249
20
-4.71514
11
6.0245
21
-4.71486
0
LINE
8
BLACK
6
CONTINUOUS
10
6.0245
20
-4.71486
11
6.02075
21
-4.71303
0
LINE
8
BLACK
6
CONTINUOUS
10
6.02075
20
-4.71303
11
6.02032
21
-4.7129
0
LINE
8
BLACK
6
CONTINUOUS
10
6.02032
20
-4.7129
11
6.01793
21
-4.71255
0
LINE
8
BLACK
6
CONTINUOUS
10
6.01793
20
-4.71255
11
6.01772
21
-4.71253
0
LINE
8
BLACK
6
CONTINUOUS
10
6.01772
20
-4.71253
11
5.99151
21
-4.71253
0
LINE
8
BLACK
6
CONTINUOUS
10
5.79134
20
-4.70547
11
5.81772
21
-4.70547
0
LINE
8
BLACK
6
CONTINUOUS
10
5.81772
20
-4.70547
11
5.81793
21
-4.70545
0
LINE
8
BLACK
6
CONTINUOUS
10
5.81793
20
-4.70545
11
5.82034
21
-4.7051
0
LINE
8
BLACK
6
CONTINUOUS
10
5.82034
20
-4.7051
11
5.82078
21
-4.70496
0
LINE
8
BLACK
6
CONTINUOUS
10
5.82078
20
-4.70496
11
5.82452
21
-4.70312
0
LINE
8
BLACK
6
CONTINUOUS
10
5.82452
20
-4.70312
11
5.82492
21
-4.70284
0
LINE
8
BLACK
6
CONTINUOUS
10
5.82492
20
-4.70284
11
5.82786
21
-4.6999
0
LINE
8
BLACK
6
CONTINUOUS
10
5.82786
20
-4.6999
11
5.82814
21
-4.6995
0
LINE
8
BLACK
6
CONTINUOUS
10
5.82814
20
-4.6995
11
5.82997
21
-4.69575
0
LINE
8
BLACK
6
CONTINUOUS
10
5.82997
20
-4.69575
11
5.8301
21
-4.69532
0
LINE
8
BLACK
6
CONTINUOUS
10
5.8301
20
-4.69532
11
5.83045
21
-4.69293
0
LINE
8
BLACK
6
CONTINUOUS
10
5.83045
20
-4.69293
11
5.83047
21
-4.69272
0
LINE
8
BLACK
6
CONTINUOUS
10
5.83047
20
-4.69272
11
5.83047
21
-4.66651
0
LINE
8
BLACK
6
CONTINUOUS
10
5.83047
20
-4.66651
11
5.83032
21
-4.66611
0
LINE
8
BLACK
6
CONTINUOUS
10
5.83032
20
-4.66611
11
5.83011
21
-4.66598
0
LINE
8
BLACK
6
CONTINUOUS
10
5.83011
20
-4.66598
11
5.8165
21
-4.66598
0
LINE
8
BLACK
6
CONTINUOUS
10
5.8165
20
-4.66598
11
5.8165
21
-4.6915
0
LINE
8
BLACK
6
CONTINUOUS
10
5.8165
20
-4.6915
11
5.79098
21
-4.6915
0
LINE
8
BLACK
6
CONTINUOUS
10
5.79098
20
-4.6915
11
5.79098
21
-4.70495
0
LINE
8
BLACK
6
CONTINUOUS
10
5.79098
20
-4.70495
11
5.79113
21
-4.70535
0
LINE
8
BLACK
6
CONTINUOUS
10
5.79113
20
-4.70535
11
5.79134
21
-4.70547
0
LINE
8
BLACK
6
CONTINUOUS
10
5.99134
20
-4.70547
11
6.01772
21
-4.70547
0
LINE
8
BLACK
6
CONTINUOUS
10
6.01772
20
-4.70547
11
6.01793
21
-4.70545
0
LINE
8
BLACK
6
CONTINUOUS
10
6.01793
20
-4.70545
11
6.02034
21
-4.7051
0
LINE
8
BLACK
6
CONTINUOUS
10
6.02034
20
-4.7051
11
6.02078
21
-4.70496
0
LINE
8
BLACK
6
CONTINUOUS
10
6.02078
20
-4.70496
11
6.02452
21
-4.70312
0
LINE
8
BLACK
6
CONTINUOUS
10
6.02452
20
-4.70312
11
6.02492
21
-4.70284
0
LINE
8
BLACK
6
CONTINUOUS
10
6.02492
20
-4.70284
11
6.02786
21
-4.6999
0
LINE
8
BLACK
6
CONTINUOUS
10
6.02786
20
-4.6999
11
6.02814
21
-4.6995
0
LINE
8
BLACK
6
CONTINUOUS
10
6.02814
20
-4.6995
11
6.02997
21
-4.69575
0
LINE
8
BLACK
6
CONTINUOUS
10
6.02997
20
-4.69575
11
6.0301
21
-4.69532
0
LINE
8
BLACK
6
CONTINUOUS
10
6.0301
20
-4.69532
11
6.03045
21
-4.69293
0
LINE
8
BLACK
6
CONTINUOUS
10
6.03045
20
-4.69293
11
6.03047
21
-4.69272
0
LINE
8
BLACK
6
CONTINUOUS
10
6.03047
20
-4.69272
11
6.03047
21
-4.66651
0
LINE
8
BLACK
6
CONTINUOUS
10
6.03047
20
-4.66651
11
6.03032
21
-4.66611
0
LINE
8
BLACK
6
CONTINUOUS
10
6.03032
20
-4.66611
11
6.03011
21
-4.66598
0
LINE
8
BLACK
6
CONTINUOUS
10
6.03011
20
-4.66598
11
6.0165
21
-4.66598
0
LINE
8
BLACK
6
CONTINUOUS
10
6.0165
20
-4.66598
11
6.0165
21
-4.6915
0
LINE
8
BLACK
6
CONTINUOUS
10
6.0165
20
-4.6915
11
5.99098
21
-4.6915
0
LINE
8
BLACK
6
CONTINUOUS
10
5.99098
20
-4.6915
11
5.99098
21
-4.70495
0
LINE
8
BLACK
6
CONTINUOUS
10
5.99098
20
-4.70495
11
5.99113
21
-4.70535
0
LINE
8
BLACK
6
CONTINUOUS
10
5.99113
20
-4.70535
11
5.99134
21
-4.70547
0
LINE
8
BLACK
6
CONTINUOUS
10
5.73789
20
-4.65202
11
5.7515
21
-4.65202
0
LINE
8
BLACK
6
CONTINUOUS
10
5.7515
20
-4.65202
11
5.7515
21
-4.6265
0
LINE
8
BLACK
6
CONTINUOUS
10
5.7515
20
-4.6265
11
5.77702
21
-4.6265
0
LINE
8
BLACK
6
CONTINUOUS
10
5.77702
20
-4.6265
11
5.77702
21
-4.61305
0
LINE
8
BLACK
6
CONTINUOUS
10
5.77702
20
-4.61305
11
5.77687
21
-4.61265
0
LINE
8
BLACK
6
CONTINUOUS
10
5.77687
20
-4.61265
11
5.77666
21
-4.61253
0
LINE
8
BLACK
6
CONTINUOUS
10
5.77666
20
-4.61253
11
5.75028
21
-4.61253
0
LINE
8
BLACK
6
CONTINUOUS
10
5.75028
20
-4.61253
11
5.75007
21
-4.61255
0
LINE
8
BLACK
6
CONTINUOUS
10
5.75007
20
-4.61255
11
5.74766
21
-4.6129
0
LINE
8
BLACK
6
CONTINUOUS
10
5.74766
20
-4.6129
11
5.74722
21
-4.61304
0
LINE
8
BLACK
6
CONTINUOUS
10
5.74722
20
-4.61304
11
5.74348
21
-4.61488
0
LINE
8
BLACK
6
CONTINUOUS
10
5.74348
20
-4.61488
11
5.74308
21
-4.61516
0
LINE
8
BLACK
6
CONTINUOUS
10
5.74308
20
-4.61516
11
5.74014
21
-4.6181
0
LINE
8
BLACK
6
CONTINUOUS
10
5.74014
20
-4.6181
11
5.73986
21
-4.6185
0
LINE
8
BLACK
6
CONTINUOUS
10
5.73986
20
-4.6185
11
5.73803
21
-4.62225
0
LINE
8
BLACK
6
CONTINUOUS
10
5.73803
20
-4.62225
11
5.7379
21
-4.62268
0
LINE
8
BLACK
6
CONTINUOUS
10
5.7379
20
-4.62268
11
5.73755
21
-4.62507
0
LINE
8
BLACK
6
CONTINUOUS
10
5.73755
20
-4.62507
11
5.73753
21
-4.62528
0
LINE
8
BLACK
6
CONTINUOUS
10
5.73753
20
-4.62528
11
5.73753
21
-4.65149
0
LINE
8
BLACK
6
CONTINUOUS
10
5.73753
20
-4.65149
11
5.73768
21
-4.65189
0
LINE
8
BLACK
6
CONTINUOUS
10
5.73768
20
-4.65189
11
5.73789
21
-4.65202
0
LINE
8
BLACK
6
CONTINUOUS
10
5.99151
20
-4.61253
11
5.99111
21
-4.61268
0
LINE
8
BLACK
6
CONTINUOUS
10
5.99111
20
-4.61268
11
5.99098
21
-4.61289
0
LINE
8
BLACK
6
CONTINUOUS
10
5.99098
20
-4.61289
11
5.99098
21
-4.6265
0
LINE
8
BLACK
6
CONTINUOUS
10
5.99098
20
-4.6265
11
6.0165
21
-4.6265
0
LINE
8
BLACK
6
CONTINUOUS
10
6.0165
20
-4.6265
11
6.0165
21
-4.65202
0
LINE
8
BLACK
6
CONTINUOUS
10
6.0165
20
-4.65202
11
6.02995
21
-4.65202
0
LINE
8
BLACK
6
CONTINUOUS
10
6.02995
20
-4.65202
11
6.03035
21
-4.65187
0
LINE
8
BLACK
6
CONTINUOUS
10
6.03035
20
-4.65187
11
6.03047
21
-4.65166
0
LINE
8
BLACK
6
CONTINUOUS
10
6.03047
20
-4.65166
11
6.03047
21
-4.62528
0
LINE
8
BLACK
6
CONTINUOUS
10
6.03047
20
-4.62528
11
6.03045
21
-4.62507
0
LINE
8
BLACK
6
CONTINUOUS
10
6.03045
20
-4.62507
11
6.0301
21
-4.62266
0
LINE
8
BLACK
6
CONTINUOUS
10
6.0301
20
-4.62266
11
6.02996
21
-4.62222
0
LINE
8
BLACK
6
CONTINUOUS
10
6.02996
20
-4.62222
11
6.02812
21
-4.61848
0
LINE
8
BLACK
6
CONTINUOUS
10
6.02812
20
-4.61848
11
6.02784
21
-4.61808
0
LINE
8
BLACK
6
CONTINUOUS
10
6.02784
20
-4.61808
11
6.0249
21
-4.61514
0
LINE
8
BLACK
6
CONTINUOUS
10
6.0249
20
-4.61514
11
6.0245
21
-4.61486
0
LINE
8
BLACK
6
CONTINUOUS
10
6.0245
20
-4.61486
11
6.02075
21
-4.61303
0
LINE
8
BLACK
6
CONTINUOUS
10
6.02075
20
-4.61303
11
6.02032
21
-4.6129
0
LINE
8
BLACK
6
CONTINUOUS
10
6.02032
20
-4.6129
11
6.01793
21
-4.61255
0
LINE
8
BLACK
6
CONTINUOUS
10
6.01793
20
-4.61255
11
6.01772
21
-4.61253
0
LINE
8
BLACK
6
CONTINUOUS
10
6.01772
20
-4.61253
11
5.99151
21
-4.61253
0
LINE
8
BLACK
6
CONTINUOUS
10
6.28553
20
-4.27605
11
6.28575
21
-4.27773
0
LINE
8
BLACK
6
CONTINUOUS
10
6.28575
20
-4.27773
11
6.28816
21
-4.28353
0
LINE
8
BLACK
6
CONTINUOUS
10
6.28816
20
-4.28353
11
6.28827
21
-4.28369
0
LINE
8
BLACK
6
CONTINUOUS
10
6.28827
20
-4.28369
11
6.28827
21
-4.28369
0
LINE
8
BLACK
6
CONTINUOUS
10
6.28827
20
-4.28369
11
6.29186
21
-4.28836
0
LINE
8
BLACK
6
CONTINUOUS
10
6.29186
20
-4.28836
11
6.29198
21
-4.28852
0
LINE
8
BLACK
6
CONTINUOUS
10
6.29198
20
-4.28852
11
6.29214
21
-4.28864
0
LINE
8
BLACK
6
CONTINUOUS
10
6.29214
20
-4.28864
11
6.29681
21
-4.29223
0
LINE
8
BLACK
6
CONTINUOUS
10
6.29681
20
-4.29223
11
6.29681
21
-4.29223
0
LINE
8
BLACK
6
CONTINUOUS
10
6.29681
20
-4.29223
11
6.29697
21
-4.29234
0
LINE
8
BLACK
6
CONTINUOUS
10
6.29697
20
-4.29234
11
6.29987
21
-4.29355
0
LINE
8
BLACK
6
CONTINUOUS
10
6.29987
20
-4.29355
11
6.30259
21
-4.29467
0
LINE
8
BLACK
6
CONTINUOUS
10
6.30259
20
-4.29467
11
6.30259
21
-4.29467
0
LINE
8
BLACK
6
CONTINUOUS
10
6.30259
20
-4.29467
11
6.30277
21
-4.29475
0
LINE
8
BLACK
6
CONTINUOUS
10
6.30277
20
-4.29475
11
6.30296
21
-4.29477
0
LINE
8
BLACK
6
CONTINUOUS
10
6.30296
20
-4.29477
11
6.30296
21
-4.29477
0
LINE
8
BLACK
6
CONTINUOUS
10
6.30296
20
-4.29477
11
6.30881
21
-4.29554
0
LINE
8
BLACK
6
CONTINUOUS
10
6.30881
20
-4.29554
11
6.309
21
-4.29557
0
LINE
8
BLACK
6
CONTINUOUS
10
6.309
20
-4.29557
11
6.30919
21
-4.29554
0
LINE
8
BLACK
6
CONTINUOUS
10
6.30919
20
-4.29554
11
6.31504
21
-4.29477
0
LINE
8
BLACK
6
CONTINUOUS
10
6.31504
20
-4.29477
11
6.31504
21
-4.29477
0
LINE
8
BLACK
6
CONTINUOUS
10
6.31504
20
-4.29477
11
6.31523
21
-4.29475
0
LINE
8
BLACK
6
CONTINUOUS
10
6.31523
20
-4.29475
11
6.31541
21
-4.29467
0
LINE
8
BLACK
6
CONTINUOUS
10
6.31541
20
-4.29467
11
6.31541
21
-4.29467
0
LINE
8
BLACK
6
CONTINUOUS
10
6.31541
20
-4.29467
11
6.31813
21
-4.29355
0
LINE
8
BLACK
6
CONTINUOUS
10
6.31813
20
-4.29355
11
6.32103
21
-4.29234
0
LINE
8
BLACK
6
CONTINUOUS
10
6.32103
20
-4.29234
11
6.32119
21
-4.29223
0
LINE
8
BLACK
6
CONTINUOUS
10
6.32119
20
-4.29223
11
6.32119
21
-4.29223
0
LINE
8
BLACK
6
CONTINUOUS
10
6.32119
20
-4.29223
11
6.32586
21
-4.28864
0
LINE
8
BLACK
6
CONTINUOUS
10
6.32586
20
-4.28864
11
6.32602
21
-4.28852
0
LINE
8
BLACK
6
CONTINUOUS
10
6.32602
20
-4.28852
11
6.32614
21
-4.28836
0
LINE
8
BLACK
6
CONTINUOUS
10
6.32614
20
-4.28836
11
6.32973
21
-4.28369
0
LINE
8
BLACK
6
CONTINUOUS
10
6.32973
20
-4.28369
11
6.32973
21
-4.28369
0
LINE
8
BLACK
6
CONTINUOUS
10
6.32973
20
-4.28369
11
6.32984
21
-4.28353
0
LINE
8
BLACK
6
CONTINUOUS
10
6.32984
20
-4.28353
11
6.33225
21
-4.27773
0
LINE
8
BLACK
6
CONTINUOUS
10
6.33225
20
-4.27773
11
6.33247
21
-4.27605
0
LINE
8
BLACK
6
CONTINUOUS
10
6.33247
20
-4.27605
11
6.33304
21
-4.27169
0
LINE
8
BLACK
6
CONTINUOUS
10
6.33304
20
-4.27169
11
6.33307
21
-4.2715
0
LINE
8
BLACK
6
CONTINUOUS
10
6.33307
20
-4.2715
11
6.33225
21
-4.26527
0
LINE
8
BLACK
6
CONTINUOUS
10
6.33225
20
-4.26527
11
6.32984
21
-4.25947
0
LINE
8
BLACK
6
CONTINUOUS
10
6.32984
20
-4.25947
11
6.32973
21
-4.25931
0
LINE
8
BLACK
6
CONTINUOUS
10
6.32973
20
-4.25931
11
6.32973
21
-4.25931
0
LINE
8
BLACK
6
CONTINUOUS
10
6.32973
20
-4.25931
11
6.32614
21
-4.25464
0
LINE
8
BLACK
6
CONTINUOUS
10
6.32614
20
-4.25464
11
6.32602
21
-4.25448
0
LINE
8
BLACK
6
CONTINUOUS
10
6.32602
20
-4.25448
11
6.32514
21
-4.25381
0
LINE
8
BLACK
6
CONTINUOUS
10
6.32514
20
-4.25381
11
6.32119
21
-4.25077
0
LINE
8
BLACK
6
CONTINUOUS
10
6.32119
20
-4.25077
11
6.32119
21
-4.25077
0
LINE
8
BLACK
6
CONTINUOUS
10
6.32119
20
-4.25077
11
6.32103
21
-4.25066
0
LINE
8
BLACK
6
CONTINUOUS
10
6.32103
20
-4.25066
11
6.31813
21
-4.24945
0
LINE
8
BLACK
6
CONTINUOUS
10
6.31813
20
-4.24945
11
6.31541
21
-4.24833
0
LINE
8
BLACK
6
CONTINUOUS
10
6.31541
20
-4.24833
11
6.31541
21
-4.24833
0
LINE
8
BLACK
6
CONTINUOUS
10
6.31541
20
-4.24833
11
6.31523
21
-4.24825
0
LINE
8
BLACK
6
CONTINUOUS
10
6.31523
20
-4.24825
11
6.31504
21
-4.24823
0
LINE
8
BLACK
6
CONTINUOUS
10
6.31504
20
-4.24823
11
6.31504
21
-4.24823
0
LINE
8
BLACK
6
CONTINUOUS
10
6.31504
20
-4.24823
11
6.30919
21
-4.24746
0
LINE
8
BLACK
6
CONTINUOUS
10
6.30919
20
-4.24746
11
6.309
21
-4.24743
0
LINE
8
BLACK
6
CONTINUOUS
10
6.309
20
-4.24743
11
6.30881
21
-4.24746
0
LINE
8
BLACK
6
CONTINUOUS
10
6.30881
20
-4.24746
11
6.30296
21
-4.24823
0
LINE
8
BLACK
6
CONTINUOUS
10
6.30296
20
-4.24823
11
6.30296
21
-4.24823
0
LINE
8
BLACK
6
CONTINUOUS
10
6.30296
20
-4.24823
11
6.30277
21
-4.24825
0
LINE
8
BLACK
6
CONTINUOUS
10
6.30277
20
-4.24825
11
6.30259
21
-4.24833
0
LINE
8
BLACK
6
CONTINUOUS
10
6.30259
20
-4.24833
11
6.30259
21
-4.24833
0
LINE
8
BLACK
6
CONTINUOUS
10
6.30259
20
-4.24833
11
6.29987
21
-4.24945
0
LINE
8
BLACK
6
CONTINUOUS
10
6.29987
20
-4.24945
11
6.29697
21
-4.25066
0
LINE
8
BLACK
6
CONTINUOUS
10
6.29697
20
-4.25066
11
6.29681
21
-4.25077
0
LINE
8
BLACK
6
CONTINUOUS
10
6.29681
20
-4.25077
11
6.29681
21
-4.25077
0
LINE
8
BLACK
6
CONTINUOUS
10
6.29681
20
-4.25077
11
6.29286
21
-4.25381
0
LINE
8
BLACK
6
CONTINUOUS
10
6.29286
20
-4.25381
11
6.29198
21
-4.25448
0
LINE
8
BLACK
6
CONTINUOUS
10
6.29198
20
-4.25448
11
6.29186
21
-4.25464
0
LINE
8
BLACK
6
CONTINUOUS
10
6.29186
20
-4.25464
11
6.28827
21
-4.25931
0
LINE
8
BLACK
6
CONTINUOUS
10
6.28827
20
-4.25931
11
6.28827
21
-4.25931
0
LINE
8
BLACK
6
CONTINUOUS
10
6.28827
20
-4.25931
11
6.28816
21
-4.25947
0
LINE
8
BLACK
6
CONTINUOUS
10
6.28816
20
-4.25947
11
6.28575
21
-4.26527
0
LINE
8
BLACK
6
CONTINUOUS
10
6.28575
20
-4.26527
11
6.28493
21
-4.2715
0
LINE
8
BLACK
6
CONTINUOUS
10
6.28493
20
-4.2715
11
6.28496
21
-4.27169
0
LINE
8
BLACK
6
CONTINUOUS
10
6.28496
20
-4.27169
11
6.28553
21
-4.27605
0
LINE
8
BLACK
6
CONTINUOUS
10
5.82884
20
-4.25643
11
5.86504
21
-4.25643
0
LINE
8
BLACK
6
CONTINUOUS
10
5.86504
20
-4.25643
11
5.86525
21
-4.25642
0
LINE
8
BLACK
6
CONTINUOUS
10
5.86525
20
-4.25642
11
5.86766
21
-4.25606
0
LINE
8
BLACK
6
CONTINUOUS
10
5.86766
20
-4.25606
11
5.8681
21
-4.25593
0
LINE
8
BLACK
6
CONTINUOUS
10
5.8681
20
-4.25593
11
5.87185
21
-4.25409
0
LINE
8
BLACK
6
CONTINUOUS
10
5.87185
20
-4.25409
11
5.87224
21
-4.25381
0
LINE
8
BLACK
6
CONTINUOUS
10
5.87224
20
-4.25381
11
5.87518
21
-4.25086
0
LINE
8
BLACK
6
CONTINUOUS
10
5.87518
20
-4.25086
11
5.87546
21
-4.25047
0
LINE
8
BLACK
6
CONTINUOUS
10
5.87546
20
-4.25047
11
5.87729
21
-4.24672
0
LINE
8
BLACK
6
CONTINUOUS
10
5.87729
20
-4.24672
11
5.87743
21
-4.24628
0
LINE
8
BLACK
6
CONTINUOUS
10
5.87743
20
-4.24628
11
5.87778
21
-4.24389
0
LINE
8
BLACK
6
CONTINUOUS
10
5.87778
20
-4.24389
11
5.87779
21
-4.24368
0
LINE
8
BLACK
6
CONTINUOUS
10
5.87779
20
-4.24368
11
5.87779
21
-4.21651
0
LINE
8
BLACK
6
CONTINUOUS
10
5.87779
20
-4.21651
11
5.87765
21
-4.21611
0
LINE
8
BLACK
6
CONTINUOUS
10
5.87765
20
-4.21611
11
5.87743
21
-4.21598
0
LINE
8
BLACK
6
CONTINUOUS
10
5.87743
20
-4.21598
11
5.86678
21
-4.21598
0
LINE
8
BLACK
6
CONTINUOUS
10
5.86678
20
-4.21598
11
5.86678
21
-4.25431
0
LINE
8
BLACK
6
CONTINUOUS
10
5.86678
20
-4.25431
11
5.82848
21
-4.25431
0
LINE
8
BLACK
6
CONTINUOUS
10
5.82848
20
-4.25431
11
5.82848
21
-4.25591
0
LINE
8
BLACK
6
CONTINUOUS
10
5.82848
20
-4.25591
11
5.82863
21
-4.25631
0
LINE
8
BLACK
6
CONTINUOUS
10
5.82863
20
-4.25631
11
5.82884
21
-4.25643
0
LINE
8
BLACK
6
CONTINUOUS
10
6.27304
20
-4.21364
11
6.27325
21
-4.21523
0
LINE
8
BLACK
6
CONTINUOUS
10
6.27325
20
-4.21523
11
6.27333
21
-4.21541
0
LINE
8
BLACK
6
CONTINUOUS
10
6.27333
20
-4.21541
11
6.27333
21
-4.21541
0
LINE
8
BLACK
6
CONTINUOUS
10
6.27333
20
-4.21541
11
6.27371
21
-4.21634
0
LINE
8
BLACK
6
CONTINUOUS
10
6.27371
20
-4.21634
11
6.27566
21
-4.22103
0
LINE
8
BLACK
6
CONTINUOUS
10
6.27566
20
-4.22103
11
6.27577
21
-4.22119
0
LINE
8
BLACK
6
CONTINUOUS
10
6.27577
20
-4.22119
11
6.27577
21
-4.22119
0
LINE
8
BLACK
6
CONTINUOUS
10
6.27577
20
-4.22119
11
6.27851
21
-4.22475
0
LINE
8
BLACK
6
CONTINUOUS
10
6.27851
20
-4.22475
11
6.27948
21
-4.22602
0
LINE
8
BLACK
6
CONTINUOUS
10
6.27948
20
-4.22602
11
6.27964
21
-4.22614
0
LINE
8
BLACK
6
CONTINUOUS
10
6.27964
20
-4.22614
11
6.28431
21
-4.22973
0
LINE
8
BLACK
6
CONTINUOUS
10
6.28431
20
-4.22973
11
6.28431
21
-4.22973
0
LINE
8
BLACK
6
CONTINUOUS
10
6.28431
20
-4.22973
11
6.28447
21
-4.22984
0
LINE
8
BLACK
6
CONTINUOUS
10
6.28447
20
-4.22984
11
6.28737
21
-4.23105
0
LINE
8
BLACK
6
CONTINUOUS
10
6.28737
20
-4.23105
11
6.29009
21
-4.23217
0
LINE
8
BLACK
6
CONTINUOUS
10
6.29009
20
-4.23217
11
6.29009
21
-4.23217
0
LINE
8
BLACK
6
CONTINUOUS
10
6.29009
20
-4.23217
11
6.29027
21
-4.23225
0
LINE
8
BLACK
6
CONTINUOUS
10
6.29027
20
-4.23225
11
6.29046
21
-4.23227
0
LINE
8
BLACK
6
CONTINUOUS
10
6.29046
20
-4.23227
11
6.29046
21
-4.23227
0
LINE
8
BLACK
6
CONTINUOUS
10
6.29046
20
-4.23227
11
6.29631
21
-4.23304
0
LINE
8
BLACK
6
CONTINUOUS
10
6.29631
20
-4.23304
11
6.2965
21
-4.23307
0
LINE
8
BLACK
6
CONTINUOUS
10
6.2965
20
-4.23307
11
6.29669
21
-4.23304
0
LINE
8
BLACK
6
CONTINUOUS
10
6.29669
20
-4.23304
11
6.30254
21
-4.23227
0
LINE
8
BLACK
6
CONTINUOUS
10
6.30254
20
-4.23227
11
6.30254
21
-4.23227
0
LINE
8
BLACK
6
CONTINUOUS
10
6.30254
20
-4.23227
11
6.30273
21
-4.23225
0
LINE
8
BLACK
6
CONTINUOUS
10
6.30273
20
-4.23225
11
6.30291
21
-4.23217
0
LINE
8
BLACK
6
CONTINUOUS
10
6.30291
20
-4.23217
11
6.30291
21
-4.23217
0
LINE
8
BLACK
6
CONTINUOUS
10
6.30291
20
-4.23217
11
6.30563
21
-4.23105
0
LINE
8
BLACK
6
CONTINUOUS
10
6.30563
20
-4.23105
11
6.30853
21
-4.22984
0
LINE
8
BLACK
6
CONTINUOUS
10
6.30853
20
-4.22984
11
6.30869
21
-4.22973
0
LINE
8
BLACK
6
CONTINUOUS
10
6.30869
20
-4.22973
11
6.30869
21
-4.22973
0
LINE
8
BLACK
6
CONTINUOUS
10
6.30869
20
-4.22973
11
6.31336
21
-4.22614
0
LINE
8
BLACK
6
CONTINUOUS
10
6.31336
20
-4.22614
11
6.31352
21
-4.22602
0
LINE
8
BLACK
6
CONTINUOUS
10
6.31352
20
-4.22602
11
6.31449
21
-4.22475
0
LINE
8
BLACK
6
CONTINUOUS
10
6.31449
20
-4.22475
11
6.31723
21
-4.22119
0
LINE
8
BLACK
6
CONTINUOUS
10
6.31723
20
-4.22119
11
6.31723
21
-4.22119
0
LINE
8
BLACK
6
CONTINUOUS
10
6.31723
20
-4.22119
11
6.31734
21
-4.22103
0
LINE
8
BLACK
6
CONTINUOUS
10
6.31734
20
-4.22103
11
6.31929
21
-4.21634
0
LINE
8
BLACK
6
CONTINUOUS
10
6.31929
20
-4.21634
11
6.31967
21
-4.21541
0
LINE
8
BLACK
6
CONTINUOUS
10
6.31967
20
-4.21541
11
6.31967
21
-4.21541
0
LINE
8
BLACK
6
CONTINUOUS
10
6.31967
20
-4.21541
11
6.31975
21
-4.21523
0
LINE
8
BLACK
6
CONTINUOUS
10
6.31975
20
-4.21523
11
6.31996
21
-4.21364
0
LINE
8
BLACK
6
CONTINUOUS
10
6.31996
20
-4.21364
11
6.32054
21
-4.20919
0
LINE
8
BLACK
6
CONTINUOUS
10
6.32054
20
-4.20919
11
6.32057
21
-4.209
0
LINE
8
BLACK
6
CONTINUOUS
10
6.32057
20
-4.209
11
6.32006
21
-4.2051
0
LINE
8
BLACK
6
CONTINUOUS
10
6.32006
20
-4.2051
11
6.31977
21
-4.20296
0
LINE
8
BLACK
6
CONTINUOUS
10
6.31977
20
-4.20296
11
6.31977
21
-4.20296
0
LINE
8
BLACK
6
CONTINUOUS
10
6.31977
20
-4.20296
11
6.31975
21
-4.20277
0
LINE
8
BLACK
6
CONTINUOUS
10
6.31975
20
-4.20277
11
6.31965
21
-4.20254
0
LINE
8
BLACK
6
CONTINUOUS
10
6.31965
20
-4.20254
11
6.31742
21
-4.19715
0
LINE
8
BLACK
6
CONTINUOUS
10
6.31742
20
-4.19715
11
6.31734
21
-4.19697
0
LINE
8
BLACK
6
CONTINUOUS
10
6.31734
20
-4.19697
11
6.31723
21
-4.19681
0
LINE
8
BLACK
6
CONTINUOUS
10
6.31723
20
-4.19681
11
6.31723
21
-4.19681
0
LINE
8
BLACK
6
CONTINUOUS
10
6.31723
20
-4.19681
11
6.31364
21
-4.19214
0
LINE
8
BLACK
6
CONTINUOUS
10
6.31364
20
-4.19214
11
6.31352
21
-4.19198
0
LINE
8
BLACK
6
CONTINUOUS
10
6.31352
20
-4.19198
11
6.31129
21
-4.19027
0
LINE
8
BLACK
6
CONTINUOUS
10
6.31129
20
-4.19027
11
6.30869
21
-4.18827
0
LINE
8
BLACK
6
CONTINUOUS
10
6.30869
20
-4.18827
11
6.30869
21
-4.18827
0
LINE
8
BLACK
6
CONTINUOUS
10
6.30869
20
-4.18827
11
6.30853
21
-4.18816
0
LINE
8
BLACK
6
CONTINUOUS
10
6.30853
20
-4.18816
11
6.30563
21
-4.18695
0
LINE
8
BLACK
6
CONTINUOUS
10
6.30563
20
-4.18695
11
6.30291
21
-4.18583
0
LINE
8
BLACK
6
CONTINUOUS
10
6.30291
20
-4.18583
11
6.30291
21
-4.18583
0
LINE
8
BLACK
6
CONTINUOUS
10
6.30291
20
-4.18583
11
6.30273
21
-4.18575
0
LINE
8
BLACK
6
CONTINUOUS
10
6.30273
20
-4.18575
11
6.30254
21
-4.18573
0
LINE
8
BLACK
6
CONTINUOUS
10
6.30254
20
-4.18573
11
6.30254
21
-4.18573
0
LINE
8
BLACK
6
CONTINUOUS
10
6.30254
20
-4.18573
11
6.29669
21
-4.18496
0
LINE
8
BLACK
6
CONTINUOUS
10
6.29669
20
-4.18496
11
6.2965
21
-4.18493
0
LINE
8
BLACK
6
CONTINUOUS
10
6.2965
20
-4.18493
11
6.29631
21
-4.18496
0
LINE
8
BLACK
6
CONTINUOUS
10
6.29631
20
-4.18496
11
6.29046
21
-4.18573
0
LINE
8
BLACK
6
CONTINUOUS
10
6.29046
20
-4.18573
11
6.29046
21
-4.18573
0
LINE
8
BLACK
6
CONTINUOUS
10
6.29046
20
-4.18573
11
6.29027
21
-4.18575
0
LINE
8
BLACK
6
CONTINUOUS
10
6.29027
20
-4.18575
11
6.29009
21
-4.18583
0
LINE
8
BLACK
6
CONTINUOUS
10
6.29009
20
-4.18583
11
6.29009
21
-4.18583
0
LINE
8
BLACK
6
CONTINUOUS
10
6.29009
20
-4.18583
11
6.28737
21
-4.18695
0
LINE
8
BLACK
6
CONTINUOUS
10
6.28737
20
-4.18695
11
6.28447
21
-4.18816
0
LINE
8
BLACK
6
CONTINUOUS
10
6.28447
20
-4.18816
11
6.28431
21
-4.18827
0
LINE
8
BLACK
6
CONTINUOUS
10
6.28431
20
-4.18827
11
6.28431
21
-4.18827
0
LINE
8
BLACK
6
CONTINUOUS
10
6.28431
20
-4.18827
11
6.28171
21
-4.19027
0
LINE
8
BLACK
6
CONTINUOUS
10
6.28171
20
-4.19027
11
6.27948
21
-4.19198
0
LINE
8
BLACK
6
CONTINUOUS
10
6.27948
20
-4.19198
11
6.27936
21
-4.19214
0
LINE
8
BLACK
6
CONTINUOUS
10
6.27936
20
-4.19214
11
6.27577
21
-4.19681
0
LINE
8
BLACK
6
CONTINUOUS
10
6.27577
20
-4.19681
11
6.27577
21
-4.19681
0
LINE
8
BLACK
6
CONTINUOUS
10
6.27577
20
-4.19681
11
6.27566
21
-4.19697
0
LINE
8
BLACK
6
CONTINUOUS
10
6.27566
20
-4.19697
11
6.27558
21
-4.19715
0
LINE
8
BLACK
6
CONTINUOUS
10
6.27558
20
-4.19715
11
6.27335
21
-4.20254
0
LINE
8
BLACK
6
CONTINUOUS
10
6.27335
20
-4.20254
11
6.27325
21
-4.20277
0
LINE
8
BLACK
6
CONTINUOUS
10
6.27325
20
-4.20277
11
6.27323
21
-4.20296
0
LINE
8
BLACK
6
CONTINUOUS
10
6.27323
20
-4.20296
11
6.27323
21
-4.20296
0
LINE
8
BLACK
6
CONTINUOUS
10
6.27323
20
-4.20296
11
6.27294
21
-4.2051
0
LINE
8
BLACK
6
CONTINUOUS
10
6.27294
20
-4.2051
11
6.27243
21
-4.209
0
LINE
8
BLACK
6
CONTINUOUS
10
6.27243
20
-4.209
11
6.27246
21
-4.20919
0
LINE
8
BLACK
6
CONTINUOUS
10
6.27246
20
-4.20919
11
6.27304
21
-4.21364
0
LINE
8
BLACK
6
CONTINUOUS
10
6.05473
20
-4.20869
11
6.05484
21
-4.20853
0
LINE
8
BLACK
6
CONTINUOUS
10
6.05484
20
-4.20853
11
6.05699
21
-4.20335
0
LINE
8
BLACK
6
CONTINUOUS
10
6.05699
20
-4.20335
11
6.05717
21
-4.20291
0
LINE
8
BLACK
6
CONTINUOUS
10
6.05717
20
-4.20291
11
6.05717
21
-4.20291
0
LINE
8
BLACK
6
CONTINUOUS
10
6.05717
20
-4.20291
11
6.05725
21
-4.20273
0
LINE
8
BLACK
6
CONTINUOUS
10
6.05725
20
-4.20273
11
6.05807
21
-4.1965
0
LINE
8
BLACK
6
CONTINUOUS
10
6.05807
20
-4.1965
11
6.05747
21
-4.19198
0
LINE
8
BLACK
6
CONTINUOUS
10
6.05747
20
-4.19198
11
6.05727
21
-4.19046
0
LINE
8
BLACK
6
CONTINUOUS
10
6.05727
20
-4.19046
11
6.05727
21
-4.19046
0
LINE
8
BLACK
6
CONTINUOUS
10
6.05727
20
-4.19046
11
6.05725
21
-4.19027
0
LINE
8
BLACK
6
CONTINUOUS
10
6.05725
20
-4.19027
11
6.05699
21
-4.18965
0
LINE
8
BLACK
6
CONTINUOUS
10
6.05699
20
-4.18965
11
6.05537
21
-4.18573
0
LINE
8
BLACK
6
CONTINUOUS
10
6.05537
20
-4.18573
11
6.05484
21
-4.18447
0
LINE
8
BLACK
6
CONTINUOUS
10
6.05484
20
-4.18447
11
6.05473
21
-4.18431
0
LINE
8
BLACK
6
CONTINUOUS
10
6.05473
20
-4.18431
11
6.05473
21
-4.18431
0
LINE
8
BLACK
6
CONTINUOUS
10
6.05473
20
-4.18431
11
6.05114
21
-4.17964
0
LINE
8
BLACK
6
CONTINUOUS
10
6.05114
20
-4.17964
11
6.05102
21
-4.17948
0
LINE
8
BLACK
6
CONTINUOUS
10
6.05102
20
-4.17948
11
6.04927
21
-4.17814
0
LINE
8
BLACK
6
CONTINUOUS
10
6.04927
20
-4.17814
11
6.04619
21
-4.17577
0
LINE
8
BLACK
6
CONTINUOUS
10
6.04619
20
-4.17577
11
6.04619
21
-4.17577
0
LINE
8
BLACK
6
CONTINUOUS
10
6.04619
20
-4.17577
11
6.04603
21
-4.17566
0
LINE
8
BLACK
6
CONTINUOUS
10
6.04603
20
-4.17566
11
6.04585
21
-4.17558
0
LINE
8
BLACK
6
CONTINUOUS
10
6.04585
20
-4.17558
11
6.04585
21
-4.17558
0
LINE
8
BLACK
6
CONTINUOUS
10
6.04585
20
-4.17558
11
6.04399
21
-4.17481
0
LINE
8
BLACK
6
CONTINUOUS
10
6.04399
20
-4.17481
11
6.04249
21
-4.17344
0
LINE
8
BLACK
6
CONTINUOUS
10
6.04249
20
-4.17344
11
6.04223
21
-4.17143
0
LINE
8
BLACK
6
CONTINUOUS
10
6.04223
20
-4.17143
11
6.04238
21
-4.17094
0
LINE
8
BLACK
6
CONTINUOUS
10
6.04238
20
-4.17094
11
6.04467
21
-4.16541
0
LINE
8
BLACK
6
CONTINUOUS
10
6.04467
20
-4.16541
11
6.04467
21
-4.16541
0
LINE
8
BLACK
6
CONTINUOUS
10
6.04467
20
-4.16541
11
6.04475
21
-4.16523
0
LINE
8
BLACK
6
CONTINUOUS
10
6.04475
20
-4.16523
11
6.04488
21
-4.16419
0
LINE
8
BLACK
6
CONTINUOUS
10
6.04488
20
-4.16419
11
6.04554
21
-4.15919
0
LINE
8
BLACK
6
CONTINUOUS
10
6.04554
20
-4.15919
11
6.04557
21
-4.159
0
LINE
8
BLACK
6
CONTINUOUS
10
6.04557
20
-4.159
11
6.04475
21
-4.15277
0
LINE
8
BLACK
6
CONTINUOUS
10
6.04475
20
-4.15277
11
6.04234
21
-4.14697
0
LINE
8
BLACK
6
CONTINUOUS
10
6.04234
20
-4.14697
11
6.04223
21
-4.14681
0
LINE
8
BLACK
6
CONTINUOUS
10
6.04223
20
-4.14681
11
6.04223
21
-4.14681
0
LINE
8
BLACK
6
CONTINUOUS
10
6.04223
20
-4.14681
11
6.03864
21
-4.14214
0
LINE
8
BLACK
6
CONTINUOUS
10
6.03864
20
-4.14214
11
6.03852
21
-4.14198
0
LINE
8
BLACK
6
CONTINUOUS
10
6.03852
20
-4.14198
11
6.03836
21
-4.14186
0
LINE
8
BLACK
6
CONTINUOUS
10
6.03836
20
-4.14186
11
6.03369
21
-4.13827
0
LINE
8
BLACK
6
CONTINUOUS
10
6.03369
20
-4.13827
11
6.03369
21
-4.13827
0
LINE
8
BLACK
6
CONTINUOUS
10
6.03369
20
-4.13827
11
6.03353
21
-4.13816
0
LINE
8
BLACK
6
CONTINUOUS
10
6.03353
20
-4.13816
11
6.03063
21
-4.13695
0
LINE
8
BLACK
6
CONTINUOUS
10
6.03063
20
-4.13695
11
6.02791
21
-4.13583
0
LINE
8
BLACK
6
CONTINUOUS
10
6.02791
20
-4.13583
11
6.02791
21
-4.13583
0
LINE
8
BLACK
6
CONTINUOUS
10
6.02791
20
-4.13583
11
6.02773
21
-4.13575
0
LINE
8
BLACK
6
CONTINUOUS
10
6.02773
20
-4.13575
11
6.02754
21
-4.13573
0
LINE
8
BLACK
6
CONTINUOUS
10
6.02754
20
-4.13573
11
6.02754
21
-4.13573
0
LINE
8
BLACK
6
CONTINUOUS
10
6.02754
20
-4.13573
11
6.02169
21
-4.13496
0
LINE
8
BLACK
6
CONTINUOUS
10
6.02169
20
-4.13496
11
6.0215
21
-4.13493
0
LINE
8
BLACK
6
CONTINUOUS
10
6.0215
20
-4.13493
11
6.02131
21
-4.13496
0
LINE
8
BLACK
6
CONTINUOUS
10
6.02131
20
-4.13496
11
6.01546
21
-4.13573
0
LINE
8
BLACK
6
CONTINUOUS
10
6.01546
20
-4.13573
11
6.01546
21
-4.13573
0
LINE
8
BLACK
6
CONTINUOUS
10
6.01546
20
-4.13573
11
6.01527
21
-4.13575
0
LINE
8
BLACK
6
CONTINUOUS
10
6.01527
20
-4.13575
11
6.01509
21
-4.13583
0
LINE
8
BLACK
6
CONTINUOUS
10
6.01509
20
-4.13583
11
6.01509
21
-4.13583
0
LINE
8
BLACK
6
CONTINUOUS
10
6.01509
20
-4.13583
11
6.01237
21
-4.13695
0
LINE
8
BLACK
6
CONTINUOUS
10
6.01237
20
-4.13695
11
6.00947
21
-4.13816
0
LINE
8
BLACK
6
CONTINUOUS
10
6.00947
20
-4.13816
11
6.00931
21
-4.13827
0
LINE
8
BLACK
6
CONTINUOUS
10
6.00931
20
-4.13827
11
6.00931
21
-4.13827
0
LINE
8
BLACK
6
CONTINUOUS
10
6.00931
20
-4.13827
11
6.00464
21
-4.14186
0
LINE
8
BLACK
6
CONTINUOUS
10
6.00464
20
-4.14186
11
6.00448
21
-4.14198
0
LINE
8
BLACK
6
CONTINUOUS
10
6.00448
20
-4.14198
11
6.00436
21
-4.14214
0
LINE
8
BLACK
6
CONTINUOUS
10
6.00436
20
-4.14214
11
6.00077
21
-4.14681
0
LINE
8
BLACK
6
CONTINUOUS
10
6.00077
20
-4.14681
11
6.00077
21
-4.14681
0
LINE
8
BLACK
6
CONTINUOUS
10
6.00077
20
-4.14681
11
6.00066
21
-4.14697
0
LINE
8
BLACK
6
CONTINUOUS
10
6.00066
20
-4.14697
11
5.99825
21
-4.15277
0
LINE
8
BLACK
6
CONTINUOUS
10
5.99825
20
-4.15277
11
5.99743
21
-4.159
0
LINE
8
BLACK
6
CONTINUOUS
10
5.99743
20
-4.159
11
5.99746
21
-4.15919
0
LINE
8
BLACK
6
CONTINUOUS
10
5.99746
20
-4.15919
11
5.99812
21
-4.16419
0
LINE
8
BLACK
6
CONTINUOUS
10
5.99812
20
-4.16419
11
5.99825
21
-4.16523
0
LINE
8
BLACK
6
CONTINUOUS
10
5.99825
20
-4.16523
11
6.00066
21
-4.17103
0
LINE
8
BLACK
6
CONTINUOUS
10
6.00066
20
-4.17103
11
6.00077
21
-4.17119
0
LINE
8
BLACK
6
CONTINUOUS
10
6.00077
20
-4.17119
11
6.00077
21
-4.17119
0
LINE
8
BLACK
6
CONTINUOUS
10
6.00077
20
-4.17119
11
6.00221
21
-4.17306
0
LINE
8
BLACK
6
CONTINUOUS
10
6.00221
20
-4.17306
11
6.00282
21
-4.17499
0
LINE
8
BLACK
6
CONTINUOUS
10
6.00282
20
-4.17499
11
6.00204
21
-4.17686
0
LINE
8
BLACK
6
CONTINUOUS
10
6.00204
20
-4.17686
11
6.00025
21
-4.1778
0
LINE
8
BLACK
6
CONTINUOUS
10
6.00025
20
-4.1778
11
5.99827
21
-4.17736
0
LINE
8
BLACK
6
CONTINUOUS
10
5.99827
20
-4.17736
11
5.99806
21
-4.17721
0
LINE
8
BLACK
6
CONTINUOUS
10
5.99806
20
-4.17721
11
5.99619
21
-4.17577
0
LINE
8
BLACK
6
CONTINUOUS
10
5.99619
20
-4.17577
11
5.99619
21
-4.17577
0
LINE
8
BLACK
6
CONTINUOUS
10
5.99619
20
-4.17577
11
5.99603
21
-4.17566
0
LINE
8
BLACK
6
CONTINUOUS
10
5.99603
20
-4.17566
11
5.99229
21
-4.1741
0
LINE
8
BLACK
6
CONTINUOUS
10
5.99229
20
-4.1741
11
5.99041
21
-4.17333
0
LINE
8
BLACK
6
CONTINUOUS
10
5.99041
20
-4.17333
11
5.99041
21
-4.17333
0
LINE
8
BLACK
6
CONTINUOUS
10
5.99041
20
-4.17333
11
5.99023
21
-4.17325
0
LINE
8
BLACK
6
CONTINUOUS
10
5.99023
20
-4.17325
11
5.99004
21
-4.17323
0
LINE
8
BLACK
6
CONTINUOUS
10
5.99004
20
-4.17323
11
5.99004
21
-4.17323
0
LINE
8
BLACK
6
CONTINUOUS
10
5.99004
20
-4.17323
11
5.98419
21
-4.17246
0
LINE
8
BLACK
6
CONTINUOUS
10
5.98419
20
-4.17246
11
5.984
21
-4.17243
0
LINE
8
BLACK
6
CONTINUOUS
10
5.984
20
-4.17243
11
5.98381
21
-4.17246
0
LINE
8
BLACK
6
CONTINUOUS
10
5.98381
20
-4.17246
11
5.97796
21
-4.17323
0
LINE
8
BLACK
6
CONTINUOUS
10
5.97796
20
-4.17323
11
5.97796
21
-4.17323
0
LINE
8
BLACK
6
CONTINUOUS
10
5.97796
20
-4.17323
11
5.97777
21
-4.17325
0
LINE
8
BLACK
6
CONTINUOUS
10
5.97777
20
-4.17325
11
5.97759
21
-4.17333
0
LINE
8
BLACK
6
CONTINUOUS
10
5.97759
20
-4.17333
11
5.97759
21
-4.17333
0
LINE
8
BLACK
6
CONTINUOUS
10
5.97759
20
-4.17333
11
5.97571
21
-4.1741
0
LINE
8
BLACK
6
CONTINUOUS
10
5.97571
20
-4.1741
11
5.97197
21
-4.17566
0
LINE
8
BLACK
6
CONTINUOUS
10
5.97197
20
-4.17566
11
5.97181
21
-4.17577
0
LINE
8
BLACK
6
CONTINUOUS
10
5.97181
20
-4.17577
11
5.97181
21
-4.17577
0
LINE
8
BLACK
6
CONTINUOUS
10
5.97181
20
-4.17577
11
5.96873
21
-4.17814
0
LINE
8
BLACK
6
CONTINUOUS
10
5.96873
20
-4.17814
11
5.96698
21
-4.17948
0
LINE
8
BLACK
6
CONTINUOUS
10
5.96698
20
-4.17948
11
5.96686
21
-4.17964
0
LINE
8
BLACK
6
CONTINUOUS
10
5.96686
20
-4.17964
11
5.96327
21
-4.18431
0
LINE
8
BLACK
6
CONTINUOUS
10
5.96327
20
-4.18431
11
5.96327
21
-4.18431
0
LINE
8
BLACK
6
CONTINUOUS
10
5.96327
20
-4.18431
11
5.96316
21
-4.18447
0
LINE
8
BLACK
6
CONTINUOUS
10
5.96316
20
-4.18447
11
5.96263
21
-4.18573
0
LINE
8
BLACK
6
CONTINUOUS
10
5.96263
20
-4.18573
11
5.96101
21
-4.18965
0
LINE
8
BLACK
6
CONTINUOUS
10
5.96101
20
-4.18965
11
5.96075
21
-4.19027
0
LINE
8
BLACK
6
CONTINUOUS
10
5.96075
20
-4.19027
11
5.96073
21
-4.19046
0
LINE
8
BLACK
6
CONTINUOUS
10
5.96073
20
-4.19046
11
5.96073
21
-4.19046
0
LINE
8
BLACK
6
CONTINUOUS
10
5.96073
20
-4.19046
11
5.96053
21
-4.19198
0
LINE
8
BLACK
6
CONTINUOUS
10
5.96053
20
-4.19198
11
5.95993
21
-4.1965
0
LINE
8
BLACK
6
CONTINUOUS
10
5.95993
20
-4.1965
11
5.96075
21
-4.20273
0
LINE
8
BLACK
6
CONTINUOUS
10
5.96075
20
-4.20273
11
5.96083
21
-4.20291
0
LINE
8
BLACK
6
CONTINUOUS
10
5.96083
20
-4.20291
11
5.96083
21
-4.20291
0
LINE
8
BLACK
6
CONTINUOUS
10
5.96083
20
-4.20291
11
5.96101
21
-4.20335
0
LINE
8
BLACK
6
CONTINUOUS
10
5.96101
20
-4.20335
11
5.96316
21
-4.20853
0
LINE
8
BLACK
6
CONTINUOUS
10
5.96316
20
-4.20853
11
5.96327
21
-4.20869
0
LINE
8
BLACK
6
CONTINUOUS
10
5.96327
20
-4.20869
11
5.96327
21
-4.20869
0
LINE
8
BLACK
6
CONTINUOUS
10
5.96327
20
-4.20869
11
5.96686
21
-4.21336
0
LINE
8
BLACK
6
CONTINUOUS
10
5.96686
20
-4.21336
11
5.96698
21
-4.21352
0
LINE
8
BLACK
6
CONTINUOUS
10
5.96698
20
-4.21352
11
5.96714
21
-4.21364
0
LINE
8
BLACK
6
CONTINUOUS
10
5.96714
20
-4.21364
11
5.97181
21
-4.21723
0
LINE
8
BLACK
6
CONTINUOUS
10
5.97181
20
-4.21723
11
5.97181
21
-4.21723
0
LINE
8
BLACK
6
CONTINUOUS
10
5.97181
20
-4.21723
11
5.97197
21
-4.21734
0
LINE
8
BLACK
6
CONTINUOUS
10
5.97197
20
-4.21734
11
5.97487
21
-4.21855
0
LINE
8
BLACK
6
CONTINUOUS
10
5.97487
20
-4.21855
11
5.97759
21
-4.21967
0
LINE
8
BLACK
6
CONTINUOUS
10
5.97759
20
-4.21967
11
5.97759
21
-4.21967
0
LINE
8
BLACK
6
CONTINUOUS
10
5.97759
20
-4.21967
11
5.97777
21
-4.21975
0
LINE
8
BLACK
6
CONTINUOUS
10
5.97777
20
-4.21975
11
5.97796
21
-4.21977
0
LINE
8
BLACK
6
CONTINUOUS
10
5.97796
20
-4.21977
11
5.97796
21
-4.21977
0
LINE
8
BLACK
6
CONTINUOUS
10
5.97796
20
-4.21977
11
5.98381
21
-4.22054
0
LINE
8
BLACK
6
CONTINUOUS
10
5.98381
20
-4.22054
11
5.984
21
-4.22057
0
LINE
8
BLACK
6
CONTINUOUS
10
5.984
20
-4.22057
11
5.98419
21
-4.22054
0
LINE
8
BLACK
6
CONTINUOUS
10
5.98419
20
-4.22054
11
5.99004
21
-4.21977
0
LINE
8
BLACK
6
CONTINUOUS
10
5.99004
20
-4.21977
11
5.99004
21
-4.21977
0
LINE
8
BLACK
6
CONTINUOUS
10
5.99004
20
-4.21977
11
5.99023
21
-4.21975
0
LINE
8
BLACK
6
CONTINUOUS
10
5.99023
20
-4.21975
11
5.99041
21
-4.21967
0
LINE
8
BLACK
6
CONTINUOUS
10
5.99041
20
-4.21967
11
5.99041
21
-4.21967
0
LINE
8
BLACK
6
CONTINUOUS
10
5.99041
20
-4.21967
11
5.99313
21
-4.21855
0
LINE
8
BLACK
6
CONTINUOUS
10
5.99313
20
-4.21855
11
5.99603
21
-4.21734
0
LINE
8
BLACK
6
CONTINUOUS
10
5.99603
20
-4.21734
11
5.99619
21
-4.21723
0
LINE
8
BLACK
6
CONTINUOUS
10
5.99619
20
-4.21723
11
5.99619
21
-4.21723
0
LINE
8
BLACK
6
CONTINUOUS
10
5.99619
20
-4.21723
11
6.00086
21
-4.21364
0
LINE
8
BLACK
6
CONTINUOUS
10
6.00086
20
-4.21364
11
6.00102
21
-4.21352
0
LINE
8
BLACK
6
CONTINUOUS
10
6.00102
20
-4.21352
11
6.00114
21
-4.21336
0
LINE
8
BLACK
6
CONTINUOUS
10
6.00114
20
-4.21336
11
6.00473
21
-4.20869
0
LINE
8
BLACK
6
CONTINUOUS
10
6.00473
20
-4.20869
11
6.00473
21
-4.20869
0
LINE
8
BLACK
6
CONTINUOUS
10
6.00473
20
-4.20869
11
6.00484
21
-4.20853
0
LINE
8
BLACK
6
CONTINUOUS
10
6.00484
20
-4.20853
11
6.00626
21
-4.2051
0
LINE
8
BLACK
6
CONTINUOUS
10
6.00626
20
-4.2051
11
6.00763
21
-4.20361
0
LINE
8
BLACK
6
CONTINUOUS
10
6.00763
20
-4.20361
11
6.00964
21
-4.20335
0
LINE
8
BLACK
6
CONTINUOUS
10
6.00964
20
-4.20335
11
6.01135
21
-4.20443
0
LINE
8
BLACK
6
CONTINUOUS
10
6.01135
20
-4.20443
11
6.01174
21
-4.2051
0
LINE
8
BLACK
6
CONTINUOUS
10
6.01174
20
-4.2051
11
6.01316
21
-4.20853
0
LINE
8
BLACK
6
CONTINUOUS
10
6.01316
20
-4.20853
11
6.01327
21
-4.20869
0
LINE
8
BLACK
6
CONTINUOUS
10
6.01327
20
-4.20869
11
6.01327
21
-4.20869
0
LINE
8
BLACK
6
CONTINUOUS
10
6.01327
20
-4.20869
11
6.01686
21
-4.21336
0
LINE
8
BLACK
6
CONTINUOUS
10
6.01686
20
-4.21336
11
6.01698
21
-4.21352
0
LINE
8
BLACK
6
CONTINUOUS
10
6.01698
20
-4.21352
11
6.01714
21
-4.21364
0
LINE
8
BLACK
6
CONTINUOUS
10
6.01714
20
-4.21364
11
6.02181
21
-4.21723
0
LINE
8
BLACK
6
CONTINUOUS
10
6.02181
20
-4.21723
11
6.02181
21
-4.21723
0
LINE
8
BLACK
6
CONTINUOUS
10
6.02181
20
-4.21723
11
6.02197
21
-4.21734
0
LINE
8
BLACK
6
CONTINUOUS
10
6.02197
20
-4.21734
11
6.02487
21
-4.21855
0
LINE
8
BLACK
6
CONTINUOUS
10
6.02487
20
-4.21855
11
6.02759
21
-4.21967
0
LINE
8
BLACK
6
CONTINUOUS
10
6.02759
20
-4.21967
11
6.02759
21
-4.21967
0
LINE
8
BLACK
6
CONTINUOUS
10
6.02759
20
-4.21967
11
6.02777
21
-4.21975
0
LINE
8
BLACK
6
CONTINUOUS
10
6.02777
20
-4.21975
11
6.02796
21
-4.21977
0
LINE
8
BLACK
6
CONTINUOUS
10
6.02796
20
-4.21977
11
6.02796
21
-4.21977
0
LINE
8
BLACK
6
CONTINUOUS
10
6.02796
20
-4.21977
11
6.03381
21
-4.22054
0
LINE
8
BLACK
6
CONTINUOUS
10
6.03381
20
-4.22054
11
6.034
21
-4.22057
0
LINE
8
BLACK
6
CONTINUOUS
10
6.034
20
-4.22057
11
6.03419
21
-4.22054
0
LINE
8
BLACK
6
CONTINUOUS
10
6.03419
20
-4.22054
11
6.04004
21
-4.21977
0
LINE
8
BLACK
6
CONTINUOUS
10
6.04004
20
-4.21977
11
6.04004
21
-4.21977
0
LINE
8
BLACK
6
CONTINUOUS
10
6.04004
20
-4.21977
11
6.04023
21
-4.21975
0
LINE
8
BLACK
6
CONTINUOUS
10
6.04023
20
-4.21975
11
6.04041
21
-4.21967
0
LINE
8
BLACK
6
CONTINUOUS
10
6.04041
20
-4.21967
11
6.04041
21
-4.21967
0
LINE
8
BLACK
6
CONTINUOUS
10
6.04041
20
-4.21967
11
6.04313
21
-4.21855
0
LINE
8
BLACK
6
CONTINUOUS
10
6.04313
20
-4.21855
11
6.04603
21
-4.21734
0
LINE
8
BLACK
6
CONTINUOUS
10
6.04603
20
-4.21734
11
6.04619
21
-4.21723
0
LINE
8
BLACK
6
CONTINUOUS
10
6.04619
20
-4.21723
11
6.04619
21
-4.21723
0
LINE
8
BLACK
6
CONTINUOUS
10
6.04619
20
-4.21723
11
6.05086
21
-4.21364
0
LINE
8
BLACK
6
CONTINUOUS
10
6.05086
20
-4.21364
11
6.05102
21
-4.21352
0
LINE
8
BLACK
6
CONTINUOUS
10
6.05102
20
-4.21352
11
6.05114
21
-4.21336
0
LINE
8
BLACK
6
CONTINUOUS
10
6.05114
20
-4.21336
11
6.05449
21
-4.209
0
LINE
8
BLACK
6
CONTINUOUS
10
6.05449
20
-4.209
11
6.05473
21
-4.20869
0
LINE
8
BLACK
6
CONTINUOUS
10
6.05473
20
-4.20869
11
6.05473
21
-4.20869
0
LINE
8
BLACK
6
CONTINUOUS
10
5.76557
20
-4.20202
11
5.77622
21
-4.20202
0
LINE
8
BLACK
6
CONTINUOUS
10
5.77622
20
-4.20202
11
5.77622
21
-4.16376
0
LINE
8
BLACK
6
CONTINUOUS
10
5.77622
20
-4.16376
11
5.81452
21
-4.16376
0
LINE
8
BLACK
6
CONTINUOUS
10
5.81452
20
-4.16376
11
5.81452
21
-4.16209
0
LINE
8
BLACK
6
CONTINUOUS
10
5.81452
20
-4.16209
11
5.81437
21
-4.16169
0
LINE
8
BLACK
6
CONTINUOUS
10
5.81437
20
-4.16169
11
5.81416
21
-4.16157
0
LINE
8
BLACK
6
CONTINUOUS
10
5.81416
20
-4.16157
11
5.77796
21
-4.16157
0
LINE
8
BLACK
6
CONTINUOUS
10
5.77796
20
-4.16157
11
5.77775
21
-4.16158
0
LINE
8
BLACK
6
CONTINUOUS
10
5.77775
20
-4.16158
11
5.77534
21
-4.16194
0
LINE
8
BLACK
6
CONTINUOUS
10
5.77534
20
-4.16194
11
5.7749
21
-4.16207
0
LINE
8
BLACK
6
CONTINUOUS
10
5.7749
20
-4.16207
11
5.77115
21
-4.16391
0
LINE
8
BLACK
6
CONTINUOUS
10
5.77115
20
-4.16391
11
5.77076
21
-4.16419
0
LINE
8
BLACK
6
CONTINUOUS
10
5.77076
20
-4.16419
11
5.76782
21
-4.16714
0
LINE
8
BLACK
6
CONTINUOUS
10
5.76782
20
-4.16714
11
5.76754
21
-4.16753
0
LINE
8
BLACK
6
CONTINUOUS
10
5.76754
20
-4.16753
11
5.76571
21
-4.17128
0
LINE
8
BLACK
6
CONTINUOUS
10
5.76571
20
-4.17128
11
5.76557
21
-4.17172
0
LINE
8
BLACK
6
CONTINUOUS
10
5.76557
20
-4.17172
11
5.76522
21
-4.17411
0
LINE
8
BLACK
6
CONTINUOUS
10
5.76522
20
-4.17411
11
5.76521
21
-4.17432
0
LINE
8
BLACK
6
CONTINUOUS
10
5.76521
20
-4.17432
11
5.76521
21
-4.20149
0
LINE
8
BLACK
6
CONTINUOUS
10
5.76521
20
-4.20149
11
5.76535
21
-4.20189
0
LINE
8
BLACK
6
CONTINUOUS
10
5.76535
20
-4.20189
11
5.76557
21
-4.20202
0
LINE
8
BLACK
6
CONTINUOUS
10
5.82901
20
-4.16157
11
5.82861
21
-4.16171
0
LINE
8
BLACK
6
CONTINUOUS
10
5.82861
20
-4.16171
11
5.82848
21
-4.16192
0
LINE
8
BLACK
6
CONTINUOUS
10
5.82848
20
-4.16192
11
5.82848
21
-4.16376
0
LINE
8
BLACK
6
CONTINUOUS
10
5.82848
20
-4.16376
11
5.86678
21
-4.16376
0
LINE
8
BLACK
6
CONTINUOUS
10
5.86678
20
-4.16376
11
5.86678
21
-4.20202
0
LINE
8
BLACK
6
CONTINUOUS
10
5.86678
20
-4.20202
11
5.87727
21
-4.20202
0
LINE
8
BLACK
6
CONTINUOUS
10
5.87727
20
-4.20202
11
5.87767
21
-4.20187
0
LINE
8
BLACK
6
CONTINUOUS
10
5.87767
20
-4.20187
11
5.87779
21
-4.20166
0
LINE
8
BLACK
6
CONTINUOUS
10
5.87779
20
-4.20166
11
5.87779
21
-4.17432
0
LINE
8
BLACK
6
CONTINUOUS
10
5.87779
20
-4.17432
11
5.87778
21
-4.1741
0
LINE
8
BLACK
6
CONTINUOUS
10
5.87778
20
-4.1741
11
5.87742
21
-4.17169
0
LINE
8
BLACK
6
CONTINUOUS
10
5.87742
20
-4.17169
11
5.87729
21
-4.17126
0
LINE
8
BLACK
6
CONTINUOUS
10
5.87729
20
-4.17126
11
5.87545
21
-4.16751
0
LINE
8
BLACK
6
CONTINUOUS
10
5.87545
20
-4.16751
11
5.87516
21
-4.16712
0
LINE
8
BLACK
6
CONTINUOUS
10
5.87516
20
-4.16712
11
5.87222
21
-4.16418
0
LINE
8
BLACK
6
CONTINUOUS
10
5.87222
20
-4.16418
11
5.87183
21
-4.1639
0
LINE
8
BLACK
6
CONTINUOUS
10
5.87183
20
-4.1639
11
5.86808
21
-4.16206
0
LINE
8
BLACK
6
CONTINUOUS
10
5.86808
20
-4.16206
11
5.86764
21
-4.16193
0
LINE
8
BLACK
6
CONTINUOUS
10
5.86764
20
-4.16193
11
5.86525
21
-4.16158
0
LINE
8
BLACK
6
CONTINUOUS
10
5.86525
20
-4.16158
11
5.86504
21
-4.16157
0
LINE
8
BLACK
6
CONTINUOUS
10
5.86504
20
-4.16157
11
5.82901
21
-4.16157
0
LINE
8
BLACK
6
CONTINUOUS
10
6.27333
20
-4.10291
11
6.27333
21
-4.10291
0
LINE
8
BLACK
6
CONTINUOUS
10
6.27333
20
-4.10291
11
6.27402
21
-4.10459
0
LINE
8
BLACK
6
CONTINUOUS
10
6.27402
20
-4.10459
11
6.27566
21
-4.10853
0
LINE
8
BLACK
6
CONTINUOUS
10
6.27566
20
-4.10853
11
6.27577
21
-4.10869
0
LINE
8
BLACK
6
CONTINUOUS
10
6.27577
20
-4.10869
11
6.27577
21
-4.10869
0
LINE
8
BLACK
6
CONTINUOUS
10
6.27577
20
-4.10869
11
6.27936
21
-4.11336
0
LINE
8
BLACK
6
CONTINUOUS
10
6.27936
20
-4.11336
11
6.27948
21
-4.11352
0
LINE
8
BLACK
6
CONTINUOUS
10
6.27948
20
-4.11352
11
6.27964
21
-4.11364
0
LINE
8
BLACK
6
CONTINUOUS
10
6.27964
20
-4.11364
11
6.28431
21
-4.11723
0
LINE
8
BLACK
6
CONTINUOUS
10
6.28431
20
-4.11723
11
6.28431
21
-4.11723
0
LINE
8
BLACK
6
CONTINUOUS
10
6.28431
20
-4.11723
11
6.28447
21
-4.11734
0
LINE
8
BLACK
6
CONTINUOUS
10
6.28447
20
-4.11734
11
6.28597
21
-4.11797
0
LINE
8
BLACK
6
CONTINUOUS
10
6.28597
20
-4.11797
11
6.29009
21
-4.11967
0
LINE
8
BLACK
6
CONTINUOUS
10
6.29009
20
-4.11967
11
6.29009
21
-4.11967
0
LINE
8
BLACK
6
CONTINUOUS
10
6.29009
20
-4.11967
11
6.29027
21
-4.11975
0
LINE
8
BLACK
6
CONTINUOUS
10
6.29027
20
-4.11975
11
6.29046
21
-4.11977
0
LINE
8
BLACK
6
CONTINUOUS
10
6.29046
20
-4.11977
11
6.29046
21
-4.11977
0
LINE
8
BLACK
6
CONTINUOUS
10
6.29046
20
-4.11977
11
6.29631
21
-4.12054
0
LINE
8
BLACK
6
CONTINUOUS
10
6.29631
20
-4.12054
11
6.2965
21
-4.12057
0
LINE
8
BLACK
6
CONTINUOUS
10
6.2965
20
-4.12057
11
6.29669
21
-4.12054
0
LINE
8
BLACK
6
CONTINUOUS
10
6.29669
20
-4.12054
11
6.30254
21
-4.11977
0
LINE
8
BLACK
6
CONTINUOUS
10
6.30254
20
-4.11977
11
6.30254
21
-4.11977
0
LINE
8
BLACK
6
CONTINUOUS
10
6.30254
20
-4.11977
11
6.30273
21
-4.11975
0
LINE
8
BLACK
6
CONTINUOUS
10
6.30273
20
-4.11975
11
6.30291
21
-4.11967
0
LINE
8
BLACK
6
CONTINUOUS
10
6.30291
20
-4.11967
11
6.30291
21
-4.11967
0
LINE
8
BLACK
6
CONTINUOUS
10
6.30291
20
-4.11967
11
6.30703
21
-4.11797
0
LINE
8
BLACK
6
CONTINUOUS
10
6.30703
20
-4.11797
11
6.30853
21
-4.11734
0
LINE
8
BLACK
6
CONTINUOUS
10
6.30853
20
-4.11734
11
6.30869
21
-4.11723
0
LINE
8
BLACK
6
CONTINUOUS
10
6.30869
20
-4.11723
11
6.30869
21
-4.11723
0
LINE
8
BLACK
6
CONTINUOUS
10
6.30869
20
-4.11723
11
6.31336
21
-4.11364
0
LINE
8
BLACK
6
CONTINUOUS
10
6.31336
20
-4.11364
11
6.31352
21
-4.11352
0
LINE
8
BLACK
6
CONTINUOUS
10
6.31352
20
-4.11352
11
6.31364
21
-4.11336
0
LINE
8
BLACK
6
CONTINUOUS
10
6.31364
20
-4.11336
11
6.31723
21
-4.10869
0
LINE
8
BLACK
6
CONTINUOUS
10
6.31723
20
-4.10869
11
6.31723
21
-4.10869
0
LINE
8
BLACK
6
CONTINUOUS
10
6.31723
20
-4.10869
11
6.31734
21
-4.10853
0
LINE
8
BLACK
6
CONTINUOUS
10
6.31734
20
-4.10853
11
6.31898
21
-4.10459
0
LINE
8
BLACK
6
CONTINUOUS
10
6.31898
20
-4.10459
11
6.31967
21
-4.10291
0
LINE
8
BLACK
6
CONTINUOUS
10
6.31967
20
-4.10291
11
6.31967
21
-4.10291
0
LINE
8
BLACK
6
CONTINUOUS
10
6.31967
20
-4.10291
11
6.31975
21
-4.10273
0
LINE
8
BLACK
6
CONTINUOUS
10
6.31975
20
-4.10273
11
6.32057
21
-4.0965
0
LINE
8
BLACK
6
CONTINUOUS
10
6.32057
20
-4.0965
11
6.31979
21
-4.09062
0
LINE
8
BLACK
6
CONTINUOUS
10
6.31979
20
-4.09062
11
6.31977
21
-4.09046
0
LINE
8
BLACK
6
CONTINUOUS
10
6.31977
20
-4.09046
11
6.31977
21
-4.09046
0
LINE
8
BLACK
6
CONTINUOUS
10
6.31977
20
-4.09046
11
6.31975
21
-4.09027
0
LINE
8
BLACK
6
CONTINUOUS
10
6.31975
20
-4.09027
11
6.31734
21
-4.08447
0
LINE
8
BLACK
6
CONTINUOUS
10
6.31734
20
-4.08447
11
6.31723
21
-4.08431
0
LINE
8
BLACK
6
CONTINUOUS
10
6.31723
20
-4.08431
11
6.31723
21
-4.08431
0
LINE
8
BLACK
6
CONTINUOUS
10
6.31723
20
-4.08431
11
6.31364
21
-4.07964
0
LINE
8
BLACK
6
CONTINUOUS
10
6.31364
20
-4.07964
11
6.31352
21
-4.07948
0
LINE
8
BLACK
6
CONTINUOUS
10
6.31352
20
-4.07948
11
6.31336
21
-4.07936
0
LINE
8
BLACK
6
CONTINUOUS
10
6.31336
20
-4.07936
11
6.30869
21
-4.07577
0
LINE
8
BLACK
6
CONTINUOUS
10
6.30869
20
-4.07577
11
6.30869
21
-4.07577
0
LINE
8
BLACK
6
CONTINUOUS
10
6.30869
20
-4.07577
11
6.30853
21
-4.07566
0
LINE
8
BLACK
6
CONTINUOUS
10
6.30853
20
-4.07566
11
6.30563
21
-4.07445
0
LINE
8
BLACK
6
CONTINUOUS
10
6.30563
20
-4.07445
11
6.30291
21
-4.07333
0
LINE
8
BLACK
6
CONTINUOUS
10
6.30291
20
-4.07333
11
6.30291
21
-4.07333
0
LINE
8
BLACK
6
CONTINUOUS
10
6.30291
20
-4.07333
11
6.30273
21
-4.07325
0
LINE
8
BLACK
6
CONTINUOUS
10
6.30273
20
-4.07325
11
6.30254
21
-4.07323
0
LINE
8
BLACK
6
CONTINUOUS
10
6.30254
20
-4.07323
11
6.30254
21
-4.07323
0
LINE
8
BLACK
6
CONTINUOUS
10
6.30254
20
-4.07323
11
6.29669
21
-4.07246
0
LINE
8
BLACK
6
CONTINUOUS
10
6.29669
20
-4.07246
11
6.2965
21
-4.07243
0
LINE
8
BLACK
6
CONTINUOUS
10
6.2965
20
-4.07243
11
6.29631
21
-4.07246
0
LINE
8
BLACK
6
CONTINUOUS
10
6.29631
20
-4.07246
11
6.29046
21
-4.07323
0
LINE
8
BLACK
6
CONTINUOUS
10
6.29046
20
-4.07323
11
6.29046
21
-4.07323
0
LINE
8
BLACK
6
CONTINUOUS
10
6.29046
20
-4.07323
11
6.29027
21
-4.07325
0
LINE
8
BLACK
6
CONTINUOUS
10
6.29027
20
-4.07325
11
6.29009
21
-4.07333
0
LINE
8
BLACK
6
CONTINUOUS
10
6.29009
20
-4.07333
11
6.29009
21
-4.07333
0
LINE
8
BLACK
6
CONTINUOUS
10
6.29009
20
-4.07333
11
6.28737
21
-4.07445
0
LINE
8
BLACK
6
CONTINUOUS
10
6.28737
20
-4.07445
11
6.28447
21
-4.07566
0
LINE
8
BLACK
6
CONTINUOUS
10
6.28447
20
-4.07566
11
6.28431
21
-4.07577
0
LINE
8
BLACK
6
CONTINUOUS
10
6.28431
20
-4.07577
11
6.28431
21
-4.07577
0
LINE
8
BLACK
6
CONTINUOUS
10
6.28431
20
-4.07577
11
6.27964
21
-4.07936
0
LINE
8
BLACK
6
CONTINUOUS
10
6.27964
20
-4.07936
11
6.27948
21
-4.07948
0
LINE
8
BLACK
6
CONTINUOUS
10
6.27948
20
-4.07948
11
6.27936
21
-4.07964
0
LINE
8
BLACK
6
CONTINUOUS
10
6.27936
20
-4.07964
11
6.27577
21
-4.08431
0
LINE
8
BLACK
6
CONTINUOUS
10
6.27577
20
-4.08431
11
6.27577
21
-4.08431
0
LINE
8
BLACK
6
CONTINUOUS
10
6.27577
20
-4.08431
11
6.27566
21
-4.08447
0
LINE
8
BLACK
6
CONTINUOUS
10
6.27566
20
-4.08447
11
6.27325
21
-4.09027
0
LINE
8
BLACK
6
CONTINUOUS
10
6.27325
20
-4.09027
11
6.27323
21
-4.09046
0
LINE
8
BLACK
6
CONTINUOUS
10
6.27323
20
-4.09046
11
6.27323
21
-4.09046
0
LINE
8
BLACK
6
CONTINUOUS
10
6.27323
20
-4.09046
11
6.27321
21
-4.09062
0
LINE
8
BLACK
6
CONTINUOUS
10
6.27321
20
-4.09062
11
6.27243
21
-4.0965
0
LINE
8
BLACK
6
CONTINUOUS
10
6.27243
20
-4.0965
11
6.27325
21
-4.10273
0
LINE
8
BLACK
6
CONTINUOUS
10
6.27325
20
-4.10273
11
6.27333
21
-4.10291
0
LINE
8
BLACK
6
CONTINUOUS
10
6.04134
20
-3.84297
11
6.06772
21
-3.84297
0
LINE
8
BLACK
6
CONTINUOUS
10
6.06772
20
-3.84297
11
6.06793
21
-3.84295
0
LINE
8
BLACK
6
CONTINUOUS
10
6.06793
20
-3.84295
11
6.07034
21
-3.8426
0
LINE
8
BLACK
6
CONTINUOUS
10
6.07034
20
-3.8426
11
6.07078
21
-3.84246
0
LINE
8
BLACK
6
CONTINUOUS
10
6.07078
20
-3.84246
11
6.07452
21
-3.84062
0
LINE
8
BLACK
6
CONTINUOUS
10
6.07452
20
-3.84062
11
6.07492
21
-3.84034
0
LINE
8
BLACK
6
CONTINUOUS
10
6.07492
20
-3.84034
11
6.07786
21
-3.8374
0
LINE
8
BLACK
6
CONTINUOUS
10
6.07786
20
-3.8374
11
6.07814
21
-3.837
0
LINE
8
BLACK
6
CONTINUOUS
10
6.07814
20
-3.837
11
6.07997
21
-3.83325
0
LINE
8
BLACK
6
CONTINUOUS
10
6.07997
20
-3.83325
11
6.0801
21
-3.83282
0
LINE
8
BLACK
6
CONTINUOUS
10
6.0801
20
-3.83282
11
6.08045
21
-3.83043
0
LINE
8
BLACK
6
CONTINUOUS
10
6.08045
20
-3.83043
11
6.08047
21
-3.83022
0
LINE
8
BLACK
6
CONTINUOUS
10
6.08047
20
-3.83022
11
6.08047
21
-3.80401
0
LINE
8
BLACK
6
CONTINUOUS
10
6.08047
20
-3.80401
11
6.08032
21
-3.80361
0
LINE
8
BLACK
6
CONTINUOUS
10
6.08032
20
-3.80361
11
6.08011
21
-3.80348
0
LINE
8
BLACK
6
CONTINUOUS
10
6.08011
20
-3.80348
11
6.0665
21
-3.80348
0
LINE
8
BLACK
6
CONTINUOUS
10
6.0665
20
-3.80348
11
6.0665
21
-3.829
0
LINE
8
BLACK
6
CONTINUOUS
10
6.0665
20
-3.829
11
6.04098
21
-3.829
0
LINE
8
BLACK
6
CONTINUOUS
10
6.04098
20
-3.829
11
6.04098
21
-3.84245
0
LINE
8
BLACK
6
CONTINUOUS
10
6.04098
20
-3.84245
11
6.04113
21
-3.84285
0
LINE
8
BLACK
6
CONTINUOUS
10
6.04113
20
-3.84285
11
6.04134
21
-3.84297
0
LINE
8
BLACK
6
CONTINUOUS
10
5.78789
20
-3.78952
11
5.8015
21
-3.78952
0
LINE
8
BLACK
6
CONTINUOUS
10
5.8015
20
-3.78952
11
5.8015
21
-3.764
0
LINE
8
BLACK
6
CONTINUOUS
10
5.8015
20
-3.764
11
5.82702
21
-3.764
0
LINE
8
BLACK
6
CONTINUOUS
10
5.82702
20
-3.764
11
5.82702
21
-3.75055
0
LINE
8
BLACK
6
CONTINUOUS
10
5.82702
20
-3.75055
11
5.82687
21
-3.75015
0
LINE
8
BLACK
6
CONTINUOUS
10
5.82687
20
-3.75015
11
5.82666
21
-3.75003
0
LINE
8
BLACK
6
CONTINUOUS
10
5.82666
20
-3.75003
11
5.80028
21
-3.75003
0
LINE
8
BLACK
6
CONTINUOUS
10
5.80028
20
-3.75003
11
5.80007
21
-3.75005
0
LINE
8
BLACK
6
CONTINUOUS
10
5.80007
20
-3.75005
11
5.79766
21
-3.7504
0
LINE
8
BLACK
6
CONTINUOUS
10
5.79766
20
-3.7504
11
5.79722
21
-3.75054
0
LINE
8
BLACK
6
CONTINUOUS
10
5.79722
20
-3.75054
11
5.79348
21
-3.75238
0
LINE
8
BLACK
6
CONTINUOUS
10
5.79348
20
-3.75238
11
5.79308
21
-3.75266
0
LINE
8
BLACK
6
CONTINUOUS
10
5.79308
20
-3.75266
11
5.79014
21
-3.7556
0
LINE
8
BLACK
6
CONTINUOUS
10
5.79014
20
-3.7556
11
5.78986
21
-3.756
0
LINE
8
BLACK
6
CONTINUOUS
10
5.78986
20
-3.756
11
5.78803
21
-3.75975
0
LINE
8
BLACK
6
CONTINUOUS
10
5.78803
20
-3.75975
11
5.7879
21
-3.76018
0
LINE
8
BLACK
6
CONTINUOUS
10
5.7879
20
-3.76018
11
5.78755
21
-3.76257
0
LINE
8
BLACK
6
CONTINUOUS
10
5.78755
20
-3.76257
11
5.78753
21
-3.76278
0
LINE
8
BLACK
6
CONTINUOUS
10
5.78753
20
-3.76278
11
5.78753
21
-3.78899
0
LINE
8
BLACK
6
CONTINUOUS
10
5.78753
20
-3.78899
11
5.78768
21
-3.78939
0
LINE
8
BLACK
6
CONTINUOUS
10
5.78768
20
-3.78939
11
5.78789
21
-3.78952
0
LINE
8
BLACK
6
CONTINUOUS
10
6.04151
20
-3.75003
11
6.04111
21
-3.75018
0
LINE
8
BLACK
6
CONTINUOUS
10
6.04111
20
-3.75018
11
6.04098
21
-3.75039
0
LINE
8
BLACK
6
CONTINUOUS
10
6.04098
20
-3.75039
11
6.04098
21
-3.764
0
LINE
8
BLACK
6
CONTINUOUS
10
6.04098
20
-3.764
11
6.0665
21
-3.764
0
LINE
8
BLACK
6
CONTINUOUS
10
6.0665
20
-3.764
11
6.0665
21
-3.78952
0
LINE
8
BLACK
6
CONTINUOUS
10
6.0665
20
-3.78952
11
6.07995
21
-3.78952
0
LINE
8
BLACK
6
CONTINUOUS
10
6.07995
20
-3.78952
11
6.08035
21
-3.78937
0
LINE
8
BLACK
6
CONTINUOUS
10
6.08035
20
-3.78937
11
6.08047
21
-3.78916
0
LINE
8
BLACK
6
CONTINUOUS
10
6.08047
20
-3.78916
11
6.08047
21
-3.76278
0
LINE
8
BLACK
6
CONTINUOUS
10
6.08047
20
-3.76278
11
6.08045
21
-3.76257
0
LINE
8
BLACK
6
CONTINUOUS
10
6.08045
20
-3.76257
11
6.0801
21
-3.76016
0
LINE
8
BLACK
6
CONTINUOUS
10
6.0801
20
-3.76016
11
6.07996
21
-3.75972
0
LINE
8
BLACK
6
CONTINUOUS
10
6.07996
20
-3.75972
11
6.07812
21
-3.75598
0
LINE
8
BLACK
6
CONTINUOUS
10
6.07812
20
-3.75598
11
6.07784
21
-3.75558
0
LINE
8
BLACK
6
CONTINUOUS
10
6.07784
20
-3.75558
11
6.0749
21
-3.75264
0
LINE
8
BLACK
6
CONTINUOUS
10
6.0749
20
-3.75264
11
6.0745
21
-3.75236
0
LINE
8
BLACK
6
CONTINUOUS
10
6.0745
20
-3.75236
11
6.07075
21
-3.75053
0
LINE
8
BLACK
6
CONTINUOUS
10
6.07075
20
-3.75053
11
6.07032
21
-3.7504
0
LINE
8
BLACK
6
CONTINUOUS
10
6.07032
20
-3.7504
11
6.06793
21
-3.75005
0
LINE
8
BLACK
6
CONTINUOUS
10
6.06793
20
-3.75005
11
6.06772
21
-3.75003
0
LINE
8
BLACK
6
CONTINUOUS
10
6.06772
20
-3.75003
11
6.04151
21
-3.75003
0
LINE
8
BLACK
6
CONTINUOUS
10
6.04134
20
-3.74297
11
6.06772
21
-3.74297
0
LINE
8
BLACK
6
CONTINUOUS
10
6.06772
20
-3.74297
11
6.06793
21
-3.74295
0
LINE
8
BLACK
6
CONTINUOUS
10
6.06793
20
-3.74295
11
6.07034
21
-3.7426
0
LINE
8
BLACK
6
CONTINUOUS
10
6.07034
20
-3.7426
11
6.07078
21
-3.74246
0
LINE
8
BLACK
6
CONTINUOUS
10
6.07078
20
-3.74246
11
6.07452
21
-3.74062
0
LINE
8
BLACK
6
CONTINUOUS
10
6.07452
20
-3.74062
11
6.07492
21
-3.74034
0
LINE
8
BLACK
6
CONTINUOUS
10
6.07492
20
-3.74034
11
6.07786
21
-3.7374
0
LINE
8
BLACK
6
CONTINUOUS
10
6.07786
20
-3.7374
11
6.07814
21
-3.737
0
LINE
8
BLACK
6
CONTINUOUS
10
6.07814
20
-3.737
11
6.07997
21
-3.73325
0
LINE
8
BLACK
6
CONTINUOUS
10
6.07997
20
-3.73325
11
6.0801
21
-3.73282
0
LINE
8
BLACK
6
CONTINUOUS
10
6.0801
20
-3.73282
11
6.08045
21
-3.73043
0
LINE
8
BLACK
6
CONTINUOUS
10
6.08045
20
-3.73043
11
6.08047
21
-3.73022
0
LINE
8
BLACK
6
CONTINUOUS
10
6.08047
20
-3.73022
11
6.08047
21
-3.70401
0
LINE
8
BLACK
6
CONTINUOUS
10
6.08047
20
-3.70401
11
6.08032
21
-3.70361
0
LINE
8
BLACK
6
CONTINUOUS
10
6.08032
20
-3.70361
11
6.08011
21
-3.70348
0
LINE
8
BLACK
6
CONTINUOUS
10
6.08011
20
-3.70348
11
6.0665
21
-3.70348
0
LINE
8
BLACK
6
CONTINUOUS
10
6.0665
20
-3.70348
11
6.0665
21
-3.729
0
LINE
8
BLACK
6
CONTINUOUS
10
6.0665
20
-3.729
11
6.04098
21
-3.729
0
LINE
8
BLACK
6
CONTINUOUS
10
6.04098
20
-3.729
11
6.04098
21
-3.74245
0
LINE
8
BLACK
6
CONTINUOUS
10
6.04098
20
-3.74245
11
6.04113
21
-3.74285
0
LINE
8
BLACK
6
CONTINUOUS
10
6.04113
20
-3.74285
11
6.04134
21
-3.74297
0
LINE
8
BLACK
6
CONTINUOUS
10
5.84134
20
-3.74297
11
5.86772
21
-3.74297
0
LINE
8
BLACK
6
CONTINUOUS
10
5.86772
20
-3.74297
11
5.86793
21
-3.74295
0
LINE
8
BLACK
6
CONTINUOUS
10
5.86793
20
-3.74295
11
5.87034
21
-3.7426
0
LINE
8
BLACK
6
CONTINUOUS
10
5.87034
20
-3.7426
11
5.87078
21
-3.74246
0
LINE
8
BLACK
6
CONTINUOUS
10
5.87078
20
-3.74246
11
5.87452
21
-3.74062
0
LINE
8
BLACK
6
CONTINUOUS
10
5.87452
20
-3.74062
11
5.87492
21
-3.74034
0
LINE
8
BLACK
6
CONTINUOUS
10
5.87492
20
-3.74034
11
5.87786
21
-3.7374
0
LINE
8
BLACK
6
CONTINUOUS
10
5.87786
20
-3.7374
11
5.87814
21
-3.737
0
LINE
8
BLACK
6
CONTINUOUS
10
5.87814
20
-3.737
11
5.87997
21
-3.73325
0
LINE
8
BLACK
6
CONTINUOUS
10
5.87997
20
-3.73325
11
5.8801
21
-3.73282
0
LINE
8
BLACK
6
CONTINUOUS
10
5.8801
20
-3.73282
11
5.88045
21
-3.73043
0
LINE
8
BLACK
6
CONTINUOUS
10
5.88045
20
-3.73043
11
5.88047
21
-3.73022
0
LINE
8
BLACK
6
CONTINUOUS
10
5.88047
20
-3.73022
11
5.88047
21
-3.70401
0
LINE
8
BLACK
6
CONTINUOUS
10
5.88047
20
-3.70401
11
5.88032
21
-3.70361
0
LINE
8
BLACK
6
CONTINUOUS
10
5.88032
20
-3.70361
11
5.88011
21
-3.70348
0
LINE
8
BLACK
6
CONTINUOUS
10
5.88011
20
-3.70348
11
5.8665
21
-3.70348
0
LINE
8
BLACK
6
CONTINUOUS
10
5.8665
20
-3.70348
11
5.8665
21
-3.729
0
LINE
8
BLACK
6
CONTINUOUS
10
5.8665
20
-3.729
11
5.84098
21
-3.729
0
LINE
8
BLACK
6
CONTINUOUS
10
5.84098
20
-3.729
11
5.84098
21
-3.74245
0
LINE
8
BLACK
6
CONTINUOUS
10
5.84098
20
-3.74245
11
5.84113
21
-3.74285
0
LINE
8
BLACK
6
CONTINUOUS
10
5.84113
20
-3.74285
11
5.84134
21
-3.74297
0
LINE
8
BLACK
6
CONTINUOUS
10
5.78789
20
-3.68952
11
5.8015
21
-3.68952
0
LINE
8
BLACK
6
CONTINUOUS
10
5.8015
20
-3.68952
11
5.8015
21
-3.664
0
LINE
8
BLACK
6
CONTINUOUS
10
5.8015
20
-3.664
11
5.82702
21
-3.664
0
LINE
8
BLACK
6
CONTINUOUS
10
5.82702
20
-3.664
11
5.82702
21
-3.65055
0
LINE
8
BLACK
6
CONTINUOUS
10
5.82702
20
-3.65055
11
5.82687
21
-3.65015
0
LINE
8
BLACK
6
CONTINUOUS
10
5.82687
20
-3.65015
11
5.82666
21
-3.65003
0
LINE
8
BLACK
6
CONTINUOUS
10
5.82666
20
-3.65003
11
5.80028
21
-3.65003
0
LINE
8
BLACK
6
CONTINUOUS
10
5.80028
20
-3.65003
11
5.80007
21
-3.65005
0
LINE
8
BLACK
6
CONTINUOUS
10
5.80007
20
-3.65005
11
5.79766
21
-3.6504
0
LINE
8
BLACK
6
CONTINUOUS
10
5.79766
20
-3.6504
11
5.79722
21
-3.65054
0
LINE
8
BLACK
6
CONTINUOUS
10
5.79722
20
-3.65054
11
5.79348
21
-3.65238
0
LINE
8
BLACK
6
CONTINUOUS
10
5.79348
20
-3.65238
11
5.79308
21
-3.65266
0
LINE
8
BLACK
6
CONTINUOUS
10
5.79308
20
-3.65266
11
5.79014
21
-3.6556
0
LINE
8
BLACK
6
CONTINUOUS
10
5.79014
20
-3.6556
11
5.78986
21
-3.656
0
LINE
8
BLACK
6
CONTINUOUS
10
5.78986
20
-3.656
11
5.78803
21
-3.65975
0
LINE
8
BLACK
6
CONTINUOUS
10
5.78803
20
-3.65975
11
5.7879
21
-3.66018
0
LINE
8
BLACK
6
CONTINUOUS
10
5.7879
20
-3.66018
11
5.78755
21
-3.66257
0
LINE
8
BLACK
6
CONTINUOUS
10
5.78755
20
-3.66257
11
5.78753
21
-3.66278
0
LINE
8
BLACK
6
CONTINUOUS
10
5.78753
20
-3.66278
11
5.78753
21
-3.68899
0
LINE
8
BLACK
6
CONTINUOUS
10
5.78753
20
-3.68899
11
5.78768
21
-3.68939
0
LINE
8
BLACK
6
CONTINUOUS
10
5.78768
20
-3.68939
11
5.78789
21
-3.68952
0
LINE
8
BLACK
6
CONTINUOUS
10
6.04151
20
-3.65003
11
6.04111
21
-3.65018
0
LINE
8
BLACK
6
CONTINUOUS
10
6.04111
20
-3.65018
11
6.04098
21
-3.65039
0
LINE
8
BLACK
6
CONTINUOUS
10
6.04098
20
-3.65039
11
6.04098
21
-3.664
0
LINE
8
BLACK
6
CONTINUOUS
10
6.04098
20
-3.664
11
6.0665
21
-3.664
0
LINE
8
BLACK
6
CONTINUOUS
10
6.0665
20
-3.664
11
6.0665
21
-3.68952
0
LINE
8
BLACK
6
CONTINUOUS
10
6.0665
20
-3.68952
11
6.07995
21
-3.68952
0
LINE
8
BLACK
6
CONTINUOUS
10
6.07995
20
-3.68952
11
6.08035
21
-3.68937
0
LINE
8
BLACK
6
CONTINUOUS
10
6.08035
20
-3.68937
11
6.08047
21
-3.68916
0
LINE
8
BLACK
6
CONTINUOUS
10
6.08047
20
-3.68916
11
6.08047
21
-3.66642
0
LINE
8
BLACK
6
CONTINUOUS
10
6.08047
20
-3.66642
11
6.07931
21
-3.6638
0
LINE
8
BLACK
6
CONTINUOUS
10
6.07931
20
-3.6638
11
6.07866
21
-3.65878
0
LINE
8
BLACK
6
CONTINUOUS
10
6.07866
20
-3.65878
11
6.07886
21
-3.65748
0
LINE
8
BLACK
6
CONTINUOUS
10
6.07886
20
-3.65748
11
6.07812
21
-3.65598
0
LINE
8
BLACK
6
CONTINUOUS
10
6.07812
20
-3.65598
11
6.07784
21
-3.65558
0
LINE
8
BLACK
6
CONTINUOUS
10
6.07784
20
-3.65558
11
6.0749
21
-3.65264
0
LINE
8
BLACK
6
CONTINUOUS
10
6.0749
20
-3.65264
11
6.0745
21
-3.65236
0
LINE
8
BLACK
6
CONTINUOUS
10
6.0745
20
-3.65236
11
6.07075
21
-3.65053
0
LINE
8
BLACK
6
CONTINUOUS
10
6.07075
20
-3.65053
11
6.07032
21
-3.6504
0
LINE
8
BLACK
6
CONTINUOUS
10
6.07032
20
-3.6504
11
6.06793
21
-3.65005
0
LINE
8
BLACK
6
CONTINUOUS
10
6.06793
20
-3.65005
11
6.06772
21
-3.65003
0
LINE
8
BLACK
6
CONTINUOUS
10
6.06772
20
-3.65003
11
6.04151
21
-3.65003
0
LINE
8
BLACK
6
CONTINUOUS
10
5.84134
20
-3.64297
11
5.86772
21
-3.64297
0
LINE
8
BLACK
6
CONTINUOUS
10
5.86772
20
-3.64297
11
5.86793
21
-3.64295
0
LINE
8
BLACK
6
CONTINUOUS
10
5.86793
20
-3.64295
11
5.87034
21
-3.6426
0
LINE
8
BLACK
6
CONTINUOUS
10
5.87034
20
-3.6426
11
5.87078
21
-3.64246
0
LINE
8
BLACK
6
CONTINUOUS
10
5.87078
20
-3.64246
11
5.87452
21
-3.64062
0
LINE
8
BLACK
6
CONTINUOUS
10
5.87452
20
-3.64062
11
5.87492
21
-3.64034
0
LINE
8
BLACK
6
CONTINUOUS
10
5.87492
20
-3.64034
11
5.87786
21
-3.6374
0
LINE
8
BLACK
6
CONTINUOUS
10
5.87786
20
-3.6374
11
5.87814
21
-3.637
0
LINE
8
BLACK
6
CONTINUOUS
10
5.87814
20
-3.637
11
5.87997
21
-3.63325
0
LINE
8
BLACK
6
CONTINUOUS
10
5.87997
20
-3.63325
11
5.8801
21
-3.63282
0
LINE
8
BLACK
6
CONTINUOUS
10
5.8801
20
-3.63282
11
5.88045
21
-3.63043
0
LINE
8
BLACK
6
CONTINUOUS
10
5.88045
20
-3.63043
11
5.88047
21
-3.63022
0
LINE
8
BLACK
6
CONTINUOUS
10
5.88047
20
-3.63022
11
5.88047
21
-3.60401
0
LINE
8
BLACK
6
CONTINUOUS
10
5.88047
20
-3.60401
11
5.88032
21
-3.60361
0
LINE
8
BLACK
6
CONTINUOUS
10
5.88032
20
-3.60361
11
5.88011
21
-3.60348
0
LINE
8
BLACK
6
CONTINUOUS
10
5.88011
20
-3.60348
11
5.8665
21
-3.60348
0
LINE
8
BLACK
6
CONTINUOUS
10
5.8665
20
-3.60348
11
5.8665
21
-3.629
0
LINE
8
BLACK
6
CONTINUOUS
10
5.8665
20
-3.629
11
5.84098
21
-3.629
0
LINE
8
BLACK
6
CONTINUOUS
10
5.84098
20
-3.629
11
5.84098
21
-3.64245
0
LINE
8
BLACK
6
CONTINUOUS
10
5.84098
20
-3.64245
11
5.84113
21
-3.64285
0
LINE
8
BLACK
6
CONTINUOUS
10
5.84113
20
-3.64285
11
5.84134
21
-3.64297
0
LINE
8
BLACK
6
CONTINUOUS
10
6.04134
20
-3.64297
11
6.06772
21
-3.64297
0
LINE
8
BLACK
6
CONTINUOUS
10
6.06772
20
-3.64297
11
6.06793
21
-3.64295
0
LINE
8
BLACK
6
CONTINUOUS
10
6.06793
20
-3.64295
11
6.07034
21
-3.6426
0
LINE
8
BLACK
6
CONTINUOUS
10
6.07034
20
-3.6426
11
6.07078
21
-3.64246
0
LINE
8
BLACK
6
CONTINUOUS
10
6.07078
20
-3.64246
11
6.07452
21
-3.64062
0
LINE
8
BLACK
6
CONTINUOUS
10
6.07452
20
-3.64062
11
6.07492
21
-3.64034
0
LINE
8
BLACK
6
CONTINUOUS
10
6.07492
20
-3.64034
11
6.07786
21
-3.6374
0
LINE
8
BLACK
6
CONTINUOUS
10
6.07786
20
-3.6374
11
6.07814
21
-3.637
0
LINE
8
BLACK
6
CONTINUOUS
10
6.07814
20
-3.637
11
6.07997
21
-3.63325
0
LINE
8
BLACK
6
CONTINUOUS
10
6.07997
20
-3.63325
11
6.0801
21
-3.63282
0
LINE
8
BLACK
6
CONTINUOUS
10
6.0801
20
-3.63282
11
6.08045
21
-3.63043
0
LINE
8
BLACK
6
CONTINUOUS
10
6.08045
20
-3.63043
11
6.08047
21
-3.63022
0
LINE
8
BLACK
6
CONTINUOUS
10
6.08047
20
-3.63022
11
6.08047
21
-3.61642
0
LINE
8
BLACK
6
CONTINUOUS
10
6.08047
20
-3.61642
11
6.07931
21
-3.6138
0
LINE
8
BLACK
6
CONTINUOUS
10
6.07931
20
-3.6138
11
6.07866
21
-3.60878
0
LINE
8
BLACK
6
CONTINUOUS
10
6.07866
20
-3.60878
11
6.07944
21
-3.60378
0
LINE
8
BLACK
6
CONTINUOUS
10
6.07944
20
-3.60378
11
6.07958
21
-3.60348
0
LINE
8
BLACK
6
CONTINUOUS
10
6.07958
20
-3.60348
11
6.0665
21
-3.60348
0
LINE
8
BLACK
6
CONTINUOUS
10
6.0665
20
-3.60348
11
6.0665
21
-3.629
0
LINE
8
BLACK
6
CONTINUOUS
10
6.0665
20
-3.629
11
6.04098
21
-3.629
0
LINE
8
BLACK
6
CONTINUOUS
10
6.04098
20
-3.629
11
6.04098
21
-3.64245
0
LINE
8
BLACK
6
CONTINUOUS
10
6.04098
20
-3.64245
11
6.04113
21
-3.64285
0
LINE
8
BLACK
6
CONTINUOUS
10
6.04113
20
-3.64285
11
6.04134
21
-3.64297
0
LINE
8
BLACK
6
CONTINUOUS
10
5.78789
20
-3.58952
11
5.8015
21
-3.58952
0
LINE
8
BLACK
6
CONTINUOUS
10
5.8015
20
-3.58952
11
5.8015
21
-3.564
0
LINE
8
BLACK
6
CONTINUOUS
10
5.8015
20
-3.564
11
5.82702
21
-3.564
0
LINE
8
BLACK
6
CONTINUOUS
10
5.82702
20
-3.564
11
5.82702
21
-3.55055
0
LINE
8
BLACK
6
CONTINUOUS
10
5.82702
20
-3.55055
11
5.82687
21
-3.55015
0
LINE
8
BLACK
6
CONTINUOUS
10
5.82687
20
-3.55015
11
5.82666
21
-3.55003
0
LINE
8
BLACK
6
CONTINUOUS
10
5.82666
20
-3.55003
11
5.80028
21
-3.55003
0
LINE
8
BLACK
6
CONTINUOUS
10
5.80028
20
-3.55003
11
5.80007
21
-3.55005
0
LINE
8
BLACK
6
CONTINUOUS
10
5.80007
20
-3.55005
11
5.79766
21
-3.5504
0
LINE
8
BLACK
6
CONTINUOUS
10
5.79766
20
-3.5504
11
5.79722
21
-3.55054
0
LINE
8
BLACK
6
CONTINUOUS
10
5.79722
20
-3.55054
11
5.79348
21
-3.55238
0
LINE
8
BLACK
6
CONTINUOUS
10
5.79348
20
-3.55238
11
5.79308
21
-3.55266
0
LINE
8
BLACK
6
CONTINUOUS
10
5.79308
20
-3.55266
11
5.79014
21
-3.5556
0
LINE
8
BLACK
6
CONTINUOUS
10
5.79014
20
-3.5556
11
5.78986
21
-3.556
0
LINE
8
BLACK
6
CONTINUOUS
10
5.78986
20
-3.556
11
5.78803
21
-3.55975
0
LINE
8
BLACK
6
CONTINUOUS
10
5.78803
20
-3.55975
11
5.7879
21
-3.56018
0
LINE
8
BLACK
6
CONTINUOUS
10
5.7879
20
-3.56018
11
5.78755
21
-3.56257
0
LINE
8
BLACK
6
CONTINUOUS
10
5.78755
20
-3.56257
11
5.78753
21
-3.56278
0
LINE
8
BLACK
6
CONTINUOUS
10
5.78753
20
-3.56278
11
5.78753
21
-3.58899
0
LINE
8
BLACK
6
CONTINUOUS
10
5.78753
20
-3.58899
11
5.78768
21
-3.58939
0
LINE
8
BLACK
6
CONTINUOUS
10
5.78768
20
-3.58939
11
5.78789
21
-3.58952
0
LINE
8
BLACK
6
CONTINUOUS
10
6.04151
20
-3.55003
11
6.04111
21
-3.55018
0
LINE
8
BLACK
6
CONTINUOUS
10
6.04111
20
-3.55018
11
6.04098
21
-3.55039
0
LINE
8
BLACK
6
CONTINUOUS
10
6.04098
20
-3.55039
11
6.04098
21
-3.564
0
LINE
8
BLACK
6
CONTINUOUS
10
6.04098
20
-3.564
11
6.0665
21
-3.564
0
LINE
8
BLACK
6
CONTINUOUS
10
6.0665
20
-3.564
11
6.0665
21
-3.58952
0
LINE
8
BLACK
6
CONTINUOUS
10
6.0665
20
-3.58952
11
6.07995
21
-3.58952
0
LINE
8
BLACK
6
CONTINUOUS
10
6.07995
20
-3.58952
11
6.08035
21
-3.58937
0
LINE
8
BLACK
6
CONTINUOUS
10
6.08035
20
-3.58937
11
6.08047
21
-3.58916
0
LINE
8
BLACK
6
CONTINUOUS
10
6.08047
20
-3.58916
11
6.08047
21
-3.56642
0
LINE
8
BLACK
6
CONTINUOUS
10
6.08047
20
-3.56642
11
6.07931
21
-3.5638
0
LINE
8
BLACK
6
CONTINUOUS
10
6.07931
20
-3.5638
11
6.07866
21
-3.55878
0
LINE
8
BLACK
6
CONTINUOUS
10
6.07866
20
-3.55878
11
6.07886
21
-3.55748
0
LINE
8
BLACK
6
CONTINUOUS
10
6.07886
20
-3.55748
11
6.07812
21
-3.55598
0
LINE
8
BLACK
6
CONTINUOUS
10
6.07812
20
-3.55598
11
6.07784
21
-3.55558
0
LINE
8
BLACK
6
CONTINUOUS
10
6.07784
20
-3.55558
11
6.0749
21
-3.55264
0
LINE
8
BLACK
6
CONTINUOUS
10
6.0749
20
-3.55264
11
6.0745
21
-3.55236
0
LINE
8
BLACK
6
CONTINUOUS
10
6.0745
20
-3.55236
11
6.07075
21
-3.55053
0
LINE
8
BLACK
6
CONTINUOUS
10
6.07075
20
-3.55053
11
6.07032
21
-3.5504
0
LINE
8
BLACK
6
CONTINUOUS
10
6.07032
20
-3.5504
11
6.06793
21
-3.55005
0
LINE
8
BLACK
6
CONTINUOUS
10
6.06793
20
-3.55005
11
6.06772
21
-3.55003
0
LINE
8
BLACK
6
CONTINUOUS
10
6.06772
20
-3.55003
11
6.04151
21
-3.55003
0
LINE
8
BLACK
6
CONTINUOUS
10
6.04134
20
-3.54297
11
6.06772
21
-3.54297
0
LINE
8
BLACK
6
CONTINUOUS
10
6.06772
20
-3.54297
11
6.06793
21
-3.54295
0
LINE
8
BLACK
6
CONTINUOUS
10
6.06793
20
-3.54295
11
6.07034
21
-3.5426
0
LINE
8
BLACK
6
CONTINUOUS
10
6.07034
20
-3.5426
11
6.07078
21
-3.54246
0
LINE
8
BLACK
6
CONTINUOUS
10
6.07078
20
-3.54246
11
6.07452
21
-3.54062
0
LINE
8
BLACK
6
CONTINUOUS
10
6.07452
20
-3.54062
11
6.07492
21
-3.54034
0
LINE
8
BLACK
6
CONTINUOUS
10
6.07492
20
-3.54034
11
6.07786
21
-3.5374
0
LINE
8
BLACK
6
CONTINUOUS
10
6.07786
20
-3.5374
11
6.07814
21
-3.537
0
LINE
8
BLACK
6
CONTINUOUS
10
6.07814
20
-3.537
11
6.07997
21
-3.53325
0
LINE
8
BLACK
6
CONTINUOUS
10
6.07997
20
-3.53325
11
6.0801
21
-3.53282
0
LINE
8
BLACK
6
CONTINUOUS
10
6.0801
20
-3.53282
11
6.08045
21
-3.53043
0
LINE
8
BLACK
6
CONTINUOUS
10
6.08045
20
-3.53043
11
6.08047
21
-3.53022
0
LINE
8
BLACK
6
CONTINUOUS
10
6.08047
20
-3.53022
11
6.08047
21
-3.51642
0
LINE
8
BLACK
6
CONTINUOUS
10
6.08047
20
-3.51642
11
6.07931
21
-3.5138
0
LINE
8
BLACK
6
CONTINUOUS
10
6.07931
20
-3.5138
11
6.07866
21
-3.50878
0
LINE
8
BLACK
6
CONTINUOUS
10
6.07866
20
-3.50878
11
6.07944
21
-3.50378
0
LINE
8
BLACK
6
CONTINUOUS
10
6.07944
20
-3.50378
11
6.07958
21
-3.50348
0
LINE
8
BLACK
6
CONTINUOUS
10
6.07958
20
-3.50348
11
6.0665
21
-3.50348
0
LINE
8
BLACK
6
CONTINUOUS
10
6.0665
20
-3.50348
11
6.0665
21
-3.529
0
LINE
8
BLACK
6
CONTINUOUS
10
6.0665
20
-3.529
11
6.04098
21
-3.529
0
LINE
8
BLACK
6
CONTINUOUS
10
6.04098
20
-3.529
11
6.04098
21
-3.54245
0
LINE
8
BLACK
6
CONTINUOUS
10
6.04098
20
-3.54245
11
6.04113
21
-3.54285
0
LINE
8
BLACK
6
CONTINUOUS
10
6.04113
20
-3.54285
11
6.04134
21
-3.54297
0
LINE
8
BLACK
6
CONTINUOUS
10
5.84134
20
-3.54297
11
5.86772
21
-3.54297
0
LINE
8
BLACK
6
CONTINUOUS
10
5.86772
20
-3.54297
11
5.86793
21
-3.54295
0
LINE
8
BLACK
6
CONTINUOUS
10
5.86793
20
-3.54295
11
5.87034
21
-3.5426
0
LINE
8
BLACK
6
CONTINUOUS
10
5.87034
20
-3.5426
11
5.87078
21
-3.54246
0
LINE
8
BLACK
6
CONTINUOUS
10
5.87078
20
-3.54246
11
5.87452
21
-3.54062
0
LINE
8
BLACK
6
CONTINUOUS
10
5.87452
20
-3.54062
11
5.87492
21
-3.54034
0
LINE
8
BLACK
6
CONTINUOUS
10
5.87492
20
-3.54034
11
5.87786
21
-3.5374
0
LINE
8
BLACK
6
CONTINUOUS
10
5.87786
20
-3.5374
11
5.87814
21
-3.537
0
LINE
8
BLACK
6
CONTINUOUS
10
5.87814
20
-3.537
11
5.87997
21
-3.53325
0
LINE
8
BLACK
6
CONTINUOUS
10
5.87997
20
-3.53325
11
5.8801
21
-3.53282
0
LINE
8
BLACK
6
CONTINUOUS
10
5.8801
20
-3.53282
11
5.88045
21
-3.53043
0
LINE
8
BLACK
6
CONTINUOUS
10
5.88045
20
-3.53043
11
5.88047
21
-3.53022
0
LINE
8
BLACK
6
CONTINUOUS
10
5.88047
20
-3.53022
11
5.88047
21
-3.50401
0
LINE
8
BLACK
6
CONTINUOUS
10
5.88047
20
-3.50401
11
5.88032
21
-3.50361
0
LINE
8
BLACK
6
CONTINUOUS
10
5.88032
20
-3.50361
11
5.88011
21
-3.50348
0
LINE
8
BLACK
6
CONTINUOUS
10
5.88011
20
-3.50348
11
5.8665
21
-3.50348
0
LINE
8
BLACK
6
CONTINUOUS
10
5.8665
20
-3.50348
11
5.8665
21
-3.529
0
LINE
8
BLACK
6
CONTINUOUS
10
5.8665
20
-3.529
11
5.84098
21
-3.529
0
LINE
8
BLACK
6
CONTINUOUS
10
5.84098
20
-3.529
11
5.84098
21
-3.54245
0
LINE
8
BLACK
6
CONTINUOUS
10
5.84098
20
-3.54245
11
5.84113
21
-3.54285
0
LINE
8
BLACK
6
CONTINUOUS
10
5.84113
20
-3.54285
11
5.84134
21
-3.54297
0
LINE
8
BLACK
6
CONTINUOUS
10
5.78789
20
-3.48952
11
5.8015
21
-3.48952
0
LINE
8
BLACK
6
CONTINUOUS
10
5.8015
20
-3.48952
11
5.8015
21
-3.464
0
LINE
8
BLACK
6
CONTINUOUS
10
5.8015
20
-3.464
11
5.82702
21
-3.464
0
LINE
8
BLACK
6
CONTINUOUS
10
5.82702
20
-3.464
11
5.82702
21
-3.45055
0
LINE
8
BLACK
6
CONTINUOUS
10
5.82702
20
-3.45055
11
5.82687
21
-3.45015
0
LINE
8
BLACK
6
CONTINUOUS
10
5.82687
20
-3.45015
11
5.82666
21
-3.45003
0
LINE
8
BLACK
6
CONTINUOUS
10
5.82666
20
-3.45003
11
5.80028
21
-3.45003
0
LINE
8
BLACK
6
CONTINUOUS
10
5.80028
20
-3.45003
11
5.80007
21
-3.45005
0
LINE
8
BLACK
6
CONTINUOUS
10
5.80007
20
-3.45005
11
5.79766
21
-3.4504
0
LINE
8
BLACK
6
CONTINUOUS
10
5.79766
20
-3.4504
11
5.79722
21
-3.45054
0
LINE
8
BLACK
6
CONTINUOUS
10
5.79722
20
-3.45054
11
5.79348
21
-3.45238
0
LINE
8
BLACK
6
CONTINUOUS
10
5.79348
20
-3.45238
11
5.79308
21
-3.45266
0
LINE
8
BLACK
6
CONTINUOUS
10
5.79308
20
-3.45266
11
5.79014
21
-3.4556
0
LINE
8
BLACK
6
CONTINUOUS
10
5.79014
20
-3.4556
11
5.78986
21
-3.456
0
LINE
8
BLACK
6
CONTINUOUS
10
5.78986
20
-3.456
11
5.78803
21
-3.45975
0
LINE
8
BLACK
6
CONTINUOUS
10
5.78803
20
-3.45975
11
5.7879
21
-3.46018
0
LINE
8
BLACK
6
CONTINUOUS
10
5.7879
20
-3.46018
11
5.78755
21
-3.46257
0
LINE
8
BLACK
6
CONTINUOUS
10
5.78755
20
-3.46257
11
5.78753
21
-3.46278
0
LINE
8
BLACK
6
CONTINUOUS
10
5.78753
20
-3.46278
11
5.78753
21
-3.48899
0
LINE
8
BLACK
6
CONTINUOUS
10
5.78753
20
-3.48899
11
5.78768
21
-3.48939
0
LINE
8
BLACK
6
CONTINUOUS
10
5.78768
20
-3.48939
11
5.78789
21
-3.48952
0
LINE
8
BLACK
6
CONTINUOUS
10
6.04151
20
-3.45003
11
6.04111
21
-3.45018
0
LINE
8
BLACK
6
CONTINUOUS
10
6.04111
20
-3.45018
11
6.04098
21
-3.45039
0
LINE
8
BLACK
6
CONTINUOUS
10
6.04098
20
-3.45039
11
6.04098
21
-3.464
0
LINE
8
BLACK
6
CONTINUOUS
10
6.04098
20
-3.464
11
6.0665
21
-3.464
0
LINE
8
BLACK
6
CONTINUOUS
10
6.0665
20
-3.464
11
6.0665
21
-3.48952
0
LINE
8
BLACK
6
CONTINUOUS
10
6.0665
20
-3.48952
11
6.07995
21
-3.48952
0
LINE
8
BLACK
6
CONTINUOUS
10
6.07995
20
-3.48952
11
6.08035
21
-3.48937
0
LINE
8
BLACK
6
CONTINUOUS
10
6.08035
20
-3.48937
11
6.08047
21
-3.48916
0
LINE
8
BLACK
6
CONTINUOUS
10
6.08047
20
-3.48916
11
6.08047
21
-3.46642
0
LINE
8
BLACK
6
CONTINUOUS
10
6.08047
20
-3.46642
11
6.07931
21
-3.4638
0
LINE
8
BLACK
6
CONTINUOUS
10
6.07931
20
-3.4638
11
6.07866
21
-3.45878
0
LINE
8
BLACK
6
CONTINUOUS
10
6.07866
20
-3.45878
11
6.07886
21
-3.45748
0
LINE
8
BLACK
6
CONTINUOUS
10
6.07886
20
-3.45748
11
6.07812
21
-3.45598
0
LINE
8
BLACK
6
CONTINUOUS
10
6.07812
20
-3.45598
11
6.07784
21
-3.45558
0
LINE
8
BLACK
6
CONTINUOUS
10
6.07784
20
-3.45558
11
6.0749
21
-3.45264
0
LINE
8
BLACK
6
CONTINUOUS
10
6.0749
20
-3.45264
11
6.0745
21
-3.45236
0
LINE
8
BLACK
6
CONTINUOUS
10
6.0745
20
-3.45236
11
6.07075
21
-3.45053
0
LINE
8
BLACK
6
CONTINUOUS
10
6.07075
20
-3.45053
11
6.07032
21
-3.4504
0
LINE
8
BLACK
6
CONTINUOUS
10
6.07032
20
-3.4504
11
6.06793
21
-3.45005
0
LINE
8
BLACK
6
CONTINUOUS
10
6.06793
20
-3.45005
11
6.06772
21
-3.45003
0
LINE
8
BLACK
6
CONTINUOUS
10
6.06772
20
-3.45003
11
6.04151
21
-3.45003
0
LINE
8
BLACK
6
CONTINUOUS
10
5.7379
20
-4.79534
11
5.73804
21
-4.79578
0
LINE
8
BLACK
6
CONTINUOUS
10
5.73804
20
-4.79578
11
5.73988
21
-4.79952
0
LINE
8
BLACK
6
CONTINUOUS
10
5.73988
20
-4.79952
11
5.74016
21
-4.79992
0
LINE
8
BLACK
6
CONTINUOUS
10
5.74016
20
-4.79992
11
5.7431
21
-4.80286
0
LINE
8
BLACK
6
CONTINUOUS
10
5.7431
20
-4.80286
11
5.7435
21
-4.80314
0
LINE
8
BLACK
6
CONTINUOUS
10
5.7435
20
-4.80314
11
5.74725
21
-4.80497
0
LINE
8
BLACK
6
CONTINUOUS
10
5.74725
20
-4.80497
11
5.74768
21
-4.8051
0
LINE
8
BLACK
6
CONTINUOUS
10
5.74768
20
-4.8051
11
5.75007
21
-4.80545
0
LINE
8
BLACK
6
CONTINUOUS
10
5.75007
20
-4.80545
11
5.75028
21
-4.80547
0
LINE
8
BLACK
6
CONTINUOUS
10
5.75028
20
-4.80547
11
5.77649
21
-4.80547
0
LINE
8
BLACK
6
CONTINUOUS
10
5.77649
20
-4.80547
11
5.77689
21
-4.80532
0
LINE
8
BLACK
6
CONTINUOUS
10
5.77689
20
-4.80532
11
5.77702
21
-4.80511
0
LINE
8
BLACK
6
CONTINUOUS
10
5.77702
20
-4.80511
11
5.77702
21
-4.7915
0
LINE
8
BLACK
6
CONTINUOUS
10
5.77702
20
-4.7915
11
5.7515
21
-4.7915
0
LINE
8
BLACK
6
CONTINUOUS
10
5.7515
20
-4.7915
11
5.7515
21
-4.76598
0
LINE
8
BLACK
6
CONTINUOUS
10
5.7515
20
-4.76598
11
5.73805
21
-4.76598
0
LINE
8
BLACK
6
CONTINUOUS
10
5.73805
20
-4.76598
11
5.73765
21
-4.76613
0
LINE
8
BLACK
6
CONTINUOUS
10
5.73765
20
-4.76613
11
5.73753
21
-4.76634
0
LINE
8
BLACK
6
CONTINUOUS
10
5.73753
20
-4.76634
11
5.73753
21
-4.79272
0
LINE
8
BLACK
6
CONTINUOUS
10
5.73753
20
-4.79272
11
5.73755
21
-4.79293
0
LINE
8
BLACK
6
CONTINUOUS
10
5.73755
20
-4.79293
11
5.7379
21
-4.79534
0
LINE
8
BLACK
6
CONTINUOUS
10
5.9515
20
-4.7915
11
5.9515
21
-4.76598
0
LINE
8
BLACK
6
CONTINUOUS
10
5.9515
20
-4.76598
11
5.93805
21
-4.76598
0
LINE
8
BLACK
6
CONTINUOUS
10
5.93805
20
-4.76598
11
5.93765
21
-4.76613
0
LINE
8
BLACK
6
CONTINUOUS
10
5.93765
20
-4.76613
11
5.93753
21
-4.76634
0
LINE
8
BLACK
6
CONTINUOUS
10
5.93753
20
-4.76634
11
5.93753
21
-4.79272
0
LINE
8
BLACK
6
CONTINUOUS
10
5.93753
20
-4.79272
11
5.93755
21
-4.79293
0
LINE
8
BLACK
6
CONTINUOUS
10
5.93755
20
-4.79293
11
5.9379
21
-4.79534
0
LINE
8
BLACK
6
CONTINUOUS
10
5.9379
20
-4.79534
11
5.93804
21
-4.79578
0
LINE
8
BLACK
6
CONTINUOUS
10
5.93804
20
-4.79578
11
5.93988
21
-4.79952
0
LINE
8
BLACK
6
CONTINUOUS
10
5.93988
20
-4.79952
11
5.94016
21
-4.79992
0
LINE
8
BLACK
6
CONTINUOUS
10
5.94016
20
-4.79992
11
5.9431
21
-4.80286
0
LINE
8
BLACK
6
CONTINUOUS
10
5.9431
20
-4.80286
11
5.9435
21
-4.80314
0
LINE
8
BLACK
6
CONTINUOUS
10
5.9435
20
-4.80314
11
5.94725
21
-4.80497
0
LINE
8
BLACK
6
CONTINUOUS
10
5.94725
20
-4.80497
11
5.94768
21
-4.8051
0
LINE
8
BLACK
6
CONTINUOUS
10
5.94768
20
-4.8051
11
5.95007
21
-4.80545
0
LINE
8
BLACK
6
CONTINUOUS
10
5.95007
20
-4.80545
11
5.95028
21
-4.80547
0
LINE
8
BLACK
6
CONTINUOUS
10
5.95028
20
-4.80547
11
5.97649
21
-4.80547
0
LINE
8
BLACK
6
CONTINUOUS
10
5.97649
20
-4.80547
11
5.97689
21
-4.80532
0
LINE
8
BLACK
6
CONTINUOUS
10
5.97689
20
-4.80532
11
5.97702
21
-4.80511
0
LINE
8
BLACK
6
CONTINUOUS
10
5.97702
20
-4.80511
11
5.97702
21
-4.7915
0
LINE
8
BLACK
6
CONTINUOUS
10
5.97702
20
-4.7915
11
5.9515
21
-4.7915
0
LINE
8
BLACK
6
CONTINUOUS
10
5.93789
20
-4.75202
11
5.9515
21
-4.75202
0
LINE
8
BLACK
6
CONTINUOUS
10
5.9515
20
-4.75202
11
5.9515
21
-4.7265
0
LINE
8
BLACK
6
CONTINUOUS
10
5.9515
20
-4.7265
11
5.97702
21
-4.7265
0
LINE
8
BLACK
6
CONTINUOUS
10
5.97702
20
-4.7265
11
5.97702
21
-4.71305
0
LINE
8
BLACK
6
CONTINUOUS
10
5.97702
20
-4.71305
11
5.97687
21
-4.71265
0
LINE
8
BLACK
6
CONTINUOUS
10
5.97687
20
-4.71265
11
5.97666
21
-4.71253
0
LINE
8
BLACK
6
CONTINUOUS
10
5.97666
20
-4.71253
11
5.95028
21
-4.71253
0
LINE
8
BLACK
6
CONTINUOUS
10
5.95028
20
-4.71253
11
5.95007
21
-4.71255
0
LINE
8
BLACK
6
CONTINUOUS
10
5.95007
20
-4.71255
11
5.94766
21
-4.7129
0
LINE
8
BLACK
6
CONTINUOUS
10
5.94766
20
-4.7129
11
5.94722
21
-4.71304
0
LINE
8
BLACK
6
CONTINUOUS
10
5.94722
20
-4.71304
11
5.94348
21
-4.71488
0
LINE
8
BLACK
6
CONTINUOUS
10
5.94348
20
-4.71488
11
5.94308
21
-4.71516
0
LINE
8
BLACK
6
CONTINUOUS
10
5.94308
20
-4.71516
11
5.94014
21
-4.7181
0
LINE
8
BLACK
6
CONTINUOUS
10
5.94014
20
-4.7181
11
5.93986
21
-4.7185
0
LINE
8
BLACK
6
CONTINUOUS
10
5.93986
20
-4.7185
11
5.93803
21
-4.72225
0
LINE
8
BLACK
6
CONTINUOUS
10
5.93803
20
-4.72225
11
5.9379
21
-4.72268
0
LINE
8
BLACK
6
CONTINUOUS
10
5.9379
20
-4.72268
11
5.93755
21
-4.72507
0
LINE
8
BLACK
6
CONTINUOUS
10
5.93755
20
-4.72507
11
5.93753
21
-4.72528
0
LINE
8
BLACK
6
CONTINUOUS
10
5.93753
20
-4.72528
11
5.93753
21
-4.75149
0
LINE
8
BLACK
6
CONTINUOUS
10
5.93753
20
-4.75149
11
5.93768
21
-4.75189
0
LINE
8
BLACK
6
CONTINUOUS
10
5.93768
20
-4.75189
11
5.93789
21
-4.75202
0
LINE
8
BLACK
6
CONTINUOUS
10
5.92249
20
-4.79224
11
5.92252
21
-4.79209
0
LINE
8
BLACK
6
CONTINUOUS
10
5.92252
20
-4.79209
11
5.92252
21
-4.75149
0
LINE
8
BLACK
6
CONTINUOUS
10
5.92252
20
-4.75149
11
5.92252
21
-4.72591
0
LINE
8
BLACK
6
CONTINUOUS
10
5.92252
20
-4.72591
11
5.92217
21
-4.72415
0
LINE
8
BLACK
6
CONTINUOUS
10
5.92217
20
-4.72415
11
5.92084
21
-4.72216
0
LINE
8
BLACK
6
CONTINUOUS
10
5.92084
20
-4.72216
11
5.91909
21
-4.72099
0
LINE
8
BLACK
6
CONTINUOUS
10
5.91909
20
-4.72099
11
5.91909
21
-4.72099
0
LINE
8
BLACK
6
CONTINUOUS
10
5.91909
20
-4.72099
11
5.91885
21
-4.72083
0
LINE
8
BLACK
6
CONTINUOUS
10
5.91885
20
-4.72083
11
5.91709
21
-4.72048
0
LINE
8
BLACK
6
CONTINUOUS
10
5.91709
20
-4.72048
11
5.884
21
-4.72048
0
LINE
8
BLACK
6
CONTINUOUS
10
5.884
20
-4.72048
11
5.85091
21
-4.72048
0
LINE
8
BLACK
6
CONTINUOUS
10
5.85091
20
-4.72048
11
5.84915
21
-4.72083
0
LINE
8
BLACK
6
CONTINUOUS
10
5.84915
20
-4.72083
11
5.84716
21
-4.72216
0
LINE
8
BLACK
6
CONTINUOUS
10
5.84716
20
-4.72216
11
5.84583
21
-4.72415
0
LINE
8
BLACK
6
CONTINUOUS
10
5.84583
20
-4.72415
11
5.84577
21
-4.72444
0
LINE
8
BLACK
6
CONTINUOUS
10
5.84577
20
-4.72444
11
5.8456
21
-4.72528
0
LINE
8
BLACK
6
CONTINUOUS
10
5.8456
20
-4.72528
11
5.84548
21
-4.72591
0
LINE
8
BLACK
6
CONTINUOUS
10
5.84548
20
-4.72591
11
5.84548
21
-4.79209
0
LINE
8
BLACK
6
CONTINUOUS
10
5.84548
20
-4.79209
11
5.84583
21
-4.79385
0
LINE
8
BLACK
6
CONTINUOUS
10
5.84583
20
-4.79385
11
5.84716
21
-4.79584
0
LINE
8
BLACK
6
CONTINUOUS
10
5.84716
20
-4.79584
11
5.8474
21
-4.796
0
LINE
8
BLACK
6
CONTINUOUS
10
5.8474
20
-4.796
11
5.84891
21
-4.79701
0
LINE
8
BLACK
6
CONTINUOUS
10
5.84891
20
-4.79701
11
5.84891
21
-4.79701
0
LINE
8
BLACK
6
CONTINUOUS
10
5.84891
20
-4.79701
11
5.84915
21
-4.79717
0
LINE
8
BLACK
6
CONTINUOUS
10
5.84915
20
-4.79717
11
5.85091
21
-4.79752
0
LINE
8
BLACK
6
CONTINUOUS
10
5.85091
20
-4.79752
11
5.884
21
-4.79752
0
LINE
8
BLACK
6
CONTINUOUS
10
5.884
20
-4.79752
11
5.91709
21
-4.79752
0
LINE
8
BLACK
6
CONTINUOUS
10
5.91709
20
-4.79752
11
5.91885
21
-4.79717
0
LINE
8
BLACK
6
CONTINUOUS
10
5.91885
20
-4.79717
11
5.92084
21
-4.79584
0
LINE
8
BLACK
6
CONTINUOUS
10
5.92084
20
-4.79584
11
5.92217
21
-4.79385
0
LINE
8
BLACK
6
CONTINUOUS
10
5.92217
20
-4.79385
11
5.9224
21
-4.79272
0
LINE
8
BLACK
6
CONTINUOUS
10
5.9224
20
-4.79272
11
5.9224
21
-4.79272
0
LINE
8
BLACK
6
CONTINUOUS
10
5.9224
20
-4.79272
11
5.92249
21
-4.79224
0
LINE
8
BLACK
6
CONTINUOUS
10
5.92249
20
-4.79224
11
5.92249
21
-4.79224
0
LINE
8
BLACK
6
CONTINUOUS
10
5.83045
20
-4.72507
11
5.8301
21
-4.72266
0
LINE
8
BLACK
6
CONTINUOUS
10
5.8301
20
-4.72266
11
5.82996
21
-4.72222
0
LINE
8
BLACK
6
CONTINUOUS
10
5.82996
20
-4.72222
11
5.82812
21
-4.71848
0
LINE
8
BLACK
6
CONTINUOUS
10
5.82812
20
-4.71848
11
5.82784
21
-4.71808
0
LINE
8
BLACK
6
CONTINUOUS
10
5.82784
20
-4.71808
11
5.8249
21
-4.71514
0
LINE
8
BLACK
6
CONTINUOUS
10
5.8249
20
-4.71514
11
5.8245
21
-4.71486
0
LINE
8
BLACK
6
CONTINUOUS
10
5.8245
20
-4.71486
11
5.82075
21
-4.71303
0
LINE
8
BLACK
6
CONTINUOUS
10
5.82075
20
-4.71303
11
5.82032
21
-4.7129
0
LINE
8
BLACK
6
CONTINUOUS
10
5.82032
20
-4.7129
11
5.81793
21
-4.71255
0
LINE
8
BLACK
6
CONTINUOUS
10
5.81793
20
-4.71255
11
5.81772
21
-4.71253
0
LINE
8
BLACK
6
CONTINUOUS
10
5.81772
20
-4.71253
11
5.79151
21
-4.71253
0
LINE
8
BLACK
6
CONTINUOUS
10
5.79151
20
-4.71253
11
5.79111
21
-4.71268
0
LINE
8
BLACK
6
CONTINUOUS
10
5.79111
20
-4.71268
11
5.79098
21
-4.71289
0
LINE
8
BLACK
6
CONTINUOUS
10
5.79098
20
-4.71289
11
5.79098
21
-4.7265
0
LINE
8
BLACK
6
CONTINUOUS
10
5.79098
20
-4.7265
11
5.8165
21
-4.7265
0
LINE
8
BLACK
6
CONTINUOUS
10
5.8165
20
-4.7265
11
5.8165
21
-4.75202
0
LINE
8
BLACK
6
CONTINUOUS
10
5.8165
20
-4.75202
11
5.82995
21
-4.75202
0
LINE
8
BLACK
6
CONTINUOUS
10
5.82995
20
-4.75202
11
5.83035
21
-4.75187
0
LINE
8
BLACK
6
CONTINUOUS
10
5.83035
20
-4.75187
11
5.83047
21
-4.75166
0
LINE
8
BLACK
6
CONTINUOUS
10
5.83047
20
-4.75166
11
5.83047
21
-4.72528
0
LINE
8
BLACK
6
CONTINUOUS
10
5.83047
20
-4.72528
11
5.83045
21
-4.72507
0
LINE
8
BLACK
6
CONTINUOUS
10
5.9515
20
-4.6915
11
5.9515
21
-4.66598
0
LINE
8
BLACK
6
CONTINUOUS
10
5.9515
20
-4.66598
11
5.93805
21
-4.66598
0
LINE
8
BLACK
6
CONTINUOUS
10
5.93805
20
-4.66598
11
5.93765
21
-4.66613
0
LINE
8
BLACK
6
CONTINUOUS
10
5.93765
20
-4.66613
11
5.93753
21
-4.66634
0
LINE
8
BLACK
6
CONTINUOUS
10
5.93753
20
-4.66634
11
5.93753
21
-4.69272
0
LINE
8
BLACK
6
CONTINUOUS
10
5.93753
20
-4.69272
11
5.93755
21
-4.69293
0
LINE
8
BLACK
6
CONTINUOUS
10
5.93755
20
-4.69293
11
5.9379
21
-4.69534
0
LINE
8
BLACK
6
CONTINUOUS
10
5.9379
20
-4.69534
11
5.93804
21
-4.69578
0
LINE
8
BLACK
6
CONTINUOUS
10
5.93804
20
-4.69578
11
5.93988
21
-4.69952
0
LINE
8
BLACK
6
CONTINUOUS
10
5.93988
20
-4.69952
11
5.94016
21
-4.69992
0
LINE
8
BLACK
6
CONTINUOUS
10
5.94016
20
-4.69992
11
5.9431
21
-4.70286
0
LINE
8
BLACK
6
CONTINUOUS
10
5.9431
20
-4.70286
11
5.9435
21
-4.70314
0
LINE
8
BLACK
6
CONTINUOUS
10
5.9435
20
-4.70314
11
5.94725
21
-4.70497
0
LINE
8
BLACK
6
CONTINUOUS
10
5.94725
20
-4.70497
11
5.94768
21
-4.7051
0
LINE
8
BLACK
6
CONTINUOUS
10
5.94768
20
-4.7051
11
5.95007
21
-4.70545
0
LINE
8
BLACK
6
CONTINUOUS
10
5.95007
20
-4.70545
11
5.95028
21
-4.70547
0
LINE
8
BLACK
6
CONTINUOUS
10
5.95028
20
-4.70547
11
5.97649
21
-4.70547
0
LINE
8
BLACK
6
CONTINUOUS
10
5.97649
20
-4.70547
11
5.97689
21
-4.70532
0
LINE
8
BLACK
6
CONTINUOUS
10
5.97689
20
-4.70532
11
5.97702
21
-4.70511
0
LINE
8
BLACK
6
CONTINUOUS
10
5.97702
20
-4.70511
11
5.97702
21
-4.6915
0
LINE
8
BLACK
6
CONTINUOUS
10
5.97702
20
-4.6915
11
5.9515
21
-4.6915
0
LINE
8
BLACK
6
CONTINUOUS
10
5.7379
20
-4.69534
11
5.73804
21
-4.69578
0
LINE
8
BLACK
6
CONTINUOUS
10
5.73804
20
-4.69578
11
5.73988
21
-4.69952
0
LINE
8
BLACK
6
CONTINUOUS
10
5.73988
20
-4.69952
11
5.74016
21
-4.69992
0
LINE
8
BLACK
6
CONTINUOUS
10
5.74016
20
-4.69992
11
5.7431
21
-4.70286
0
LINE
8
BLACK
6
CONTINUOUS
10
5.7431
20
-4.70286
11
5.7435
21
-4.70314
0
LINE
8
BLACK
6
CONTINUOUS
10
5.7435
20
-4.70314
11
5.74725
21
-4.70497
0
LINE
8
BLACK
6
CONTINUOUS
10
5.74725
20
-4.70497
11
5.74768
21
-4.7051
0
LINE
8
BLACK
6
CONTINUOUS
10
5.74768
20
-4.7051
11
5.75007
21
-4.70545
0
LINE
8
BLACK
6
CONTINUOUS
10
5.75007
20
-4.70545
11
5.75028
21
-4.70547
0
LINE
8
BLACK
6
CONTINUOUS
10
5.75028
20
-4.70547
11
5.77649
21
-4.70547
0
LINE
8
BLACK
6
CONTINUOUS
10
5.77649
20
-4.70547
11
5.77689
21
-4.70532
0
LINE
8
BLACK
6
CONTINUOUS
10
5.77689
20
-4.70532
11
5.77702
21
-4.70511
0
LINE
8
BLACK
6
CONTINUOUS
10
5.77702
20
-4.70511
11
5.77702
21
-4.6915
0
LINE
8
BLACK
6
CONTINUOUS
10
5.77702
20
-4.6915
11
5.7515
21
-4.6915
0
LINE
8
BLACK
6
CONTINUOUS
10
5.7515
20
-4.6915
11
5.7515
21
-4.66598
0
LINE
8
BLACK
6
CONTINUOUS
10
5.7515
20
-4.66598
11
5.73805
21
-4.66598
0
LINE
8
BLACK
6
CONTINUOUS
10
5.73805
20
-4.66598
11
5.73765
21
-4.66613
0
LINE
8
BLACK
6
CONTINUOUS
10
5.73765
20
-4.66613
11
5.73753
21
-4.66634
0
LINE
8
BLACK
6
CONTINUOUS
10
5.73753
20
-4.66634
11
5.73753
21
-4.69272
0
LINE
8
BLACK
6
CONTINUOUS
10
5.73753
20
-4.69272
11
5.73755
21
-4.69293
0
LINE
8
BLACK
6
CONTINUOUS
10
5.73755
20
-4.69293
11
5.7379
21
-4.69534
0
LINE
8
BLACK
6
CONTINUOUS
10
5.93789
20
-4.65202
11
5.9515
21
-4.65202
0
LINE
8
BLACK
6
CONTINUOUS
10
5.9515
20
-4.65202
11
5.9515
21
-4.6265
0
LINE
8
BLACK
6
CONTINUOUS
10
5.9515
20
-4.6265
11
5.97702
21
-4.6265
0
LINE
8
BLACK
6
CONTINUOUS
10
5.97702
20
-4.6265
11
5.97702
21
-4.61305
0
LINE
8
BLACK
6
CONTINUOUS
10
5.97702
20
-4.61305
11
5.97687
21
-4.61265
0
LINE
8
BLACK
6
CONTINUOUS
10
5.97687
20
-4.61265
11
5.97666
21
-4.61253
0
LINE
8
BLACK
6
CONTINUOUS
10
5.97666
20
-4.61253
11
5.95028
21
-4.61253
0
LINE
8
BLACK
6
CONTINUOUS
10
5.95028
20
-4.61253
11
5.95007
21
-4.61255
0
LINE
8
BLACK
6
CONTINUOUS
10
5.95007
20
-4.61255
11
5.94766
21
-4.6129
0
LINE
8
BLACK
6
CONTINUOUS
10
5.94766
20
-4.6129
11
5.94722
21
-4.61304
0
LINE
8
BLACK
6
CONTINUOUS
10
5.94722
20
-4.61304
11
5.94348
21
-4.61488
0
LINE
8
BLACK
6
CONTINUOUS
10
5.94348
20
-4.61488
11
5.94308
21
-4.61516
0
LINE
8
BLACK
6
CONTINUOUS
10
5.94308
20
-4.61516
11
5.94014
21
-4.6181
0
LINE
8
BLACK
6
CONTINUOUS
10
5.94014
20
-4.6181
11
5.93986
21
-4.6185
0
LINE
8
BLACK
6
CONTINUOUS
10
5.93986
20
-4.6185
11
5.93803
21
-4.62225
0
LINE
8
BLACK
6
CONTINUOUS
10
5.93803
20
-4.62225
11
5.9379
21
-4.62268
0
LINE
8
BLACK
6
CONTINUOUS
10
5.9379
20
-4.62268
11
5.93755
21
-4.62507
0
LINE
8
BLACK
6
CONTINUOUS
10
5.93755
20
-4.62507
11
5.93753
21
-4.62528
0
LINE
8
BLACK
6
CONTINUOUS
10
5.93753
20
-4.62528
11
5.93753
21
-4.65149
0
LINE
8
BLACK
6
CONTINUOUS
10
5.93753
20
-4.65149
11
5.93768
21
-4.65189
0
LINE
8
BLACK
6
CONTINUOUS
10
5.93768
20
-4.65189
11
5.93789
21
-4.65202
0
LINE
8
BLACK
6
CONTINUOUS
10
5.92249
20
-4.69224
11
5.92252
21
-4.69209
0
LINE
8
BLACK
6
CONTINUOUS
10
5.92252
20
-4.69209
11
5.92252
21
-4.65149
0
LINE
8
BLACK
6
CONTINUOUS
10
5.92252
20
-4.65149
11
5.92252
21
-4.62591
0
LINE
8
BLACK
6
CONTINUOUS
10
5.92252
20
-4.62591
11
5.92217
21
-4.62415
0
LINE
8
BLACK
6
CONTINUOUS
10
5.92217
20
-4.62415
11
5.92084
21
-4.62216
0
LINE
8
BLACK
6
CONTINUOUS
10
5.92084
20
-4.62216
11
5.91909
21
-4.62099
0
LINE
8
BLACK
6
CONTINUOUS
10
5.91909
20
-4.62099
11
5.91909
21
-4.62099
0
LINE
8
BLACK
6
CONTINUOUS
10
5.91909
20
-4.62099
11
5.91885
21
-4.62083
0
LINE
8
BLACK
6
CONTINUOUS
10
5.91885
20
-4.62083
11
5.91709
21
-4.62048
0
LINE
8
BLACK
6
CONTINUOUS
10
5.91709
20
-4.62048
11
5.884
21
-4.62048
0
LINE
8
BLACK
6
CONTINUOUS
10
5.884
20
-4.62048
11
5.85091
21
-4.62048
0
LINE
8
BLACK
6
CONTINUOUS
10
5.85091
20
-4.62048
11
5.84915
21
-4.62083
0
LINE
8
BLACK
6
CONTINUOUS
10
5.84915
20
-4.62083
11
5.84716
21
-4.62216
0
LINE
8
BLACK
6
CONTINUOUS
10
5.84716
20
-4.62216
11
5.84583
21
-4.62415
0
LINE
8
BLACK
6
CONTINUOUS
10
5.84583
20
-4.62415
11
5.84577
21
-4.62444
0
LINE
8
BLACK
6
CONTINUOUS
10
5.84577
20
-4.62444
11
5.8456
21
-4.62528
0
LINE
8
BLACK
6
CONTINUOUS
10
5.8456
20
-4.62528
11
5.84548
21
-4.62591
0
LINE
8
BLACK
6
CONTINUOUS
10
5.84548
20
-4.62591
11
5.84548
21
-4.69209
0
LINE
8
BLACK
6
CONTINUOUS
10
5.84548
20
-4.69209
11
5.84583
21
-4.69385
0
LINE
8
BLACK
6
CONTINUOUS
10
5.84583
20
-4.69385
11
5.84716
21
-4.69584
0
LINE
8
BLACK
6
CONTINUOUS
10
5.84716
20
-4.69584
11
5.8474
21
-4.696
0
LINE
8
BLACK
6
CONTINUOUS
10
5.8474
20
-4.696
11
5.84891
21
-4.69701
0
LINE
8
BLACK
6
CONTINUOUS
10
5.84891
20
-4.69701
11
5.84891
21
-4.69701
0
LINE
8
BLACK
6
CONTINUOUS
10
5.84891
20
-4.69701
11
5.84915
21
-4.69717
0
LINE
8
BLACK
6
CONTINUOUS
10
5.84915
20
-4.69717
11
5.85091
21
-4.69752
0
LINE
8
BLACK
6
CONTINUOUS
10
5.85091
20
-4.69752
11
5.884
21
-4.69752
0
LINE
8
BLACK
6
CONTINUOUS
10
5.884
20
-4.69752
11
5.91709
21
-4.69752
0
LINE
8
BLACK
6
CONTINUOUS
10
5.91709
20
-4.69752
11
5.91885
21
-4.69717
0
LINE
8
BLACK
6
CONTINUOUS
10
5.91885
20
-4.69717
11
5.92084
21
-4.69584
0
LINE
8
BLACK
6
CONTINUOUS
10
5.92084
20
-4.69584
11
5.92217
21
-4.69385
0
LINE
8
BLACK
6
CONTINUOUS
10
5.92217
20
-4.69385
11
5.9224
21
-4.69272
0
LINE
8
BLACK
6
CONTINUOUS
10
5.9224
20
-4.69272
11
5.9224
21
-4.69272
0
LINE
8
BLACK
6
CONTINUOUS
10
5.9224
20
-4.69272
11
5.92249
21
-4.69224
0
LINE
8
BLACK
6
CONTINUOUS
10
5.92249
20
-4.69224
11
5.92249
21
-4.69224
0
LINE
8
BLACK
6
CONTINUOUS
10
5.83045
20
-4.62507
11
5.8301
21
-4.62266
0
LINE
8
BLACK
6
CONTINUOUS
10
5.8301
20
-4.62266
11
5.82996
21
-4.62222
0
LINE
8
BLACK
6
CONTINUOUS
10
5.82996
20
-4.62222
11
5.82812
21
-4.61848
0
LINE
8
BLACK
6
CONTINUOUS
10
5.82812
20
-4.61848
11
5.82784
21
-4.61808
0
LINE
8
BLACK
6
CONTINUOUS
10
5.82784
20
-4.61808
11
5.8249
21
-4.61514
0
LINE
8
BLACK
6
CONTINUOUS
10
5.8249
20
-4.61514
11
5.8245
21
-4.61486
0
LINE
8
BLACK
6
CONTINUOUS
10
5.8245
20
-4.61486
11
5.82075
21
-4.61303
0
LINE
8
BLACK
6
CONTINUOUS
10
5.82075
20
-4.61303
11
5.82032
21
-4.6129
0
LINE
8
BLACK
6
CONTINUOUS
10
5.82032
20
-4.6129
11
5.81793
21
-4.61255
0
LINE
8
BLACK
6
CONTINUOUS
10
5.81793
20
-4.61255
11
5.81772
21
-4.61253
0
LINE
8
BLACK
6
CONTINUOUS
10
5.81772
20
-4.61253
11
5.79151
21
-4.61253
0
LINE
8
BLACK
6
CONTINUOUS
10
5.79151
20
-4.61253
11
5.79111
21
-4.61268
0
LINE
8
BLACK
6
CONTINUOUS
10
5.79111
20
-4.61268
11
5.79098
21
-4.61289
0
LINE
8
BLACK
6
CONTINUOUS
10
5.79098
20
-4.61289
11
5.79098
21
-4.6265
0
LINE
8
BLACK
6
CONTINUOUS
10
5.79098
20
-4.6265
11
5.8165
21
-4.6265
0
LINE
8
BLACK
6
CONTINUOUS
10
5.8165
20
-4.6265
11
5.8165
21
-4.65202
0
LINE
8
BLACK
6
CONTINUOUS
10
5.8165
20
-4.65202
11
5.82995
21
-4.65202
0
LINE
8
BLACK
6
CONTINUOUS
10
5.82995
20
-4.65202
11
5.83035
21
-4.65187
0
LINE
8
BLACK
6
CONTINUOUS
10
5.83035
20
-4.65187
11
5.83047
21
-4.65166
0
LINE
8
BLACK
6
CONTINUOUS
10
5.83047
20
-4.65166
11
5.83047
21
-4.62528
0
LINE
8
BLACK
6
CONTINUOUS
10
5.83047
20
-4.62528
11
5.83045
21
-4.62507
0
LINE
8
BLACK
6
CONTINUOUS
10
5.34583
20
-4.44385
11
5.34716
21
-4.44584
0
LINE
8
BLACK
6
CONTINUOUS
10
5.34716
20
-4.44584
11
5.3474
21
-4.446
0
LINE
8
BLACK
6
CONTINUOUS
10
5.3474
20
-4.446
11
5.34891
21
-4.44701
0
LINE
8
BLACK
6
CONTINUOUS
10
5.34891
20
-4.44701
11
5.34891
21
-4.44701
0
LINE
8
BLACK
6
CONTINUOUS
10
5.34891
20
-4.44701
11
5.34915
21
-4.44717
0
LINE
8
BLACK
6
CONTINUOUS
10
5.34915
20
-4.44717
11
5.35091
21
-4.44752
0
LINE
8
BLACK
6
CONTINUOUS
10
5.35091
20
-4.44752
11
5.384
21
-4.44752
0
LINE
8
BLACK
6
CONTINUOUS
10
5.384
20
-4.44752
11
5.41709
21
-4.44752
0
LINE
8
BLACK
6
CONTINUOUS
10
5.41709
20
-4.44752
11
5.41885
21
-4.44717
0
LINE
8
BLACK
6
CONTINUOUS
10
5.41885
20
-4.44717
11
5.42084
21
-4.44584
0
LINE
8
BLACK
6
CONTINUOUS
10
5.42084
20
-4.44584
11
5.42217
21
-4.44385
0
LINE
8
BLACK
6
CONTINUOUS
10
5.42217
20
-4.44385
11
5.42252
21
-4.44209
0
LINE
8
BLACK
6
CONTINUOUS
10
5.42252
20
-4.44209
11
5.42252
21
-4.37591
0
LINE
8
BLACK
6
CONTINUOUS
10
5.42252
20
-4.37591
11
5.42217
21
-4.37415
0
LINE
8
BLACK
6
CONTINUOUS
10
5.42217
20
-4.37415
11
5.42084
21
-4.37216
0
LINE
8
BLACK
6
CONTINUOUS
10
5.42084
20
-4.37216
11
5.41909
21
-4.37099
0
LINE
8
BLACK
6
CONTINUOUS
10
5.41909
20
-4.37099
11
5.41909
21
-4.37099
0
LINE
8
BLACK
6
CONTINUOUS
10
5.41909
20
-4.37099
11
5.41885
21
-4.37083
0
LINE
8
BLACK
6
CONTINUOUS
10
5.41885
20
-4.37083
11
5.41709
21
-4.37048
0
LINE
8
BLACK
6
CONTINUOUS
10
5.41709
20
-4.37048
11
5.384
21
-4.37048
0
LINE
8
BLACK
6
CONTINUOUS
10
5.384
20
-4.37048
11
5.35091
21
-4.37048
0
LINE
8
BLACK
6
CONTINUOUS
10
5.35091
20
-4.37048
11
5.34915
21
-4.37083
0
LINE
8
BLACK
6
CONTINUOUS
10
5.34915
20
-4.37083
11
5.34716
21
-4.37216
0
LINE
8
BLACK
6
CONTINUOUS
10
5.34716
20
-4.37216
11
5.34583
21
-4.37415
0
LINE
8
BLACK
6
CONTINUOUS
10
5.34583
20
-4.37415
11
5.34548
21
-4.37591
0
LINE
8
BLACK
6
CONTINUOUS
10
5.34548
20
-4.37591
11
5.34548
21
-4.44209
0
LINE
8
BLACK
6
CONTINUOUS
10
5.34548
20
-4.44209
11
5.34583
21
-4.44385
0
LINE
8
BLACK
6
CONTINUOUS
10
5.41909
20
-4.27099
11
5.41885
21
-4.27083
0
LINE
8
BLACK
6
CONTINUOUS
10
5.41885
20
-4.27083
11
5.41709
21
-4.27048
0
LINE
8
BLACK
6
CONTINUOUS
10
5.41709
20
-4.27048
11
5.384
21
-4.27048
0
LINE
8
BLACK
6
CONTINUOUS
10
5.384
20
-4.27048
11
5.35091
21
-4.27048
0
LINE
8
BLACK
6
CONTINUOUS
10
5.35091
20
-4.27048
11
5.34915
21
-4.27083
0
LINE
8
BLACK
6
CONTINUOUS
10
5.34915
20
-4.27083
11
5.34716
21
-4.27216
0
LINE
8
BLACK
6
CONTINUOUS
10
5.34716
20
-4.27216
11
5.34583
21
-4.27415
0
LINE
8
BLACK
6
CONTINUOUS
10
5.34583
20
-4.27415
11
5.34548
21
-4.27591
0
LINE
8
BLACK
6
CONTINUOUS
10
5.34548
20
-4.27591
11
5.34548
21
-4.34209
0
LINE
8
BLACK
6
CONTINUOUS
10
5.34548
20
-4.34209
11
5.34583
21
-4.34385
0
LINE
8
BLACK
6
CONTINUOUS
10
5.34583
20
-4.34385
11
5.34716
21
-4.34584
0
LINE
8
BLACK
6
CONTINUOUS
10
5.34716
20
-4.34584
11
5.3474
21
-4.346
0
LINE
8
BLACK
6
CONTINUOUS
10
5.3474
20
-4.346
11
5.34891
21
-4.34701
0
LINE
8
BLACK
6
CONTINUOUS
10
5.34891
20
-4.34701
11
5.34891
21
-4.34701
0
LINE
8
BLACK
6
CONTINUOUS
10
5.34891
20
-4.34701
11
5.34915
21
-4.34717
0
LINE
8
BLACK
6
CONTINUOUS
10
5.34915
20
-4.34717
11
5.35091
21
-4.34752
0
LINE
8
BLACK
6
CONTINUOUS
10
5.35091
20
-4.34752
11
5.384
21
-4.34752
0
LINE
8
BLACK
6
CONTINUOUS
10
5.384
20
-4.34752
11
5.41709
21
-4.34752
0
LINE
8
BLACK
6
CONTINUOUS
10
5.41709
20
-4.34752
11
5.41885
21
-4.34717
0
LINE
8
BLACK
6
CONTINUOUS
10
5.41885
20
-4.34717
11
5.42084
21
-4.34584
0
LINE
8
BLACK
6
CONTINUOUS
10
5.42084
20
-4.34584
11
5.42217
21
-4.34385
0
LINE
8
BLACK
6
CONTINUOUS
10
5.42217
20
-4.34385
11
5.42252
21
-4.34209
0
LINE
8
BLACK
6
CONTINUOUS
10
5.42252
20
-4.34209
11
5.42252
21
-4.27591
0
LINE
8
BLACK
6
CONTINUOUS
10
5.42252
20
-4.27591
11
5.42217
21
-4.27415
0
LINE
8
BLACK
6
CONTINUOUS
10
5.42217
20
-4.27415
11
5.42084
21
-4.27216
0
LINE
8
BLACK
6
CONTINUOUS
10
5.42084
20
-4.27216
11
5.4206
21
-4.272
0
LINE
8
BLACK
6
CONTINUOUS
10
5.4206
20
-4.272
11
5.41985
21
-4.2715
0
LINE
8
BLACK
6
CONTINUOUS
10
5.41985
20
-4.2715
11
5.41909
21
-4.27099
0
LINE
8
BLACK
6
CONTINUOUS
10
5.41909
20
-4.27099
11
5.41909
21
-4.27099
0
LINE
8
BLACK
6
CONTINUOUS
10
5.40384
20
-4.11797
11
5.43022
21
-4.11797
0
LINE
8
BLACK
6
CONTINUOUS
10
5.43022
20
-4.11797
11
5.43043
21
-4.11795
0
LINE
8
BLACK
6
CONTINUOUS
10
5.43043
20
-4.11795
11
5.43284
21
-4.1176
0
LINE
8
BLACK
6
CONTINUOUS
10
5.43284
20
-4.1176
11
5.43328
21
-4.11746
0
LINE
8
BLACK
6
CONTINUOUS
10
5.43328
20
-4.11746
11
5.43702
21
-4.11562
0
LINE
8
BLACK
6
CONTINUOUS
10
5.43702
20
-4.11562
11
5.43742
21
-4.11534
0
LINE
8
BLACK
6
CONTINUOUS
10
5.43742
20
-4.11534
11
5.44036
21
-4.1124
0
LINE
8
BLACK
6
CONTINUOUS
10
5.44036
20
-4.1124
11
5.44064
21
-4.112
0
LINE
8
BLACK
6
CONTINUOUS
10
5.44064
20
-4.112
11
5.44247
21
-4.10825
0
LINE
8
BLACK
6
CONTINUOUS
10
5.44247
20
-4.10825
11
5.4426
21
-4.10782
0
LINE
8
BLACK
6
CONTINUOUS
10
5.4426
20
-4.10782
11
5.44295
21
-4.10543
0
LINE
8
BLACK
6
CONTINUOUS
10
5.44295
20
-4.10543
11
5.44297
21
-4.10522
0
LINE
8
BLACK
6
CONTINUOUS
10
5.44297
20
-4.10522
11
5.44297
21
-4.07901
0
LINE
8
BLACK
6
CONTINUOUS
10
5.44297
20
-4.07901
11
5.44282
21
-4.07861
0
LINE
8
BLACK
6
CONTINUOUS
10
5.44282
20
-4.07861
11
5.44261
21
-4.07848
0
LINE
8
BLACK
6
CONTINUOUS
10
5.44261
20
-4.07848
11
5.429
21
-4.07848
0
LINE
8
BLACK
6
CONTINUOUS
10
5.429
20
-4.07848
11
5.429
21
-4.104
0
LINE
8
BLACK
6
CONTINUOUS
10
5.429
20
-4.104
11
5.40348
21
-4.104
0
LINE
8
BLACK
6
CONTINUOUS
10
5.40348
20
-4.104
11
5.40348
21
-4.11745
0
LINE
8
BLACK
6
CONTINUOUS
10
5.40348
20
-4.11745
11
5.40363
21
-4.11785
0
LINE
8
BLACK
6
CONTINUOUS
10
5.40363
20
-4.11785
11
5.40384
21
-4.11797
0
LINE
8
BLACK
6
CONTINUOUS
10
5.76558
20
-4.24631
11
5.76571
21
-4.24674
0
LINE
8
BLACK
6
CONTINUOUS
10
5.76571
20
-4.24674
11
5.76755
21
-4.25049
0
LINE
8
BLACK
6
CONTINUOUS
10
5.76755
20
-4.25049
11
5.76784
21
-4.25088
0
LINE
8
BLACK
6
CONTINUOUS
10
5.76784
20
-4.25088
11
5.77078
21
-4.25382
0
LINE
8
BLACK
6
CONTINUOUS
10
5.77078
20
-4.25382
11
5.77117
21
-4.2541
0
LINE
8
BLACK
6
CONTINUOUS
10
5.77117
20
-4.2541
11
5.77492
21
-4.25594
0
LINE
8
BLACK
6
CONTINUOUS
10
5.77492
20
-4.25594
11
5.77536
21
-4.25607
0
LINE
8
BLACK
6
CONTINUOUS
10
5.77536
20
-4.25607
11
5.77775
21
-4.25642
0
LINE
8
BLACK
6
CONTINUOUS
10
5.77775
20
-4.25642
11
5.77796
21
-4.25643
0
LINE
8
BLACK
6
CONTINUOUS
10
5.77796
20
-4.25643
11
5.81399
21
-4.25643
0
LINE
8
BLACK
6
CONTINUOUS
10
5.81399
20
-4.25643
11
5.81439
21
-4.25629
0
LINE
8
BLACK
6
CONTINUOUS
10
5.81439
20
-4.25629
11
5.81452
21
-4.25608
0
LINE
8
BLACK
6
CONTINUOUS
10
5.81452
20
-4.25608
11
5.81452
21
-4.25431
0
LINE
8
BLACK
6
CONTINUOUS
10
5.81452
20
-4.25431
11
5.77622
21
-4.25431
0
LINE
8
BLACK
6
CONTINUOUS
10
5.77622
20
-4.25431
11
5.77622
21
-4.21598
0
LINE
8
BLACK
6
CONTINUOUS
10
5.77622
20
-4.21598
11
5.76573
21
-4.21598
0
LINE
8
BLACK
6
CONTINUOUS
10
5.76573
20
-4.21598
11
5.76533
21
-4.21613
0
LINE
8
BLACK
6
CONTINUOUS
10
5.76533
20
-4.21613
11
5.76521
21
-4.21634
0
LINE
8
BLACK
6
CONTINUOUS
10
5.76521
20
-4.21634
11
5.76521
21
-4.24368
0
LINE
8
BLACK
6
CONTINUOUS
10
5.76521
20
-4.24368
11
5.76522
21
-4.2439
0
LINE
8
BLACK
6
CONTINUOUS
10
5.76522
20
-4.2439
11
5.76558
21
-4.24631
0
LINE
8
BLACK
6
CONTINUOUS
10
5.89804
20
-4.21364
11
5.89825
21
-4.21523
0
LINE
8
BLACK
6
CONTINUOUS
10
5.89825
20
-4.21523
11
5.89833
21
-4.21541
0
LINE
8
BLACK
6
CONTINUOUS
10
5.89833
20
-4.21541
11
5.89833
21
-4.21541
0
LINE
8
BLACK
6
CONTINUOUS
10
5.89833
20
-4.21541
11
5.89871
21
-4.21634
0
LINE
8
BLACK
6
CONTINUOUS
10
5.89871
20
-4.21634
11
5.90066
21
-4.22103
0
LINE
8
BLACK
6
CONTINUOUS
10
5.90066
20
-4.22103
11
5.90077
21
-4.22119
0
LINE
8
BLACK
6
CONTINUOUS
10
5.90077
20
-4.22119
11
5.90077
21
-4.22119
0
LINE
8
BLACK
6
CONTINUOUS
10
5.90077
20
-4.22119
11
5.90351
21
-4.22475
0
LINE
8
BLACK
6
CONTINUOUS
10
5.90351
20
-4.22475
11
5.90448
21
-4.22602
0
LINE
8
BLACK
6
CONTINUOUS
10
5.90448
20
-4.22602
11
5.90464
21
-4.22614
0
LINE
8
BLACK
6
CONTINUOUS
10
5.90464
20
-4.22614
11
5.90931
21
-4.22973
0
LINE
8
BLACK
6
CONTINUOUS
10
5.90931
20
-4.22973
11
5.90931
21
-4.22973
0
LINE
8
BLACK
6
CONTINUOUS
10
5.90931
20
-4.22973
11
5.90947
21
-4.22984
0
LINE
8
BLACK
6
CONTINUOUS
10
5.90947
20
-4.22984
11
5.91237
21
-4.23105
0
LINE
8
BLACK
6
CONTINUOUS
10
5.91237
20
-4.23105
11
5.91509
21
-4.23217
0
LINE
8
BLACK
6
CONTINUOUS
10
5.91509
20
-4.23217
11
5.91509
21
-4.23217
0
LINE
8
BLACK
6
CONTINUOUS
10
5.91509
20
-4.23217
11
5.91527
21
-4.23225
0
LINE
8
BLACK
6
CONTINUOUS
10
5.91527
20
-4.23225
11
5.91546
21
-4.23227
0
LINE
8
BLACK
6
CONTINUOUS
10
5.91546
20
-4.23227
11
5.91546
21
-4.23227
0
LINE
8
BLACK
6
CONTINUOUS
10
5.91546
20
-4.23227
11
5.92131
21
-4.23304
0
LINE
8
BLACK
6
CONTINUOUS
10
5.92131
20
-4.23304
11
5.9215
21
-4.23307
0
LINE
8
BLACK
6
CONTINUOUS
10
5.9215
20
-4.23307
11
5.92169
21
-4.23304
0
LINE
8
BLACK
6
CONTINUOUS
10
5.92169
20
-4.23304
11
5.92754
21
-4.23227
0
LINE
8
BLACK
6
CONTINUOUS
10
5.92754
20
-4.23227
11
5.92754
21
-4.23227
0
LINE
8
BLACK
6
CONTINUOUS
10
5.92754
20
-4.23227
11
5.92773
21
-4.23225
0
LINE
8
BLACK
6
CONTINUOUS
10
5.92773
20
-4.23225
11
5.92791
21
-4.23217
0
LINE
8
BLACK
6
CONTINUOUS
10
5.92791
20
-4.23217
11
5.92791
21
-4.23217
0
LINE
8
BLACK
6
CONTINUOUS
10
5.92791
20
-4.23217
11
5.93063
21
-4.23105
0
LINE
8
BLACK
6
CONTINUOUS
10
5.93063
20
-4.23105
11
5.93353
21
-4.22984
0
LINE
8
BLACK
6
CONTINUOUS
10
5.93353
20
-4.22984
11
5.93369
21
-4.22973
0
LINE
8
BLACK
6
CONTINUOUS
10
5.93369
20
-4.22973
11
5.93369
21
-4.22973
0
LINE
8
BLACK
6
CONTINUOUS
10
5.93369
20
-4.22973
11
5.93836
21
-4.22614
0
LINE
8
BLACK
6
CONTINUOUS
10
5.93836
20
-4.22614
11
5.93852
21
-4.22602
0
LINE
8
BLACK
6
CONTINUOUS
10
5.93852
20
-4.22602
11
5.93949
21
-4.22475
0
LINE
8
BLACK
6
CONTINUOUS
10
5.93949
20
-4.22475
11
5.94223
21
-4.22119
0
LINE
8
BLACK
6
CONTINUOUS
10
5.94223
20
-4.22119
11
5.94223
21
-4.22119
0
LINE
8
BLACK
6
CONTINUOUS
10
5.94223
20
-4.22119
11
5.94234
21
-4.22103
0
LINE
8
BLACK
6
CONTINUOUS
10
5.94234
20
-4.22103
11
5.94429
21
-4.21634
0
LINE
8
BLACK
6
CONTINUOUS
10
5.94429
20
-4.21634
11
5.94467
21
-4.21541
0
LINE
8
BLACK
6
CONTINUOUS
10
5.94467
20
-4.21541
11
5.94467
21
-4.21541
0
LINE
8
BLACK
6
CONTINUOUS
10
5.94467
20
-4.21541
11
5.94475
21
-4.21523
0
LINE
8
BLACK
6
CONTINUOUS
10
5.94475
20
-4.21523
11
5.94496
21
-4.21364
0
LINE
8
BLACK
6
CONTINUOUS
10
5.94496
20
-4.21364
11
5.94554
21
-4.20919
0
LINE
8
BLACK
6
CONTINUOUS
10
5.94554
20
-4.20919
11
5.94557
21
-4.209
0
LINE
8
BLACK
6
CONTINUOUS
10
5.94557
20
-4.209
11
5.94506
21
-4.2051
0
LINE
8
BLACK
6
CONTINUOUS
10
5.94506
20
-4.2051
11
5.94477
21
-4.20296
0
LINE
8
BLACK
6
CONTINUOUS
10
5.94477
20
-4.20296
11
5.94477
21
-4.20296
0
LINE
8
BLACK
6
CONTINUOUS
10
5.94477
20
-4.20296
11
5.94475
21
-4.20277
0
LINE
8
BLACK
6
CONTINUOUS
10
5.94475
20
-4.20277
11
5.94465
21
-4.20254
0
LINE
8
BLACK
6
CONTINUOUS
10
5.94465
20
-4.20254
11
5.94242
21
-4.19715
0
LINE
8
BLACK
6
CONTINUOUS
10
5.94242
20
-4.19715
11
5.94234
21
-4.19697
0
LINE
8
BLACK
6
CONTINUOUS
10
5.94234
20
-4.19697
11
5.94223
21
-4.19681
0
LINE
8
BLACK
6
CONTINUOUS
10
5.94223
20
-4.19681
11
5.94223
21
-4.19681
0
LINE
8
BLACK
6
CONTINUOUS
10
5.94223
20
-4.19681
11
5.94199
21
-4.1965
0
LINE
8
BLACK
6
CONTINUOUS
10
5.94199
20
-4.1965
11
5.93864
21
-4.19214
0
LINE
8
BLACK
6
CONTINUOUS
10
5.93864
20
-4.19214
11
5.93852
21
-4.19198
0
LINE
8
BLACK
6
CONTINUOUS
10
5.93852
20
-4.19198
11
5.93629
21
-4.19027
0
LINE
8
BLACK
6
CONTINUOUS
10
5.93629
20
-4.19027
11
5.93369
21
-4.18827
0
LINE
8
BLACK
6
CONTINUOUS
10
5.93369
20
-4.18827
11
5.93369
21
-4.18827
0
LINE
8
BLACK
6
CONTINUOUS
10
5.93369
20
-4.18827
11
5.93353
21
-4.18816
0
LINE
8
BLACK
6
CONTINUOUS
10
5.93353
20
-4.18816
11
5.93063
21
-4.18695
0
LINE
8
BLACK
6
CONTINUOUS
10
5.93063
20
-4.18695
11
5.92791
21
-4.18583
0
LINE
8
BLACK
6
CONTINUOUS
10
5.92791
20
-4.18583
11
5.92791
21
-4.18583
0
LINE
8
BLACK
6
CONTINUOUS
10
5.92791
20
-4.18583
11
5.92773
21
-4.18575
0
LINE
8
BLACK
6
CONTINUOUS
10
5.92773
20
-4.18575
11
5.92754
21
-4.18573
0
LINE
8
BLACK
6
CONTINUOUS
10
5.92754
20
-4.18573
11
5.92754
21
-4.18573
0
LINE
8
BLACK
6
CONTINUOUS
10
5.92754
20
-4.18573
11
5.92169
21
-4.18496
0
LINE
8
BLACK
6
CONTINUOUS
10
5.92169
20
-4.18496
11
5.9215
21
-4.18493
0
LINE
8
BLACK
6
CONTINUOUS
10
5.9215
20
-4.18493
11
5.92131
21
-4.18496
0
LINE
8
BLACK
6
CONTINUOUS
10
5.92131
20
-4.18496
11
5.91546
21
-4.18573
0
LINE
8
BLACK
6
CONTINUOUS
10
5.91546
20
-4.18573
11
5.91546
21
-4.18573
0
LINE
8
BLACK
6
CONTINUOUS
10
5.91546
20
-4.18573
11
5.91527
21
-4.18575
0
LINE
8
BLACK
6
CONTINUOUS
10
5.91527
20
-4.18575
11
5.91509
21
-4.18583
0
LINE
8
BLACK
6
CONTINUOUS
10
5.91509
20
-4.18583
11
5.91509
21
-4.18583
0
LINE
8
BLACK
6
CONTINUOUS
10
5.91509
20
-4.18583
11
5.91237
21
-4.18695
0
LINE
8
BLACK
6
CONTINUOUS
10
5.91237
20
-4.18695
11
5.90947
21
-4.18816
0
LINE
8
BLACK
6
CONTINUOUS
10
5.90947
20
-4.18816
11
5.90931
21
-4.18827
0
LINE
8
BLACK
6
CONTINUOUS
10
5.90931
20
-4.18827
11
5.90931
21
-4.18827
0
LINE
8
BLACK
6
CONTINUOUS
10
5.90931
20
-4.18827
11
5.90671
21
-4.19027
0
LINE
8
BLACK
6
CONTINUOUS
10
5.90671
20
-4.19027
11
5.90448
21
-4.19198
0
LINE
8
BLACK
6
CONTINUOUS
10
5.90448
20
-4.19198
11
5.90436
21
-4.19214
0
LINE
8
BLACK
6
CONTINUOUS
10
5.90436
20
-4.19214
11
5.90077
21
-4.19681
0
LINE
8
BLACK
6
CONTINUOUS
10
5.90077
20
-4.19681
11
5.90077
21
-4.19681
0
LINE
8
BLACK
6
CONTINUOUS
10
5.90077
20
-4.19681
11
5.90066
21
-4.19697
0
LINE
8
BLACK
6
CONTINUOUS
10
5.90066
20
-4.19697
11
5.90058
21
-4.19715
0
LINE
8
BLACK
6
CONTINUOUS
10
5.90058
20
-4.19715
11
5.89835
21
-4.20254
0
LINE
8
BLACK
6
CONTINUOUS
10
5.89835
20
-4.20254
11
5.89825
21
-4.20277
0
LINE
8
BLACK
6
CONTINUOUS
10
5.89825
20
-4.20277
11
5.89823
21
-4.20296
0
LINE
8
BLACK
6
CONTINUOUS
10
5.89823
20
-4.20296
11
5.89823
21
-4.20296
0
LINE
8
BLACK
6
CONTINUOUS
10
5.89823
20
-4.20296
11
5.89794
21
-4.2051
0
LINE
8
BLACK
6
CONTINUOUS
10
5.89794
20
-4.2051
11
5.89743
21
-4.209
0
LINE
8
BLACK
6
CONTINUOUS
10
5.89743
20
-4.209
11
5.89746
21
-4.20919
0
LINE
8
BLACK
6
CONTINUOUS
10
5.89746
20
-4.20919
11
5.89804
21
-4.21364
0
LINE
8
BLACK
6
CONTINUOUS
10
5.364
20
-4.104
11
5.364
21
-4.07848
0
LINE
8
BLACK
6
CONTINUOUS
10
5.364
20
-4.07848
11
5.35055
21
-4.07848
0
LINE
8
BLACK
6
CONTINUOUS
10
5.35055
20
-4.07848
11
5.35015
21
-4.07863
0
LINE
8
BLACK
6
CONTINUOUS
10
5.35015
20
-4.07863
11
5.35003
21
-4.07884
0
LINE
8
BLACK
6
CONTINUOUS
10
5.35003
20
-4.07884
11
5.35003
21
-4.10522
0
LINE
8
BLACK
6
CONTINUOUS
10
5.35003
20
-4.10522
11
5.35005
21
-4.10543
0
LINE
8
BLACK
6
CONTINUOUS
10
5.35005
20
-4.10543
11
5.3504
21
-4.10784
0
LINE
8
BLACK
6
CONTINUOUS
10
5.3504
20
-4.10784
11
5.35054
21
-4.10828
0
LINE
8
BLACK
6
CONTINUOUS
10
5.35054
20
-4.10828
11
5.35238
21
-4.11202
0
LINE
8
BLACK
6
CONTINUOUS
10
5.35238
20
-4.11202
11
5.35266
21
-4.11242
0
LINE
8
BLACK
6
CONTINUOUS
10
5.35266
20
-4.11242
11
5.3556
21
-4.11536
0
LINE
8
BLACK
6
CONTINUOUS
10
5.3556
20
-4.11536
11
5.356
21
-4.11564
0
LINE
8
BLACK
6
CONTINUOUS
10
5.356
20
-4.11564
11
5.35975
21
-4.11747
0
LINE
8
BLACK
6
CONTINUOUS
10
5.35975
20
-4.11747
11
5.36018
21
-4.1176
0
LINE
8
BLACK
6
CONTINUOUS
10
5.36018
20
-4.1176
11
5.36257
21
-4.11795
0
LINE
8
BLACK
6
CONTINUOUS
10
5.36257
20
-4.11795
11
5.36278
21
-4.11797
0
LINE
8
BLACK
6
CONTINUOUS
10
5.36278
20
-4.11797
11
5.38899
21
-4.11797
0
LINE
8
BLACK
6
CONTINUOUS
10
5.38899
20
-4.11797
11
5.38939
21
-4.11782
0
LINE
8
BLACK
6
CONTINUOUS
10
5.38939
20
-4.11782
11
5.38952
21
-4.11761
0
LINE
8
BLACK
6
CONTINUOUS
10
5.38952
20
-4.11761
11
5.38952
21
-4.104
0
LINE
8
BLACK
6
CONTINUOUS
10
5.38952
20
-4.104
11
5.364
21
-4.104
0
LINE
8
BLACK
6
CONTINUOUS
10
5.35039
20
-4.06452
11
5.364
21
-4.06452
0
LINE
8
BLACK
6
CONTINUOUS
10
5.364
20
-4.06452
11
5.364
21
-4.039
0
LINE
8
BLACK
6
CONTINUOUS
10
5.364
20
-4.039
11
5.38952
21
-4.039
0
LINE
8
BLACK
6
CONTINUOUS
10
5.38952
20
-4.039
11
5.38952
21
-4.02555
0
LINE
8
BLACK
6
CONTINUOUS
10
5.38952
20
-4.02555
11
5.38937
21
-4.02515
0
LINE
8
BLACK
6
CONTINUOUS
10
5.38937
20
-4.02515
11
5.38916
21
-4.02503
0
LINE
8
BLACK
6
CONTINUOUS
10
5.38916
20
-4.02503
11
5.36278
21
-4.02503
0
LINE
8
BLACK
6
CONTINUOUS
10
5.36278
20
-4.02503
11
5.36257
21
-4.02505
0
LINE
8
BLACK
6
CONTINUOUS
10
5.36257
20
-4.02505
11
5.36016
21
-4.0254
0
LINE
8
BLACK
6
CONTINUOUS
10
5.36016
20
-4.0254
11
5.35972
21
-4.02554
0
LINE
8
BLACK
6
CONTINUOUS
10
5.35972
20
-4.02554
11
5.35598
21
-4.02738
0
LINE
8
BLACK
6
CONTINUOUS
10
5.35598
20
-4.02738
11
5.35558
21
-4.02766
0
LINE
8
BLACK
6
CONTINUOUS
10
5.35558
20
-4.02766
11
5.35264
21
-4.0306
0
LINE
8
BLACK
6
CONTINUOUS
10
5.35264
20
-4.0306
11
5.35236
21
-4.031
0
LINE
8
BLACK
6
CONTINUOUS
10
5.35236
20
-4.031
11
5.35053
21
-4.03475
0
LINE
8
BLACK
6
CONTINUOUS
10
5.35053
20
-4.03475
11
5.3504
21
-4.03518
0
LINE
8
BLACK
6
CONTINUOUS
10
5.3504
20
-4.03518
11
5.35005
21
-4.03757
0
LINE
8
BLACK
6
CONTINUOUS
10
5.35005
20
-4.03757
11
5.35003
21
-4.03778
0
LINE
8
BLACK
6
CONTINUOUS
10
5.35003
20
-4.03778
11
5.35003
21
-4.06399
0
LINE
8
BLACK
6
CONTINUOUS
10
5.35003
20
-4.06399
11
5.35018
21
-4.06439
0
LINE
8
BLACK
6
CONTINUOUS
10
5.35018
20
-4.06439
11
5.35039
21
-4.06452
0
LINE
8
BLACK
6
CONTINUOUS
10
5.53467
20
-4.03665
11
5.53334
21
-4.03466
0
LINE
8
BLACK
6
CONTINUOUS
10
5.53334
20
-4.03466
11
5.53159
21
-4.03349
0
LINE
8
BLACK
6
CONTINUOUS
10
5.53159
20
-4.03349
11
5.53159
21
-4.03349
0
LINE
8
BLACK
6
CONTINUOUS
10
5.53159
20
-4.03349
11
5.53135
21
-4.03333
0
LINE
8
BLACK
6
CONTINUOUS
10
5.53135
20
-4.03333
11
5.52959
21
-4.03298
0
LINE
8
BLACK
6
CONTINUOUS
10
5.52959
20
-4.03298
11
5.4965
21
-4.03298
0
LINE
8
BLACK
6
CONTINUOUS
10
5.4965
20
-4.03298
11
5.46341
21
-4.03298
0
LINE
8
BLACK
6
CONTINUOUS
10
5.46341
20
-4.03298
11
5.46165
21
-4.03333
0
LINE
8
BLACK
6
CONTINUOUS
10
5.46165
20
-4.03333
11
5.45966
21
-4.03466
0
LINE
8
BLACK
6
CONTINUOUS
10
5.45966
20
-4.03466
11
5.45833
21
-4.03665
0
LINE
8
BLACK
6
CONTINUOUS
10
5.45833
20
-4.03665
11
5.45827
21
-4.03694
0
LINE
8
BLACK
6
CONTINUOUS
10
5.45827
20
-4.03694
11
5.4581
21
-4.03778
0
LINE
8
BLACK
6
CONTINUOUS
10
5.4581
20
-4.03778
11
5.45798
21
-4.03841
0
LINE
8
BLACK
6
CONTINUOUS
10
5.45798
20
-4.03841
11
5.45798
21
-4.10459
0
LINE
8
BLACK
6
CONTINUOUS
10
5.45798
20
-4.10459
11
5.45833
21
-4.10635
0
LINE
8
BLACK
6
CONTINUOUS
10
5.45833
20
-4.10635
11
5.45966
21
-4.10834
0
LINE
8
BLACK
6
CONTINUOUS
10
5.45966
20
-4.10834
11
5.4599
21
-4.1085
0
LINE
8
BLACK
6
CONTINUOUS
10
5.4599
20
-4.1085
11
5.46141
21
-4.10951
0
LINE
8
BLACK
6
CONTINUOUS
10
5.46141
20
-4.10951
11
5.46141
21
-4.10951
0
LINE
8
BLACK
6
CONTINUOUS
10
5.46141
20
-4.10951
11
5.46165
21
-4.10967
0
LINE
8
BLACK
6
CONTINUOUS
10
5.46165
20
-4.10967
11
5.46341
21
-4.11002
0
LINE
8
BLACK
6
CONTINUOUS
10
5.46341
20
-4.11002
11
5.4965
21
-4.11002
0
LINE
8
BLACK
6
CONTINUOUS
10
5.4965
20
-4.11002
11
5.52959
21
-4.11002
0
LINE
8
BLACK
6
CONTINUOUS
10
5.52959
20
-4.11002
11
5.53135
21
-4.10967
0
LINE
8
BLACK
6
CONTINUOUS
10
5.53135
20
-4.10967
11
5.53334
21
-4.10834
0
LINE
8
BLACK
6
CONTINUOUS
10
5.53334
20
-4.10834
11
5.53467
21
-4.10635
0
LINE
8
BLACK
6
CONTINUOUS
10
5.53467
20
-4.10635
11
5.5349
21
-4.10522
0
LINE
8
BLACK
6
CONTINUOUS
10
5.5349
20
-4.10522
11
5.53499
21
-4.10474
0
LINE
8
BLACK
6
CONTINUOUS
10
5.53499
20
-4.10474
11
5.53499
21
-4.10474
0
LINE
8
BLACK
6
CONTINUOUS
10
5.53499
20
-4.10474
11
5.53502
21
-4.10459
0
LINE
8
BLACK
6
CONTINUOUS
10
5.53502
20
-4.10459
11
5.53502
21
-4.0965
0
LINE
8
BLACK
6
CONTINUOUS
10
5.53502
20
-4.0965
11
5.53502
21
-4.03841
0
LINE
8
BLACK
6
CONTINUOUS
10
5.53502
20
-4.03841
11
5.53467
21
-4.03665
0
LINE
8
BLACK
6
CONTINUOUS
10
5.45833
20
-4.00635
11
5.45966
21
-4.00834
0
LINE
8
BLACK
6
CONTINUOUS
10
5.45966
20
-4.00834
11
5.4599
21
-4.0085
0
LINE
8
BLACK
6
CONTINUOUS
10
5.4599
20
-4.0085
11
5.46141
21
-4.00951
0
LINE
8
BLACK
6
CONTINUOUS
10
5.46141
20
-4.00951
11
5.46141
21
-4.00951
0
LINE
8
BLACK
6
CONTINUOUS
10
5.46141
20
-4.00951
11
5.46165
21
-4.00967
0
LINE
8
BLACK
6
CONTINUOUS
10
5.46165
20
-4.00967
11
5.46341
21
-4.01002
0
LINE
8
BLACK
6
CONTINUOUS
10
5.46341
20
-4.01002
11
5.4965
21
-4.01002
0
LINE
8
BLACK
6
CONTINUOUS
10
5.4965
20
-4.01002
11
5.52959
21
-4.01002
0
LINE
8
BLACK
6
CONTINUOUS
10
5.52959
20
-4.01002
11
5.53135
21
-4.00967
0
LINE
8
BLACK
6
CONTINUOUS
10
5.53135
20
-4.00967
11
5.53334
21
-4.00834
0
LINE
8
BLACK
6
CONTINUOUS
10
5.53334
20
-4.00834
11
5.53467
21
-4.00635
0
LINE
8
BLACK
6
CONTINUOUS
10
5.53467
20
-4.00635
11
5.53502
21
-4.00459
0
LINE
8
BLACK
6
CONTINUOUS
10
5.53502
20
-4.00459
11
5.53502
21
-3.93841
0
LINE
8
BLACK
6
CONTINUOUS
10
5.53502
20
-3.93841
11
5.53467
21
-3.93665
0
LINE
8
BLACK
6
CONTINUOUS
10
5.53467
20
-3.93665
11
5.53334
21
-3.93466
0
LINE
8
BLACK
6
CONTINUOUS
10
5.53334
20
-3.93466
11
5.53159
21
-3.93349
0
LINE
8
BLACK
6
CONTINUOUS
10
5.53159
20
-3.93349
11
5.53159
21
-3.93349
0
LINE
8
BLACK
6
CONTINUOUS
10
5.53159
20
-3.93349
11
5.53135
21
-3.93333
0
LINE
8
BLACK
6
CONTINUOUS
10
5.53135
20
-3.93333
11
5.52959
21
-3.93298
0
LINE
8
BLACK
6
CONTINUOUS
10
5.52959
20
-3.93298
11
5.4965
21
-3.93298
0
LINE
8
BLACK
6
CONTINUOUS
10
5.4965
20
-3.93298
11
5.46341
21
-3.93298
0
LINE
8
BLACK
6
CONTINUOUS
10
5.46341
20
-3.93298
11
5.46165
21
-3.93333
0
LINE
8
BLACK
6
CONTINUOUS
10
5.46165
20
-3.93333
11
5.45966
21
-3.93466
0
LINE
8
BLACK
6
CONTINUOUS
10
5.45966
20
-3.93466
11
5.45833
21
-3.93665
0
LINE
8
BLACK
6
CONTINUOUS
10
5.45833
20
-3.93665
11
5.45798
21
-3.93841
0
LINE
8
BLACK
6
CONTINUOUS
10
5.45798
20
-3.93841
11
5.45798
21
-4.00459
0
LINE
8
BLACK
6
CONTINUOUS
10
5.45798
20
-4.00459
11
5.45833
21
-4.00635
0
LINE
8
BLACK
6
CONTINUOUS
10
5.44295
20
-4.03757
11
5.4426
21
-4.03516
0
LINE
8
BLACK
6
CONTINUOUS
10
5.4426
20
-4.03516
11
5.44246
21
-4.03472
0
LINE
8
BLACK
6
CONTINUOUS
10
5.44246
20
-4.03472
11
5.44062
21
-4.03098
0
LINE
8
BLACK
6
CONTINUOUS
10
5.44062
20
-4.03098
11
5.44034
21
-4.03058
0
LINE
8
BLACK
6
CONTINUOUS
10
5.44034
20
-4.03058
11
5.4374
21
-4.02764
0
LINE
8
BLACK
6
CONTINUOUS
10
5.4374
20
-4.02764
11
5.437
21
-4.02736
0
LINE
8
BLACK
6
CONTINUOUS
10
5.437
20
-4.02736
11
5.43325
21
-4.02553
0
LINE
8
BLACK
6
CONTINUOUS
10
5.43325
20
-4.02553
11
5.43282
21
-4.0254
0
LINE
8
BLACK
6
CONTINUOUS
10
5.43282
20
-4.0254
11
5.43043
21
-4.02505
0
LINE
8
BLACK
6
CONTINUOUS
10
5.43043
20
-4.02505
11
5.43022
21
-4.02503
0
LINE
8
BLACK
6
CONTINUOUS
10
5.43022
20
-4.02503
11
5.40401
21
-4.02503
0
LINE
8
BLACK
6
CONTINUOUS
10
5.40401
20
-4.02503
11
5.40361
21
-4.02518
0
LINE
8
BLACK
6
CONTINUOUS
10
5.40361
20
-4.02518
11
5.40348
21
-4.02539
0
LINE
8
BLACK
6
CONTINUOUS
10
5.40348
20
-4.02539
11
5.40348
21
-4.039
0
LINE
8
BLACK
6
CONTINUOUS
10
5.40348
20
-4.039
11
5.429
21
-4.039
0
LINE
8
BLACK
6
CONTINUOUS
10
5.429
20
-4.039
11
5.429
21
-4.06452
0
LINE
8
BLACK
6
CONTINUOUS
10
5.429
20
-4.06452
11
5.44245
21
-4.06452
0
LINE
8
BLACK
6
CONTINUOUS
10
5.44245
20
-4.06452
11
5.44285
21
-4.06437
0
LINE
8
BLACK
6
CONTINUOUS
10
5.44285
20
-4.06437
11
5.44297
21
-4.06416
0
LINE
8
BLACK
6
CONTINUOUS
10
5.44297
20
-4.06416
11
5.44297
21
-4.03778
0
LINE
8
BLACK
6
CONTINUOUS
10
5.44297
20
-4.03778
11
5.44295
21
-4.03757
0
LINE
8
BLACK
6
CONTINUOUS
10
5.84134
20
-3.84297
11
5.86772
21
-3.84297
0
LINE
8
BLACK
6
CONTINUOUS
10
5.86772
20
-3.84297
11
5.86793
21
-3.84295
0
LINE
8
BLACK
6
CONTINUOUS
10
5.86793
20
-3.84295
11
5.87034
21
-3.8426
0
LINE
8
BLACK
6
CONTINUOUS
10
5.87034
20
-3.8426
11
5.87078
21
-3.84246
0
LINE
8
BLACK
6
CONTINUOUS
10
5.87078
20
-3.84246
11
5.87452
21
-3.84062
0
LINE
8
BLACK
6
CONTINUOUS
10
5.87452
20
-3.84062
11
5.87492
21
-3.84034
0
LINE
8
BLACK
6
CONTINUOUS
10
5.87492
20
-3.84034
11
5.87786
21
-3.8374
0
LINE
8
BLACK
6
CONTINUOUS
10
5.87786
20
-3.8374
11
5.87814
21
-3.837
0
LINE
8
BLACK
6
CONTINUOUS
10
5.87814
20
-3.837
11
5.87997
21
-3.83325
0
LINE
8
BLACK
6
CONTINUOUS
10
5.87997
20
-3.83325
11
5.8801
21
-3.83282
0
LINE
8
BLACK
6
CONTINUOUS
10
5.8801
20
-3.83282
11
5.88045
21
-3.83043
0
LINE
8
BLACK
6
CONTINUOUS
10
5.88045
20
-3.83043
11
5.88047
21
-3.83022
0
LINE
8
BLACK
6
CONTINUOUS
10
5.88047
20
-3.83022
11
5.88047
21
-3.80401
0
LINE
8
BLACK
6
CONTINUOUS
10
5.88047
20
-3.80401
11
5.88032
21
-3.80361
0
LINE
8
BLACK
6
CONTINUOUS
10
5.88032
20
-3.80361
11
5.88011
21
-3.80348
0
LINE
8
BLACK
6
CONTINUOUS
10
5.88011
20
-3.80348
11
5.8665
21
-3.80348
0
LINE
8
BLACK
6
CONTINUOUS
10
5.8665
20
-3.80348
11
5.8665
21
-3.829
0
LINE
8
BLACK
6
CONTINUOUS
10
5.8665
20
-3.829
11
5.84098
21
-3.829
0
LINE
8
BLACK
6
CONTINUOUS
10
5.84098
20
-3.829
11
5.84098
21
-3.84245
0
LINE
8
BLACK
6
CONTINUOUS
10
5.84098
20
-3.84245
11
5.84113
21
-3.84285
0
LINE
8
BLACK
6
CONTINUOUS
10
5.84113
20
-3.84285
11
5.84134
21
-3.84297
0
LINE
8
BLACK
6
CONTINUOUS
10
5.35833
20
-4.00635
11
5.35966
21
-4.00834
0
LINE
8
BLACK
6
CONTINUOUS
10
5.35966
20
-4.00834
11
5.3599
21
-4.0085
0
LINE
8
BLACK
6
CONTINUOUS
10
5.3599
20
-4.0085
11
5.36141
21
-4.00951
0
LINE
8
BLACK
6
CONTINUOUS
10
5.36141
20
-4.00951
11
5.36141
21
-4.00951
0
LINE
8
BLACK
6
CONTINUOUS
10
5.36141
20
-4.00951
11
5.36165
21
-4.00967
0
LINE
8
BLACK
6
CONTINUOUS
10
5.36165
20
-4.00967
11
5.36341
21
-4.01002
0
LINE
8
BLACK
6
CONTINUOUS
10
5.36341
20
-4.01002
11
5.3965
21
-4.01002
0
LINE
8
BLACK
6
CONTINUOUS
10
5.3965
20
-4.01002
11
5.42959
21
-4.01002
0
LINE
8
BLACK
6
CONTINUOUS
10
5.42959
20
-4.01002
11
5.43135
21
-4.00967
0
LINE
8
BLACK
6
CONTINUOUS
10
5.43135
20
-4.00967
11
5.43334
21
-4.00834
0
LINE
8
BLACK
6
CONTINUOUS
10
5.43334
20
-4.00834
11
5.43467
21
-4.00635
0
LINE
8
BLACK
6
CONTINUOUS
10
5.43467
20
-4.00635
11
5.43502
21
-4.00459
0
LINE
8
BLACK
6
CONTINUOUS
10
5.43502
20
-4.00459
11
5.43502
21
-3.93841
0
LINE
8
BLACK
6
CONTINUOUS
10
5.43502
20
-3.93841
11
5.43502
21
-3.93841
0
LINE
8
BLACK
6
CONTINUOUS
10
5.43502
20
-3.93841
11
5.43467
21
-3.93665
0
LINE
8
BLACK
6
CONTINUOUS
10
5.43467
20
-3.93665
11
5.43334
21
-3.93466
0
LINE
8
BLACK
6
CONTINUOUS
10
5.43334
20
-3.93466
11
5.43159
21
-3.93349
0
LINE
8
BLACK
6
CONTINUOUS
10
5.43159
20
-3.93349
11
5.43159
21
-3.93349
0
LINE
8
BLACK
6
CONTINUOUS
10
5.43159
20
-3.93349
11
5.43135
21
-3.93333
0
LINE
8
BLACK
6
CONTINUOUS
10
5.43135
20
-3.93333
11
5.42959
21
-3.93298
0
LINE
8
BLACK
6
CONTINUOUS
10
5.42959
20
-3.93298
11
5.3965
21
-3.93298
0
LINE
8
BLACK
6
CONTINUOUS
10
5.3965
20
-3.93298
11
5.36341
21
-3.93298
0
LINE
8
BLACK
6
CONTINUOUS
10
5.36341
20
-3.93298
11
5.36165
21
-3.93333
0
LINE
8
BLACK
6
CONTINUOUS
10
5.36165
20
-3.93333
11
5.35966
21
-3.93466
0
LINE
8
BLACK
6
CONTINUOUS
10
5.35966
20
-3.93466
11
5.35833
21
-3.93665
0
LINE
8
BLACK
6
CONTINUOUS
10
5.35833
20
-3.93665
11
5.35798
21
-3.93841
0
LINE
8
BLACK
6
CONTINUOUS
10
5.35798
20
-3.93841
11
5.35798
21
-4.00459
0
LINE
8
BLACK
6
CONTINUOUS
10
5.35798
20
-4.00459
11
5.35833
21
-4.00635
0
LINE
8
BLACK
6
CONTINUOUS
10
5.8015
20
-3.829
11
5.8015
21
-3.80348
0
LINE
8
BLACK
6
CONTINUOUS
10
5.8015
20
-3.80348
11
5.78805
21
-3.80348
0
LINE
8
BLACK
6
CONTINUOUS
10
5.78805
20
-3.80348
11
5.78768
21
-3.80362
0
LINE
8
BLACK
6
CONTINUOUS
10
5.78768
20
-3.80362
11
5.78753
21
-3.80392
0
LINE
8
BLACK
6
CONTINUOUS
10
5.78753
20
-3.80392
11
5.78753
21
-3.83022
0
LINE
8
BLACK
6
CONTINUOUS
10
5.78753
20
-3.83022
11
5.78755
21
-3.83043
0
LINE
8
BLACK
6
CONTINUOUS
10
5.78755
20
-3.83043
11
5.7879
21
-3.83284
0
LINE
8
BLACK
6
CONTINUOUS
10
5.7879
20
-3.83284
11
5.78804
21
-3.83328
0
LINE
8
BLACK
6
CONTINUOUS
10
5.78804
20
-3.83328
11
5.78988
21
-3.83702
0
LINE
8
BLACK
6
CONTINUOUS
10
5.78988
20
-3.83702
11
5.79016
21
-3.83742
0
LINE
8
BLACK
6
CONTINUOUS
10
5.79016
20
-3.83742
11
5.7931
21
-3.84036
0
LINE
8
BLACK
6
CONTINUOUS
10
5.7931
20
-3.84036
11
5.7935
21
-3.84064
0
LINE
8
BLACK
6
CONTINUOUS
10
5.7935
20
-3.84064
11
5.79725
21
-3.84247
0
LINE
8
BLACK
6
CONTINUOUS
10
5.79725
20
-3.84247
11
5.79768
21
-3.8426
0
LINE
8
BLACK
6
CONTINUOUS
10
5.79768
20
-3.8426
11
5.80007
21
-3.84295
0
LINE
8
BLACK
6
CONTINUOUS
10
5.80007
20
-3.84295
11
5.80028
21
-3.84297
0
LINE
8
BLACK
6
CONTINUOUS
10
5.80028
20
-3.84297
11
5.82649
21
-3.84297
0
LINE
8
BLACK
6
CONTINUOUS
10
5.82649
20
-3.84297
11
5.82689
21
-3.84282
0
LINE
8
BLACK
6
CONTINUOUS
10
5.82689
20
-3.84282
11
5.82702
21
-3.84261
0
LINE
8
BLACK
6
CONTINUOUS
10
5.82702
20
-3.84261
11
5.82702
21
-3.829
0
LINE
8
BLACK
6
CONTINUOUS
10
5.82702
20
-3.829
11
5.8015
21
-3.829
0
LINE
8
BLACK
6
CONTINUOUS
10
6.0015
20
-3.829
11
6.0015
21
-3.80348
0
LINE
8
BLACK
6
CONTINUOUS
10
6.0015
20
-3.80348
11
5.98805
21
-3.80348
0
LINE
8
BLACK
6
CONTINUOUS
10
5.98805
20
-3.80348
11
5.98765
21
-3.80363
0
LINE
8
BLACK
6
CONTINUOUS
10
5.98765
20
-3.80363
11
5.98753
21
-3.80384
0
LINE
8
BLACK
6
CONTINUOUS
10
5.98753
20
-3.80384
11
5.98753
21
-3.83022
0
LINE
8
BLACK
6
CONTINUOUS
10
5.98753
20
-3.83022
11
5.98755
21
-3.83043
0
LINE
8
BLACK
6
CONTINUOUS
10
5.98755
20
-3.83043
11
5.9879
21
-3.83284
0
LINE
8
BLACK
6
CONTINUOUS
10
5.9879
20
-3.83284
11
5.98804
21
-3.83328
0
LINE
8
BLACK
6
CONTINUOUS
10
5.98804
20
-3.83328
11
5.98988
21
-3.83702
0
LINE
8
BLACK
6
CONTINUOUS
10
5.98988
20
-3.83702
11
5.99016
21
-3.83742
0
LINE
8
BLACK
6
CONTINUOUS
10
5.99016
20
-3.83742
11
5.9931
21
-3.84036
0
LINE
8
BLACK
6
CONTINUOUS
10
5.9931
20
-3.84036
11
5.9935
21
-3.84064
0
LINE
8
BLACK
6
CONTINUOUS
10
5.9935
20
-3.84064
11
5.99725
21
-3.84247
0
LINE
8
BLACK
6
CONTINUOUS
10
5.99725
20
-3.84247
11
5.99768
21
-3.8426
0
LINE
8
BLACK
6
CONTINUOUS
10
5.99768
20
-3.8426
11
6.00007
21
-3.84295
0
LINE
8
BLACK
6
CONTINUOUS
10
6.00007
20
-3.84295
11
6.00028
21
-3.84297
0
LINE
8
BLACK
6
CONTINUOUS
10
6.00028
20
-3.84297
11
6.02649
21
-3.84297
0
LINE
8
BLACK
6
CONTINUOUS
10
6.02649
20
-3.84297
11
6.02689
21
-3.84282
0
LINE
8
BLACK
6
CONTINUOUS
10
6.02689
20
-3.84282
11
6.02702
21
-3.84261
0
LINE
8
BLACK
6
CONTINUOUS
10
6.02702
20
-3.84261
11
6.02702
21
-3.829
0
LINE
8
BLACK
6
CONTINUOUS
10
6.02702
20
-3.829
11
6.0015
21
-3.829
0
LINE
8
BLACK
6
CONTINUOUS
10
5.35833
20
-3.80635
11
5.35966
21
-3.80834
0
LINE
8
BLACK
6
CONTINUOUS
10
5.35966
20
-3.80834
11
5.3599
21
-3.8085
0
LINE
8
BLACK
6
CONTINUOUS
10
5.3599
20
-3.8085
11
5.36141
21
-3.80951
0
LINE
8
BLACK
6
CONTINUOUS
10
5.36141
20
-3.80951
11
5.36141
21
-3.80951
0
LINE
8
BLACK
6
CONTINUOUS
10
5.36141
20
-3.80951
11
5.36165
21
-3.80967
0
LINE
8
BLACK
6
CONTINUOUS
10
5.36165
20
-3.80967
11
5.36341
21
-3.81002
0
LINE
8
BLACK
6
CONTINUOUS
10
5.36341
20
-3.81002
11
5.3965
21
-3.81002
0
LINE
8
BLACK
6
CONTINUOUS
10
5.3965
20
-3.81002
11
5.42959
21
-3.81002
0
LINE
8
BLACK
6
CONTINUOUS
10
5.42959
20
-3.81002
11
5.43135
21
-3.80967
0
LINE
8
BLACK
6
CONTINUOUS
10
5.43135
20
-3.80967
11
5.43334
21
-3.80834
0
LINE
8
BLACK
6
CONTINUOUS
10
5.43334
20
-3.80834
11
5.43467
21
-3.80635
0
LINE
8
BLACK
6
CONTINUOUS
10
5.43467
20
-3.80635
11
5.43502
21
-3.80459
0
LINE
8
BLACK
6
CONTINUOUS
10
5.43502
20
-3.80459
11
5.43502
21
-3.73841
0
LINE
8
BLACK
6
CONTINUOUS
10
5.43502
20
-3.73841
11
5.43467
21
-3.73665
0
LINE
8
BLACK
6
CONTINUOUS
10
5.43467
20
-3.73665
11
5.43334
21
-3.73466
0
LINE
8
BLACK
6
CONTINUOUS
10
5.43334
20
-3.73466
11
5.4331
21
-3.7345
0
LINE
8
BLACK
6
CONTINUOUS
10
5.4331
20
-3.7345
11
5.43159
21
-3.73349
0
LINE
8
BLACK
6
CONTINUOUS
10
5.43159
20
-3.73349
11
5.43159
21
-3.73349
0
LINE
8
BLACK
6
CONTINUOUS
10
5.43159
20
-3.73349
11
5.43135
21
-3.73333
0
LINE
8
BLACK
6
CONTINUOUS
10
5.43135
20
-3.73333
11
5.42959
21
-3.73298
0
LINE
8
BLACK
6
CONTINUOUS
10
5.42959
20
-3.73298
11
5.3965
21
-3.73298
0
LINE
8
BLACK
6
CONTINUOUS
10
5.3965
20
-3.73298
11
5.36341
21
-3.73298
0
LINE
8
BLACK
6
CONTINUOUS
10
5.36341
20
-3.73298
11
5.36165
21
-3.73333
0
LINE
8
BLACK
6
CONTINUOUS
10
5.36165
20
-3.73333
11
5.35966
21
-3.73466
0
LINE
8
BLACK
6
CONTINUOUS
10
5.35966
20
-3.73466
11
5.35833
21
-3.73665
0
LINE
8
BLACK
6
CONTINUOUS
10
5.35833
20
-3.73665
11
5.35798
21
-3.73841
0
LINE
8
BLACK
6
CONTINUOUS
10
5.35798
20
-3.73841
11
5.35798
21
-3.80459
0
LINE
8
BLACK
6
CONTINUOUS
10
5.35798
20
-3.80459
11
5.35833
21
-3.80635
0
LINE
8
BLACK
6
CONTINUOUS
10
5.35833
20
-3.90635
11
5.35966
21
-3.90834
0
LINE
8
BLACK
6
CONTINUOUS
10
5.35966
20
-3.90834
11
5.3599
21
-3.9085
0
LINE
8
BLACK
6
CONTINUOUS
10
5.3599
20
-3.9085
11
5.36141
21
-3.90951
0
LINE
8
BLACK
6
CONTINUOUS
10
5.36141
20
-3.90951
11
5.36141
21
-3.90951
0
LINE
8
BLACK
6
CONTINUOUS
10
5.36141
20
-3.90951
11
5.36165
21
-3.90967
0
LINE
8
BLACK
6
CONTINUOUS
10
5.36165
20
-3.90967
11
5.36341
21
-3.91002
0
LINE
8
BLACK
6
CONTINUOUS
10
5.36341
20
-3.91002
11
5.3965
21
-3.91002
0
LINE
8
BLACK
6
CONTINUOUS
10
5.3965
20
-3.91002
11
5.42959
21
-3.91002
0
LINE
8
BLACK
6
CONTINUOUS
10
5.42959
20
-3.91002
11
5.43135
21
-3.90967
0
LINE
8
BLACK
6
CONTINUOUS
10
5.43135
20
-3.90967
11
5.43334
21
-3.90834
0
LINE
8
BLACK
6
CONTINUOUS
10
5.43334
20
-3.90834
11
5.43467
21
-3.90635
0
LINE
8
BLACK
6
CONTINUOUS
10
5.43467
20
-3.90635
11
5.43502
21
-3.90459
0
LINE
8
BLACK
6
CONTINUOUS
10
5.43502
20
-3.90459
11
5.43502
21
-3.83841
0
LINE
8
BLACK
6
CONTINUOUS
10
5.43502
20
-3.83841
11
5.43502
21
-3.83841
0
LINE
8
BLACK
6
CONTINUOUS
10
5.43502
20
-3.83841
11
5.43467
21
-3.83665
0
LINE
8
BLACK
6
CONTINUOUS
10
5.43467
20
-3.83665
11
5.43334
21
-3.83466
0
LINE
8
BLACK
6
CONTINUOUS
10
5.43334
20
-3.83466
11
5.4331
21
-3.8345
0
LINE
8
BLACK
6
CONTINUOUS
10
5.4331
20
-3.8345
11
5.43159
21
-3.83349
0
LINE
8
BLACK
6
CONTINUOUS
10
5.43159
20
-3.83349
11
5.43159
21
-3.83349
0
LINE
8
BLACK
6
CONTINUOUS
10
5.43159
20
-3.83349
11
5.43135
21
-3.83333
0
LINE
8
BLACK
6
CONTINUOUS
10
5.43135
20
-3.83333
11
5.42959
21
-3.83298
0
LINE
8
BLACK
6
CONTINUOUS
10
5.42959
20
-3.83298
11
5.3965
21
-3.83298
0
LINE
8
BLACK
6
CONTINUOUS
10
5.3965
20
-3.83298
11
5.36341
21
-3.83298
0
LINE
8
BLACK
6
CONTINUOUS
10
5.36341
20
-3.83298
11
5.36165
21
-3.83333
0
LINE
8
BLACK
6
CONTINUOUS
10
5.36165
20
-3.83333
11
5.35966
21
-3.83466
0
LINE
8
BLACK
6
CONTINUOUS
10
5.35966
20
-3.83466
11
5.35833
21
-3.83665
0
LINE
8
BLACK
6
CONTINUOUS
10
5.35833
20
-3.83665
11
5.35798
21
-3.83841
0
LINE
8
BLACK
6
CONTINUOUS
10
5.35798
20
-3.83841
11
5.35798
21
-3.90459
0
LINE
8
BLACK
6
CONTINUOUS
10
5.35798
20
-3.90459
11
5.35833
21
-3.90635
0
LINE
8
BLACK
6
CONTINUOUS
10
5.98789
20
-3.78952
11
6.0015
21
-3.78952
0
LINE
8
BLACK
6
CONTINUOUS
10
6.0015
20
-3.78952
11
6.0015
21
-3.764
0
LINE
8
BLACK
6
CONTINUOUS
10
6.0015
20
-3.764
11
6.02702
21
-3.764
0
LINE
8
BLACK
6
CONTINUOUS
10
6.02702
20
-3.764
11
6.02702
21
-3.75055
0
LINE
8
BLACK
6
CONTINUOUS
10
6.02702
20
-3.75055
11
6.02687
21
-3.75015
0
LINE
8
BLACK
6
CONTINUOUS
10
6.02687
20
-3.75015
11
6.02666
21
-3.75003
0
LINE
8
BLACK
6
CONTINUOUS
10
6.02666
20
-3.75003
11
6.00028
21
-3.75003
0
LINE
8
BLACK
6
CONTINUOUS
10
6.00028
20
-3.75003
11
6.00007
21
-3.75005
0
LINE
8
BLACK
6
CONTINUOUS
10
6.00007
20
-3.75005
11
5.99766
21
-3.7504
0
LINE
8
BLACK
6
CONTINUOUS
10
5.99766
20
-3.7504
11
5.99722
21
-3.75054
0
LINE
8
BLACK
6
CONTINUOUS
10
5.99722
20
-3.75054
11
5.99348
21
-3.75238
0
LINE
8
BLACK
6
CONTINUOUS
10
5.99348
20
-3.75238
11
5.99308
21
-3.75266
0
LINE
8
BLACK
6
CONTINUOUS
10
5.99308
20
-3.75266
11
5.99014
21
-3.7556
0
LINE
8
BLACK
6
CONTINUOUS
10
5.99014
20
-3.7556
11
5.98986
21
-3.756
0
LINE
8
BLACK
6
CONTINUOUS
10
5.98986
20
-3.756
11
5.98803
21
-3.75975
0
LINE
8
BLACK
6
CONTINUOUS
10
5.98803
20
-3.75975
11
5.9879
21
-3.76018
0
LINE
8
BLACK
6
CONTINUOUS
10
5.9879
20
-3.76018
11
5.98755
21
-3.76257
0
LINE
8
BLACK
6
CONTINUOUS
10
5.98755
20
-3.76257
11
5.98753
21
-3.76278
0
LINE
8
BLACK
6
CONTINUOUS
10
5.98753
20
-3.76278
11
5.98753
21
-3.78899
0
LINE
8
BLACK
6
CONTINUOUS
10
5.98753
20
-3.78899
11
5.98768
21
-3.78939
0
LINE
8
BLACK
6
CONTINUOUS
10
5.98768
20
-3.78939
11
5.98789
21
-3.78952
0
LINE
8
BLACK
6
CONTINUOUS
10
5.53467
20
-3.73665
11
5.53334
21
-3.73466
0
LINE
8
BLACK
6
CONTINUOUS
10
5.53334
20
-3.73466
11
5.5331
21
-3.7345
0
LINE
8
BLACK
6
CONTINUOUS
10
5.5331
20
-3.7345
11
5.53159
21
-3.73349
0
LINE
8
BLACK
6
CONTINUOUS
10
5.53159
20
-3.73349
11
5.53159
21
-3.73349
0
LINE
8
BLACK
6
CONTINUOUS
10
5.53159
20
-3.73349
11
5.53135
21
-3.73333
0
LINE
8
BLACK
6
CONTINUOUS
10
5.53135
20
-3.73333
11
5.52959
21
-3.73298
0
LINE
8
BLACK
6
CONTINUOUS
10
5.52959
20
-3.73298
11
5.4965
21
-3.73298
0
LINE
8
BLACK
6
CONTINUOUS
10
5.4965
20
-3.73298
11
5.46341
21
-3.73298
0
LINE
8
BLACK
6
CONTINUOUS
10
5.46341
20
-3.73298
11
5.46165
21
-3.73333
0
LINE
8
BLACK
6
CONTINUOUS
10
5.46165
20
-3.73333
11
5.45966
21
-3.73466
0
LINE
8
BLACK
6
CONTINUOUS
10
5.45966
20
-3.73466
11
5.45833
21
-3.73665
0
LINE
8
BLACK
6
CONTINUOUS
10
5.45833
20
-3.73665
11
5.45798
21
-3.73841
0
LINE
8
BLACK
6
CONTINUOUS
10
5.45798
20
-3.73841
11
5.45798
21
-3.80459
0
LINE
8
BLACK
6
CONTINUOUS
10
5.45798
20
-3.80459
11
5.45833
21
-3.80635
0
LINE
8
BLACK
6
CONTINUOUS
10
5.45833
20
-3.80635
11
5.45966
21
-3.80834
0
LINE
8
BLACK
6
CONTINUOUS
10
5.45966
20
-3.80834
11
5.4599
21
-3.8085
0
LINE
8
BLACK
6
CONTINUOUS
10
5.4599
20
-3.8085
11
5.46141
21
-3.80951
0
LINE
8
BLACK
6
CONTINUOUS
10
5.46141
20
-3.80951
11
5.46141
21
-3.80951
0
LINE
8
BLACK
6
CONTINUOUS
10
5.46141
20
-3.80951
11
5.46165
21
-3.80967
0
LINE
8
BLACK
6
CONTINUOUS
10
5.46165
20
-3.80967
11
5.46341
21
-3.81002
0
LINE
8
BLACK
6
CONTINUOUS
10
5.46341
20
-3.81002
11
5.48152
21
-3.81002
0
LINE
8
BLACK
6
CONTINUOUS
10
5.48152
20
-3.81002
11
5.48342
21
-3.81071
0
LINE
8
BLACK
6
CONTINUOUS
10
5.48342
20
-3.81071
11
5.48444
21
-3.81247
0
LINE
8
BLACK
6
CONTINUOUS
10
5.48444
20
-3.81247
11
5.48448
21
-3.81298
0
LINE
8
BLACK
6
CONTINUOUS
10
5.48448
20
-3.81298
11
5.48448
21
-3.83002
0
LINE
8
BLACK
6
CONTINUOUS
10
5.48448
20
-3.83002
11
5.48379
21
-3.83192
0
LINE
8
BLACK
6
CONTINUOUS
10
5.48379
20
-3.83192
11
5.48203
21
-3.83294
0
LINE
8
BLACK
6
CONTINUOUS
10
5.48203
20
-3.83294
11
5.48152
21
-3.83298
0
LINE
8
BLACK
6
CONTINUOUS
10
5.48152
20
-3.83298
11
5.46341
21
-3.83298
0
LINE
8
BLACK
6
CONTINUOUS
10
5.46341
20
-3.83298
11
5.46165
21
-3.83333
0
LINE
8
BLACK
6
CONTINUOUS
10
5.46165
20
-3.83333
11
5.45966
21
-3.83466
0
LINE
8
BLACK
6
CONTINUOUS
10
5.45966
20
-3.83466
11
5.45833
21
-3.83665
0
LINE
8
BLACK
6
CONTINUOUS
10
5.45833
20
-3.83665
11
5.45798
21
-3.83841
0
LINE
8
BLACK
6
CONTINUOUS
10
5.45798
20
-3.83841
11
5.45798
21
-3.90459
0
LINE
8
BLACK
6
CONTINUOUS
10
5.45798
20
-3.90459
11
5.45833
21
-3.90635
0
LINE
8
BLACK
6
CONTINUOUS
10
5.45833
20
-3.90635
11
5.45966
21
-3.90834
0
LINE
8
BLACK
6
CONTINUOUS
10
5.45966
20
-3.90834
11
5.4599
21
-3.9085
0
LINE
8
BLACK
6
CONTINUOUS
10
5.4599
20
-3.9085
11
5.46141
21
-3.90951
0
LINE
8
BLACK
6
CONTINUOUS
10
5.46141
20
-3.90951
11
5.46141
21
-3.90951
0
LINE
8
BLACK
6
CONTINUOUS
10
5.46141
20
-3.90951
11
5.46165
21
-3.90967
0
LINE
8
BLACK
6
CONTINUOUS
10
5.46165
20
-3.90967
11
5.46341
21
-3.91002
0
LINE
8
BLACK
6
CONTINUOUS
10
5.46341
20
-3.91002
11
5.4965
21
-3.91002
0
LINE
8
BLACK
6
CONTINUOUS
10
5.4965
20
-3.91002
11
5.52959
21
-3.91002
0
LINE
8
BLACK
6
CONTINUOUS
10
5.52959
20
-3.91002
11
5.53135
21
-3.90967
0
LINE
8
BLACK
6
CONTINUOUS
10
5.53135
20
-3.90967
11
5.53159
21
-3.90951
0
LINE
8
BLACK
6
CONTINUOUS
10
5.53159
20
-3.90951
11
5.53159
21
-3.90951
0
LINE
8
BLACK
6
CONTINUOUS
10
5.53159
20
-3.90951
11
5.53232
21
-3.90902
0
LINE
8
BLACK
6
CONTINUOUS
10
5.53232
20
-3.90902
11
5.53397
21
-3.90852
0
LINE
8
BLACK
6
CONTINUOUS
10
5.53397
20
-3.90852
11
5.7028
21
-3.90852
0
LINE
8
BLACK
6
CONTINUOUS
10
5.7028
20
-3.90852
11
5.7047
21
-3.90921
0
LINE
8
BLACK
6
CONTINUOUS
10
5.7047
20
-3.90921
11
5.70489
21
-3.90939
0
LINE
8
BLACK
6
CONTINUOUS
10
5.70489
20
-3.90939
11
5.74611
21
-3.95061
0
LINE
8
BLACK
6
CONTINUOUS
10
5.74611
20
-3.95061
11
5.74697
21
-3.95245
0
LINE
8
BLACK
6
CONTINUOUS
10
5.74697
20
-3.95245
11
5.74698
21
-3.9527
0
LINE
8
BLACK
6
CONTINUOUS
10
5.74698
20
-3.9527
11
5.74698
21
-4.05167
0
LINE
8
BLACK
6
CONTINUOUS
10
5.74698
20
-4.05167
11
5.74629
21
-4.05357
0
LINE
8
BLACK
6
CONTINUOUS
10
5.74629
20
-4.05357
11
5.74582
21
-4.05402
0
LINE
8
BLACK
6
CONTINUOUS
10
5.74582
20
-4.05402
11
5.74339
21
-4.05589
0
LINE
8
BLACK
6
CONTINUOUS
10
5.74339
20
-4.05589
11
5.73988
21
-4.06046
0
LINE
8
BLACK
6
CONTINUOUS
10
5.73988
20
-4.06046
11
5.7398
21
-4.06064
0
LINE
8
BLACK
6
CONTINUOUS
10
5.7398
20
-4.06064
11
5.73825
21
-4.06439
0
LINE
8
BLACK
6
CONTINUOUS
10
5.73825
20
-4.06439
11
5.73767
21
-4.06578
0
LINE
8
BLACK
6
CONTINUOUS
10
5.73767
20
-4.06578
11
5.73692
21
-4.0715
0
LINE
8
BLACK
6
CONTINUOUS
10
5.73692
20
-4.0715
11
5.73694
21
-4.07169
0
LINE
8
BLACK
6
CONTINUOUS
10
5.73694
20
-4.07169
11
5.73748
21
-4.07577
0
LINE
8
BLACK
6
CONTINUOUS
10
5.73748
20
-4.07577
11
5.73767
21
-4.07722
0
LINE
8
BLACK
6
CONTINUOUS
10
5.73767
20
-4.07722
11
5.73774
21
-4.07739
0
LINE
8
BLACK
6
CONTINUOUS
10
5.73774
20
-4.07739
11
5.73774
21
-4.07739
0
LINE
8
BLACK
6
CONTINUOUS
10
5.73774
20
-4.07739
11
5.73826
21
-4.07863
0
LINE
8
BLACK
6
CONTINUOUS
10
5.73826
20
-4.07863
11
5.73988
21
-4.08254
0
LINE
8
BLACK
6
CONTINUOUS
10
5.73988
20
-4.08254
11
5.74339
21
-4.08711
0
LINE
8
BLACK
6
CONTINUOUS
10
5.74339
20
-4.08711
11
5.74796
21
-4.09062
0
LINE
8
BLACK
6
CONTINUOUS
10
5.74796
20
-4.09062
11
5.75062
21
-4.09173
0
LINE
8
BLACK
6
CONTINUOUS
10
5.75062
20
-4.09173
11
5.75311
21
-4.09276
0
LINE
8
BLACK
6
CONTINUOUS
10
5.75311
20
-4.09276
11
5.75311
21
-4.09276
0
LINE
8
BLACK
6
CONTINUOUS
10
5.75311
20
-4.09276
11
5.75328
21
-4.09283
0
LINE
8
BLACK
6
CONTINUOUS
10
5.75328
20
-4.09283
11
5.75348
21
-4.09286
0
LINE
8
BLACK
6
CONTINUOUS
10
5.75348
20
-4.09286
11
5.75348
21
-4.09286
0
LINE
8
BLACK
6
CONTINUOUS
10
5.75348
20
-4.09286
11
5.75881
21
-4.09356
0
LINE
8
BLACK
6
CONTINUOUS
10
5.75881
20
-4.09356
11
5.759
21
-4.09358
0
LINE
8
BLACK
6
CONTINUOUS
10
5.759
20
-4.09358
11
5.75919
21
-4.09356
0
LINE
8
BLACK
6
CONTINUOUS
10
5.75919
20
-4.09356
11
5.76452
21
-4.09286
0
LINE
8
BLACK
6
CONTINUOUS
10
5.76452
20
-4.09286
11
5.76452
21
-4.09286
0
LINE
8
BLACK
6
CONTINUOUS
10
5.76452
20
-4.09286
11
5.76472
21
-4.09283
0
LINE
8
BLACK
6
CONTINUOUS
10
5.76472
20
-4.09283
11
5.76489
21
-4.09276
0
LINE
8
BLACK
6
CONTINUOUS
10
5.76489
20
-4.09276
11
5.76489
21
-4.09276
0
LINE
8
BLACK
6
CONTINUOUS
10
5.76489
20
-4.09276
11
5.76738
21
-4.09173
0
LINE
8
BLACK
6
CONTINUOUS
10
5.76738
20
-4.09173
11
5.77004
21
-4.09062
0
LINE
8
BLACK
6
CONTINUOUS
10
5.77004
20
-4.09062
11
5.77461
21
-4.08711
0
LINE
8
BLACK
6
CONTINUOUS
10
5.77461
20
-4.08711
11
5.77812
21
-4.08254
0
LINE
8
BLACK
6
CONTINUOUS
10
5.77812
20
-4.08254
11
5.77974
21
-4.07863
0
LINE
8
BLACK
6
CONTINUOUS
10
5.77974
20
-4.07863
11
5.78026
21
-4.07739
0
LINE
8
BLACK
6
CONTINUOUS
10
5.78026
20
-4.07739
11
5.78026
21
-4.07739
0
LINE
8
BLACK
6
CONTINUOUS
10
5.78026
20
-4.07739
11
5.78033
21
-4.07722
0
LINE
8
BLACK
6
CONTINUOUS
10
5.78033
20
-4.07722
11
5.78052
21
-4.07577
0
LINE
8
BLACK
6
CONTINUOUS
10
5.78052
20
-4.07577
11
5.78106
21
-4.07169
0
LINE
8
BLACK
6
CONTINUOUS
10
5.78106
20
-4.07169
11
5.78108
21
-4.0715
0
LINE
8
BLACK
6
CONTINUOUS
10
5.78108
20
-4.0715
11
5.78033
21
-4.06578
0
LINE
8
BLACK
6
CONTINUOUS
10
5.78033
20
-4.06578
11
5.77975
21
-4.06439
0
LINE
8
BLACK
6
CONTINUOUS
10
5.77975
20
-4.06439
11
5.7782
21
-4.06064
0
LINE
8
BLACK
6
CONTINUOUS
10
5.7782
20
-4.06064
11
5.77812
21
-4.06046
0
LINE
8
BLACK
6
CONTINUOUS
10
5.77812
20
-4.06046
11
5.77461
21
-4.05589
0
LINE
8
BLACK
6
CONTINUOUS
10
5.77461
20
-4.05589
11
5.77218
21
-4.05402
0
LINE
8
BLACK
6
CONTINUOUS
10
5.77218
20
-4.05402
11
5.77109
21
-4.05231
0
LINE
8
BLACK
6
CONTINUOUS
10
5.77109
20
-4.05231
11
5.77102
21
-4.05167
0
LINE
8
BLACK
6
CONTINUOUS
10
5.77102
20
-4.05167
11
5.77102
21
-3.94868
0
LINE
8
BLACK
6
CONTINUOUS
10
5.77102
20
-3.94868
11
5.77104
21
-3.94846
0
LINE
8
BLACK
6
CONTINUOUS
10
5.77104
20
-3.94846
11
5.7711
21
-3.94829
0
LINE
8
BLACK
6
CONTINUOUS
10
5.7711
20
-3.94829
11
5.77102
21
-3.94629
0
LINE
8
BLACK
6
CONTINUOUS
10
5.77102
20
-3.94629
11
5.77102
21
-3.94618
0
LINE
8
BLACK
6
CONTINUOUS
10
5.77102
20
-3.94618
11
5.77102
21
-3.94538
0
LINE
8
BLACK
6
CONTINUOUS
10
5.77102
20
-3.94538
11
5.77099
21
-3.94525
0
LINE
8
BLACK
6
CONTINUOUS
10
5.77099
20
-3.94525
11
5.77098
21
-3.94511
0
LINE
8
BLACK
6
CONTINUOUS
10
5.77098
20
-3.94511
11
5.77099
21
-3.94511
0
LINE
8
BLACK
6
CONTINUOUS
10
5.77099
20
-3.94511
11
5.77097
21
-3.94495
0
LINE
8
BLACK
6
CONTINUOUS
10
5.77097
20
-3.94495
11
5.77094
21
-3.94408
0
LINE
8
BLACK
6
CONTINUOUS
10
5.77094
20
-3.94408
11
5.77094
21
-3.94408
0
LINE
8
BLACK
6
CONTINUOUS
10
5.77094
20
-3.94408
11
5.77093
21
-3.94381
0
LINE
8
BLACK
6
CONTINUOUS
10
5.77093
20
-3.94381
11
5.77082
21
-3.94356
0
LINE
8
BLACK
6
CONTINUOUS
10
5.77082
20
-3.94356
11
5.7707
21
-3.94329
0
LINE
8
BLACK
6
CONTINUOUS
10
5.7707
20
-3.94329
11
5.77051
21
-3.94266
0
LINE
8
BLACK
6
CONTINUOUS
10
5.77051
20
-3.94266
11
5.77046
21
-3.94237
0
LINE
8
BLACK
6
CONTINUOUS
10
5.77046
20
-3.94237
11
5.77046
21
-3.94237
0
LINE
8
BLACK
6
CONTINUOUS
10
5.77046
20
-3.94237
11
5.77041
21
-3.9421
0
LINE
8
BLACK
6
CONTINUOUS
10
5.77041
20
-3.9421
11
5.77026
21
-3.94187
0
LINE
8
BLACK
6
CONTINUOUS
10
5.77026
20
-3.94187
11
5.77026
21
-3.94187
0
LINE
8
BLACK
6
CONTINUOUS
10
5.77026
20
-3.94187
11
5.76981
21
-3.94113
0
LINE
8
BLACK
6
CONTINUOUS
10
5.76981
20
-3.94113
11
5.76961
21
-3.94074
0
LINE
8
BLACK
6
CONTINUOUS
10
5.76961
20
-3.94074
11
5.76924
21
-3.93989
0
LINE
8
BLACK
6
CONTINUOUS
10
5.76924
20
-3.93989
11
5.76924
21
-3.93989
0
LINE
8
BLACK
6
CONTINUOUS
10
5.76924
20
-3.93989
11
5.76916
21
-3.9397
0
LINE
8
BLACK
6
CONTINUOUS
10
5.76916
20
-3.9397
11
5.769
21
-3.9395
0
LINE
8
BLACK
6
CONTINUOUS
10
5.769
20
-3.9395
11
5.76874
21
-3.93925
0
LINE
8
BLACK
6
CONTINUOUS
10
5.76874
20
-3.93925
11
5.76832
21
-3.93871
0
LINE
8
BLACK
6
CONTINUOUS
10
5.76832
20
-3.93871
11
5.7682
21
-3.93852
0
LINE
8
BLACK
6
CONTINUOUS
10
5.7682
20
-3.93852
11
5.7682
21
-3.93852
0
LINE
8
BLACK
6
CONTINUOUS
10
5.7682
20
-3.93852
11
5.76806
21
-3.93829
0
LINE
8
BLACK
6
CONTINUOUS
10
5.76806
20
-3.93829
11
5.76707
21
-3.93754
0
LINE
8
BLACK
6
CONTINUOUS
10
5.76707
20
-3.93754
11
5.76677
21
-3.93728
0
LINE
8
BLACK
6
CONTINUOUS
10
5.76677
20
-3.93728
11
5.71904
21
-3.88954
0
LINE
8
BLACK
6
CONTINUOUS
10
5.71904
20
-3.88954
11
5.7189
21
-3.88938
0
LINE
8
BLACK
6
CONTINUOUS
10
5.7189
20
-3.88938
11
5.71882
21
-3.88921
0
LINE
8
BLACK
6
CONTINUOUS
10
5.71882
20
-3.88921
11
5.71735
21
-3.88785
0
LINE
8
BLACK
6
CONTINUOUS
10
5.71735
20
-3.88785
11
5.71727
21
-3.88777
0
LINE
8
BLACK
6
CONTINUOUS
10
5.71727
20
-3.88777
11
5.71671
21
-3.88721
0
LINE
8
BLACK
6
CONTINUOUS
10
5.71671
20
-3.88721
11
5.7166
21
-3.88713
0
LINE
8
BLACK
6
CONTINUOUS
10
5.7166
20
-3.88713
11
5.71649
21
-3.88705
0
LINE
8
BLACK
6
CONTINUOUS
10
5.71649
20
-3.88705
11
5.7165
21
-3.88704
0
LINE
8
BLACK
6
CONTINUOUS
10
5.7165
20
-3.88704
11
5.71637
21
-3.88694
0
LINE
8
BLACK
6
CONTINUOUS
10
5.71637
20
-3.88694
11
5.71573
21
-3.88635
0
LINE
8
BLACK
6
CONTINUOUS
10
5.71573
20
-3.88635
11
5.71553
21
-3.88616
0
LINE
8
BLACK
6
CONTINUOUS
10
5.71553
20
-3.88616
11
5.71528
21
-3.88606
0
LINE
8
BLACK
6
CONTINUOUS
10
5.71528
20
-3.88606
11
5.715
21
-3.88595
0
LINE
8
BLACK
6
CONTINUOUS
10
5.715
20
-3.88595
11
5.71443
21
-3.88564
0
LINE
8
BLACK
6
CONTINUOUS
10
5.71443
20
-3.88564
11
5.71418
21
-3.88548
0
LINE
8
BLACK
6
CONTINUOUS
10
5.71418
20
-3.88548
11
5.71418
21
-3.88548
0
LINE
8
BLACK
6
CONTINUOUS
10
5.71418
20
-3.88548
11
5.71395
21
-3.88532
0
LINE
8
BLACK
6
CONTINUOUS
10
5.71395
20
-3.88532
11
5.71369
21
-3.88526
0
LINE
8
BLACK
6
CONTINUOUS
10
5.71369
20
-3.88526
11
5.71369
21
-3.88526
0
LINE
8
BLACK
6
CONTINUOUS
10
5.71369
20
-3.88526
11
5.71285
21
-3.88506
0
LINE
8
BLACK
6
CONTINUOUS
10
5.71285
20
-3.88506
11
5.71243
21
-3.88493
0
LINE
8
BLACK
6
CONTINUOUS
10
5.71243
20
-3.88493
11
5.71138
21
-3.8845
0
LINE
8
BLACK
6
CONTINUOUS
10
5.71138
20
-3.8845
11
5.71112
21
-3.88448
0
LINE
8
BLACK
6
CONTINUOUS
10
5.71112
20
-3.88448
11
5.71076
21
-3.88448
0
LINE
8
BLACK
6
CONTINUOUS
10
5.71076
20
-3.88448
11
5.71008
21
-3.8844
0
LINE
8
BLACK
6
CONTINUOUS
10
5.71008
20
-3.8844
11
5.7096
21
-3.88429
0
LINE
8
BLACK
6
CONTINUOUS
10
5.7096
20
-3.88429
11
5.70933
21
-3.88432
0
LINE
8
BLACK
6
CONTINUOUS
10
5.70933
20
-3.88432
11
5.70933
21
-3.88432
0
LINE
8
BLACK
6
CONTINUOUS
10
5.70933
20
-3.88432
11
5.70837
21
-3.88445
0
LINE
8
BLACK
6
CONTINUOUS
10
5.70837
20
-3.88445
11
5.70797
21
-3.88448
0
LINE
8
BLACK
6
CONTINUOUS
10
5.70797
20
-3.88448
11
5.53798
21
-3.88448
0
LINE
8
BLACK
6
CONTINUOUS
10
5.53798
20
-3.88448
11
5.53608
21
-3.88379
0
LINE
8
BLACK
6
CONTINUOUS
10
5.53608
20
-3.88379
11
5.53506
21
-3.88203
0
LINE
8
BLACK
6
CONTINUOUS
10
5.53506
20
-3.88203
11
5.53502
21
-3.88152
0
LINE
8
BLACK
6
CONTINUOUS
10
5.53502
20
-3.88152
11
5.53502
21
-3.83855
0
LINE
8
BLACK
6
CONTINUOUS
10
5.53502
20
-3.83855
11
5.53502
21
-3.83841
0
LINE
8
BLACK
6
CONTINUOUS
10
5.53502
20
-3.83841
11
5.53467
21
-3.83665
0
LINE
8
BLACK
6
CONTINUOUS
10
5.53467
20
-3.83665
11
5.53334
21
-3.83466
0
LINE
8
BLACK
6
CONTINUOUS
10
5.53334
20
-3.83466
11
5.5331
21
-3.8345
0
LINE
8
BLACK
6
CONTINUOUS
10
5.5331
20
-3.8345
11
5.53159
21
-3.83349
0
LINE
8
BLACK
6
CONTINUOUS
10
5.53159
20
-3.83349
11
5.53159
21
-3.83349
0
LINE
8
BLACK
6
CONTINUOUS
10
5.53159
20
-3.83349
11
5.53135
21
-3.83333
0
LINE
8
BLACK
6
CONTINUOUS
10
5.53135
20
-3.83333
11
5.52959
21
-3.83298
0
LINE
8
BLACK
6
CONTINUOUS
10
5.52959
20
-3.83298
11
5.51148
21
-3.83298
0
LINE
8
BLACK
6
CONTINUOUS
10
5.51148
20
-3.83298
11
5.50958
21
-3.83229
0
LINE
8
BLACK
6
CONTINUOUS
10
5.50958
20
-3.83229
11
5.50856
21
-3.83053
0
LINE
8
BLACK
6
CONTINUOUS
10
5.50856
20
-3.83053
11
5.50854
21
-3.83022
0
LINE
8
BLACK
6
CONTINUOUS
10
5.50854
20
-3.83022
11
5.50852
21
-3.83002
0
LINE
8
BLACK
6
CONTINUOUS
10
5.50852
20
-3.83002
11
5.50852
21
-3.81298
0
LINE
8
BLACK
6
CONTINUOUS
10
5.50852
20
-3.81298
11
5.50921
21
-3.81108
0
LINE
8
BLACK
6
CONTINUOUS
10
5.50921
20
-3.81108
11
5.51097
21
-3.81006
0
LINE
8
BLACK
6
CONTINUOUS
10
5.51097
20
-3.81006
11
5.51148
21
-3.81002
0
LINE
8
BLACK
6
CONTINUOUS
10
5.51148
20
-3.81002
11
5.52959
21
-3.81002
0
LINE
8
BLACK
6
CONTINUOUS
10
5.52959
20
-3.81002
11
5.53135
21
-3.80967
0
LINE
8
BLACK
6
CONTINUOUS
10
5.53135
20
-3.80967
11
5.53334
21
-3.80834
0
LINE
8
BLACK
6
CONTINUOUS
10
5.53334
20
-3.80834
11
5.53467
21
-3.80635
0
LINE
8
BLACK
6
CONTINUOUS
10
5.53467
20
-3.80635
11
5.53502
21
-3.80459
0
LINE
8
BLACK
6
CONTINUOUS
10
5.53502
20
-3.80459
11
5.53502
21
-3.78899
0
LINE
8
BLACK
6
CONTINUOUS
10
5.53502
20
-3.78899
11
5.53502
21
-3.73841
0
LINE
8
BLACK
6
CONTINUOUS
10
5.53502
20
-3.73841
11
5.53467
21
-3.73665
0
LINE
8
BLACK
6
CONTINUOUS
10
5.97249
20
-3.82974
11
5.97252
21
-3.82959
0
LINE
8
BLACK
6
CONTINUOUS
10
5.97252
20
-3.82959
11
5.97252
21
-3.78899
0
LINE
8
BLACK
6
CONTINUOUS
10
5.97252
20
-3.78899
11
5.97252
21
-3.76341
0
LINE
8
BLACK
6
CONTINUOUS
10
5.97252
20
-3.76341
11
5.97217
21
-3.76165
0
LINE
8
BLACK
6
CONTINUOUS
10
5.97217
20
-3.76165
11
5.97084
21
-3.75966
0
LINE
8
BLACK
6
CONTINUOUS
10
5.97084
20
-3.75966
11
5.96909
21
-3.75849
0
LINE
8
BLACK
6
CONTINUOUS
10
5.96909
20
-3.75849
11
5.96909
21
-3.75849
0
LINE
8
BLACK
6
CONTINUOUS
10
5.96909
20
-3.75849
11
5.96885
21
-3.75833
0
LINE
8
BLACK
6
CONTINUOUS
10
5.96885
20
-3.75833
11
5.96709
21
-3.75798
0
LINE
8
BLACK
6
CONTINUOUS
10
5.96709
20
-3.75798
11
5.934
21
-3.75798
0
LINE
8
BLACK
6
CONTINUOUS
10
5.934
20
-3.75798
11
5.90091
21
-3.75798
0
LINE
8
BLACK
6
CONTINUOUS
10
5.90091
20
-3.75798
11
5.89915
21
-3.75833
0
LINE
8
BLACK
6
CONTINUOUS
10
5.89915
20
-3.75833
11
5.89716
21
-3.75966
0
LINE
8
BLACK
6
CONTINUOUS
10
5.89716
20
-3.75966
11
5.89583
21
-3.76165
0
LINE
8
BLACK
6
CONTINUOUS
10
5.89583
20
-3.76165
11
5.89577
21
-3.76194
0
LINE
8
BLACK
6
CONTINUOUS
10
5.89577
20
-3.76194
11
5.8956
21
-3.76278
0
LINE
8
BLACK
6
CONTINUOUS
10
5.8956
20
-3.76278
11
5.89548
21
-3.76341
0
LINE
8
BLACK
6
CONTINUOUS
10
5.89548
20
-3.76341
11
5.89548
21
-3.82959
0
LINE
8
BLACK
6
CONTINUOUS
10
5.89548
20
-3.82959
11
5.89583
21
-3.83135
0
LINE
8
BLACK
6
CONTINUOUS
10
5.89583
20
-3.83135
11
5.89716
21
-3.83334
0
LINE
8
BLACK
6
CONTINUOUS
10
5.89716
20
-3.83334
11
5.8974
21
-3.8335
0
LINE
8
BLACK
6
CONTINUOUS
10
5.8974
20
-3.8335
11
5.89891
21
-3.83451
0
LINE
8
BLACK
6
CONTINUOUS
10
5.89891
20
-3.83451
11
5.89891
21
-3.83451
0
LINE
8
BLACK
6
CONTINUOUS
10
5.89891
20
-3.83451
11
5.89915
21
-3.83467
0
LINE
8
BLACK
6
CONTINUOUS
10
5.89915
20
-3.83467
11
5.90091
21
-3.83502
0
LINE
8
BLACK
6
CONTINUOUS
10
5.90091
20
-3.83502
11
5.934
21
-3.83502
0
LINE
8
BLACK
6
CONTINUOUS
10
5.934
20
-3.83502
11
5.96709
21
-3.83502
0
LINE
8
BLACK
6
CONTINUOUS
10
5.96709
20
-3.83502
11
5.96885
21
-3.83467
0
LINE
8
BLACK
6
CONTINUOUS
10
5.96885
20
-3.83467
11
5.97084
21
-3.83334
0
LINE
8
BLACK
6
CONTINUOUS
10
5.97084
20
-3.83334
11
5.97217
21
-3.83135
0
LINE
8
BLACK
6
CONTINUOUS
10
5.97217
20
-3.83135
11
5.9724
21
-3.83022
0
LINE
8
BLACK
6
CONTINUOUS
10
5.9724
20
-3.83022
11
5.9724
21
-3.83022
0
LINE
8
BLACK
6
CONTINUOUS
10
5.9724
20
-3.83022
11
5.97249
21
-3.82974
0
LINE
8
BLACK
6
CONTINUOUS
10
5.97249
20
-3.82974
11
5.97249
21
-3.82974
0
LINE
8
BLACK
6
CONTINUOUS
10
5.88045
20
-3.76257
11
5.8801
21
-3.76016
0
LINE
8
BLACK
6
CONTINUOUS
10
5.8801
20
-3.76016
11
5.87996
21
-3.75972
0
LINE
8
BLACK
6
CONTINUOUS
10
5.87996
20
-3.75972
11
5.87812
21
-3.75598
0
LINE
8
BLACK
6
CONTINUOUS
10
5.87812
20
-3.75598
11
5.87784
21
-3.75558
0
LINE
8
BLACK
6
CONTINUOUS
10
5.87784
20
-3.75558
11
5.8749
21
-3.75264
0
LINE
8
BLACK
6
CONTINUOUS
10
5.8749
20
-3.75264
11
5.8745
21
-3.75236
0
LINE
8
BLACK
6
CONTINUOUS
10
5.8745
20
-3.75236
11
5.87075
21
-3.75053
0
LINE
8
BLACK
6
CONTINUOUS
10
5.87075
20
-3.75053
11
5.87032
21
-3.7504
0
LINE
8
BLACK
6
CONTINUOUS
10
5.87032
20
-3.7504
11
5.86793
21
-3.75005
0
LINE
8
BLACK
6
CONTINUOUS
10
5.86793
20
-3.75005
11
5.86772
21
-3.75003
0
LINE
8
BLACK
6
CONTINUOUS
10
5.86772
20
-3.75003
11
5.84151
21
-3.75003
0
LINE
8
BLACK
6
CONTINUOUS
10
5.84151
20
-3.75003
11
5.84111
21
-3.75018
0
LINE
8
BLACK
6
CONTINUOUS
10
5.84111
20
-3.75018
11
5.84098
21
-3.75039
0
LINE
8
BLACK
6
CONTINUOUS
10
5.84098
20
-3.75039
11
5.84098
21
-3.764
0
LINE
8
BLACK
6
CONTINUOUS
10
5.84098
20
-3.764
11
5.8665
21
-3.764
0
LINE
8
BLACK
6
CONTINUOUS
10
5.8665
20
-3.764
11
5.8665
21
-3.78952
0
LINE
8
BLACK
6
CONTINUOUS
10
5.8665
20
-3.78952
11
5.87995
21
-3.78952
0
LINE
8
BLACK
6
CONTINUOUS
10
5.87995
20
-3.78952
11
5.88035
21
-3.78937
0
LINE
8
BLACK
6
CONTINUOUS
10
5.88035
20
-3.78937
11
5.88047
21
-3.78916
0
LINE
8
BLACK
6
CONTINUOUS
10
5.88047
20
-3.78916
11
5.88047
21
-3.76278
0
LINE
8
BLACK
6
CONTINUOUS
10
5.88047
20
-3.76278
11
5.88045
21
-3.76257
0
LINE
8
BLACK
6
CONTINUOUS
10
6.0015
20
-3.729
11
6.0015
21
-3.70348
0
LINE
8
BLACK
6
CONTINUOUS
10
6.0015
20
-3.70348
11
5.98805
21
-3.70348
0
LINE
8
BLACK
6
CONTINUOUS
10
5.98805
20
-3.70348
11
5.98765
21
-3.70363
0
LINE
8
BLACK
6
CONTINUOUS
10
5.98765
20
-3.70363
11
5.98753
21
-3.70384
0
LINE
8
BLACK
6
CONTINUOUS
10
5.98753
20
-3.70384
11
5.98753
21
-3.73022
0
LINE
8
BLACK
6
CONTINUOUS
10
5.98753
20
-3.73022
11
5.98755
21
-3.73043
0
LINE
8
BLACK
6
CONTINUOUS
10
5.98755
20
-3.73043
11
5.9879
21
-3.73284
0
LINE
8
BLACK
6
CONTINUOUS
10
5.9879
20
-3.73284
11
5.98804
21
-3.73328
0
LINE
8
BLACK
6
CONTINUOUS
10
5.98804
20
-3.73328
11
5.98988
21
-3.73702
0
LINE
8
BLACK
6
CONTINUOUS
10
5.98988
20
-3.73702
11
5.99016
21
-3.73742
0
LINE
8
BLACK
6
CONTINUOUS
10
5.99016
20
-3.73742
11
5.9931
21
-3.74036
0
LINE
8
BLACK
6
CONTINUOUS
10
5.9931
20
-3.74036
11
5.9935
21
-3.74064
0
LINE
8
BLACK
6
CONTINUOUS
10
5.9935
20
-3.74064
11
5.99725
21
-3.74247
0
LINE
8
BLACK
6
CONTINUOUS
10
5.99725
20
-3.74247
11
5.99768
21
-3.7426
0
LINE
8
BLACK
6
CONTINUOUS
10
5.99768
20
-3.7426
11
6.00007
21
-3.74295
0
LINE
8
BLACK
6
CONTINUOUS
10
6.00007
20
-3.74295
11
6.00028
21
-3.74297
0
LINE
8
BLACK
6
CONTINUOUS
10
6.00028
20
-3.74297
11
6.02649
21
-3.74297
0
LINE
8
BLACK
6
CONTINUOUS
10
6.02649
20
-3.74297
11
6.02689
21
-3.74282
0
LINE
8
BLACK
6
CONTINUOUS
10
6.02689
20
-3.74282
11
6.02702
21
-3.74261
0
LINE
8
BLACK
6
CONTINUOUS
10
6.02702
20
-3.74261
11
6.02702
21
-3.729
0
LINE
8
BLACK
6
CONTINUOUS
10
6.02702
20
-3.729
11
6.0015
21
-3.729
0
LINE
8
BLACK
6
CONTINUOUS
10
5.7879
20
-3.73284
11
5.78804
21
-3.73328
0
LINE
8
BLACK
6
CONTINUOUS
10
5.78804
20
-3.73328
11
5.78988
21
-3.73702
0
LINE
8
BLACK
6
CONTINUOUS
10
5.78988
20
-3.73702
11
5.79016
21
-3.73742
0
LINE
8
BLACK
6
CONTINUOUS
10
5.79016
20
-3.73742
11
5.7931
21
-3.74036
0
LINE
8
BLACK
6
CONTINUOUS
10
5.7931
20
-3.74036
11
5.7935
21
-3.74064
0
LINE
8
BLACK
6
CONTINUOUS
10
5.7935
20
-3.74064
11
5.79725
21
-3.74247
0
LINE
8
BLACK
6
CONTINUOUS
10
5.79725
20
-3.74247
11
5.79768
21
-3.7426
0
LINE
8
BLACK
6
CONTINUOUS
10
5.79768
20
-3.7426
11
5.80007
21
-3.74295
0
LINE
8
BLACK
6
CONTINUOUS
10
5.80007
20
-3.74295
11
5.80028
21
-3.74297
0
LINE
8
BLACK
6
CONTINUOUS
10
5.80028
20
-3.74297
11
5.82649
21
-3.74297
0
LINE
8
BLACK
6
CONTINUOUS
10
5.82649
20
-3.74297
11
5.82689
21
-3.74282
0
LINE
8
BLACK
6
CONTINUOUS
10
5.82689
20
-3.74282
11
5.82702
21
-3.74261
0
LINE
8
BLACK
6
CONTINUOUS
10
5.82702
20
-3.74261
11
5.82702
21
-3.729
0
LINE
8
BLACK
6
CONTINUOUS
10
5.82702
20
-3.729
11
5.8015
21
-3.729
0
LINE
8
BLACK
6
CONTINUOUS
10
5.8015
20
-3.729
11
5.8015
21
-3.70348
0
LINE
8
BLACK
6
CONTINUOUS
10
5.8015
20
-3.70348
11
5.78805
21
-3.70348
0
LINE
8
BLACK
6
CONTINUOUS
10
5.78805
20
-3.70348
11
5.78768
21
-3.70362
0
LINE
8
BLACK
6
CONTINUOUS
10
5.78768
20
-3.70362
11
5.78753
21
-3.70392
0
LINE
8
BLACK
6
CONTINUOUS
10
5.78753
20
-3.70392
11
5.78753
21
-3.73022
0
LINE
8
BLACK
6
CONTINUOUS
10
5.78753
20
-3.73022
11
5.78755
21
-3.73043
0
LINE
8
BLACK
6
CONTINUOUS
10
5.78755
20
-3.73043
11
5.7879
21
-3.73284
0
LINE
8
BLACK
6
CONTINUOUS
10
5.98789
20
-3.68952
11
6.0015
21
-3.68952
0
LINE
8
BLACK
6
CONTINUOUS
10
6.0015
20
-3.68952
11
6.0015
21
-3.664
0
LINE
8
BLACK
6
CONTINUOUS
10
6.0015
20
-3.664
11
6.02702
21
-3.664
0
LINE
8
BLACK
6
CONTINUOUS
10
6.02702
20
-3.664
11
6.02702
21
-3.65055
0
LINE
8
BLACK
6
CONTINUOUS
10
6.02702
20
-3.65055
11
6.02687
21
-3.65015
0
LINE
8
BLACK
6
CONTINUOUS
10
6.02687
20
-3.65015
11
6.02666
21
-3.65003
0
LINE
8
BLACK
6
CONTINUOUS
10
6.02666
20
-3.65003
11
6.00028
21
-3.65003
0
LINE
8
BLACK
6
CONTINUOUS
10
6.00028
20
-3.65003
11
6.00007
21
-3.65005
0
LINE
8
BLACK
6
CONTINUOUS
10
6.00007
20
-3.65005
11
5.99766
21
-3.6504
0
LINE
8
BLACK
6
CONTINUOUS
10
5.99766
20
-3.6504
11
5.99722
21
-3.65054
0
LINE
8
BLACK
6
CONTINUOUS
10
5.99722
20
-3.65054
11
5.99348
21
-3.65238
0
LINE
8
BLACK
6
CONTINUOUS
10
5.99348
20
-3.65238
11
5.99308
21
-3.65266
0
LINE
8
BLACK
6
CONTINUOUS
10
5.99308
20
-3.65266
11
5.99014
21
-3.6556
0
LINE
8
BLACK
6
CONTINUOUS
10
5.99014
20
-3.6556
11
5.98986
21
-3.656
0
LINE
8
BLACK
6
CONTINUOUS
10
5.98986
20
-3.656
11
5.98803
21
-3.65975
0
LINE
8
BLACK
6
CONTINUOUS
10
5.98803
20
-3.65975
11
5.9879
21
-3.66018
0
LINE
8
BLACK
6
CONTINUOUS
10
5.9879
20
-3.66018
11
5.98755
21
-3.66257
0
LINE
8
BLACK
6
CONTINUOUS
10
5.98755
20
-3.66257
11
5.98753
21
-3.66278
0
LINE
8
BLACK
6
CONTINUOUS
10
5.98753
20
-3.66278
11
5.98753
21
-3.68899
0
LINE
8
BLACK
6
CONTINUOUS
10
5.98753
20
-3.68899
11
5.98768
21
-3.68939
0
LINE
8
BLACK
6
CONTINUOUS
10
5.98768
20
-3.68939
11
5.98789
21
-3.68952
0
LINE
8
BLACK
6
CONTINUOUS
10
5.97249
20
-3.72974
11
5.97252
21
-3.72959
0
LINE
8
BLACK
6
CONTINUOUS
10
5.97252
20
-3.72959
11
5.97252
21
-3.68899
0
LINE
8
BLACK
6
CONTINUOUS
10
5.97252
20
-3.68899
11
5.97252
21
-3.66341
0
LINE
8
BLACK
6
CONTINUOUS
10
5.97252
20
-3.66341
11
5.97217
21
-3.66165
0
LINE
8
BLACK
6
CONTINUOUS
10
5.97217
20
-3.66165
11
5.97084
21
-3.65966
0
LINE
8
BLACK
6
CONTINUOUS
10
5.97084
20
-3.65966
11
5.96909
21
-3.65849
0
LINE
8
BLACK
6
CONTINUOUS
10
5.96909
20
-3.65849
11
5.96909
21
-3.65849
0
LINE
8
BLACK
6
CONTINUOUS
10
5.96909
20
-3.65849
11
5.96885
21
-3.65833
0
LINE
8
BLACK
6
CONTINUOUS
10
5.96885
20
-3.65833
11
5.96709
21
-3.65798
0
LINE
8
BLACK
6
CONTINUOUS
10
5.96709
20
-3.65798
11
5.934
21
-3.65798
0
LINE
8
BLACK
6
CONTINUOUS
10
5.934
20
-3.65798
11
5.90091
21
-3.65798
0
LINE
8
BLACK
6
CONTINUOUS
10
5.90091
20
-3.65798
11
5.89915
21
-3.65833
0
LINE
8
BLACK
6
CONTINUOUS
10
5.89915
20
-3.65833
11
5.89716
21
-3.65966
0
LINE
8
BLACK
6
CONTINUOUS
10
5.89716
20
-3.65966
11
5.89583
21
-3.66165
0
LINE
8
BLACK
6
CONTINUOUS
10
5.89583
20
-3.66165
11
5.89577
21
-3.66194
0
LINE
8
BLACK
6
CONTINUOUS
10
5.89577
20
-3.66194
11
5.8956
21
-3.66278
0
LINE
8
BLACK
6
CONTINUOUS
10
5.8956
20
-3.66278
11
5.89548
21
-3.66341
0
LINE
8
BLACK
6
CONTINUOUS
10
5.89548
20
-3.66341
11
5.89548
21
-3.72959
0
LINE
8
BLACK
6
CONTINUOUS
10
5.89548
20
-3.72959
11
5.89583
21
-3.73135
0
LINE
8
BLACK
6
CONTINUOUS
10
5.89583
20
-3.73135
11
5.89716
21
-3.73334
0
LINE
8
BLACK
6
CONTINUOUS
10
5.89716
20
-3.73334
11
5.8974
21
-3.7335
0
LINE
8
BLACK
6
CONTINUOUS
10
5.8974
20
-3.7335
11
5.89891
21
-3.73451
0
LINE
8
BLACK
6
CONTINUOUS
10
5.89891
20
-3.73451
11
5.89891
21
-3.73451
0
LINE
8
BLACK
6
CONTINUOUS
10
5.89891
20
-3.73451
11
5.89915
21
-3.73467
0
LINE
8
BLACK
6
CONTINUOUS
10
5.89915
20
-3.73467
11
5.90091
21
-3.73502
0
LINE
8
BLACK
6
CONTINUOUS
10
5.90091
20
-3.73502
11
5.934
21
-3.73502
0
LINE
8
BLACK
6
CONTINUOUS
10
5.934
20
-3.73502
11
5.96709
21
-3.73502
0
LINE
8
BLACK
6
CONTINUOUS
10
5.96709
20
-3.73502
11
5.96885
21
-3.73467
0
LINE
8
BLACK
6
CONTINUOUS
10
5.96885
20
-3.73467
11
5.97084
21
-3.73334
0
LINE
8
BLACK
6
CONTINUOUS
10
5.97084
20
-3.73334
11
5.97217
21
-3.73135
0
LINE
8
BLACK
6
CONTINUOUS
10
5.97217
20
-3.73135
11
5.9724
21
-3.73022
0
LINE
8
BLACK
6
CONTINUOUS
10
5.9724
20
-3.73022
11
5.9724
21
-3.73022
0
LINE
8
BLACK
6
CONTINUOUS
10
5.9724
20
-3.73022
11
5.97249
21
-3.72974
0
LINE
8
BLACK
6
CONTINUOUS
10
5.97249
20
-3.72974
11
5.97249
21
-3.72974
0
LINE
8
BLACK
6
CONTINUOUS
10
5.88045
20
-3.66257
11
5.8801
21
-3.66016
0
LINE
8
BLACK
6
CONTINUOUS
10
5.8801
20
-3.66016
11
5.87996
21
-3.65972
0
LINE
8
BLACK
6
CONTINUOUS
10
5.87996
20
-3.65972
11
5.87812
21
-3.65598
0
LINE
8
BLACK
6
CONTINUOUS
10
5.87812
20
-3.65598
11
5.87784
21
-3.65558
0
LINE
8
BLACK
6
CONTINUOUS
10
5.87784
20
-3.65558
11
5.8749
21
-3.65264
0
LINE
8
BLACK
6
CONTINUOUS
10
5.8749
20
-3.65264
11
5.8745
21
-3.65236
0
LINE
8
BLACK
6
CONTINUOUS
10
5.8745
20
-3.65236
11
5.87075
21
-3.65053
0
LINE
8
BLACK
6
CONTINUOUS
10
5.87075
20
-3.65053
11
5.87032
21
-3.6504
0
LINE
8
BLACK
6
CONTINUOUS
10
5.87032
20
-3.6504
11
5.86793
21
-3.65005
0
LINE
8
BLACK
6
CONTINUOUS
10
5.86793
20
-3.65005
11
5.86772
21
-3.65003
0
LINE
8
BLACK
6
CONTINUOUS
10
5.86772
20
-3.65003
11
5.84151
21
-3.65003
0
LINE
8
BLACK
6
CONTINUOUS
10
5.84151
20
-3.65003
11
5.84111
21
-3.65018
0
LINE
8
BLACK
6
CONTINUOUS
10
5.84111
20
-3.65018
11
5.84098
21
-3.65039
0
LINE
8
BLACK
6
CONTINUOUS
10
5.84098
20
-3.65039
11
5.84098
21
-3.664
0
LINE
8
BLACK
6
CONTINUOUS
10
5.84098
20
-3.664
11
5.8665
21
-3.664
0
LINE
8
BLACK
6
CONTINUOUS
10
5.8665
20
-3.664
11
5.8665
21
-3.68952
0
LINE
8
BLACK
6
CONTINUOUS
10
5.8665
20
-3.68952
11
5.87995
21
-3.68952
0
LINE
8
BLACK
6
CONTINUOUS
10
5.87995
20
-3.68952
11
5.88035
21
-3.68937
0
LINE
8
BLACK
6
CONTINUOUS
10
5.88035
20
-3.68937
11
5.88047
21
-3.68916
0
LINE
8
BLACK
6
CONTINUOUS
10
5.88047
20
-3.68916
11
5.88047
21
-3.66278
0
LINE
8
BLACK
6
CONTINUOUS
10
5.88047
20
-3.66278
11
5.88045
21
-3.66257
0
LINE
8
BLACK
6
CONTINUOUS
10
5.7879
20
-3.63284
11
5.78804
21
-3.63328
0
LINE
8
BLACK
6
CONTINUOUS
10
5.78804
20
-3.63328
11
5.78988
21
-3.63702
0
LINE
8
BLACK
6
CONTINUOUS
10
5.78988
20
-3.63702
11
5.79016
21
-3.63742
0
LINE
8
BLACK
6
CONTINUOUS
10
5.79016
20
-3.63742
11
5.7931
21
-3.64036
0
LINE
8
BLACK
6
CONTINUOUS
10
5.7931
20
-3.64036
11
5.7935
21
-3.64064
0
LINE
8
BLACK
6
CONTINUOUS
10
5.7935
20
-3.64064
11
5.79725
21
-3.64247
0
LINE
8
BLACK
6
CONTINUOUS
10
5.79725
20
-3.64247
11
5.79768
21
-3.6426
0
LINE
8
BLACK
6
CONTINUOUS
10
5.79768
20
-3.6426
11
5.80007
21
-3.64295
0
LINE
8
BLACK
6
CONTINUOUS
10
5.80007
20
-3.64295
11
5.80028
21
-3.64297
0
LINE
8
BLACK
6
CONTINUOUS
10
5.80028
20
-3.64297
11
5.82649
21
-3.64297
0
LINE
8
BLACK
6
CONTINUOUS
10
5.82649
20
-3.64297
11
5.82689
21
-3.64282
0
LINE
8
BLACK
6
CONTINUOUS
10
5.82689
20
-3.64282
11
5.82702
21
-3.64261
0
LINE
8
BLACK
6
CONTINUOUS
10
5.82702
20
-3.64261
11
5.82702
21
-3.629
0
LINE
8
BLACK
6
CONTINUOUS
10
5.82702
20
-3.629
11
5.8015
21
-3.629
0
LINE
8
BLACK
6
CONTINUOUS
10
5.8015
20
-3.629
11
5.8015
21
-3.60348
0
LINE
8
BLACK
6
CONTINUOUS
10
5.8015
20
-3.60348
11
5.78805
21
-3.60348
0
LINE
8
BLACK
6
CONTINUOUS
10
5.78805
20
-3.60348
11
5.78768
21
-3.60362
0
LINE
8
BLACK
6
CONTINUOUS
10
5.78768
20
-3.60362
11
5.78753
21
-3.60392
0
LINE
8
BLACK
6
CONTINUOUS
10
5.78753
20
-3.60392
11
5.78753
21
-3.63022
0
LINE
8
BLACK
6
CONTINUOUS
10
5.78753
20
-3.63022
11
5.78755
21
-3.63043
0
LINE
8
BLACK
6
CONTINUOUS
10
5.78755
20
-3.63043
11
5.7879
21
-3.63284
0
LINE
8
BLACK
6
CONTINUOUS
10
6.0015
20
-3.629
11
6.0015
21
-3.60348
0
LINE
8
BLACK
6
CONTINUOUS
10
6.0015
20
-3.60348
11
5.98805
21
-3.60348
0
LINE
8
BLACK
6
CONTINUOUS
10
5.98805
20
-3.60348
11
5.98765
21
-3.60363
0
LINE
8
BLACK
6
CONTINUOUS
10
5.98765
20
-3.60363
11
5.98753
21
-3.60384
0
LINE
8
BLACK
6
CONTINUOUS
10
5.98753
20
-3.60384
11
5.98753
21
-3.63022
0
LINE
8
BLACK
6
CONTINUOUS
10
5.98753
20
-3.63022
11
5.98755
21
-3.63043
0
LINE
8
BLACK
6
CONTINUOUS
10
5.98755
20
-3.63043
11
5.9879
21
-3.63284
0
LINE
8
BLACK
6
CONTINUOUS
10
5.9879
20
-3.63284
11
5.98804
21
-3.63328
0
LINE
8
BLACK
6
CONTINUOUS
10
5.98804
20
-3.63328
11
5.98988
21
-3.63702
0
LINE
8
BLACK
6
CONTINUOUS
10
5.98988
20
-3.63702
11
5.99016
21
-3.63742
0
LINE
8
BLACK
6
CONTINUOUS
10
5.99016
20
-3.63742
11
5.9931
21
-3.64036
0
LINE
8
BLACK
6
CONTINUOUS
10
5.9931
20
-3.64036
11
5.9935
21
-3.64064
0
LINE
8
BLACK
6
CONTINUOUS
10
5.9935
20
-3.64064
11
5.99725
21
-3.64247
0
LINE
8
BLACK
6
CONTINUOUS
10
5.99725
20
-3.64247
11
5.99768
21
-3.6426
0
LINE
8
BLACK
6
CONTINUOUS
10
5.99768
20
-3.6426
11
6.00007
21
-3.64295
0
LINE
8
BLACK
6
CONTINUOUS
10
6.00007
20
-3.64295
11
6.00028
21
-3.64297
0
LINE
8
BLACK
6
CONTINUOUS
10
6.00028
20
-3.64297
11
6.02649
21
-3.64297
0
LINE
8
BLACK
6
CONTINUOUS
10
6.02649
20
-3.64297
11
6.02689
21
-3.64282
0
LINE
8
BLACK
6
CONTINUOUS
10
6.02689
20
-3.64282
11
6.02702
21
-3.64261
0
LINE
8
BLACK
6
CONTINUOUS
10
6.02702
20
-3.64261
11
6.02702
21
-3.629
0
LINE
8
BLACK
6
CONTINUOUS
10
6.02702
20
-3.629
11
6.0015
21
-3.629
0
LINE
8
BLACK
6
CONTINUOUS
10
5.98789
20
-3.58952
11
6.0015
21
-3.58952
0
LINE
8
BLACK
6
CONTINUOUS
10
6.0015
20
-3.58952
11
6.0015
21
-3.564
0
LINE
8
BLACK
6
CONTINUOUS
10
6.0015
20
-3.564
11
6.02702
21
-3.564
0
LINE
8
BLACK
6
CONTINUOUS
10
6.02702
20
-3.564
11
6.02702
21
-3.55055
0
LINE
8
BLACK
6
CONTINUOUS
10
6.02702
20
-3.55055
11
6.02687
21
-3.55015
0
LINE
8
BLACK
6
CONTINUOUS
10
6.02687
20
-3.55015
11
6.02666
21
-3.55003
0
LINE
8
BLACK
6
CONTINUOUS
10
6.02666
20
-3.55003
11
6.00028
21
-3.55003
0
LINE
8
BLACK
6
CONTINUOUS
10
6.00028
20
-3.55003
11
6.00007
21
-3.55005
0
LINE
8
BLACK
6
CONTINUOUS
10
6.00007
20
-3.55005
11
5.99766
21
-3.5504
0
LINE
8
BLACK
6
CONTINUOUS
10
5.99766
20
-3.5504
11
5.99722
21
-3.55054
0
LINE
8
BLACK
6
CONTINUOUS
10
5.99722
20
-3.55054
11
5.99348
21
-3.55238
0
LINE
8
BLACK
6
CONTINUOUS
10
5.99348
20
-3.55238
11
5.99308
21
-3.55266
0
LINE
8
BLACK
6
CONTINUOUS
10
5.99308
20
-3.55266
11
5.99014
21
-3.5556
0
LINE
8
BLACK
6
CONTINUOUS
10
5.99014
20
-3.5556
11
5.98986
21
-3.556
0
LINE
8
BLACK
6
CONTINUOUS
10
5.98986
20
-3.556
11
5.98803
21
-3.55975
0
LINE
8
BLACK
6
CONTINUOUS
10
5.98803
20
-3.55975
11
5.9879
21
-3.56018
0
LINE
8
BLACK
6
CONTINUOUS
10
5.9879
20
-3.56018
11
5.98755
21
-3.56257
0
LINE
8
BLACK
6
CONTINUOUS
10
5.98755
20
-3.56257
11
5.98753
21
-3.56278
0
LINE
8
BLACK
6
CONTINUOUS
10
5.98753
20
-3.56278
11
5.98753
21
-3.58899
0
LINE
8
BLACK
6
CONTINUOUS
10
5.98753
20
-3.58899
11
5.98768
21
-3.58939
0
LINE
8
BLACK
6
CONTINUOUS
10
5.98768
20
-3.58939
11
5.98789
21
-3.58952
0
LINE
8
BLACK
6
CONTINUOUS
10
5.97249
20
-3.62974
11
5.97252
21
-3.62959
0
LINE
8
BLACK
6
CONTINUOUS
10
5.97252
20
-3.62959
11
5.97252
21
-3.58899
0
LINE
8
BLACK
6
CONTINUOUS
10
5.97252
20
-3.58899
11
5.97252
21
-3.56341
0
LINE
8
BLACK
6
CONTINUOUS
10
5.97252
20
-3.56341
11
5.97217
21
-3.56165
0
LINE
8
BLACK
6
CONTINUOUS
10
5.97217
20
-3.56165
11
5.97084
21
-3.55966
0
LINE
8
BLACK
6
CONTINUOUS
10
5.97084
20
-3.55966
11
5.96909
21
-3.55849
0
LINE
8
BLACK
6
CONTINUOUS
10
5.96909
20
-3.55849
11
5.96909
21
-3.55849
0
LINE
8
BLACK
6
CONTINUOUS
10
5.96909
20
-3.55849
11
5.96885
21
-3.55833
0
LINE
8
BLACK
6
CONTINUOUS
10
5.96885
20
-3.55833
11
5.96709
21
-3.55798
0
LINE
8
BLACK
6
CONTINUOUS
10
5.96709
20
-3.55798
11
5.934
21
-3.55798
0
LINE
8
BLACK
6
CONTINUOUS
10
5.934
20
-3.55798
11
5.90091
21
-3.55798
0
LINE
8
BLACK
6
CONTINUOUS
10
5.90091
20
-3.55798
11
5.89915
21
-3.55833
0
LINE
8
BLACK
6
CONTINUOUS
10
5.89915
20
-3.55833
11
5.89716
21
-3.55966
0
LINE
8
BLACK
6
CONTINUOUS
10
5.89716
20
-3.55966
11
5.89583
21
-3.56165
0
LINE
8
BLACK
6
CONTINUOUS
10
5.89583
20
-3.56165
11
5.89577
21
-3.56194
0
LINE
8
BLACK
6
CONTINUOUS
10
5.89577
20
-3.56194
11
5.8956
21
-3.56278
0
LINE
8
BLACK
6
CONTINUOUS
10
5.8956
20
-3.56278
11
5.89548
21
-3.56341
0
LINE
8
BLACK
6
CONTINUOUS
10
5.89548
20
-3.56341
11
5.89548
21
-3.62959
0
LINE
8
BLACK
6
CONTINUOUS
10
5.89548
20
-3.62959
11
5.89583
21
-3.63135
0
LINE
8
BLACK
6
CONTINUOUS
10
5.89583
20
-3.63135
11
5.89716
21
-3.63334
0
LINE
8
BLACK
6
CONTINUOUS
10
5.89716
20
-3.63334
11
5.8974
21
-3.6335
0
LINE
8
BLACK
6
CONTINUOUS
10
5.8974
20
-3.6335
11
5.89891
21
-3.63451
0
LINE
8
BLACK
6
CONTINUOUS
10
5.89891
20
-3.63451
11
5.89891
21
-3.63451
0
LINE
8
BLACK
6
CONTINUOUS
10
5.89891
20
-3.63451
11
5.89915
21
-3.63467
0
LINE
8
BLACK
6
CONTINUOUS
10
5.89915
20
-3.63467
11
5.90091
21
-3.63502
0
LINE
8
BLACK
6
CONTINUOUS
10
5.90091
20
-3.63502
11
5.934
21
-3.63502
0
LINE
8
BLACK
6
CONTINUOUS
10
5.934
20
-3.63502
11
5.96709
21
-3.63502
0
LINE
8
BLACK
6
CONTINUOUS
10
5.96709
20
-3.63502
11
5.96885
21
-3.63467
0
LINE
8
BLACK
6
CONTINUOUS
10
5.96885
20
-3.63467
11
5.97084
21
-3.63334
0
LINE
8
BLACK
6
CONTINUOUS
10
5.97084
20
-3.63334
11
5.97217
21
-3.63135
0
LINE
8
BLACK
6
CONTINUOUS
10
5.97217
20
-3.63135
11
5.9724
21
-3.63022
0
LINE
8
BLACK
6
CONTINUOUS
10
5.9724
20
-3.63022
11
5.9724
21
-3.63022
0
LINE
8
BLACK
6
CONTINUOUS
10
5.9724
20
-3.63022
11
5.97249
21
-3.62974
0
LINE
8
BLACK
6
CONTINUOUS
10
5.97249
20
-3.62974
11
5.97249
21
-3.62974
0
LINE
8
BLACK
6
CONTINUOUS
10
5.88045
20
-3.56257
11
5.8801
21
-3.56016
0
LINE
8
BLACK
6
CONTINUOUS
10
5.8801
20
-3.56016
11
5.87996
21
-3.55972
0
LINE
8
BLACK
6
CONTINUOUS
10
5.87996
20
-3.55972
11
5.87812
21
-3.55598
0
LINE
8
BLACK
6
CONTINUOUS
10
5.87812
20
-3.55598
11
5.87784
21
-3.55558
0
LINE
8
BLACK
6
CONTINUOUS
10
5.87784
20
-3.55558
11
5.8749
21
-3.55264
0
LINE
8
BLACK
6
CONTINUOUS
10
5.8749
20
-3.55264
11
5.8745
21
-3.55236
0
LINE
8
BLACK
6
CONTINUOUS
10
5.8745
20
-3.55236
11
5.87075
21
-3.55053
0
LINE
8
BLACK
6
CONTINUOUS
10
5.87075
20
-3.55053
11
5.87032
21
-3.5504
0
LINE
8
BLACK
6
CONTINUOUS
10
5.87032
20
-3.5504
11
5.86793
21
-3.55005
0
LINE
8
BLACK
6
CONTINUOUS
10
5.86793
20
-3.55005
11
5.86772
21
-3.55003
0
LINE
8
BLACK
6
CONTINUOUS
10
5.86772
20
-3.55003
11
5.84151
21
-3.55003
0
LINE
8
BLACK
6
CONTINUOUS
10
5.84151
20
-3.55003
11
5.84111
21
-3.55018
0
LINE
8
BLACK
6
CONTINUOUS
10
5.84111
20
-3.55018
11
5.84098
21
-3.55039
0
LINE
8
BLACK
6
CONTINUOUS
10
5.84098
20
-3.55039
11
5.84098
21
-3.564
0
LINE
8
BLACK
6
CONTINUOUS
10
5.84098
20
-3.564
11
5.8665
21
-3.564
0
LINE
8
BLACK
6
CONTINUOUS
10
5.8665
20
-3.564
11
5.8665
21
-3.58952
0
LINE
8
BLACK
6
CONTINUOUS
10
5.8665
20
-3.58952
11
5.87995
21
-3.58952
0
LINE
8
BLACK
6
CONTINUOUS
10
5.87995
20
-3.58952
11
5.88035
21
-3.58937
0
LINE
8
BLACK
6
CONTINUOUS
10
5.88035
20
-3.58937
11
5.88047
21
-3.58916
0
LINE
8
BLACK
6
CONTINUOUS
10
5.88047
20
-3.58916
11
5.88047
21
-3.56278
0
LINE
8
BLACK
6
CONTINUOUS
10
5.88047
20
-3.56278
11
5.88045
21
-3.56257
0
LINE
8
BLACK
6
CONTINUOUS
10
5.7879
20
-3.53284
11
5.78804
21
-3.53328
0
LINE
8
BLACK
6
CONTINUOUS
10
5.78804
20
-3.53328
11
5.78988
21
-3.53702
0
LINE
8
BLACK
6
CONTINUOUS
10
5.78988
20
-3.53702
11
5.79016
21
-3.53742
0
LINE
8
BLACK
6
CONTINUOUS
10
5.79016
20
-3.53742
11
5.7931
21
-3.54036
0
LINE
8
BLACK
6
CONTINUOUS
10
5.7931
20
-3.54036
11
5.7935
21
-3.54064
0
LINE
8
BLACK
6
CONTINUOUS
10
5.7935
20
-3.54064
11
5.79725
21
-3.54247
0
LINE
8
BLACK
6
CONTINUOUS
10
5.79725
20
-3.54247
11
5.79768
21
-3.5426
0
LINE
8
BLACK
6
CONTINUOUS
10
5.79768
20
-3.5426
11
5.80007
21
-3.54295
0
LINE
8
BLACK
6
CONTINUOUS
10
5.80007
20
-3.54295
11
5.80028
21
-3.54297
0
LINE
8
BLACK
6
CONTINUOUS
10
5.80028
20
-3.54297
11
5.82649
21
-3.54297
0
LINE
8
BLACK
6
CONTINUOUS
10
5.82649
20
-3.54297
11
5.82689
21
-3.54282
0
LINE
8
BLACK
6
CONTINUOUS
10
5.82689
20
-3.54282
11
5.82702
21
-3.54261
0
LINE
8
BLACK
6
CONTINUOUS
10
5.82702
20
-3.54261
11
5.82702
21
-3.529
0
LINE
8
BLACK
6
CONTINUOUS
10
5.82702
20
-3.529
11
5.8015
21
-3.529
0
LINE
8
BLACK
6
CONTINUOUS
10
5.8015
20
-3.529
11
5.8015
21
-3.50348
0
LINE
8
BLACK
6
CONTINUOUS
10
5.8015
20
-3.50348
11
5.78805
21
-3.50348
0
LINE
8
BLACK
6
CONTINUOUS
10
5.78805
20
-3.50348
11
5.78768
21
-3.50362
0
LINE
8
BLACK
6
CONTINUOUS
10
5.78768
20
-3.50362
11
5.78753
21
-3.50392
0
LINE
8
BLACK
6
CONTINUOUS
10
5.78753
20
-3.50392
11
5.78753
21
-3.53022
0
LINE
8
BLACK
6
CONTINUOUS
10
5.78753
20
-3.53022
11
5.78755
21
-3.53043
0
LINE
8
BLACK
6
CONTINUOUS
10
5.78755
20
-3.53043
11
5.7879
21
-3.53284
0
LINE
8
BLACK
6
CONTINUOUS
10
6.0015
20
-3.529
11
6.0015
21
-3.50348
0
LINE
8
BLACK
6
CONTINUOUS
10
6.0015
20
-3.50348
11
5.98805
21
-3.50348
0
LINE
8
BLACK
6
CONTINUOUS
10
5.98805
20
-3.50348
11
5.98765
21
-3.50363
0
LINE
8
BLACK
6
CONTINUOUS
10
5.98765
20
-3.50363
11
5.98753
21
-3.50384
0
LINE
8
BLACK
6
CONTINUOUS
10
5.98753
20
-3.50384
11
5.98753
21
-3.53022
0
LINE
8
BLACK
6
CONTINUOUS
10
5.98753
20
-3.53022
11
5.98755
21
-3.53043
0
LINE
8
BLACK
6
CONTINUOUS
10
5.98755
20
-3.53043
11
5.9879
21
-3.53284
0
LINE
8
BLACK
6
CONTINUOUS
10
5.9879
20
-3.53284
11
5.98804
21
-3.53328
0
LINE
8
BLACK
6
CONTINUOUS
10
5.98804
20
-3.53328
11
5.98988
21
-3.53702
0
LINE
8
BLACK
6
CONTINUOUS
10
5.98988
20
-3.53702
11
5.99016
21
-3.53742
0
LINE
8
BLACK
6
CONTINUOUS
10
5.99016
20
-3.53742
11
5.9931
21
-3.54036
0
LINE
8
BLACK
6
CONTINUOUS
10
5.9931
20
-3.54036
11
5.9935
21
-3.54064
0
LINE
8
BLACK
6
CONTINUOUS
10
5.9935
20
-3.54064
11
5.99725
21
-3.54247
0
LINE
8
BLACK
6
CONTINUOUS
10
5.99725
20
-3.54247
11
5.99768
21
-3.5426
0
LINE
8
BLACK
6
CONTINUOUS
10
5.99768
20
-3.5426
11
6.00007
21
-3.54295
0
LINE
8
BLACK
6
CONTINUOUS
10
6.00007
20
-3.54295
11
6.00028
21
-3.54297
0
LINE
8
BLACK
6
CONTINUOUS
10
6.00028
20
-3.54297
11
6.02649
21
-3.54297
0
LINE
8
BLACK
6
CONTINUOUS
10
6.02649
20
-3.54297
11
6.02689
21
-3.54282
0
LINE
8
BLACK
6
CONTINUOUS
10
6.02689
20
-3.54282
11
6.02702
21
-3.54261
0
LINE
8
BLACK
6
CONTINUOUS
10
6.02702
20
-3.54261
11
6.02702
21
-3.529
0
LINE
8
BLACK
6
CONTINUOUS
10
6.02702
20
-3.529
11
6.0015
21
-3.529
0
LINE
8
BLACK
6
CONTINUOUS
10
5.98789
20
-3.48952
11
6.0015
21
-3.48952
0
LINE
8
BLACK
6
CONTINUOUS
10
6.0015
20
-3.48952
11
6.0015
21
-3.464
0
LINE
8
BLACK
6
CONTINUOUS
10
6.0015
20
-3.464
11
6.02702
21
-3.464
0
LINE
8
BLACK
6
CONTINUOUS
10
6.02702
20
-3.464
11
6.02702
21
-3.45055
0
LINE
8
BLACK
6
CONTINUOUS
10
6.02702
20
-3.45055
11
6.02687
21
-3.45015
0
LINE
8
BLACK
6
CONTINUOUS
10
6.02687
20
-3.45015
11
6.02666
21
-3.45003
0
LINE
8
BLACK
6
CONTINUOUS
10
6.02666
20
-3.45003
11
6.00028
21
-3.45003
0
LINE
8
BLACK
6
CONTINUOUS
10
6.00028
20
-3.45003
11
6.00007
21
-3.45005
0
LINE
8
BLACK
6
CONTINUOUS
10
6.00007
20
-3.45005
11
5.99766
21
-3.4504
0
LINE
8
BLACK
6
CONTINUOUS
10
5.99766
20
-3.4504
11
5.99722
21
-3.45054
0
LINE
8
BLACK
6
CONTINUOUS
10
5.99722
20
-3.45054
11
5.99348
21
-3.45238
0
LINE
8
BLACK
6
CONTINUOUS
10
5.99348
20
-3.45238
11
5.99308
21
-3.45266
0
LINE
8
BLACK
6
CONTINUOUS
10
5.99308
20
-3.45266
11
5.99014
21
-3.4556
0
LINE
8
BLACK
6
CONTINUOUS
10
5.99014
20
-3.4556
11
5.98986
21
-3.456
0
LINE
8
BLACK
6
CONTINUOUS
10
5.98986
20
-3.456
11
5.98803
21
-3.45975
0
LINE
8
BLACK
6
CONTINUOUS
10
5.98803
20
-3.45975
11
5.9879
21
-3.46018
0
LINE
8
BLACK
6
CONTINUOUS
10
5.9879
20
-3.46018
11
5.98755
21
-3.46257
0
LINE
8
BLACK
6
CONTINUOUS
10
5.98755
20
-3.46257
11
5.98753
21
-3.46278
0
LINE
8
BLACK
6
CONTINUOUS
10
5.98753
20
-3.46278
11
5.98753
21
-3.48899
0
LINE
8
BLACK
6
CONTINUOUS
10
5.98753
20
-3.48899
11
5.98768
21
-3.48939
0
LINE
8
BLACK
6
CONTINUOUS
10
5.98768
20
-3.48939
11
5.98789
21
-3.48952
0
LINE
8
BLACK
6
CONTINUOUS
10
5.97249
20
-3.52974
11
5.97252
21
-3.52959
0
LINE
8
BLACK
6
CONTINUOUS
10
5.97252
20
-3.52959
11
5.97252
21
-3.48899
0
LINE
8
BLACK
6
CONTINUOUS
10
5.97252
20
-3.48899
11
5.97252
21
-3.46341
0
LINE
8
BLACK
6
CONTINUOUS
10
5.97252
20
-3.46341
11
5.97217
21
-3.46165
0
LINE
8
BLACK
6
CONTINUOUS
10
5.97217
20
-3.46165
11
5.97084
21
-3.45966
0
LINE
8
BLACK
6
CONTINUOUS
10
5.97084
20
-3.45966
11
5.96909
21
-3.45849
0
LINE
8
BLACK
6
CONTINUOUS
10
5.96909
20
-3.45849
11
5.96909
21
-3.45849
0
LINE
8
BLACK
6
CONTINUOUS
10
5.96909
20
-3.45849
11
5.96885
21
-3.45833
0
LINE
8
BLACK
6
CONTINUOUS
10
5.96885
20
-3.45833
11
5.96709
21
-3.45798
0
LINE
8
BLACK
6
CONTINUOUS
10
5.96709
20
-3.45798
11
5.934
21
-3.45798
0
LINE
8
BLACK
6
CONTINUOUS
10
5.934
20
-3.45798
11
5.90091
21
-3.45798
0
LINE
8
BLACK
6
CONTINUOUS
10
5.90091
20
-3.45798
11
5.89915
21
-3.45833
0
LINE
8
BLACK
6
CONTINUOUS
10
5.89915
20
-3.45833
11
5.89716
21
-3.45966
0
LINE
8
BLACK
6
CONTINUOUS
10
5.89716
20
-3.45966
11
5.89583
21
-3.46165
0
LINE
8
BLACK
6
CONTINUOUS
10
5.89583
20
-3.46165
11
5.89577
21
-3.46194
0
LINE
8
BLACK
6
CONTINUOUS
10
5.89577
20
-3.46194
11
5.8956
21
-3.46278
0
LINE
8
BLACK
6
CONTINUOUS
10
5.8956
20
-3.46278
11
5.89548
21
-3.46341
0
LINE
8
BLACK
6
CONTINUOUS
10
5.89548
20
-3.46341
11
5.89548
21
-3.52959
0
LINE
8
BLACK
6
CONTINUOUS
10
5.89548
20
-3.52959
11
5.89583
21
-3.53135
0
LINE
8
BLACK
6
CONTINUOUS
10
5.89583
20
-3.53135
11
5.89716
21
-3.53334
0
LINE
8
BLACK
6
CONTINUOUS
10
5.89716
20
-3.53334
11
5.8974
21
-3.5335
0
LINE
8
BLACK
6
CONTINUOUS
10
5.8974
20
-3.5335
11
5.89891
21
-3.53451
0
LINE
8
BLACK
6
CONTINUOUS
10
5.89891
20
-3.53451
11
5.89891
21
-3.53451
0
LINE
8
BLACK
6
CONTINUOUS
10
5.89891
20
-3.53451
11
5.89915
21
-3.53467
0
LINE
8
BLACK
6
CONTINUOUS
10
5.89915
20
-3.53467
11
5.90091
21
-3.53502
0
LINE
8
BLACK
6
CONTINUOUS
10
5.90091
20
-3.53502
11
5.934
21
-3.53502
0
LINE
8
BLACK
6
CONTINUOUS
10
5.934
20
-3.53502
11
5.96709
21
-3.53502
0
LINE
8
BLACK
6
CONTINUOUS
10
5.96709
20
-3.53502
11
5.96885
21
-3.53467
0
LINE
8
BLACK
6
CONTINUOUS
10
5.96885
20
-3.53467
11
5.97084
21
-3.53334
0
LINE
8
BLACK
6
CONTINUOUS
10
5.97084
20
-3.53334
11
5.97217
21
-3.53135
0
LINE
8
BLACK
6
CONTINUOUS
10
5.97217
20
-3.53135
11
5.9724
21
-3.53022
0
LINE
8
BLACK
6
CONTINUOUS
10
5.9724
20
-3.53022
11
5.9724
21
-3.53022
0
LINE
8
BLACK
6
CONTINUOUS
10
5.9724
20
-3.53022
11
5.97249
21
-3.52974
0
LINE
8
BLACK
6
CONTINUOUS
10
5.97249
20
-3.52974
11
5.97249
21
-3.52974
0
LINE
8
BLACK
6
CONTINUOUS
10
5.88045
20
-3.46257
11
5.8801
21
-3.46016
0
LINE
8
BLACK
6
CONTINUOUS
10
5.8801
20
-3.46016
11
5.87996
21
-3.45972
0
LINE
8
BLACK
6
CONTINUOUS
10
5.87996
20
-3.45972
11
5.87812
21
-3.45598
0
LINE
8
BLACK
6
CONTINUOUS
10
5.87812
20
-3.45598
11
5.87784
21
-3.45558
0
LINE
8
BLACK
6
CONTINUOUS
10
5.87784
20
-3.45558
11
5.8749
21
-3.45264
0
LINE
8
BLACK
6
CONTINUOUS
10
5.8749
20
-3.45264
11
5.8745
21
-3.45236
0
LINE
8
BLACK
6
CONTINUOUS
10
5.8745
20
-3.45236
11
5.87075
21
-3.45053
0
LINE
8
BLACK
6
CONTINUOUS
10
5.87075
20
-3.45053
11
5.87032
21
-3.4504
0
LINE
8
BLACK
6
CONTINUOUS
10
5.87032
20
-3.4504
11
5.86793
21
-3.45005
0
LINE
8
BLACK
6
CONTINUOUS
10
5.86793
20
-3.45005
11
5.86772
21
-3.45003
0
LINE
8
BLACK
6
CONTINUOUS
10
5.86772
20
-3.45003
11
5.84151
21
-3.45003
0
LINE
8
BLACK
6
CONTINUOUS
10
5.84151
20
-3.45003
11
5.84111
21
-3.45018
0
LINE
8
BLACK
6
CONTINUOUS
10
5.84111
20
-3.45018
11
5.84098
21
-3.45039
0
LINE
8
BLACK
6
CONTINUOUS
10
5.84098
20
-3.45039
11
5.84098
21
-3.464
0
LINE
8
BLACK
6
CONTINUOUS
10
5.84098
20
-3.464
11
5.8665
21
-3.464
0
LINE
8
BLACK
6
CONTINUOUS
10
5.8665
20
-3.464
11
5.8665
21
-3.48952
0
LINE
8
BLACK
6
CONTINUOUS
10
5.8665
20
-3.48952
11
5.87995
21
-3.48952
0
LINE
8
BLACK
6
CONTINUOUS
10
5.87995
20
-3.48952
11
5.88035
21
-3.48937
0
LINE
8
BLACK
6
CONTINUOUS
10
5.88035
20
-3.48937
11
5.88047
21
-3.48916
0
LINE
8
BLACK
6
CONTINUOUS
10
5.88047
20
-3.48916
11
5.88047
21
-3.46278
0
LINE
8
BLACK
6
CONTINUOUS
10
5.88047
20
-3.46278
11
5.88045
21
-3.46257
0
LINE
8
BLACK
6
CONTINUOUS
10
5.4165
20
-4.5415
11
5.3515
21
-4.5415
0
LINE
8
BLACK
6
CONTINUOUS
10
5.3515
20
-4.5415
11
5.3515
21
-4.4765
0
LINE
8
BLACK
6
CONTINUOUS
10
5.3515
20
-4.4765
11
5.4165
21
-4.4765
0
LINE
8
BLACK
6
CONTINUOUS
10
5.4165
20
-4.4765
11
5.4165
21
-4.5415
0
LINE
8
BLACK
6
CONTINUOUS
10
5.4165
20
-4.4415
11
5.3515
21
-4.4415
0
LINE
8
BLACK
6
CONTINUOUS
10
5.3515
20
-4.4415
11
5.3515
21
-4.3765
0
LINE
8
BLACK
6
CONTINUOUS
10
5.3515
20
-4.3765
11
5.4165
21
-4.3765
0
LINE
8
BLACK
6
CONTINUOUS
10
5.4165
20
-4.3765
11
5.4165
21
-4.4415
0
LINE
8
BLACK
6
CONTINUOUS
10
5.4165
20
-4.3415
11
5.3515
21
-4.3415
0
LINE
8
BLACK
6
CONTINUOUS
10
5.3515
20
-4.3415
11
5.3515
21
-4.2765
0
LINE
8
BLACK
6
CONTINUOUS
10
5.3515
20
-4.2765
11
5.4165
21
-4.2765
0
LINE
8
BLACK
6
CONTINUOUS
10
5.4165
20
-4.2765
11
5.4165
21
-4.3415
0
LINE
8
BLACK
6
CONTINUOUS
10
5.529
20
-3.804
11
5.5025
21
-3.804
0
LINE
8
BLACK
6
CONTINUOUS
10
5.5025
20
-3.804
11
5.5025
21
-3.839
0
LINE
8
BLACK
6
CONTINUOUS
10
5.5025
20
-3.839
11
5.529
21
-3.839
0
LINE
8
BLACK
6
CONTINUOUS
10
5.529
20
-3.839
11
5.529
21
-3.8905
0
LINE
8
BLACK
6
CONTINUOUS
10
5.529
20
-3.8905
11
5.709
21
-3.8905
0
LINE
8
BLACK
6
CONTINUOUS
10
5.709
20
-3.8905
11
5.70976
21
-3.8907
0
LINE
8
BLACK
6
CONTINUOUS
10
5.70976
20
-3.8907
11
5.71055
21
-3.8907
0
LINE
8
BLACK
6
CONTINUOUS
10
5.71055
20
-3.8907
11
5.71124
21
-3.8911
0
LINE
8
BLACK
6
CONTINUOUS
10
5.71124
20
-3.8911
11
5.712
21
-3.8913
0
LINE
8
BLACK
6
CONTINUOUS
10
5.712
20
-3.8913
11
5.71256
21
-3.89186
0
LINE
8
BLACK
6
CONTINUOUS
10
5.71256
20
-3.89186
11
5.71324
21
-3.89226
0
LINE
8
BLACK
6
CONTINUOUS
10
5.71324
20
-3.89226
11
5.76324
21
-3.94226
0
LINE
8
BLACK
6
CONTINUOUS
10
5.76324
20
-3.94226
11
5.76364
21
-3.94294
0
LINE
8
BLACK
6
CONTINUOUS
10
5.76364
20
-3.94294
11
5.7642
21
-3.9435
0
LINE
8
BLACK
6
CONTINUOUS
10
5.7642
20
-3.9435
11
5.7644
21
-3.94426
0
LINE
8
BLACK
6
CONTINUOUS
10
5.7644
20
-3.94426
11
5.7648
21
-3.94495
0
LINE
8
BLACK
6
CONTINUOUS
10
5.7648
20
-3.94495
11
5.7648
21
-3.94574
0
LINE
8
BLACK
6
CONTINUOUS
10
5.7648
20
-3.94574
11
5.765
21
-3.9465
0
LINE
8
BLACK
6
CONTINUOUS
10
5.765
20
-3.9465
11
5.765
21
-4.05696
0
LINE
8
BLACK
6
CONTINUOUS
10
5.765
20
-4.05696
11
5.76833
21
-4.05866
0
LINE
8
BLACK
6
CONTINUOUS
10
5.76833
20
-4.05866
11
5.77184
21
-4.06217
0
LINE
8
BLACK
6
CONTINUOUS
10
5.77184
20
-4.06217
11
5.7741
21
-4.06659
0
LINE
8
BLACK
6
CONTINUOUS
10
5.7741
20
-4.06659
11
5.77487
21
-4.0715
0
LINE
8
BLACK
6
CONTINUOUS
10
5.77487
20
-4.0715
11
5.7741
21
-4.07641
0
LINE
8
BLACK
6
CONTINUOUS
10
5.7741
20
-4.07641
11
5.77184
21
-4.08083
0
LINE
8
BLACK
6
CONTINUOUS
10
5.77184
20
-4.08083
11
5.76833
21
-4.08434
0
LINE
8
BLACK
6
CONTINUOUS
10
5.76833
20
-4.08434
11
5.76391
21
-4.0866
0
LINE
8
BLACK
6
CONTINUOUS
10
5.76391
20
-4.0866
11
5.759
21
-4.08737
0
LINE
8
BLACK
6
CONTINUOUS
10
5.759
20
-4.08737
11
5.75409
21
-4.0866
0
LINE
8
BLACK
6
CONTINUOUS
10
5.75409
20
-4.0866
11
5.74967
21
-4.08434
0
LINE
8
BLACK
6
CONTINUOUS
10
5.74967
20
-4.08434
11
5.74616
21
-4.08083
0
LINE
8
BLACK
6
CONTINUOUS
10
5.74616
20
-4.08083
11
5.7439
21
-4.07641
0
LINE
8
BLACK
6
CONTINUOUS
10
5.7439
20
-4.07641
11
5.74313
21
-4.0715
0
LINE
8
BLACK
6
CONTINUOUS
10
5.74313
20
-4.0715
11
5.7439
21
-4.06659
0
LINE
8
BLACK
6
CONTINUOUS
10
5.7439
20
-4.06659
11
5.74616
21
-4.06217
0
LINE
8
BLACK
6
CONTINUOUS
10
5.74616
20
-4.06217
11
5.74967
21
-4.05866
0
LINE
8
BLACK
6
CONTINUOUS
10
5.74967
20
-4.05866
11
5.753
21
-4.05696
0
LINE
8
BLACK
6
CONTINUOUS
10
5.753
20
-4.05696
11
5.753
21
-3.94899
0
LINE
8
BLACK
6
CONTINUOUS
10
5.753
20
-3.94899
11
5.70651
21
-3.9025
0
LINE
8
BLACK
6
CONTINUOUS
10
5.70651
20
-3.9025
11
5.529
21
-3.9025
0
LINE
8
BLACK
6
CONTINUOUS
10
5.529
20
-3.9025
11
5.529
21
-3.904
0
LINE
8
BLACK
6
CONTINUOUS
10
5.529
20
-3.904
11
5.464
21
-3.904
0
LINE
8
BLACK
6
CONTINUOUS
10
5.464
20
-3.904
11
5.464
21
-3.839
0
LINE
8
BLACK
6
CONTINUOUS
10
5.464
20
-3.839
11
5.4905
21
-3.839
0
LINE
8
BLACK
6
CONTINUOUS
10
5.4905
20
-3.839
11
5.4905
21
-3.804
0
LINE
8
BLACK
6
CONTINUOUS
10
5.4905
20
-3.804
11
5.464
21
-3.804
0
LINE
8
BLACK
6
CONTINUOUS
10
5.464
20
-3.804
11
5.464
21
-3.739
0
LINE
8
BLACK
6
CONTINUOUS
10
5.464
20
-3.739
11
5.529
21
-3.739
0
LINE
8
BLACK
6
CONTINUOUS
10
5.529
20
-3.739
11
5.529
21
-3.804
0
LINE
8
BLACK
6
CONTINUOUS
10
5.429
20
-4.004
11
5.364
21
-4.004
0
LINE
8
BLACK
6
CONTINUOUS
10
5.364
20
-4.004
11
5.364
21
-3.939
0
LINE
8
BLACK
6
CONTINUOUS
10
5.364
20
-3.939
11
5.429
21
-3.939
0
LINE
8
BLACK
6
CONTINUOUS
10
5.429
20
-3.939
11
5.429
21
-4.004
0
LINE
8
BLACK
6
CONTINUOUS
10
5.529
20
-4.004
11
5.464
21
-4.004
0
LINE
8
BLACK
6
CONTINUOUS
10
5.464
20
-4.004
11
5.464
21
-3.939
0
LINE
8
BLACK
6
CONTINUOUS
10
5.464
20
-3.939
11
5.529
21
-3.939
0
LINE
8
BLACK
6
CONTINUOUS
10
5.529
20
-3.939
11
5.529
21
-4.004
0
LINE
8
BLACK
6
CONTINUOUS
10
5.429
20
-3.904
11
5.364
21
-3.904
0
LINE
8
BLACK
6
CONTINUOUS
10
5.364
20
-3.904
11
5.364
21
-3.839
0
LINE
8
BLACK
6
CONTINUOUS
10
5.364
20
-3.839
11
5.429
21
-3.839
0
LINE
8
BLACK
6
CONTINUOUS
10
5.429
20
-3.839
11
5.429
21
-3.904
0
LINE
8
BLACK
6
CONTINUOUS
10
5.429
20
-3.804
11
5.364
21
-3.804
0
LINE
8
BLACK
6
CONTINUOUS
10
5.364
20
-3.804
11
5.364
21
-3.739
0
LINE
8
BLACK
6
CONTINUOUS
10
5.364
20
-3.739
11
5.429
21
-3.739
0
LINE
8
BLACK
6
CONTINUOUS
10
5.429
20
-3.739
11
5.429
21
-3.804
0
LINE
8
BLACK
6
CONTINUOUS
10
6.31164
20
-4.25385
11
6.31648
21
-4.2553
0
LINE
8
BLACK
6
CONTINUOUS
10
6.31648
20
-4.2553
11
6.32073
21
-4.25805
0
LINE
8
BLACK
6
CONTINUOUS
10
6.32073
20
-4.25805
11
6.32403
21
-4.26189
0
LINE
8
BLACK
6
CONTINUOUS
10
6.32403
20
-4.26189
11
6.32613
21
-4.26649
0
LINE
8
BLACK
6
CONTINUOUS
10
6.32613
20
-4.26649
11
6.32684
21
-4.2715
0
LINE
8
BLACK
6
CONTINUOUS
10
6.32684
20
-4.2715
11
6.32684
21
-4.27194
0
LINE
8
BLACK
6
CONTINUOUS
10
6.32684
20
-4.27194
11
6.326
21
-4.27692
0
LINE
8
BLACK
6
CONTINUOUS
10
6.326
20
-4.27692
11
6.32379
21
-4.28148
0
LINE
8
BLACK
6
CONTINUOUS
10
6.32379
20
-4.28148
11
6.3204
21
-4.28523
0
LINE
8
BLACK
6
CONTINUOUS
10
6.3204
20
-4.28523
11
6.31609
21
-4.28788
0
LINE
8
BLACK
6
CONTINUOUS
10
6.31609
20
-4.28788
11
6.31121
21
-4.28921
0
LINE
8
BLACK
6
CONTINUOUS
10
6.31121
20
-4.28921
11
6.30615
21
-4.28911
0
LINE
8
BLACK
6
CONTINUOUS
10
6.30615
20
-4.28911
11
6.30132
21
-4.2876
0
LINE
8
BLACK
6
CONTINUOUS
10
6.30132
20
-4.2876
11
6.29711
21
-4.2848
0
LINE
8
BLACK
6
CONTINUOUS
10
6.29711
20
-4.2848
11
6.29385
21
-4.28093
0
LINE
8
BLACK
6
CONTINUOUS
10
6.29385
20
-4.28093
11
6.29181
21
-4.2763
0
LINE
8
BLACK
6
CONTINUOUS
10
6.29181
20
-4.2763
11
6.29116
21
-4.27128
0
LINE
8
BLACK
6
CONTINUOUS
10
6.29116
20
-4.27128
11
6.29194
21
-4.26628
0
LINE
8
BLACK
6
CONTINUOUS
10
6.29194
20
-4.26628
11
6.29409
21
-4.2617
0
LINE
8
BLACK
6
CONTINUOUS
10
6.29409
20
-4.2617
11
6.29744
21
-4.25791
0
LINE
8
BLACK
6
CONTINUOUS
10
6.29744
20
-4.25791
11
6.30171
21
-4.25521
0
LINE
8
BLACK
6
CONTINUOUS
10
6.30171
20
-4.25521
11
6.30658
21
-4.25382
0
LINE
8
BLACK
6
CONTINUOUS
10
6.30658
20
-4.25382
11
6.31164
21
-4.25385
0
LINE
8
BLACK
6
CONTINUOUS
10
6.29914
20
-4.19135
11
6.30398
21
-4.1928
0
LINE
8
BLACK
6
CONTINUOUS
10
6.30398
20
-4.1928
11
6.30823
21
-4.19555
0
LINE
8
BLACK
6
CONTINUOUS
10
6.30823
20
-4.19555
11
6.31153
21
-4.19939
0
LINE
8
BLACK
6
CONTINUOUS
10
6.31153
20
-4.19939
11
6.31363
21
-4.20399
0
LINE
8
BLACK
6
CONTINUOUS
10
6.31363
20
-4.20399
11
6.31434
21
-4.209
0
LINE
8
BLACK
6
CONTINUOUS
10
6.31434
20
-4.209
11
6.31434
21
-4.20944
0
LINE
8
BLACK
6
CONTINUOUS
10
6.31434
20
-4.20944
11
6.3135
21
-4.21442
0
LINE
8
BLACK
6
CONTINUOUS
10
6.3135
20
-4.21442
11
6.31129
21
-4.21898
0
LINE
8
BLACK
6
CONTINUOUS
10
6.31129
20
-4.21898
11
6.3079
21
-4.22273
0
LINE
8
BLACK
6
CONTINUOUS
10
6.3079
20
-4.22273
11
6.30359
21
-4.22538
0
LINE
8
BLACK
6
CONTINUOUS
10
6.30359
20
-4.22538
11
6.29871
21
-4.22671
0
LINE
8
BLACK
6
CONTINUOUS
10
6.29871
20
-4.22671
11
6.29365
21
-4.22661
0
LINE
8
BLACK
6
CONTINUOUS
10
6.29365
20
-4.22661
11
6.28882
21
-4.2251
0
LINE
8
BLACK
6
CONTINUOUS
10
6.28882
20
-4.2251
11
6.28461
21
-4.2223
0
LINE
8
BLACK
6
CONTINUOUS
10
6.28461
20
-4.2223
11
6.28135
21
-4.21843
0
LINE
8
BLACK
6
CONTINUOUS
10
6.28135
20
-4.21843
11
6.27931
21
-4.2138
0
LINE
8
BLACK
6
CONTINUOUS
10
6.27931
20
-4.2138
11
6.27866
21
-4.20878
0
LINE
8
BLACK
6
CONTINUOUS
10
6.27866
20
-4.20878
11
6.27944
21
-4.20378
0
LINE
8
BLACK
6
CONTINUOUS
10
6.27944
20
-4.20378
11
6.28159
21
-4.1992
0
LINE
8
BLACK
6
CONTINUOUS
10
6.28159
20
-4.1992
11
6.28494
21
-4.19541
0
LINE
8
BLACK
6
CONTINUOUS
10
6.28494
20
-4.19541
11
6.28921
21
-4.19271
0
LINE
8
BLACK
6
CONTINUOUS
10
6.28921
20
-4.19271
11
6.29408
21
-4.19132
0
LINE
8
BLACK
6
CONTINUOUS
10
6.29408
20
-4.19132
11
6.29914
21
-4.19135
0
LINE
8
BLACK
6
CONTINUOUS
10
6.03664
20
-4.17885
11
6.04148
21
-4.1803
0
LINE
8
BLACK
6
CONTINUOUS
10
6.04148
20
-4.1803
11
6.04573
21
-4.18305
0
LINE
8
BLACK
6
CONTINUOUS
10
6.04573
20
-4.18305
11
6.04903
21
-4.18689
0
LINE
8
BLACK
6
CONTINUOUS
10
6.04903
20
-4.18689
11
6.05113
21
-4.19149
0
LINE
8
BLACK
6
CONTINUOUS
10
6.05113
20
-4.19149
11
6.05184
21
-4.1965
0
LINE
8
BLACK
6
CONTINUOUS
10
6.05184
20
-4.1965
11
6.05184
21
-4.19694
0
LINE
8
BLACK
6
CONTINUOUS
10
6.05184
20
-4.19694
11
6.051
21
-4.20192
0
LINE
8
BLACK
6
CONTINUOUS
10
6.051
20
-4.20192
11
6.04879
21
-4.20648
0
LINE
8
BLACK
6
CONTINUOUS
10
6.04879
20
-4.20648
11
6.0454
21
-4.21023
0
LINE
8
BLACK
6
CONTINUOUS
10
6.0454
20
-4.21023
11
6.04109
21
-4.21288
0
LINE
8
BLACK
6
CONTINUOUS
10
6.04109
20
-4.21288
11
6.03621
21
-4.21421
0
LINE
8
BLACK
6
CONTINUOUS
10
6.03621
20
-4.21421
11
6.03115
21
-4.21411
0
LINE
8
BLACK
6
CONTINUOUS
10
6.03115
20
-4.21411
11
6.02632
21
-4.2126
0
LINE
8
BLACK
6
CONTINUOUS
10
6.02632
20
-4.2126
11
6.02211
21
-4.2098
0
LINE
8
BLACK
6
CONTINUOUS
10
6.02211
20
-4.2098
11
6.01885
21
-4.20593
0
LINE
8
BLACK
6
CONTINUOUS
10
6.01885
20
-4.20593
11
6.01681
21
-4.2013
0
LINE
8
BLACK
6
CONTINUOUS
10
6.01681
20
-4.2013
11
6.01616
21
-4.19628
0
LINE
8
BLACK
6
CONTINUOUS
10
6.01616
20
-4.19628
11
6.01694
21
-4.19128
0
LINE
8
BLACK
6
CONTINUOUS
10
6.01694
20
-4.19128
11
6.01909
21
-4.1867
0
LINE
8
BLACK
6
CONTINUOUS
10
6.01909
20
-4.1867
11
6.02244
21
-4.18291
0
LINE
8
BLACK
6
CONTINUOUS
10
6.02244
20
-4.18291
11
6.02671
21
-4.18021
0
LINE
8
BLACK
6
CONTINUOUS
10
6.02671
20
-4.18021
11
6.03158
21
-4.17882
0
LINE
8
BLACK
6
CONTINUOUS
10
6.03158
20
-4.17882
11
6.03664
21
-4.17885
0
LINE
8
BLACK
6
CONTINUOUS
10
5.98664
20
-4.17885
11
5.99148
21
-4.1803
0
LINE
8
BLACK
6
CONTINUOUS
10
5.99148
20
-4.1803
11
5.99573
21
-4.18305
0
LINE
8
BLACK
6
CONTINUOUS
10
5.99573
20
-4.18305
11
5.99903
21
-4.18689
0
LINE
8
BLACK
6
CONTINUOUS
10
5.99903
20
-4.18689
11
6.00113
21
-4.19149
0
LINE
8
BLACK
6
CONTINUOUS
10
6.00113
20
-4.19149
11
6.00184
21
-4.1965
0
LINE
8
BLACK
6
CONTINUOUS
10
6.00184
20
-4.1965
11
6.00184
21
-4.19694
0
LINE
8
BLACK
6
CONTINUOUS
10
6.00184
20
-4.19694
11
6.001
21
-4.20192
0
LINE
8
BLACK
6
CONTINUOUS
10
6.001
20
-4.20192
11
5.99879
21
-4.20648
0
LINE
8
BLACK
6
CONTINUOUS
10
5.99879
20
-4.20648
11
5.9954
21
-4.21023
0
LINE
8
BLACK
6
CONTINUOUS
10
5.9954
20
-4.21023
11
5.99109
21
-4.21288
0
LINE
8
BLACK
6
CONTINUOUS
10
5.99109
20
-4.21288
11
5.98621
21
-4.21421
0
LINE
8
BLACK
6
CONTINUOUS
10
5.98621
20
-4.21421
11
5.98115
21
-4.21411
0
LINE
8
BLACK
6
CONTINUOUS
10
5.98115
20
-4.21411
11
5.97632
21
-4.2126
0
LINE
8
BLACK
6
CONTINUOUS
10
5.97632
20
-4.2126
11
5.97211
21
-4.2098
0
LINE
8
BLACK
6
CONTINUOUS
10
5.97211
20
-4.2098
11
5.96885
21
-4.20593
0
LINE
8
BLACK
6
CONTINUOUS
10
5.96885
20
-4.20593
11
5.96681
21
-4.2013
0
LINE
8
BLACK
6
CONTINUOUS
10
5.96681
20
-4.2013
11
5.96616
21
-4.19628
0
LINE
8
BLACK
6
CONTINUOUS
10
5.96616
20
-4.19628
11
5.96694
21
-4.19128
0
LINE
8
BLACK
6
CONTINUOUS
10
5.96694
20
-4.19128
11
5.96909
21
-4.1867
0
LINE
8
BLACK
6
CONTINUOUS
10
5.96909
20
-4.1867
11
5.97244
21
-4.18291
0
LINE
8
BLACK
6
CONTINUOUS
10
5.97244
20
-4.18291
11
5.97671
21
-4.18021
0
LINE
8
BLACK
6
CONTINUOUS
10
5.97671
20
-4.18021
11
5.98158
21
-4.17882
0
LINE
8
BLACK
6
CONTINUOUS
10
5.98158
20
-4.17882
11
5.98664
21
-4.17885
0
LINE
8
BLACK
6
CONTINUOUS
10
6.02414
20
-4.14135
11
6.02898
21
-4.1428
0
LINE
8
BLACK
6
CONTINUOUS
10
6.02898
20
-4.1428
11
6.03323
21
-4.14555
0
LINE
8
BLACK
6
CONTINUOUS
10
6.03323
20
-4.14555
11
6.03653
21
-4.14939
0
LINE
8
BLACK
6
CONTINUOUS
10
6.03653
20
-4.14939
11
6.03863
21
-4.15399
0
LINE
8
BLACK
6
CONTINUOUS
10
6.03863
20
-4.15399
11
6.03934
21
-4.159
0
LINE
8
BLACK
6
CONTINUOUS
10
6.03934
20
-4.159
11
6.03934
21
-4.15944
0
LINE
8
BLACK
6
CONTINUOUS
10
6.03934
20
-4.15944
11
6.0385
21
-4.16442
0
LINE
8
BLACK
6
CONTINUOUS
10
6.0385
20
-4.16442
11
6.03629
21
-4.16898
0
LINE
8
BLACK
6
CONTINUOUS
10
6.03629
20
-4.16898
11
6.0329
21
-4.17273
0
LINE
8
BLACK
6
CONTINUOUS
10
6.0329
20
-4.17273
11
6.02859
21
-4.17538
0
LINE
8
BLACK
6
CONTINUOUS
10
6.02859
20
-4.17538
11
6.02371
21
-4.17671
0
LINE
8
BLACK
6
CONTINUOUS
10
6.02371
20
-4.17671
11
6.01865
21
-4.17661
0
LINE
8
BLACK
6
CONTINUOUS
10
6.01865
20
-4.17661
11
6.01382
21
-4.1751
0
LINE
8
BLACK
6
CONTINUOUS
10
6.01382
20
-4.1751
11
6.00961
21
-4.1723
0
LINE
8
BLACK
6
CONTINUOUS
10
6.00961
20
-4.1723
11
6.00635
21
-4.16843
0
LINE
8
BLACK
6
CONTINUOUS
10
6.00635
20
-4.16843
11
6.00431
21
-4.1638
0
LINE
8
BLACK
6
CONTINUOUS
10
6.00431
20
-4.1638
11
6.00366
21
-4.15878
0
LINE
8
BLACK
6
CONTINUOUS
10
6.00366
20
-4.15878
11
6.00444
21
-4.15378
0
LINE
8
BLACK
6
CONTINUOUS
10
6.00444
20
-4.15378
11
6.00659
21
-4.1492
0
LINE
8
BLACK
6
CONTINUOUS
10
6.00659
20
-4.1492
11
6.00994
21
-4.14541
0
LINE
8
BLACK
6
CONTINUOUS
10
6.00994
20
-4.14541
11
6.01421
21
-4.14271
0
LINE
8
BLACK
6
CONTINUOUS
10
6.01421
20
-4.14271
11
6.01908
21
-4.14132
0
LINE
8
BLACK
6
CONTINUOUS
10
6.01908
20
-4.14132
11
6.02414
21
-4.14135
0
LINE
8
BLACK
6
CONTINUOUS
10
6.29914
20
-4.07885
11
6.30398
21
-4.0803
0
LINE
8
BLACK
6
CONTINUOUS
10
6.30398
20
-4.0803
11
6.30823
21
-4.08305
0
LINE
8
BLACK
6
CONTINUOUS
10
6.30823
20
-4.08305
11
6.31153
21
-4.08689
0
LINE
8
BLACK
6
CONTINUOUS
10
6.31153
20
-4.08689
11
6.31363
21
-4.09149
0
LINE
8
BLACK
6
CONTINUOUS
10
6.31363
20
-4.09149
11
6.31434
21
-4.0965
0
LINE
8
BLACK
6
CONTINUOUS
10
6.31434
20
-4.0965
11
6.31434
21
-4.09694
0
LINE
8
BLACK
6
CONTINUOUS
10
6.31434
20
-4.09694
11
6.3135
21
-4.10192
0
LINE
8
BLACK
6
CONTINUOUS
10
6.3135
20
-4.10192
11
6.31129
21
-4.10648
0
LINE
8
BLACK
6
CONTINUOUS
10
6.31129
20
-4.10648
11
6.3079
21
-4.11023
0
LINE
8
BLACK
6
CONTINUOUS
10
6.3079
20
-4.11023
11
6.30359
21
-4.11288
0
LINE
8
BLACK
6
CONTINUOUS
10
6.30359
20
-4.11288
11
6.29871
21
-4.11421
0
LINE
8
BLACK
6
CONTINUOUS
10
6.29871
20
-4.11421
11
6.29365
21
-4.11411
0
LINE
8
BLACK
6
CONTINUOUS
10
6.29365
20
-4.11411
11
6.28882
21
-4.1126
0
LINE
8
BLACK
6
CONTINUOUS
10
6.28882
20
-4.1126
11
6.28461
21
-4.1098
0
LINE
8
BLACK
6
CONTINUOUS
10
6.28461
20
-4.1098
11
6.28135
21
-4.10593
0
LINE
8
BLACK
6
CONTINUOUS
10
6.28135
20
-4.10593
11
6.27931
21
-4.1013
0
LINE
8
BLACK
6
CONTINUOUS
10
6.27931
20
-4.1013
11
6.27866
21
-4.09628
0
LINE
8
BLACK
6
CONTINUOUS
10
6.27866
20
-4.09628
11
6.27944
21
-4.09128
0
LINE
8
BLACK
6
CONTINUOUS
10
6.27944
20
-4.09128
11
6.28159
21
-4.0867
0
LINE
8
BLACK
6
CONTINUOUS
10
6.28159
20
-4.0867
11
6.28494
21
-4.08291
0
LINE
8
BLACK
6
CONTINUOUS
10
6.28494
20
-4.08291
11
6.28921
21
-4.08021
0
LINE
8
BLACK
6
CONTINUOUS
10
6.28921
20
-4.08021
11
6.29408
21
-4.07882
0
LINE
8
BLACK
6
CONTINUOUS
10
6.29408
20
-4.07882
11
6.29914
21
-4.07885
0
LINE
8
BLACK
6
CONTINUOUS
10
5.9165
20
-4.7915
11
5.8515
21
-4.7915
0
LINE
8
BLACK
6
CONTINUOUS
10
5.8515
20
-4.7915
11
5.8515
21
-4.7265
0
LINE
8
BLACK
6
CONTINUOUS
10
5.8515
20
-4.7265
11
5.9165
21
-4.7265
0
LINE
8
BLACK
6
CONTINUOUS
10
5.9165
20
-4.7265
11
5.9165
21
-4.7915
0
LINE
8
BLACK
6
CONTINUOUS
10
5.9165
20
-4.6915
11
5.8515
21
-4.6915
0
LINE
8
BLACK
6
CONTINUOUS
10
5.8515
20
-4.6915
11
5.8515
21
-4.6265
0
LINE
8
BLACK
6
CONTINUOUS
10
5.8515
20
-4.6265
11
5.9165
21
-4.6265
0
LINE
8
BLACK
6
CONTINUOUS
10
5.9165
20
-4.6265
11
5.9165
21
-4.6915
0
LINE
8
BLACK
6
CONTINUOUS
10
5.92414
20
-4.19135
11
5.92898
21
-4.1928
0
LINE
8
BLACK
6
CONTINUOUS
10
5.92898
20
-4.1928
11
5.93323
21
-4.19555
0
LINE
8
BLACK
6
CONTINUOUS
10
5.93323
20
-4.19555
11
5.93653
21
-4.19939
0
LINE
8
BLACK
6
CONTINUOUS
10
5.93653
20
-4.19939
11
5.93863
21
-4.20399
0
LINE
8
BLACK
6
CONTINUOUS
10
5.93863
20
-4.20399
11
5.93934
21
-4.209
0
LINE
8
BLACK
6
CONTINUOUS
10
5.93934
20
-4.209
11
5.93934
21
-4.20944
0
LINE
8
BLACK
6
CONTINUOUS
10
5.93934
20
-4.20944
11
5.9385
21
-4.21442
0
LINE
8
BLACK
6
CONTINUOUS
10
5.9385
20
-4.21442
11
5.93629
21
-4.21898
0
LINE
8
BLACK
6
CONTINUOUS
10
5.93629
20
-4.21898
11
5.9329
21
-4.22273
0
LINE
8
BLACK
6
CONTINUOUS
10
5.9329
20
-4.22273
11
5.92859
21
-4.22538
0
LINE
8
BLACK
6
CONTINUOUS
10
5.92859
20
-4.22538
11
5.92371
21
-4.22671
0
LINE
8
BLACK
6
CONTINUOUS
10
5.92371
20
-4.22671
11
5.91865
21
-4.22661
0
LINE
8
BLACK
6
CONTINUOUS
10
5.91865
20
-4.22661
11
5.91382
21
-4.2251
0
LINE
8
BLACK
6
CONTINUOUS
10
5.91382
20
-4.2251
11
5.90961
21
-4.2223
0
LINE
8
BLACK
6
CONTINUOUS
10
5.90961
20
-4.2223
11
5.90635
21
-4.21843
0
LINE
8
BLACK
6
CONTINUOUS
10
5.90635
20
-4.21843
11
5.90431
21
-4.2138
0
LINE
8
BLACK
6
CONTINUOUS
10
5.90431
20
-4.2138
11
5.90366
21
-4.20878
0
LINE
8
BLACK
6
CONTINUOUS
10
5.90366
20
-4.20878
11
5.90444
21
-4.20378
0
LINE
8
BLACK
6
CONTINUOUS
10
5.90444
20
-4.20378
11
5.90659
21
-4.1992
0
LINE
8
BLACK
6
CONTINUOUS
10
5.90659
20
-4.1992
11
5.90994
21
-4.19541
0
LINE
8
BLACK
6
CONTINUOUS
10
5.90994
20
-4.19541
11
5.91421
21
-4.19271
0
LINE
8
BLACK
6
CONTINUOUS
10
5.91421
20
-4.19271
11
5.91908
21
-4.19132
0
LINE
8
BLACK
6
CONTINUOUS
10
5.91908
20
-4.19132
11
5.92414
21
-4.19135
0
LINE
8
BLACK
6
CONTINUOUS
10
5.529
20
-4.104
11
5.464
21
-4.104
0
LINE
8
BLACK
6
CONTINUOUS
10
5.464
20
-4.104
11
5.464
21
-4.039
0
LINE
8
BLACK
6
CONTINUOUS
10
5.464
20
-4.039
11
5.529
21
-4.039
0
LINE
8
BLACK
6
CONTINUOUS
10
5.529
20
-4.039
11
5.529
21
-4.104
0
LINE
8
BLACK
6
CONTINUOUS
10
5.9665
20
-3.829
11
5.9015
21
-3.829
0
LINE
8
BLACK
6
CONTINUOUS
10
5.9015
20
-3.829
11
5.9015
21
-3.764
0
LINE
8
BLACK
6
CONTINUOUS
10
5.9015
20
-3.764
11
5.9665
21
-3.764
0
LINE
8
BLACK
6
CONTINUOUS
10
5.9665
20
-3.764
11
5.9665
21
-3.829
0
LINE
8
BLACK
6
CONTINUOUS
10
5.9665
20
-3.729
11
5.9015
21
-3.729
0
LINE
8
BLACK
6
CONTINUOUS
10
5.9015
20
-3.729
11
5.9015
21
-3.664
0
LINE
8
BLACK
6
CONTINUOUS
10
5.9015
20
-3.664
11
5.9665
21
-3.664
0
LINE
8
BLACK
6
CONTINUOUS
10
5.9665
20
-3.664
11
5.9665
21
-3.729
0
LINE
8
BLACK
6
CONTINUOUS
10
5.9665
20
-3.629
11
5.9015
21
-3.629
0
LINE
8
BLACK
6
CONTINUOUS
10
5.9015
20
-3.629
11
5.9015
21
-3.564
0
LINE
8
BLACK
6
CONTINUOUS
10
5.9015
20
-3.564
11
5.9665
21
-3.564
0
LINE
8
BLACK
6
CONTINUOUS
10
5.9665
20
-3.564
11
5.9665
21
-3.629
0
LINE
8
BLACK
6
CONTINUOUS
10
5.9665
20
-3.529
11
5.9015
21
-3.529
0
LINE
8
BLACK
6
CONTINUOUS
10
5.9015
20
-3.529
11
5.9015
21
-3.464
0
LINE
8
BLACK
6
CONTINUOUS
10
5.9015
20
-3.464
11
5.9665
21
-3.464
0
LINE
8
BLACK
6
CONTINUOUS
10
5.9665
20
-3.464
11
5.9665
21
-3.529
0
CIRCLE
8
BLACK
10
6.009
20
-3.3965
40
0.00984252
0
CIRCLE
8
BLACK
10
6.184
20
-4.1965
40
0.00984252
0
CIRCLE
8
BLACK
10
6.109
20
-4.6465
40
0.00984252
0
CIRCLE
8
BLACK
10
5.709
20
-3.9465
40
0.00984252
0
CIRCLE
8
BLACK
10
6.209
20
-4.484
40
0.00984252
0
CIRCLE
8
BLACK
10
6.109
20
-4.5465
40
0.00984252
0
CIRCLE
8
BLACK
10
5.7715
20
-3.6965
40
0.00984252
0
CIRCLE
8
BLACK
10
5.5715
20
-4.8215
40
0.00984252
0
CIRCLE
8
BLACK
10
6.0965
20
-3.559
40
0.00984252
0
CIRCLE
8
BLACK
10
5.7215
20
-4.8465
40
0.00984252
0
CIRCLE
8
BLACK
10
6.2465
20
-3.8465
40
0.00984252
0
CIRCLE
8
BLACK
10
6.309
20
-4.459
40
0.00984252
0
CIRCLE
8
BLACK
10
6.3215
20
-3.984
40
0.00984252
0
CIRCLE
8
BLACK
10
6.109
20
-4.5965
40
0.00984252
0
CIRCLE
8
BLACK
10
5.7715
20
-3.7465
40
0.00984252
0
CIRCLE
8
BLACK
10
5.984
20
-4.4215
40
0.00984252
0
CIRCLE
8
BLACK
10
5.6715
20
-4.859
40
0.00984252
0
CIRCLE
8
BLACK
10
6.0965
20
-3.459
40
0.00984252
0
CIRCLE
8
BLACK
10
6.2715
20
-3.884
40
0.00984252
0
CIRCLE
8
BLACK
10
5.7715
20
-3.5965
40
0.00984252
0
CIRCLE
8
BLACK
10
5.7715
20
-3.5465
40
0.00984252
0
CIRCLE
8
BLACK
10
6.3215
20
-3.934
40
0.00984252
0
CIRCLE
8
BLACK
10
5.909
20
-3.3965
40
0.00984252
0
CIRCLE
8
BLACK
10
5.734
20
-4.184
40
0.00984252
0
CIRCLE
8
BLACK
10
6.159
20
-4.1215
40
0.00984252
0
CIRCLE
8
BLACK
10
6.109
20
-4.809
40
0.00984252
0
CIRCLE
8
BLACK
10
5.5965
20
-3.6965
40
0.00984252
0
CIRCLE
8
BLACK
10
5.8715
20
-4.8465
40
0.00984252
0
CIRCLE
8
BLACK
10
6.134
20
-4.1965
40
0.00984252
0
CIRCLE
8
BLACK
10
5.7715
20
-3.6465
40
0.00984252
0
CIRCLE
8
BLACK
10
6.0965
20
-3.609
40
0.00984252
0
CIRCLE
8
BLACK
10
6.309
20
-3.7215
40
0.00984252
0
CIRCLE
8
BLACK
10
6.0965
20
-3.659
40
0.00984252
0
CIRCLE
8
BLACK
10
6.259
20
-4.1215
40
0.00984252
0
CIRCLE
8
BLACK
10
6.059
20
-3.4215
40
0.00984252
0
CIRCLE
8
BLACK
10
5.7715
20
-3.4965
40
0.00984252
0
CIRCLE
8
BLACK
10
5.934
20
-4.8465
40
0.00984252
0
CIRCLE
8
BLACK
10
5.709
20
-3.9965
40
0.00984252
0
CIRCLE
8
BLACK
10
5.834
20
-3.984
40
0.00984252
0
CIRCLE
8
BLACK
10
6.309
20
-4.3965
40
0.00984252
0
CIRCLE
8
BLACK
10
6.159
20
-4.484
40
0.00984252
0
CIRCLE
8
BLACK
10
6.084
20
-4.8465
40
0.00984252
0
CIRCLE
8
BLACK
10
5.6215
20
-4.8465
40
0.00984252
0
CIRCLE
8
BLACK
10
5.5465
20
-4.259
40
0.00984252
0
CIRCLE
8
BLACK
10
5.5965
20
-3.6465
40
0.00984252
0
CIRCLE
8
BLACK
10
6.034
20
-4.8465
40
0.00984252
0
CIRCLE
8
BLACK
10
5.4715
20
-4.259
40
0.00984252
0
CIRCLE
8
BLACK
10
5.859
20
-3.3965
40
0.00984252
0
CIRCLE
8
BLACK
10
6.084
20
-4.1965
40
0.00984252
0
CIRCLE
8
BLACK
10
6.0215
20
-3.9215
40
0.00984252
0
CIRCLE
8
BLACK
10
6.2465
20
-3.784
40
0.00984252
0
CIRCLE
8
BLACK
10
6.259
20
-3.7215
40
0.00984252
0
CIRCLE
8
BLACK
10
6.209
20
-4.1215
40
0.00984252
0
CIRCLE
8
BLACK
10
5.7715
20
-3.7965
40
0.00984252
0
CIRCLE
8
BLACK
10
6.309
20
-4.334
40
0.00984252
0
CIRCLE
8
BLACK
10
5.984
20
-4.8465
40
0.00984252
0
CIRCLE
8
BLACK
10
5.7715
20
-4.8465
40
0.00984252
0
CIRCLE
8
BLACK
10
5.8465
20
-3.9465
40
0.00984252
0
CIRCLE
8
BLACK
10
5.959
20
-3.3965
40
0.00984252
0
CIRCLE
8
BLACK
10
6.109
20
-4.1215
40
0.00984252
0
CIRCLE
8
BLACK
10
6.0965
20
-3.509
40
0.00984252
0
CIRCLE
8
BLACK
10
6.059
20
-4.1215
40
0.00984252
0
CIRCLE
8
BLACK
10
6.234
20
-4.1965
40
0.00984252
0
CIRCLE
8
BLACK
10
5.7715
20
-3.434
40
0.00984252
0
CIRCLE
8
BLACK
10
6.259
20
-4.484
40
0.00984252
0
CIRCLE
8
BLACK
10
6.109
20
-4.4965
40
0.00984252
0
CIRCLE
8
BLACK
10
5.8215
20
-3.4215
40
0.00984252
0
CIRCLE
8
BLACK
10
6.3215
20
-4.0465
40
0.00984252
0
CIRCLE
8
BLACK
10
5.8215
20
-4.8465
40
0.00984252
0
CIRCLE
8
BLACK
10
5.984
20
-4.1965
40
0.00984252
0
CIRCLE
8
BLACK
10
5.9215
20
-4.209
40
0.00984252
0
CIRCLE
8
BLACK
10
6.034
20
-4.1965
40
0.00984252
0
CIRCLE
8
BLACK
10
6.0215
20
-4.159
40
0.00984252
0
CIRCLE
8
BLACK
10
6.309
20
-4.2715
40
0.00984252
0
CIRCLE
8
BLACK
10
6.2965
20
-4.0965
40
0.00984252
0
CIRCLE
8
BLACK
10
6.2965
20
-4.209
40
0.00984252
0
CIRCLE
8
BLACK
10
5.759
20
-4.0715
40
0.00787402
  0
ENDSEC
  0
EOF
