  0
SECTION
  2
HEADER
  9
$ANGBASE
  50
0.0
  9
$ANGDIR
  70
1
  9
$MEASUREMENT
  70
0
  0
ENDSEC
  0
SECTION
  2
TABLES
  0
TABLE
  2
LTYPE
  70
4
  0
LTYPE
  5
40F
  2
CONTINUOUS
  70
0
  3
Solid line
  72
65
  73
0
  40
0.0
  0
LTYPE
  5
410
  2
DASHDOT
 70
0
  3
Dash Dot ____ _ ____ _
 72
65
 73
4
 40
2.0
 49
1.25
 49
-0.25
 49
0.25
 49
-0.25
  0
LTYPE
  5
411
  2
DASHED
 70
0
  3
Dashed __ __ __ __ __
 72
65
 73
2
 40
0.75
 49
0.5
 49
-0.25
  0
LTYPE
  5
43B
  2
DOTTED
 70
0
  3
Dotted .  .  .  .
 72
65
 73
2
 40
0.2
 49
0.0
 49
-0.2
  0
ENDTAB
  0
TABLE
  2
STYLE
  70
4
  0
STYLE
  2
KICAD
  70
0
  40
0
  41
1
  42
1
  50
0
  71
0
  3
isocp.shx
  0
STYLE
  2
KICADB
  70
0
  40
0
  41
1
  42
1
  50
0
  71
0
  3
isocp.shx
  0
STYLE
  2
KICADI
  70
0
  40
0
  41
1
  42
1
  50
15
  71
0
  3
isocp.shx
  0
STYLE
  2
KICADBI
  70
0
  40
0
  41
1
  42
1
  50
15
  71
0
  3
isocp.shx
  0
ENDTAB
  0
TABLE
  2
LAYER
  70
1
  0
LAYER
  2
BLACK
  70
0
  62
7
  6
CONTINUOUS
  0
ENDTAB
  0
ENDSEC
  0
SECTION
  2
ENTITIES
0
LINE
8
BLACK
6
CONTINUOUS
10
5.70693
20
-4.84945
11
5.63607
21
-4.84945
0
LINE
8
BLACK
6
CONTINUOUS
10
5.63607
20
-4.84945
11
5.63607
21
-4.75103
0
LINE
8
BLACK
6
CONTINUOUS
10
5.63607
20
-4.75103
11
5.70693
21
-4.75103
0
LINE
8
BLACK
6
CONTINUOUS
10
5.70693
20
-4.75103
11
5.70693
21
-4.84945
0
LINE
8
BLACK
6
CONTINUOUS
10
5.70693
20
-4.69197
11
5.63607
21
-4.69197
0
LINE
8
BLACK
6
CONTINUOUS
10
5.63607
20
-4.69197
11
5.63607
21
-4.59355
0
LINE
8
BLACK
6
CONTINUOUS
10
5.63607
20
-4.59355
11
5.70693
21
-4.59355
0
LINE
8
BLACK
6
CONTINUOUS
10
5.70693
20
-4.59355
11
5.70693
21
-4.69197
0
LINE
8
BLACK
6
CONTINUOUS
10
5.56063
20
-4.58693
11
5.48583
21
-4.58693
0
LINE
8
BLACK
6
CONTINUOUS
10
5.48583
20
-4.58693
11
5.48583
21
-4.45307
0
LINE
8
BLACK
6
CONTINUOUS
10
5.48583
20
-4.45307
11
5.56063
21
-4.45307
0
LINE
8
BLACK
6
CONTINUOUS
10
5.56063
20
-4.45307
11
5.56063
21
-4.58693
0
LINE
8
BLACK
6
CONTINUOUS
10
5.71417
20
-4.58693
11
5.63937
21
-4.58693
0
LINE
8
BLACK
6
CONTINUOUS
10
5.63937
20
-4.58693
11
5.63937
21
-4.45307
0
LINE
8
BLACK
6
CONTINUOUS
10
5.63937
20
-4.45307
11
5.71417
21
-4.45307
0
LINE
8
BLACK
6
CONTINUOUS
10
5.71417
20
-4.45307
11
5.71417
21
-4.58693
0
LINE
8
BLACK
6
CONTINUOUS
10
6.27977
20
-4.43991
11
6.06323
21
-4.43991
0
LINE
8
BLACK
6
CONTINUOUS
10
6.06323
20
-4.43991
11
6.06323
21
-4.3218
0
LINE
8
BLACK
6
CONTINUOUS
10
6.06323
20
-4.3218
11
6.27977
21
-4.3218
0
LINE
8
BLACK
6
CONTINUOUS
10
6.27977
20
-4.3218
11
6.27977
21
-4.43991
0
LINE
8
BLACK
6
CONTINUOUS
10
5.5582
20
-4.4336
11
5.4598
21
-4.4336
0
LINE
8
BLACK
6
CONTINUOUS
10
5.4598
20
-4.4336
11
5.4598
21
-4.3332
0
LINE
8
BLACK
6
CONTINUOUS
10
5.4598
20
-4.3332
11
5.5582
21
-4.3332
0
LINE
8
BLACK
6
CONTINUOUS
10
5.5582
20
-4.3332
11
5.5582
21
-4.4336
0
LINE
8
BLACK
6
CONTINUOUS
10
5.91001
20
-4.36871
11
5.9132
21
-4.37084
0
LINE
8
BLACK
6
CONTINUOUS
10
5.9132
20
-4.37084
11
5.91534
21
-4.37403
0
LINE
8
BLACK
6
CONTINUOUS
10
5.91534
20
-4.37403
11
5.91609
21
-4.3778
0
LINE
8
BLACK
6
CONTINUOUS
10
5.91609
20
-4.3778
11
5.91609
21
-4.4152
0
LINE
8
BLACK
6
CONTINUOUS
10
5.91609
20
-4.4152
11
5.91534
21
-4.41897
0
LINE
8
BLACK
6
CONTINUOUS
10
5.91534
20
-4.41897
11
5.9132
21
-4.42216
0
LINE
8
BLACK
6
CONTINUOUS
10
5.9132
20
-4.42216
11
5.91001
21
-4.42429
0
LINE
8
BLACK
6
CONTINUOUS
10
5.91001
20
-4.42429
11
5.90624
21
-4.42504
0
LINE
8
BLACK
6
CONTINUOUS
10
5.90624
20
-4.42504
11
5.88656
21
-4.42504
0
LINE
8
BLACK
6
CONTINUOUS
10
5.88656
20
-4.42504
11
5.88279
21
-4.42429
0
LINE
8
BLACK
6
CONTINUOUS
10
5.88279
20
-4.42429
11
5.8796
21
-4.42216
0
LINE
8
BLACK
6
CONTINUOUS
10
5.8796
20
-4.42216
11
5.87747
21
-4.41897
0
LINE
8
BLACK
6
CONTINUOUS
10
5.87747
20
-4.41897
11
5.87672
21
-4.4152
0
LINE
8
BLACK
6
CONTINUOUS
10
5.87672
20
-4.4152
11
5.87672
21
-4.3778
0
LINE
8
BLACK
6
CONTINUOUS
10
5.87672
20
-4.3778
11
5.87747
21
-4.37403
0
LINE
8
BLACK
6
CONTINUOUS
10
5.87747
20
-4.37403
11
5.8796
21
-4.37084
0
LINE
8
BLACK
6
CONTINUOUS
10
5.8796
20
-4.37084
11
5.88279
21
-4.36871
0
LINE
8
BLACK
6
CONTINUOUS
10
5.88279
20
-4.36871
11
5.88656
21
-4.36796
0
LINE
8
BLACK
6
CONTINUOUS
10
5.88656
20
-4.36796
11
5.90624
21
-4.36796
0
LINE
8
BLACK
6
CONTINUOUS
10
5.90624
20
-4.36796
11
5.91001
21
-4.36871
0
LINE
8
BLACK
6
CONTINUOUS
10
5.83521
20
-4.36871
11
5.8384
21
-4.37084
0
LINE
8
BLACK
6
CONTINUOUS
10
5.8384
20
-4.37084
11
5.84053
21
-4.37403
0
LINE
8
BLACK
6
CONTINUOUS
10
5.84053
20
-4.37403
11
5.84128
21
-4.3778
0
LINE
8
BLACK
6
CONTINUOUS
10
5.84128
20
-4.3778
11
5.84128
21
-4.4152
0
LINE
8
BLACK
6
CONTINUOUS
10
5.84128
20
-4.4152
11
5.84053
21
-4.41897
0
LINE
8
BLACK
6
CONTINUOUS
10
5.84053
20
-4.41897
11
5.8384
21
-4.42216
0
LINE
8
BLACK
6
CONTINUOUS
10
5.8384
20
-4.42216
11
5.83521
21
-4.42429
0
LINE
8
BLACK
6
CONTINUOUS
10
5.83521
20
-4.42429
11
5.83144
21
-4.42504
0
LINE
8
BLACK
6
CONTINUOUS
10
5.83144
20
-4.42504
11
5.81176
21
-4.42504
0
LINE
8
BLACK
6
CONTINUOUS
10
5.81176
20
-4.42504
11
5.80799
21
-4.42429
0
LINE
8
BLACK
6
CONTINUOUS
10
5.80799
20
-4.42429
11
5.8048
21
-4.42216
0
LINE
8
BLACK
6
CONTINUOUS
10
5.8048
20
-4.42216
11
5.80266
21
-4.41897
0
LINE
8
BLACK
6
CONTINUOUS
10
5.80266
20
-4.41897
11
5.80191
21
-4.4152
0
LINE
8
BLACK
6
CONTINUOUS
10
5.80191
20
-4.4152
11
5.80191
21
-4.3778
0
LINE
8
BLACK
6
CONTINUOUS
10
5.80191
20
-4.3778
11
5.80266
21
-4.37403
0
LINE
8
BLACK
6
CONTINUOUS
10
5.80266
20
-4.37403
11
5.8048
21
-4.37084
0
LINE
8
BLACK
6
CONTINUOUS
10
5.8048
20
-4.37084
11
5.80799
21
-4.36871
0
LINE
8
BLACK
6
CONTINUOUS
10
5.80799
20
-4.36871
11
5.81176
21
-4.36796
0
LINE
8
BLACK
6
CONTINUOUS
10
5.81176
20
-4.36796
11
5.83144
21
-4.36796
0
LINE
8
BLACK
6
CONTINUOUS
10
5.83144
20
-4.36796
11
5.83521
21
-4.36871
0
LINE
8
BLACK
6
CONTINUOUS
10
5.85634
20
-4.28282
11
5.85634
21
-4.25585
0
LINE
8
BLACK
6
CONTINUOUS
10
5.85634
20
-4.25585
11
5.85669
21
-4.25412
0
LINE
8
BLACK
6
CONTINUOUS
10
5.85669
20
-4.25412
11
5.85767
21
-4.25265
0
LINE
8
BLACK
6
CONTINUOUS
10
5.85767
20
-4.25265
11
5.85914
21
-4.25167
0
LINE
8
BLACK
6
CONTINUOUS
10
5.85914
20
-4.25167
11
5.86087
21
-4.25132
0
LINE
8
BLACK
6
CONTINUOUS
10
5.86087
20
-4.25132
11
5.8626
21
-4.25167
0
LINE
8
BLACK
6
CONTINUOUS
10
5.8626
20
-4.25167
11
5.86407
21
-4.25265
0
LINE
8
BLACK
6
CONTINUOUS
10
5.86407
20
-4.25265
11
5.86505
21
-4.25412
0
LINE
8
BLACK
6
CONTINUOUS
10
5.86505
20
-4.25412
11
5.8654
21
-4.25585
0
LINE
8
BLACK
6
CONTINUOUS
10
5.8654
20
-4.25585
11
5.8654
21
-4.28282
0
LINE
8
BLACK
6
CONTINUOUS
10
5.8654
20
-4.28282
11
5.85634
21
-4.28282
0
LINE
8
BLACK
6
CONTINUOUS
10
5.83666
20
-4.28282
11
5.83666
21
-4.25585
0
LINE
8
BLACK
6
CONTINUOUS
10
5.83666
20
-4.25585
11
5.837
21
-4.25412
0
LINE
8
BLACK
6
CONTINUOUS
10
5.837
20
-4.25412
11
5.83798
21
-4.25265
0
LINE
8
BLACK
6
CONTINUOUS
10
5.83798
20
-4.25265
11
5.83945
21
-4.25167
0
LINE
8
BLACK
6
CONTINUOUS
10
5.83945
20
-4.25167
11
5.84119
21
-4.25132
0
LINE
8
BLACK
6
CONTINUOUS
10
5.84119
20
-4.25132
11
5.84292
21
-4.25167
0
LINE
8
BLACK
6
CONTINUOUS
10
5.84292
20
-4.25167
11
5.84439
21
-4.25265
0
LINE
8
BLACK
6
CONTINUOUS
10
5.84439
20
-4.25265
11
5.84537
21
-4.25412
0
LINE
8
BLACK
6
CONTINUOUS
10
5.84537
20
-4.25412
11
5.84571
21
-4.25585
0
LINE
8
BLACK
6
CONTINUOUS
10
5.84571
20
-4.25585
11
5.84571
21
-4.28282
0
LINE
8
BLACK
6
CONTINUOUS
10
5.84571
20
-4.28282
11
5.83666
21
-4.28282
0
LINE
8
BLACK
6
CONTINUOUS
10
5.81697
20
-4.28282
11
5.81697
21
-4.25585
0
LINE
8
BLACK
6
CONTINUOUS
10
5.81697
20
-4.25585
11
5.81732
21
-4.25412
0
LINE
8
BLACK
6
CONTINUOUS
10
5.81732
20
-4.25412
11
5.8183
21
-4.25265
0
LINE
8
BLACK
6
CONTINUOUS
10
5.8183
20
-4.25265
11
5.81977
21
-4.25167
0
LINE
8
BLACK
6
CONTINUOUS
10
5.81977
20
-4.25167
11
5.8215
21
-4.25132
0
LINE
8
BLACK
6
CONTINUOUS
10
5.8215
20
-4.25132
11
5.82323
21
-4.25167
0
LINE
8
BLACK
6
CONTINUOUS
10
5.82323
20
-4.25167
11
5.8247
21
-4.25265
0
LINE
8
BLACK
6
CONTINUOUS
10
5.8247
20
-4.25265
11
5.82568
21
-4.25412
0
LINE
8
BLACK
6
CONTINUOUS
10
5.82568
20
-4.25412
11
5.82603
21
-4.25585
0
LINE
8
BLACK
6
CONTINUOUS
10
5.82603
20
-4.25585
11
5.82603
21
-4.28282
0
LINE
8
BLACK
6
CONTINUOUS
10
5.82603
20
-4.28282
11
5.81697
21
-4.28282
0
LINE
8
BLACK
6
CONTINUOUS
10
5.79729
20
-4.28282
11
5.79729
21
-4.25585
0
LINE
8
BLACK
6
CONTINUOUS
10
5.79729
20
-4.25585
11
5.79763
21
-4.25412
0
LINE
8
BLACK
6
CONTINUOUS
10
5.79763
20
-4.25412
11
5.79861
21
-4.25265
0
LINE
8
BLACK
6
CONTINUOUS
10
5.79861
20
-4.25265
11
5.80008
21
-4.25167
0
LINE
8
BLACK
6
CONTINUOUS
10
5.80008
20
-4.25167
11
5.80181
21
-4.25132
0
LINE
8
BLACK
6
CONTINUOUS
10
5.80181
20
-4.25132
11
5.80355
21
-4.25167
0
LINE
8
BLACK
6
CONTINUOUS
10
5.80355
20
-4.25167
11
5.80502
21
-4.25265
0
LINE
8
BLACK
6
CONTINUOUS
10
5.80502
20
-4.25265
11
5.806
21
-4.25412
0
LINE
8
BLACK
6
CONTINUOUS
10
5.806
20
-4.25412
11
5.80634
21
-4.25585
0
LINE
8
BLACK
6
CONTINUOUS
10
5.80634
20
-4.25585
11
5.80634
21
-4.28282
0
LINE
8
BLACK
6
CONTINUOUS
10
5.80634
20
-4.28282
11
5.79729
21
-4.28282
0
LINE
8
BLACK
6
CONTINUOUS
10
5.7776
20
-4.28282
11
5.7776
21
-4.25585
0
LINE
8
BLACK
6
CONTINUOUS
10
5.7776
20
-4.25585
11
5.77795
21
-4.25412
0
LINE
8
BLACK
6
CONTINUOUS
10
5.77795
20
-4.25412
11
5.77893
21
-4.25265
0
LINE
8
BLACK
6
CONTINUOUS
10
5.77893
20
-4.25265
11
5.7804
21
-4.25167
0
LINE
8
BLACK
6
CONTINUOUS
10
5.7804
20
-4.25167
11
5.78213
21
-4.25132
0
LINE
8
BLACK
6
CONTINUOUS
10
5.78213
20
-4.25132
11
5.78386
21
-4.25167
0
LINE
8
BLACK
6
CONTINUOUS
10
5.78386
20
-4.25167
11
5.78533
21
-4.25265
0
LINE
8
BLACK
6
CONTINUOUS
10
5.78533
20
-4.25265
11
5.78631
21
-4.25412
0
LINE
8
BLACK
6
CONTINUOUS
10
5.78631
20
-4.25412
11
5.78666
21
-4.25585
0
LINE
8
BLACK
6
CONTINUOUS
10
5.78666
20
-4.25585
11
5.78666
21
-4.28282
0
LINE
8
BLACK
6
CONTINUOUS
10
5.78666
20
-4.28282
11
5.7776
21
-4.28282
0
LINE
8
BLACK
6
CONTINUOUS
10
5.44237
20
-4.24109
11
5.38725
21
-4.24109
0
LINE
8
BLACK
6
CONTINUOUS
10
5.38725
20
-4.24109
11
5.38725
21
-4.20172
0
LINE
8
BLACK
6
CONTINUOUS
10
5.38725
20
-4.20172
11
5.44237
21
-4.20172
0
LINE
8
BLACK
6
CONTINUOUS
10
5.44237
20
-4.20172
11
5.44237
21
-4.24109
0
LINE
8
BLACK
6
CONTINUOUS
10
5.81717
20
-4.23892
11
5.78174
21
-4.23892
0
LINE
8
BLACK
6
CONTINUOUS
10
5.78174
20
-4.23892
11
5.78174
21
-4.21333
0
LINE
8
BLACK
6
CONTINUOUS
10
5.78174
20
-4.21333
11
5.81717
21
-4.21333
0
LINE
8
BLACK
6
CONTINUOUS
10
5.81717
20
-4.21333
11
5.81717
21
-4.23892
0
LINE
8
BLACK
6
CONTINUOUS
10
5.86126
20
-4.23892
11
5.82583
21
-4.23892
0
LINE
8
BLACK
6
CONTINUOUS
10
5.82583
20
-4.23892
11
5.82583
21
-4.21333
0
LINE
8
BLACK
6
CONTINUOUS
10
5.82583
20
-4.21333
11
5.86126
21
-4.21333
0
LINE
8
BLACK
6
CONTINUOUS
10
5.86126
20
-4.21333
11
5.86126
21
-4.23892
0
LINE
8
BLACK
6
CONTINUOUS
10
5.75359
20
-4.23715
11
5.75359
21
-4.22809
0
LINE
8
BLACK
6
CONTINUOUS
10
5.75359
20
-4.22809
11
5.77721
21
-4.22809
0
LINE
8
BLACK
6
CONTINUOUS
10
5.77721
20
-4.22809
11
5.77721
21
-4.23715
0
LINE
8
BLACK
6
CONTINUOUS
10
5.77721
20
-4.23715
11
5.75359
21
-4.23715
0
LINE
8
BLACK
6
CONTINUOUS
10
5.86579
20
-4.23715
11
5.86579
21
-4.22809
0
LINE
8
BLACK
6
CONTINUOUS
10
5.86579
20
-4.22809
11
5.88941
21
-4.22809
0
LINE
8
BLACK
6
CONTINUOUS
10
5.88941
20
-4.22809
11
5.88941
21
-4.23715
0
LINE
8
BLACK
6
CONTINUOUS
10
5.88941
20
-4.23715
11
5.86579
21
-4.23715
0
LINE
8
BLACK
6
CONTINUOUS
10
5.5582
20
-4.2348
11
5.4598
21
-4.2348
0
LINE
8
BLACK
6
CONTINUOUS
10
5.4598
20
-4.2348
11
5.4598
21
-4.1344
0
LINE
8
BLACK
6
CONTINUOUS
10
5.4598
20
-4.1344
11
5.5582
21
-4.1344
0
LINE
8
BLACK
6
CONTINUOUS
10
5.5582
20
-4.1344
11
5.5582
21
-4.2348
0
LINE
8
BLACK
6
CONTINUOUS
10
5.75359
20
-4.2214
11
5.75359
21
-4.21235
0
LINE
8
BLACK
6
CONTINUOUS
10
5.75359
20
-4.21235
11
5.77721
21
-4.21235
0
LINE
8
BLACK
6
CONTINUOUS
10
5.77721
20
-4.21235
11
5.77721
21
-4.2214
0
LINE
8
BLACK
6
CONTINUOUS
10
5.77721
20
-4.2214
11
5.75359
21
-4.2214
0
LINE
8
BLACK
6
CONTINUOUS
10
5.86579
20
-4.2214
11
5.86579
21
-4.21235
0
LINE
8
BLACK
6
CONTINUOUS
10
5.86579
20
-4.21235
11
5.88941
21
-4.21235
0
LINE
8
BLACK
6
CONTINUOUS
10
5.88941
20
-4.21235
11
5.88941
21
-4.2214
0
LINE
8
BLACK
6
CONTINUOUS
10
5.88941
20
-4.2214
11
5.86579
21
-4.2214
0
LINE
8
BLACK
6
CONTINUOUS
10
5.86579
20
-4.20565
11
5.86579
21
-4.1966
0
LINE
8
BLACK
6
CONTINUOUS
10
5.86579
20
-4.1966
11
5.88941
21
-4.1966
0
LINE
8
BLACK
6
CONTINUOUS
10
5.88941
20
-4.1966
11
5.88941
21
-4.20565
0
LINE
8
BLACK
6
CONTINUOUS
10
5.88941
20
-4.20565
11
5.86579
21
-4.20565
0
LINE
8
BLACK
6
CONTINUOUS
10
5.75359
20
-4.20565
11
5.75359
21
-4.1966
0
LINE
8
BLACK
6
CONTINUOUS
10
5.75359
20
-4.1966
11
5.77721
21
-4.1966
0
LINE
8
BLACK
6
CONTINUOUS
10
5.77721
20
-4.1966
11
5.77721
21
-4.20565
0
LINE
8
BLACK
6
CONTINUOUS
10
5.77721
20
-4.20565
11
5.75359
21
-4.20565
0
LINE
8
BLACK
6
CONTINUOUS
10
5.81717
20
-4.20467
11
5.78174
21
-4.20467
0
LINE
8
BLACK
6
CONTINUOUS
10
5.78174
20
-4.20467
11
5.78174
21
-4.17908
0
LINE
8
BLACK
6
CONTINUOUS
10
5.78174
20
-4.17908
11
5.81717
21
-4.17908
0
LINE
8
BLACK
6
CONTINUOUS
10
5.81717
20
-4.17908
11
5.81717
21
-4.20467
0
LINE
8
BLACK
6
CONTINUOUS
10
5.86126
20
-4.20467
11
5.82583
21
-4.20467
0
LINE
8
BLACK
6
CONTINUOUS
10
5.82583
20
-4.20467
11
5.82583
21
-4.17908
0
LINE
8
BLACK
6
CONTINUOUS
10
5.82583
20
-4.17908
11
5.86126
21
-4.17908
0
LINE
8
BLACK
6
CONTINUOUS
10
5.86126
20
-4.17908
11
5.86126
21
-4.20467
0
LINE
8
BLACK
6
CONTINUOUS
10
5.35575
20
-4.20369
11
5.30063
21
-4.20369
0
LINE
8
BLACK
6
CONTINUOUS
10
5.30063
20
-4.20369
11
5.30063
21
-4.16431
0
LINE
8
BLACK
6
CONTINUOUS
10
5.30063
20
-4.16431
11
5.35575
21
-4.16431
0
LINE
8
BLACK
6
CONTINUOUS
10
5.35575
20
-4.16431
11
5.35575
21
-4.20369
0
LINE
8
BLACK
6
CONTINUOUS
10
5.86579
20
-4.18991
11
5.86579
21
-4.18085
0
LINE
8
BLACK
6
CONTINUOUS
10
5.86579
20
-4.18085
11
5.88941
21
-4.18085
0
LINE
8
BLACK
6
CONTINUOUS
10
5.88941
20
-4.18085
11
5.88941
21
-4.18991
0
LINE
8
BLACK
6
CONTINUOUS
10
5.88941
20
-4.18991
11
5.86579
21
-4.18991
0
LINE
8
BLACK
6
CONTINUOUS
10
5.75359
20
-4.18991
11
5.75359
21
-4.18085
0
LINE
8
BLACK
6
CONTINUOUS
10
5.75359
20
-4.18085
11
5.77721
21
-4.18085
0
LINE
8
BLACK
6
CONTINUOUS
10
5.77721
20
-4.18085
11
5.77721
21
-4.18991
0
LINE
8
BLACK
6
CONTINUOUS
10
5.77721
20
-4.18991
11
5.75359
21
-4.18991
0
LINE
8
BLACK
6
CONTINUOUS
10
5.84537
20
-4.16388
11
5.84439
21
-4.16535
0
LINE
8
BLACK
6
CONTINUOUS
10
5.84439
20
-4.16535
11
5.84292
21
-4.16633
0
LINE
8
BLACK
6
CONTINUOUS
10
5.84292
20
-4.16633
11
5.84119
21
-4.16668
0
LINE
8
BLACK
6
CONTINUOUS
10
5.84119
20
-4.16668
11
5.83945
21
-4.16633
0
LINE
8
BLACK
6
CONTINUOUS
10
5.83945
20
-4.16633
11
5.83798
21
-4.16535
0
LINE
8
BLACK
6
CONTINUOUS
10
5.83798
20
-4.16535
11
5.837
21
-4.16388
0
LINE
8
BLACK
6
CONTINUOUS
10
5.837
20
-4.16388
11
5.83666
21
-4.16215
0
LINE
8
BLACK
6
CONTINUOUS
10
5.83666
20
-4.16215
11
5.83666
21
-4.13518
0
LINE
8
BLACK
6
CONTINUOUS
10
5.83666
20
-4.13518
11
5.84571
21
-4.13518
0
LINE
8
BLACK
6
CONTINUOUS
10
5.84571
20
-4.13518
11
5.84571
21
-4.16215
0
LINE
8
BLACK
6
CONTINUOUS
10
5.84571
20
-4.16215
11
5.84537
21
-4.16388
0
LINE
8
BLACK
6
CONTINUOUS
10
5.86505
20
-4.16388
11
5.86407
21
-4.16535
0
LINE
8
BLACK
6
CONTINUOUS
10
5.86407
20
-4.16535
11
5.8626
21
-4.16633
0
LINE
8
BLACK
6
CONTINUOUS
10
5.8626
20
-4.16633
11
5.86087
21
-4.16668
0
LINE
8
BLACK
6
CONTINUOUS
10
5.86087
20
-4.16668
11
5.85914
21
-4.16633
0
LINE
8
BLACK
6
CONTINUOUS
10
5.85914
20
-4.16633
11
5.85767
21
-4.16535
0
LINE
8
BLACK
6
CONTINUOUS
10
5.85767
20
-4.16535
11
5.85669
21
-4.16388
0
LINE
8
BLACK
6
CONTINUOUS
10
5.85669
20
-4.16388
11
5.85634
21
-4.16215
0
LINE
8
BLACK
6
CONTINUOUS
10
5.85634
20
-4.16215
11
5.85634
21
-4.13518
0
LINE
8
BLACK
6
CONTINUOUS
10
5.85634
20
-4.13518
11
5.8654
21
-4.13518
0
LINE
8
BLACK
6
CONTINUOUS
10
5.8654
20
-4.13518
11
5.8654
21
-4.16215
0
LINE
8
BLACK
6
CONTINUOUS
10
5.8654
20
-4.16215
11
5.86505
21
-4.16388
0
LINE
8
BLACK
6
CONTINUOUS
10
5.82568
20
-4.16388
11
5.8247
21
-4.16535
0
LINE
8
BLACK
6
CONTINUOUS
10
5.8247
20
-4.16535
11
5.82323
21
-4.16633
0
LINE
8
BLACK
6
CONTINUOUS
10
5.82323
20
-4.16633
11
5.8215
21
-4.16668
0
LINE
8
BLACK
6
CONTINUOUS
10
5.8215
20
-4.16668
11
5.81977
21
-4.16633
0
LINE
8
BLACK
6
CONTINUOUS
10
5.81977
20
-4.16633
11
5.8183
21
-4.16535
0
LINE
8
BLACK
6
CONTINUOUS
10
5.8183
20
-4.16535
11
5.81732
21
-4.16388
0
LINE
8
BLACK
6
CONTINUOUS
10
5.81732
20
-4.16388
11
5.81697
21
-4.16215
0
LINE
8
BLACK
6
CONTINUOUS
10
5.81697
20
-4.16215
11
5.81697
21
-4.13518
0
LINE
8
BLACK
6
CONTINUOUS
10
5.81697
20
-4.13518
11
5.82603
21
-4.13518
0
LINE
8
BLACK
6
CONTINUOUS
10
5.82603
20
-4.13518
11
5.82603
21
-4.16215
0
LINE
8
BLACK
6
CONTINUOUS
10
5.82603
20
-4.16215
11
5.82568
21
-4.16388
0
LINE
8
BLACK
6
CONTINUOUS
10
5.806
20
-4.16388
11
5.80502
21
-4.16535
0
LINE
8
BLACK
6
CONTINUOUS
10
5.80502
20
-4.16535
11
5.80355
21
-4.16633
0
LINE
8
BLACK
6
CONTINUOUS
10
5.80355
20
-4.16633
11
5.80181
21
-4.16668
0
LINE
8
BLACK
6
CONTINUOUS
10
5.80181
20
-4.16668
11
5.80008
21
-4.16633
0
LINE
8
BLACK
6
CONTINUOUS
10
5.80008
20
-4.16633
11
5.79861
21
-4.16535
0
LINE
8
BLACK
6
CONTINUOUS
10
5.79861
20
-4.16535
11
5.79763
21
-4.16388
0
LINE
8
BLACK
6
CONTINUOUS
10
5.79763
20
-4.16388
11
5.79729
21
-4.16215
0
LINE
8
BLACK
6
CONTINUOUS
10
5.79729
20
-4.16215
11
5.79729
21
-4.13518
0
LINE
8
BLACK
6
CONTINUOUS
10
5.79729
20
-4.13518
11
5.80634
21
-4.13518
0
LINE
8
BLACK
6
CONTINUOUS
10
5.80634
20
-4.13518
11
5.80634
21
-4.16215
0
LINE
8
BLACK
6
CONTINUOUS
10
5.80634
20
-4.16215
11
5.806
21
-4.16388
0
LINE
8
BLACK
6
CONTINUOUS
10
5.78631
20
-4.16388
11
5.78533
21
-4.16535
0
LINE
8
BLACK
6
CONTINUOUS
10
5.78533
20
-4.16535
11
5.78386
21
-4.16633
0
LINE
8
BLACK
6
CONTINUOUS
10
5.78386
20
-4.16633
11
5.78213
21
-4.16668
0
LINE
8
BLACK
6
CONTINUOUS
10
5.78213
20
-4.16668
11
5.7804
21
-4.16633
0
LINE
8
BLACK
6
CONTINUOUS
10
5.7804
20
-4.16633
11
5.77893
21
-4.16535
0
LINE
8
BLACK
6
CONTINUOUS
10
5.77893
20
-4.16535
11
5.77795
21
-4.16388
0
LINE
8
BLACK
6
CONTINUOUS
10
5.77795
20
-4.16388
11
5.7776
21
-4.16215
0
LINE
8
BLACK
6
CONTINUOUS
10
5.7776
20
-4.16215
11
5.7776
21
-4.13518
0
LINE
8
BLACK
6
CONTINUOUS
10
5.7776
20
-4.13518
11
5.78666
21
-4.13518
0
LINE
8
BLACK
6
CONTINUOUS
10
5.78666
20
-4.13518
11
5.78666
21
-4.16215
0
LINE
8
BLACK
6
CONTINUOUS
10
5.78666
20
-4.16215
11
5.78631
21
-4.16388
0
LINE
8
BLACK
6
CONTINUOUS
10
5.44237
20
-4.16628
11
5.38725
21
-4.16628
0
LINE
8
BLACK
6
CONTINUOUS
10
5.38725
20
-4.16628
11
5.38725
21
-4.12691
0
LINE
8
BLACK
6
CONTINUOUS
10
5.38725
20
-4.12691
11
5.44237
21
-4.12691
0
LINE
8
BLACK
6
CONTINUOUS
10
5.44237
20
-4.12691
11
5.44237
21
-4.16628
0
LINE
8
BLACK
6
CONTINUOUS
10
5.73147
20
-4.11497
11
5.73466
21
-4.1171
0
LINE
8
BLACK
6
CONTINUOUS
10
5.73466
20
-4.1171
11
5.73679
21
-4.12029
0
LINE
8
BLACK
6
CONTINUOUS
10
5.73679
20
-4.12029
11
5.73754
21
-4.12406
0
LINE
8
BLACK
6
CONTINUOUS
10
5.73754
20
-4.12406
11
5.73754
21
-4.14374
0
LINE
8
BLACK
6
CONTINUOUS
10
5.73754
20
-4.14374
11
5.73679
21
-4.14751
0
LINE
8
BLACK
6
CONTINUOUS
10
5.73679
20
-4.14751
11
5.73466
21
-4.1507
0
LINE
8
BLACK
6
CONTINUOUS
10
5.73466
20
-4.1507
11
5.73147
21
-4.15284
0
LINE
8
BLACK
6
CONTINUOUS
10
5.73147
20
-4.15284
11
5.7277
21
-4.15359
0
LINE
8
BLACK
6
CONTINUOUS
10
5.7277
20
-4.15359
11
5.6903
21
-4.15359
0
LINE
8
BLACK
6
CONTINUOUS
10
5.6903
20
-4.15359
11
5.68653
21
-4.15284
0
LINE
8
BLACK
6
CONTINUOUS
10
5.68653
20
-4.15284
11
5.68334
21
-4.1507
0
LINE
8
BLACK
6
CONTINUOUS
10
5.68334
20
-4.1507
11
5.68121
21
-4.14751
0
LINE
8
BLACK
6
CONTINUOUS
10
5.68121
20
-4.14751
11
5.68046
21
-4.14374
0
LINE
8
BLACK
6
CONTINUOUS
10
5.68046
20
-4.14374
11
5.68046
21
-4.12406
0
LINE
8
BLACK
6
CONTINUOUS
10
5.68046
20
-4.12406
11
5.68121
21
-4.12029
0
LINE
8
BLACK
6
CONTINUOUS
10
5.68121
20
-4.12029
11
5.68334
21
-4.1171
0
LINE
8
BLACK
6
CONTINUOUS
10
5.68334
20
-4.1171
11
5.68653
21
-4.11497
0
LINE
8
BLACK
6
CONTINUOUS
10
5.68653
20
-4.11497
11
5.6903
21
-4.11422
0
LINE
8
BLACK
6
CONTINUOUS
10
5.6903
20
-4.11422
11
5.7277
21
-4.11422
0
LINE
8
BLACK
6
CONTINUOUS
10
5.7277
20
-4.11422
11
5.73147
21
-4.11497
0
LINE
8
BLACK
6
CONTINUOUS
10
5.65548
20
-4.113
11
5.65868
21
-4.11513
0
LINE
8
BLACK
6
CONTINUOUS
10
5.65868
20
-4.11513
11
5.66081
21
-4.11832
0
LINE
8
BLACK
6
CONTINUOUS
10
5.66081
20
-4.11832
11
5.66156
21
-4.12209
0
LINE
8
BLACK
6
CONTINUOUS
10
5.66156
20
-4.12209
11
5.66156
21
-4.14276
0
LINE
8
BLACK
6
CONTINUOUS
10
5.66156
20
-4.14276
11
5.66081
21
-4.14653
0
LINE
8
BLACK
6
CONTINUOUS
10
5.66081
20
-4.14653
11
5.65868
21
-4.14972
0
LINE
8
BLACK
6
CONTINUOUS
10
5.65868
20
-4.14972
11
5.65548
21
-4.15185
0
LINE
8
BLACK
6
CONTINUOUS
10
5.65548
20
-4.15185
11
5.65172
21
-4.1526
0
LINE
8
BLACK
6
CONTINUOUS
10
5.65172
20
-4.1526
11
5.61628
21
-4.1526
0
LINE
8
BLACK
6
CONTINUOUS
10
5.61628
20
-4.1526
11
5.61252
21
-4.15185
0
LINE
8
BLACK
6
CONTINUOUS
10
5.61252
20
-4.15185
11
5.60932
21
-4.14972
0
LINE
8
BLACK
6
CONTINUOUS
10
5.60932
20
-4.14972
11
5.60719
21
-4.14653
0
LINE
8
BLACK
6
CONTINUOUS
10
5.60719
20
-4.14653
11
5.60644
21
-4.14276
0
LINE
8
BLACK
6
CONTINUOUS
10
5.60644
20
-4.14276
11
5.60644
21
-4.12209
0
LINE
8
BLACK
6
CONTINUOUS
10
5.60644
20
-4.12209
11
5.60719
21
-4.11832
0
LINE
8
BLACK
6
CONTINUOUS
10
5.60719
20
-4.11832
11
5.60932
21
-4.11513
0
LINE
8
BLACK
6
CONTINUOUS
10
5.60932
20
-4.11513
11
5.61252
21
-4.113
0
LINE
8
BLACK
6
CONTINUOUS
10
5.61252
20
-4.113
11
5.61628
21
-4.11225
0
LINE
8
BLACK
6
CONTINUOUS
10
5.61628
20
-4.11225
11
5.65172
21
-4.11225
0
LINE
8
BLACK
6
CONTINUOUS
10
5.65172
20
-4.11225
11
5.65548
21
-4.113
0
LINE
8
BLACK
6
CONTINUOUS
10
5.65548
20
-4.04115
11
5.65868
21
-4.04328
0
LINE
8
BLACK
6
CONTINUOUS
10
5.65868
20
-4.04328
11
5.66081
21
-4.04647
0
LINE
8
BLACK
6
CONTINUOUS
10
5.66081
20
-4.04647
11
5.66156
21
-4.05024
0
LINE
8
BLACK
6
CONTINUOUS
10
5.66156
20
-4.05024
11
5.66156
21
-4.07091
0
LINE
8
BLACK
6
CONTINUOUS
10
5.66156
20
-4.07091
11
5.66081
21
-4.07468
0
LINE
8
BLACK
6
CONTINUOUS
10
5.66081
20
-4.07468
11
5.65868
21
-4.07787
0
LINE
8
BLACK
6
CONTINUOUS
10
5.65868
20
-4.07787
11
5.65548
21
-4.08
0
LINE
8
BLACK
6
CONTINUOUS
10
5.65548
20
-4.08
11
5.65172
21
-4.08075
0
LINE
8
BLACK
6
CONTINUOUS
10
5.65172
20
-4.08075
11
5.61628
21
-4.08075
0
LINE
8
BLACK
6
CONTINUOUS
10
5.61628
20
-4.08075
11
5.61252
21
-4.08
0
LINE
8
BLACK
6
CONTINUOUS
10
5.61252
20
-4.08
11
5.60932
21
-4.07787
0
LINE
8
BLACK
6
CONTINUOUS
10
5.60932
20
-4.07787
11
5.60719
21
-4.07468
0
LINE
8
BLACK
6
CONTINUOUS
10
5.60719
20
-4.07468
11
5.60644
21
-4.07091
0
LINE
8
BLACK
6
CONTINUOUS
10
5.60644
20
-4.07091
11
5.60644
21
-4.05024
0
LINE
8
BLACK
6
CONTINUOUS
10
5.60644
20
-4.05024
11
5.60719
21
-4.04647
0
LINE
8
BLACK
6
CONTINUOUS
10
5.60719
20
-4.04647
11
5.60932
21
-4.04328
0
LINE
8
BLACK
6
CONTINUOUS
10
5.60932
20
-4.04328
11
5.61252
21
-4.04115
0
LINE
8
BLACK
6
CONTINUOUS
10
5.61252
20
-4.04115
11
5.61628
21
-4.0404
0
LINE
8
BLACK
6
CONTINUOUS
10
5.61628
20
-4.0404
11
5.65172
21
-4.0404
0
LINE
8
BLACK
6
CONTINUOUS
10
5.65172
20
-4.0404
11
5.65548
21
-4.04115
0
LINE
8
BLACK
6
CONTINUOUS
10
5.73147
20
-4.04016
11
5.73466
21
-4.0423
0
LINE
8
BLACK
6
CONTINUOUS
10
5.73466
20
-4.0423
11
5.73679
21
-4.04549
0
LINE
8
BLACK
6
CONTINUOUS
10
5.73679
20
-4.04549
11
5.73754
21
-4.04926
0
LINE
8
BLACK
6
CONTINUOUS
10
5.73754
20
-4.04926
11
5.73754
21
-4.06894
0
LINE
8
BLACK
6
CONTINUOUS
10
5.73754
20
-4.06894
11
5.73679
21
-4.07271
0
LINE
8
BLACK
6
CONTINUOUS
10
5.73679
20
-4.07271
11
5.73466
21
-4.0759
0
LINE
8
BLACK
6
CONTINUOUS
10
5.73466
20
-4.0759
11
5.73147
21
-4.07803
0
LINE
8
BLACK
6
CONTINUOUS
10
5.73147
20
-4.07803
11
5.7277
21
-4.07878
0
LINE
8
BLACK
6
CONTINUOUS
10
5.7277
20
-4.07878
11
5.6903
21
-4.07878
0
LINE
8
BLACK
6
CONTINUOUS
10
5.6903
20
-4.07878
11
5.68653
21
-4.07803
0
LINE
8
BLACK
6
CONTINUOUS
10
5.68653
20
-4.07803
11
5.68334
21
-4.0759
0
LINE
8
BLACK
6
CONTINUOUS
10
5.68334
20
-4.0759
11
5.68121
21
-4.07271
0
LINE
8
BLACK
6
CONTINUOUS
10
5.68121
20
-4.07271
11
5.68046
21
-4.06894
0
LINE
8
BLACK
6
CONTINUOUS
10
5.68046
20
-4.06894
11
5.68046
21
-4.04926
0
LINE
8
BLACK
6
CONTINUOUS
10
5.68046
20
-4.04926
11
5.68121
21
-4.04549
0
LINE
8
BLACK
6
CONTINUOUS
10
5.68121
20
-4.04549
11
5.68334
21
-4.0423
0
LINE
8
BLACK
6
CONTINUOUS
10
5.68334
20
-4.0423
11
5.68653
21
-4.04016
0
LINE
8
BLACK
6
CONTINUOUS
10
5.68653
20
-4.04016
11
5.6903
21
-4.03941
0
LINE
8
BLACK
6
CONTINUOUS
10
5.6903
20
-4.03941
11
5.7277
21
-4.03941
0
LINE
8
BLACK
6
CONTINUOUS
10
5.7277
20
-4.03941
11
5.73147
21
-4.04016
0
LINE
8
BLACK
6
CONTINUOUS
10
6.27977
20
-4.0462
11
6.06323
21
-4.0462
0
LINE
8
BLACK
6
CONTINUOUS
10
6.06323
20
-4.0462
11
6.06323
21
-3.92809
0
LINE
8
BLACK
6
CONTINUOUS
10
6.06323
20
-3.92809
11
6.27977
21
-3.92809
0
LINE
8
BLACK
6
CONTINUOUS
10
6.27977
20
-3.92809
11
6.27977
21
-4.0462
0
LINE
8
BLACK
6
CONTINUOUS
10
5.79397
20
-4.00247
11
5.79716
21
-4.0046
0
LINE
8
BLACK
6
CONTINUOUS
10
5.79716
20
-4.0046
11
5.79929
21
-4.00779
0
LINE
8
BLACK
6
CONTINUOUS
10
5.79929
20
-4.00779
11
5.80004
21
-4.01156
0
LINE
8
BLACK
6
CONTINUOUS
10
5.80004
20
-4.01156
11
5.80004
21
-4.03124
0
LINE
8
BLACK
6
CONTINUOUS
10
5.80004
20
-4.03124
11
5.79929
21
-4.03501
0
LINE
8
BLACK
6
CONTINUOUS
10
5.79929
20
-4.03501
11
5.79716
21
-4.0382
0
LINE
8
BLACK
6
CONTINUOUS
10
5.79716
20
-4.0382
11
5.79397
21
-4.04034
0
LINE
8
BLACK
6
CONTINUOUS
10
5.79397
20
-4.04034
11
5.7902
21
-4.04109
0
LINE
8
BLACK
6
CONTINUOUS
10
5.7902
20
-4.04109
11
5.7528
21
-4.04109
0
LINE
8
BLACK
6
CONTINUOUS
10
5.7528
20
-4.04109
11
5.74903
21
-4.04034
0
LINE
8
BLACK
6
CONTINUOUS
10
5.74903
20
-4.04034
11
5.74584
21
-4.0382
0
LINE
8
BLACK
6
CONTINUOUS
10
5.74584
20
-4.0382
11
5.74371
21
-4.03501
0
LINE
8
BLACK
6
CONTINUOUS
10
5.74371
20
-4.03501
11
5.74296
21
-4.03124
0
LINE
8
BLACK
6
CONTINUOUS
10
5.74296
20
-4.03124
11
5.74296
21
-4.01156
0
LINE
8
BLACK
6
CONTINUOUS
10
5.74296
20
-4.01156
11
5.74371
21
-4.00779
0
LINE
8
BLACK
6
CONTINUOUS
10
5.74371
20
-4.00779
11
5.74584
21
-4.0046
0
LINE
8
BLACK
6
CONTINUOUS
10
5.74584
20
-4.0046
11
5.74903
21
-4.00247
0
LINE
8
BLACK
6
CONTINUOUS
10
5.74903
20
-4.00247
11
5.7528
21
-4.00172
0
LINE
8
BLACK
6
CONTINUOUS
10
5.7528
20
-4.00172
11
5.7902
21
-4.00172
0
LINE
8
BLACK
6
CONTINUOUS
10
5.7902
20
-4.00172
11
5.79397
21
-4.00247
0
LINE
8
BLACK
6
CONTINUOUS
10
5.59968
20
-3.94469
11
5.60287
21
-3.94682
0
LINE
8
BLACK
6
CONTINUOUS
10
5.60287
20
-3.94682
11
5.605
21
-3.95002
0
LINE
8
BLACK
6
CONTINUOUS
10
5.605
20
-3.95002
11
5.60575
21
-3.95378
0
LINE
8
BLACK
6
CONTINUOUS
10
5.60575
20
-3.95378
11
5.60575
21
-3.98922
0
LINE
8
BLACK
6
CONTINUOUS
10
5.60575
20
-3.98922
11
5.605
21
-3.99298
0
LINE
8
BLACK
6
CONTINUOUS
10
5.605
20
-3.99298
11
5.60287
21
-3.99618
0
LINE
8
BLACK
6
CONTINUOUS
10
5.60287
20
-3.99618
11
5.59968
21
-3.99831
0
LINE
8
BLACK
6
CONTINUOUS
10
5.59968
20
-3.99831
11
5.59591
21
-3.99906
0
LINE
8
BLACK
6
CONTINUOUS
10
5.59591
20
-3.99906
11
5.57524
21
-3.99906
0
LINE
8
BLACK
6
CONTINUOUS
10
5.57524
20
-3.99906
11
5.57147
21
-3.99831
0
LINE
8
BLACK
6
CONTINUOUS
10
5.57147
20
-3.99831
11
5.56828
21
-3.99618
0
LINE
8
BLACK
6
CONTINUOUS
10
5.56828
20
-3.99618
11
5.56615
21
-3.99298
0
LINE
8
BLACK
6
CONTINUOUS
10
5.56615
20
-3.99298
11
5.5654
21
-3.98922
0
LINE
8
BLACK
6
CONTINUOUS
10
5.5654
20
-3.98922
11
5.5654
21
-3.95378
0
LINE
8
BLACK
6
CONTINUOUS
10
5.5654
20
-3.95378
11
5.56615
21
-3.95002
0
LINE
8
BLACK
6
CONTINUOUS
10
5.56615
20
-3.95002
11
5.56828
21
-3.94682
0
LINE
8
BLACK
6
CONTINUOUS
10
5.56828
20
-3.94682
11
5.57147
21
-3.94469
0
LINE
8
BLACK
6
CONTINUOUS
10
5.57147
20
-3.94469
11
5.57524
21
-3.94394
0
LINE
8
BLACK
6
CONTINUOUS
10
5.57524
20
-3.94394
11
5.59591
21
-3.94394
0
LINE
8
BLACK
6
CONTINUOUS
10
5.59591
20
-3.94394
11
5.59968
21
-3.94469
0
LINE
8
BLACK
6
CONTINUOUS
10
5.67153
20
-3.94469
11
5.67472
21
-3.94682
0
LINE
8
BLACK
6
CONTINUOUS
10
5.67472
20
-3.94682
11
5.67685
21
-3.95002
0
LINE
8
BLACK
6
CONTINUOUS
10
5.67685
20
-3.95002
11
5.6776
21
-3.95378
0
LINE
8
BLACK
6
CONTINUOUS
10
5.6776
20
-3.95378
11
5.6776
21
-3.98922
0
LINE
8
BLACK
6
CONTINUOUS
10
5.6776
20
-3.98922
11
5.67685
21
-3.99298
0
LINE
8
BLACK
6
CONTINUOUS
10
5.67685
20
-3.99298
11
5.67472
21
-3.99618
0
LINE
8
BLACK
6
CONTINUOUS
10
5.67472
20
-3.99618
11
5.67153
21
-3.99831
0
LINE
8
BLACK
6
CONTINUOUS
10
5.67153
20
-3.99831
11
5.66776
21
-3.99906
0
LINE
8
BLACK
6
CONTINUOUS
10
5.66776
20
-3.99906
11
5.64709
21
-3.99906
0
LINE
8
BLACK
6
CONTINUOUS
10
5.64709
20
-3.99906
11
5.64332
21
-3.99831
0
LINE
8
BLACK
6
CONTINUOUS
10
5.64332
20
-3.99831
11
5.64013
21
-3.99618
0
LINE
8
BLACK
6
CONTINUOUS
10
5.64013
20
-3.99618
11
5.638
21
-3.99298
0
LINE
8
BLACK
6
CONTINUOUS
10
5.638
20
-3.99298
11
5.63725
21
-3.98922
0
LINE
8
BLACK
6
CONTINUOUS
10
5.63725
20
-3.98922
11
5.63725
21
-3.95378
0
LINE
8
BLACK
6
CONTINUOUS
10
5.63725
20
-3.95378
11
5.638
21
-3.95002
0
LINE
8
BLACK
6
CONTINUOUS
10
5.638
20
-3.95002
11
5.64013
21
-3.94682
0
LINE
8
BLACK
6
CONTINUOUS
10
5.64013
20
-3.94682
11
5.64332
21
-3.94469
0
LINE
8
BLACK
6
CONTINUOUS
10
5.64332
20
-3.94469
11
5.64709
21
-3.94394
0
LINE
8
BLACK
6
CONTINUOUS
10
5.64709
20
-3.94394
11
5.66776
21
-3.94394
0
LINE
8
BLACK
6
CONTINUOUS
10
5.66776
20
-3.94394
11
5.67153
21
-3.94469
0
LINE
8
BLACK
6
CONTINUOUS
10
5.79397
20
-3.92766
11
5.79716
21
-3.9298
0
LINE
8
BLACK
6
CONTINUOUS
10
5.79716
20
-3.9298
11
5.79929
21
-3.93299
0
LINE
8
BLACK
6
CONTINUOUS
10
5.79929
20
-3.93299
11
5.80004
21
-3.93676
0
LINE
8
BLACK
6
CONTINUOUS
10
5.80004
20
-3.93676
11
5.80004
21
-3.95644
0
LINE
8
BLACK
6
CONTINUOUS
10
5.80004
20
-3.95644
11
5.79929
21
-3.96021
0
LINE
8
BLACK
6
CONTINUOUS
10
5.79929
20
-3.96021
11
5.79716
21
-3.9634
0
LINE
8
BLACK
6
CONTINUOUS
10
5.79716
20
-3.9634
11
5.79397
21
-3.96553
0
LINE
8
BLACK
6
CONTINUOUS
10
5.79397
20
-3.96553
11
5.7902
21
-3.96628
0
LINE
8
BLACK
6
CONTINUOUS
10
5.7902
20
-3.96628
11
5.7528
21
-3.96628
0
LINE
8
BLACK
6
CONTINUOUS
10
5.7528
20
-3.96628
11
5.74903
21
-3.96553
0
LINE
8
BLACK
6
CONTINUOUS
10
5.74903
20
-3.96553
11
5.74584
21
-3.9634
0
LINE
8
BLACK
6
CONTINUOUS
10
5.74584
20
-3.9634
11
5.74371
21
-3.96021
0
LINE
8
BLACK
6
CONTINUOUS
10
5.74371
20
-3.96021
11
5.74296
21
-3.95644
0
LINE
8
BLACK
6
CONTINUOUS
10
5.74296
20
-3.95644
11
5.74296
21
-3.93676
0
LINE
8
BLACK
6
CONTINUOUS
10
5.74296
20
-3.93676
11
5.74371
21
-3.93299
0
LINE
8
BLACK
6
CONTINUOUS
10
5.74371
20
-3.93299
11
5.74584
21
-3.9298
0
LINE
8
BLACK
6
CONTINUOUS
10
5.74584
20
-3.9298
11
5.74903
21
-3.92766
0
LINE
8
BLACK
6
CONTINUOUS
10
5.74903
20
-3.92766
11
5.7528
21
-3.92691
0
LINE
8
BLACK
6
CONTINUOUS
10
5.7528
20
-3.92691
11
5.7902
21
-3.92691
0
LINE
8
BLACK
6
CONTINUOUS
10
5.7902
20
-3.92691
11
5.79397
21
-3.92766
0
LINE
8
BLACK
6
CONTINUOUS
10
5.63718
20
-3.86969
11
5.64037
21
-3.87182
0
LINE
8
BLACK
6
CONTINUOUS
10
5.64037
20
-3.87182
11
5.6425
21
-3.87502
0
LINE
8
BLACK
6
CONTINUOUS
10
5.6425
20
-3.87502
11
5.64325
21
-3.87878
0
LINE
8
BLACK
6
CONTINUOUS
10
5.64325
20
-3.87878
11
5.64325
21
-3.91422
0
LINE
8
BLACK
6
CONTINUOUS
10
5.64325
20
-3.91422
11
5.6425
21
-3.91798
0
LINE
8
BLACK
6
CONTINUOUS
10
5.6425
20
-3.91798
11
5.64037
21
-3.92118
0
LINE
8
BLACK
6
CONTINUOUS
10
5.64037
20
-3.92118
11
5.63718
21
-3.92331
0
LINE
8
BLACK
6
CONTINUOUS
10
5.63718
20
-3.92331
11
5.63341
21
-3.92406
0
LINE
8
BLACK
6
CONTINUOUS
10
5.63341
20
-3.92406
11
5.61274
21
-3.92406
0
LINE
8
BLACK
6
CONTINUOUS
10
5.61274
20
-3.92406
11
5.60897
21
-3.92331
0
LINE
8
BLACK
6
CONTINUOUS
10
5.60897
20
-3.92331
11
5.60578
21
-3.92118
0
LINE
8
BLACK
6
CONTINUOUS
10
5.60578
20
-3.92118
11
5.60365
21
-3.91798
0
LINE
8
BLACK
6
CONTINUOUS
10
5.60365
20
-3.91798
11
5.6029
21
-3.91422
0
LINE
8
BLACK
6
CONTINUOUS
10
5.6029
20
-3.91422
11
5.6029
21
-3.87878
0
LINE
8
BLACK
6
CONTINUOUS
10
5.6029
20
-3.87878
11
5.60365
21
-3.87502
0
LINE
8
BLACK
6
CONTINUOUS
10
5.60365
20
-3.87502
11
5.60578
21
-3.87182
0
LINE
8
BLACK
6
CONTINUOUS
10
5.60578
20
-3.87182
11
5.60897
21
-3.86969
0
LINE
8
BLACK
6
CONTINUOUS
10
5.60897
20
-3.86969
11
5.61274
21
-3.86894
0
LINE
8
BLACK
6
CONTINUOUS
10
5.61274
20
-3.86894
11
5.63341
21
-3.86894
0
LINE
8
BLACK
6
CONTINUOUS
10
5.63341
20
-3.86894
11
5.63718
21
-3.86969
0
LINE
8
BLACK
6
CONTINUOUS
10
5.70903
20
-3.86969
11
5.71222
21
-3.87182
0
LINE
8
BLACK
6
CONTINUOUS
10
5.71222
20
-3.87182
11
5.71435
21
-3.87502
0
LINE
8
BLACK
6
CONTINUOUS
10
5.71435
20
-3.87502
11
5.7151
21
-3.87878
0
LINE
8
BLACK
6
CONTINUOUS
10
5.7151
20
-3.87878
11
5.7151
21
-3.91422
0
LINE
8
BLACK
6
CONTINUOUS
10
5.7151
20
-3.91422
11
5.71435
21
-3.91798
0
LINE
8
BLACK
6
CONTINUOUS
10
5.71435
20
-3.91798
11
5.71222
21
-3.92118
0
LINE
8
BLACK
6
CONTINUOUS
10
5.71222
20
-3.92118
11
5.70903
21
-3.92331
0
LINE
8
BLACK
6
CONTINUOUS
10
5.70903
20
-3.92331
11
5.70526
21
-3.92406
0
LINE
8
BLACK
6
CONTINUOUS
10
5.70526
20
-3.92406
11
5.68459
21
-3.92406
0
LINE
8
BLACK
6
CONTINUOUS
10
5.68459
20
-3.92406
11
5.68082
21
-3.92331
0
LINE
8
BLACK
6
CONTINUOUS
10
5.68082
20
-3.92331
11
5.67763
21
-3.92118
0
LINE
8
BLACK
6
CONTINUOUS
10
5.67763
20
-3.92118
11
5.6755
21
-3.91798
0
LINE
8
BLACK
6
CONTINUOUS
10
5.6755
20
-3.91798
11
5.67475
21
-3.91422
0
LINE
8
BLACK
6
CONTINUOUS
10
5.67475
20
-3.91422
11
5.67475
21
-3.87878
0
LINE
8
BLACK
6
CONTINUOUS
10
5.67475
20
-3.87878
11
5.6755
21
-3.87502
0
LINE
8
BLACK
6
CONTINUOUS
10
5.6755
20
-3.87502
11
5.67763
21
-3.87182
0
LINE
8
BLACK
6
CONTINUOUS
10
5.67763
20
-3.87182
11
5.68082
21
-3.86969
0
LINE
8
BLACK
6
CONTINUOUS
10
5.68082
20
-3.86969
11
5.68459
21
-3.86894
0
LINE
8
BLACK
6
CONTINUOUS
10
5.68459
20
-3.86894
11
5.70526
21
-3.86894
0
LINE
8
BLACK
6
CONTINUOUS
10
5.70526
20
-3.86894
11
5.70903
21
-3.86969
0
LINE
8
BLACK
6
CONTINUOUS
10
6.2098
20
-3.8707
11
6.1094
21
-3.8707
0
LINE
8
BLACK
6
CONTINUOUS
10
6.1094
20
-3.8707
11
6.1094
21
-3.7723
0
LINE
8
BLACK
6
CONTINUOUS
10
6.1094
20
-3.7723
11
6.2098
21
-3.7723
0
LINE
8
BLACK
6
CONTINUOUS
10
6.2098
20
-3.7723
11
6.2098
21
-3.8707
0
LINE
8
BLACK
6
CONTINUOUS
10
6.4086
20
-3.8707
11
6.3082
21
-3.8707
0
LINE
8
BLACK
6
CONTINUOUS
10
6.3082
20
-3.8707
11
6.3082
21
-3.7723
0
LINE
8
BLACK
6
CONTINUOUS
10
6.3082
20
-3.7723
11
6.4086
21
-3.7723
0
LINE
8
BLACK
6
CONTINUOUS
10
6.4086
20
-3.7723
11
6.4086
21
-3.8707
0
LINE
8
BLACK
6
CONTINUOUS
10
5.59968
20
-3.79469
11
5.60287
21
-3.79682
0
LINE
8
BLACK
6
CONTINUOUS
10
5.60287
20
-3.79682
11
5.605
21
-3.80002
0
LINE
8
BLACK
6
CONTINUOUS
10
5.605
20
-3.80002
11
5.60575
21
-3.80378
0
LINE
8
BLACK
6
CONTINUOUS
10
5.60575
20
-3.80378
11
5.60575
21
-3.83922
0
LINE
8
BLACK
6
CONTINUOUS
10
5.60575
20
-3.83922
11
5.605
21
-3.84298
0
LINE
8
BLACK
6
CONTINUOUS
10
5.605
20
-3.84298
11
5.60287
21
-3.84618
0
LINE
8
BLACK
6
CONTINUOUS
10
5.60287
20
-3.84618
11
5.59968
21
-3.84831
0
LINE
8
BLACK
6
CONTINUOUS
10
5.59968
20
-3.84831
11
5.59591
21
-3.84906
0
LINE
8
BLACK
6
CONTINUOUS
10
5.59591
20
-3.84906
11
5.57524
21
-3.84906
0
LINE
8
BLACK
6
CONTINUOUS
10
5.57524
20
-3.84906
11
5.57147
21
-3.84831
0
LINE
8
BLACK
6
CONTINUOUS
10
5.57147
20
-3.84831
11
5.56828
21
-3.84618
0
LINE
8
BLACK
6
CONTINUOUS
10
5.56828
20
-3.84618
11
5.56615
21
-3.84298
0
LINE
8
BLACK
6
CONTINUOUS
10
5.56615
20
-3.84298
11
5.5654
21
-3.83922
0
LINE
8
BLACK
6
CONTINUOUS
10
5.5654
20
-3.83922
11
5.5654
21
-3.80378
0
LINE
8
BLACK
6
CONTINUOUS
10
5.5654
20
-3.80378
11
5.56615
21
-3.80002
0
LINE
8
BLACK
6
CONTINUOUS
10
5.56615
20
-3.80002
11
5.56828
21
-3.79682
0
LINE
8
BLACK
6
CONTINUOUS
10
5.56828
20
-3.79682
11
5.57147
21
-3.79469
0
LINE
8
BLACK
6
CONTINUOUS
10
5.57147
20
-3.79469
11
5.57524
21
-3.79394
0
LINE
8
BLACK
6
CONTINUOUS
10
5.57524
20
-3.79394
11
5.59591
21
-3.79394
0
LINE
8
BLACK
6
CONTINUOUS
10
5.59591
20
-3.79394
11
5.59968
21
-3.79469
0
LINE
8
BLACK
6
CONTINUOUS
10
5.67153
20
-3.79469
11
5.67472
21
-3.79682
0
LINE
8
BLACK
6
CONTINUOUS
10
5.67472
20
-3.79682
11
5.67685
21
-3.80002
0
LINE
8
BLACK
6
CONTINUOUS
10
5.67685
20
-3.80002
11
5.6776
21
-3.80378
0
LINE
8
BLACK
6
CONTINUOUS
10
5.6776
20
-3.80378
11
5.6776
21
-3.83922
0
LINE
8
BLACK
6
CONTINUOUS
10
5.6776
20
-3.83922
11
5.67685
21
-3.84298
0
LINE
8
BLACK
6
CONTINUOUS
10
5.67685
20
-3.84298
11
5.67472
21
-3.84618
0
LINE
8
BLACK
6
CONTINUOUS
10
5.67472
20
-3.84618
11
5.67153
21
-3.84831
0
LINE
8
BLACK
6
CONTINUOUS
10
5.67153
20
-3.84831
11
5.66776
21
-3.84906
0
LINE
8
BLACK
6
CONTINUOUS
10
5.66776
20
-3.84906
11
5.64709
21
-3.84906
0
LINE
8
BLACK
6
CONTINUOUS
10
5.64709
20
-3.84906
11
5.64332
21
-3.84831
0
LINE
8
BLACK
6
CONTINUOUS
10
5.64332
20
-3.84831
11
5.64013
21
-3.84618
0
LINE
8
BLACK
6
CONTINUOUS
10
5.64013
20
-3.84618
11
5.638
21
-3.84298
0
LINE
8
BLACK
6
CONTINUOUS
10
5.638
20
-3.84298
11
5.63725
21
-3.83922
0
LINE
8
BLACK
6
CONTINUOUS
10
5.63725
20
-3.83922
11
5.63725
21
-3.80378
0
LINE
8
BLACK
6
CONTINUOUS
10
5.63725
20
-3.80378
11
5.638
21
-3.80002
0
LINE
8
BLACK
6
CONTINUOUS
10
5.638
20
-3.80002
11
5.64013
21
-3.79682
0
LINE
8
BLACK
6
CONTINUOUS
10
5.64013
20
-3.79682
11
5.64332
21
-3.79469
0
LINE
8
BLACK
6
CONTINUOUS
10
5.64332
20
-3.79469
11
5.64709
21
-3.79394
0
LINE
8
BLACK
6
CONTINUOUS
10
5.64709
20
-3.79394
11
5.66776
21
-3.79394
0
LINE
8
BLACK
6
CONTINUOUS
10
5.66776
20
-3.79394
11
5.67153
21
-3.79469
0
LINE
8
BLACK
6
CONTINUOUS
10
5.7332
20
-3.7586
11
5.6348
21
-3.7586
0
LINE
8
BLACK
6
CONTINUOUS
10
5.6348
20
-3.7586
11
5.6348
21
-3.6582
0
LINE
8
BLACK
6
CONTINUOUS
10
5.6348
20
-3.6582
11
5.7332
21
-3.6582
0
LINE
8
BLACK
6
CONTINUOUS
10
5.7332
20
-3.6582
11
5.7332
21
-3.7586
0
LINE
8
BLACK
6
CONTINUOUS
10
6.14771
20
-3.68121
11
6.1509
21
-3.68334
0
LINE
8
BLACK
6
CONTINUOUS
10
6.1509
20
-3.68334
11
6.15303
21
-3.68653
0
LINE
8
BLACK
6
CONTINUOUS
10
6.15303
20
-3.68653
11
6.15378
21
-3.6903
0
LINE
8
BLACK
6
CONTINUOUS
10
6.15378
20
-3.6903
11
6.15378
21
-3.7277
0
LINE
8
BLACK
6
CONTINUOUS
10
6.15378
20
-3.7277
11
6.15303
21
-3.73147
0
LINE
8
BLACK
6
CONTINUOUS
10
6.15303
20
-3.73147
11
6.1509
21
-3.73466
0
LINE
8
BLACK
6
CONTINUOUS
10
6.1509
20
-3.73466
11
6.14771
21
-3.73679
0
LINE
8
BLACK
6
CONTINUOUS
10
6.14771
20
-3.73679
11
6.14394
21
-3.73754
0
LINE
8
BLACK
6
CONTINUOUS
10
6.14394
20
-3.73754
11
6.12426
21
-3.73754
0
LINE
8
BLACK
6
CONTINUOUS
10
6.12426
20
-3.73754
11
6.12049
21
-3.73679
0
LINE
8
BLACK
6
CONTINUOUS
10
6.12049
20
-3.73679
11
6.1173
21
-3.73466
0
LINE
8
BLACK
6
CONTINUOUS
10
6.1173
20
-3.73466
11
6.11516
21
-3.73147
0
LINE
8
BLACK
6
CONTINUOUS
10
6.11516
20
-3.73147
11
6.11441
21
-3.7277
0
LINE
8
BLACK
6
CONTINUOUS
10
6.11441
20
-3.7277
11
6.11441
21
-3.6903
0
LINE
8
BLACK
6
CONTINUOUS
10
6.11441
20
-3.6903
11
6.11516
21
-3.68653
0
LINE
8
BLACK
6
CONTINUOUS
10
6.11516
20
-3.68653
11
6.1173
21
-3.68334
0
LINE
8
BLACK
6
CONTINUOUS
10
6.1173
20
-3.68334
11
6.12049
21
-3.68121
0
LINE
8
BLACK
6
CONTINUOUS
10
6.12049
20
-3.68121
11
6.12426
21
-3.68046
0
LINE
8
BLACK
6
CONTINUOUS
10
6.12426
20
-3.68046
11
6.14394
21
-3.68046
0
LINE
8
BLACK
6
CONTINUOUS
10
6.14394
20
-3.68046
11
6.14771
21
-3.68121
0
LINE
8
BLACK
6
CONTINUOUS
10
6.22251
20
-3.68121
11
6.2257
21
-3.68334
0
LINE
8
BLACK
6
CONTINUOUS
10
6.2257
20
-3.68334
11
6.22784
21
-3.68653
0
LINE
8
BLACK
6
CONTINUOUS
10
6.22784
20
-3.68653
11
6.22859
21
-3.6903
0
LINE
8
BLACK
6
CONTINUOUS
10
6.22859
20
-3.6903
11
6.22859
21
-3.7277
0
LINE
8
BLACK
6
CONTINUOUS
10
6.22859
20
-3.7277
11
6.22784
21
-3.73147
0
LINE
8
BLACK
6
CONTINUOUS
10
6.22784
20
-3.73147
11
6.2257
21
-3.73466
0
LINE
8
BLACK
6
CONTINUOUS
10
6.2257
20
-3.73466
11
6.22251
21
-3.73679
0
LINE
8
BLACK
6
CONTINUOUS
10
6.22251
20
-3.73679
11
6.21874
21
-3.73754
0
LINE
8
BLACK
6
CONTINUOUS
10
6.21874
20
-3.73754
11
6.19906
21
-3.73754
0
LINE
8
BLACK
6
CONTINUOUS
10
6.19906
20
-3.73754
11
6.19529
21
-3.73679
0
LINE
8
BLACK
6
CONTINUOUS
10
6.19529
20
-3.73679
11
6.1921
21
-3.73466
0
LINE
8
BLACK
6
CONTINUOUS
10
6.1921
20
-3.73466
11
6.18997
21
-3.73147
0
LINE
8
BLACK
6
CONTINUOUS
10
6.18997
20
-3.73147
11
6.18922
21
-3.7277
0
LINE
8
BLACK
6
CONTINUOUS
10
6.18922
20
-3.7277
11
6.18922
21
-3.6903
0
LINE
8
BLACK
6
CONTINUOUS
10
6.18922
20
-3.6903
11
6.18997
21
-3.68653
0
LINE
8
BLACK
6
CONTINUOUS
10
6.18997
20
-3.68653
11
6.1921
21
-3.68334
0
LINE
8
BLACK
6
CONTINUOUS
10
6.1921
20
-3.68334
11
6.19529
21
-3.68121
0
LINE
8
BLACK
6
CONTINUOUS
10
6.19529
20
-3.68121
11
6.19906
21
-3.68046
0
LINE
8
BLACK
6
CONTINUOUS
10
6.19906
20
-3.68046
11
6.21874
21
-3.68046
0
LINE
8
BLACK
6
CONTINUOUS
10
6.21874
20
-3.68046
11
6.22251
21
-3.68121
0
LINE
8
BLACK
6
CONTINUOUS
10
5.7332
20
-3.5598
11
5.6348
21
-3.5598
0
LINE
8
BLACK
6
CONTINUOUS
10
5.6348
20
-3.5598
11
5.6348
21
-3.4594
0
LINE
8
BLACK
6
CONTINUOUS
10
5.6348
20
-3.4594
11
5.7332
21
-3.4594
0
LINE
8
BLACK
6
CONTINUOUS
10
5.7332
20
-3.4594
11
5.7332
21
-3.5598
  0
ENDSEC
  0
EOF
