  0
SECTION
  2
HEADER
  9
$ANGBASE
  50
0.0
  9
$ANGDIR
  70
1
  9
$MEASUREMENT
  70
0
  0
ENDSEC
  0
SECTION
  2
TABLES
  0
TABLE
  2
LTYPE
  70
4
  0
LTYPE
  5
40F
  2
CONTINUOUS
  70
0
  3
Solid line
  72
65
  73
0
  40
0.0
  0
LTYPE
  5
410
  2
DASHDOT
 70
0
  3
Dash Dot ____ _ ____ _
 72
65
 73
4
 40
2.0
 49
1.25
 49
-0.25
 49
0.25
 49
-0.25
  0
LTYPE
  5
411
  2
DASHED
 70
0
  3
Dashed __ __ __ __ __
 72
65
 73
2
 40
0.75
 49
0.5
 49
-0.25
  0
LTYPE
  5
43B
  2
DOTTED
 70
0
  3
Dotted .  .  .  .
 72
65
 73
2
 40
0.2
 49
0.0
 49
-0.2
  0
ENDTAB
  0
TABLE
  2
STYLE
  70
4
  0
STYLE
  2
KICAD
  70
0
  40
0
  41
1
  42
1
  50
0
  71
0
  3
isocp.shx
  0
STYLE
  2
KICADB
  70
0
  40
0
  41
1
  42
1
  50
0
  71
0
  3
isocp.shx
  0
STYLE
  2
KICADI
  70
0
  40
0
  41
1
  42
1
  50
15
  71
0
  3
isocp.shx
  0
STYLE
  2
KICADBI
  70
0
  40
0
  41
1
  42
1
  50
15
  71
0
  3
isocp.shx
  0
ENDTAB
  0
TABLE
  2
LAYER
  70
1
  0
LAYER
  2
BLACK
  70
0
  62
7
  6
CONTINUOUS
  0
ENDTAB
  0
ENDSEC
  0
SECTION
  2
ENTITIES
0
LINE
8
BLACK
6
CONTINUOUS
10
5.60626
20
-4.77718
11
5.60679
21
-4.77848
0
LINE
8
BLACK
6
CONTINUOUS
10
5.60679
20
-4.77848
11
5.60679
21
-4.80495
0
LINE
8
BLACK
6
CONTINUOUS
10
5.60679
20
-4.80495
11
5.60626
21
-4.80625
0
LINE
8
BLACK
6
CONTINUOUS
10
5.60626
20
-4.80625
11
5.60495
21
-4.80679
0
LINE
8
BLACK
6
CONTINUOUS
10
5.60495
20
-4.80679
11
5.60365
21
-4.80625
0
LINE
8
BLACK
6
CONTINUOUS
10
5.60365
20
-4.80625
11
5.60311
21
-4.80495
0
LINE
8
BLACK
6
CONTINUOUS
10
5.60311
20
-4.80495
11
5.60311
21
-4.79356
0
LINE
8
BLACK
6
CONTINUOUS
10
5.60311
20
-4.79356
11
5.55863
21
-4.79356
0
LINE
8
BLACK
6
CONTINUOUS
10
5.55863
20
-4.79356
11
5.55846
21
-4.79348
0
LINE
8
BLACK
6
CONTINUOUS
10
5.55846
20
-4.79348
11
5.55827
21
-4.79352
0
LINE
8
BLACK
6
CONTINUOUS
10
5.55827
20
-4.79352
11
5.55783
21
-4.79322
0
LINE
8
BLACK
6
CONTINUOUS
10
5.55783
20
-4.79322
11
5.55733
21
-4.79302
0
LINE
8
BLACK
6
CONTINUOUS
10
5.55733
20
-4.79302
11
5.55726
21
-4.79284
0
LINE
8
BLACK
6
CONTINUOUS
10
5.55726
20
-4.79284
11
5.5571
21
-4.79274
0
LINE
8
BLACK
6
CONTINUOUS
10
5.5571
20
-4.79274
11
5.557
21
-4.79221
0
LINE
8
BLACK
6
CONTINUOUS
10
5.557
20
-4.79221
11
5.55679
21
-4.79172
0
LINE
8
BLACK
6
CONTINUOUS
10
5.55679
20
-4.79172
11
5.55687
21
-4.79154
0
LINE
8
BLACK
6
CONTINUOUS
10
5.55687
20
-4.79154
11
5.55683
21
-4.79136
0
LINE
8
BLACK
6
CONTINUOUS
10
5.55683
20
-4.79136
11
5.55713
21
-4.79091
0
LINE
8
BLACK
6
CONTINUOUS
10
5.55713
20
-4.79091
11
5.55733
21
-4.79042
0
LINE
8
BLACK
6
CONTINUOUS
10
5.55733
20
-4.79042
11
5.55751
21
-4.79034
0
LINE
8
BLACK
6
CONTINUOUS
10
5.55751
20
-4.79034
11
5.55761
21
-4.79019
0
LINE
8
BLACK
6
CONTINUOUS
10
5.55761
20
-4.79019
11
5.56408
21
-4.78588
0
LINE
8
BLACK
6
CONTINUOUS
10
5.56408
20
-4.78588
11
5.56815
21
-4.7818
0
LINE
8
BLACK
6
CONTINUOUS
10
5.56815
20
-4.7818
11
5.57022
21
-4.77766
0
LINE
8
BLACK
6
CONTINUOUS
10
5.57022
20
-4.77766
11
5.57129
21
-4.77674
0
LINE
8
BLACK
6
CONTINUOUS
10
5.57129
20
-4.77674
11
5.57269
21
-4.77684
0
LINE
8
BLACK
6
CONTINUOUS
10
5.57269
20
-4.77684
11
5.57361
21
-4.7779
0
LINE
8
BLACK
6
CONTINUOUS
10
5.57361
20
-4.7779
11
5.57351
21
-4.77931
0
LINE
8
BLACK
6
CONTINUOUS
10
5.57351
20
-4.77931
11
5.57131
21
-4.78372
0
LINE
8
BLACK
6
CONTINUOUS
10
5.57131
20
-4.78372
11
5.57108
21
-4.78392
0
LINE
8
BLACK
6
CONTINUOUS
10
5.57108
20
-4.78392
11
5.57096
21
-4.7842
0
LINE
8
BLACK
6
CONTINUOUS
10
5.57096
20
-4.7842
11
5.56655
21
-4.78861
0
LINE
8
BLACK
6
CONTINUOUS
10
5.56655
20
-4.78861
11
5.56638
21
-4.78868
0
LINE
8
BLACK
6
CONTINUOUS
10
5.56638
20
-4.78868
11
5.56627
21
-4.78884
0
LINE
8
BLACK
6
CONTINUOUS
10
5.56627
20
-4.78884
11
5.56471
21
-4.78988
0
LINE
8
BLACK
6
CONTINUOUS
10
5.56471
20
-4.78988
11
5.60311
21
-4.78988
0
LINE
8
BLACK
6
CONTINUOUS
10
5.60311
20
-4.78988
11
5.60311
21
-4.77848
0
LINE
8
BLACK
6
CONTINUOUS
10
5.60311
20
-4.77848
11
5.60365
21
-4.77718
0
LINE
8
BLACK
6
CONTINUOUS
10
5.60365
20
-4.77718
11
5.60495
21
-4.77664
0
LINE
8
BLACK
6
CONTINUOUS
10
5.60495
20
-4.77664
11
5.60626
21
-4.77718
0
LINE
8
BLACK
6
CONTINUOUS
10
5.67327
20
-4.67598
11
5.674
21
-4.67775
0
LINE
8
BLACK
6
CONTINUOUS
10
5.674
20
-4.67775
11
5.674
21
-4.7065
0
LINE
8
BLACK
6
CONTINUOUS
10
5.674
20
-4.7065
11
5.69025
21
-4.7065
0
LINE
8
BLACK
6
CONTINUOUS
10
5.69025
20
-4.7065
11
5.69202
21
-4.70723
0
LINE
8
BLACK
6
CONTINUOUS
10
5.69202
20
-4.70723
11
5.69275
21
-4.709
0
LINE
8
BLACK
6
CONTINUOUS
10
5.69275
20
-4.709
11
5.69202
21
-4.71077
0
LINE
8
BLACK
6
CONTINUOUS
10
5.69202
20
-4.71077
11
5.69025
21
-4.7115
0
LINE
8
BLACK
6
CONTINUOUS
10
5.69025
20
-4.7115
11
5.6765
21
-4.7115
0
LINE
8
BLACK
6
CONTINUOUS
10
5.6765
20
-4.7115
11
5.69225
21
-4.7325
0
LINE
8
BLACK
6
CONTINUOUS
10
5.69225
20
-4.7325
11
5.69245
21
-4.73327
0
LINE
8
BLACK
6
CONTINUOUS
10
5.69245
20
-4.73327
11
5.69275
21
-4.734
0
LINE
8
BLACK
6
CONTINUOUS
10
5.69275
20
-4.734
11
5.69268
21
-4.73417
0
LINE
8
BLACK
6
CONTINUOUS
10
5.69268
20
-4.73417
11
5.69273
21
-4.73435
0
LINE
8
BLACK
6
CONTINUOUS
10
5.69273
20
-4.73435
11
5.69232
21
-4.73504
0
LINE
8
BLACK
6
CONTINUOUS
10
5.69232
20
-4.73504
11
5.69202
21
-4.73577
0
LINE
8
BLACK
6
CONTINUOUS
10
5.69202
20
-4.73577
11
5.69185
21
-4.73584
0
LINE
8
BLACK
6
CONTINUOUS
10
5.69185
20
-4.73584
11
5.69175
21
-4.736
0
LINE
8
BLACK
6
CONTINUOUS
10
5.69175
20
-4.736
11
5.69098
21
-4.7362
0
LINE
8
BLACK
6
CONTINUOUS
10
5.69098
20
-4.7362
11
5.69025
21
-4.7365
0
LINE
8
BLACK
6
CONTINUOUS
10
5.69025
20
-4.7365
11
5.674
21
-4.7365
0
LINE
8
BLACK
6
CONTINUOUS
10
5.674
20
-4.7365
11
5.674
21
-4.76525
0
LINE
8
BLACK
6
CONTINUOUS
10
5.674
20
-4.76525
11
5.67327
21
-4.76702
0
LINE
8
BLACK
6
CONTINUOUS
10
5.67327
20
-4.76702
11
5.6715
21
-4.76775
0
LINE
8
BLACK
6
CONTINUOUS
10
5.6715
20
-4.76775
11
5.66973
21
-4.76702
0
LINE
8
BLACK
6
CONTINUOUS
10
5.66973
20
-4.76702
11
5.669
21
-4.76525
0
LINE
8
BLACK
6
CONTINUOUS
10
5.669
20
-4.76525
11
5.669
21
-4.7365
0
LINE
8
BLACK
6
CONTINUOUS
10
5.669
20
-4.7365
11
5.65275
21
-4.7365
0
LINE
8
BLACK
6
CONTINUOUS
10
5.65275
20
-4.7365
11
5.65202
21
-4.7362
0
LINE
8
BLACK
6
CONTINUOUS
10
5.65202
20
-4.7362
11
5.65125
21
-4.736
0
LINE
8
BLACK
6
CONTINUOUS
10
5.65125
20
-4.736
11
5.65115
21
-4.73584
0
LINE
8
BLACK
6
CONTINUOUS
10
5.65115
20
-4.73584
11
5.65098
21
-4.73577
0
LINE
8
BLACK
6
CONTINUOUS
10
5.65098
20
-4.73577
11
5.65068
21
-4.73504
0
LINE
8
BLACK
6
CONTINUOUS
10
5.65068
20
-4.73504
11
5.65027
21
-4.73435
0
LINE
8
BLACK
6
CONTINUOUS
10
5.65027
20
-4.73435
11
5.65032
21
-4.73417
0
LINE
8
BLACK
6
CONTINUOUS
10
5.65032
20
-4.73417
11
5.65025
21
-4.734
0
LINE
8
BLACK
6
CONTINUOUS
10
5.65025
20
-4.734
11
5.65055
21
-4.73327
0
LINE
8
BLACK
6
CONTINUOUS
10
5.65055
20
-4.73327
11
5.65075
21
-4.7325
0
LINE
8
BLACK
6
CONTINUOUS
10
5.65075
20
-4.7325
11
5.6665
21
-4.7115
0
LINE
8
BLACK
6
CONTINUOUS
10
5.6665
20
-4.7115
11
5.65275
21
-4.7115
0
LINE
8
BLACK
6
CONTINUOUS
10
5.65275
20
-4.7115
11
5.65098
21
-4.71077
0
LINE
8
BLACK
6
CONTINUOUS
10
5.65098
20
-4.71077
11
5.65025
21
-4.709
0
LINE
8
BLACK
6
CONTINUOUS
10
5.65025
20
-4.709
11
5.65098
21
-4.70723
0
LINE
8
BLACK
6
CONTINUOUS
10
5.65098
20
-4.70723
11
5.65275
21
-4.7065
0
LINE
8
BLACK
6
CONTINUOUS
10
5.65275
20
-4.7065
11
5.669
21
-4.7065
0
LINE
8
BLACK
6
CONTINUOUS
10
5.669
20
-4.7065
11
5.669
21
-4.67775
0
LINE
8
BLACK
6
CONTINUOUS
10
5.669
20
-4.67775
11
5.66973
21
-4.67598
0
LINE
8
BLACK
6
CONTINUOUS
10
5.66973
20
-4.67598
11
5.6715
21
-4.67525
0
LINE
8
BLACK
6
CONTINUOUS
10
5.6715
20
-4.67525
11
5.67327
21
-4.67598
0
LINE
8
BLACK
6
CONTINUOUS
10
5.6715
20
-4.71317
11
5.65775
21
-4.7315
0
LINE
8
BLACK
6
CONTINUOUS
10
5.65775
20
-4.7315
11
5.68525
21
-4.7315
0
LINE
8
BLACK
6
CONTINUOUS
10
5.68525
20
-4.7315
11
5.6715
21
-4.71317
0
LINE
8
BLACK
6
CONTINUOUS
10
5.60626
20
-4.73307
11
5.60679
21
-4.73437
0
LINE
8
BLACK
6
CONTINUOUS
10
5.60679
20
-4.73437
11
5.60679
21
-4.7454
0
LINE
8
BLACK
6
CONTINUOUS
10
5.60679
20
-4.7454
11
5.60668
21
-4.74568
0
LINE
8
BLACK
6
CONTINUOUS
10
5.60668
20
-4.74568
11
5.6067
21
-4.74598
0
LINE
8
BLACK
6
CONTINUOUS
10
5.6067
20
-4.74598
11
5.60449
21
-4.7526
0
LINE
8
BLACK
6
CONTINUOUS
10
5.60449
20
-4.7526
11
5.60421
21
-4.75292
0
LINE
8
BLACK
6
CONTINUOUS
10
5.60421
20
-4.75292
11
5.60405
21
-4.75332
0
LINE
8
BLACK
6
CONTINUOUS
10
5.60405
20
-4.75332
11
5.59964
21
-4.75773
0
LINE
8
BLACK
6
CONTINUOUS
10
5.59964
20
-4.75773
11
5.59936
21
-4.75784
0
LINE
8
BLACK
6
CONTINUOUS
10
5.59936
20
-4.75784
11
5.59916
21
-4.75807
0
LINE
8
BLACK
6
CONTINUOUS
10
5.59916
20
-4.75807
11
5.59475
21
-4.76028
0
LINE
8
BLACK
6
CONTINUOUS
10
5.59475
20
-4.76028
11
5.59454
21
-4.76029
0
LINE
8
BLACK
6
CONTINUOUS
10
5.59454
20
-4.76029
11
5.59437
21
-4.76042
0
LINE
8
BLACK
6
CONTINUOUS
10
5.59437
20
-4.76042
11
5.58555
21
-4.76262
0
LINE
8
BLACK
6
CONTINUOUS
10
5.58555
20
-4.76262
11
5.58532
21
-4.76259
0
LINE
8
BLACK
6
CONTINUOUS
10
5.58532
20
-4.76259
11
5.5851
21
-4.76268
0
LINE
8
BLACK
6
CONTINUOUS
10
5.5851
20
-4.76268
11
5.57849
21
-4.76268
0
LINE
8
BLACK
6
CONTINUOUS
10
5.57849
20
-4.76268
11
5.57827
21
-4.76259
0
LINE
8
BLACK
6
CONTINUOUS
10
5.57827
20
-4.76259
11
5.57804
21
-4.76262
0
LINE
8
BLACK
6
CONTINUOUS
10
5.57804
20
-4.76262
11
5.56922
21
-4.76042
0
LINE
8
BLACK
6
CONTINUOUS
10
5.56922
20
-4.76042
11
5.56905
21
-4.76029
0
LINE
8
BLACK
6
CONTINUOUS
10
5.56905
20
-4.76029
11
5.56884
21
-4.76028
0
LINE
8
BLACK
6
CONTINUOUS
10
5.56884
20
-4.76028
11
5.56443
21
-4.75807
0
LINE
8
BLACK
6
CONTINUOUS
10
5.56443
20
-4.75807
11
5.56423
21
-4.75784
0
LINE
8
BLACK
6
CONTINUOUS
10
5.56423
20
-4.75784
11
5.56395
21
-4.75773
0
LINE
8
BLACK
6
CONTINUOUS
10
5.56395
20
-4.75773
11
5.55954
21
-4.75332
0
LINE
8
BLACK
6
CONTINUOUS
10
5.55954
20
-4.75332
11
5.55938
21
-4.75292
0
LINE
8
BLACK
6
CONTINUOUS
10
5.55938
20
-4.75292
11
5.55909
21
-4.7526
0
LINE
8
BLACK
6
CONTINUOUS
10
5.55909
20
-4.7526
11
5.55689
21
-4.74598
0
LINE
8
BLACK
6
CONTINUOUS
10
5.55689
20
-4.74598
11
5.55691
21
-4.74568
0
LINE
8
BLACK
6
CONTINUOUS
10
5.55691
20
-4.74568
11
5.55679
21
-4.7454
0
LINE
8
BLACK
6
CONTINUOUS
10
5.55679
20
-4.7454
11
5.55679
21
-4.73437
0
LINE
8
BLACK
6
CONTINUOUS
10
5.55679
20
-4.73437
11
5.55733
21
-4.73307
0
LINE
8
BLACK
6
CONTINUOUS
10
5.55733
20
-4.73307
11
5.55863
21
-4.73253
0
LINE
8
BLACK
6
CONTINUOUS
10
5.55863
20
-4.73253
11
5.60495
21
-4.73253
0
LINE
8
BLACK
6
CONTINUOUS
10
5.60495
20
-4.73253
11
5.60626
21
-4.73307
0
LINE
8
BLACK
6
CONTINUOUS
10
5.56047
20
-4.73621
11
5.56047
21
-4.7451
0
LINE
8
BLACK
6
CONTINUOUS
10
5.56047
20
-4.7451
11
5.56245
21
-4.75102
0
LINE
8
BLACK
6
CONTINUOUS
10
5.56245
20
-4.75102
11
5.56634
21
-4.75491
0
LINE
8
BLACK
6
CONTINUOUS
10
5.56634
20
-4.75491
11
5.57031
21
-4.7569
0
LINE
8
BLACK
6
CONTINUOUS
10
5.57031
20
-4.7569
11
5.57871
21
-4.759
0
LINE
8
BLACK
6
CONTINUOUS
10
5.57871
20
-4.759
11
5.58488
21
-4.759
0
LINE
8
BLACK
6
CONTINUOUS
10
5.58488
20
-4.759
11
5.59328
21
-4.7569
0
LINE
8
BLACK
6
CONTINUOUS
10
5.59328
20
-4.7569
11
5.59725
21
-4.75491
0
LINE
8
BLACK
6
CONTINUOUS
10
5.59725
20
-4.75491
11
5.60114
21
-4.75102
0
LINE
8
BLACK
6
CONTINUOUS
10
5.60114
20
-4.75102
11
5.60311
21
-4.7451
0
LINE
8
BLACK
6
CONTINUOUS
10
5.60311
20
-4.7451
11
5.60311
21
-4.73621
0
LINE
8
BLACK
6
CONTINUOUS
10
5.60311
20
-4.73621
11
5.56047
21
-4.73621
0
LINE
8
BLACK
6
CONTINUOUS
10
5.64376
20
-4.44557
11
5.64429
21
-4.44687
0
LINE
8
BLACK
6
CONTINUOUS
10
5.64429
20
-4.44687
11
5.64429
21
-4.47334
0
LINE
8
BLACK
6
CONTINUOUS
10
5.64429
20
-4.47334
11
5.64376
21
-4.47464
0
LINE
8
BLACK
6
CONTINUOUS
10
5.64376
20
-4.47464
11
5.64245
21
-4.47518
0
LINE
8
BLACK
6
CONTINUOUS
10
5.64245
20
-4.47518
11
5.64115
21
-4.47464
0
LINE
8
BLACK
6
CONTINUOUS
10
5.64115
20
-4.47464
11
5.64061
21
-4.47334
0
LINE
8
BLACK
6
CONTINUOUS
10
5.64061
20
-4.47334
11
5.64061
21
-4.46194
0
LINE
8
BLACK
6
CONTINUOUS
10
5.64061
20
-4.46194
11
5.59613
21
-4.46194
0
LINE
8
BLACK
6
CONTINUOUS
10
5.59613
20
-4.46194
11
5.59596
21
-4.46187
0
LINE
8
BLACK
6
CONTINUOUS
10
5.59596
20
-4.46187
11
5.59577
21
-4.46191
0
LINE
8
BLACK
6
CONTINUOUS
10
5.59577
20
-4.46191
11
5.59533
21
-4.46161
0
LINE
8
BLACK
6
CONTINUOUS
10
5.59533
20
-4.46161
11
5.59483
21
-4.4614
0
LINE
8
BLACK
6
CONTINUOUS
10
5.59483
20
-4.4614
11
5.59476
21
-4.46123
0
LINE
8
BLACK
6
CONTINUOUS
10
5.59476
20
-4.46123
11
5.5946
21
-4.46112
0
LINE
8
BLACK
6
CONTINUOUS
10
5.5946
20
-4.46112
11
5.5945
21
-4.4606
0
LINE
8
BLACK
6
CONTINUOUS
10
5.5945
20
-4.4606
11
5.59429
21
-4.4601
0
LINE
8
BLACK
6
CONTINUOUS
10
5.59429
20
-4.4601
11
5.59437
21
-4.45993
0
LINE
8
BLACK
6
CONTINUOUS
10
5.59437
20
-4.45993
11
5.59433
21
-4.45974
0
LINE
8
BLACK
6
CONTINUOUS
10
5.59433
20
-4.45974
11
5.59463
21
-4.4593
0
LINE
8
BLACK
6
CONTINUOUS
10
5.59463
20
-4.4593
11
5.59483
21
-4.4588
0
LINE
8
BLACK
6
CONTINUOUS
10
5.59483
20
-4.4588
11
5.59501
21
-4.45873
0
LINE
8
BLACK
6
CONTINUOUS
10
5.59501
20
-4.45873
11
5.59511
21
-4.45857
0
LINE
8
BLACK
6
CONTINUOUS
10
5.59511
20
-4.45857
11
5.60158
21
-4.45426
0
LINE
8
BLACK
6
CONTINUOUS
10
5.60158
20
-4.45426
11
5.60565
21
-4.45019
0
LINE
8
BLACK
6
CONTINUOUS
10
5.60565
20
-4.45019
11
5.60772
21
-4.44605
0
LINE
8
BLACK
6
CONTINUOUS
10
5.60772
20
-4.44605
11
5.60879
21
-4.44512
0
LINE
8
BLACK
6
CONTINUOUS
10
5.60879
20
-4.44512
11
5.61019
21
-4.44522
0
LINE
8
BLACK
6
CONTINUOUS
10
5.61019
20
-4.44522
11
5.61111
21
-4.44629
0
LINE
8
BLACK
6
CONTINUOUS
10
5.61111
20
-4.44629
11
5.61101
21
-4.44769
0
LINE
8
BLACK
6
CONTINUOUS
10
5.61101
20
-4.44769
11
5.60881
21
-4.4521
0
LINE
8
BLACK
6
CONTINUOUS
10
5.60881
20
-4.4521
11
5.60858
21
-4.4523
0
LINE
8
BLACK
6
CONTINUOUS
10
5.60858
20
-4.4523
11
5.60846
21
-4.45258
0
LINE
8
BLACK
6
CONTINUOUS
10
5.60846
20
-4.45258
11
5.60405
21
-4.45699
0
LINE
8
BLACK
6
CONTINUOUS
10
5.60405
20
-4.45699
11
5.60388
21
-4.45706
0
LINE
8
BLACK
6
CONTINUOUS
10
5.60388
20
-4.45706
11
5.60377
21
-4.45722
0
LINE
8
BLACK
6
CONTINUOUS
10
5.60377
20
-4.45722
11
5.60221
21
-4.45826
0
LINE
8
BLACK
6
CONTINUOUS
10
5.60221
20
-4.45826
11
5.64061
21
-4.45826
0
LINE
8
BLACK
6
CONTINUOUS
10
5.64061
20
-4.45826
11
5.64061
21
-4.44687
0
LINE
8
BLACK
6
CONTINUOUS
10
5.64061
20
-4.44687
11
5.64115
21
-4.44557
0
LINE
8
BLACK
6
CONTINUOUS
10
5.64115
20
-4.44557
11
5.64245
21
-4.44503
0
LINE
8
BLACK
6
CONTINUOUS
10
5.64245
20
-4.44503
11
5.64376
21
-4.44557
0
LINE
8
BLACK
6
CONTINUOUS
10
5.91383
20
-4.44167
11
5.91309
21
-4.43991
0
LINE
8
BLACK
6
CONTINUOUS
10
5.91309
20
-4.43991
11
5.91309
21
-3.92809
0
LINE
8
BLACK
6
CONTINUOUS
10
5.91309
20
-3.92809
11
5.91383
21
-3.92633
0
LINE
8
BLACK
6
CONTINUOUS
10
5.91383
20
-3.92633
11
5.91559
21
-3.92559
0
LINE
8
BLACK
6
CONTINUOUS
10
5.91559
20
-3.92559
11
6.42741
21
-3.92559
0
LINE
8
BLACK
6
CONTINUOUS
10
6.42741
20
-3.92559
11
6.42917
21
-3.92633
0
LINE
8
BLACK
6
CONTINUOUS
10
6.42917
20
-3.92633
11
6.42991
21
-3.92809
0
LINE
8
BLACK
6
CONTINUOUS
10
6.42991
20
-3.92809
11
6.42991
21
-4.43991
0
LINE
8
BLACK
6
CONTINUOUS
10
6.42991
20
-4.43991
11
6.42917
21
-4.44167
0
LINE
8
BLACK
6
CONTINUOUS
10
6.42917
20
-4.44167
11
6.42741
21
-4.44241
0
LINE
8
BLACK
6
CONTINUOUS
10
6.42741
20
-4.44241
11
5.91559
21
-4.44241
0
LINE
8
BLACK
6
CONTINUOUS
10
5.91559
20
-4.44241
11
5.91383
21
-4.44167
0
LINE
8
BLACK
6
CONTINUOUS
10
5.91809
20
-3.93059
11
5.91809
21
-4.43741
0
LINE
8
BLACK
6
CONTINUOUS
10
5.91809
20
-4.43741
11
6.42491
21
-4.43741
0
LINE
8
BLACK
6
CONTINUOUS
10
6.42491
20
-4.43741
11
6.42491
21
-3.93059
0
LINE
8
BLACK
6
CONTINUOUS
10
6.42491
20
-3.93059
11
5.91809
21
-3.93059
0
LINE
8
BLACK
6
CONTINUOUS
10
6.32072
20
-4.38059
11
6.32131
21
-4.382
0
LINE
8
BLACK
6
CONTINUOUS
10
6.32131
20
-4.382
11
6.32131
21
-4.40829
0
LINE
8
BLACK
6
CONTINUOUS
10
6.32131
20
-4.40829
11
6.32072
21
-4.4097
0
LINE
8
BLACK
6
CONTINUOUS
10
6.32072
20
-4.4097
11
6.31931
21
-4.41029
0
LINE
8
BLACK
6
CONTINUOUS
10
6.31931
20
-4.41029
11
6.3179
21
-4.4097
0
LINE
8
BLACK
6
CONTINUOUS
10
6.3179
20
-4.4097
11
6.31731
21
-4.40829
0
LINE
8
BLACK
6
CONTINUOUS
10
6.31731
20
-4.40829
11
6.31731
21
-4.39714
0
LINE
8
BLACK
6
CONTINUOUS
10
6.31731
20
-4.39714
11
6.27331
21
-4.39714
0
LINE
8
BLACK
6
CONTINUOUS
10
6.27331
20
-4.39714
11
6.27312
21
-4.39706
0
LINE
8
BLACK
6
CONTINUOUS
10
6.27312
20
-4.39706
11
6.27292
21
-4.3971
0
LINE
8
BLACK
6
CONTINUOUS
10
6.27292
20
-4.3971
11
6.27243
21
-4.39678
0
LINE
8
BLACK
6
CONTINUOUS
10
6.27243
20
-4.39678
11
6.2719
21
-4.39656
0
LINE
8
BLACK
6
CONTINUOUS
10
6.2719
20
-4.39656
11
6.27182
21
-4.39637
0
LINE
8
BLACK
6
CONTINUOUS
10
6.27182
20
-4.39637
11
6.27165
21
-4.39625
0
LINE
8
BLACK
6
CONTINUOUS
10
6.27165
20
-4.39625
11
6.27153
21
-4.39568
0
LINE
8
BLACK
6
CONTINUOUS
10
6.27153
20
-4.39568
11
6.27131
21
-4.39514
0
LINE
8
BLACK
6
CONTINUOUS
10
6.27131
20
-4.39514
11
6.27139
21
-4.39495
0
LINE
8
BLACK
6
CONTINUOUS
10
6.27139
20
-4.39495
11
6.27135
21
-4.39475
0
LINE
8
BLACK
6
CONTINUOUS
10
6.27135
20
-4.39475
11
6.27167
21
-4.39427
0
LINE
8
BLACK
6
CONTINUOUS
10
6.27167
20
-4.39427
11
6.2719
21
-4.39373
0
LINE
8
BLACK
6
CONTINUOUS
10
6.2719
20
-4.39373
11
6.27209
21
-4.39365
0
LINE
8
BLACK
6
CONTINUOUS
10
6.27209
20
-4.39365
11
6.2722
21
-4.39348
0
LINE
8
BLACK
6
CONTINUOUS
10
6.2722
20
-4.39348
11
6.27861
21
-4.38921
0
LINE
8
BLACK
6
CONTINUOUS
10
6.27861
20
-4.38921
11
6.28262
21
-4.3852
0
LINE
8
BLACK
6
CONTINUOUS
10
6.28262
20
-4.3852
11
6.28466
21
-4.38111
0
LINE
8
BLACK
6
CONTINUOUS
10
6.28466
20
-4.38111
11
6.28582
21
-4.3801
0
LINE
8
BLACK
6
CONTINUOUS
10
6.28582
20
-4.3801
11
6.28735
21
-4.38021
0
LINE
8
BLACK
6
CONTINUOUS
10
6.28735
20
-4.38021
11
6.28835
21
-4.38137
0
LINE
8
BLACK
6
CONTINUOUS
10
6.28835
20
-4.38137
11
6.28824
21
-4.38289
0
LINE
8
BLACK
6
CONTINUOUS
10
6.28824
20
-4.38289
11
6.28605
21
-4.38728
0
LINE
8
BLACK
6
CONTINUOUS
10
6.28605
20
-4.38728
11
6.2858
21
-4.38749
0
LINE
8
BLACK
6
CONTINUOUS
10
6.2858
20
-4.38749
11
6.28568
21
-4.3878
0
LINE
8
BLACK
6
CONTINUOUS
10
6.28568
20
-4.3878
11
6.2813
21
-4.39218
0
LINE
8
BLACK
6
CONTINUOUS
10
6.2813
20
-4.39218
11
6.2811
21
-4.39225
0
LINE
8
BLACK
6
CONTINUOUS
10
6.2811
20
-4.39225
11
6.28099
21
-4.39243
0
LINE
8
BLACK
6
CONTINUOUS
10
6.28099
20
-4.39243
11
6.27992
21
-4.39314
0
LINE
8
BLACK
6
CONTINUOUS
10
6.27992
20
-4.39314
11
6.31731
21
-4.39314
0
LINE
8
BLACK
6
CONTINUOUS
10
6.31731
20
-4.39314
11
6.31731
21
-4.382
0
LINE
8
BLACK
6
CONTINUOUS
10
6.31731
20
-4.382
11
6.3179
21
-4.38059
0
LINE
8
BLACK
6
CONTINUOUS
10
6.3179
20
-4.38059
11
6.31931
21
-4.38
0
LINE
8
BLACK
6
CONTINUOUS
10
6.31931
20
-4.38
11
6.32072
21
-4.38059
0
LINE
8
BLACK
6
CONTINUOUS
10
6.32072
20
-4.34554
11
6.32131
21
-4.34695
0
LINE
8
BLACK
6
CONTINUOUS
10
6.32131
20
-4.34695
11
6.32131
21
-4.36886
0
LINE
8
BLACK
6
CONTINUOUS
10
6.32131
20
-4.36886
11
6.32072
21
-4.37027
0
LINE
8
BLACK
6
CONTINUOUS
10
6.32072
20
-4.37027
11
6.31931
21
-4.37086
0
LINE
8
BLACK
6
CONTINUOUS
10
6.31931
20
-4.37086
11
6.3179
21
-4.37027
0
LINE
8
BLACK
6
CONTINUOUS
10
6.3179
20
-4.37027
11
6.31731
21
-4.36886
0
LINE
8
BLACK
6
CONTINUOUS
10
6.31731
20
-4.36886
11
6.31731
21
-4.34895
0
LINE
8
BLACK
6
CONTINUOUS
10
6.31731
20
-4.34895
11
6.27331
21
-4.34895
0
LINE
8
BLACK
6
CONTINUOUS
10
6.27331
20
-4.34895
11
6.2719
21
-4.34837
0
LINE
8
BLACK
6
CONTINUOUS
10
6.2719
20
-4.34837
11
6.27131
21
-4.34695
0
LINE
8
BLACK
6
CONTINUOUS
10
6.27131
20
-4.34695
11
6.2719
21
-4.34554
0
LINE
8
BLACK
6
CONTINUOUS
10
6.2719
20
-4.34554
11
6.27331
21
-4.34495
0
LINE
8
BLACK
6
CONTINUOUS
10
6.27331
20
-4.34495
11
6.31931
21
-4.34495
0
LINE
8
BLACK
6
CONTINUOUS
10
6.31931
20
-4.34495
11
6.32072
21
-4.34554
0
LINE
8
BLACK
6
CONTINUOUS
10
5.64376
20
-4.40145
11
5.64429
21
-4.40275
0
LINE
8
BLACK
6
CONTINUOUS
10
5.64429
20
-4.40275
11
5.64376
21
-4.40406
0
LINE
8
BLACK
6
CONTINUOUS
10
5.64376
20
-4.40406
11
5.64245
21
-4.40459
0
LINE
8
BLACK
6
CONTINUOUS
10
5.64245
20
-4.40459
11
5.62224
21
-4.40459
0
LINE
8
BLACK
6
CONTINUOUS
10
5.62224
20
-4.40459
11
5.62224
21
-4.4204
0
LINE
8
BLACK
6
CONTINUOUS
10
5.62224
20
-4.4204
11
5.62207
21
-4.4208
0
LINE
8
BLACK
6
CONTINUOUS
10
5.62207
20
-4.4208
11
5.62204
21
-4.42122
0
LINE
8
BLACK
6
CONTINUOUS
10
5.62204
20
-4.42122
11
5.61984
21
-4.42563
0
LINE
8
BLACK
6
CONTINUOUS
10
5.61984
20
-4.42563
11
5.61961
21
-4.42583
0
LINE
8
BLACK
6
CONTINUOUS
10
5.61961
20
-4.42583
11
5.61949
21
-4.42611
0
LINE
8
BLACK
6
CONTINUOUS
10
5.61949
20
-4.42611
11
5.61729
21
-4.42832
0
LINE
8
BLACK
6
CONTINUOUS
10
5.61729
20
-4.42832
11
5.61701
21
-4.42843
0
LINE
8
BLACK
6
CONTINUOUS
10
5.61701
20
-4.42843
11
5.61681
21
-4.42866
0
LINE
8
BLACK
6
CONTINUOUS
10
5.61681
20
-4.42866
11
5.6124
21
-4.43087
0
LINE
8
BLACK
6
CONTINUOUS
10
5.6124
20
-4.43087
11
5.61197
21
-4.4309
0
LINE
8
BLACK
6
CONTINUOUS
10
5.61197
20
-4.4309
11
5.61157
21
-4.43106
0
LINE
8
BLACK
6
CONTINUOUS
10
5.61157
20
-4.43106
11
5.60496
21
-4.43106
0
LINE
8
BLACK
6
CONTINUOUS
10
5.60496
20
-4.43106
11
5.60456
21
-4.4309
0
LINE
8
BLACK
6
CONTINUOUS
10
5.60456
20
-4.4309
11
5.60413
21
-4.43087
0
LINE
8
BLACK
6
CONTINUOUS
10
5.60413
20
-4.43087
11
5.59972
21
-4.42866
0
LINE
8
BLACK
6
CONTINUOUS
10
5.59972
20
-4.42866
11
5.59952
21
-4.42843
0
LINE
8
BLACK
6
CONTINUOUS
10
5.59952
20
-4.42843
11
5.59924
21
-4.42832
0
LINE
8
BLACK
6
CONTINUOUS
10
5.59924
20
-4.42832
11
5.59704
21
-4.42611
0
LINE
8
BLACK
6
CONTINUOUS
10
5.59704
20
-4.42611
11
5.59692
21
-4.42583
0
LINE
8
BLACK
6
CONTINUOUS
10
5.59692
20
-4.42583
11
5.59669
21
-4.42563
0
LINE
8
BLACK
6
CONTINUOUS
10
5.59669
20
-4.42563
11
5.59449
21
-4.42122
0
LINE
8
BLACK
6
CONTINUOUS
10
5.59449
20
-4.42122
11
5.59446
21
-4.4208
0
LINE
8
BLACK
6
CONTINUOUS
10
5.59446
20
-4.4208
11
5.59429
21
-4.4204
0
LINE
8
BLACK
6
CONTINUOUS
10
5.59429
20
-4.4204
11
5.59429
21
-4.40275
0
LINE
8
BLACK
6
CONTINUOUS
10
5.59429
20
-4.40275
11
5.59483
21
-4.40145
0
LINE
8
BLACK
6
CONTINUOUS
10
5.59483
20
-4.40145
11
5.59613
21
-4.40091
0
LINE
8
BLACK
6
CONTINUOUS
10
5.59613
20
-4.40091
11
5.64245
21
-4.40091
0
LINE
8
BLACK
6
CONTINUOUS
10
5.64245
20
-4.40091
11
5.64376
21
-4.40145
0
LINE
8
BLACK
6
CONTINUOUS
10
5.59797
20
-4.40459
11
5.59797
21
-4.41997
0
LINE
8
BLACK
6
CONTINUOUS
10
5.59797
20
-4.41997
11
5.59985
21
-4.42372
0
LINE
8
BLACK
6
CONTINUOUS
10
5.59985
20
-4.42372
11
5.60164
21
-4.4255
0
LINE
8
BLACK
6
CONTINUOUS
10
5.60164
20
-4.4255
11
5.60539
21
-4.42738
0
LINE
8
BLACK
6
CONTINUOUS
10
5.60539
20
-4.42738
11
5.61114
21
-4.42738
0
LINE
8
BLACK
6
CONTINUOUS
10
5.61114
20
-4.42738
11
5.6149
21
-4.4255
0
LINE
8
BLACK
6
CONTINUOUS
10
5.6149
20
-4.4255
11
5.61668
21
-4.42372
0
LINE
8
BLACK
6
CONTINUOUS
10
5.61668
20
-4.42372
11
5.61856
21
-4.41997
0
LINE
8
BLACK
6
CONTINUOUS
10
5.61856
20
-4.41997
11
5.61856
21
-4.40459
0
LINE
8
BLACK
6
CONTINUOUS
10
5.61856
20
-4.40459
11
5.59797
21
-4.40459
0
LINE
8
BLACK
6
CONTINUOUS
10
5.44473
20
-4.40452
11
5.444
21
-4.40275
0
LINE
8
BLACK
6
CONTINUOUS
10
5.444
20
-4.40275
11
5.444
21
-4.27583
0
LINE
8
BLACK
6
CONTINUOUS
10
5.444
20
-4.27583
11
5.44189
21
-4.28004
0
LINE
8
BLACK
6
CONTINUOUS
10
5.44189
20
-4.28004
11
5.44167
21
-4.28024
0
LINE
8
BLACK
6
CONTINUOUS
10
5.44167
20
-4.28024
11
5.44155
21
-4.28052
0
LINE
8
BLACK
6
CONTINUOUS
10
5.44155
20
-4.28052
11
5.43934
21
-4.28273
0
LINE
8
BLACK
6
CONTINUOUS
10
5.43934
20
-4.28273
11
5.43906
21
-4.28284
0
LINE
8
BLACK
6
CONTINUOUS
10
5.43906
20
-4.28284
11
5.43887
21
-4.28307
0
LINE
8
BLACK
6
CONTINUOUS
10
5.43887
20
-4.28307
11
5.43445
21
-4.28528
0
LINE
8
BLACK
6
CONTINUOUS
10
5.43445
20
-4.28528
11
5.43425
21
-4.28529
0
LINE
8
BLACK
6
CONTINUOUS
10
5.43425
20
-4.28529
11
5.43408
21
-4.28542
0
LINE
8
BLACK
6
CONTINUOUS
10
5.43408
20
-4.28542
11
5.42525
21
-4.28762
0
LINE
8
BLACK
6
CONTINUOUS
10
5.42525
20
-4.28762
11
5.42502
21
-4.28759
0
LINE
8
BLACK
6
CONTINUOUS
10
5.42502
20
-4.28759
11
5.42481
21
-4.28768
0
LINE
8
BLACK
6
CONTINUOUS
10
5.42481
20
-4.28768
11
5.41378
21
-4.28768
0
LINE
8
BLACK
6
CONTINUOUS
10
5.41378
20
-4.28768
11
5.41356
21
-4.28759
0
LINE
8
BLACK
6
CONTINUOUS
10
5.41356
20
-4.28759
11
5.41333
21
-4.28762
0
LINE
8
BLACK
6
CONTINUOUS
10
5.41333
20
-4.28762
11
5.40451
21
-4.28542
0
LINE
8
BLACK
6
CONTINUOUS
10
5.40451
20
-4.28542
11
5.40434
21
-4.28529
0
LINE
8
BLACK
6
CONTINUOUS
10
5.40434
20
-4.28529
11
5.40413
21
-4.28528
0
LINE
8
BLACK
6
CONTINUOUS
10
5.40413
20
-4.28528
11
5.39972
21
-4.28307
0
LINE
8
BLACK
6
CONTINUOUS
10
5.39972
20
-4.28307
11
5.39952
21
-4.28284
0
LINE
8
BLACK
6
CONTINUOUS
10
5.39952
20
-4.28284
11
5.39924
21
-4.28273
0
LINE
8
BLACK
6
CONTINUOUS
10
5.39924
20
-4.28273
11
5.39704
21
-4.28052
0
LINE
8
BLACK
6
CONTINUOUS
10
5.39704
20
-4.28052
11
5.39692
21
-4.28024
0
LINE
8
BLACK
6
CONTINUOUS
10
5.39692
20
-4.28024
11
5.39669
21
-4.28004
0
LINE
8
BLACK
6
CONTINUOUS
10
5.39669
20
-4.28004
11
5.39449
21
-4.27563
0
LINE
8
BLACK
6
CONTINUOUS
10
5.39449
20
-4.27563
11
5.39446
21
-4.2752
0
LINE
8
BLACK
6
CONTINUOUS
10
5.39446
20
-4.2752
11
5.39429
21
-4.27481
0
LINE
8
BLACK
6
CONTINUOUS
10
5.39429
20
-4.27481
11
5.39429
21
-4.2704
0
LINE
8
BLACK
6
CONTINUOUS
10
5.39429
20
-4.2704
11
5.39446
21
-4.27
0
LINE
8
BLACK
6
CONTINUOUS
10
5.39446
20
-4.27
11
5.39449
21
-4.26957
0
LINE
8
BLACK
6
CONTINUOUS
10
5.39449
20
-4.26957
11
5.39669
21
-4.26516
0
LINE
8
BLACK
6
CONTINUOUS
10
5.39669
20
-4.26516
11
5.39692
21
-4.26496
0
LINE
8
BLACK
6
CONTINUOUS
10
5.39692
20
-4.26496
11
5.39704
21
-4.26468
0
LINE
8
BLACK
6
CONTINUOUS
10
5.39704
20
-4.26468
11
5.39924
21
-4.26248
0
LINE
8
BLACK
6
CONTINUOUS
10
5.39924
20
-4.26248
11
5.39952
21
-4.26236
0
LINE
8
BLACK
6
CONTINUOUS
10
5.39952
20
-4.26236
11
5.39972
21
-4.26213
0
LINE
8
BLACK
6
CONTINUOUS
10
5.39972
20
-4.26213
11
5.40413
21
-4.25993
0
LINE
8
BLACK
6
CONTINUOUS
10
5.40413
20
-4.25993
11
5.40434
21
-4.25991
0
LINE
8
BLACK
6
CONTINUOUS
10
5.40434
20
-4.25991
11
5.40451
21
-4.25979
0
LINE
8
BLACK
6
CONTINUOUS
10
5.40451
20
-4.25979
11
5.41333
21
-4.25758
0
LINE
8
BLACK
6
CONTINUOUS
10
5.41333
20
-4.25758
11
5.41356
21
-4.25762
0
LINE
8
BLACK
6
CONTINUOUS
10
5.41356
20
-4.25762
11
5.41378
21
-4.25753
0
LINE
8
BLACK
6
CONTINUOUS
10
5.41378
20
-4.25753
11
5.42481
21
-4.25753
0
LINE
8
BLACK
6
CONTINUOUS
10
5.42481
20
-4.25753
11
5.42502
21
-4.25762
0
LINE
8
BLACK
6
CONTINUOUS
10
5.42502
20
-4.25762
11
5.42525
21
-4.25758
0
LINE
8
BLACK
6
CONTINUOUS
10
5.42525
20
-4.25758
11
5.43408
21
-4.25979
0
LINE
8
BLACK
6
CONTINUOUS
10
5.43408
20
-4.25979
11
5.43425
21
-4.25991
0
LINE
8
BLACK
6
CONTINUOUS
10
5.43425
20
-4.25991
11
5.43445
21
-4.25993
0
LINE
8
BLACK
6
CONTINUOUS
10
5.43445
20
-4.25993
11
5.43887
21
-4.26213
0
LINE
8
BLACK
6
CONTINUOUS
10
5.43887
20
-4.26213
11
5.43906
21
-4.26236
0
LINE
8
BLACK
6
CONTINUOUS
10
5.43906
20
-4.26236
11
5.43934
21
-4.26248
0
LINE
8
BLACK
6
CONTINUOUS
10
5.43934
20
-4.26248
11
5.44155
21
-4.26468
0
LINE
8
BLACK
6
CONTINUOUS
10
5.44155
20
-4.26468
11
5.44167
21
-4.26496
0
LINE
8
BLACK
6
CONTINUOUS
10
5.44167
20
-4.26496
11
5.44189
21
-4.26516
0
LINE
8
BLACK
6
CONTINUOUS
10
5.44189
20
-4.26516
11
5.444
21
-4.26937
0
LINE
8
BLACK
6
CONTINUOUS
10
5.444
20
-4.26937
11
5.444
21
-4.24243
0
LINE
8
BLACK
6
CONTINUOUS
10
5.444
20
-4.24243
11
5.44376
21
-4.24302
0
LINE
8
BLACK
6
CONTINUOUS
10
5.44376
20
-4.24302
11
5.44245
21
-4.24356
0
LINE
8
BLACK
6
CONTINUOUS
10
5.44245
20
-4.24356
11
5.44115
21
-4.24302
0
LINE
8
BLACK
6
CONTINUOUS
10
5.44115
20
-4.24302
11
5.44061
21
-4.24172
0
LINE
8
BLACK
6
CONTINUOUS
10
5.44061
20
-4.24172
11
5.44061
21
-4.21749
0
LINE
8
BLACK
6
CONTINUOUS
10
5.44061
20
-4.21749
11
5.41729
21
-4.24082
0
LINE
8
BLACK
6
CONTINUOUS
10
5.41729
20
-4.24082
11
5.41689
21
-4.24098
0
LINE
8
BLACK
6
CONTINUOUS
10
5.41689
20
-4.24098
11
5.41657
21
-4.24126
0
LINE
8
BLACK
6
CONTINUOUS
10
5.41657
20
-4.24126
11
5.40995
21
-4.24347
0
LINE
8
BLACK
6
CONTINUOUS
10
5.40995
20
-4.24347
11
5.40965
21
-4.24345
0
LINE
8
BLACK
6
CONTINUOUS
10
5.40965
20
-4.24345
11
5.40937
21
-4.24356
0
LINE
8
BLACK
6
CONTINUOUS
10
5.40937
20
-4.24356
11
5.40496
21
-4.24356
0
LINE
8
BLACK
6
CONTINUOUS
10
5.40496
20
-4.24356
11
5.40456
21
-4.2434
0
LINE
8
BLACK
6
CONTINUOUS
10
5.40456
20
-4.2434
11
5.40413
21
-4.24337
0
LINE
8
BLACK
6
CONTINUOUS
10
5.40413
20
-4.24337
11
5.39972
21
-4.24116
0
LINE
8
BLACK
6
CONTINUOUS
10
5.39972
20
-4.24116
11
5.39952
21
-4.24093
0
LINE
8
BLACK
6
CONTINUOUS
10
5.39952
20
-4.24093
11
5.39924
21
-4.24082
0
LINE
8
BLACK
6
CONTINUOUS
10
5.39924
20
-4.24082
11
5.39704
21
-4.23861
0
LINE
8
BLACK
6
CONTINUOUS
10
5.39704
20
-4.23861
11
5.39692
21
-4.23833
0
LINE
8
BLACK
6
CONTINUOUS
10
5.39692
20
-4.23833
11
5.39669
21
-4.23813
0
LINE
8
BLACK
6
CONTINUOUS
10
5.39669
20
-4.23813
11
5.39449
21
-4.23372
0
LINE
8
BLACK
6
CONTINUOUS
10
5.39449
20
-4.23372
11
5.39446
21
-4.2333
0
LINE
8
BLACK
6
CONTINUOUS
10
5.39446
20
-4.2333
11
5.39429
21
-4.2329
0
LINE
8
BLACK
6
CONTINUOUS
10
5.39429
20
-4.2329
11
5.39429
21
-4.22187
0
LINE
8
BLACK
6
CONTINUOUS
10
5.39429
20
-4.22187
11
5.39446
21
-4.22148
0
LINE
8
BLACK
6
CONTINUOUS
10
5.39446
20
-4.22148
11
5.39449
21
-4.22105
0
LINE
8
BLACK
6
CONTINUOUS
10
5.39449
20
-4.22105
11
5.39669
21
-4.21664
0
LINE
8
BLACK
6
CONTINUOUS
10
5.39669
20
-4.21664
11
5.39692
21
-4.21644
0
LINE
8
BLACK
6
CONTINUOUS
10
5.39692
20
-4.21644
11
5.39704
21
-4.21616
0
LINE
8
BLACK
6
CONTINUOUS
10
5.39704
20
-4.21616
11
5.39924
21
-4.21395
0
LINE
8
BLACK
6
CONTINUOUS
10
5.39924
20
-4.21395
11
5.40055
21
-4.21341
0
LINE
8
BLACK
6
CONTINUOUS
10
5.40055
20
-4.21341
11
5.40185
21
-4.21395
0
LINE
8
BLACK
6
CONTINUOUS
10
5.40185
20
-4.21395
11
5.40239
21
-4.21525
0
LINE
8
BLACK
6
CONTINUOUS
10
5.40239
20
-4.21525
11
5.40185
21
-4.21656
0
LINE
8
BLACK
6
CONTINUOUS
10
5.40185
20
-4.21656
11
5.39985
21
-4.21855
0
LINE
8
BLACK
6
CONTINUOUS
10
5.39985
20
-4.21855
11
5.39797
21
-4.22231
0
LINE
8
BLACK
6
CONTINUOUS
10
5.39797
20
-4.22231
11
5.39797
21
-4.23247
0
LINE
8
BLACK
6
CONTINUOUS
10
5.39797
20
-4.23247
11
5.39985
21
-4.23622
0
LINE
8
BLACK
6
CONTINUOUS
10
5.39985
20
-4.23622
11
5.40164
21
-4.238
0
LINE
8
BLACK
6
CONTINUOUS
10
5.40164
20
-4.238
11
5.40539
21
-4.23988
0
LINE
8
BLACK
6
CONTINUOUS
10
5.40539
20
-4.23988
11
5.40907
21
-4.23988
0
LINE
8
BLACK
6
CONTINUOUS
10
5.40907
20
-4.23988
11
5.41499
21
-4.23791
0
LINE
8
BLACK
6
CONTINUOUS
10
5.41499
20
-4.23791
11
5.44115
21
-4.21175
0
LINE
8
BLACK
6
CONTINUOUS
10
5.44115
20
-4.21175
11
5.44245
21
-4.21121
0
LINE
8
BLACK
6
CONTINUOUS
10
5.44245
20
-4.21121
11
5.44376
21
-4.21175
0
LINE
8
BLACK
6
CONTINUOUS
10
5.44376
20
-4.21175
11
5.444
21
-4.21234
0
LINE
8
BLACK
6
CONTINUOUS
10
5.444
20
-4.21234
11
5.444
21
-4.18997
0
LINE
8
BLACK
6
CONTINUOUS
10
5.444
20
-4.18997
11
5.44199
21
-4.19598
0
LINE
8
BLACK
6
CONTINUOUS
10
5.44199
20
-4.19598
11
5.44171
21
-4.19631
0
LINE
8
BLACK
6
CONTINUOUS
10
5.44171
20
-4.19631
11
5.44155
21
-4.1967
0
LINE
8
BLACK
6
CONTINUOUS
10
5.44155
20
-4.1967
11
5.43934
21
-4.19891
0
LINE
8
BLACK
6
CONTINUOUS
10
5.43934
20
-4.19891
11
5.43804
21
-4.19945
0
LINE
8
BLACK
6
CONTINUOUS
10
5.43804
20
-4.19945
11
5.43674
21
-4.19891
0
LINE
8
BLACK
6
CONTINUOUS
10
5.43674
20
-4.19891
11
5.4362
21
-4.19761
0
LINE
8
BLACK
6
CONTINUOUS
10
5.4362
20
-4.19761
11
5.43674
21
-4.19631
0
LINE
8
BLACK
6
CONTINUOUS
10
5.43674
20
-4.19631
11
5.43864
21
-4.19441
0
LINE
8
BLACK
6
CONTINUOUS
10
5.43864
20
-4.19441
11
5.44061
21
-4.18849
0
LINE
8
BLACK
6
CONTINUOUS
10
5.44061
20
-4.18849
11
5.44061
21
-4.18467
0
LINE
8
BLACK
6
CONTINUOUS
10
5.44061
20
-4.18467
11
5.43864
21
-4.17875
0
LINE
8
BLACK
6
CONTINUOUS
10
5.43864
20
-4.17875
11
5.43475
21
-4.17486
0
LINE
8
BLACK
6
CONTINUOUS
10
5.43475
20
-4.17486
11
5.43078
21
-4.17288
0
LINE
8
BLACK
6
CONTINUOUS
10
5.43078
20
-4.17288
11
5.42238
21
-4.17077
0
LINE
8
BLACK
6
CONTINUOUS
10
5.42238
20
-4.17077
11
5.41621
21
-4.17077
0
LINE
8
BLACK
6
CONTINUOUS
10
5.41621
20
-4.17077
11
5.4078
21
-4.17288
0
LINE
8
BLACK
6
CONTINUOUS
10
5.4078
20
-4.17288
11
5.40384
21
-4.17486
0
LINE
8
BLACK
6
CONTINUOUS
10
5.40384
20
-4.17486
11
5.39995
21
-4.17875
0
LINE
8
BLACK
6
CONTINUOUS
10
5.39995
20
-4.17875
11
5.39797
21
-4.18467
0
LINE
8
BLACK
6
CONTINUOUS
10
5.39797
20
-4.18467
11
5.39797
21
-4.18849
0
LINE
8
BLACK
6
CONTINUOUS
10
5.39797
20
-4.18849
11
5.39995
21
-4.19441
0
LINE
8
BLACK
6
CONTINUOUS
10
5.39995
20
-4.19441
11
5.40185
21
-4.19631
0
LINE
8
BLACK
6
CONTINUOUS
10
5.40185
20
-4.19631
11
5.40239
21
-4.19761
0
LINE
8
BLACK
6
CONTINUOUS
10
5.40239
20
-4.19761
11
5.40185
21
-4.19891
0
LINE
8
BLACK
6
CONTINUOUS
10
5.40185
20
-4.19891
11
5.40055
21
-4.19945
0
LINE
8
BLACK
6
CONTINUOUS
10
5.40055
20
-4.19945
11
5.39924
21
-4.19891
0
LINE
8
BLACK
6
CONTINUOUS
10
5.39924
20
-4.19891
11
5.39704
21
-4.1967
0
LINE
8
BLACK
6
CONTINUOUS
10
5.39704
20
-4.1967
11
5.39688
21
-4.19631
0
LINE
8
BLACK
6
CONTINUOUS
10
5.39688
20
-4.19631
11
5.39659
21
-4.19598
0
LINE
8
BLACK
6
CONTINUOUS
10
5.39659
20
-4.19598
11
5.39439
21
-4.18937
0
LINE
8
BLACK
6
CONTINUOUS
10
5.39439
20
-4.18937
11
5.39441
21
-4.18907
0
LINE
8
BLACK
6
CONTINUOUS
10
5.39441
20
-4.18907
11
5.39429
21
-4.18879
0
LINE
8
BLACK
6
CONTINUOUS
10
5.39429
20
-4.18879
11
5.39429
21
-4.18437
0
LINE
8
BLACK
6
CONTINUOUS
10
5.39429
20
-4.18437
11
5.39441
21
-4.18409
0
LINE
8
BLACK
6
CONTINUOUS
10
5.39441
20
-4.18409
11
5.39439
21
-4.18379
0
LINE
8
BLACK
6
CONTINUOUS
10
5.39439
20
-4.18379
11
5.39659
21
-4.17718
0
LINE
8
BLACK
6
CONTINUOUS
10
5.39659
20
-4.17718
11
5.39688
21
-4.17685
0
LINE
8
BLACK
6
CONTINUOUS
10
5.39688
20
-4.17685
11
5.39704
21
-4.17646
0
LINE
8
BLACK
6
CONTINUOUS
10
5.39704
20
-4.17646
11
5.40145
21
-4.17204
0
LINE
8
BLACK
6
CONTINUOUS
10
5.40145
20
-4.17204
11
5.40173
21
-4.17193
0
LINE
8
BLACK
6
CONTINUOUS
10
5.40173
20
-4.17193
11
5.40193
21
-4.1717
0
LINE
8
BLACK
6
CONTINUOUS
10
5.40193
20
-4.1717
11
5.40634
21
-4.16949
0
LINE
8
BLACK
6
CONTINUOUS
10
5.40634
20
-4.16949
11
5.40655
21
-4.16948
0
LINE
8
BLACK
6
CONTINUOUS
10
5.40655
20
-4.16948
11
5.40672
21
-4.16935
0
LINE
8
BLACK
6
CONTINUOUS
10
5.40672
20
-4.16935
11
5.41554
21
-4.16715
0
LINE
8
BLACK
6
CONTINUOUS
10
5.41554
20
-4.16715
11
5.41577
21
-4.16718
0
LINE
8
BLACK
6
CONTINUOUS
10
5.41577
20
-4.16718
11
5.41599
21
-4.16709
0
LINE
8
BLACK
6
CONTINUOUS
10
5.41599
20
-4.16709
11
5.4226
21
-4.16709
0
LINE
8
BLACK
6
CONTINUOUS
10
5.4226
20
-4.16709
11
5.42282
21
-4.16718
0
LINE
8
BLACK
6
CONTINUOUS
10
5.42282
20
-4.16718
11
5.42305
21
-4.16715
0
LINE
8
BLACK
6
CONTINUOUS
10
5.42305
20
-4.16715
11
5.43187
21
-4.16935
0
LINE
8
BLACK
6
CONTINUOUS
10
5.43187
20
-4.16935
11
5.43204
21
-4.16948
0
LINE
8
BLACK
6
CONTINUOUS
10
5.43204
20
-4.16948
11
5.43225
21
-4.16949
0
LINE
8
BLACK
6
CONTINUOUS
10
5.43225
20
-4.16949
11
5.43666
21
-4.1717
0
LINE
8
BLACK
6
CONTINUOUS
10
5.43666
20
-4.1717
11
5.43686
21
-4.17193
0
LINE
8
BLACK
6
CONTINUOUS
10
5.43686
20
-4.17193
11
5.43714
21
-4.17204
0
LINE
8
BLACK
6
CONTINUOUS
10
5.43714
20
-4.17204
11
5.44155
21
-4.17646
0
LINE
8
BLACK
6
CONTINUOUS
10
5.44155
20
-4.17646
11
5.44171
21
-4.17685
0
LINE
8
BLACK
6
CONTINUOUS
10
5.44171
20
-4.17685
11
5.44199
21
-4.17718
0
LINE
8
BLACK
6
CONTINUOUS
10
5.44199
20
-4.17718
11
5.444
21
-4.18319
0
LINE
8
BLACK
6
CONTINUOUS
10
5.444
20
-4.18319
11
5.444
21
-4.16525
0
LINE
8
BLACK
6
CONTINUOUS
10
5.444
20
-4.16525
11
5.44473
21
-4.16348
0
LINE
8
BLACK
6
CONTINUOUS
10
5.44473
20
-4.16348
11
5.4465
21
-4.16275
0
LINE
8
BLACK
6
CONTINUOUS
10
5.4465
20
-4.16275
11
5.5715
21
-4.16275
0
LINE
8
BLACK
6
CONTINUOUS
10
5.5715
20
-4.16275
11
5.57327
21
-4.16348
0
LINE
8
BLACK
6
CONTINUOUS
10
5.57327
20
-4.16348
11
5.574
21
-4.16525
0
LINE
8
BLACK
6
CONTINUOUS
10
5.574
20
-4.16525
11
5.574
21
-4.40275
0
LINE
8
BLACK
6
CONTINUOUS
10
5.574
20
-4.40275
11
5.57327
21
-4.40452
0
LINE
8
BLACK
6
CONTINUOUS
10
5.57327
20
-4.40452
11
5.5715
21
-4.40525
0
LINE
8
BLACK
6
CONTINUOUS
10
5.5715
20
-4.40525
11
5.4465
21
-4.40525
0
LINE
8
BLACK
6
CONTINUOUS
10
5.4465
20
-4.40525
11
5.44473
21
-4.40452
0
LINE
8
BLACK
6
CONTINUOUS
10
5.449
20
-4.16775
11
5.449
21
-4.40025
0
LINE
8
BLACK
6
CONTINUOUS
10
5.449
20
-4.40025
11
5.569
21
-4.40025
0
LINE
8
BLACK
6
CONTINUOUS
10
5.569
20
-4.40025
11
5.569
21
-4.16775
0
LINE
8
BLACK
6
CONTINUOUS
10
5.569
20
-4.16775
11
5.449
21
-4.16775
0
LINE
8
BLACK
6
CONTINUOUS
10
5.41401
20
-4.26121
11
5.4056
21
-4.26331
0
LINE
8
BLACK
6
CONTINUOUS
10
5.4056
20
-4.26331
11
5.40164
21
-4.26529
0
LINE
8
BLACK
6
CONTINUOUS
10
5.40164
20
-4.26529
11
5.39985
21
-4.26708
0
LINE
8
BLACK
6
CONTINUOUS
10
5.39985
20
-4.26708
11
5.39797
21
-4.27083
0
LINE
8
BLACK
6
CONTINUOUS
10
5.39797
20
-4.27083
11
5.39797
21
-4.27437
0
LINE
8
BLACK
6
CONTINUOUS
10
5.39797
20
-4.27437
11
5.39985
21
-4.27813
0
LINE
8
BLACK
6
CONTINUOUS
10
5.39985
20
-4.27813
11
5.40164
21
-4.27991
0
LINE
8
BLACK
6
CONTINUOUS
10
5.40164
20
-4.27991
11
5.4056
21
-4.2819
0
LINE
8
BLACK
6
CONTINUOUS
10
5.4056
20
-4.2819
11
5.41401
21
-4.284
0
LINE
8
BLACK
6
CONTINUOUS
10
5.41401
20
-4.284
11
5.42458
21
-4.284
0
LINE
8
BLACK
6
CONTINUOUS
10
5.42458
20
-4.284
11
5.43299
21
-4.2819
0
LINE
8
BLACK
6
CONTINUOUS
10
5.43299
20
-4.2819
11
5.43695
21
-4.27991
0
LINE
8
BLACK
6
CONTINUOUS
10
5.43695
20
-4.27991
11
5.43874
21
-4.27813
0
LINE
8
BLACK
6
CONTINUOUS
10
5.43874
20
-4.27813
11
5.44061
21
-4.27437
0
LINE
8
BLACK
6
CONTINUOUS
10
5.44061
20
-4.27437
11
5.44061
21
-4.27083
0
LINE
8
BLACK
6
CONTINUOUS
10
5.44061
20
-4.27083
11
5.43874
21
-4.26708
0
LINE
8
BLACK
6
CONTINUOUS
10
5.43874
20
-4.26708
11
5.43695
21
-4.26529
0
LINE
8
BLACK
6
CONTINUOUS
10
5.43695
20
-4.26529
11
5.43299
21
-4.26331
0
LINE
8
BLACK
6
CONTINUOUS
10
5.43299
20
-4.26331
11
5.42458
21
-4.26121
0
LINE
8
BLACK
6
CONTINUOUS
10
5.42458
20
-4.26121
11
5.41401
21
-4.26121
0
LINE
8
BLACK
6
CONTINUOUS
10
5.51077
20
-4.33223
11
5.5115
21
-4.334
0
LINE
8
BLACK
6
CONTINUOUS
10
5.5115
20
-4.334
11
5.5115
21
-4.344
0
LINE
8
BLACK
6
CONTINUOUS
10
5.5115
20
-4.344
11
5.5215
21
-4.344
0
LINE
8
BLACK
6
CONTINUOUS
10
5.5215
20
-4.344
11
5.52327
21
-4.34473
0
LINE
8
BLACK
6
CONTINUOUS
10
5.52327
20
-4.34473
11
5.524
21
-4.3465
0
LINE
8
BLACK
6
CONTINUOUS
10
5.524
20
-4.3465
11
5.52327
21
-4.34827
0
LINE
8
BLACK
6
CONTINUOUS
10
5.52327
20
-4.34827
11
5.5215
21
-4.349
0
LINE
8
BLACK
6
CONTINUOUS
10
5.5215
20
-4.349
11
5.5115
21
-4.349
0
LINE
8
BLACK
6
CONTINUOUS
10
5.5115
20
-4.349
11
5.5115
21
-4.359
0
LINE
8
BLACK
6
CONTINUOUS
10
5.5115
20
-4.359
11
5.51077
21
-4.36077
0
LINE
8
BLACK
6
CONTINUOUS
10
5.51077
20
-4.36077
11
5.509
21
-4.3615
0
LINE
8
BLACK
6
CONTINUOUS
10
5.509
20
-4.3615
11
5.50723
21
-4.36077
0
LINE
8
BLACK
6
CONTINUOUS
10
5.50723
20
-4.36077
11
5.5065
21
-4.359
0
LINE
8
BLACK
6
CONTINUOUS
10
5.5065
20
-4.359
11
5.5065
21
-4.349
0
LINE
8
BLACK
6
CONTINUOUS
10
5.5065
20
-4.349
11
5.4965
21
-4.349
0
LINE
8
BLACK
6
CONTINUOUS
10
5.4965
20
-4.349
11
5.49473
21
-4.34827
0
LINE
8
BLACK
6
CONTINUOUS
10
5.49473
20
-4.34827
11
5.494
21
-4.3465
0
LINE
8
BLACK
6
CONTINUOUS
10
5.494
20
-4.3465
11
5.49473
21
-4.34473
0
LINE
8
BLACK
6
CONTINUOUS
10
5.49473
20
-4.34473
11
5.4965
21
-4.344
0
LINE
8
BLACK
6
CONTINUOUS
10
5.4965
20
-4.344
11
5.5065
21
-4.344
0
LINE
8
BLACK
6
CONTINUOUS
10
5.5065
20
-4.344
11
5.5065
21
-4.334
0
LINE
8
BLACK
6
CONTINUOUS
10
5.5065
20
-4.334
11
5.50723
21
-4.33223
0
LINE
8
BLACK
6
CONTINUOUS
10
5.50723
20
-4.33223
11
5.509
21
-4.3315
0
LINE
8
BLACK
6
CONTINUOUS
10
5.509
20
-4.3315
11
5.51077
21
-4.33223
0
LINE
8
BLACK
6
CONTINUOUS
10
5.85818
20
-4.31941
11
5.85848
21
-4.31939
0
LINE
8
BLACK
6
CONTINUOUS
10
5.85848
20
-4.31939
11
5.8651
21
-4.32159
0
LINE
8
BLACK
6
CONTINUOUS
10
5.8651
20
-4.32159
11
5.86542
21
-4.32188
0
LINE
8
BLACK
6
CONTINUOUS
10
5.86542
20
-4.32188
11
5.86582
21
-4.32204
0
LINE
8
BLACK
6
CONTINUOUS
10
5.86582
20
-4.32204
11
5.87023
21
-4.32645
0
LINE
8
BLACK
6
CONTINUOUS
10
5.87023
20
-4.32645
11
5.87034
21
-4.32673
0
LINE
8
BLACK
6
CONTINUOUS
10
5.87034
20
-4.32673
11
5.87057
21
-4.32693
0
LINE
8
BLACK
6
CONTINUOUS
10
5.87057
20
-4.32693
11
5.87278
21
-4.33134
0
LINE
8
BLACK
6
CONTINUOUS
10
5.87278
20
-4.33134
11
5.87279
21
-4.33155
0
LINE
8
BLACK
6
CONTINUOUS
10
5.87279
20
-4.33155
11
5.87292
21
-4.33172
0
LINE
8
BLACK
6
CONTINUOUS
10
5.87292
20
-4.33172
11
5.87512
21
-4.34054
0
LINE
8
BLACK
6
CONTINUOUS
10
5.87512
20
-4.34054
11
5.87509
21
-4.34077
0
LINE
8
BLACK
6
CONTINUOUS
10
5.87509
20
-4.34077
11
5.87518
21
-4.34099
0
LINE
8
BLACK
6
CONTINUOUS
10
5.87518
20
-4.34099
11
5.87518
21
-4.3476
0
LINE
8
BLACK
6
CONTINUOUS
10
5.87518
20
-4.3476
11
5.87509
21
-4.34782
0
LINE
8
BLACK
6
CONTINUOUS
10
5.87509
20
-4.34782
11
5.87512
21
-4.34805
0
LINE
8
BLACK
6
CONTINUOUS
10
5.87512
20
-4.34805
11
5.87292
21
-4.35687
0
LINE
8
BLACK
6
CONTINUOUS
10
5.87292
20
-4.35687
11
5.87279
21
-4.35704
0
LINE
8
BLACK
6
CONTINUOUS
10
5.87279
20
-4.35704
11
5.87278
21
-4.35725
0
LINE
8
BLACK
6
CONTINUOUS
10
5.87278
20
-4.35725
11
5.87057
21
-4.36166
0
LINE
8
BLACK
6
CONTINUOUS
10
5.87057
20
-4.36166
11
5.87034
21
-4.36186
0
LINE
8
BLACK
6
CONTINUOUS
10
5.87034
20
-4.36186
11
5.87023
21
-4.36214
0
LINE
8
BLACK
6
CONTINUOUS
10
5.87023
20
-4.36214
11
5.86582
21
-4.36655
0
LINE
8
BLACK
6
CONTINUOUS
10
5.86582
20
-4.36655
11
5.86542
21
-4.36671
0
LINE
8
BLACK
6
CONTINUOUS
10
5.86542
20
-4.36671
11
5.8651
21
-4.36699
0
LINE
8
BLACK
6
CONTINUOUS
10
5.8651
20
-4.36699
11
5.85848
21
-4.3692
0
LINE
8
BLACK
6
CONTINUOUS
10
5.85848
20
-4.3692
11
5.85818
21
-4.36918
0
LINE
8
BLACK
6
CONTINUOUS
10
5.85818
20
-4.36918
11
5.8579
21
-4.36929
0
LINE
8
BLACK
6
CONTINUOUS
10
5.8579
20
-4.36929
11
5.85349
21
-4.36929
0
LINE
8
BLACK
6
CONTINUOUS
10
5.85349
20
-4.36929
11
5.85321
21
-4.36918
0
LINE
8
BLACK
6
CONTINUOUS
10
5.85321
20
-4.36918
11
5.8529
21
-4.3692
0
LINE
8
BLACK
6
CONTINUOUS
10
5.8529
20
-4.3692
11
5.84629
21
-4.36699
0
LINE
8
BLACK
6
CONTINUOUS
10
5.84629
20
-4.36699
11
5.84596
21
-4.36671
0
LINE
8
BLACK
6
CONTINUOUS
10
5.84596
20
-4.36671
11
5.84557
21
-4.36655
0
LINE
8
BLACK
6
CONTINUOUS
10
5.84557
20
-4.36655
11
5.84336
21
-4.36434
0
LINE
8
BLACK
6
CONTINUOUS
10
5.84336
20
-4.36434
11
5.84282
21
-4.36304
0
LINE
8
BLACK
6
CONTINUOUS
10
5.84282
20
-4.36304
11
5.84336
21
-4.36174
0
LINE
8
BLACK
6
CONTINUOUS
10
5.84336
20
-4.36174
11
5.84466
21
-4.3612
0
LINE
8
BLACK
6
CONTINUOUS
10
5.84466
20
-4.3612
11
5.84596
21
-4.36174
0
LINE
8
BLACK
6
CONTINUOUS
10
5.84596
20
-4.36174
11
5.84786
21
-4.36364
0
LINE
8
BLACK
6
CONTINUOUS
10
5.84786
20
-4.36364
11
5.85378
21
-4.36561
0
LINE
8
BLACK
6
CONTINUOUS
10
5.85378
20
-4.36561
11
5.8576
21
-4.36561
0
LINE
8
BLACK
6
CONTINUOUS
10
5.8576
20
-4.36561
11
5.86352
21
-4.36364
0
LINE
8
BLACK
6
CONTINUOUS
10
5.86352
20
-4.36364
11
5.86741
21
-4.35975
0
LINE
8
BLACK
6
CONTINUOUS
10
5.86741
20
-4.35975
11
5.8694
21
-4.35578
0
LINE
8
BLACK
6
CONTINUOUS
10
5.8694
20
-4.35578
11
5.8715
21
-4.34738
0
LINE
8
BLACK
6
CONTINUOUS
10
5.8715
20
-4.34738
11
5.8715
21
-4.34121
0
LINE
8
BLACK
6
CONTINUOUS
10
5.8715
20
-4.34121
11
5.8694
21
-4.3328
0
LINE
8
BLACK
6
CONTINUOUS
10
5.8694
20
-4.3328
11
5.86741
21
-4.32884
0
LINE
8
BLACK
6
CONTINUOUS
10
5.86741
20
-4.32884
11
5.86352
21
-4.32495
0
LINE
8
BLACK
6
CONTINUOUS
10
5.86352
20
-4.32495
11
5.8576
21
-4.32297
0
LINE
8
BLACK
6
CONTINUOUS
10
5.8576
20
-4.32297
11
5.85378
21
-4.32297
0
LINE
8
BLACK
6
CONTINUOUS
10
5.85378
20
-4.32297
11
5.84786
21
-4.32495
0
LINE
8
BLACK
6
CONTINUOUS
10
5.84786
20
-4.32495
11
5.84596
21
-4.32685
0
LINE
8
BLACK
6
CONTINUOUS
10
5.84596
20
-4.32685
11
5.84466
21
-4.32739
0
LINE
8
BLACK
6
CONTINUOUS
10
5.84466
20
-4.32739
11
5.84336
21
-4.32685
0
LINE
8
BLACK
6
CONTINUOUS
10
5.84336
20
-4.32685
11
5.84282
21
-4.32555
0
LINE
8
BLACK
6
CONTINUOUS
10
5.84282
20
-4.32555
11
5.84336
21
-4.32424
0
LINE
8
BLACK
6
CONTINUOUS
10
5.84336
20
-4.32424
11
5.84557
21
-4.32204
0
LINE
8
BLACK
6
CONTINUOUS
10
5.84557
20
-4.32204
11
5.84596
21
-4.32188
0
LINE
8
BLACK
6
CONTINUOUS
10
5.84596
20
-4.32188
11
5.84629
21
-4.32159
0
LINE
8
BLACK
6
CONTINUOUS
10
5.84629
20
-4.32159
11
5.8529
21
-4.31939
0
LINE
8
BLACK
6
CONTINUOUS
10
5.8529
20
-4.31939
11
5.85321
21
-4.31941
0
LINE
8
BLACK
6
CONTINUOUS
10
5.85321
20
-4.31941
11
5.85349
21
-4.31929
0
LINE
8
BLACK
6
CONTINUOUS
10
5.85349
20
-4.31929
11
5.8579
21
-4.31929
0
LINE
8
BLACK
6
CONTINUOUS
10
5.8579
20
-4.31929
11
5.85818
21
-4.31941
0
LINE
8
BLACK
6
CONTINUOUS
10
5.79925
20
-4.36876
11
5.79871
21
-4.36745
0
LINE
8
BLACK
6
CONTINUOUS
10
5.79871
20
-4.36745
11
5.79925
21
-4.36615
0
LINE
8
BLACK
6
CONTINUOUS
10
5.79925
20
-4.36615
11
5.80055
21
-4.36561
0
LINE
8
BLACK
6
CONTINUOUS
10
5.80055
20
-4.36561
11
5.81194
21
-4.36561
0
LINE
8
BLACK
6
CONTINUOUS
10
5.81194
20
-4.36561
11
5.81194
21
-4.32113
0
LINE
8
BLACK
6
CONTINUOUS
10
5.81194
20
-4.32113
11
5.81202
21
-4.32096
0
LINE
8
BLACK
6
CONTINUOUS
10
5.81202
20
-4.32096
11
5.81198
21
-4.32077
0
LINE
8
BLACK
6
CONTINUOUS
10
5.81198
20
-4.32077
11
5.81228
21
-4.32033
0
LINE
8
BLACK
6
CONTINUOUS
10
5.81228
20
-4.32033
11
5.81248
21
-4.31983
0
LINE
8
BLACK
6
CONTINUOUS
10
5.81248
20
-4.31983
11
5.81266
21
-4.31976
0
LINE
8
BLACK
6
CONTINUOUS
10
5.81266
20
-4.31976
11
5.81276
21
-4.3196
0
LINE
8
BLACK
6
CONTINUOUS
10
5.81276
20
-4.3196
11
5.81329
21
-4.3195
0
LINE
8
BLACK
6
CONTINUOUS
10
5.81329
20
-4.3195
11
5.81378
21
-4.31929
0
LINE
8
BLACK
6
CONTINUOUS
10
5.81378
20
-4.31929
11
5.81396
21
-4.31937
0
LINE
8
BLACK
6
CONTINUOUS
10
5.81396
20
-4.31937
11
5.81414
21
-4.31933
0
LINE
8
BLACK
6
CONTINUOUS
10
5.81414
20
-4.31933
11
5.81459
21
-4.31963
0
LINE
8
BLACK
6
CONTINUOUS
10
5.81459
20
-4.31963
11
5.81508
21
-4.31983
0
LINE
8
BLACK
6
CONTINUOUS
10
5.81508
20
-4.31983
11
5.81516
21
-4.32001
0
LINE
8
BLACK
6
CONTINUOUS
10
5.81516
20
-4.32001
11
5.81531
21
-4.32011
0
LINE
8
BLACK
6
CONTINUOUS
10
5.81531
20
-4.32011
11
5.81962
21
-4.32658
0
LINE
8
BLACK
6
CONTINUOUS
10
5.81962
20
-4.32658
11
5.8237
21
-4.33065
0
LINE
8
BLACK
6
CONTINUOUS
10
5.8237
20
-4.33065
11
5.82784
21
-4.33272
0
LINE
8
BLACK
6
CONTINUOUS
10
5.82784
20
-4.33272
11
5.82876
21
-4.33379
0
LINE
8
BLACK
6
CONTINUOUS
10
5.82876
20
-4.33379
11
5.82866
21
-4.33519
0
LINE
8
BLACK
6
CONTINUOUS
10
5.82866
20
-4.33519
11
5.8276
21
-4.33611
0
LINE
8
BLACK
6
CONTINUOUS
10
5.8276
20
-4.33611
11
5.82619
21
-4.33601
0
LINE
8
BLACK
6
CONTINUOUS
10
5.82619
20
-4.33601
11
5.82178
21
-4.33381
0
LINE
8
BLACK
6
CONTINUOUS
10
5.82178
20
-4.33381
11
5.82158
21
-4.33358
0
LINE
8
BLACK
6
CONTINUOUS
10
5.82158
20
-4.33358
11
5.8213
21
-4.33346
0
LINE
8
BLACK
6
CONTINUOUS
10
5.8213
20
-4.33346
11
5.81689
21
-4.32905
0
LINE
8
BLACK
6
CONTINUOUS
10
5.81689
20
-4.32905
11
5.81682
21
-4.32888
0
LINE
8
BLACK
6
CONTINUOUS
10
5.81682
20
-4.32888
11
5.81666
21
-4.32877
0
LINE
8
BLACK
6
CONTINUOUS
10
5.81666
20
-4.32877
11
5.81562
21
-4.32721
0
LINE
8
BLACK
6
CONTINUOUS
10
5.81562
20
-4.32721
11
5.81562
21
-4.36561
0
LINE
8
BLACK
6
CONTINUOUS
10
5.81562
20
-4.36561
11
5.82702
21
-4.36561
0
LINE
8
BLACK
6
CONTINUOUS
10
5.82702
20
-4.36561
11
5.82832
21
-4.36615
0
LINE
8
BLACK
6
CONTINUOUS
10
5.82832
20
-4.36615
11
5.82886
21
-4.36745
0
LINE
8
BLACK
6
CONTINUOUS
10
5.82886
20
-4.36745
11
5.82832
21
-4.36876
0
LINE
8
BLACK
6
CONTINUOUS
10
5.82832
20
-4.36876
11
5.82702
21
-4.36929
0
LINE
8
BLACK
6
CONTINUOUS
10
5.82702
20
-4.36929
11
5.80055
21
-4.36929
0
LINE
8
BLACK
6
CONTINUOUS
10
5.80055
20
-4.36929
11
5.79925
21
-4.36876
0
LINE
8
BLACK
6
CONTINUOUS
10
5.77006
20
-4.31946
11
5.77049
21
-4.31949
0
LINE
8
BLACK
6
CONTINUOUS
10
5.77049
20
-4.31949
11
5.7749
21
-4.32169
0
LINE
8
BLACK
6
CONTINUOUS
10
5.7749
20
-4.32169
11
5.7751
21
-4.32192
0
LINE
8
BLACK
6
CONTINUOUS
10
5.7751
20
-4.32192
11
5.77538
21
-4.32204
0
LINE
8
BLACK
6
CONTINUOUS
10
5.77538
20
-4.32204
11
5.77759
21
-4.32424
0
LINE
8
BLACK
6
CONTINUOUS
10
5.77759
20
-4.32424
11
5.77766
21
-4.32442
0
LINE
8
BLACK
6
CONTINUOUS
10
5.77766
20
-4.32442
11
5.77782
21
-4.32453
0
LINE
8
BLACK
6
CONTINUOUS
10
5.77782
20
-4.32453
11
5.78223
21
-4.33114
0
LINE
8
BLACK
6
CONTINUOUS
10
5.78223
20
-4.33114
11
5.78229
21
-4.33146
0
LINE
8
BLACK
6
CONTINUOUS
10
5.78229
20
-4.33146
11
5.78248
21
-4.33172
0
LINE
8
BLACK
6
CONTINUOUS
10
5.78248
20
-4.33172
11
5.78469
21
-4.34054
0
LINE
8
BLACK
6
CONTINUOUS
10
5.78469
20
-4.34054
11
5.78465
21
-4.34077
0
LINE
8
BLACK
6
CONTINUOUS
10
5.78465
20
-4.34077
11
5.78474
21
-4.34099
0
LINE
8
BLACK
6
CONTINUOUS
10
5.78474
20
-4.34099
11
5.78474
21
-4.35863
0
LINE
8
BLACK
6
CONTINUOUS
10
5.78474
20
-4.35863
11
5.78458
21
-4.35903
0
LINE
8
BLACK
6
CONTINUOUS
10
5.78458
20
-4.35903
11
5.78455
21
-4.35945
0
LINE
8
BLACK
6
CONTINUOUS
10
5.78455
20
-4.35945
11
5.78234
21
-4.36387
0
LINE
8
BLACK
6
CONTINUOUS
10
5.78234
20
-4.36387
11
5.78211
21
-4.36406
0
LINE
8
BLACK
6
CONTINUOUS
10
5.78211
20
-4.36406
11
5.782
21
-4.36434
0
LINE
8
BLACK
6
CONTINUOUS
10
5.782
20
-4.36434
11
5.77979
21
-4.36655
0
LINE
8
BLACK
6
CONTINUOUS
10
5.77979
20
-4.36655
11
5.77951
21
-4.36667
0
LINE
8
BLACK
6
CONTINUOUS
10
5.77951
20
-4.36667
11
5.77931
21
-4.36689
0
LINE
8
BLACK
6
CONTINUOUS
10
5.77931
20
-4.36689
11
5.7749
21
-4.3691
0
LINE
8
BLACK
6
CONTINUOUS
10
5.7749
20
-4.3691
11
5.77448
21
-4.36913
0
LINE
8
BLACK
6
CONTINUOUS
10
5.77448
20
-4.36913
11
5.77408
21
-4.36929
0
LINE
8
BLACK
6
CONTINUOUS
10
5.77408
20
-4.36929
11
5.76526
21
-4.36929
0
LINE
8
BLACK
6
CONTINUOUS
10
5.76526
20
-4.36929
11
5.76486
21
-4.36913
0
LINE
8
BLACK
6
CONTINUOUS
10
5.76486
20
-4.36913
11
5.76443
21
-4.3691
0
LINE
8
BLACK
6
CONTINUOUS
10
5.76443
20
-4.3691
11
5.76002
21
-4.36689
0
LINE
8
BLACK
6
CONTINUOUS
10
5.76002
20
-4.36689
11
5.75982
21
-4.36667
0
LINE
8
BLACK
6
CONTINUOUS
10
5.75982
20
-4.36667
11
5.75954
21
-4.36655
0
LINE
8
BLACK
6
CONTINUOUS
10
5.75954
20
-4.36655
11
5.75734
21
-4.36434
0
LINE
8
BLACK
6
CONTINUOUS
10
5.75734
20
-4.36434
11
5.75722
21
-4.36406
0
LINE
8
BLACK
6
CONTINUOUS
10
5.75722
20
-4.36406
11
5.75699
21
-4.36387
0
LINE
8
BLACK
6
CONTINUOUS
10
5.75699
20
-4.36387
11
5.75479
21
-4.35945
0
LINE
8
BLACK
6
CONTINUOUS
10
5.75479
20
-4.35945
11
5.75476
21
-4.35903
0
LINE
8
BLACK
6
CONTINUOUS
10
5.75476
20
-4.35903
11
5.75459
21
-4.35863
0
LINE
8
BLACK
6
CONTINUOUS
10
5.75459
20
-4.35863
11
5.75459
21
-4.3476
0
LINE
8
BLACK
6
CONTINUOUS
10
5.75459
20
-4.3476
11
5.75476
21
-4.34721
0
LINE
8
BLACK
6
CONTINUOUS
10
5.75476
20
-4.34721
11
5.75479
21
-4.34678
0
LINE
8
BLACK
6
CONTINUOUS
10
5.75479
20
-4.34678
11
5.75699
21
-4.34237
0
LINE
8
BLACK
6
CONTINUOUS
10
5.75699
20
-4.34237
11
5.75722
21
-4.34217
0
LINE
8
BLACK
6
CONTINUOUS
10
5.75722
20
-4.34217
11
5.75734
21
-4.34189
0
LINE
8
BLACK
6
CONTINUOUS
10
5.75734
20
-4.34189
11
5.75954
21
-4.33968
0
LINE
8
BLACK
6
CONTINUOUS
10
5.75954
20
-4.33968
11
5.75982
21
-4.33957
0
LINE
8
BLACK
6
CONTINUOUS
10
5.75982
20
-4.33957
11
5.76002
21
-4.33934
0
LINE
8
BLACK
6
CONTINUOUS
10
5.76002
20
-4.33934
11
5.76443
21
-4.33713
0
LINE
8
BLACK
6
CONTINUOUS
10
5.76443
20
-4.33713
11
5.76486
21
-4.3371
0
LINE
8
BLACK
6
CONTINUOUS
10
5.76486
20
-4.3371
11
5.76526
21
-4.33694
0
LINE
8
BLACK
6
CONTINUOUS
10
5.76526
20
-4.33694
11
5.77408
21
-4.33694
0
LINE
8
BLACK
6
CONTINUOUS
10
5.77408
20
-4.33694
11
5.77448
21
-4.3371
0
LINE
8
BLACK
6
CONTINUOUS
10
5.77448
20
-4.3371
11
5.7749
21
-4.33713
0
LINE
8
BLACK
6
CONTINUOUS
10
5.7749
20
-4.33713
11
5.77931
21
-4.33934
0
LINE
8
BLACK
6
CONTINUOUS
10
5.77931
20
-4.33934
11
5.77951
21
-4.33957
0
LINE
8
BLACK
6
CONTINUOUS
10
5.77951
20
-4.33957
11
5.77979
21
-4.33968
0
LINE
8
BLACK
6
CONTINUOUS
10
5.77979
20
-4.33968
11
5.78098
21
-4.34087
0
LINE
8
BLACK
6
CONTINUOUS
10
5.78098
20
-4.34087
11
5.77899
21
-4.33292
0
LINE
8
BLACK
6
CONTINUOUS
10
5.77899
20
-4.33292
11
5.77486
21
-4.32672
0
LINE
8
BLACK
6
CONTINUOUS
10
5.77486
20
-4.32672
11
5.77299
21
-4.32485
0
LINE
8
BLACK
6
CONTINUOUS
10
5.77299
20
-4.32485
11
5.76923
21
-4.32297
0
LINE
8
BLACK
6
CONTINUOUS
10
5.76923
20
-4.32297
11
5.76085
21
-4.32297
0
LINE
8
BLACK
6
CONTINUOUS
10
5.76085
20
-4.32297
11
5.75954
21
-4.32244
0
LINE
8
BLACK
6
CONTINUOUS
10
5.75954
20
-4.32244
11
5.75901
21
-4.32113
0
LINE
8
BLACK
6
CONTINUOUS
10
5.75901
20
-4.32113
11
5.75954
21
-4.31983
0
LINE
8
BLACK
6
CONTINUOUS
10
5.75954
20
-4.31983
11
5.76085
21
-4.31929
0
LINE
8
BLACK
6
CONTINUOUS
10
5.76085
20
-4.31929
11
5.76967
21
-4.31929
0
LINE
8
BLACK
6
CONTINUOUS
10
5.76967
20
-4.31929
11
5.77006
21
-4.31946
0
LINE
8
BLACK
6
CONTINUOUS
10
5.76569
20
-4.34062
11
5.76194
21
-4.3425
0
LINE
8
BLACK
6
CONTINUOUS
10
5.76194
20
-4.3425
11
5.76015
21
-4.34428
0
LINE
8
BLACK
6
CONTINUOUS
10
5.76015
20
-4.34428
11
5.75827
21
-4.34804
0
LINE
8
BLACK
6
CONTINUOUS
10
5.75827
20
-4.34804
11
5.75827
21
-4.3582
0
LINE
8
BLACK
6
CONTINUOUS
10
5.75827
20
-4.3582
11
5.76015
21
-4.36195
0
LINE
8
BLACK
6
CONTINUOUS
10
5.76015
20
-4.36195
11
5.76194
21
-4.36374
0
LINE
8
BLACK
6
CONTINUOUS
10
5.76194
20
-4.36374
11
5.76569
21
-4.36561
0
LINE
8
BLACK
6
CONTINUOUS
10
5.76569
20
-4.36561
11
5.77365
21
-4.36561
0
LINE
8
BLACK
6
CONTINUOUS
10
5.77365
20
-4.36561
11
5.7774
21
-4.36374
0
LINE
8
BLACK
6
CONTINUOUS
10
5.7774
20
-4.36374
11
5.77918
21
-4.36195
0
LINE
8
BLACK
6
CONTINUOUS
10
5.77918
20
-4.36195
11
5.78106
21
-4.3582
0
LINE
8
BLACK
6
CONTINUOUS
10
5.78106
20
-4.3582
11
5.78106
21
-4.34804
0
LINE
8
BLACK
6
CONTINUOUS
10
5.78106
20
-4.34804
11
5.77918
21
-4.34428
0
LINE
8
BLACK
6
CONTINUOUS
10
5.77918
20
-4.34428
11
5.7774
21
-4.3425
0
LINE
8
BLACK
6
CONTINUOUS
10
5.7774
20
-4.3425
11
5.77365
21
-4.34062
0
LINE
8
BLACK
6
CONTINUOUS
10
5.77365
20
-4.34062
11
5.76569
21
-4.34062
0
LINE
8
BLACK
6
CONTINUOUS
10
5.88601
20
-4.14699
11
5.88601
21
-4.14865
0
LINE
8
BLACK
6
CONTINUOUS
10
5.88601
20
-4.14865
11
5.88957
21
-4.15399
0
LINE
8
BLACK
6
CONTINUOUS
10
5.88957
20
-4.15399
11
5.88984
21
-4.15534
0
LINE
8
BLACK
6
CONTINUOUS
10
5.88984
20
-4.15534
11
5.88907
21
-4.15649
0
LINE
8
BLACK
6
CONTINUOUS
10
5.88907
20
-4.15649
11
5.88772
21
-4.15676
0
LINE
8
BLACK
6
CONTINUOUS
10
5.88772
20
-4.15676
11
5.88657
21
-4.15599
0
LINE
8
BLACK
6
CONTINUOUS
10
5.88657
20
-4.15599
11
5.88601
21
-4.15514
0
LINE
8
BLACK
6
CONTINUOUS
10
5.88601
20
-4.15514
11
5.88601
21
-4.27101
0
LINE
8
BLACK
6
CONTINUOUS
10
5.88601
20
-4.27101
11
5.88528
21
-4.27278
0
LINE
8
BLACK
6
CONTINUOUS
10
5.88528
20
-4.27278
11
5.88351
21
-4.27351
0
LINE
8
BLACK
6
CONTINUOUS
10
5.88351
20
-4.27351
11
5.75949
21
-4.27351
0
LINE
8
BLACK
6
CONTINUOUS
10
5.75949
20
-4.27351
11
5.75772
21
-4.27278
0
LINE
8
BLACK
6
CONTINUOUS
10
5.75772
20
-4.27278
11
5.75699
21
-4.27101
0
LINE
8
BLACK
6
CONTINUOUS
10
5.75699
20
-4.27101
11
5.75699
21
-4.23179
0
LINE
8
BLACK
6
CONTINUOUS
10
5.75699
20
-4.23179
11
5.7476
21
-4.23179
0
LINE
8
BLACK
6
CONTINUOUS
10
5.7476
20
-4.23179
11
5.74721
21
-4.23163
0
LINE
8
BLACK
6
CONTINUOUS
10
5.74721
20
-4.23163
11
5.74678
21
-4.2316
0
LINE
8
BLACK
6
CONTINUOUS
10
5.74678
20
-4.2316
11
5.74237
21
-4.22939
0
LINE
8
BLACK
6
CONTINUOUS
10
5.74237
20
-4.22939
11
5.74217
21
-4.22916
0
LINE
8
BLACK
6
CONTINUOUS
10
5.74217
20
-4.22916
11
5.74189
21
-4.22905
0
LINE
8
BLACK
6
CONTINUOUS
10
5.74189
20
-4.22905
11
5.73968
21
-4.22684
0
LINE
8
BLACK
6
CONTINUOUS
10
5.73968
20
-4.22684
11
5.73957
21
-4.22656
0
LINE
8
BLACK
6
CONTINUOUS
10
5.73957
20
-4.22656
11
5.73934
21
-4.22636
0
LINE
8
BLACK
6
CONTINUOUS
10
5.73934
20
-4.22636
11
5.73713
21
-4.22195
0
LINE
8
BLACK
6
CONTINUOUS
10
5.73713
20
-4.22195
11
5.7371
21
-4.22152
0
LINE
8
BLACK
6
CONTINUOUS
10
5.7371
20
-4.22152
11
5.73694
21
-4.22113
0
LINE
8
BLACK
6
CONTINUOUS
10
5.73694
20
-4.22113
11
5.73694
21
-4.21857
0
LINE
8
BLACK
6
CONTINUOUS
10
5.73694
20
-4.21857
11
5.72235
21
-4.23134
0
LINE
8
BLACK
6
CONTINUOUS
10
5.72235
20
-4.23134
11
5.72173
21
-4.23154
0
LINE
8
BLACK
6
CONTINUOUS
10
5.72173
20
-4.23154
11
5.72113
21
-4.23179
0
LINE
8
BLACK
6
CONTINUOUS
10
5.72113
20
-4.23179
11
5.72107
21
-4.23177
0
LINE
8
BLACK
6
CONTINUOUS
10
5.72107
20
-4.23177
11
5.72101
21
-4.23179
0
LINE
8
BLACK
6
CONTINUOUS
10
5.72101
20
-4.23179
11
5.72043
21
-4.2315
0
LINE
8
BLACK
6
CONTINUOUS
10
5.72043
20
-4.2315
11
5.71983
21
-4.23125
0
LINE
8
BLACK
6
CONTINUOUS
10
5.71983
20
-4.23125
11
5.71981
21
-4.23119
0
LINE
8
BLACK
6
CONTINUOUS
10
5.71981
20
-4.23119
11
5.71975
21
-4.23116
0
LINE
8
BLACK
6
CONTINUOUS
10
5.71975
20
-4.23116
11
5.71954
21
-4.23055
0
LINE
8
BLACK
6
CONTINUOUS
10
5.71954
20
-4.23055
11
5.71929
21
-4.22995
0
LINE
8
BLACK
6
CONTINUOUS
10
5.71929
20
-4.22995
11
5.71929
21
-4.20128
0
LINE
8
BLACK
6
CONTINUOUS
10
5.71929
20
-4.20128
11
5.71983
21
-4.19998
0
LINE
8
BLACK
6
CONTINUOUS
10
5.71983
20
-4.19998
11
5.72113
21
-4.19944
0
LINE
8
BLACK
6
CONTINUOUS
10
5.72113
20
-4.19944
11
5.72244
21
-4.19998
0
LINE
8
BLACK
6
CONTINUOUS
10
5.72244
20
-4.19998
11
5.72297
21
-4.20128
0
LINE
8
BLACK
6
CONTINUOUS
10
5.72297
20
-4.20128
11
5.72297
21
-4.2259
0
LINE
8
BLACK
6
CONTINUOUS
10
5.72297
20
-4.2259
11
5.73757
21
-4.21313
0
LINE
8
BLACK
6
CONTINUOUS
10
5.73757
20
-4.21313
11
5.73818
21
-4.21292
0
LINE
8
BLACK
6
CONTINUOUS
10
5.73818
20
-4.21292
11
5.73878
21
-4.21267
0
LINE
8
BLACK
6
CONTINUOUS
10
5.73878
20
-4.21267
11
5.73884
21
-4.2127
0
LINE
8
BLACK
6
CONTINUOUS
10
5.73884
20
-4.2127
11
5.7389
21
-4.21268
0
LINE
8
BLACK
6
CONTINUOUS
10
5.7389
20
-4.21268
11
5.73948
21
-4.21296
0
LINE
8
BLACK
6
CONTINUOUS
10
5.73948
20
-4.21296
11
5.74008
21
-4.21321
0
LINE
8
BLACK
6
CONTINUOUS
10
5.74008
20
-4.21321
11
5.74011
21
-4.21327
0
LINE
8
BLACK
6
CONTINUOUS
10
5.74011
20
-4.21327
11
5.74016
21
-4.2133
0
LINE
8
BLACK
6
CONTINUOUS
10
5.74016
20
-4.2133
11
5.74037
21
-4.21391
0
LINE
8
BLACK
6
CONTINUOUS
10
5.74037
20
-4.21391
11
5.74062
21
-4.21451
0
LINE
8
BLACK
6
CONTINUOUS
10
5.74062
20
-4.21451
11
5.74062
21
-4.22069
0
LINE
8
BLACK
6
CONTINUOUS
10
5.74062
20
-4.22069
11
5.7425
21
-4.22445
0
LINE
8
BLACK
6
CONTINUOUS
10
5.7425
20
-4.22445
11
5.74428
21
-4.22623
0
LINE
8
BLACK
6
CONTINUOUS
10
5.74428
20
-4.22623
11
5.74804
21
-4.22811
0
LINE
8
BLACK
6
CONTINUOUS
10
5.74804
20
-4.22811
11
5.75699
21
-4.22811
0
LINE
8
BLACK
6
CONTINUOUS
10
5.75699
20
-4.22811
11
5.75699
21
-4.18076
0
LINE
8
BLACK
6
CONTINUOUS
10
5.75699
20
-4.18076
11
5.74724
21
-4.17393
0
LINE
8
BLACK
6
CONTINUOUS
10
5.74724
20
-4.17393
11
5.74724
21
-4.17701
0
LINE
8
BLACK
6
CONTINUOUS
10
5.74724
20
-4.17701
11
5.74707
21
-4.17741
0
LINE
8
BLACK
6
CONTINUOUS
10
5.74707
20
-4.17741
11
5.74704
21
-4.17784
0
LINE
8
BLACK
6
CONTINUOUS
10
5.74704
20
-4.17784
11
5.74484
21
-4.18225
0
LINE
8
BLACK
6
CONTINUOUS
10
5.74484
20
-4.18225
11
5.74461
21
-4.18245
0
LINE
8
BLACK
6
CONTINUOUS
10
5.74461
20
-4.18245
11
5.74449
21
-4.18273
0
LINE
8
BLACK
6
CONTINUOUS
10
5.74449
20
-4.18273
11
5.74229
21
-4.18493
0
LINE
8
BLACK
6
CONTINUOUS
10
5.74229
20
-4.18493
11
5.74201
21
-4.18505
0
LINE
8
BLACK
6
CONTINUOUS
10
5.74201
20
-4.18505
11
5.74181
21
-4.18528
0
LINE
8
BLACK
6
CONTINUOUS
10
5.74181
20
-4.18528
11
5.7374
21
-4.18748
0
LINE
8
BLACK
6
CONTINUOUS
10
5.7374
20
-4.18748
11
5.73697
21
-4.18751
0
LINE
8
BLACK
6
CONTINUOUS
10
5.73697
20
-4.18751
11
5.73657
21
-4.18768
0
LINE
8
BLACK
6
CONTINUOUS
10
5.73657
20
-4.18768
11
5.72996
21
-4.18768
0
LINE
8
BLACK
6
CONTINUOUS
10
5.72996
20
-4.18768
11
5.72956
21
-4.18751
0
LINE
8
BLACK
6
CONTINUOUS
10
5.72956
20
-4.18751
11
5.72913
21
-4.18748
0
LINE
8
BLACK
6
CONTINUOUS
10
5.72913
20
-4.18748
11
5.72472
21
-4.18528
0
LINE
8
BLACK
6
CONTINUOUS
10
5.72472
20
-4.18528
11
5.72452
21
-4.18505
0
LINE
8
BLACK
6
CONTINUOUS
10
5.72452
20
-4.18505
11
5.72424
21
-4.18493
0
LINE
8
BLACK
6
CONTINUOUS
10
5.72424
20
-4.18493
11
5.72204
21
-4.18273
0
LINE
8
BLACK
6
CONTINUOUS
10
5.72204
20
-4.18273
11
5.72192
21
-4.18245
0
LINE
8
BLACK
6
CONTINUOUS
10
5.72192
20
-4.18245
11
5.72169
21
-4.18225
0
LINE
8
BLACK
6
CONTINUOUS
10
5.72169
20
-4.18225
11
5.71949
21
-4.17784
0
LINE
8
BLACK
6
CONTINUOUS
10
5.71949
20
-4.17784
11
5.71946
21
-4.17741
0
LINE
8
BLACK
6
CONTINUOUS
10
5.71946
20
-4.17741
11
5.71929
21
-4.17701
0
LINE
8
BLACK
6
CONTINUOUS
10
5.71929
20
-4.17701
11
5.71929
21
-4.15937
0
LINE
8
BLACK
6
CONTINUOUS
10
5.71929
20
-4.15937
11
5.71983
21
-4.15807
0
LINE
8
BLACK
6
CONTINUOUS
10
5.71983
20
-4.15807
11
5.72113
21
-4.15753
0
LINE
8
BLACK
6
CONTINUOUS
10
5.72113
20
-4.15753
11
5.75699
21
-4.15753
0
LINE
8
BLACK
6
CONTINUOUS
10
5.75699
20
-4.15753
11
5.75699
21
-4.14699
0
LINE
8
BLACK
6
CONTINUOUS
10
5.75699
20
-4.14699
11
5.75772
21
-4.14522
0
LINE
8
BLACK
6
CONTINUOUS
10
5.75772
20
-4.14522
11
5.75949
21
-4.14449
0
LINE
8
BLACK
6
CONTINUOUS
10
5.75949
20
-4.14449
11
5.81336
21
-4.14449
0
LINE
8
BLACK
6
CONTINUOUS
10
5.81336
20
-4.14449
11
5.81336
21
-4.1351
0
LINE
8
BLACK
6
CONTINUOUS
10
5.81336
20
-4.1351
11
5.81352
21
-4.13472
0
LINE
8
BLACK
6
CONTINUOUS
10
5.81352
20
-4.13472
11
5.81355
21
-4.1343
0
LINE
8
BLACK
6
CONTINUOUS
10
5.81355
20
-4.1343
11
5.81576
21
-4.12988
0
LINE
8
BLACK
6
CONTINUOUS
10
5.81576
20
-4.12988
11
5.81598
21
-4.12969
0
LINE
8
BLACK
6
CONTINUOUS
10
5.81598
20
-4.12969
11
5.81609
21
-4.12941
0
LINE
8
BLACK
6
CONTINUOUS
10
5.81609
20
-4.12941
11
5.8183
21
-4.1272
0
LINE
8
BLACK
6
CONTINUOUS
10
5.8183
20
-4.1272
11
5.81858
21
-4.12709
0
LINE
8
BLACK
6
CONTINUOUS
10
5.81858
20
-4.12709
11
5.81877
21
-4.12687
0
LINE
8
BLACK
6
CONTINUOUS
10
5.81877
20
-4.12687
11
5.82319
21
-4.12466
0
LINE
8
BLACK
6
CONTINUOUS
10
5.82319
20
-4.12466
11
5.82361
21
-4.12463
0
LINE
8
BLACK
6
CONTINUOUS
10
5.82361
20
-4.12463
11
5.824
21
-4.12447
0
LINE
8
BLACK
6
CONTINUOUS
10
5.824
20
-4.12447
11
5.83504
21
-4.12447
0
LINE
8
BLACK
6
CONTINUOUS
10
5.83504
20
-4.12447
11
5.83543
21
-4.12463
0
LINE
8
BLACK
6
CONTINUOUS
10
5.83543
20
-4.12463
11
5.83585
21
-4.12466
0
LINE
8
BLACK
6
CONTINUOUS
10
5.83585
20
-4.12466
11
5.83944
21
-4.12645
0
LINE
8
BLACK
6
CONTINUOUS
10
5.83944
20
-4.12645
11
5.83783
21
-4.11039
0
LINE
8
BLACK
6
CONTINUOUS
10
5.83783
20
-4.11039
11
5.81737
21
-4.11039
0
LINE
8
BLACK
6
CONTINUOUS
10
5.81737
20
-4.11039
11
5.81609
21
-4.10986
0
LINE
8
BLACK
6
CONTINUOUS
10
5.81609
20
-4.10986
11
5.81557
21
-4.10859
0
LINE
8
BLACK
6
CONTINUOUS
10
5.81557
20
-4.10859
11
5.81609
21
-4.10732
0
LINE
8
BLACK
6
CONTINUOUS
10
5.81609
20
-4.10732
11
5.81737
21
-4.10679
0
LINE
8
BLACK
6
CONTINUOUS
10
5.81737
20
-4.10679
11
5.83946
21
-4.10679
0
LINE
8
BLACK
6
CONTINUOUS
10
5.83946
20
-4.10679
11
5.84002
21
-4.10702
0
LINE
8
BLACK
6
CONTINUOUS
10
5.84002
20
-4.10702
11
5.8406
21
-4.1072
0
LINE
8
BLACK
6
CONTINUOUS
10
5.8406
20
-4.1072
11
5.84065
21
-4.10728
0
LINE
8
BLACK
6
CONTINUOUS
10
5.84065
20
-4.10728
11
5.84073
21
-4.10732
0
LINE
8
BLACK
6
CONTINUOUS
10
5.84073
20
-4.10732
11
5.84097
21
-4.10788
0
LINE
8
BLACK
6
CONTINUOUS
10
5.84097
20
-4.10788
11
5.84125
21
-4.10841
0
LINE
8
BLACK
6
CONTINUOUS
10
5.84125
20
-4.10841
11
5.84346
21
-4.13051
0
LINE
8
BLACK
6
CONTINUOUS
10
5.84346
20
-4.13051
11
5.84343
21
-4.1306
0
LINE
8
BLACK
6
CONTINUOUS
10
5.84343
20
-4.1306
11
5.84347
21
-4.13069
0
LINE
8
BLACK
6
CONTINUOUS
10
5.84347
20
-4.13069
11
5.84324
21
-4.13125
0
LINE
8
BLACK
6
CONTINUOUS
10
5.84324
20
-4.13125
11
5.84306
21
-4.13183
0
LINE
8
BLACK
6
CONTINUOUS
10
5.84306
20
-4.13183
11
5.84298
21
-4.13187
0
LINE
8
BLACK
6
CONTINUOUS
10
5.84298
20
-4.13187
11
5.84294
21
-4.13196
0
LINE
8
BLACK
6
CONTINUOUS
10
5.84294
20
-4.13196
11
5.84238
21
-4.13219
0
LINE
8
BLACK
6
CONTINUOUS
10
5.84238
20
-4.13219
11
5.84185
21
-4.13248
0
LINE
8
BLACK
6
CONTINUOUS
10
5.84185
20
-4.13248
11
5.84176
21
-4.13245
0
LINE
8
BLACK
6
CONTINUOUS
10
5.84176
20
-4.13245
11
5.84167
21
-4.13249
0
LINE
8
BLACK
6
CONTINUOUS
10
5.84167
20
-4.13249
11
5.84111
21
-4.13225
0
LINE
8
BLACK
6
CONTINUOUS
10
5.84111
20
-4.13225
11
5.84053
21
-4.13208
0
LINE
8
BLACK
6
CONTINUOUS
10
5.84053
20
-4.13208
11
5.84049
21
-4.13199
0
LINE
8
BLACK
6
CONTINUOUS
10
5.84049
20
-4.13199
11
5.8404
21
-4.13196
0
LINE
8
BLACK
6
CONTINUOUS
10
5.8404
20
-4.13196
11
5.8384
21
-4.12996
0
LINE
8
BLACK
6
CONTINUOUS
10
5.8384
20
-4.12996
11
5.83462
21
-4.12807
0
LINE
8
BLACK
6
CONTINUOUS
10
5.83462
20
-4.12807
11
5.82442
21
-4.12807
0
LINE
8
BLACK
6
CONTINUOUS
10
5.82442
20
-4.12807
11
5.82064
21
-4.12996
0
LINE
8
BLACK
6
CONTINUOUS
10
5.82064
20
-4.12996
11
5.81885
21
-4.13175
0
LINE
8
BLACK
6
CONTINUOUS
10
5.81885
20
-4.13175
11
5.81696
21
-4.13553
0
LINE
8
BLACK
6
CONTINUOUS
10
5.81696
20
-4.13553
11
5.81696
21
-4.14449
0
LINE
8
BLACK
6
CONTINUOUS
10
5.81696
20
-4.14449
11
5.86197
21
-4.14449
0
LINE
8
BLACK
6
CONTINUOUS
10
5.86197
20
-4.14449
11
5.87044
21
-4.13179
0
LINE
8
BLACK
6
CONTINUOUS
10
5.87044
20
-4.13179
11
5.85564
21
-4.10959
0
LINE
8
BLACK
6
CONTINUOUS
10
5.85564
20
-4.10959
11
5.85537
21
-4.10824
0
LINE
8
BLACK
6
CONTINUOUS
10
5.85537
20
-4.10824
11
5.85614
21
-4.10709
0
LINE
8
BLACK
6
CONTINUOUS
10
5.85614
20
-4.10709
11
5.85749
21
-4.10683
0
LINE
8
BLACK
6
CONTINUOUS
10
5.85749
20
-4.10683
11
5.85864
21
-4.10759
0
LINE
8
BLACK
6
CONTINUOUS
10
5.85864
20
-4.10759
11
5.8726
21
-4.12855
0
LINE
8
BLACK
6
CONTINUOUS
10
5.8726
20
-4.12855
11
5.88657
21
-4.10759
0
LINE
8
BLACK
6
CONTINUOUS
10
5.88657
20
-4.10759
11
5.88772
21
-4.10683
0
LINE
8
BLACK
6
CONTINUOUS
10
5.88772
20
-4.10683
11
5.88907
21
-4.10709
0
LINE
8
BLACK
6
CONTINUOUS
10
5.88907
20
-4.10709
11
5.88984
21
-4.10824
0
LINE
8
BLACK
6
CONTINUOUS
10
5.88984
20
-4.10824
11
5.88957
21
-4.10959
0
LINE
8
BLACK
6
CONTINUOUS
10
5.88957
20
-4.10959
11
5.87477
21
-4.13179
0
LINE
8
BLACK
6
CONTINUOUS
10
5.87477
20
-4.13179
11
5.88324
21
-4.14449
0
LINE
8
BLACK
6
CONTINUOUS
10
5.88324
20
-4.14449
11
5.88351
21
-4.14449
0
LINE
8
BLACK
6
CONTINUOUS
10
5.88351
20
-4.14449
11
5.88528
21
-4.14522
0
LINE
8
BLACK
6
CONTINUOUS
10
5.88528
20
-4.14522
11
5.88601
21
-4.14699
0
LINE
8
BLACK
6
CONTINUOUS
10
5.86297
20
-4.14949
11
5.85864
21
-4.15599
0
LINE
8
BLACK
6
CONTINUOUS
10
5.85864
20
-4.15599
11
5.85749
21
-4.15676
0
LINE
8
BLACK
6
CONTINUOUS
10
5.85749
20
-4.15676
11
5.85614
21
-4.15649
0
LINE
8
BLACK
6
CONTINUOUS
10
5.85614
20
-4.15649
11
5.85537
21
-4.15534
0
LINE
8
BLACK
6
CONTINUOUS
10
5.85537
20
-4.15534
11
5.85564
21
-4.15399
0
LINE
8
BLACK
6
CONTINUOUS
10
5.85564
20
-4.15399
11
5.85864
21
-4.14949
0
LINE
8
BLACK
6
CONTINUOUS
10
5.85864
20
-4.14949
11
5.84302
21
-4.14949
0
LINE
8
BLACK
6
CONTINUOUS
10
5.84302
20
-4.14949
11
5.84347
21
-4.15057
0
LINE
8
BLACK
6
CONTINUOUS
10
5.84347
20
-4.15057
11
5.84294
21
-4.15184
0
LINE
8
BLACK
6
CONTINUOUS
10
5.84294
20
-4.15184
11
5.84073
21
-4.15405
0
LINE
8
BLACK
6
CONTINUOUS
10
5.84073
20
-4.15405
11
5.84046
21
-4.15417
0
LINE
8
BLACK
6
CONTINUOUS
10
5.84046
20
-4.15417
11
5.84027
21
-4.15439
0
LINE
8
BLACK
6
CONTINUOUS
10
5.84027
20
-4.15439
11
5.83585
21
-4.1566
0
LINE
8
BLACK
6
CONTINUOUS
10
5.83585
20
-4.1566
11
5.83543
21
-4.15663
0
LINE
8
BLACK
6
CONTINUOUS
10
5.83543
20
-4.15663
11
5.83504
21
-4.15679
0
LINE
8
BLACK
6
CONTINUOUS
10
5.83504
20
-4.15679
11
5.824
21
-4.15679
0
LINE
8
BLACK
6
CONTINUOUS
10
5.824
20
-4.15679
11
5.82361
21
-4.15663
0
LINE
8
BLACK
6
CONTINUOUS
10
5.82361
20
-4.15663
11
5.82319
21
-4.1566
0
LINE
8
BLACK
6
CONTINUOUS
10
5.82319
20
-4.1566
11
5.81877
21
-4.15439
0
LINE
8
BLACK
6
CONTINUOUS
10
5.81877
20
-4.15439
11
5.81858
21
-4.15417
0
LINE
8
BLACK
6
CONTINUOUS
10
5.81858
20
-4.15417
11
5.8183
21
-4.15405
0
LINE
8
BLACK
6
CONTINUOUS
10
5.8183
20
-4.15405
11
5.81609
21
-4.15184
0
LINE
8
BLACK
6
CONTINUOUS
10
5.81609
20
-4.15184
11
5.81598
21
-4.15157
0
LINE
8
BLACK
6
CONTINUOUS
10
5.81598
20
-4.15157
11
5.81576
21
-4.15138
0
LINE
8
BLACK
6
CONTINUOUS
10
5.81576
20
-4.15138
11
5.81481
21
-4.14949
0
LINE
8
BLACK
6
CONTINUOUS
10
5.81481
20
-4.14949
11
5.76199
21
-4.14949
0
LINE
8
BLACK
6
CONTINUOUS
10
5.76199
20
-4.14949
11
5.76199
21
-4.15753
0
LINE
8
BLACK
6
CONTINUOUS
10
5.76199
20
-4.15753
11
5.76745
21
-4.15753
0
LINE
8
BLACK
6
CONTINUOUS
10
5.76745
20
-4.15753
11
5.76876
21
-4.15807
0
LINE
8
BLACK
6
CONTINUOUS
10
5.76876
20
-4.15807
11
5.76929
21
-4.15937
0
LINE
8
BLACK
6
CONTINUOUS
10
5.76929
20
-4.15937
11
5.76876
21
-4.16067
0
LINE
8
BLACK
6
CONTINUOUS
10
5.76876
20
-4.16067
11
5.76745
21
-4.16121
0
LINE
8
BLACK
6
CONTINUOUS
10
5.76745
20
-4.16121
11
5.76199
21
-4.16121
0
LINE
8
BLACK
6
CONTINUOUS
10
5.76199
20
-4.16121
11
5.76199
21
-4.17977
0
LINE
8
BLACK
6
CONTINUOUS
10
5.76199
20
-4.17977
11
5.76851
21
-4.18433
0
LINE
8
BLACK
6
CONTINUOUS
10
5.76851
20
-4.18433
11
5.76927
21
-4.18552
0
LINE
8
BLACK
6
CONTINUOUS
10
5.76927
20
-4.18552
11
5.76896
21
-4.18689
0
LINE
8
BLACK
6
CONTINUOUS
10
5.76896
20
-4.18689
11
5.76777
21
-4.18765
0
LINE
8
BLACK
6
CONTINUOUS
10
5.76777
20
-4.18765
11
5.7664
21
-4.18734
0
LINE
8
BLACK
6
CONTINUOUS
10
5.7664
20
-4.18734
11
5.76199
21
-4.18426
0
LINE
8
BLACK
6
CONTINUOUS
10
5.76199
20
-4.18426
11
5.76199
21
-4.19987
0
LINE
8
BLACK
6
CONTINUOUS
10
5.76199
20
-4.19987
11
5.76304
21
-4.19944
0
LINE
8
BLACK
6
CONTINUOUS
10
5.76304
20
-4.19944
11
5.76434
21
-4.19998
0
LINE
8
BLACK
6
CONTINUOUS
10
5.76434
20
-4.19998
11
5.76655
21
-4.20218
0
LINE
8
BLACK
6
CONTINUOUS
10
5.76655
20
-4.20218
11
5.76667
21
-4.20246
0
LINE
8
BLACK
6
CONTINUOUS
10
5.76667
20
-4.20246
11
5.76689
21
-4.20266
0
LINE
8
BLACK
6
CONTINUOUS
10
5.76689
20
-4.20266
11
5.7691
21
-4.20707
0
LINE
8
BLACK
6
CONTINUOUS
10
5.7691
20
-4.20707
11
5.76913
21
-4.2075
0
LINE
8
BLACK
6
CONTINUOUS
10
5.76913
20
-4.2075
11
5.76929
21
-4.20789
0
LINE
8
BLACK
6
CONTINUOUS
10
5.76929
20
-4.20789
11
5.76929
21
-4.22113
0
LINE
8
BLACK
6
CONTINUOUS
10
5.76929
20
-4.22113
11
5.76913
21
-4.22152
0
LINE
8
BLACK
6
CONTINUOUS
10
5.76913
20
-4.22152
11
5.7691
21
-4.22195
0
LINE
8
BLACK
6
CONTINUOUS
10
5.7691
20
-4.22195
11
5.76689
21
-4.22636
0
LINE
8
BLACK
6
CONTINUOUS
10
5.76689
20
-4.22636
11
5.76667
21
-4.22656
0
LINE
8
BLACK
6
CONTINUOUS
10
5.76667
20
-4.22656
11
5.76655
21
-4.22684
0
LINE
8
BLACK
6
CONTINUOUS
10
5.76655
20
-4.22684
11
5.76434
21
-4.22905
0
LINE
8
BLACK
6
CONTINUOUS
10
5.76434
20
-4.22905
11
5.76406
21
-4.22916
0
LINE
8
BLACK
6
CONTINUOUS
10
5.76406
20
-4.22916
11
5.76387
21
-4.22939
0
LINE
8
BLACK
6
CONTINUOUS
10
5.76387
20
-4.22939
11
5.76199
21
-4.23033
0
LINE
8
BLACK
6
CONTINUOUS
10
5.76199
20
-4.23033
11
5.76199
21
-4.26851
0
LINE
8
BLACK
6
CONTINUOUS
10
5.76199
20
-4.26851
11
5.88101
21
-4.26851
0
LINE
8
BLACK
6
CONTINUOUS
10
5.88101
20
-4.26851
11
5.88101
21
-4.14949
0
LINE
8
BLACK
6
CONTINUOUS
10
5.88101
20
-4.14949
11
5.86297
21
-4.14949
0
LINE
8
BLACK
6
CONTINUOUS
10
5.76199
20
-4.22619
11
5.76374
21
-4.22445
0
LINE
8
BLACK
6
CONTINUOUS
10
5.76374
20
-4.22445
11
5.76561
21
-4.22069
0
LINE
8
BLACK
6
CONTINUOUS
10
5.76561
20
-4.22069
11
5.76561
21
-4.20833
0
LINE
8
BLACK
6
CONTINUOUS
10
5.76561
20
-4.20833
11
5.76374
21
-4.20457
0
LINE
8
BLACK
6
CONTINUOUS
10
5.76374
20
-4.20457
11
5.76199
21
-4.20283
0
LINE
8
BLACK
6
CONTINUOUS
10
5.76199
20
-4.20283
11
5.76199
21
-4.22619
0
LINE
8
BLACK
6
CONTINUOUS
10
5.72297
20
-4.16121
11
5.72297
21
-4.17658
0
LINE
8
BLACK
6
CONTINUOUS
10
5.72297
20
-4.17658
11
5.72485
21
-4.18034
0
LINE
8
BLACK
6
CONTINUOUS
10
5.72485
20
-4.18034
11
5.72664
21
-4.18212
0
LINE
8
BLACK
6
CONTINUOUS
10
5.72664
20
-4.18212
11
5.73039
21
-4.184
0
LINE
8
BLACK
6
CONTINUOUS
10
5.73039
20
-4.184
11
5.73614
21
-4.184
0
LINE
8
BLACK
6
CONTINUOUS
10
5.73614
20
-4.184
11
5.7399
21
-4.18212
0
LINE
8
BLACK
6
CONTINUOUS
10
5.7399
20
-4.18212
11
5.74168
21
-4.18034
0
LINE
8
BLACK
6
CONTINUOUS
10
5.74168
20
-4.18034
11
5.74356
21
-4.17658
0
LINE
8
BLACK
6
CONTINUOUS
10
5.74356
20
-4.17658
11
5.74356
21
-4.16121
0
LINE
8
BLACK
6
CONTINUOUS
10
5.74356
20
-4.16121
11
5.72297
21
-4.16121
0
LINE
8
BLACK
6
CONTINUOUS
10
5.74724
20
-4.16121
11
5.74724
21
-4.16944
0
LINE
8
BLACK
6
CONTINUOUS
10
5.74724
20
-4.16944
11
5.75699
21
-4.17627
0
LINE
8
BLACK
6
CONTINUOUS
10
5.75699
20
-4.17627
11
5.75699
21
-4.16121
0
LINE
8
BLACK
6
CONTINUOUS
10
5.75699
20
-4.16121
11
5.74724
21
-4.16121
0
LINE
8
BLACK
6
CONTINUOUS
10
5.81884
20
-4.14949
11
5.81885
21
-4.14951
0
LINE
8
BLACK
6
CONTINUOUS
10
5.81885
20
-4.14951
11
5.82064
21
-4.1513
0
LINE
8
BLACK
6
CONTINUOUS
10
5.82064
20
-4.1513
11
5.82442
21
-4.15319
0
LINE
8
BLACK
6
CONTINUOUS
10
5.82442
20
-4.15319
11
5.83462
21
-4.15319
0
LINE
8
BLACK
6
CONTINUOUS
10
5.83462
20
-4.15319
11
5.8384
21
-4.1513
0
LINE
8
BLACK
6
CONTINUOUS
10
5.8384
20
-4.1513
11
5.84021
21
-4.14949
0
LINE
8
BLACK
6
CONTINUOUS
10
5.84021
20
-4.14949
11
5.81884
21
-4.14949
0
LINE
8
BLACK
6
CONTINUOUS
10
5.8663
20
-4.14449
11
5.87891
21
-4.14449
0
LINE
8
BLACK
6
CONTINUOUS
10
5.87891
20
-4.14449
11
5.8726
21
-4.13504
0
LINE
8
BLACK
6
CONTINUOUS
10
5.8726
20
-4.13504
11
5.8663
21
-4.14449
0
LINE
8
BLACK
6
CONTINUOUS
10
5.86199
20
-4.24849
11
5.86498
21
-4.24649
0
LINE
8
BLACK
6
CONTINUOUS
10
5.86498
20
-4.24649
11
5.8685
21
-4.24579
0
LINE
8
BLACK
6
CONTINUOUS
10
5.8685
20
-4.24579
11
5.87202
21
-4.24649
0
LINE
8
BLACK
6
CONTINUOUS
10
5.87202
20
-4.24649
11
5.87501
21
-4.24849
0
LINE
8
BLACK
6
CONTINUOUS
10
5.87501
20
-4.24849
11
5.87701
21
-4.25148
0
LINE
8
BLACK
6
CONTINUOUS
10
5.87701
20
-4.25148
11
5.87771
21
-4.255
0
LINE
8
BLACK
6
CONTINUOUS
10
5.87771
20
-4.255
11
5.87701
21
-4.25852
0
LINE
8
BLACK
6
CONTINUOUS
10
5.87701
20
-4.25852
11
5.87501
21
-4.26151
0
LINE
8
BLACK
6
CONTINUOUS
10
5.87501
20
-4.26151
11
5.87202
21
-4.26351
0
LINE
8
BLACK
6
CONTINUOUS
10
5.87202
20
-4.26351
11
5.8685
21
-4.26421
0
LINE
8
BLACK
6
CONTINUOUS
10
5.8685
20
-4.26421
11
5.86498
21
-4.26351
0
LINE
8
BLACK
6
CONTINUOUS
10
5.86498
20
-4.26351
11
5.86199
21
-4.26151
0
LINE
8
BLACK
6
CONTINUOUS
10
5.86199
20
-4.26151
11
5.85999
21
-4.25852
0
LINE
8
BLACK
6
CONTINUOUS
10
5.85999
20
-4.25852
11
5.85929
21
-4.255
0
LINE
8
BLACK
6
CONTINUOUS
10
5.85929
20
-4.255
11
5.85999
21
-4.25148
0
LINE
8
BLACK
6
CONTINUOUS
10
5.85999
20
-4.25148
11
5.86199
21
-4.24849
0
LINE
8
BLACK
6
CONTINUOUS
10
5.86713
20
-4.25921
11
5.86987
21
-4.25921
0
LINE
8
BLACK
6
CONTINUOUS
10
5.86987
20
-4.25921
11
5.87208
21
-4.2576
0
LINE
8
BLACK
6
CONTINUOUS
10
5.87208
20
-4.2576
11
5.87292
21
-4.255
0
LINE
8
BLACK
6
CONTINUOUS
10
5.87292
20
-4.255
11
5.87208
21
-4.2524
0
LINE
8
BLACK
6
CONTINUOUS
10
5.87208
20
-4.2524
11
5.86987
21
-4.25079
0
LINE
8
BLACK
6
CONTINUOUS
10
5.86987
20
-4.25079
11
5.86713
21
-4.25079
0
LINE
8
BLACK
6
CONTINUOUS
10
5.86713
20
-4.25079
11
5.86492
21
-4.2524
0
LINE
8
BLACK
6
CONTINUOUS
10
5.86492
20
-4.2524
11
5.86408
21
-4.255
0
LINE
8
BLACK
6
CONTINUOUS
10
5.86408
20
-4.255
11
5.86492
21
-4.2576
0
LINE
8
BLACK
6
CONTINUOUS
10
5.86492
20
-4.2576
11
5.86713
21
-4.25921
0
LINE
8
BLACK
6
CONTINUOUS
10
5.3478
20
-4.21607
11
5.3485
21
-4.218
0
LINE
8
BLACK
6
CONTINUOUS
10
5.3485
20
-4.218
11
5.3485
21
-4.237
0
LINE
8
BLACK
6
CONTINUOUS
10
5.3485
20
-4.237
11
5.3775
21
-4.237
0
LINE
8
BLACK
6
CONTINUOUS
10
5.3775
20
-4.237
11
5.37853
21
-4.23718
0
LINE
8
BLACK
6
CONTINUOUS
10
5.37853
20
-4.23718
11
5.3801
21
-4.2385
0
LINE
8
BLACK
6
CONTINUOUS
10
5.3801
20
-4.2385
11
5.38045
21
-4.24052
0
LINE
8
BLACK
6
CONTINUOUS
10
5.38045
20
-4.24052
11
5.37943
21
-4.2423
0
LINE
8
BLACK
6
CONTINUOUS
10
5.37943
20
-4.2423
11
5.3775
21
-4.243
0
LINE
8
BLACK
6
CONTINUOUS
10
5.3775
20
-4.243
11
5.3455
21
-4.243
0
LINE
8
BLACK
6
CONTINUOUS
10
5.3455
20
-4.243
11
5.34511
21
-4.24293
0
LINE
8
BLACK
6
CONTINUOUS
10
5.34511
20
-4.24293
11
5.34498
21
-4.24295
0
LINE
8
BLACK
6
CONTINUOUS
10
5.34498
20
-4.24295
11
5.34486
21
-4.24289
0
LINE
8
BLACK
6
CONTINUOUS
10
5.34486
20
-4.24289
11
5.34447
21
-4.24282
0
LINE
8
BLACK
6
CONTINUOUS
10
5.34447
20
-4.24282
11
5.34388
21
-4.24232
0
LINE
8
BLACK
6
CONTINUOUS
10
5.34388
20
-4.24232
11
5.3432
21
-4.24193
0
LINE
8
BLACK
6
CONTINUOUS
10
5.3432
20
-4.24193
11
5.34311
21
-4.24167
0
LINE
8
BLACK
6
CONTINUOUS
10
5.34311
20
-4.24167
11
5.3429
21
-4.2415
0
LINE
8
BLACK
6
CONTINUOUS
10
5.3429
20
-4.2415
11
5.34277
21
-4.24073
0
LINE
8
BLACK
6
CONTINUOUS
10
5.34277
20
-4.24073
11
5.3425
21
-4.24
0
LINE
8
BLACK
6
CONTINUOUS
10
5.3425
20
-4.24
11
5.3425
21
-4.218
0
LINE
8
BLACK
6
CONTINUOUS
10
5.3425
20
-4.218
11
5.34268
21
-4.21697
0
LINE
8
BLACK
6
CONTINUOUS
10
5.34268
20
-4.21697
11
5.344
21
-4.2154
0
LINE
8
BLACK
6
CONTINUOUS
10
5.344
20
-4.2154
11
5.34602
21
-4.21505
0
LINE
8
BLACK
6
CONTINUOUS
10
5.34602
20
-4.21505
11
5.3478
21
-4.21607
0
LINE
8
BLACK
6
CONTINUOUS
10
5.37853
20
-4.12518
11
5.3801
21
-4.1265
0
LINE
8
BLACK
6
CONTINUOUS
10
5.3801
20
-4.1265
11
5.38045
21
-4.12852
0
LINE
8
BLACK
6
CONTINUOUS
10
5.38045
20
-4.12852
11
5.37943
21
-4.1303
0
LINE
8
BLACK
6
CONTINUOUS
10
5.37943
20
-4.1303
11
5.3775
21
-4.131
0
LINE
8
BLACK
6
CONTINUOUS
10
5.3775
20
-4.131
11
5.3485
21
-4.131
0
LINE
8
BLACK
6
CONTINUOUS
10
5.3485
20
-4.131
11
5.3485
21
-4.15
0
LINE
8
BLACK
6
CONTINUOUS
10
5.3485
20
-4.15
11
5.34832
21
-4.15103
0
LINE
8
BLACK
6
CONTINUOUS
10
5.34832
20
-4.15103
11
5.347
21
-4.1526
0
LINE
8
BLACK
6
CONTINUOUS
10
5.347
20
-4.1526
11
5.34498
21
-4.15295
0
LINE
8
BLACK
6
CONTINUOUS
10
5.34498
20
-4.15295
11
5.3432
21
-4.15193
0
LINE
8
BLACK
6
CONTINUOUS
10
5.3432
20
-4.15193
11
5.3425
21
-4.15
0
LINE
8
BLACK
6
CONTINUOUS
10
5.3425
20
-4.15
11
5.3425
21
-4.128
0
LINE
8
BLACK
6
CONTINUOUS
10
5.3425
20
-4.128
11
5.34257
21
-4.12761
0
LINE
8
BLACK
6
CONTINUOUS
10
5.34257
20
-4.12761
11
5.34255
21
-4.12748
0
LINE
8
BLACK
6
CONTINUOUS
10
5.34255
20
-4.12748
11
5.34261
21
-4.12736
0
LINE
8
BLACK
6
CONTINUOUS
10
5.34261
20
-4.12736
11
5.34268
21
-4.12697
0
LINE
8
BLACK
6
CONTINUOUS
10
5.34268
20
-4.12697
11
5.34318
21
-4.12638
0
LINE
8
BLACK
6
CONTINUOUS
10
5.34318
20
-4.12638
11
5.34357
21
-4.1257
0
LINE
8
BLACK
6
CONTINUOUS
10
5.34357
20
-4.1257
11
5.34383
21
-4.12561
0
LINE
8
BLACK
6
CONTINUOUS
10
5.34383
20
-4.12561
11
5.344
21
-4.1254
0
LINE
8
BLACK
6
CONTINUOUS
10
5.344
20
-4.1254
11
5.34477
21
-4.12527
0
LINE
8
BLACK
6
CONTINUOUS
10
5.34477
20
-4.12527
11
5.3455
21
-4.125
0
LINE
8
BLACK
6
CONTINUOUS
10
5.3455
20
-4.125
11
5.3775
21
-4.125
0
LINE
8
BLACK
6
CONTINUOUS
10
5.3775
20
-4.125
11
5.37853
21
-4.12518
0
LINE
8
BLACK
6
CONTINUOUS
10
5.52741
20
-4.08931
11
5.52784
21
-4.08934
0
LINE
8
BLACK
6
CONTINUOUS
10
5.52784
20
-4.08934
11
5.52804
21
-4.08957
0
LINE
8
BLACK
6
CONTINUOUS
10
5.52804
20
-4.08957
11
5.52832
21
-4.08968
0
LINE
8
BLACK
6
CONTINUOUS
10
5.52832
20
-4.08968
11
5.52848
21
-4.09008
0
LINE
8
BLACK
6
CONTINUOUS
10
5.52848
20
-4.09008
11
5.52876
21
-4.0904
0
LINE
8
BLACK
6
CONTINUOUS
10
5.52876
20
-4.0904
11
5.52874
21
-4.0907
0
LINE
8
BLACK
6
CONTINUOUS
10
5.52874
20
-4.0907
11
5.52885
21
-4.09098
0
LINE
8
BLACK
6
CONTINUOUS
10
5.52885
20
-4.09098
11
5.52885
21
-4.1112
0
LINE
8
BLACK
6
CONTINUOUS
10
5.52885
20
-4.1112
11
5.54245
21
-4.1112
0
LINE
8
BLACK
6
CONTINUOUS
10
5.54245
20
-4.1112
11
5.54376
21
-4.11174
0
LINE
8
BLACK
6
CONTINUOUS
10
5.54376
20
-4.11174
11
5.54429
21
-4.11304
0
LINE
8
BLACK
6
CONTINUOUS
10
5.54429
20
-4.11304
11
5.54376
21
-4.11434
0
LINE
8
BLACK
6
CONTINUOUS
10
5.54376
20
-4.11434
11
5.54245
21
-4.11488
0
LINE
8
BLACK
6
CONTINUOUS
10
5.54245
20
-4.11488
11
5.52885
21
-4.11488
0
LINE
8
BLACK
6
CONTINUOUS
10
5.52885
20
-4.11488
11
5.52885
21
-4.11966
0
LINE
8
BLACK
6
CONTINUOUS
10
5.52885
20
-4.11966
11
5.52832
21
-4.12096
0
LINE
8
BLACK
6
CONTINUOUS
10
5.52832
20
-4.12096
11
5.52701
21
-4.1215
0
LINE
8
BLACK
6
CONTINUOUS
10
5.52701
20
-4.1215
11
5.52571
21
-4.12096
0
LINE
8
BLACK
6
CONTINUOUS
10
5.52571
20
-4.12096
11
5.52517
21
-4.11966
0
LINE
8
BLACK
6
CONTINUOUS
10
5.52517
20
-4.11966
11
5.52517
21
-4.11488
0
LINE
8
BLACK
6
CONTINUOUS
10
5.52517
20
-4.11488
11
5.51157
21
-4.11488
0
LINE
8
BLACK
6
CONTINUOUS
10
5.51157
20
-4.11488
11
5.51027
21
-4.11434
0
LINE
8
BLACK
6
CONTINUOUS
10
5.51027
20
-4.11434
11
5.50973
21
-4.11304
0
LINE
8
BLACK
6
CONTINUOUS
10
5.50973
20
-4.11304
11
5.51027
21
-4.11174
0
LINE
8
BLACK
6
CONTINUOUS
10
5.51027
20
-4.11174
11
5.51157
21
-4.1112
0
LINE
8
BLACK
6
CONTINUOUS
10
5.51157
20
-4.1112
11
5.52517
21
-4.1112
0
LINE
8
BLACK
6
CONTINUOUS
10
5.52517
20
-4.1112
11
5.52517
21
-4.09354
0
LINE
8
BLACK
6
CONTINUOUS
10
5.52517
20
-4.09354
11
5.49451
21
-4.10376
0
LINE
8
BLACK
6
CONTINUOUS
10
5.49451
20
-4.10376
11
5.49311
21
-4.10366
0
LINE
8
BLACK
6
CONTINUOUS
10
5.49311
20
-4.10366
11
5.49218
21
-4.10259
0
LINE
8
BLACK
6
CONTINUOUS
10
5.49218
20
-4.10259
11
5.49228
21
-4.10119
0
LINE
8
BLACK
6
CONTINUOUS
10
5.49228
20
-4.10119
11
5.49335
21
-4.10027
0
LINE
8
BLACK
6
CONTINUOUS
10
5.49335
20
-4.10027
11
5.52643
21
-4.08924
0
LINE
8
BLACK
6
CONTINUOUS
10
5.52643
20
-4.08924
11
5.52673
21
-4.08926
0
LINE
8
BLACK
6
CONTINUOUS
10
5.52673
20
-4.08926
11
5.52701
21
-4.08914
0
LINE
8
BLACK
6
CONTINUOUS
10
5.52701
20
-4.08914
11
5.52741
21
-4.08931
0
LINE
8
BLACK
6
CONTINUOUS
10
5.54376
20
-4.04557
11
5.54429
21
-4.04687
0
LINE
8
BLACK
6
CONTINUOUS
10
5.54429
20
-4.04687
11
5.54376
21
-4.04817
0
LINE
8
BLACK
6
CONTINUOUS
10
5.54376
20
-4.04817
11
5.54245
21
-4.04871
0
LINE
8
BLACK
6
CONTINUOUS
10
5.54245
20
-4.04871
11
5.52224
21
-4.04871
0
LINE
8
BLACK
6
CONTINUOUS
10
5.52224
20
-4.04871
11
5.52224
21
-4.05694
0
LINE
8
BLACK
6
CONTINUOUS
10
5.52224
20
-4.05694
11
5.54351
21
-4.07183
0
LINE
8
BLACK
6
CONTINUOUS
10
5.54351
20
-4.07183
11
5.54427
21
-4.07302
0
LINE
8
BLACK
6
CONTINUOUS
10
5.54427
20
-4.07302
11
5.54396
21
-4.07439
0
LINE
8
BLACK
6
CONTINUOUS
10
5.54396
20
-4.07439
11
5.54277
21
-4.07515
0
LINE
8
BLACK
6
CONTINUOUS
10
5.54277
20
-4.07515
11
5.5414
21
-4.07484
0
LINE
8
BLACK
6
CONTINUOUS
10
5.5414
20
-4.07484
11
5.52224
21
-4.06143
0
LINE
8
BLACK
6
CONTINUOUS
10
5.52224
20
-4.06143
11
5.52224
21
-4.06451
0
LINE
8
BLACK
6
CONTINUOUS
10
5.52224
20
-4.06451
11
5.52207
21
-4.06491
0
LINE
8
BLACK
6
CONTINUOUS
10
5.52207
20
-4.06491
11
5.52204
21
-4.06534
0
LINE
8
BLACK
6
CONTINUOUS
10
5.52204
20
-4.06534
11
5.51984
21
-4.06975
0
LINE
8
BLACK
6
CONTINUOUS
10
5.51984
20
-4.06975
11
5.51961
21
-4.06995
0
LINE
8
BLACK
6
CONTINUOUS
10
5.51961
20
-4.06995
11
5.51949
21
-4.07023
0
LINE
8
BLACK
6
CONTINUOUS
10
5.51949
20
-4.07023
11
5.51729
21
-4.07243
0
LINE
8
BLACK
6
CONTINUOUS
10
5.51729
20
-4.07243
11
5.51701
21
-4.07255
0
LINE
8
BLACK
6
CONTINUOUS
10
5.51701
20
-4.07255
11
5.51681
21
-4.07278
0
LINE
8
BLACK
6
CONTINUOUS
10
5.51681
20
-4.07278
11
5.5124
21
-4.07498
0
LINE
8
BLACK
6
CONTINUOUS
10
5.5124
20
-4.07498
11
5.51197
21
-4.07501
0
LINE
8
BLACK
6
CONTINUOUS
10
5.51197
20
-4.07501
11
5.51157
21
-4.07518
0
LINE
8
BLACK
6
CONTINUOUS
10
5.51157
20
-4.07518
11
5.50496
21
-4.07518
0
LINE
8
BLACK
6
CONTINUOUS
10
5.50496
20
-4.07518
11
5.50456
21
-4.07501
0
LINE
8
BLACK
6
CONTINUOUS
10
5.50456
20
-4.07501
11
5.50413
21
-4.07498
0
LINE
8
BLACK
6
CONTINUOUS
10
5.50413
20
-4.07498
11
5.49972
21
-4.07278
0
LINE
8
BLACK
6
CONTINUOUS
10
5.49972
20
-4.07278
11
5.49952
21
-4.07255
0
LINE
8
BLACK
6
CONTINUOUS
10
5.49952
20
-4.07255
11
5.49924
21
-4.07243
0
LINE
8
BLACK
6
CONTINUOUS
10
5.49924
20
-4.07243
11
5.49704
21
-4.07023
0
LINE
8
BLACK
6
CONTINUOUS
10
5.49704
20
-4.07023
11
5.49692
21
-4.06995
0
LINE
8
BLACK
6
CONTINUOUS
10
5.49692
20
-4.06995
11
5.49669
21
-4.06975
0
LINE
8
BLACK
6
CONTINUOUS
10
5.49669
20
-4.06975
11
5.49449
21
-4.06534
0
LINE
8
BLACK
6
CONTINUOUS
10
5.49449
20
-4.06534
11
5.49446
21
-4.06491
0
LINE
8
BLACK
6
CONTINUOUS
10
5.49446
20
-4.06491
11
5.49429
21
-4.06451
0
LINE
8
BLACK
6
CONTINUOUS
10
5.49429
20
-4.06451
11
5.49429
21
-4.04687
0
LINE
8
BLACK
6
CONTINUOUS
10
5.49429
20
-4.04687
11
5.49483
21
-4.04557
0
LINE
8
BLACK
6
CONTINUOUS
10
5.49483
20
-4.04557
11
5.49613
21
-4.04503
0
LINE
8
BLACK
6
CONTINUOUS
10
5.49613
20
-4.04503
11
5.54245
21
-4.04503
0
LINE
8
BLACK
6
CONTINUOUS
10
5.54245
20
-4.04503
11
5.54376
21
-4.04557
0
LINE
8
BLACK
6
CONTINUOUS
10
5.49797
20
-4.04871
11
5.49797
21
-4.06408
0
LINE
8
BLACK
6
CONTINUOUS
10
5.49797
20
-4.06408
11
5.49985
21
-4.06784
0
LINE
8
BLACK
6
CONTINUOUS
10
5.49985
20
-4.06784
11
5.50164
21
-4.06962
0
LINE
8
BLACK
6
CONTINUOUS
10
5.50164
20
-4.06962
11
5.50539
21
-4.0715
0
LINE
8
BLACK
6
CONTINUOUS
10
5.50539
20
-4.0715
11
5.51114
21
-4.0715
0
LINE
8
BLACK
6
CONTINUOUS
10
5.51114
20
-4.0715
11
5.5149
21
-4.06962
0
LINE
8
BLACK
6
CONTINUOUS
10
5.5149
20
-4.06962
11
5.51668
21
-4.06784
0
LINE
8
BLACK
6
CONTINUOUS
10
5.51668
20
-4.06784
11
5.51856
21
-4.06408
0
LINE
8
BLACK
6
CONTINUOUS
10
5.51856
20
-4.06408
11
5.51856
21
-4.04871
0
LINE
8
BLACK
6
CONTINUOUS
10
5.51856
20
-4.04871
11
5.49797
21
-4.04871
0
LINE
8
BLACK
6
CONTINUOUS
10
5.60626
20
-4.03307
11
5.60679
21
-4.03437
0
LINE
8
BLACK
6
CONTINUOUS
10
5.60679
20
-4.03437
11
5.60679
21
-4.06084
0
LINE
8
BLACK
6
CONTINUOUS
10
5.60679
20
-4.06084
11
5.60626
21
-4.06214
0
LINE
8
BLACK
6
CONTINUOUS
10
5.60626
20
-4.06214
11
5.60495
21
-4.06268
0
LINE
8
BLACK
6
CONTINUOUS
10
5.60495
20
-4.06268
11
5.60365
21
-4.06214
0
LINE
8
BLACK
6
CONTINUOUS
10
5.60365
20
-4.06214
11
5.60311
21
-4.06084
0
LINE
8
BLACK
6
CONTINUOUS
10
5.60311
20
-4.06084
11
5.60311
21
-4.04944
0
LINE
8
BLACK
6
CONTINUOUS
10
5.60311
20
-4.04944
11
5.55863
21
-4.04944
0
LINE
8
BLACK
6
CONTINUOUS
10
5.55863
20
-4.04944
11
5.55846
21
-4.04937
0
LINE
8
BLACK
6
CONTINUOUS
10
5.55846
20
-4.04937
11
5.55827
21
-4.04941
0
LINE
8
BLACK
6
CONTINUOUS
10
5.55827
20
-4.04941
11
5.55783
21
-4.04911
0
LINE
8
BLACK
6
CONTINUOUS
10
5.55783
20
-4.04911
11
5.55733
21
-4.0489
0
LINE
8
BLACK
6
CONTINUOUS
10
5.55733
20
-4.0489
11
5.55726
21
-4.04873
0
LINE
8
BLACK
6
CONTINUOUS
10
5.55726
20
-4.04873
11
5.5571
21
-4.04862
0
LINE
8
BLACK
6
CONTINUOUS
10
5.5571
20
-4.04862
11
5.557
21
-4.0481
0
LINE
8
BLACK
6
CONTINUOUS
10
5.557
20
-4.0481
11
5.55679
21
-4.0476
0
LINE
8
BLACK
6
CONTINUOUS
10
5.55679
20
-4.0476
11
5.55687
21
-4.04743
0
LINE
8
BLACK
6
CONTINUOUS
10
5.55687
20
-4.04743
11
5.55683
21
-4.04724
0
LINE
8
BLACK
6
CONTINUOUS
10
5.55683
20
-4.04724
11
5.55713
21
-4.0468
0
LINE
8
BLACK
6
CONTINUOUS
10
5.55713
20
-4.0468
11
5.55733
21
-4.0463
0
LINE
8
BLACK
6
CONTINUOUS
10
5.55733
20
-4.0463
11
5.55751
21
-4.04623
0
LINE
8
BLACK
6
CONTINUOUS
10
5.55751
20
-4.04623
11
5.55761
21
-4.04607
0
LINE
8
BLACK
6
CONTINUOUS
10
5.55761
20
-4.04607
11
5.56408
21
-4.04176
0
LINE
8
BLACK
6
CONTINUOUS
10
5.56408
20
-4.04176
11
5.56815
21
-4.03769
0
LINE
8
BLACK
6
CONTINUOUS
10
5.56815
20
-4.03769
11
5.57022
21
-4.03355
0
LINE
8
BLACK
6
CONTINUOUS
10
5.57022
20
-4.03355
11
5.57129
21
-4.03262
0
LINE
8
BLACK
6
CONTINUOUS
10
5.57129
20
-4.03262
11
5.57269
21
-4.03272
0
LINE
8
BLACK
6
CONTINUOUS
10
5.57269
20
-4.03272
11
5.57361
21
-4.03379
0
LINE
8
BLACK
6
CONTINUOUS
10
5.57361
20
-4.03379
11
5.57351
21
-4.03519
0
LINE
8
BLACK
6
CONTINUOUS
10
5.57351
20
-4.03519
11
5.57131
21
-4.0396
0
LINE
8
BLACK
6
CONTINUOUS
10
5.57131
20
-4.0396
11
5.57108
21
-4.0398
0
LINE
8
BLACK
6
CONTINUOUS
10
5.57108
20
-4.0398
11
5.57096
21
-4.04008
0
LINE
8
BLACK
6
CONTINUOUS
10
5.57096
20
-4.04008
11
5.56655
21
-4.04449
0
LINE
8
BLACK
6
CONTINUOUS
10
5.56655
20
-4.04449
11
5.56638
21
-4.04456
0
LINE
8
BLACK
6
CONTINUOUS
10
5.56638
20
-4.04456
11
5.56627
21
-4.04472
0
LINE
8
BLACK
6
CONTINUOUS
10
5.56627
20
-4.04472
11
5.56471
21
-4.04576
0
LINE
8
BLACK
6
CONTINUOUS
10
5.56471
20
-4.04576
11
5.60311
21
-4.04576
0
LINE
8
BLACK
6
CONTINUOUS
10
5.60311
20
-4.04576
11
5.60311
21
-4.03437
0
LINE
8
BLACK
6
CONTINUOUS
10
5.60311
20
-4.03437
11
5.60365
21
-4.03307
0
LINE
8
BLACK
6
CONTINUOUS
10
5.60365
20
-4.03307
11
5.60495
21
-4.03253
0
LINE
8
BLACK
6
CONTINUOUS
10
5.60495
20
-4.03253
11
5.60626
21
-4.03307
0
LINE
8
BLACK
6
CONTINUOUS
10
5.32888
20
-4.03269
11
5.32931
21
-4.03272
0
LINE
8
BLACK
6
CONTINUOUS
10
5.32931
20
-4.03272
11
5.33372
21
-4.03493
0
LINE
8
BLACK
6
CONTINUOUS
10
5.33372
20
-4.03493
11
5.33392
21
-4.03516
0
LINE
8
BLACK
6
CONTINUOUS
10
5.33392
20
-4.03516
11
5.3342
21
-4.03527
0
LINE
8
BLACK
6
CONTINUOUS
10
5.3342
20
-4.03527
11
5.3364
21
-4.03748
0
LINE
8
BLACK
6
CONTINUOUS
10
5.3364
20
-4.03748
11
5.33652
21
-4.03776
0
LINE
8
BLACK
6
CONTINUOUS
10
5.33652
20
-4.03776
11
5.33675
21
-4.03796
0
LINE
8
BLACK
6
CONTINUOUS
10
5.33675
20
-4.03796
11
5.33895
21
-4.04237
0
LINE
8
BLACK
6
CONTINUOUS
10
5.33895
20
-4.04237
11
5.33898
21
-4.0428
0
LINE
8
BLACK
6
CONTINUOUS
10
5.33898
20
-4.0428
11
5.33915
21
-4.04319
0
LINE
8
BLACK
6
CONTINUOUS
10
5.33915
20
-4.04319
11
5.33915
21
-4.05201
0
LINE
8
BLACK
6
CONTINUOUS
10
5.33915
20
-4.05201
11
5.33898
21
-4.05241
0
LINE
8
BLACK
6
CONTINUOUS
10
5.33898
20
-4.05241
11
5.33895
21
-4.05284
0
LINE
8
BLACK
6
CONTINUOUS
10
5.33895
20
-4.05284
11
5.33675
21
-4.05725
0
LINE
8
BLACK
6
CONTINUOUS
10
5.33675
20
-4.05725
11
5.33652
21
-4.05745
0
LINE
8
BLACK
6
CONTINUOUS
10
5.33652
20
-4.05745
11
5.3364
21
-4.05773
0
LINE
8
BLACK
6
CONTINUOUS
10
5.3364
20
-4.05773
11
5.33522
21
-4.05891
0
LINE
8
BLACK
6
CONTINUOUS
10
5.33522
20
-4.05891
11
5.34317
21
-4.05692
0
LINE
8
BLACK
6
CONTINUOUS
10
5.34317
20
-4.05692
11
5.34937
21
-4.05279
0
LINE
8
BLACK
6
CONTINUOUS
10
5.34937
20
-4.05279
11
5.35124
21
-4.05092
0
LINE
8
BLACK
6
CONTINUOUS
10
5.35124
20
-4.05092
11
5.35311
21
-4.04717
0
LINE
8
BLACK
6
CONTINUOUS
10
5.35311
20
-4.04717
11
5.35311
21
-4.03878
0
LINE
8
BLACK
6
CONTINUOUS
10
5.35311
20
-4.03878
11
5.35365
21
-4.03748
0
LINE
8
BLACK
6
CONTINUOUS
10
5.35365
20
-4.03748
11
5.35495
21
-4.03694
0
LINE
8
BLACK
6
CONTINUOUS
10
5.35495
20
-4.03694
11
5.35626
21
-4.03748
0
LINE
8
BLACK
6
CONTINUOUS
10
5.35626
20
-4.03748
11
5.35679
21
-4.03878
0
LINE
8
BLACK
6
CONTINUOUS
10
5.35679
20
-4.03878
11
5.35679
21
-4.0476
0
LINE
8
BLACK
6
CONTINUOUS
10
5.35679
20
-4.0476
11
5.35663
21
-4.048
0
LINE
8
BLACK
6
CONTINUOUS
10
5.35663
20
-4.048
11
5.3566
21
-4.04843
0
LINE
8
BLACK
6
CONTINUOUS
10
5.3566
20
-4.04843
11
5.35439
21
-4.05284
0
LINE
8
BLACK
6
CONTINUOUS
10
5.35439
20
-4.05284
11
5.35417
21
-4.05304
0
LINE
8
BLACK
6
CONTINUOUS
10
5.35417
20
-4.05304
11
5.35405
21
-4.05332
0
LINE
8
BLACK
6
CONTINUOUS
10
5.35405
20
-4.05332
11
5.35184
21
-4.05552
0
LINE
8
BLACK
6
CONTINUOUS
10
5.35184
20
-4.05552
11
5.35167
21
-4.05559
0
LINE
8
BLACK
6
CONTINUOUS
10
5.35167
20
-4.05559
11
5.35156
21
-4.05575
0
LINE
8
BLACK
6
CONTINUOUS
10
5.35156
20
-4.05575
11
5.34495
21
-4.06016
0
LINE
8
BLACK
6
CONTINUOUS
10
5.34495
20
-4.06016
11
5.34463
21
-4.06022
0
LINE
8
BLACK
6
CONTINUOUS
10
5.34463
20
-4.06022
11
5.34437
21
-4.06042
0
LINE
8
BLACK
6
CONTINUOUS
10
5.34437
20
-4.06042
11
5.33555
21
-4.06262
0
LINE
8
BLACK
6
CONTINUOUS
10
5.33555
20
-4.06262
11
5.33532
21
-4.06259
0
LINE
8
BLACK
6
CONTINUOUS
10
5.33532
20
-4.06259
11
5.3351
21
-4.06268
0
LINE
8
BLACK
6
CONTINUOUS
10
5.3351
20
-4.06268
11
5.31746
21
-4.06268
0
LINE
8
BLACK
6
CONTINUOUS
10
5.31746
20
-4.06268
11
5.31706
21
-4.06251
0
LINE
8
BLACK
6
CONTINUOUS
10
5.31706
20
-4.06251
11
5.31663
21
-4.06248
0
LINE
8
BLACK
6
CONTINUOUS
10
5.31663
20
-4.06248
11
5.31222
21
-4.06028
0
LINE
8
BLACK
6
CONTINUOUS
10
5.31222
20
-4.06028
11
5.31202
21
-4.06005
0
LINE
8
BLACK
6
CONTINUOUS
10
5.31202
20
-4.06005
11
5.31174
21
-4.05993
0
LINE
8
BLACK
6
CONTINUOUS
10
5.31174
20
-4.05993
11
5.30954
21
-4.05773
0
LINE
8
BLACK
6
CONTINUOUS
10
5.30954
20
-4.05773
11
5.30942
21
-4.05745
0
LINE
8
BLACK
6
CONTINUOUS
10
5.30942
20
-4.05745
11
5.30919
21
-4.05725
0
LINE
8
BLACK
6
CONTINUOUS
10
5.30919
20
-4.05725
11
5.30699
21
-4.05284
0
LINE
8
BLACK
6
CONTINUOUS
10
5.30699
20
-4.05284
11
5.30696
21
-4.05241
0
LINE
8
BLACK
6
CONTINUOUS
10
5.30696
20
-4.05241
11
5.30679
21
-4.05201
0
LINE
8
BLACK
6
CONTINUOUS
10
5.30679
20
-4.05201
11
5.30679
21
-4.04319
0
LINE
8
BLACK
6
CONTINUOUS
10
5.30679
20
-4.04319
11
5.30696
21
-4.0428
0
LINE
8
BLACK
6
CONTINUOUS
10
5.30696
20
-4.0428
11
5.30699
21
-4.04237
0
LINE
8
BLACK
6
CONTINUOUS
10
5.30699
20
-4.04237
11
5.30919
21
-4.03796
0
LINE
8
BLACK
6
CONTINUOUS
10
5.30919
20
-4.03796
11
5.30942
21
-4.03776
0
LINE
8
BLACK
6
CONTINUOUS
10
5.30942
20
-4.03776
11
5.30954
21
-4.03748
0
LINE
8
BLACK
6
CONTINUOUS
10
5.30954
20
-4.03748
11
5.31174
21
-4.03527
0
LINE
8
BLACK
6
CONTINUOUS
10
5.31174
20
-4.03527
11
5.31202
21
-4.03516
0
LINE
8
BLACK
6
CONTINUOUS
10
5.31202
20
-4.03516
11
5.31222
21
-4.03493
0
LINE
8
BLACK
6
CONTINUOUS
10
5.31222
20
-4.03493
11
5.31663
21
-4.03272
0
LINE
8
BLACK
6
CONTINUOUS
10
5.31663
20
-4.03272
11
5.31706
21
-4.03269
0
LINE
8
BLACK
6
CONTINUOUS
10
5.31706
20
-4.03269
11
5.31746
21
-4.03253
0
LINE
8
BLACK
6
CONTINUOUS
10
5.31746
20
-4.03253
11
5.32849
21
-4.03253
0
LINE
8
BLACK
6
CONTINUOUS
10
5.32849
20
-4.03253
11
5.32888
21
-4.03269
0
LINE
8
BLACK
6
CONTINUOUS
10
5.31789
20
-4.03621
11
5.31414
21
-4.03809
0
LINE
8
BLACK
6
CONTINUOUS
10
5.31414
20
-4.03809
11
5.31235
21
-4.03987
0
LINE
8
BLACK
6
CONTINUOUS
10
5.31235
20
-4.03987
11
5.31047
21
-4.04363
0
LINE
8
BLACK
6
CONTINUOUS
10
5.31047
20
-4.04363
11
5.31047
21
-4.05158
0
LINE
8
BLACK
6
CONTINUOUS
10
5.31047
20
-4.05158
11
5.31235
21
-4.05534
0
LINE
8
BLACK
6
CONTINUOUS
10
5.31235
20
-4.05534
11
5.31414
21
-4.05712
0
LINE
8
BLACK
6
CONTINUOUS
10
5.31414
20
-4.05712
11
5.31789
21
-4.059
0
LINE
8
BLACK
6
CONTINUOUS
10
5.31789
20
-4.059
11
5.32805
21
-4.059
0
LINE
8
BLACK
6
CONTINUOUS
10
5.32805
20
-4.059
11
5.33181
21
-4.05712
0
LINE
8
BLACK
6
CONTINUOUS
10
5.33181
20
-4.05712
11
5.33359
21
-4.05534
0
LINE
8
BLACK
6
CONTINUOUS
10
5.33359
20
-4.05534
11
5.33547
21
-4.05158
0
LINE
8
BLACK
6
CONTINUOUS
10
5.33547
20
-4.05158
11
5.33547
21
-4.04363
0
LINE
8
BLACK
6
CONTINUOUS
10
5.33547
20
-4.04363
11
5.33359
21
-4.03987
0
LINE
8
BLACK
6
CONTINUOUS
10
5.33359
20
-4.03987
11
5.33181
21
-4.03809
0
LINE
8
BLACK
6
CONTINUOUS
10
5.33181
20
-4.03809
11
5.32805
21
-4.03621
0
LINE
8
BLACK
6
CONTINUOUS
10
5.32805
20
-4.03621
11
5.31789
21
-4.03621
0
LINE
8
BLACK
6
CONTINUOUS
10
5.35649
20
-3.98703
11
5.35676
21
-3.98841
0
LINE
8
BLACK
6
CONTINUOUS
10
5.35676
20
-3.98841
11
5.35597
21
-3.98958
0
LINE
8
BLACK
6
CONTINUOUS
10
5.35597
20
-3.98958
11
5.33511
21
-4.00349
0
LINE
8
BLACK
6
CONTINUOUS
10
5.33511
20
-4.00349
11
5.35597
21
-4.0174
0
LINE
8
BLACK
6
CONTINUOUS
10
5.35597
20
-4.0174
11
5.35676
21
-4.01857
0
LINE
8
BLACK
6
CONTINUOUS
10
5.35676
20
-4.01857
11
5.35649
21
-4.01995
0
LINE
8
BLACK
6
CONTINUOUS
10
5.35649
20
-4.01995
11
5.35532
21
-4.02073
0
LINE
8
BLACK
6
CONTINUOUS
10
5.35532
20
-4.02073
11
5.35393
21
-4.02046
0
LINE
8
BLACK
6
CONTINUOUS
10
5.35393
20
-4.02046
11
5.33179
21
-4.0057
0
LINE
8
BLACK
6
CONTINUOUS
10
5.33179
20
-4.0057
11
5.30965
21
-4.02046
0
LINE
8
BLACK
6
CONTINUOUS
10
5.30965
20
-4.02046
11
5.30827
21
-4.02073
0
LINE
8
BLACK
6
CONTINUOUS
10
5.30827
20
-4.02073
11
5.3071
21
-4.01995
0
LINE
8
BLACK
6
CONTINUOUS
10
5.3071
20
-4.01995
11
5.30683
21
-4.01857
0
LINE
8
BLACK
6
CONTINUOUS
10
5.30683
20
-4.01857
11
5.30761
21
-4.0174
0
LINE
8
BLACK
6
CONTINUOUS
10
5.30761
20
-4.0174
11
5.32848
21
-4.00349
0
LINE
8
BLACK
6
CONTINUOUS
10
5.32848
20
-4.00349
11
5.30761
21
-3.98958
0
LINE
8
BLACK
6
CONTINUOUS
10
5.30761
20
-3.98958
11
5.30683
21
-3.98841
0
LINE
8
BLACK
6
CONTINUOUS
10
5.30683
20
-3.98841
11
5.3071
21
-3.98703
0
LINE
8
BLACK
6
CONTINUOUS
10
5.3071
20
-3.98703
11
5.30827
21
-3.98624
0
LINE
8
BLACK
6
CONTINUOUS
10
5.30827
20
-3.98624
11
5.30965
21
-3.98652
0
LINE
8
BLACK
6
CONTINUOUS
10
5.30965
20
-3.98652
11
5.33179
21
-4.00128
0
LINE
8
BLACK
6
CONTINUOUS
10
5.33179
20
-4.00128
11
5.35393
21
-3.98652
0
LINE
8
BLACK
6
CONTINUOUS
10
5.35393
20
-3.98652
11
5.35532
21
-3.98624
0
LINE
8
BLACK
6
CONTINUOUS
10
5.35532
20
-3.98624
11
5.35649
21
-3.98703
0
LINE
8
BLACK
6
CONTINUOUS
10
5.58532
20
-3.9863
11
5.58555
21
-3.98626
0
LINE
8
BLACK
6
CONTINUOUS
10
5.58555
20
-3.98626
11
5.59437
21
-3.98847
0
LINE
8
BLACK
6
CONTINUOUS
10
5.59437
20
-3.98847
11
5.59454
21
-3.98859
0
LINE
8
BLACK
6
CONTINUOUS
10
5.59454
20
-3.98859
11
5.59475
21
-3.98861
0
LINE
8
BLACK
6
CONTINUOUS
10
5.59475
20
-3.98861
11
5.59916
21
-3.99081
0
LINE
8
BLACK
6
CONTINUOUS
10
5.59916
20
-3.99081
11
5.59936
21
-3.99104
0
LINE
8
BLACK
6
CONTINUOUS
10
5.59936
20
-3.99104
11
5.59964
21
-3.99116
0
LINE
8
BLACK
6
CONTINUOUS
10
5.59964
20
-3.99116
11
5.60405
21
-3.99557
0
LINE
8
BLACK
6
CONTINUOUS
10
5.60405
20
-3.99557
11
5.60421
21
-3.99597
0
LINE
8
BLACK
6
CONTINUOUS
10
5.60421
20
-3.99597
11
5.60449
21
-3.99629
0
LINE
8
BLACK
6
CONTINUOUS
10
5.60449
20
-3.99629
11
5.6067
21
-4.00291
0
LINE
8
BLACK
6
CONTINUOUS
10
5.6067
20
-4.00291
11
5.60668
21
-4.00321
0
LINE
8
BLACK
6
CONTINUOUS
10
5.60668
20
-4.00321
11
5.60679
21
-4.00349
0
LINE
8
BLACK
6
CONTINUOUS
10
5.60679
20
-4.00349
11
5.60679
21
-4.0079
0
LINE
8
BLACK
6
CONTINUOUS
10
5.60679
20
-4.0079
11
5.60668
21
-4.00818
0
LINE
8
BLACK
6
CONTINUOUS
10
5.60668
20
-4.00818
11
5.6067
21
-4.00848
0
LINE
8
BLACK
6
CONTINUOUS
10
5.6067
20
-4.00848
11
5.60449
21
-4.0151
0
LINE
8
BLACK
6
CONTINUOUS
10
5.60449
20
-4.0151
11
5.60421
21
-4.01542
0
LINE
8
BLACK
6
CONTINUOUS
10
5.60421
20
-4.01542
11
5.60405
21
-4.01582
0
LINE
8
BLACK
6
CONTINUOUS
10
5.60405
20
-4.01582
11
5.60184
21
-4.01802
0
LINE
8
BLACK
6
CONTINUOUS
10
5.60184
20
-4.01802
11
5.60054
21
-4.01856
0
LINE
8
BLACK
6
CONTINUOUS
10
5.60054
20
-4.01856
11
5.59924
21
-4.01802
0
LINE
8
BLACK
6
CONTINUOUS
10
5.59924
20
-4.01802
11
5.5987
21
-4.01672
0
LINE
8
BLACK
6
CONTINUOUS
10
5.5987
20
-4.01672
11
5.59924
21
-4.01542
0
LINE
8
BLACK
6
CONTINUOUS
10
5.59924
20
-4.01542
11
5.60114
21
-4.01352
0
LINE
8
BLACK
6
CONTINUOUS
10
5.60114
20
-4.01352
11
5.60311
21
-4.0076
0
LINE
8
BLACK
6
CONTINUOUS
10
5.60311
20
-4.0076
11
5.60311
21
-4.00379
0
LINE
8
BLACK
6
CONTINUOUS
10
5.60311
20
-4.00379
11
5.60114
21
-3.99787
0
LINE
8
BLACK
6
CONTINUOUS
10
5.60114
20
-3.99787
11
5.59725
21
-3.99397
0
LINE
8
BLACK
6
CONTINUOUS
10
5.59725
20
-3.99397
11
5.59328
21
-3.99199
0
LINE
8
BLACK
6
CONTINUOUS
10
5.59328
20
-3.99199
11
5.58488
21
-3.98989
0
LINE
8
BLACK
6
CONTINUOUS
10
5.58488
20
-3.98989
11
5.57871
21
-3.98989
0
LINE
8
BLACK
6
CONTINUOUS
10
5.57871
20
-3.98989
11
5.57031
21
-3.99199
0
LINE
8
BLACK
6
CONTINUOUS
10
5.57031
20
-3.99199
11
5.56634
21
-3.99397
0
LINE
8
BLACK
6
CONTINUOUS
10
5.56634
20
-3.99397
11
5.56245
21
-3.99787
0
LINE
8
BLACK
6
CONTINUOUS
10
5.56245
20
-3.99787
11
5.56047
21
-4.00379
0
LINE
8
BLACK
6
CONTINUOUS
10
5.56047
20
-4.00379
11
5.56047
21
-4.0076
0
LINE
8
BLACK
6
CONTINUOUS
10
5.56047
20
-4.0076
11
5.56245
21
-4.01352
0
LINE
8
BLACK
6
CONTINUOUS
10
5.56245
20
-4.01352
11
5.56435
21
-4.01542
0
LINE
8
BLACK
6
CONTINUOUS
10
5.56435
20
-4.01542
11
5.56489
21
-4.01672
0
LINE
8
BLACK
6
CONTINUOUS
10
5.56489
20
-4.01672
11
5.56435
21
-4.01802
0
LINE
8
BLACK
6
CONTINUOUS
10
5.56435
20
-4.01802
11
5.56305
21
-4.01856
0
LINE
8
BLACK
6
CONTINUOUS
10
5.56305
20
-4.01856
11
5.56174
21
-4.01802
0
LINE
8
BLACK
6
CONTINUOUS
10
5.56174
20
-4.01802
11
5.55954
21
-4.01582
0
LINE
8
BLACK
6
CONTINUOUS
10
5.55954
20
-4.01582
11
5.55938
21
-4.01542
0
LINE
8
BLACK
6
CONTINUOUS
10
5.55938
20
-4.01542
11
5.55909
21
-4.0151
0
LINE
8
BLACK
6
CONTINUOUS
10
5.55909
20
-4.0151
11
5.55689
21
-4.00848
0
LINE
8
BLACK
6
CONTINUOUS
10
5.55689
20
-4.00848
11
5.55691
21
-4.00818
0
LINE
8
BLACK
6
CONTINUOUS
10
5.55691
20
-4.00818
11
5.55679
21
-4.0079
0
LINE
8
BLACK
6
CONTINUOUS
10
5.55679
20
-4.0079
11
5.55679
21
-4.00349
0
LINE
8
BLACK
6
CONTINUOUS
10
5.55679
20
-4.00349
11
5.55691
21
-4.00321
0
LINE
8
BLACK
6
CONTINUOUS
10
5.55691
20
-4.00321
11
5.55689
21
-4.00291
0
LINE
8
BLACK
6
CONTINUOUS
10
5.55689
20
-4.00291
11
5.55909
21
-3.99629
0
LINE
8
BLACK
6
CONTINUOUS
10
5.55909
20
-3.99629
11
5.55938
21
-3.99597
0
LINE
8
BLACK
6
CONTINUOUS
10
5.55938
20
-3.99597
11
5.55954
21
-3.99557
0
LINE
8
BLACK
6
CONTINUOUS
10
5.55954
20
-3.99557
11
5.56395
21
-3.99116
0
LINE
8
BLACK
6
CONTINUOUS
10
5.56395
20
-3.99116
11
5.56423
21
-3.99104
0
LINE
8
BLACK
6
CONTINUOUS
10
5.56423
20
-3.99104
11
5.56443
21
-3.99081
0
LINE
8
BLACK
6
CONTINUOUS
10
5.56443
20
-3.99081
11
5.56884
21
-3.98861
0
LINE
8
BLACK
6
CONTINUOUS
10
5.56884
20
-3.98861
11
5.56905
21
-3.98859
0
LINE
8
BLACK
6
CONTINUOUS
10
5.56905
20
-3.98859
11
5.56922
21
-3.98847
0
LINE
8
BLACK
6
CONTINUOUS
10
5.56922
20
-3.98847
11
5.57804
21
-3.98626
0
LINE
8
BLACK
6
CONTINUOUS
10
5.57804
20
-3.98626
11
5.57827
21
-3.9863
0
LINE
8
BLACK
6
CONTINUOUS
10
5.57827
20
-3.9863
11
5.57849
21
-3.98621
0
LINE
8
BLACK
6
CONTINUOUS
10
5.57849
20
-3.98621
11
5.5851
21
-3.98621
0
LINE
8
BLACK
6
CONTINUOUS
10
5.5851
20
-3.98621
11
5.58532
21
-3.9863
0
LINE
8
BLACK
6
CONTINUOUS
10
5.76434
20
-3.97718
11
5.76655
21
-3.97939
0
LINE
8
BLACK
6
CONTINUOUS
10
5.76655
20
-3.97939
11
5.76667
21
-3.97967
0
LINE
8
BLACK
6
CONTINUOUS
10
5.76667
20
-3.97967
11
5.76689
21
-3.97987
0
LINE
8
BLACK
6
CONTINUOUS
10
5.76689
20
-3.97987
11
5.7691
21
-3.98428
0
LINE
8
BLACK
6
CONTINUOUS
10
5.7691
20
-3.98428
11
5.76913
21
-3.9847
0
LINE
8
BLACK
6
CONTINUOUS
10
5.76913
20
-3.9847
11
5.76929
21
-3.9851
0
LINE
8
BLACK
6
CONTINUOUS
10
5.76929
20
-3.9851
11
5.76929
21
-3.99613
0
LINE
8
BLACK
6
CONTINUOUS
10
5.76929
20
-3.99613
11
5.76913
21
-3.99652
0
LINE
8
BLACK
6
CONTINUOUS
10
5.76913
20
-3.99652
11
5.7691
21
-3.99695
0
LINE
8
BLACK
6
CONTINUOUS
10
5.7691
20
-3.99695
11
5.76689
21
-4.00136
0
LINE
8
BLACK
6
CONTINUOUS
10
5.76689
20
-4.00136
11
5.76667
21
-4.00156
0
LINE
8
BLACK
6
CONTINUOUS
10
5.76667
20
-4.00156
11
5.76655
21
-4.00184
0
LINE
8
BLACK
6
CONTINUOUS
10
5.76655
20
-4.00184
11
5.76434
21
-4.00405
0
LINE
8
BLACK
6
CONTINUOUS
10
5.76434
20
-4.00405
11
5.76406
21
-4.00416
0
LINE
8
BLACK
6
CONTINUOUS
10
5.76406
20
-4.00416
11
5.76387
21
-4.00439
0
LINE
8
BLACK
6
CONTINUOUS
10
5.76387
20
-4.00439
11
5.75945
21
-4.0066
0
LINE
8
BLACK
6
CONTINUOUS
10
5.75945
20
-4.0066
11
5.75903
21
-4.00663
0
LINE
8
BLACK
6
CONTINUOUS
10
5.75903
20
-4.00663
11
5.75863
21
-4.00679
0
LINE
8
BLACK
6
CONTINUOUS
10
5.75863
20
-4.00679
11
5.7476
21
-4.00679
0
LINE
8
BLACK
6
CONTINUOUS
10
5.7476
20
-4.00679
11
5.74721
21
-4.00663
0
LINE
8
BLACK
6
CONTINUOUS
10
5.74721
20
-4.00663
11
5.74678
21
-4.0066
0
LINE
8
BLACK
6
CONTINUOUS
10
5.74678
20
-4.0066
11
5.74237
21
-4.00439
0
LINE
8
BLACK
6
CONTINUOUS
10
5.74237
20
-4.00439
11
5.74217
21
-4.00416
0
LINE
8
BLACK
6
CONTINUOUS
10
5.74217
20
-4.00416
11
5.74189
21
-4.00405
0
LINE
8
BLACK
6
CONTINUOUS
10
5.74189
20
-4.00405
11
5.73968
21
-4.00184
0
LINE
8
BLACK
6
CONTINUOUS
10
5.73968
20
-4.00184
11
5.73957
21
-4.00156
0
LINE
8
BLACK
6
CONTINUOUS
10
5.73957
20
-4.00156
11
5.73934
21
-4.00136
0
LINE
8
BLACK
6
CONTINUOUS
10
5.73934
20
-4.00136
11
5.73713
21
-3.99695
0
LINE
8
BLACK
6
CONTINUOUS
10
5.73713
20
-3.99695
11
5.7371
21
-3.99652
0
LINE
8
BLACK
6
CONTINUOUS
10
5.7371
20
-3.99652
11
5.73694
21
-3.99613
0
LINE
8
BLACK
6
CONTINUOUS
10
5.73694
20
-3.99613
11
5.73694
21
-3.9851
0
LINE
8
BLACK
6
CONTINUOUS
10
5.73694
20
-3.9851
11
5.7371
21
-3.9847
0
LINE
8
BLACK
6
CONTINUOUS
10
5.7371
20
-3.9847
11
5.73713
21
-3.98428
0
LINE
8
BLACK
6
CONTINUOUS
10
5.73713
20
-3.98428
11
5.73889
21
-3.98076
0
LINE
8
BLACK
6
CONTINUOUS
10
5.73889
20
-3.98076
11
5.72297
21
-3.98235
0
LINE
8
BLACK
6
CONTINUOUS
10
5.72297
20
-3.98235
11
5.72297
21
-4.00275
0
LINE
8
BLACK
6
CONTINUOUS
10
5.72297
20
-4.00275
11
5.72244
21
-4.00405
0
LINE
8
BLACK
6
CONTINUOUS
10
5.72244
20
-4.00405
11
5.72113
21
-4.00459
0
LINE
8
BLACK
6
CONTINUOUS
10
5.72113
20
-4.00459
11
5.71983
21
-4.00405
0
LINE
8
BLACK
6
CONTINUOUS
10
5.71983
20
-4.00405
11
5.71929
21
-4.00275
0
LINE
8
BLACK
6
CONTINUOUS
10
5.71929
20
-4.00275
11
5.71929
21
-3.98069
0
LINE
8
BLACK
6
CONTINUOUS
10
5.71929
20
-3.98069
11
5.71953
21
-3.98012
0
LINE
8
BLACK
6
CONTINUOUS
10
5.71953
20
-3.98012
11
5.71971
21
-3.97952
0
LINE
8
BLACK
6
CONTINUOUS
10
5.71971
20
-3.97952
11
5.7198
21
-3.97948
0
LINE
8
BLACK
6
CONTINUOUS
10
5.7198
20
-3.97948
11
5.71983
21
-3.97939
0
LINE
8
BLACK
6
CONTINUOUS
10
5.71983
20
-3.97939
11
5.72041
21
-3.97915
0
LINE
8
BLACK
6
CONTINUOUS
10
5.72041
20
-3.97915
11
5.72095
21
-3.97886
0
LINE
8
BLACK
6
CONTINUOUS
10
5.72095
20
-3.97886
11
5.74301
21
-3.97665
0
LINE
8
BLACK
6
CONTINUOUS
10
5.74301
20
-3.97665
11
5.7431
21
-3.97668
0
LINE
8
BLACK
6
CONTINUOUS
10
5.7431
20
-3.97668
11
5.74319
21
-3.97664
0
LINE
8
BLACK
6
CONTINUOUS
10
5.74319
20
-3.97664
11
5.74376
21
-3.97688
0
LINE
8
BLACK
6
CONTINUOUS
10
5.74376
20
-3.97688
11
5.74436
21
-3.97706
0
LINE
8
BLACK
6
CONTINUOUS
10
5.74436
20
-3.97706
11
5.7444
21
-3.97714
0
LINE
8
BLACK
6
CONTINUOUS
10
5.7444
20
-3.97714
11
5.74449
21
-3.97718
0
LINE
8
BLACK
6
CONTINUOUS
10
5.74449
20
-3.97718
11
5.74473
21
-3.97775
0
LINE
8
BLACK
6
CONTINUOUS
10
5.74473
20
-3.97775
11
5.74502
21
-3.9783
0
LINE
8
BLACK
6
CONTINUOUS
10
5.74502
20
-3.9783
11
5.74499
21
-3.97839
0
LINE
8
BLACK
6
CONTINUOUS
10
5.74499
20
-3.97839
11
5.74503
21
-3.97848
0
LINE
8
BLACK
6
CONTINUOUS
10
5.74503
20
-3.97848
11
5.74479
21
-3.97905
0
LINE
8
BLACK
6
CONTINUOUS
10
5.74479
20
-3.97905
11
5.74462
21
-3.97965
0
LINE
8
BLACK
6
CONTINUOUS
10
5.74462
20
-3.97965
11
5.74453
21
-3.97969
0
LINE
8
BLACK
6
CONTINUOUS
10
5.74453
20
-3.97969
11
5.74449
21
-3.97978
0
LINE
8
BLACK
6
CONTINUOUS
10
5.74449
20
-3.97978
11
5.7425
21
-3.98178
0
LINE
8
BLACK
6
CONTINUOUS
10
5.7425
20
-3.98178
11
5.74062
21
-3.98553
0
LINE
8
BLACK
6
CONTINUOUS
10
5.74062
20
-3.98553
11
5.74062
21
-3.99569
0
LINE
8
BLACK
6
CONTINUOUS
10
5.74062
20
-3.99569
11
5.7425
21
-3.99945
0
LINE
8
BLACK
6
CONTINUOUS
10
5.7425
20
-3.99945
11
5.74428
21
-4.00123
0
LINE
8
BLACK
6
CONTINUOUS
10
5.74428
20
-4.00123
11
5.74804
21
-4.00311
0
LINE
8
BLACK
6
CONTINUOUS
10
5.74804
20
-4.00311
11
5.7582
21
-4.00311
0
LINE
8
BLACK
6
CONTINUOUS
10
5.7582
20
-4.00311
11
5.76195
21
-4.00123
0
LINE
8
BLACK
6
CONTINUOUS
10
5.76195
20
-4.00123
11
5.76374
21
-3.99945
0
LINE
8
BLACK
6
CONTINUOUS
10
5.76374
20
-3.99945
11
5.76561
21
-3.99569
0
LINE
8
BLACK
6
CONTINUOUS
10
5.76561
20
-3.99569
11
5.76561
21
-3.98553
0
LINE
8
BLACK
6
CONTINUOUS
10
5.76561
20
-3.98553
11
5.76374
21
-3.98178
0
LINE
8
BLACK
6
CONTINUOUS
10
5.76374
20
-3.98178
11
5.76174
21
-3.97978
0
LINE
8
BLACK
6
CONTINUOUS
10
5.76174
20
-3.97978
11
5.7612
21
-3.97848
0
LINE
8
BLACK
6
CONTINUOUS
10
5.7612
20
-3.97848
11
5.76174
21
-3.97718
0
LINE
8
BLACK
6
CONTINUOUS
10
5.76174
20
-3.97718
11
5.76304
21
-3.97664
0
LINE
8
BLACK
6
CONTINUOUS
10
5.76304
20
-3.97664
11
5.76434
21
-3.97718
0
LINE
8
BLACK
6
CONTINUOUS
10
5.74782
20
-3.93041
11
5.74805
21
-3.93038
0
LINE
8
BLACK
6
CONTINUOUS
10
5.74805
20
-3.93038
11
5.75687
21
-3.93258
0
LINE
8
BLACK
6
CONTINUOUS
10
5.75687
20
-3.93258
11
5.75704
21
-3.93271
0
LINE
8
BLACK
6
CONTINUOUS
10
5.75704
20
-3.93271
11
5.75725
21
-3.93272
0
LINE
8
BLACK
6
CONTINUOUS
10
5.75725
20
-3.93272
11
5.76166
21
-3.93493
0
LINE
8
BLACK
6
CONTINUOUS
10
5.76166
20
-3.93493
11
5.76186
21
-3.93516
0
LINE
8
BLACK
6
CONTINUOUS
10
5.76186
20
-3.93516
11
5.76214
21
-3.93527
0
LINE
8
BLACK
6
CONTINUOUS
10
5.76214
20
-3.93527
11
5.76655
21
-3.93968
0
LINE
8
BLACK
6
CONTINUOUS
10
5.76655
20
-3.93968
11
5.76671
21
-3.94008
0
LINE
8
BLACK
6
CONTINUOUS
10
5.76671
20
-3.94008
11
5.76699
21
-3.9404
0
LINE
8
BLACK
6
CONTINUOUS
10
5.76699
20
-3.9404
11
5.7692
21
-3.94702
0
LINE
8
BLACK
6
CONTINUOUS
10
5.7692
20
-3.94702
11
5.76918
21
-3.94732
0
LINE
8
BLACK
6
CONTINUOUS
10
5.76918
20
-3.94732
11
5.76929
21
-3.9476
0
LINE
8
BLACK
6
CONTINUOUS
10
5.76929
20
-3.9476
11
5.76929
21
-3.95201
0
LINE
8
BLACK
6
CONTINUOUS
10
5.76929
20
-3.95201
11
5.76918
21
-3.95229
0
LINE
8
BLACK
6
CONTINUOUS
10
5.76918
20
-3.95229
11
5.7692
21
-3.9526
0
LINE
8
BLACK
6
CONTINUOUS
10
5.7692
20
-3.9526
11
5.76699
21
-3.95921
0
LINE
8
BLACK
6
CONTINUOUS
10
5.76699
20
-3.95921
11
5.76671
21
-3.95954
0
LINE
8
BLACK
6
CONTINUOUS
10
5.76671
20
-3.95954
11
5.76655
21
-3.95993
0
LINE
8
BLACK
6
CONTINUOUS
10
5.76655
20
-3.95993
11
5.76434
21
-3.96214
0
LINE
8
BLACK
6
CONTINUOUS
10
5.76434
20
-3.96214
11
5.76304
21
-3.96268
0
LINE
8
BLACK
6
CONTINUOUS
10
5.76304
20
-3.96268
11
5.76174
21
-3.96214
0
LINE
8
BLACK
6
CONTINUOUS
10
5.76174
20
-3.96214
11
5.7612
21
-3.96084
0
LINE
8
BLACK
6
CONTINUOUS
10
5.7612
20
-3.96084
11
5.76174
21
-3.95954
0
LINE
8
BLACK
6
CONTINUOUS
10
5.76174
20
-3.95954
11
5.76364
21
-3.95764
0
LINE
8
BLACK
6
CONTINUOUS
10
5.76364
20
-3.95764
11
5.76561
21
-3.95172
0
LINE
8
BLACK
6
CONTINUOUS
10
5.76561
20
-3.95172
11
5.76561
21
-3.9479
0
LINE
8
BLACK
6
CONTINUOUS
10
5.76561
20
-3.9479
11
5.76364
21
-3.94198
0
LINE
8
BLACK
6
CONTINUOUS
10
5.76364
20
-3.94198
11
5.75975
21
-3.93809
0
LINE
8
BLACK
6
CONTINUOUS
10
5.75975
20
-3.93809
11
5.75578
21
-3.9361
0
LINE
8
BLACK
6
CONTINUOUS
10
5.75578
20
-3.9361
11
5.74738
21
-3.934
0
LINE
8
BLACK
6
CONTINUOUS
10
5.74738
20
-3.934
11
5.74121
21
-3.934
0
LINE
8
BLACK
6
CONTINUOUS
10
5.74121
20
-3.934
11
5.7328
21
-3.9361
0
LINE
8
BLACK
6
CONTINUOUS
10
5.7328
20
-3.9361
11
5.72884
21
-3.93809
0
LINE
8
BLACK
6
CONTINUOUS
10
5.72884
20
-3.93809
11
5.72495
21
-3.94198
0
LINE
8
BLACK
6
CONTINUOUS
10
5.72495
20
-3.94198
11
5.72297
21
-3.9479
0
LINE
8
BLACK
6
CONTINUOUS
10
5.72297
20
-3.9479
11
5.72297
21
-3.95172
0
LINE
8
BLACK
6
CONTINUOUS
10
5.72297
20
-3.95172
11
5.72495
21
-3.95764
0
LINE
8
BLACK
6
CONTINUOUS
10
5.72495
20
-3.95764
11
5.72685
21
-3.95954
0
LINE
8
BLACK
6
CONTINUOUS
10
5.72685
20
-3.95954
11
5.72739
21
-3.96084
0
LINE
8
BLACK
6
CONTINUOUS
10
5.72739
20
-3.96084
11
5.72685
21
-3.96214
0
LINE
8
BLACK
6
CONTINUOUS
10
5.72685
20
-3.96214
11
5.72555
21
-3.96268
0
LINE
8
BLACK
6
CONTINUOUS
10
5.72555
20
-3.96268
11
5.72424
21
-3.96214
0
LINE
8
BLACK
6
CONTINUOUS
10
5.72424
20
-3.96214
11
5.72204
21
-3.95993
0
LINE
8
BLACK
6
CONTINUOUS
10
5.72204
20
-3.95993
11
5.72188
21
-3.95954
0
LINE
8
BLACK
6
CONTINUOUS
10
5.72188
20
-3.95954
11
5.72159
21
-3.95921
0
LINE
8
BLACK
6
CONTINUOUS
10
5.72159
20
-3.95921
11
5.71939
21
-3.9526
0
LINE
8
BLACK
6
CONTINUOUS
10
5.71939
20
-3.9526
11
5.71941
21
-3.95229
0
LINE
8
BLACK
6
CONTINUOUS
10
5.71941
20
-3.95229
11
5.71929
21
-3.95201
0
LINE
8
BLACK
6
CONTINUOUS
10
5.71929
20
-3.95201
11
5.71929
21
-3.9476
0
LINE
8
BLACK
6
CONTINUOUS
10
5.71929
20
-3.9476
11
5.71941
21
-3.94732
0
LINE
8
BLACK
6
CONTINUOUS
10
5.71941
20
-3.94732
11
5.71939
21
-3.94702
0
LINE
8
BLACK
6
CONTINUOUS
10
5.71939
20
-3.94702
11
5.72159
21
-3.9404
0
LINE
8
BLACK
6
CONTINUOUS
10
5.72159
20
-3.9404
11
5.72188
21
-3.94008
0
LINE
8
BLACK
6
CONTINUOUS
10
5.72188
20
-3.94008
11
5.72204
21
-3.93968
0
LINE
8
BLACK
6
CONTINUOUS
10
5.72204
20
-3.93968
11
5.72645
21
-3.93527
0
LINE
8
BLACK
6
CONTINUOUS
10
5.72645
20
-3.93527
11
5.72673
21
-3.93516
0
LINE
8
BLACK
6
CONTINUOUS
10
5.72673
20
-3.93516
11
5.72693
21
-3.93493
0
LINE
8
BLACK
6
CONTINUOUS
10
5.72693
20
-3.93493
11
5.73134
21
-3.93272
0
LINE
8
BLACK
6
CONTINUOUS
10
5.73134
20
-3.93272
11
5.73155
21
-3.93271
0
LINE
8
BLACK
6
CONTINUOUS
10
5.73155
20
-3.93271
11
5.73172
21
-3.93258
0
LINE
8
BLACK
6
CONTINUOUS
10
5.73172
20
-3.93258
11
5.74054
21
-3.93038
0
LINE
8
BLACK
6
CONTINUOUS
10
5.74054
20
-3.93038
11
5.74077
21
-3.93041
0
LINE
8
BLACK
6
CONTINUOUS
10
5.74077
20
-3.93041
11
5.74099
21
-3.93032
0
LINE
8
BLACK
6
CONTINUOUS
10
5.74099
20
-3.93032
11
5.7476
21
-3.93032
0
LINE
8
BLACK
6
CONTINUOUS
10
5.7476
20
-3.93032
11
5.74782
21
-3.93041
0
LINE
8
BLACK
6
CONTINUOUS
10
5.52554
20
-3.94429
11
5.5226
21
-3.94429
0
LINE
8
BLACK
6
CONTINUOUS
10
5.5226
20
-3.94429
11
5.52221
21
-3.94413
0
LINE
8
BLACK
6
CONTINUOUS
10
5.52221
20
-3.94413
11
5.52178
21
-3.9441
0
LINE
8
BLACK
6
CONTINUOUS
10
5.52178
20
-3.9441
11
5.51737
21
-3.94189
0
LINE
8
BLACK
6
CONTINUOUS
10
5.51737
20
-3.94189
11
5.51717
21
-3.94166
0
LINE
8
BLACK
6
CONTINUOUS
10
5.51717
20
-3.94166
11
5.51689
21
-3.94155
0
LINE
8
BLACK
6
CONTINUOUS
10
5.51689
20
-3.94155
11
5.51468
21
-3.93934
0
LINE
8
BLACK
6
CONTINUOUS
10
5.51468
20
-3.93934
11
5.51457
21
-3.93906
0
LINE
8
BLACK
6
CONTINUOUS
10
5.51457
20
-3.93906
11
5.51434
21
-3.93886
0
LINE
8
BLACK
6
CONTINUOUS
10
5.51434
20
-3.93886
11
5.51213
21
-3.93445
0
LINE
8
BLACK
6
CONTINUOUS
10
5.51213
20
-3.93445
11
5.5121
21
-3.93402
0
LINE
8
BLACK
6
CONTINUOUS
10
5.5121
20
-3.93402
11
5.51194
21
-3.93363
0
LINE
8
BLACK
6
CONTINUOUS
10
5.51194
20
-3.93363
11
5.51194
21
-3.9226
0
LINE
8
BLACK
6
CONTINUOUS
10
5.51194
20
-3.9226
11
5.5121
21
-3.9222
0
LINE
8
BLACK
6
CONTINUOUS
10
5.5121
20
-3.9222
11
5.51213
21
-3.92178
0
LINE
8
BLACK
6
CONTINUOUS
10
5.51213
20
-3.92178
11
5.51389
21
-3.91826
0
LINE
8
BLACK
6
CONTINUOUS
10
5.51389
20
-3.91826
11
5.49797
21
-3.91985
0
LINE
8
BLACK
6
CONTINUOUS
10
5.49797
20
-3.91985
11
5.49797
21
-3.94025
0
LINE
8
BLACK
6
CONTINUOUS
10
5.49797
20
-3.94025
11
5.49744
21
-3.94155
0
LINE
8
BLACK
6
CONTINUOUS
10
5.49744
20
-3.94155
11
5.49613
21
-3.94209
0
LINE
8
BLACK
6
CONTINUOUS
10
5.49613
20
-3.94209
11
5.49483
21
-3.94155
0
LINE
8
BLACK
6
CONTINUOUS
10
5.49483
20
-3.94155
11
5.49429
21
-3.94025
0
LINE
8
BLACK
6
CONTINUOUS
10
5.49429
20
-3.94025
11
5.49429
21
-3.91819
0
LINE
8
BLACK
6
CONTINUOUS
10
5.49429
20
-3.91819
11
5.49453
21
-3.91762
0
LINE
8
BLACK
6
CONTINUOUS
10
5.49453
20
-3.91762
11
5.49471
21
-3.91702
0
LINE
8
BLACK
6
CONTINUOUS
10
5.49471
20
-3.91702
11
5.4948
21
-3.91698
0
LINE
8
BLACK
6
CONTINUOUS
10
5.4948
20
-3.91698
11
5.49483
21
-3.91689
0
LINE
8
BLACK
6
CONTINUOUS
10
5.49483
20
-3.91689
11
5.49541
21
-3.91665
0
LINE
8
BLACK
6
CONTINUOUS
10
5.49541
20
-3.91665
11
5.49595
21
-3.91636
0
LINE
8
BLACK
6
CONTINUOUS
10
5.49595
20
-3.91636
11
5.51801
21
-3.91415
0
LINE
8
BLACK
6
CONTINUOUS
10
5.51801
20
-3.91415
11
5.5181
21
-3.91418
0
LINE
8
BLACK
6
CONTINUOUS
10
5.5181
20
-3.91418
11
5.51819
21
-3.91414
0
LINE
8
BLACK
6
CONTINUOUS
10
5.51819
20
-3.91414
11
5.51876
21
-3.91438
0
LINE
8
BLACK
6
CONTINUOUS
10
5.51876
20
-3.91438
11
5.51936
21
-3.91456
0
LINE
8
BLACK
6
CONTINUOUS
10
5.51936
20
-3.91456
11
5.5194
21
-3.91464
0
LINE
8
BLACK
6
CONTINUOUS
10
5.5194
20
-3.91464
11
5.51949
21
-3.91468
0
LINE
8
BLACK
6
CONTINUOUS
10
5.51949
20
-3.91468
11
5.51973
21
-3.91525
0
LINE
8
BLACK
6
CONTINUOUS
10
5.51973
20
-3.91525
11
5.52002
21
-3.9158
0
LINE
8
BLACK
6
CONTINUOUS
10
5.52002
20
-3.9158
11
5.51999
21
-3.91589
0
LINE
8
BLACK
6
CONTINUOUS
10
5.51999
20
-3.91589
11
5.52003
21
-3.91598
0
LINE
8
BLACK
6
CONTINUOUS
10
5.52003
20
-3.91598
11
5.51979
21
-3.91655
0
LINE
8
BLACK
6
CONTINUOUS
10
5.51979
20
-3.91655
11
5.51962
21
-3.91715
0
LINE
8
BLACK
6
CONTINUOUS
10
5.51962
20
-3.91715
11
5.51953
21
-3.91719
0
LINE
8
BLACK
6
CONTINUOUS
10
5.51953
20
-3.91719
11
5.51949
21
-3.91728
0
LINE
8
BLACK
6
CONTINUOUS
10
5.51949
20
-3.91728
11
5.5175
21
-3.91928
0
LINE
8
BLACK
6
CONTINUOUS
10
5.5175
20
-3.91928
11
5.51562
21
-3.92303
0
LINE
8
BLACK
6
CONTINUOUS
10
5.51562
20
-3.92303
11
5.51562
21
-3.93319
0
LINE
8
BLACK
6
CONTINUOUS
10
5.51562
20
-3.93319
11
5.5175
21
-3.93695
0
LINE
8
BLACK
6
CONTINUOUS
10
5.5175
20
-3.93695
11
5.51928
21
-3.93873
0
LINE
8
BLACK
6
CONTINUOUS
10
5.51928
20
-3.93873
11
5.52304
21
-3.94061
0
LINE
8
BLACK
6
CONTINUOUS
10
5.52304
20
-3.94061
11
5.5332
21
-3.94061
0
LINE
8
BLACK
6
CONTINUOUS
10
5.5332
20
-3.94061
11
5.53695
21
-3.93873
0
LINE
8
BLACK
6
CONTINUOUS
10
5.53695
20
-3.93873
11
5.53874
21
-3.93695
0
LINE
8
BLACK
6
CONTINUOUS
10
5.53874
20
-3.93695
11
5.54061
21
-3.93319
0
LINE
8
BLACK
6
CONTINUOUS
10
5.54061
20
-3.93319
11
5.54061
21
-3.93145
0
LINE
8
BLACK
6
CONTINUOUS
10
5.54061
20
-3.93145
11
5.52645
21
-3.91729
0
LINE
8
BLACK
6
CONTINUOUS
10
5.52645
20
-3.91729
11
5.52629
21
-3.91689
0
LINE
8
BLACK
6
CONTINUOUS
10
5.52629
20
-3.91689
11
5.52601
21
-3.91657
0
LINE
8
BLACK
6
CONTINUOUS
10
5.52601
20
-3.91657
11
5.5238
21
-3.90995
0
LINE
8
BLACK
6
CONTINUOUS
10
5.5238
20
-3.90995
11
5.52382
21
-3.90965
0
LINE
8
BLACK
6
CONTINUOUS
10
5.52382
20
-3.90965
11
5.52371
21
-3.90937
0
LINE
8
BLACK
6
CONTINUOUS
10
5.52371
20
-3.90937
11
5.52371
21
-3.90496
0
LINE
8
BLACK
6
CONTINUOUS
10
5.52371
20
-3.90496
11
5.52387
21
-3.90456
0
LINE
8
BLACK
6
CONTINUOUS
10
5.52387
20
-3.90456
11
5.5239
21
-3.90413
0
LINE
8
BLACK
6
CONTINUOUS
10
5.5239
20
-3.90413
11
5.52611
21
-3.89972
0
LINE
8
BLACK
6
CONTINUOUS
10
5.52611
20
-3.89972
11
5.52634
21
-3.89952
0
LINE
8
BLACK
6
CONTINUOUS
10
5.52634
20
-3.89952
11
5.52645
21
-3.89924
0
LINE
8
BLACK
6
CONTINUOUS
10
5.52645
20
-3.89924
11
5.52866
21
-3.89704
0
LINE
8
BLACK
6
CONTINUOUS
10
5.52866
20
-3.89704
11
5.52894
21
-3.89692
0
LINE
8
BLACK
6
CONTINUOUS
10
5.52894
20
-3.89692
11
5.52914
21
-3.89669
0
LINE
8
BLACK
6
CONTINUOUS
10
5.52914
20
-3.89669
11
5.53355
21
-3.89449
0
LINE
8
BLACK
6
CONTINUOUS
10
5.53355
20
-3.89449
11
5.53373
21
-3.89448
0
LINE
8
BLACK
6
CONTINUOUS
10
5.53373
20
-3.89448
11
5.52224
21
-3.88643
0
LINE
8
BLACK
6
CONTINUOUS
10
5.52224
20
-3.88643
11
5.52224
21
-3.88951
0
LINE
8
BLACK
6
CONTINUOUS
10
5.52224
20
-3.88951
11
5.52207
21
-3.88991
0
LINE
8
BLACK
6
CONTINUOUS
10
5.52207
20
-3.88991
11
5.52204
21
-3.89034
0
LINE
8
BLACK
6
CONTINUOUS
10
5.52204
20
-3.89034
11
5.51984
21
-3.89475
0
LINE
8
BLACK
6
CONTINUOUS
10
5.51984
20
-3.89475
11
5.51961
21
-3.89495
0
LINE
8
BLACK
6
CONTINUOUS
10
5.51961
20
-3.89495
11
5.51949
21
-3.89523
0
LINE
8
BLACK
6
CONTINUOUS
10
5.51949
20
-3.89523
11
5.51729
21
-3.89743
0
LINE
8
BLACK
6
CONTINUOUS
10
5.51729
20
-3.89743
11
5.51701
21
-3.89755
0
LINE
8
BLACK
6
CONTINUOUS
10
5.51701
20
-3.89755
11
5.51681
21
-3.89778
0
LINE
8
BLACK
6
CONTINUOUS
10
5.51681
20
-3.89778
11
5.5124
21
-3.89998
0
LINE
8
BLACK
6
CONTINUOUS
10
5.5124
20
-3.89998
11
5.51197
21
-3.90001
0
LINE
8
BLACK
6
CONTINUOUS
10
5.51197
20
-3.90001
11
5.51157
21
-3.90018
0
LINE
8
BLACK
6
CONTINUOUS
10
5.51157
20
-3.90018
11
5.50496
21
-3.90018
0
LINE
8
BLACK
6
CONTINUOUS
10
5.50496
20
-3.90018
11
5.50456
21
-3.90001
0
LINE
8
BLACK
6
CONTINUOUS
10
5.50456
20
-3.90001
11
5.50413
21
-3.89998
0
LINE
8
BLACK
6
CONTINUOUS
10
5.50413
20
-3.89998
11
5.49972
21
-3.89778
0
LINE
8
BLACK
6
CONTINUOUS
10
5.49972
20
-3.89778
11
5.49952
21
-3.89755
0
LINE
8
BLACK
6
CONTINUOUS
10
5.49952
20
-3.89755
11
5.49924
21
-3.89743
0
LINE
8
BLACK
6
CONTINUOUS
10
5.49924
20
-3.89743
11
5.49704
21
-3.89523
0
LINE
8
BLACK
6
CONTINUOUS
10
5.49704
20
-3.89523
11
5.49692
21
-3.89495
0
LINE
8
BLACK
6
CONTINUOUS
10
5.49692
20
-3.89495
11
5.49669
21
-3.89475
0
LINE
8
BLACK
6
CONTINUOUS
10
5.49669
20
-3.89475
11
5.49449
21
-3.89034
0
LINE
8
BLACK
6
CONTINUOUS
10
5.49449
20
-3.89034
11
5.49446
21
-3.88991
0
LINE
8
BLACK
6
CONTINUOUS
10
5.49446
20
-3.88991
11
5.49429
21
-3.88951
0
LINE
8
BLACK
6
CONTINUOUS
10
5.49429
20
-3.88951
11
5.49429
21
-3.87187
0
LINE
8
BLACK
6
CONTINUOUS
10
5.49429
20
-3.87187
11
5.49483
21
-3.87057
0
LINE
8
BLACK
6
CONTINUOUS
10
5.49483
20
-3.87057
11
5.49613
21
-3.87003
0
LINE
8
BLACK
6
CONTINUOUS
10
5.49613
20
-3.87003
11
5.54245
21
-3.87003
0
LINE
8
BLACK
6
CONTINUOUS
10
5.54245
20
-3.87003
11
5.54376
21
-3.87057
0
LINE
8
BLACK
6
CONTINUOUS
10
5.54376
20
-3.87057
11
5.54429
21
-3.87187
0
LINE
8
BLACK
6
CONTINUOUS
10
5.54429
20
-3.87187
11
5.54376
21
-3.87317
0
LINE
8
BLACK
6
CONTINUOUS
10
5.54376
20
-3.87317
11
5.54245
21
-3.87371
0
LINE
8
BLACK
6
CONTINUOUS
10
5.54245
20
-3.87371
11
5.52224
21
-3.87371
0
LINE
8
BLACK
6
CONTINUOUS
10
5.52224
20
-3.87371
11
5.52224
21
-3.88194
0
LINE
8
BLACK
6
CONTINUOUS
10
5.52224
20
-3.88194
11
5.53989
21
-3.89429
0
LINE
8
BLACK
6
CONTINUOUS
10
5.53989
20
-3.89429
11
5.5454
21
-3.89429
0
LINE
8
BLACK
6
CONTINUOUS
10
5.5454
20
-3.89429
11
5.5458
21
-3.89446
0
LINE
8
BLACK
6
CONTINUOUS
10
5.5458
20
-3.89446
11
5.54622
21
-3.89449
0
LINE
8
BLACK
6
CONTINUOUS
10
5.54622
20
-3.89449
11
5.55063
21
-3.89669
0
LINE
8
BLACK
6
CONTINUOUS
10
5.55063
20
-3.89669
11
5.55083
21
-3.89692
0
LINE
8
BLACK
6
CONTINUOUS
10
5.55083
20
-3.89692
11
5.55111
21
-3.89704
0
LINE
8
BLACK
6
CONTINUOUS
10
5.55111
20
-3.89704
11
5.55332
21
-3.89924
0
LINE
8
BLACK
6
CONTINUOUS
10
5.55332
20
-3.89924
11
5.55386
21
-3.90055
0
LINE
8
BLACK
6
CONTINUOUS
10
5.55386
20
-3.90055
11
5.55332
21
-3.90185
0
LINE
8
BLACK
6
CONTINUOUS
10
5.55332
20
-3.90185
11
5.55202
21
-3.90239
0
LINE
8
BLACK
6
CONTINUOUS
10
5.55202
20
-3.90239
11
5.55072
21
-3.90185
0
LINE
8
BLACK
6
CONTINUOUS
10
5.55072
20
-3.90185
11
5.54872
21
-3.89985
0
LINE
8
BLACK
6
CONTINUOUS
10
5.54872
20
-3.89985
11
5.54497
21
-3.89797
0
LINE
8
BLACK
6
CONTINUOUS
10
5.54497
20
-3.89797
11
5.54424
21
-3.89797
0
LINE
8
BLACK
6
CONTINUOUS
10
5.54424
20
-3.89797
11
5.54427
21
-3.89802
0
LINE
8
BLACK
6
CONTINUOUS
10
5.54427
20
-3.89802
11
5.54396
21
-3.89939
0
LINE
8
BLACK
6
CONTINUOUS
10
5.54396
20
-3.89939
11
5.54277
21
-3.90015
0
LINE
8
BLACK
6
CONTINUOUS
10
5.54277
20
-3.90015
11
5.5414
21
-3.89984
0
LINE
8
BLACK
6
CONTINUOUS
10
5.5414
20
-3.89984
11
5.53873
21
-3.89797
0
LINE
8
BLACK
6
CONTINUOUS
10
5.53873
20
-3.89797
11
5.53481
21
-3.89797
0
LINE
8
BLACK
6
CONTINUOUS
10
5.53481
20
-3.89797
11
5.53105
21
-3.89985
0
LINE
8
BLACK
6
CONTINUOUS
10
5.53105
20
-3.89985
11
5.52927
21
-3.90164
0
LINE
8
BLACK
6
CONTINUOUS
10
5.52927
20
-3.90164
11
5.52739
21
-3.90539
0
LINE
8
BLACK
6
CONTINUOUS
10
5.52739
20
-3.90539
11
5.52739
21
-3.90907
0
LINE
8
BLACK
6
CONTINUOUS
10
5.52739
20
-3.90907
11
5.52936
21
-3.91499
0
LINE
8
BLACK
6
CONTINUOUS
10
5.52936
20
-3.91499
11
5.54061
21
-3.92624
0
LINE
8
BLACK
6
CONTINUOUS
10
5.54061
20
-3.92624
11
5.54061
21
-3.92303
0
LINE
8
BLACK
6
CONTINUOUS
10
5.54061
20
-3.92303
11
5.53874
21
-3.91928
0
LINE
8
BLACK
6
CONTINUOUS
10
5.53874
20
-3.91928
11
5.53674
21
-3.91728
0
LINE
8
BLACK
6
CONTINUOUS
10
5.53674
20
-3.91728
11
5.5362
21
-3.91598
0
LINE
8
BLACK
6
CONTINUOUS
10
5.5362
20
-3.91598
11
5.53674
21
-3.91468
0
LINE
8
BLACK
6
CONTINUOUS
10
5.53674
20
-3.91468
11
5.53804
21
-3.91414
0
LINE
8
BLACK
6
CONTINUOUS
10
5.53804
20
-3.91414
11
5.53934
21
-3.91468
0
LINE
8
BLACK
6
CONTINUOUS
10
5.53934
20
-3.91468
11
5.54155
21
-3.91689
0
LINE
8
BLACK
6
CONTINUOUS
10
5.54155
20
-3.91689
11
5.54167
21
-3.91717
0
LINE
8
BLACK
6
CONTINUOUS
10
5.54167
20
-3.91717
11
5.54189
21
-3.91737
0
LINE
8
BLACK
6
CONTINUOUS
10
5.54189
20
-3.91737
11
5.5441
21
-3.92178
0
LINE
8
BLACK
6
CONTINUOUS
10
5.5441
20
-3.92178
11
5.54413
21
-3.9222
0
LINE
8
BLACK
6
CONTINUOUS
10
5.54413
20
-3.9222
11
5.54429
21
-3.9226
0
LINE
8
BLACK
6
CONTINUOUS
10
5.54429
20
-3.9226
11
5.54429
21
-3.92992
0
LINE
8
BLACK
6
CONTINUOUS
10
5.54429
20
-3.92992
11
5.55552
21
-3.94115
0
LINE
8
BLACK
6
CONTINUOUS
10
5.55552
20
-3.94115
11
5.55606
21
-3.94245
0
LINE
8
BLACK
6
CONTINUOUS
10
5.55606
20
-3.94245
11
5.55552
21
-3.94376
0
LINE
8
BLACK
6
CONTINUOUS
10
5.55552
20
-3.94376
11
5.55422
21
-3.94429
0
LINE
8
BLACK
6
CONTINUOUS
10
5.55422
20
-3.94429
11
5.52555
21
-3.94429
0
LINE
8
BLACK
6
CONTINUOUS
10
5.52555
20
-3.94429
11
5.52554
21
-3.94429
0
LINE
8
BLACK
6
CONTINUOUS
10
5.54189
20
-3.93886
11
5.54167
21
-3.93906
0
LINE
8
BLACK
6
CONTINUOUS
10
5.54167
20
-3.93906
11
5.54155
21
-3.93934
0
LINE
8
BLACK
6
CONTINUOUS
10
5.54155
20
-3.93934
11
5.54028
21
-3.94061
0
LINE
8
BLACK
6
CONTINUOUS
10
5.54028
20
-3.94061
11
5.54978
21
-3.94061
0
LINE
8
BLACK
6
CONTINUOUS
10
5.54978
20
-3.94061
11
5.54394
21
-3.93477
0
LINE
8
BLACK
6
CONTINUOUS
10
5.54394
20
-3.93477
11
5.54189
21
-3.93886
0
LINE
8
BLACK
6
CONTINUOUS
10
5.49797
20
-3.87371
11
5.49797
21
-3.88908
0
LINE
8
BLACK
6
CONTINUOUS
10
5.49797
20
-3.88908
11
5.49985
21
-3.89284
0
LINE
8
BLACK
6
CONTINUOUS
10
5.49985
20
-3.89284
11
5.50164
21
-3.89462
0
LINE
8
BLACK
6
CONTINUOUS
10
5.50164
20
-3.89462
11
5.50539
21
-3.8965
0
LINE
8
BLACK
6
CONTINUOUS
10
5.50539
20
-3.8965
11
5.51114
21
-3.8965
0
LINE
8
BLACK
6
CONTINUOUS
10
5.51114
20
-3.8965
11
5.5149
21
-3.89462
0
LINE
8
BLACK
6
CONTINUOUS
10
5.5149
20
-3.89462
11
5.51668
21
-3.89284
0
LINE
8
BLACK
6
CONTINUOUS
10
5.51668
20
-3.89284
11
5.51856
21
-3.88908
0
LINE
8
BLACK
6
CONTINUOUS
10
5.51856
20
-3.88908
11
5.51856
21
-3.87371
0
LINE
8
BLACK
6
CONTINUOUS
10
5.51856
20
-3.87371
11
5.49797
21
-3.87371
0
LINE
8
BLACK
6
CONTINUOUS
10
5.59743
20
-3.89483
11
5.59797
21
-3.89613
0
LINE
8
BLACK
6
CONTINUOUS
10
5.59797
20
-3.89613
11
5.59797
21
-3.94245
0
LINE
8
BLACK
6
CONTINUOUS
10
5.59797
20
-3.94245
11
5.59743
21
-3.94376
0
LINE
8
BLACK
6
CONTINUOUS
10
5.59743
20
-3.94376
11
5.59613
21
-3.94429
0
LINE
8
BLACK
6
CONTINUOUS
10
5.59613
20
-3.94429
11
5.59483
21
-3.94376
0
LINE
8
BLACK
6
CONTINUOUS
10
5.59483
20
-3.94376
11
5.59429
21
-3.94245
0
LINE
8
BLACK
6
CONTINUOUS
10
5.59429
20
-3.94245
11
5.59429
21
-3.92224
0
LINE
8
BLACK
6
CONTINUOUS
10
5.59429
20
-3.92224
11
5.58606
21
-3.92224
0
LINE
8
BLACK
6
CONTINUOUS
10
5.58606
20
-3.92224
11
5.57117
21
-3.94351
0
LINE
8
BLACK
6
CONTINUOUS
10
5.57117
20
-3.94351
11
5.56998
21
-3.94427
0
LINE
8
BLACK
6
CONTINUOUS
10
5.56998
20
-3.94427
11
5.56861
21
-3.94396
0
LINE
8
BLACK
6
CONTINUOUS
10
5.56861
20
-3.94396
11
5.56785
21
-3.94277
0
LINE
8
BLACK
6
CONTINUOUS
10
5.56785
20
-3.94277
11
5.56816
21
-3.9414
0
LINE
8
BLACK
6
CONTINUOUS
10
5.56816
20
-3.9414
11
5.58157
21
-3.92224
0
LINE
8
BLACK
6
CONTINUOUS
10
5.58157
20
-3.92224
11
5.57849
21
-3.92224
0
LINE
8
BLACK
6
CONTINUOUS
10
5.57849
20
-3.92224
11
5.57809
21
-3.92207
0
LINE
8
BLACK
6
CONTINUOUS
10
5.57809
20
-3.92207
11
5.57766
21
-3.92204
0
LINE
8
BLACK
6
CONTINUOUS
10
5.57766
20
-3.92204
11
5.57325
21
-3.91984
0
LINE
8
BLACK
6
CONTINUOUS
10
5.57325
20
-3.91984
11
5.57305
21
-3.91961
0
LINE
8
BLACK
6
CONTINUOUS
10
5.57305
20
-3.91961
11
5.57277
21
-3.91949
0
LINE
8
BLACK
6
CONTINUOUS
10
5.57277
20
-3.91949
11
5.57057
21
-3.91729
0
LINE
8
BLACK
6
CONTINUOUS
10
5.57057
20
-3.91729
11
5.57045
21
-3.91701
0
LINE
8
BLACK
6
CONTINUOUS
10
5.57045
20
-3.91701
11
5.57022
21
-3.91681
0
LINE
8
BLACK
6
CONTINUOUS
10
5.57022
20
-3.91681
11
5.56802
21
-3.9124
0
LINE
8
BLACK
6
CONTINUOUS
10
5.56802
20
-3.9124
11
5.56799
21
-3.91197
0
LINE
8
BLACK
6
CONTINUOUS
10
5.56799
20
-3.91197
11
5.56782
21
-3.91157
0
LINE
8
BLACK
6
CONTINUOUS
10
5.56782
20
-3.91157
11
5.56782
21
-3.90496
0
LINE
8
BLACK
6
CONTINUOUS
10
5.56782
20
-3.90496
11
5.56799
21
-3.90456
0
LINE
8
BLACK
6
CONTINUOUS
10
5.56799
20
-3.90456
11
5.56802
21
-3.90413
0
LINE
8
BLACK
6
CONTINUOUS
10
5.56802
20
-3.90413
11
5.57022
21
-3.89972
0
LINE
8
BLACK
6
CONTINUOUS
10
5.57022
20
-3.89972
11
5.57045
21
-3.89952
0
LINE
8
BLACK
6
CONTINUOUS
10
5.57045
20
-3.89952
11
5.57057
21
-3.89924
0
LINE
8
BLACK
6
CONTINUOUS
10
5.57057
20
-3.89924
11
5.57277
21
-3.89704
0
LINE
8
BLACK
6
CONTINUOUS
10
5.57277
20
-3.89704
11
5.57305
21
-3.89692
0
LINE
8
BLACK
6
CONTINUOUS
10
5.57305
20
-3.89692
11
5.57325
21
-3.89669
0
LINE
8
BLACK
6
CONTINUOUS
10
5.57325
20
-3.89669
11
5.57766
21
-3.89449
0
LINE
8
BLACK
6
CONTINUOUS
10
5.57766
20
-3.89449
11
5.57809
21
-3.89446
0
LINE
8
BLACK
6
CONTINUOUS
10
5.57809
20
-3.89446
11
5.57849
21
-3.89429
0
LINE
8
BLACK
6
CONTINUOUS
10
5.57849
20
-3.89429
11
5.59613
21
-3.89429
0
LINE
8
BLACK
6
CONTINUOUS
10
5.59613
20
-3.89429
11
5.59743
21
-3.89483
0
LINE
8
BLACK
6
CONTINUOUS
10
5.57892
20
-3.89797
11
5.57516
21
-3.89985
0
LINE
8
BLACK
6
CONTINUOUS
10
5.57516
20
-3.89985
11
5.57338
21
-3.90164
0
LINE
8
BLACK
6
CONTINUOUS
10
5.57338
20
-3.90164
11
5.5715
21
-3.90539
0
LINE
8
BLACK
6
CONTINUOUS
10
5.5715
20
-3.90539
11
5.5715
21
-3.91114
0
LINE
8
BLACK
6
CONTINUOUS
10
5.5715
20
-3.91114
11
5.57338
21
-3.9149
0
LINE
8
BLACK
6
CONTINUOUS
10
5.57338
20
-3.9149
11
5.57516
21
-3.91668
0
LINE
8
BLACK
6
CONTINUOUS
10
5.57516
20
-3.91668
11
5.57892
21
-3.91856
0
LINE
8
BLACK
6
CONTINUOUS
10
5.57892
20
-3.91856
11
5.59429
21
-3.91856
0
LINE
8
BLACK
6
CONTINUOUS
10
5.59429
20
-3.91856
11
5.59429
21
-3.89797
0
LINE
8
BLACK
6
CONTINUOUS
10
5.59429
20
-3.89797
11
5.57892
21
-3.89797
0
LINE
8
BLACK
6
CONTINUOUS
10
6.13848
20
-3.88577
11
6.13775
21
-3.884
0
LINE
8
BLACK
6
CONTINUOUS
10
6.13775
20
-3.884
11
6.13775
21
-3.759
0
LINE
8
BLACK
6
CONTINUOUS
10
6.13775
20
-3.759
11
6.13848
21
-3.75723
0
LINE
8
BLACK
6
CONTINUOUS
10
6.13848
20
-3.75723
11
6.14025
21
-3.7565
0
LINE
8
BLACK
6
CONTINUOUS
10
6.14025
20
-3.7565
11
6.37775
21
-3.7565
0
LINE
8
BLACK
6
CONTINUOUS
10
6.37775
20
-3.7565
11
6.37952
21
-3.75723
0
LINE
8
BLACK
6
CONTINUOUS
10
6.37952
20
-3.75723
11
6.38025
21
-3.759
0
LINE
8
BLACK
6
CONTINUOUS
10
6.38025
20
-3.759
11
6.38025
21
-3.884
0
LINE
8
BLACK
6
CONTINUOUS
10
6.38025
20
-3.884
11
6.37952
21
-3.88577
0
LINE
8
BLACK
6
CONTINUOUS
10
6.37952
20
-3.88577
11
6.37775
21
-3.8865
0
LINE
8
BLACK
6
CONTINUOUS
10
6.37775
20
-3.8865
11
6.14025
21
-3.8865
0
LINE
8
BLACK
6
CONTINUOUS
10
6.14025
20
-3.8865
11
6.13848
21
-3.88577
0
LINE
8
BLACK
6
CONTINUOUS
10
6.14275
20
-3.7615
11
6.14275
21
-3.8815
0
LINE
8
BLACK
6
CONTINUOUS
10
6.14275
20
-3.8815
11
6.37525
21
-3.8815
0
LINE
8
BLACK
6
CONTINUOUS
10
6.37525
20
-3.8815
11
6.37525
21
-3.7615
0
LINE
8
BLACK
6
CONTINUOUS
10
6.37525
20
-3.7615
11
6.14275
21
-3.7615
0
LINE
8
BLACK
6
CONTINUOUS
10
6.33318
20
-3.79441
11
6.33348
21
-3.79439
0
LINE
8
BLACK
6
CONTINUOUS
10
6.33348
20
-3.79439
11
6.3401
21
-3.79659
0
LINE
8
BLACK
6
CONTINUOUS
10
6.3401
20
-3.79659
11
6.34042
21
-3.79688
0
LINE
8
BLACK
6
CONTINUOUS
10
6.34042
20
-3.79688
11
6.34082
21
-3.79704
0
LINE
8
BLACK
6
CONTINUOUS
10
6.34082
20
-3.79704
11
6.34523
21
-3.80145
0
LINE
8
BLACK
6
CONTINUOUS
10
6.34523
20
-3.80145
11
6.34534
21
-3.80173
0
LINE
8
BLACK
6
CONTINUOUS
10
6.34534
20
-3.80173
11
6.34557
21
-3.80193
0
LINE
8
BLACK
6
CONTINUOUS
10
6.34557
20
-3.80193
11
6.34778
21
-3.80634
0
LINE
8
BLACK
6
CONTINUOUS
10
6.34778
20
-3.80634
11
6.34779
21
-3.80655
0
LINE
8
BLACK
6
CONTINUOUS
10
6.34779
20
-3.80655
11
6.34792
21
-3.80672
0
LINE
8
BLACK
6
CONTINUOUS
10
6.34792
20
-3.80672
11
6.35012
21
-3.81554
0
LINE
8
BLACK
6
CONTINUOUS
10
6.35012
20
-3.81554
11
6.35009
21
-3.81577
0
LINE
8
BLACK
6
CONTINUOUS
10
6.35009
20
-3.81577
11
6.35018
21
-3.81599
0
LINE
8
BLACK
6
CONTINUOUS
10
6.35018
20
-3.81599
11
6.35018
21
-3.8226
0
LINE
8
BLACK
6
CONTINUOUS
10
6.35018
20
-3.8226
11
6.35009
21
-3.82282
0
LINE
8
BLACK
6
CONTINUOUS
10
6.35009
20
-3.82282
11
6.35012
21
-3.82305
0
LINE
8
BLACK
6
CONTINUOUS
10
6.35012
20
-3.82305
11
6.34792
21
-3.83187
0
LINE
8
BLACK
6
CONTINUOUS
10
6.34792
20
-3.83187
11
6.34779
21
-3.83204
0
LINE
8
BLACK
6
CONTINUOUS
10
6.34779
20
-3.83204
11
6.34778
21
-3.83225
0
LINE
8
BLACK
6
CONTINUOUS
10
6.34778
20
-3.83225
11
6.34557
21
-3.83666
0
LINE
8
BLACK
6
CONTINUOUS
10
6.34557
20
-3.83666
11
6.34534
21
-3.83686
0
LINE
8
BLACK
6
CONTINUOUS
10
6.34534
20
-3.83686
11
6.34523
21
-3.83714
0
LINE
8
BLACK
6
CONTINUOUS
10
6.34523
20
-3.83714
11
6.34082
21
-3.84155
0
LINE
8
BLACK
6
CONTINUOUS
10
6.34082
20
-3.84155
11
6.34042
21
-3.84171
0
LINE
8
BLACK
6
CONTINUOUS
10
6.34042
20
-3.84171
11
6.3401
21
-3.84199
0
LINE
8
BLACK
6
CONTINUOUS
10
6.3401
20
-3.84199
11
6.33348
21
-3.8442
0
LINE
8
BLACK
6
CONTINUOUS
10
6.33348
20
-3.8442
11
6.33318
21
-3.84418
0
LINE
8
BLACK
6
CONTINUOUS
10
6.33318
20
-3.84418
11
6.3329
21
-3.84429
0
LINE
8
BLACK
6
CONTINUOUS
10
6.3329
20
-3.84429
11
6.32849
21
-3.84429
0
LINE
8
BLACK
6
CONTINUOUS
10
6.32849
20
-3.84429
11
6.32821
21
-3.84418
0
LINE
8
BLACK
6
CONTINUOUS
10
6.32821
20
-3.84418
11
6.3279
21
-3.8442
0
LINE
8
BLACK
6
CONTINUOUS
10
6.3279
20
-3.8442
11
6.32129
21
-3.84199
0
LINE
8
BLACK
6
CONTINUOUS
10
6.32129
20
-3.84199
11
6.32096
21
-3.84171
0
LINE
8
BLACK
6
CONTINUOUS
10
6.32096
20
-3.84171
11
6.32057
21
-3.84155
0
LINE
8
BLACK
6
CONTINUOUS
10
6.32057
20
-3.84155
11
6.31836
21
-3.83934
0
LINE
8
BLACK
6
CONTINUOUS
10
6.31836
20
-3.83934
11
6.31782
21
-3.83804
0
LINE
8
BLACK
6
CONTINUOUS
10
6.31782
20
-3.83804
11
6.31836
21
-3.83674
0
LINE
8
BLACK
6
CONTINUOUS
10
6.31836
20
-3.83674
11
6.31966
21
-3.8362
0
LINE
8
BLACK
6
CONTINUOUS
10
6.31966
20
-3.8362
11
6.32096
21
-3.83674
0
LINE
8
BLACK
6
CONTINUOUS
10
6.32096
20
-3.83674
11
6.32286
21
-3.83864
0
LINE
8
BLACK
6
CONTINUOUS
10
6.32286
20
-3.83864
11
6.32878
21
-3.84061
0
LINE
8
BLACK
6
CONTINUOUS
10
6.32878
20
-3.84061
11
6.3326
21
-3.84061
0
LINE
8
BLACK
6
CONTINUOUS
10
6.3326
20
-3.84061
11
6.33852
21
-3.83864
0
LINE
8
BLACK
6
CONTINUOUS
10
6.33852
20
-3.83864
11
6.34241
21
-3.83475
0
LINE
8
BLACK
6
CONTINUOUS
10
6.34241
20
-3.83475
11
6.3444
21
-3.83078
0
LINE
8
BLACK
6
CONTINUOUS
10
6.3444
20
-3.83078
11
6.3465
21
-3.82238
0
LINE
8
BLACK
6
CONTINUOUS
10
6.3465
20
-3.82238
11
6.3465
21
-3.81621
0
LINE
8
BLACK
6
CONTINUOUS
10
6.3465
20
-3.81621
11
6.3444
21
-3.80781
0
LINE
8
BLACK
6
CONTINUOUS
10
6.3444
20
-3.80781
11
6.34241
21
-3.80384
0
LINE
8
BLACK
6
CONTINUOUS
10
6.34241
20
-3.80384
11
6.33852
21
-3.79995
0
LINE
8
BLACK
6
CONTINUOUS
10
6.33852
20
-3.79995
11
6.3326
21
-3.79797
0
LINE
8
BLACK
6
CONTINUOUS
10
6.3326
20
-3.79797
11
6.32878
21
-3.79797
0
LINE
8
BLACK
6
CONTINUOUS
10
6.32878
20
-3.79797
11
6.32286
21
-3.79995
0
LINE
8
BLACK
6
CONTINUOUS
10
6.32286
20
-3.79995
11
6.32096
21
-3.80185
0
LINE
8
BLACK
6
CONTINUOUS
10
6.32096
20
-3.80185
11
6.31966
21
-3.80239
0
LINE
8
BLACK
6
CONTINUOUS
10
6.31966
20
-3.80239
11
6.31836
21
-3.80185
0
LINE
8
BLACK
6
CONTINUOUS
10
6.31836
20
-3.80185
11
6.31782
21
-3.80055
0
LINE
8
BLACK
6
CONTINUOUS
10
6.31782
20
-3.80055
11
6.31836
21
-3.79924
0
LINE
8
BLACK
6
CONTINUOUS
10
6.31836
20
-3.79924
11
6.32057
21
-3.79704
0
LINE
8
BLACK
6
CONTINUOUS
10
6.32057
20
-3.79704
11
6.32096
21
-3.79688
0
LINE
8
BLACK
6
CONTINUOUS
10
6.32096
20
-3.79688
11
6.32129
21
-3.79659
0
LINE
8
BLACK
6
CONTINUOUS
10
6.32129
20
-3.79659
11
6.3279
21
-3.79439
0
LINE
8
BLACK
6
CONTINUOUS
10
6.3279
20
-3.79439
11
6.32821
21
-3.79441
0
LINE
8
BLACK
6
CONTINUOUS
10
6.32821
20
-3.79441
11
6.32849
21
-3.79429
0
LINE
8
BLACK
6
CONTINUOUS
10
6.32849
20
-3.79429
11
6.3329
21
-3.79429
0
LINE
8
BLACK
6
CONTINUOUS
10
6.3329
20
-3.79429
11
6.33318
21
-3.79441
0
LINE
8
BLACK
6
CONTINUOUS
10
6.28918
20
-3.79446
11
6.28961
21
-3.79449
0
LINE
8
BLACK
6
CONTINUOUS
10
6.28961
20
-3.79449
11
6.29402
21
-3.79669
0
LINE
8
BLACK
6
CONTINUOUS
10
6.29402
20
-3.79669
11
6.29422
21
-3.79692
0
LINE
8
BLACK
6
CONTINUOUS
10
6.29422
20
-3.79692
11
6.2945
21
-3.79704
0
LINE
8
BLACK
6
CONTINUOUS
10
6.2945
20
-3.79704
11
6.2967
21
-3.79924
0
LINE
8
BLACK
6
CONTINUOUS
10
6.2967
20
-3.79924
11
6.29677
21
-3.79942
0
LINE
8
BLACK
6
CONTINUOUS
10
6.29677
20
-3.79942
11
6.29693
21
-3.79953
0
LINE
8
BLACK
6
CONTINUOUS
10
6.29693
20
-3.79953
11
6.30134
21
-3.80614
0
LINE
8
BLACK
6
CONTINUOUS
10
6.30134
20
-3.80614
11
6.3014
21
-3.80646
0
LINE
8
BLACK
6
CONTINUOUS
10
6.3014
20
-3.80646
11
6.3016
21
-3.80672
0
LINE
8
BLACK
6
CONTINUOUS
10
6.3016
20
-3.80672
11
6.3038
21
-3.81554
0
LINE
8
BLACK
6
CONTINUOUS
10
6.3038
20
-3.81554
11
6.30377
21
-3.81577
0
LINE
8
BLACK
6
CONTINUOUS
10
6.30377
20
-3.81577
11
6.30386
21
-3.81599
0
LINE
8
BLACK
6
CONTINUOUS
10
6.30386
20
-3.81599
11
6.30386
21
-3.83363
0
LINE
8
BLACK
6
CONTINUOUS
10
6.30386
20
-3.83363
11
6.30369
21
-3.83403
0
LINE
8
BLACK
6
CONTINUOUS
10
6.30369
20
-3.83403
11
6.30366
21
-3.83445
0
LINE
8
BLACK
6
CONTINUOUS
10
6.30366
20
-3.83445
11
6.30146
21
-3.83887
0
LINE
8
BLACK
6
CONTINUOUS
10
6.30146
20
-3.83887
11
6.30123
21
-3.83906
0
LINE
8
BLACK
6
CONTINUOUS
10
6.30123
20
-3.83906
11
6.30111
21
-3.83934
0
LINE
8
BLACK
6
CONTINUOUS
10
6.30111
20
-3.83934
11
6.29891
21
-3.84155
0
LINE
8
BLACK
6
CONTINUOUS
10
6.29891
20
-3.84155
11
6.29863
21
-3.84167
0
LINE
8
BLACK
6
CONTINUOUS
10
6.29863
20
-3.84167
11
6.29843
21
-3.84189
0
LINE
8
BLACK
6
CONTINUOUS
10
6.29843
20
-3.84189
11
6.29402
21
-3.8441
0
LINE
8
BLACK
6
CONTINUOUS
10
6.29402
20
-3.8441
11
6.29359
21
-3.84413
0
LINE
8
BLACK
6
CONTINUOUS
10
6.29359
20
-3.84413
11
6.29319
21
-3.84429
0
LINE
8
BLACK
6
CONTINUOUS
10
6.29319
20
-3.84429
11
6.28437
21
-3.84429
0
LINE
8
BLACK
6
CONTINUOUS
10
6.28437
20
-3.84429
11
6.28398
21
-3.84413
0
LINE
8
BLACK
6
CONTINUOUS
10
6.28398
20
-3.84413
11
6.28355
21
-3.8441
0
LINE
8
BLACK
6
CONTINUOUS
10
6.28355
20
-3.8441
11
6.27914
21
-3.84189
0
LINE
8
BLACK
6
CONTINUOUS
10
6.27914
20
-3.84189
11
6.27894
21
-3.84167
0
LINE
8
BLACK
6
CONTINUOUS
10
6.27894
20
-3.84167
11
6.27866
21
-3.84155
0
LINE
8
BLACK
6
CONTINUOUS
10
6.27866
20
-3.84155
11
6.27645
21
-3.83934
0
LINE
8
BLACK
6
CONTINUOUS
10
6.27645
20
-3.83934
11
6.27634
21
-3.83906
0
LINE
8
BLACK
6
CONTINUOUS
10
6.27634
20
-3.83906
11
6.27611
21
-3.83887
0
LINE
8
BLACK
6
CONTINUOUS
10
6.27611
20
-3.83887
11
6.2739
21
-3.83445
0
LINE
8
BLACK
6
CONTINUOUS
10
6.2739
20
-3.83445
11
6.27387
21
-3.83403
0
LINE
8
BLACK
6
CONTINUOUS
10
6.27387
20
-3.83403
11
6.27371
21
-3.83363
0
LINE
8
BLACK
6
CONTINUOUS
10
6.27371
20
-3.83363
11
6.27371
21
-3.8226
0
LINE
8
BLACK
6
CONTINUOUS
10
6.27371
20
-3.8226
11
6.27387
21
-3.82221
0
LINE
8
BLACK
6
CONTINUOUS
10
6.27387
20
-3.82221
11
6.2739
21
-3.82178
0
LINE
8
BLACK
6
CONTINUOUS
10
6.2739
20
-3.82178
11
6.27611
21
-3.81737
0
LINE
8
BLACK
6
CONTINUOUS
10
6.27611
20
-3.81737
11
6.27634
21
-3.81717
0
LINE
8
BLACK
6
CONTINUOUS
10
6.27634
20
-3.81717
11
6.27645
21
-3.81689
0
LINE
8
BLACK
6
CONTINUOUS
10
6.27645
20
-3.81689
11
6.27866
21
-3.81468
0
LINE
8
BLACK
6
CONTINUOUS
10
6.27866
20
-3.81468
11
6.27894
21
-3.81457
0
LINE
8
BLACK
6
CONTINUOUS
10
6.27894
20
-3.81457
11
6.27914
21
-3.81434
0
LINE
8
BLACK
6
CONTINUOUS
10
6.27914
20
-3.81434
11
6.28355
21
-3.81213
0
LINE
8
BLACK
6
CONTINUOUS
10
6.28355
20
-3.81213
11
6.28398
21
-3.8121
0
LINE
8
BLACK
6
CONTINUOUS
10
6.28398
20
-3.8121
11
6.28437
21
-3.81194
0
LINE
8
BLACK
6
CONTINUOUS
10
6.28437
20
-3.81194
11
6.29319
21
-3.81194
0
LINE
8
BLACK
6
CONTINUOUS
10
6.29319
20
-3.81194
11
6.29359
21
-3.8121
0
LINE
8
BLACK
6
CONTINUOUS
10
6.29359
20
-3.8121
11
6.29402
21
-3.81213
0
LINE
8
BLACK
6
CONTINUOUS
10
6.29402
20
-3.81213
11
6.29843
21
-3.81434
0
LINE
8
BLACK
6
CONTINUOUS
10
6.29843
20
-3.81434
11
6.29863
21
-3.81457
0
LINE
8
BLACK
6
CONTINUOUS
10
6.29863
20
-3.81457
11
6.29891
21
-3.81468
0
LINE
8
BLACK
6
CONTINUOUS
10
6.29891
20
-3.81468
11
6.30009
21
-3.81587
0
LINE
8
BLACK
6
CONTINUOUS
10
6.30009
20
-3.81587
11
6.2981
21
-3.80792
0
LINE
8
BLACK
6
CONTINUOUS
10
6.2981
20
-3.80792
11
6.29397
21
-3.80172
0
LINE
8
BLACK
6
CONTINUOUS
10
6.29397
20
-3.80172
11
6.2921
21
-3.79985
0
LINE
8
BLACK
6
CONTINUOUS
10
6.2921
20
-3.79985
11
6.28835
21
-3.79797
0
LINE
8
BLACK
6
CONTINUOUS
10
6.28835
20
-3.79797
11
6.27996
21
-3.79797
0
LINE
8
BLACK
6
CONTINUOUS
10
6.27996
20
-3.79797
11
6.27866
21
-3.79744
0
LINE
8
BLACK
6
CONTINUOUS
10
6.27866
20
-3.79744
11
6.27812
21
-3.79613
0
LINE
8
BLACK
6
CONTINUOUS
10
6.27812
20
-3.79613
11
6.27866
21
-3.79483
0
LINE
8
BLACK
6
CONTINUOUS
10
6.27866
20
-3.79483
11
6.27996
21
-3.79429
0
LINE
8
BLACK
6
CONTINUOUS
10
6.27996
20
-3.79429
11
6.28878
21
-3.79429
0
LINE
8
BLACK
6
CONTINUOUS
10
6.28878
20
-3.79429
11
6.28918
21
-3.79446
0
LINE
8
BLACK
6
CONTINUOUS
10
6.28481
20
-3.81562
11
6.28105
21
-3.8175
0
LINE
8
BLACK
6
CONTINUOUS
10
6.28105
20
-3.8175
11
6.27927
21
-3.81928
0
LINE
8
BLACK
6
CONTINUOUS
10
6.27927
20
-3.81928
11
6.27739
21
-3.82304
0
LINE
8
BLACK
6
CONTINUOUS
10
6.27739
20
-3.82304
11
6.27739
21
-3.8332
0
LINE
8
BLACK
6
CONTINUOUS
10
6.27739
20
-3.8332
11
6.27927
21
-3.83695
0
LINE
8
BLACK
6
CONTINUOUS
10
6.27927
20
-3.83695
11
6.28105
21
-3.83874
0
LINE
8
BLACK
6
CONTINUOUS
10
6.28105
20
-3.83874
11
6.28481
21
-3.84061
0
LINE
8
BLACK
6
CONTINUOUS
10
6.28481
20
-3.84061
11
6.29276
21
-3.84061
0
LINE
8
BLACK
6
CONTINUOUS
10
6.29276
20
-3.84061
11
6.29652
21
-3.83874
0
LINE
8
BLACK
6
CONTINUOUS
10
6.29652
20
-3.83874
11
6.2983
21
-3.83695
0
LINE
8
BLACK
6
CONTINUOUS
10
6.2983
20
-3.83695
11
6.30018
21
-3.8332
0
LINE
8
BLACK
6
CONTINUOUS
10
6.30018
20
-3.8332
11
6.30018
21
-3.82304
0
LINE
8
BLACK
6
CONTINUOUS
10
6.30018
20
-3.82304
11
6.2983
21
-3.81928
0
LINE
8
BLACK
6
CONTINUOUS
10
6.2983
20
-3.81928
11
6.29652
21
-3.8175
0
LINE
8
BLACK
6
CONTINUOUS
10
6.29652
20
-3.8175
11
6.29276
21
-3.81562
0
LINE
8
BLACK
6
CONTINUOUS
10
6.29276
20
-3.81562
11
6.28481
21
-3.81562
0
LINE
8
BLACK
6
CONTINUOUS
10
6.19827
20
-3.80723
11
6.199
21
-3.809
0
LINE
8
BLACK
6
CONTINUOUS
10
6.199
20
-3.809
11
6.199
21
-3.819
0
LINE
8
BLACK
6
CONTINUOUS
10
6.199
20
-3.819
11
6.209
21
-3.819
0
LINE
8
BLACK
6
CONTINUOUS
10
6.209
20
-3.819
11
6.21077
21
-3.81973
0
LINE
8
BLACK
6
CONTINUOUS
10
6.21077
20
-3.81973
11
6.2115
21
-3.8215
0
LINE
8
BLACK
6
CONTINUOUS
10
6.2115
20
-3.8215
11
6.21077
21
-3.82327
0
LINE
8
BLACK
6
CONTINUOUS
10
6.21077
20
-3.82327
11
6.209
21
-3.824
0
LINE
8
BLACK
6
CONTINUOUS
10
6.209
20
-3.824
11
6.199
21
-3.824
0
LINE
8
BLACK
6
CONTINUOUS
10
6.199
20
-3.824
11
6.199
21
-3.834
0
LINE
8
BLACK
6
CONTINUOUS
10
6.199
20
-3.834
11
6.19827
21
-3.83577
0
LINE
8
BLACK
6
CONTINUOUS
10
6.19827
20
-3.83577
11
6.1965
21
-3.8365
0
LINE
8
BLACK
6
CONTINUOUS
10
6.1965
20
-3.8365
11
6.19473
21
-3.83577
0
LINE
8
BLACK
6
CONTINUOUS
10
6.19473
20
-3.83577
11
6.194
21
-3.834
0
LINE
8
BLACK
6
CONTINUOUS
10
6.194
20
-3.834
11
6.194
21
-3.824
0
LINE
8
BLACK
6
CONTINUOUS
10
6.194
20
-3.824
11
6.184
21
-3.824
0
LINE
8
BLACK
6
CONTINUOUS
10
6.184
20
-3.824
11
6.18223
21
-3.82327
0
LINE
8
BLACK
6
CONTINUOUS
10
6.18223
20
-3.82327
11
6.1815
21
-3.8215
0
LINE
8
BLACK
6
CONTINUOUS
10
6.1815
20
-3.8215
11
6.18223
21
-3.81973
0
LINE
8
BLACK
6
CONTINUOUS
10
6.18223
20
-3.81973
11
6.184
21
-3.819
0
LINE
8
BLACK
6
CONTINUOUS
10
6.184
20
-3.819
11
6.194
21
-3.819
0
LINE
8
BLACK
6
CONTINUOUS
10
6.194
20
-3.819
11
6.194
21
-3.809
0
LINE
8
BLACK
6
CONTINUOUS
10
6.194
20
-3.809
11
6.19473
21
-3.80723
0
LINE
8
BLACK
6
CONTINUOUS
10
6.19473
20
-3.80723
11
6.1965
21
-3.8065
0
LINE
8
BLACK
6
CONTINUOUS
10
6.1965
20
-3.8065
11
6.19827
21
-3.80723
0
LINE
8
BLACK
6
CONTINUOUS
10
5.61973
20
-3.72952
11
5.619
21
-3.72775
0
LINE
8
BLACK
6
CONTINUOUS
10
5.619
20
-3.72775
11
5.619
21
-3.49025
0
LINE
8
BLACK
6
CONTINUOUS
10
5.619
20
-3.49025
11
5.61973
21
-3.48848
0
LINE
8
BLACK
6
CONTINUOUS
10
5.61973
20
-3.48848
11
5.6215
21
-3.48775
0
LINE
8
BLACK
6
CONTINUOUS
10
5.6215
20
-3.48775
11
5.7465
21
-3.48775
0
LINE
8
BLACK
6
CONTINUOUS
10
5.7465
20
-3.48775
11
5.74827
21
-3.48848
0
LINE
8
BLACK
6
CONTINUOUS
10
5.74827
20
-3.48848
11
5.749
21
-3.49025
0
LINE
8
BLACK
6
CONTINUOUS
10
5.749
20
-3.49025
11
5.749
21
-3.72775
0
LINE
8
BLACK
6
CONTINUOUS
10
5.749
20
-3.72775
11
5.74827
21
-3.72952
0
LINE
8
BLACK
6
CONTINUOUS
10
5.74827
20
-3.72952
11
5.7465
21
-3.73025
0
LINE
8
BLACK
6
CONTINUOUS
10
5.7465
20
-3.73025
11
5.6215
21
-3.73025
0
LINE
8
BLACK
6
CONTINUOUS
10
5.6215
20
-3.73025
11
5.61973
21
-3.72952
0
LINE
8
BLACK
6
CONTINUOUS
10
5.624
20
-3.49275
11
5.624
21
-3.72525
0
LINE
8
BLACK
6
CONTINUOUS
10
5.624
20
-3.72525
11
5.744
21
-3.72525
0
LINE
8
BLACK
6
CONTINUOUS
10
5.744
20
-3.72525
11
5.744
21
-3.49275
0
LINE
8
BLACK
6
CONTINUOUS
10
5.744
20
-3.49275
11
5.624
21
-3.49275
0
LINE
8
BLACK
6
CONTINUOUS
10
5.68577
20
-3.65723
11
5.6865
21
-3.659
0
LINE
8
BLACK
6
CONTINUOUS
10
5.6865
20
-3.659
11
5.6865
21
-3.669
0
LINE
8
BLACK
6
CONTINUOUS
10
5.6865
20
-3.669
11
5.6965
21
-3.669
0
LINE
8
BLACK
6
CONTINUOUS
10
5.6965
20
-3.669
11
5.69827
21
-3.66973
0
LINE
8
BLACK
6
CONTINUOUS
10
5.69827
20
-3.66973
11
5.699
21
-3.6715
0
LINE
8
BLACK
6
CONTINUOUS
10
5.699
20
-3.6715
11
5.69827
21
-3.67327
0
LINE
8
BLACK
6
CONTINUOUS
10
5.69827
20
-3.67327
11
5.6965
21
-3.674
0
LINE
8
BLACK
6
CONTINUOUS
10
5.6965
20
-3.674
11
5.6865
21
-3.674
0
LINE
8
BLACK
6
CONTINUOUS
10
5.6865
20
-3.674
11
5.6865
21
-3.684
0
LINE
8
BLACK
6
CONTINUOUS
10
5.6865
20
-3.684
11
5.68577
21
-3.68577
0
LINE
8
BLACK
6
CONTINUOUS
10
5.68577
20
-3.68577
11
5.684
21
-3.6865
0
LINE
8
BLACK
6
CONTINUOUS
10
5.684
20
-3.6865
11
5.68223
21
-3.68577
0
LINE
8
BLACK
6
CONTINUOUS
10
5.68223
20
-3.68577
11
5.6815
21
-3.684
0
LINE
8
BLACK
6
CONTINUOUS
10
5.6815
20
-3.684
11
5.6815
21
-3.674
0
LINE
8
BLACK
6
CONTINUOUS
10
5.6815
20
-3.674
11
5.6715
21
-3.674
0
LINE
8
BLACK
6
CONTINUOUS
10
5.6715
20
-3.674
11
5.66973
21
-3.67327
0
LINE
8
BLACK
6
CONTINUOUS
10
5.66973
20
-3.67327
11
5.669
21
-3.6715
0
LINE
8
BLACK
6
CONTINUOUS
10
5.669
20
-3.6715
11
5.66973
21
-3.66973
0
LINE
8
BLACK
6
CONTINUOUS
10
5.66973
20
-3.66973
11
5.6715
21
-3.669
0
LINE
8
BLACK
6
CONTINUOUS
10
5.6715
20
-3.669
11
5.6815
21
-3.669
0
LINE
8
BLACK
6
CONTINUOUS
10
5.6815
20
-3.669
11
5.6815
21
-3.659
0
LINE
8
BLACK
6
CONTINUOUS
10
5.6815
20
-3.659
11
5.68223
21
-3.65723
0
LINE
8
BLACK
6
CONTINUOUS
10
5.68223
20
-3.65723
11
5.684
21
-3.6565
0
LINE
8
BLACK
6
CONTINUOUS
10
5.684
20
-3.6565
11
5.68577
21
-3.65723
0
LINE
8
BLACK
6
CONTINUOUS
10
6.14376
20
-3.66836
11
6.14429
21
-3.66966
0
LINE
8
BLACK
6
CONTINUOUS
10
6.14429
20
-3.66966
11
6.14429
21
-3.69834
0
LINE
8
BLACK
6
CONTINUOUS
10
6.14429
20
-3.69834
11
6.14376
21
-3.69964
0
LINE
8
BLACK
6
CONTINUOUS
10
6.14376
20
-3.69964
11
6.14245
21
-3.70018
0
LINE
8
BLACK
6
CONTINUOUS
10
6.14245
20
-3.70018
11
6.14115
21
-3.69964
0
LINE
8
BLACK
6
CONTINUOUS
10
6.14115
20
-3.69964
11
6.14061
21
-3.69834
0
LINE
8
BLACK
6
CONTINUOUS
10
6.14061
20
-3.69834
11
6.14061
21
-3.6741
0
LINE
8
BLACK
6
CONTINUOUS
10
6.14061
20
-3.6741
11
6.11729
21
-3.69743
0
LINE
8
BLACK
6
CONTINUOUS
10
6.11729
20
-3.69743
11
6.11689
21
-3.6976
0
LINE
8
BLACK
6
CONTINUOUS
10
6.11689
20
-3.6976
11
6.11657
21
-3.69788
0
LINE
8
BLACK
6
CONTINUOUS
10
6.11657
20
-3.69788
11
6.10995
21
-3.70008
0
LINE
8
BLACK
6
CONTINUOUS
10
6.10995
20
-3.70008
11
6.10965
21
-3.70006
0
LINE
8
BLACK
6
CONTINUOUS
10
6.10965
20
-3.70006
11
6.10937
21
-3.70018
0
LINE
8
BLACK
6
CONTINUOUS
10
6.10937
20
-3.70018
11
6.10496
21
-3.70018
0
LINE
8
BLACK
6
CONTINUOUS
10
6.10496
20
-3.70018
11
6.10456
21
-3.70001
0
LINE
8
BLACK
6
CONTINUOUS
10
6.10456
20
-3.70001
11
6.10413
21
-3.69998
0
LINE
8
BLACK
6
CONTINUOUS
10
6.10413
20
-3.69998
11
6.09972
21
-3.69778
0
LINE
8
BLACK
6
CONTINUOUS
10
6.09972
20
-3.69778
11
6.09952
21
-3.69755
0
LINE
8
BLACK
6
CONTINUOUS
10
6.09952
20
-3.69755
11
6.09924
21
-3.69743
0
LINE
8
BLACK
6
CONTINUOUS
10
6.09924
20
-3.69743
11
6.09704
21
-3.69523
0
LINE
8
BLACK
6
CONTINUOUS
10
6.09704
20
-3.69523
11
6.09692
21
-3.69495
0
LINE
8
BLACK
6
CONTINUOUS
10
6.09692
20
-3.69495
11
6.09669
21
-3.69475
0
LINE
8
BLACK
6
CONTINUOUS
10
6.09669
20
-3.69475
11
6.09449
21
-3.69034
0
LINE
8
BLACK
6
CONTINUOUS
10
6.09449
20
-3.69034
11
6.09446
21
-3.68991
0
LINE
8
BLACK
6
CONTINUOUS
10
6.09446
20
-3.68991
11
6.09429
21
-3.68951
0
LINE
8
BLACK
6
CONTINUOUS
10
6.09429
20
-3.68951
11
6.09429
21
-3.67849
0
LINE
8
BLACK
6
CONTINUOUS
10
6.09429
20
-3.67849
11
6.09446
21
-3.67809
0
LINE
8
BLACK
6
CONTINUOUS
10
6.09446
20
-3.67809
11
6.09449
21
-3.67766
0
LINE
8
BLACK
6
CONTINUOUS
10
6.09449
20
-3.67766
11
6.09669
21
-3.67325
0
LINE
8
BLACK
6
CONTINUOUS
10
6.09669
20
-3.67325
11
6.09692
21
-3.67305
0
LINE
8
BLACK
6
CONTINUOUS
10
6.09692
20
-3.67305
11
6.09704
21
-3.67277
0
LINE
8
BLACK
6
CONTINUOUS
10
6.09704
20
-3.67277
11
6.09924
21
-3.67057
0
LINE
8
BLACK
6
CONTINUOUS
10
6.09924
20
-3.67057
11
6.10055
21
-3.67003
0
LINE
8
BLACK
6
CONTINUOUS
10
6.10055
20
-3.67003
11
6.10185
21
-3.67057
0
LINE
8
BLACK
6
CONTINUOUS
10
6.10185
20
-3.67057
11
6.10239
21
-3.67187
0
LINE
8
BLACK
6
CONTINUOUS
10
6.10239
20
-3.67187
11
6.10185
21
-3.67317
0
LINE
8
BLACK
6
CONTINUOUS
10
6.10185
20
-3.67317
11
6.09985
21
-3.67516
0
LINE
8
BLACK
6
CONTINUOUS
10
6.09985
20
-3.67516
11
6.09797
21
-3.67892
0
LINE
8
BLACK
6
CONTINUOUS
10
6.09797
20
-3.67892
11
6.09797
21
-3.68908
0
LINE
8
BLACK
6
CONTINUOUS
10
6.09797
20
-3.68908
11
6.09985
21
-3.69284
0
LINE
8
BLACK
6
CONTINUOUS
10
6.09985
20
-3.69284
11
6.10164
21
-3.69462
0
LINE
8
BLACK
6
CONTINUOUS
10
6.10164
20
-3.69462
11
6.10539
21
-3.6965
0
LINE
8
BLACK
6
CONTINUOUS
10
6.10539
20
-3.6965
11
6.10907
21
-3.6965
0
LINE
8
BLACK
6
CONTINUOUS
10
6.10907
20
-3.6965
11
6.11499
21
-3.69452
0
LINE
8
BLACK
6
CONTINUOUS
10
6.11499
20
-3.69452
11
6.14115
21
-3.66836
0
LINE
8
BLACK
6
CONTINUOUS
10
6.14115
20
-3.66836
11
6.14245
21
-3.66782
0
LINE
8
BLACK
6
CONTINUOUS
10
6.14245
20
-3.66782
11
6.14376
21
-3.66836
0
LINE
8
BLACK
6
CONTINUOUS
10
6.12282
20
-3.6238
11
6.12305
21
-3.62376
0
LINE
8
BLACK
6
CONTINUOUS
10
6.12305
20
-3.62376
11
6.13187
21
-3.62597
0
LINE
8
BLACK
6
CONTINUOUS
10
6.13187
20
-3.62597
11
6.13204
21
-3.62609
0
LINE
8
BLACK
6
CONTINUOUS
10
6.13204
20
-3.62609
11
6.13225
21
-3.62611
0
LINE
8
BLACK
6
CONTINUOUS
10
6.13225
20
-3.62611
11
6.13666
21
-3.62831
0
LINE
8
BLACK
6
CONTINUOUS
10
6.13666
20
-3.62831
11
6.13686
21
-3.62854
0
LINE
8
BLACK
6
CONTINUOUS
10
6.13686
20
-3.62854
11
6.13714
21
-3.62866
0
LINE
8
BLACK
6
CONTINUOUS
10
6.13714
20
-3.62866
11
6.14155
21
-3.63307
0
LINE
8
BLACK
6
CONTINUOUS
10
6.14155
20
-3.63307
11
6.14171
21
-3.63347
0
LINE
8
BLACK
6
CONTINUOUS
10
6.14171
20
-3.63347
11
6.14199
21
-3.63379
0
LINE
8
BLACK
6
CONTINUOUS
10
6.14199
20
-3.63379
11
6.1442
21
-3.64041
0
LINE
8
BLACK
6
CONTINUOUS
10
6.1442
20
-3.64041
11
6.14418
21
-3.64071
0
LINE
8
BLACK
6
CONTINUOUS
10
6.14418
20
-3.64071
11
6.14429
21
-3.64099
0
LINE
8
BLACK
6
CONTINUOUS
10
6.14429
20
-3.64099
11
6.14429
21
-3.6454
0
LINE
8
BLACK
6
CONTINUOUS
10
6.14429
20
-3.6454
11
6.14418
21
-3.64568
0
LINE
8
BLACK
6
CONTINUOUS
10
6.14418
20
-3.64568
11
6.1442
21
-3.64598
0
LINE
8
BLACK
6
CONTINUOUS
10
6.1442
20
-3.64598
11
6.14199
21
-3.6526
0
LINE
8
BLACK
6
CONTINUOUS
10
6.14199
20
-3.6526
11
6.14171
21
-3.65292
0
LINE
8
BLACK
6
CONTINUOUS
10
6.14171
20
-3.65292
11
6.14155
21
-3.65332
0
LINE
8
BLACK
6
CONTINUOUS
10
6.14155
20
-3.65332
11
6.13934
21
-3.65552
0
LINE
8
BLACK
6
CONTINUOUS
10
6.13934
20
-3.65552
11
6.13804
21
-3.65606
0
LINE
8
BLACK
6
CONTINUOUS
10
6.13804
20
-3.65606
11
6.13674
21
-3.65552
0
LINE
8
BLACK
6
CONTINUOUS
10
6.13674
20
-3.65552
11
6.1362
21
-3.65422
0
LINE
8
BLACK
6
CONTINUOUS
10
6.1362
20
-3.65422
11
6.13674
21
-3.65292
0
LINE
8
BLACK
6
CONTINUOUS
10
6.13674
20
-3.65292
11
6.13864
21
-3.65102
0
LINE
8
BLACK
6
CONTINUOUS
10
6.13864
20
-3.65102
11
6.14061
21
-3.6451
0
LINE
8
BLACK
6
CONTINUOUS
10
6.14061
20
-3.6451
11
6.14061
21
-3.64129
0
LINE
8
BLACK
6
CONTINUOUS
10
6.14061
20
-3.64129
11
6.13864
21
-3.63537
0
LINE
8
BLACK
6
CONTINUOUS
10
6.13864
20
-3.63537
11
6.13475
21
-3.63147
0
LINE
8
BLACK
6
CONTINUOUS
10
6.13475
20
-3.63147
11
6.13078
21
-3.62949
0
LINE
8
BLACK
6
CONTINUOUS
10
6.13078
20
-3.62949
11
6.12238
21
-3.62739
0
LINE
8
BLACK
6
CONTINUOUS
10
6.12238
20
-3.62739
11
6.11621
21
-3.62739
0
LINE
8
BLACK
6
CONTINUOUS
10
6.11621
20
-3.62739
11
6.1078
21
-3.62949
0
LINE
8
BLACK
6
CONTINUOUS
10
6.1078
20
-3.62949
11
6.10384
21
-3.63147
0
LINE
8
BLACK
6
CONTINUOUS
10
6.10384
20
-3.63147
11
6.09995
21
-3.63537
0
LINE
8
BLACK
6
CONTINUOUS
10
6.09995
20
-3.63537
11
6.09797
21
-3.64129
0
LINE
8
BLACK
6
CONTINUOUS
10
6.09797
20
-3.64129
11
6.09797
21
-3.6451
0
LINE
8
BLACK
6
CONTINUOUS
10
6.09797
20
-3.6451
11
6.09995
21
-3.65102
0
LINE
8
BLACK
6
CONTINUOUS
10
6.09995
20
-3.65102
11
6.10185
21
-3.65292
0
LINE
8
BLACK
6
CONTINUOUS
10
6.10185
20
-3.65292
11
6.10239
21
-3.65422
0
LINE
8
BLACK
6
CONTINUOUS
10
6.10239
20
-3.65422
11
6.10185
21
-3.65552
0
LINE
8
BLACK
6
CONTINUOUS
10
6.10185
20
-3.65552
11
6.10055
21
-3.65606
0
LINE
8
BLACK
6
CONTINUOUS
10
6.10055
20
-3.65606
11
6.09924
21
-3.65552
0
LINE
8
BLACK
6
CONTINUOUS
10
6.09924
20
-3.65552
11
6.09704
21
-3.65332
0
LINE
8
BLACK
6
CONTINUOUS
10
6.09704
20
-3.65332
11
6.09688
21
-3.65292
0
LINE
8
BLACK
6
CONTINUOUS
10
6.09688
20
-3.65292
11
6.09659
21
-3.6526
0
LINE
8
BLACK
6
CONTINUOUS
10
6.09659
20
-3.6526
11
6.09439
21
-3.64598
0
LINE
8
BLACK
6
CONTINUOUS
10
6.09439
20
-3.64598
11
6.09441
21
-3.64568
0
LINE
8
BLACK
6
CONTINUOUS
10
6.09441
20
-3.64568
11
6.09429
21
-3.6454
0
LINE
8
BLACK
6
CONTINUOUS
10
6.09429
20
-3.6454
11
6.09429
21
-3.64099
0
LINE
8
BLACK
6
CONTINUOUS
10
6.09429
20
-3.64099
11
6.09441
21
-3.64071
0
LINE
8
BLACK
6
CONTINUOUS
10
6.09441
20
-3.64071
11
6.09439
21
-3.64041
0
LINE
8
BLACK
6
CONTINUOUS
10
6.09439
20
-3.64041
11
6.09659
21
-3.63379
0
LINE
8
BLACK
6
CONTINUOUS
10
6.09659
20
-3.63379
11
6.09688
21
-3.63347
0
LINE
8
BLACK
6
CONTINUOUS
10
6.09688
20
-3.63347
11
6.09704
21
-3.63307
0
LINE
8
BLACK
6
CONTINUOUS
10
6.09704
20
-3.63307
11
6.10145
21
-3.62866
0
LINE
8
BLACK
6
CONTINUOUS
10
6.10145
20
-3.62866
11
6.10173
21
-3.62854
0
LINE
8
BLACK
6
CONTINUOUS
10
6.10173
20
-3.62854
11
6.10193
21
-3.62831
0
LINE
8
BLACK
6
CONTINUOUS
10
6.10193
20
-3.62831
11
6.10634
21
-3.62611
0
LINE
8
BLACK
6
CONTINUOUS
10
6.10634
20
-3.62611
11
6.10655
21
-3.62609
0
LINE
8
BLACK
6
CONTINUOUS
10
6.10655
20
-3.62609
11
6.10672
21
-3.62597
0
LINE
8
BLACK
6
CONTINUOUS
10
6.10672
20
-3.62597
11
6.11554
21
-3.62376
0
LINE
8
BLACK
6
CONTINUOUS
10
6.11554
20
-3.62376
11
6.11577
21
-3.6238
0
LINE
8
BLACK
6
CONTINUOUS
10
6.11577
20
-3.6238
11
6.11599
21
-3.62371
0
LINE
8
BLACK
6
CONTINUOUS
10
6.11599
20
-3.62371
11
6.1226
21
-3.62371
0
LINE
8
BLACK
6
CONTINUOUS
10
6.1226
20
-3.62371
11
6.12282
21
-3.6238
0
LINE
8
BLACK
6
CONTINUOUS
10
5.60384
20
-3.56216
11
5.60603
21
-3.56435
0
LINE
8
BLACK
6
CONTINUOUS
10
5.60603
20
-3.56435
11
5.60616
21
-3.56465
0
LINE
8
BLACK
6
CONTINUOUS
10
5.60616
20
-3.56465
11
5.60641
21
-3.56487
0
LINE
8
BLACK
6
CONTINUOUS
10
5.60641
20
-3.56487
11
5.6086
21
-3.56925
0
LINE
8
BLACK
6
CONTINUOUS
10
5.6086
20
-3.56925
11
5.60863
21
-3.56971
0
LINE
8
BLACK
6
CONTINUOUS
10
5.60863
20
-3.56971
11
5.60881
21
-3.57014
0
LINE
8
BLACK
6
CONTINUOUS
10
5.60881
20
-3.57014
11
5.60881
21
-3.58329
0
LINE
8
BLACK
6
CONTINUOUS
10
5.60881
20
-3.58329
11
5.60863
21
-3.58372
0
LINE
8
BLACK
6
CONTINUOUS
10
5.60863
20
-3.58372
11
5.6086
21
-3.58418
0
LINE
8
BLACK
6
CONTINUOUS
10
5.6086
20
-3.58418
11
5.60641
21
-3.58856
0
LINE
8
BLACK
6
CONTINUOUS
10
5.60641
20
-3.58856
11
5.60616
21
-3.58878
0
LINE
8
BLACK
6
CONTINUOUS
10
5.60616
20
-3.58878
11
5.60603
21
-3.58908
0
LINE
8
BLACK
6
CONTINUOUS
10
5.60603
20
-3.58908
11
5.60384
21
-3.59127
0
LINE
8
BLACK
6
CONTINUOUS
10
5.60384
20
-3.59127
11
5.60354
21
-3.5914
0
LINE
8
BLACK
6
CONTINUOUS
10
5.60354
20
-3.5914
11
5.60332
21
-3.59165
0
LINE
8
BLACK
6
CONTINUOUS
10
5.60332
20
-3.59165
11
5.59894
21
-3.59384
0
LINE
8
BLACK
6
CONTINUOUS
10
5.59894
20
-3.59384
11
5.59848
21
-3.59387
0
LINE
8
BLACK
6
CONTINUOUS
10
5.59848
20
-3.59387
11
5.59805
21
-3.59405
0
LINE
8
BLACK
6
CONTINUOUS
10
5.59805
20
-3.59405
11
5.5871
21
-3.59405
0
LINE
8
BLACK
6
CONTINUOUS
10
5.5871
20
-3.59405
11
5.58667
21
-3.59387
0
LINE
8
BLACK
6
CONTINUOUS
10
5.58667
20
-3.59387
11
5.5862
21
-3.59384
0
LINE
8
BLACK
6
CONTINUOUS
10
5.5862
20
-3.59384
11
5.58182
21
-3.59165
0
LINE
8
BLACK
6
CONTINUOUS
10
5.58182
20
-3.59165
11
5.5816
21
-3.5914
0
LINE
8
BLACK
6
CONTINUOUS
10
5.5816
20
-3.5914
11
5.5813
21
-3.59127
0
LINE
8
BLACK
6
CONTINUOUS
10
5.5813
20
-3.59127
11
5.57911
21
-3.58908
0
LINE
8
BLACK
6
CONTINUOUS
10
5.57911
20
-3.58908
11
5.57898
21
-3.58878
0
LINE
8
BLACK
6
CONTINUOUS
10
5.57898
20
-3.58878
11
5.57873
21
-3.58856
0
LINE
8
BLACK
6
CONTINUOUS
10
5.57873
20
-3.58856
11
5.57654
21
-3.58418
0
LINE
8
BLACK
6
CONTINUOUS
10
5.57654
20
-3.58418
11
5.57651
21
-3.58372
0
LINE
8
BLACK
6
CONTINUOUS
10
5.57651
20
-3.58372
11
5.57633
21
-3.58329
0
LINE
8
BLACK
6
CONTINUOUS
10
5.57633
20
-3.58329
11
5.57633
21
-3.58112
0
LINE
8
BLACK
6
CONTINUOUS
10
5.57633
20
-3.58112
11
5.56213
21
-3.59355
0
LINE
8
BLACK
6
CONTINUOUS
10
5.56213
20
-3.59355
11
5.56146
21
-3.59378
0
LINE
8
BLACK
6
CONTINUOUS
10
5.56146
20
-3.59378
11
5.56081
21
-3.59405
0
LINE
8
BLACK
6
CONTINUOUS
10
5.56081
20
-3.59405
11
5.56074
21
-3.59402
0
LINE
8
BLACK
6
CONTINUOUS
10
5.56074
20
-3.59402
11
5.56068
21
-3.59404
0
LINE
8
BLACK
6
CONTINUOUS
10
5.56068
20
-3.59404
11
5.56005
21
-3.59373
0
LINE
8
BLACK
6
CONTINUOUS
10
5.56005
20
-3.59373
11
5.5594
21
-3.59346
0
LINE
8
BLACK
6
CONTINUOUS
10
5.5594
20
-3.59346
11
5.55937
21
-3.5934
0
LINE
8
BLACK
6
CONTINUOUS
10
5.55937
20
-3.5934
11
5.5593
21
-3.59336
0
LINE
8
BLACK
6
CONTINUOUS
10
5.5593
20
-3.59336
11
5.55908
21
-3.5927
0
LINE
8
BLACK
6
CONTINUOUS
10
5.55908
20
-3.5927
11
5.55881
21
-3.59205
0
LINE
8
BLACK
6
CONTINUOUS
10
5.55881
20
-3.59205
11
5.55881
21
-3.56357
0
LINE
8
BLACK
6
CONTINUOUS
10
5.55881
20
-3.56357
11
5.5594
21
-3.56216
0
LINE
8
BLACK
6
CONTINUOUS
10
5.5594
20
-3.56216
11
5.56081
21
-3.56157
0
LINE
8
BLACK
6
CONTINUOUS
10
5.56081
20
-3.56157
11
5.56222
21
-3.56216
0
LINE
8
BLACK
6
CONTINUOUS
10
5.56222
20
-3.56216
11
5.56281
21
-3.56357
0
LINE
8
BLACK
6
CONTINUOUS
10
5.56281
20
-3.56357
11
5.56281
21
-3.58764
0
LINE
8
BLACK
6
CONTINUOUS
10
5.56281
20
-3.58764
11
5.57702
21
-3.57521
0
LINE
8
BLACK
6
CONTINUOUS
10
5.57702
20
-3.57521
11
5.57768
21
-3.57498
0
LINE
8
BLACK
6
CONTINUOUS
10
5.57768
20
-3.57498
11
5.57833
21
-3.57471
0
LINE
8
BLACK
6
CONTINUOUS
10
5.57833
20
-3.57471
11
5.5784
21
-3.57474
0
LINE
8
BLACK
6
CONTINUOUS
10
5.5784
20
-3.57474
11
5.57847
21
-3.57472
0
LINE
8
BLACK
6
CONTINUOUS
10
5.57847
20
-3.57472
11
5.5791
21
-3.57503
0
LINE
8
BLACK
6
CONTINUOUS
10
5.5791
20
-3.57503
11
5.57975
21
-3.5753
0
LINE
8
BLACK
6
CONTINUOUS
10
5.57975
20
-3.5753
11
5.57977
21
-3.57537
0
LINE
8
BLACK
6
CONTINUOUS
10
5.57977
20
-3.57537
11
5.57984
21
-3.5754
0
LINE
8
BLACK
6
CONTINUOUS
10
5.57984
20
-3.5754
11
5.58006
21
-3.57606
0
LINE
8
BLACK
6
CONTINUOUS
10
5.58006
20
-3.57606
11
5.58033
21
-3.57671
0
LINE
8
BLACK
6
CONTINUOUS
10
5.58033
20
-3.57671
11
5.58033
21
-3.58281
0
LINE
8
BLACK
6
CONTINUOUS
10
5.58033
20
-3.58281
11
5.58217
21
-3.58648
0
LINE
8
BLACK
6
CONTINUOUS
10
5.58217
20
-3.58648
11
5.5839
21
-3.58821
0
LINE
8
BLACK
6
CONTINUOUS
10
5.5839
20
-3.58821
11
5.58757
21
-3.59005
0
LINE
8
BLACK
6
CONTINUOUS
10
5.58757
20
-3.59005
11
5.59758
21
-3.59005
0
LINE
8
BLACK
6
CONTINUOUS
10
5.59758
20
-3.59005
11
5.60124
21
-3.58821
0
LINE
8
BLACK
6
CONTINUOUS
10
5.60124
20
-3.58821
11
5.60298
21
-3.58648
0
LINE
8
BLACK
6
CONTINUOUS
10
5.60298
20
-3.58648
11
5.60481
21
-3.58281
0
LINE
8
BLACK
6
CONTINUOUS
10
5.60481
20
-3.58281
11
5.60481
21
-3.57061
0
LINE
8
BLACK
6
CONTINUOUS
10
5.60481
20
-3.57061
11
5.60298
21
-3.56695
0
LINE
8
BLACK
6
CONTINUOUS
10
5.60298
20
-3.56695
11
5.60101
21
-3.56499
0
LINE
8
BLACK
6
CONTINUOUS
10
5.60101
20
-3.56499
11
5.60043
21
-3.56357
0
LINE
8
BLACK
6
CONTINUOUS
10
5.60043
20
-3.56357
11
5.60101
21
-3.56216
0
LINE
8
BLACK
6
CONTINUOUS
10
5.60101
20
-3.56216
11
5.60243
21
-3.56157
0
LINE
8
BLACK
6
CONTINUOUS
10
5.60243
20
-3.56157
11
5.60384
21
-3.56216
0
LINE
8
BLACK
6
CONTINUOUS
10
5.58733
20
-3.51786
11
5.58758
21
-3.51782
0
LINE
8
BLACK
6
CONTINUOUS
10
5.58758
20
-3.51782
11
5.59634
21
-3.52001
0
LINE
8
BLACK
6
CONTINUOUS
10
5.59634
20
-3.52001
11
5.59652
21
-3.52015
0
LINE
8
BLACK
6
CONTINUOUS
10
5.59652
20
-3.52015
11
5.59675
21
-3.52016
0
LINE
8
BLACK
6
CONTINUOUS
10
5.59675
20
-3.52016
11
5.60113
21
-3.52235
0
LINE
8
BLACK
6
CONTINUOUS
10
5.60113
20
-3.52235
11
5.60135
21
-3.5226
0
LINE
8
BLACK
6
CONTINUOUS
10
5.60135
20
-3.5226
11
5.60165
21
-3.52273
0
LINE
8
BLACK
6
CONTINUOUS
10
5.60165
20
-3.52273
11
5.60603
21
-3.52711
0
LINE
8
BLACK
6
CONTINUOUS
10
5.60603
20
-3.52711
11
5.60621
21
-3.52754
0
LINE
8
BLACK
6
CONTINUOUS
10
5.60621
20
-3.52754
11
5.60652
21
-3.52789
0
LINE
8
BLACK
6
CONTINUOUS
10
5.60652
20
-3.52789
11
5.60871
21
-3.53446
0
LINE
8
BLACK
6
CONTINUOUS
10
5.60871
20
-3.53446
11
5.60868
21
-3.53479
0
LINE
8
BLACK
6
CONTINUOUS
10
5.60868
20
-3.53479
11
5.60881
21
-3.5351
0
LINE
8
BLACK
6
CONTINUOUS
10
5.60881
20
-3.5351
11
5.60881
21
-3.53948
0
LINE
8
BLACK
6
CONTINUOUS
10
5.60881
20
-3.53948
11
5.60868
21
-3.53978
0
LINE
8
BLACK
6
CONTINUOUS
10
5.60868
20
-3.53978
11
5.60871
21
-3.54011
0
LINE
8
BLACK
6
CONTINUOUS
10
5.60871
20
-3.54011
11
5.60652
21
-3.54668
0
LINE
8
BLACK
6
CONTINUOUS
10
5.60652
20
-3.54668
11
5.60621
21
-3.54703
0
LINE
8
BLACK
6
CONTINUOUS
10
5.60621
20
-3.54703
11
5.60603
21
-3.54746
0
LINE
8
BLACK
6
CONTINUOUS
10
5.60603
20
-3.54746
11
5.60384
21
-3.54965
0
LINE
8
BLACK
6
CONTINUOUS
10
5.60384
20
-3.54965
11
5.60243
21
-3.55024
0
LINE
8
BLACK
6
CONTINUOUS
10
5.60243
20
-3.55024
11
5.60101
21
-3.54965
0
LINE
8
BLACK
6
CONTINUOUS
10
5.60101
20
-3.54965
11
5.60043
21
-3.54824
0
LINE
8
BLACK
6
CONTINUOUS
10
5.60043
20
-3.54824
11
5.60101
21
-3.54682
0
LINE
8
BLACK
6
CONTINUOUS
10
5.60101
20
-3.54682
11
5.60287
21
-3.54497
0
LINE
8
BLACK
6
CONTINUOUS
10
5.60287
20
-3.54497
11
5.60481
21
-3.53915
0
LINE
8
BLACK
6
CONTINUOUS
10
5.60481
20
-3.53915
11
5.60481
21
-3.53542
0
LINE
8
BLACK
6
CONTINUOUS
10
5.60481
20
-3.53542
11
5.60287
21
-3.5296
0
LINE
8
BLACK
6
CONTINUOUS
10
5.60287
20
-3.5296
11
5.59905
21
-3.52579
0
LINE
8
BLACK
6
CONTINUOUS
10
5.59905
20
-3.52579
11
5.59516
21
-3.52384
0
LINE
8
BLACK
6
CONTINUOUS
10
5.59516
20
-3.52384
11
5.58685
21
-3.52176
0
LINE
8
BLACK
6
CONTINUOUS
10
5.58685
20
-3.52176
11
5.58077
21
-3.52176
0
LINE
8
BLACK
6
CONTINUOUS
10
5.58077
20
-3.52176
11
5.57246
21
-3.52384
0
LINE
8
BLACK
6
CONTINUOUS
10
5.57246
20
-3.52384
11
5.56857
21
-3.52579
0
LINE
8
BLACK
6
CONTINUOUS
10
5.56857
20
-3.52579
11
5.56475
21
-3.5296
0
LINE
8
BLACK
6
CONTINUOUS
10
5.56475
20
-3.5296
11
5.56281
21
-3.53542
0
LINE
8
BLACK
6
CONTINUOUS
10
5.56281
20
-3.53542
11
5.56281
21
-3.53915
0
LINE
8
BLACK
6
CONTINUOUS
10
5.56281
20
-3.53915
11
5.56475
21
-3.54497
0
LINE
8
BLACK
6
CONTINUOUS
10
5.56475
20
-3.54497
11
5.5666
21
-3.54682
0
LINE
8
BLACK
6
CONTINUOUS
10
5.5666
20
-3.54682
11
5.56719
21
-3.54824
0
LINE
8
BLACK
6
CONTINUOUS
10
5.56719
20
-3.54824
11
5.5666
21
-3.54965
0
LINE
8
BLACK
6
CONTINUOUS
10
5.5666
20
-3.54965
11
5.56519
21
-3.55024
0
LINE
8
BLACK
6
CONTINUOUS
10
5.56519
20
-3.55024
11
5.56378
21
-3.54965
0
LINE
8
BLACK
6
CONTINUOUS
10
5.56378
20
-3.54965
11
5.56159
21
-3.54746
0
LINE
8
BLACK
6
CONTINUOUS
10
5.56159
20
-3.54746
11
5.56141
21
-3.54703
0
LINE
8
BLACK
6
CONTINUOUS
10
5.56141
20
-3.54703
11
5.5611
21
-3.54668
0
LINE
8
BLACK
6
CONTINUOUS
10
5.5611
20
-3.54668
11
5.55891
21
-3.54011
0
LINE
8
BLACK
6
CONTINUOUS
10
5.55891
20
-3.54011
11
5.55894
21
-3.53978
0
LINE
8
BLACK
6
CONTINUOUS
10
5.55894
20
-3.53978
11
5.55881
21
-3.53948
0
LINE
8
BLACK
6
CONTINUOUS
10
5.55881
20
-3.53948
11
5.55881
21
-3.5351
0
LINE
8
BLACK
6
CONTINUOUS
10
5.55881
20
-3.5351
11
5.55894
21
-3.53479
0
LINE
8
BLACK
6
CONTINUOUS
10
5.55894
20
-3.53479
11
5.55891
21
-3.53446
0
LINE
8
BLACK
6
CONTINUOUS
10
5.55891
20
-3.53446
11
5.5611
21
-3.52789
0
LINE
8
BLACK
6
CONTINUOUS
10
5.5611
20
-3.52789
11
5.56141
21
-3.52754
0
LINE
8
BLACK
6
CONTINUOUS
10
5.56141
20
-3.52754
11
5.56159
21
-3.52711
0
LINE
8
BLACK
6
CONTINUOUS
10
5.56159
20
-3.52711
11
5.56597
21
-3.52273
0
LINE
8
BLACK
6
CONTINUOUS
10
5.56597
20
-3.52273
11
5.56627
21
-3.5226
0
LINE
8
BLACK
6
CONTINUOUS
10
5.56627
20
-3.5226
11
5.56649
21
-3.52235
0
LINE
8
BLACK
6
CONTINUOUS
10
5.56649
20
-3.52235
11
5.57087
21
-3.52016
0
LINE
8
BLACK
6
CONTINUOUS
10
5.57087
20
-3.52016
11
5.57109
21
-3.52015
0
LINE
8
BLACK
6
CONTINUOUS
10
5.57109
20
-3.52015
11
5.57128
21
-3.52001
0
LINE
8
BLACK
6
CONTINUOUS
10
5.57128
20
-3.52001
11
5.58004
21
-3.51782
0
LINE
8
BLACK
6
CONTINUOUS
10
5.58004
20
-3.51782
11
5.58029
21
-3.51786
0
LINE
8
BLACK
6
CONTINUOUS
10
5.58029
20
-3.51786
11
5.58052
21
-3.51776
0
LINE
8
BLACK
6
CONTINUOUS
10
5.58052
20
-3.51776
11
5.5871
21
-3.51776
0
LINE
8
BLACK
6
CONTINUOUS
10
5.5871
20
-3.51776
11
5.58733
21
-3.51786
  0
ENDSEC
  0
EOF
