  0
SECTION
  2
HEADER
  9
$ANGBASE
  50
0.0
  9
$ANGDIR
  70
1
  9
$MEASUREMENT
  70
0
  0
ENDSEC
  0
SECTION
  2
TABLES
  0
TABLE
  2
LTYPE
  70
4
  0
LTYPE
  5
40F
  2
CONTINUOUS
  70
0
  3
Solid line
  72
65
  73
0
  40
0.0
  0
LTYPE
  5
410
  2
DASHDOT
 70
0
  3
Dash Dot ____ _ ____ _
 72
65
 73
4
 40
2.0
 49
1.25
 49
-0.25
 49
0.25
 49
-0.25
  0
LTYPE
  5
411
  2
DASHED
 70
0
  3
Dashed __ __ __ __ __
 72
65
 73
2
 40
0.75
 49
0.5
 49
-0.25
  0
LTYPE
  5
43B
  2
DOTTED
 70
0
  3
Dotted .  .  .  .
 72
65
 73
2
 40
0.2
 49
0.0
 49
-0.2
  0
ENDTAB
  0
TABLE
  2
STYLE
  70
4
  0
STYLE
  2
KICAD
  70
0
  40
0
  41
1
  42
1
  50
0
  71
0
  3
isocp.shx
  0
STYLE
  2
KICADB
  70
0
  40
0
  41
1
  42
1
  50
0
  71
0
  3
isocp.shx
  0
STYLE
  2
KICADI
  70
0
  40
0
  41
1
  42
1
  50
15
  71
0
  3
isocp.shx
  0
STYLE
  2
KICADBI
  70
0
  40
0
  41
1
  42
1
  50
15
  71
0
  3
isocp.shx
  0
ENDTAB
  0
TABLE
  2
LAYER
  70
1
  0
LAYER
  2
BLACK
  70
0
  62
7
  6
CONTINUOUS
  0
ENDTAB
  0
ENDSEC
  0
SECTION
  2
ENTITIES
0
LINE
8
BLACK
6
CONTINUOUS
10
5.60191
20
-4.85999
11
5.60162
21
-4.8593
0
LINE
8
BLACK
6
CONTINUOUS
10
5.60162
20
-4.8593
11
5.60162
21
-4.5837
0
LINE
8
BLACK
6
CONTINUOUS
10
5.60162
20
-4.5837
11
5.60191
21
-4.58301
0
LINE
8
BLACK
6
CONTINUOUS
10
5.60191
20
-4.58301
11
5.6026
21
-4.58272
0
LINE
8
BLACK
6
CONTINUOUS
10
5.6026
20
-4.58272
11
5.7404
21
-4.58272
0
LINE
8
BLACK
6
CONTINUOUS
10
5.7404
20
-4.58272
11
5.74109
21
-4.58301
0
LINE
8
BLACK
6
CONTINUOUS
10
5.74109
20
-4.58301
11
5.74138
21
-4.5837
0
LINE
8
BLACK
6
CONTINUOUS
10
5.74138
20
-4.5837
11
5.74138
21
-4.8593
0
LINE
8
BLACK
6
CONTINUOUS
10
5.74138
20
-4.8593
11
5.74109
21
-4.85999
0
LINE
8
BLACK
6
CONTINUOUS
10
5.74109
20
-4.85999
11
5.7404
21
-4.86028
0
LINE
8
BLACK
6
CONTINUOUS
10
5.7404
20
-4.86028
11
5.6026
21
-4.86028
0
LINE
8
BLACK
6
CONTINUOUS
10
5.6026
20
-4.86028
11
5.60191
21
-4.85999
0
LINE
8
BLACK
6
CONTINUOUS
10
5.60359
20
-4.58469
11
5.60359
21
-4.85831
0
LINE
8
BLACK
6
CONTINUOUS
10
5.60359
20
-4.85831
11
5.73941
21
-4.85831
0
LINE
8
BLACK
6
CONTINUOUS
10
5.73941
20
-4.85831
11
5.73941
21
-4.58469
0
LINE
8
BLACK
6
CONTINUOUS
10
5.73941
20
-4.58469
11
5.60359
21
-4.58469
0
LINE
8
BLACK
6
CONTINUOUS
10
5.79137
20
-4.43578
11
5.79109
21
-4.43508
0
LINE
8
BLACK
6
CONTINUOUS
10
5.79109
20
-4.43508
11
5.79109
21
-4.35792
0
LINE
8
BLACK
6
CONTINUOUS
10
5.79109
20
-4.35792
11
5.79137
21
-4.35722
0
LINE
8
BLACK
6
CONTINUOUS
10
5.79137
20
-4.35722
11
5.79207
21
-4.35693
0
LINE
8
BLACK
6
CONTINUOUS
10
5.79207
20
-4.35693
11
5.92593
21
-4.35693
0
LINE
8
BLACK
6
CONTINUOUS
10
5.92593
20
-4.35693
11
5.92663
21
-4.35722
0
LINE
8
BLACK
6
CONTINUOUS
10
5.92663
20
-4.35722
11
5.92691
21
-4.35792
0
LINE
8
BLACK
6
CONTINUOUS
10
5.92691
20
-4.35792
11
5.92691
21
-4.43508
0
LINE
8
BLACK
6
CONTINUOUS
10
5.92691
20
-4.43508
11
5.92663
21
-4.43578
0
LINE
8
BLACK
6
CONTINUOUS
10
5.92663
20
-4.43578
11
5.92593
21
-4.43607
0
LINE
8
BLACK
6
CONTINUOUS
10
5.92593
20
-4.43607
11
5.79207
21
-4.43607
0
LINE
8
BLACK
6
CONTINUOUS
10
5.79207
20
-4.43607
11
5.79137
21
-4.43578
0
LINE
8
BLACK
6
CONTINUOUS
10
5.79306
20
-4.3589
11
5.79306
21
-4.4341
0
LINE
8
BLACK
6
CONTINUOUS
10
5.79306
20
-4.4341
11
5.92494
21
-4.4341
0
LINE
8
BLACK
6
CONTINUOUS
10
5.92494
20
-4.4341
11
5.92494
21
-4.3589
0
LINE
8
BLACK
6
CONTINUOUS
10
5.92494
20
-4.3589
11
5.79306
21
-4.3589
0
LINE
8
BLACK
6
CONTINUOUS
10
5.74857
20
-4.12337
11
5.90142
21
-4.12337
0
LINE
8
BLACK
6
CONTINUOUS
10
5.90142
20
-4.12337
11
5.90212
21
-4.12366
0
LINE
8
BLACK
6
CONTINUOUS
10
5.90212
20
-4.12366
11
5.90241
21
-4.12435
0
LINE
8
BLACK
6
CONTINUOUS
10
5.90241
20
-4.12435
11
5.90241
21
-4.29365
0
LINE
8
BLACK
6
CONTINUOUS
10
5.90241
20
-4.29365
11
5.90212
21
-4.29434
0
LINE
8
BLACK
6
CONTINUOUS
10
5.90212
20
-4.29434
11
5.90142
21
-4.29463
0
LINE
8
BLACK
6
CONTINUOUS
10
5.90142
20
-4.29463
11
5.74158
21
-4.29463
0
LINE
8
BLACK
6
CONTINUOUS
10
5.74158
20
-4.29463
11
5.74088
21
-4.29434
0
LINE
8
BLACK
6
CONTINUOUS
10
5.74088
20
-4.29434
11
5.74059
21
-4.29365
0
LINE
8
BLACK
6
CONTINUOUS
10
5.74059
20
-4.29365
11
5.74059
21
-4.16441
0
LINE
8
BLACK
6
CONTINUOUS
10
5.74059
20
-4.16441
11
5.67042
21
-4.16441
0
LINE
8
BLACK
6
CONTINUOUS
10
5.67042
20
-4.16441
11
5.66972
21
-4.16413
0
LINE
8
BLACK
6
CONTINUOUS
10
5.66972
20
-4.16413
11
5.66951
21
-4.16363
0
LINE
8
BLACK
6
CONTINUOUS
10
5.66951
20
-4.16363
11
5.5966
21
-4.16363
0
LINE
8
BLACK
6
CONTINUOUS
10
5.5966
20
-4.16363
11
5.5959
21
-4.16334
0
LINE
8
BLACK
6
CONTINUOUS
10
5.5959
20
-4.16334
11
5.59561
21
-4.16264
0
LINE
8
BLACK
6
CONTINUOUS
10
5.59561
20
-4.16264
11
5.59561
21
-4.03036
0
LINE
8
BLACK
6
CONTINUOUS
10
5.59561
20
-4.03036
11
5.5959
21
-4.02966
0
LINE
8
BLACK
6
CONTINUOUS
10
5.5959
20
-4.02966
11
5.5966
21
-4.02937
0
LINE
8
BLACK
6
CONTINUOUS
10
5.5966
20
-4.02937
11
5.66951
21
-4.02937
0
LINE
8
BLACK
6
CONTINUOUS
10
5.66951
20
-4.02937
11
5.66972
21
-4.02887
0
LINE
8
BLACK
6
CONTINUOUS
10
5.66972
20
-4.02887
11
5.67042
21
-4.02859
0
LINE
8
BLACK
6
CONTINUOUS
10
5.67042
20
-4.02859
11
5.73193
21
-4.02859
0
LINE
8
BLACK
6
CONTINUOUS
10
5.73193
20
-4.02859
11
5.73193
21
-3.91707
0
LINE
8
BLACK
6
CONTINUOUS
10
5.73193
20
-3.91707
11
5.73222
21
-3.91637
0
LINE
8
BLACK
6
CONTINUOUS
10
5.73222
20
-3.91637
11
5.73292
21
-3.91609
0
LINE
8
BLACK
6
CONTINUOUS
10
5.73292
20
-3.91609
11
5.81008
21
-3.91609
0
LINE
8
BLACK
6
CONTINUOUS
10
5.81008
20
-3.91609
11
5.81078
21
-3.91637
0
LINE
8
BLACK
6
CONTINUOUS
10
5.81078
20
-3.91637
11
5.81107
21
-3.91707
0
LINE
8
BLACK
6
CONTINUOUS
10
5.81107
20
-3.91707
11
5.81107
21
-4.05093
0
LINE
8
BLACK
6
CONTINUOUS
10
5.81107
20
-4.05093
11
5.81078
21
-4.05163
0
LINE
8
BLACK
6
CONTINUOUS
10
5.81078
20
-4.05163
11
5.81008
21
-4.05191
0
LINE
8
BLACK
6
CONTINUOUS
10
5.81008
20
-4.05191
11
5.74857
21
-4.05191
0
LINE
8
BLACK
6
CONTINUOUS
10
5.74857
20
-4.05191
11
5.74857
21
-4.12337
0
LINE
8
BLACK
6
CONTINUOUS
10
5.74256
20
-4.29266
11
5.90044
21
-4.29266
0
LINE
8
BLACK
6
CONTINUOUS
10
5.90044
20
-4.29266
11
5.90044
21
-4.12534
0
LINE
8
BLACK
6
CONTINUOUS
10
5.90044
20
-4.12534
11
5.74857
21
-4.12534
0
LINE
8
BLACK
6
CONTINUOUS
10
5.74857
20
-4.12534
11
5.74857
21
-4.16343
0
LINE
8
BLACK
6
CONTINUOUS
10
5.74857
20
-4.16343
11
5.74828
21
-4.16413
0
LINE
8
BLACK
6
CONTINUOUS
10
5.74828
20
-4.16413
11
5.74758
21
-4.16441
0
LINE
8
BLACK
6
CONTINUOUS
10
5.74758
20
-4.16441
11
5.74256
21
-4.16441
0
LINE
8
BLACK
6
CONTINUOUS
10
5.74256
20
-4.16441
11
5.74256
21
-4.29266
0
LINE
8
BLACK
6
CONTINUOUS
10
5.67239
20
-4.03056
11
5.67239
21
-4.16244
0
LINE
8
BLACK
6
CONTINUOUS
10
5.67239
20
-4.16244
11
5.74059
21
-4.16244
0
LINE
8
BLACK
6
CONTINUOUS
10
5.74059
20
-4.16244
11
5.74059
21
-4.12435
0
LINE
8
BLACK
6
CONTINUOUS
10
5.74059
20
-4.12435
11
5.74088
21
-4.12366
0
LINE
8
BLACK
6
CONTINUOUS
10
5.74088
20
-4.12366
11
5.74158
21
-4.12337
0
LINE
8
BLACK
6
CONTINUOUS
10
5.74158
20
-4.12337
11
5.7466
21
-4.12337
0
LINE
8
BLACK
6
CONTINUOUS
10
5.7466
20
-4.12337
11
5.7466
21
-4.05191
0
LINE
8
BLACK
6
CONTINUOUS
10
5.7466
20
-4.05191
11
5.73292
21
-4.05191
0
LINE
8
BLACK
6
CONTINUOUS
10
5.73292
20
-4.05191
11
5.73222
21
-4.05163
0
LINE
8
BLACK
6
CONTINUOUS
10
5.73222
20
-4.05163
11
5.73193
21
-4.05093
0
LINE
8
BLACK
6
CONTINUOUS
10
5.73193
20
-4.05093
11
5.73193
21
-4.03056
0
LINE
8
BLACK
6
CONTINUOUS
10
5.73193
20
-4.03056
11
5.67239
21
-4.03056
0
LINE
8
BLACK
6
CONTINUOUS
10
5.74256
20
-4.12534
11
5.74256
21
-4.16244
0
LINE
8
BLACK
6
CONTINUOUS
10
5.74256
20
-4.16244
11
5.7466
21
-4.16244
0
LINE
8
BLACK
6
CONTINUOUS
10
5.7466
20
-4.16244
11
5.7466
21
-4.12534
0
LINE
8
BLACK
6
CONTINUOUS
10
5.7466
20
-4.12534
11
5.74256
21
-4.12534
0
LINE
8
BLACK
6
CONTINUOUS
10
5.59758
20
-4.03134
11
5.59758
21
-4.16166
0
LINE
8
BLACK
6
CONTINUOUS
10
5.59758
20
-4.16166
11
5.66943
21
-4.16166
0
LINE
8
BLACK
6
CONTINUOUS
10
5.66943
20
-4.16166
11
5.66943
21
-4.03134
0
LINE
8
BLACK
6
CONTINUOUS
10
5.66943
20
-4.03134
11
5.59758
21
-4.03134
0
LINE
8
BLACK
6
CONTINUOUS
10
5.7339
20
-4.03056
11
5.7339
21
-4.04994
0
LINE
8
BLACK
6
CONTINUOUS
10
5.7339
20
-4.04994
11
5.7466
21
-4.04994
0
LINE
8
BLACK
6
CONTINUOUS
10
5.7466
20
-4.04994
11
5.7466
21
-4.03056
0
LINE
8
BLACK
6
CONTINUOUS
10
5.7466
20
-4.03056
11
5.7339
21
-4.03056
0
LINE
8
BLACK
6
CONTINUOUS
10
5.74857
20
-4.02957
11
5.74857
21
-4.04994
0
LINE
8
BLACK
6
CONTINUOUS
10
5.74857
20
-4.04994
11
5.8091
21
-4.04994
0
LINE
8
BLACK
6
CONTINUOUS
10
5.8091
20
-4.04994
11
5.8091
21
-3.91806
0
LINE
8
BLACK
6
CONTINUOUS
10
5.8091
20
-3.91806
11
5.7339
21
-3.91806
0
LINE
8
BLACK
6
CONTINUOUS
10
5.7339
20
-3.91806
11
5.7339
21
-4.02859
0
LINE
8
BLACK
6
CONTINUOUS
10
5.7339
20
-4.02859
11
5.74758
21
-4.02859
0
LINE
8
BLACK
6
CONTINUOUS
10
5.74758
20
-4.02859
11
5.74828
21
-4.02887
0
LINE
8
BLACK
6
CONTINUOUS
10
5.74828
20
-4.02887
11
5.74857
21
-4.02957
0
LINE
8
BLACK
6
CONTINUOUS
10
5.72613
20
-3.8591
11
5.72613
21
-3.9339
0
LINE
8
BLACK
6
CONTINUOUS
10
5.72613
20
-3.9339
11
5.72584
21
-3.9346
0
LINE
8
BLACK
6
CONTINUOUS
10
5.72584
20
-3.9346
11
5.72514
21
-3.93489
0
LINE
8
BLACK
6
CONTINUOUS
10
5.72514
20
-3.93489
11
5.68863
21
-3.93489
0
LINE
8
BLACK
6
CONTINUOUS
10
5.68863
20
-3.93489
11
5.68863
21
-4.0089
0
LINE
8
BLACK
6
CONTINUOUS
10
5.68863
20
-4.0089
11
5.68834
21
-4.0096
0
LINE
8
BLACK
6
CONTINUOUS
10
5.68834
20
-4.0096
11
5.68764
21
-4.00989
0
LINE
8
BLACK
6
CONTINUOUS
10
5.68764
20
-4.00989
11
5.55536
21
-4.00989
0
LINE
8
BLACK
6
CONTINUOUS
10
5.55536
20
-4.00989
11
5.55466
21
-4.0096
0
LINE
8
BLACK
6
CONTINUOUS
10
5.55466
20
-4.0096
11
5.55437
21
-4.0089
0
LINE
8
BLACK
6
CONTINUOUS
10
5.55437
20
-4.0089
11
5.55437
21
-3.9341
0
LINE
8
BLACK
6
CONTINUOUS
10
5.55437
20
-3.9341
11
5.55466
21
-3.9334
0
LINE
8
BLACK
6
CONTINUOUS
10
5.55466
20
-3.9334
11
5.55536
21
-3.93311
0
LINE
8
BLACK
6
CONTINUOUS
10
5.55536
20
-3.93311
11
5.59187
21
-3.93311
0
LINE
8
BLACK
6
CONTINUOUS
10
5.59187
20
-3.93311
11
5.59187
21
-3.85989
0
LINE
8
BLACK
6
CONTINUOUS
10
5.59187
20
-3.85989
11
5.55536
21
-3.85989
0
LINE
8
BLACK
6
CONTINUOUS
10
5.55536
20
-3.85989
11
5.55466
21
-3.8596
0
LINE
8
BLACK
6
CONTINUOUS
10
5.55466
20
-3.8596
11
5.55437
21
-3.8589
0
LINE
8
BLACK
6
CONTINUOUS
10
5.55437
20
-3.8589
11
5.55437
21
-3.7841
0
LINE
8
BLACK
6
CONTINUOUS
10
5.55437
20
-3.7841
11
5.55466
21
-3.7834
0
LINE
8
BLACK
6
CONTINUOUS
10
5.55466
20
-3.7834
11
5.55536
21
-3.78311
0
LINE
8
BLACK
6
CONTINUOUS
10
5.55536
20
-3.78311
11
5.68764
21
-3.78311
0
LINE
8
BLACK
6
CONTINUOUS
10
5.68764
20
-3.78311
11
5.68834
21
-3.7834
0
LINE
8
BLACK
6
CONTINUOUS
10
5.68834
20
-3.7834
11
5.68863
21
-3.7841
0
LINE
8
BLACK
6
CONTINUOUS
10
5.68863
20
-3.7841
11
5.68863
21
-3.85811
0
LINE
8
BLACK
6
CONTINUOUS
10
5.68863
20
-3.85811
11
5.72514
21
-3.85811
0
LINE
8
BLACK
6
CONTINUOUS
10
5.72514
20
-3.85811
11
5.72584
21
-3.8584
0
LINE
8
BLACK
6
CONTINUOUS
10
5.72584
20
-3.8584
11
5.72613
21
-3.8591
0
LINE
8
BLACK
6
CONTINUOUS
10
5.55634
20
-3.93508
11
5.55634
21
-4.00792
0
LINE
8
BLACK
6
CONTINUOUS
10
5.55634
20
-4.00792
11
5.68666
21
-4.00792
0
LINE
8
BLACK
6
CONTINUOUS
10
5.68666
20
-4.00792
11
5.68666
21
-3.93508
0
LINE
8
BLACK
6
CONTINUOUS
10
5.68666
20
-3.93508
11
5.55634
21
-3.93508
0
LINE
8
BLACK
6
CONTINUOUS
10
5.59384
20
-3.86008
11
5.59384
21
-3.93292
0
LINE
8
BLACK
6
CONTINUOUS
10
5.59384
20
-3.93292
11
5.72416
21
-3.93292
0
LINE
8
BLACK
6
CONTINUOUS
10
5.72416
20
-3.93292
11
5.72416
21
-3.86008
0
LINE
8
BLACK
6
CONTINUOUS
10
5.72416
20
-3.86008
11
5.59384
21
-3.86008
0
LINE
8
BLACK
6
CONTINUOUS
10
5.55634
20
-3.78508
11
5.55634
21
-3.85792
0
LINE
8
BLACK
6
CONTINUOUS
10
5.55634
20
-3.85792
11
5.68666
21
-3.85792
0
LINE
8
BLACK
6
CONTINUOUS
10
5.68666
20
-3.85792
11
5.68666
21
-3.78508
0
LINE
8
BLACK
6
CONTINUOUS
10
5.68666
20
-3.78508
11
5.55634
21
-3.78508
0
LINE
8
BLACK
6
CONTINUOUS
10
6.10387
20
-3.74828
11
6.10359
21
-3.74758
0
LINE
8
BLACK
6
CONTINUOUS
10
6.10359
20
-3.74758
11
6.10359
21
-3.67042
0
LINE
8
BLACK
6
CONTINUOUS
10
6.10359
20
-3.67042
11
6.10387
21
-3.66972
0
LINE
8
BLACK
6
CONTINUOUS
10
6.10387
20
-3.66972
11
6.10457
21
-3.66943
0
LINE
8
BLACK
6
CONTINUOUS
10
6.10457
20
-3.66943
11
6.23843
21
-3.66943
0
LINE
8
BLACK
6
CONTINUOUS
10
6.23843
20
-3.66943
11
6.23913
21
-3.66972
0
LINE
8
BLACK
6
CONTINUOUS
10
6.23913
20
-3.66972
11
6.23941
21
-3.67042
0
LINE
8
BLACK
6
CONTINUOUS
10
6.23941
20
-3.67042
11
6.23941
21
-3.74758
0
LINE
8
BLACK
6
CONTINUOUS
10
6.23941
20
-3.74758
11
6.23913
21
-3.74828
0
LINE
8
BLACK
6
CONTINUOUS
10
6.23913
20
-3.74828
11
6.23843
21
-3.74857
0
LINE
8
BLACK
6
CONTINUOUS
10
6.23843
20
-3.74857
11
6.10457
21
-3.74857
0
LINE
8
BLACK
6
CONTINUOUS
10
6.10457
20
-3.74857
11
6.10387
21
-3.74828
0
LINE
8
BLACK
6
CONTINUOUS
10
6.10556
20
-3.6714
11
6.10556
21
-3.7466
0
LINE
8
BLACK
6
CONTINUOUS
10
6.10556
20
-3.7466
11
6.23744
21
-3.7466
0
LINE
8
BLACK
6
CONTINUOUS
10
6.23744
20
-3.7466
11
6.23744
21
-3.6714
0
LINE
8
BLACK
6
CONTINUOUS
10
6.23744
20
-3.6714
11
6.10556
21
-3.6714
  0
ENDSEC
  0
EOF
