  0
SECTION
  2
HEADER
  9
$ANGBASE
  50
0.0
  9
$ANGDIR
  70
1
  9
$MEASUREMENT
  70
0
  0
ENDSEC
  0
SECTION
  2
TABLES
  0
TABLE
  2
LTYPE
  70
4
  0
LTYPE
  5
40F
  2
CONTINUOUS
  70
0
  3
Solid line
  72
65
  73
0
  40
0.0
  0
LTYPE
  5
410
  2
DASHDOT
 70
0
  3
Dash Dot ____ _ ____ _
 72
65
 73
4
 40
2.0
 49
1.25
 49
-0.25
 49
0.25
 49
-0.25
  0
LTYPE
  5
411
  2
DASHED
 70
0
  3
Dashed __ __ __ __ __
 72
65
 73
2
 40
0.75
 49
0.5
 49
-0.25
  0
LTYPE
  5
43B
  2
DOTTED
 70
0
  3
Dotted .  .  .  .
 72
65
 73
2
 40
0.2
 49
0.0
 49
-0.2
  0
ENDTAB
  0
TABLE
  2
STYLE
  70
4
  0
STYLE
  2
KICAD
  70
0
  40
0
  41
1
  42
1
  50
0
  71
0
  3
isocp.shx
  0
STYLE
  2
KICADB
  70
0
  40
0
  41
1
  42
1
  50
0
  71
0
  3
isocp.shx
  0
STYLE
  2
KICADI
  70
0
  40
0
  41
1
  42
1
  50
15
  71
0
  3
isocp.shx
  0
STYLE
  2
KICADBI
  70
0
  40
0
  41
1
  42
1
  50
15
  71
0
  3
isocp.shx
  0
ENDTAB
  0
TABLE
  2
LAYER
  70
1
  0
LAYER
  2
BLACK
  70
0
  62
7
  6
CONTINUOUS
  0
ENDTAB
  0
ENDSEC
  0
SECTION
  2
ENTITIES
0
LINE
8
BLACK
6
CONTINUOUS
10
5.45381
20
-4.6032
11
5.4679
21
-4.60476
0
LINE
8
BLACK
6
CONTINUOUS
10
5.4679
20
-4.60476
11
5.48173
21
-4.60783
0
LINE
8
BLACK
6
CONTINUOUS
10
5.48173
20
-4.60783
11
5.49515
21
-4.61237
0
LINE
8
BLACK
6
CONTINUOUS
10
5.49515
20
-4.61237
11
5.508
21
-4.61833
0
LINE
8
BLACK
6
CONTINUOUS
10
5.508
20
-4.61833
11
5.52013
21
-4.62565
0
LINE
8
BLACK
6
CONTINUOUS
10
5.52013
20
-4.62565
11
5.5314
21
-4.63424
0
LINE
8
BLACK
6
CONTINUOUS
10
5.5314
20
-4.63424
11
5.54168
21
-4.64399
0
LINE
8
BLACK
6
CONTINUOUS
10
5.54168
20
-4.64399
11
5.55085
21
-4.6548
0
LINE
8
BLACK
6
CONTINUOUS
10
5.55085
20
-4.6548
11
5.55879
21
-4.66653
0
LINE
8
BLACK
6
CONTINUOUS
10
5.55879
20
-4.66653
11
5.56542
21
-4.67905
0
LINE
8
BLACK
6
CONTINUOUS
10
5.56542
20
-4.67905
11
5.57066
21
-4.69222
0
LINE
8
BLACK
6
CONTINUOUS
10
5.57066
20
-4.69222
11
5.57444
21
-4.70587
0
LINE
8
BLACK
6
CONTINUOUS
10
5.57444
20
-4.70587
11
5.57673
21
-4.71985
0
LINE
8
BLACK
6
CONTINUOUS
10
5.57673
20
-4.71985
11
5.5775
21
-4.734
0
LINE
8
BLACK
6
CONTINUOUS
10
5.5775
20
-4.734
11
5.5775
21
-4.73491
0
LINE
8
BLACK
6
CONTINUOUS
10
5.5775
20
-4.73491
11
5.57663
21
-4.74906
0
LINE
8
BLACK
6
CONTINUOUS
10
5.57663
20
-4.74906
11
5.57424
21
-4.76302
0
LINE
8
BLACK
6
CONTINUOUS
10
5.57424
20
-4.76302
11
5.57036
21
-4.77665
0
LINE
8
BLACK
6
CONTINUOUS
10
5.57036
20
-4.77665
11
5.56503
21
-4.78978
0
LINE
8
BLACK
6
CONTINUOUS
10
5.56503
20
-4.78978
11
5.55832
21
-4.80225
0
LINE
8
BLACK
6
CONTINUOUS
10
5.55832
20
-4.80225
11
5.55029
21
-4.81393
0
LINE
8
BLACK
6
CONTINUOUS
10
5.55029
20
-4.81393
11
5.54105
21
-4.82467
0
LINE
8
BLACK
6
CONTINUOUS
10
5.54105
20
-4.82467
11
5.53071
21
-4.83435
0
LINE
8
BLACK
6
CONTINUOUS
10
5.53071
20
-4.83435
11
5.51937
21
-4.84286
0
LINE
8
BLACK
6
CONTINUOUS
10
5.51937
20
-4.84286
11
5.50719
21
-4.85009
0
LINE
8
BLACK
6
CONTINUOUS
10
5.50719
20
-4.85009
11
5.4943
21
-4.85597
0
LINE
8
BLACK
6
CONTINUOUS
10
5.4943
20
-4.85597
11
5.48085
21
-4.86042
0
LINE
8
BLACK
6
CONTINUOUS
10
5.48085
20
-4.86042
11
5.46699
21
-4.86339
0
LINE
8
BLACK
6
CONTINUOUS
10
5.46699
20
-4.86339
11
5.4529
21
-4.86484
0
LINE
8
BLACK
6
CONTINUOUS
10
5.4529
20
-4.86484
11
5.43873
21
-4.86477
0
LINE
8
BLACK
6
CONTINUOUS
10
5.43873
20
-4.86477
11
5.42465
21
-4.86317
0
LINE
8
BLACK
6
CONTINUOUS
10
5.42465
20
-4.86317
11
5.41083
21
-4.86005
0
LINE
8
BLACK
6
CONTINUOUS
10
5.41083
20
-4.86005
11
5.39743
21
-4.85546
0
LINE
8
BLACK
6
CONTINUOUS
10
5.39743
20
-4.85546
11
5.3846
21
-4.84945
0
LINE
8
BLACK
6
CONTINUOUS
10
5.3846
20
-4.84945
11
5.37249
21
-4.84209
0
LINE
8
BLACK
6
CONTINUOUS
10
5.37249
20
-4.84209
11
5.36125
21
-4.83346
0
LINE
8
BLACK
6
CONTINUOUS
10
5.36125
20
-4.83346
11
5.35101
21
-4.82368
0
LINE
8
BLACK
6
CONTINUOUS
10
5.35101
20
-4.82368
11
5.34188
21
-4.81284
0
LINE
8
BLACK
6
CONTINUOUS
10
5.34188
20
-4.81284
11
5.33398
21
-4.80108
0
LINE
8
BLACK
6
CONTINUOUS
10
5.33398
20
-4.80108
11
5.32739
21
-4.78853
0
LINE
8
BLACK
6
CONTINUOUS
10
5.32739
20
-4.78853
11
5.3222
21
-4.77535
0
LINE
8
BLACK
6
CONTINUOUS
10
5.3222
20
-4.77535
11
5.31846
21
-4.76168
0
LINE
8
BLACK
6
CONTINUOUS
10
5.31846
20
-4.76168
11
5.31622
21
-4.74769
0
LINE
8
BLACK
6
CONTINUOUS
10
5.31622
20
-4.74769
11
5.3155
21
-4.73354
0
LINE
8
BLACK
6
CONTINUOUS
10
5.3155
20
-4.73354
11
5.31632
21
-4.7194
0
LINE
8
BLACK
6
CONTINUOUS
10
5.31632
20
-4.7194
11
5.31865
21
-4.70542
0
LINE
8
BLACK
6
CONTINUOUS
10
5.31865
20
-4.70542
11
5.32249
21
-4.69178
0
LINE
8
BLACK
6
CONTINUOUS
10
5.32249
20
-4.69178
11
5.32777
21
-4.67864
0
LINE
8
BLACK
6
CONTINUOUS
10
5.32777
20
-4.67864
11
5.33445
21
-4.66614
0
LINE
8
BLACK
6
CONTINUOUS
10
5.33445
20
-4.66614
11
5.34243
21
-4.65443
0
LINE
8
BLACK
6
CONTINUOUS
10
5.34243
20
-4.65443
11
5.35163
21
-4.64366
0
LINE
8
BLACK
6
CONTINUOUS
10
5.35163
20
-4.64366
11
5.36195
21
-4.63394
0
LINE
8
BLACK
6
CONTINUOUS
10
5.36195
20
-4.63394
11
5.37325
21
-4.6254
0
LINE
8
BLACK
6
CONTINUOUS
10
5.37325
20
-4.6254
11
5.3854
21
-4.61812
0
LINE
8
BLACK
6
CONTINUOUS
10
5.3854
20
-4.61812
11
5.39828
21
-4.6122
0
LINE
8
BLACK
6
CONTINUOUS
10
5.39828
20
-4.6122
11
5.41171
21
-4.6077
0
LINE
8
BLACK
6
CONTINUOUS
10
5.41171
20
-4.6077
11
5.42556
21
-4.60469
0
LINE
8
BLACK
6
CONTINUOUS
10
5.42556
20
-4.60469
11
5.43964
21
-4.60318
0
LINE
8
BLACK
6
CONTINUOUS
10
5.43964
20
-4.60318
11
5.45381
21
-4.6032
0
LINE
8
BLACK
6
CONTINUOUS
10
6.25381
20
-4.6032
11
6.2679
21
-4.60476
0
LINE
8
BLACK
6
CONTINUOUS
10
6.2679
20
-4.60476
11
6.28173
21
-4.60783
0
LINE
8
BLACK
6
CONTINUOUS
10
6.28173
20
-4.60783
11
6.29515
21
-4.61237
0
LINE
8
BLACK
6
CONTINUOUS
10
6.29515
20
-4.61237
11
6.308
21
-4.61833
0
LINE
8
BLACK
6
CONTINUOUS
10
6.308
20
-4.61833
11
6.32013
21
-4.62565
0
LINE
8
BLACK
6
CONTINUOUS
10
6.32013
20
-4.62565
11
6.3314
21
-4.63424
0
LINE
8
BLACK
6
CONTINUOUS
10
6.3314
20
-4.63424
11
6.34168
21
-4.64399
0
LINE
8
BLACK
6
CONTINUOUS
10
6.34168
20
-4.64399
11
6.35085
21
-4.6548
0
LINE
8
BLACK
6
CONTINUOUS
10
6.35085
20
-4.6548
11
6.35879
21
-4.66653
0
LINE
8
BLACK
6
CONTINUOUS
10
6.35879
20
-4.66653
11
6.36542
21
-4.67905
0
LINE
8
BLACK
6
CONTINUOUS
10
6.36542
20
-4.67905
11
6.37066
21
-4.69222
0
LINE
8
BLACK
6
CONTINUOUS
10
6.37066
20
-4.69222
11
6.37444
21
-4.70587
0
LINE
8
BLACK
6
CONTINUOUS
10
6.37444
20
-4.70587
11
6.37673
21
-4.71985
0
LINE
8
BLACK
6
CONTINUOUS
10
6.37673
20
-4.71985
11
6.3775
21
-4.734
0
LINE
8
BLACK
6
CONTINUOUS
10
6.3775
20
-4.734
11
6.3775
21
-4.73491
0
LINE
8
BLACK
6
CONTINUOUS
10
6.3775
20
-4.73491
11
6.37663
21
-4.74906
0
LINE
8
BLACK
6
CONTINUOUS
10
6.37663
20
-4.74906
11
6.37424
21
-4.76302
0
LINE
8
BLACK
6
CONTINUOUS
10
6.37424
20
-4.76302
11
6.37036
21
-4.77665
0
LINE
8
BLACK
6
CONTINUOUS
10
6.37036
20
-4.77665
11
6.36503
21
-4.78978
0
LINE
8
BLACK
6
CONTINUOUS
10
6.36503
20
-4.78978
11
6.35832
21
-4.80225
0
LINE
8
BLACK
6
CONTINUOUS
10
6.35832
20
-4.80225
11
6.35029
21
-4.81393
0
LINE
8
BLACK
6
CONTINUOUS
10
6.35029
20
-4.81393
11
6.34105
21
-4.82467
0
LINE
8
BLACK
6
CONTINUOUS
10
6.34105
20
-4.82467
11
6.33071
21
-4.83435
0
LINE
8
BLACK
6
CONTINUOUS
10
6.33071
20
-4.83435
11
6.31937
21
-4.84286
0
LINE
8
BLACK
6
CONTINUOUS
10
6.31937
20
-4.84286
11
6.30719
21
-4.85009
0
LINE
8
BLACK
6
CONTINUOUS
10
6.30719
20
-4.85009
11
6.2943
21
-4.85597
0
LINE
8
BLACK
6
CONTINUOUS
10
6.2943
20
-4.85597
11
6.28085
21
-4.86042
0
LINE
8
BLACK
6
CONTINUOUS
10
6.28085
20
-4.86042
11
6.26699
21
-4.86339
0
LINE
8
BLACK
6
CONTINUOUS
10
6.26699
20
-4.86339
11
6.2529
21
-4.86484
0
LINE
8
BLACK
6
CONTINUOUS
10
6.2529
20
-4.86484
11
6.23873
21
-4.86477
0
LINE
8
BLACK
6
CONTINUOUS
10
6.23873
20
-4.86477
11
6.22465
21
-4.86317
0
LINE
8
BLACK
6
CONTINUOUS
10
6.22465
20
-4.86317
11
6.21083
21
-4.86005
0
LINE
8
BLACK
6
CONTINUOUS
10
6.21083
20
-4.86005
11
6.19743
21
-4.85546
0
LINE
8
BLACK
6
CONTINUOUS
10
6.19743
20
-4.85546
11
6.1846
21
-4.84945
0
LINE
8
BLACK
6
CONTINUOUS
10
6.1846
20
-4.84945
11
6.17249
21
-4.84209
0
LINE
8
BLACK
6
CONTINUOUS
10
6.17249
20
-4.84209
11
6.16125
21
-4.83346
0
LINE
8
BLACK
6
CONTINUOUS
10
6.16125
20
-4.83346
11
6.15101
21
-4.82368
0
LINE
8
BLACK
6
CONTINUOUS
10
6.15101
20
-4.82368
11
6.14188
21
-4.81284
0
LINE
8
BLACK
6
CONTINUOUS
10
6.14188
20
-4.81284
11
6.13398
21
-4.80108
0
LINE
8
BLACK
6
CONTINUOUS
10
6.13398
20
-4.80108
11
6.12739
21
-4.78853
0
LINE
8
BLACK
6
CONTINUOUS
10
6.12739
20
-4.78853
11
6.1222
21
-4.77535
0
LINE
8
BLACK
6
CONTINUOUS
10
6.1222
20
-4.77535
11
6.11846
21
-4.76168
0
LINE
8
BLACK
6
CONTINUOUS
10
6.11846
20
-4.76168
11
6.11622
21
-4.74769
0
LINE
8
BLACK
6
CONTINUOUS
10
6.11622
20
-4.74769
11
6.1155
21
-4.73354
0
LINE
8
BLACK
6
CONTINUOUS
10
6.1155
20
-4.73354
11
6.11632
21
-4.7194
0
LINE
8
BLACK
6
CONTINUOUS
10
6.11632
20
-4.7194
11
6.11865
21
-4.70542
0
LINE
8
BLACK
6
CONTINUOUS
10
6.11865
20
-4.70542
11
6.12249
21
-4.69178
0
LINE
8
BLACK
6
CONTINUOUS
10
6.12249
20
-4.69178
11
6.12777
21
-4.67864
0
LINE
8
BLACK
6
CONTINUOUS
10
6.12777
20
-4.67864
11
6.13445
21
-4.66614
0
LINE
8
BLACK
6
CONTINUOUS
10
6.13445
20
-4.66614
11
6.14243
21
-4.65443
0
LINE
8
BLACK
6
CONTINUOUS
10
6.14243
20
-4.65443
11
6.15163
21
-4.64366
0
LINE
8
BLACK
6
CONTINUOUS
10
6.15163
20
-4.64366
11
6.16195
21
-4.63394
0
LINE
8
BLACK
6
CONTINUOUS
10
6.16195
20
-4.63394
11
6.17325
21
-4.6254
0
LINE
8
BLACK
6
CONTINUOUS
10
6.17325
20
-4.6254
11
6.1854
21
-4.61812
0
LINE
8
BLACK
6
CONTINUOUS
10
6.1854
20
-4.61812
11
6.19828
21
-4.6122
0
LINE
8
BLACK
6
CONTINUOUS
10
6.19828
20
-4.6122
11
6.21171
21
-4.6077
0
LINE
8
BLACK
6
CONTINUOUS
10
6.21171
20
-4.6077
11
6.22556
21
-4.60469
0
LINE
8
BLACK
6
CONTINUOUS
10
6.22556
20
-4.60469
11
6.23964
21
-4.60318
0
LINE
8
BLACK
6
CONTINUOUS
10
6.23964
20
-4.60318
11
6.25381
21
-4.6032
0
LINE
8
BLACK
6
CONTINUOUS
10
5.81803
20
-4.7228
11
5.81933
21
-4.72367
0
LINE
8
BLACK
6
CONTINUOUS
10
5.81933
20
-4.72367
11
5.8202
21
-4.72497
0
LINE
8
BLACK
6
CONTINUOUS
10
5.8202
20
-4.72497
11
5.8205
21
-4.7265
0
LINE
8
BLACK
6
CONTINUOUS
10
5.8205
20
-4.7265
11
5.8205
21
-4.7915
0
LINE
8
BLACK
6
CONTINUOUS
10
5.8205
20
-4.7915
11
5.8202
21
-4.79303
0
LINE
8
BLACK
6
CONTINUOUS
10
5.8202
20
-4.79303
11
5.81933
21
-4.79433
0
LINE
8
BLACK
6
CONTINUOUS
10
5.81933
20
-4.79433
11
5.81803
21
-4.7952
0
LINE
8
BLACK
6
CONTINUOUS
10
5.81803
20
-4.7952
11
5.8165
21
-4.7955
0
LINE
8
BLACK
6
CONTINUOUS
10
5.8165
20
-4.7955
11
5.7515
21
-4.7955
0
LINE
8
BLACK
6
CONTINUOUS
10
5.7515
20
-4.7955
11
5.74997
21
-4.7952
0
LINE
8
BLACK
6
CONTINUOUS
10
5.74997
20
-4.7952
11
5.74867
21
-4.79433
0
LINE
8
BLACK
6
CONTINUOUS
10
5.74867
20
-4.79433
11
5.7478
21
-4.79303
0
LINE
8
BLACK
6
CONTINUOUS
10
5.7478
20
-4.79303
11
5.7475
21
-4.7915
0
LINE
8
BLACK
6
CONTINUOUS
10
5.7475
20
-4.7915
11
5.7475
21
-4.7265
0
LINE
8
BLACK
6
CONTINUOUS
10
5.7475
20
-4.7265
11
5.7478
21
-4.72497
0
LINE
8
BLACK
6
CONTINUOUS
10
5.7478
20
-4.72497
11
5.74867
21
-4.72367
0
LINE
8
BLACK
6
CONTINUOUS
10
5.74867
20
-4.72367
11
5.74997
21
-4.7228
0
LINE
8
BLACK
6
CONTINUOUS
10
5.74997
20
-4.7228
11
5.7515
21
-4.7225
0
LINE
8
BLACK
6
CONTINUOUS
10
5.7515
20
-4.7225
11
5.8165
21
-4.7225
0
LINE
8
BLACK
6
CONTINUOUS
10
5.8165
20
-4.7225
11
5.81803
21
-4.7228
0
LINE
8
BLACK
6
CONTINUOUS
10
5.91803
20
-4.7228
11
5.91933
21
-4.72367
0
LINE
8
BLACK
6
CONTINUOUS
10
5.91933
20
-4.72367
11
5.9202
21
-4.72497
0
LINE
8
BLACK
6
CONTINUOUS
10
5.9202
20
-4.72497
11
5.9205
21
-4.7265
0
LINE
8
BLACK
6
CONTINUOUS
10
5.9205
20
-4.7265
11
5.9205
21
-4.7915
0
LINE
8
BLACK
6
CONTINUOUS
10
5.9205
20
-4.7915
11
5.9202
21
-4.79303
0
LINE
8
BLACK
6
CONTINUOUS
10
5.9202
20
-4.79303
11
5.91933
21
-4.79433
0
LINE
8
BLACK
6
CONTINUOUS
10
5.91933
20
-4.79433
11
5.91803
21
-4.7952
0
LINE
8
BLACK
6
CONTINUOUS
10
5.91803
20
-4.7952
11
5.9165
21
-4.7955
0
LINE
8
BLACK
6
CONTINUOUS
10
5.9165
20
-4.7955
11
5.8515
21
-4.7955
0
LINE
8
BLACK
6
CONTINUOUS
10
5.8515
20
-4.7955
11
5.84997
21
-4.7952
0
LINE
8
BLACK
6
CONTINUOUS
10
5.84997
20
-4.7952
11
5.84867
21
-4.79433
0
LINE
8
BLACK
6
CONTINUOUS
10
5.84867
20
-4.79433
11
5.8478
21
-4.79303
0
LINE
8
BLACK
6
CONTINUOUS
10
5.8478
20
-4.79303
11
5.8475
21
-4.7915
0
LINE
8
BLACK
6
CONTINUOUS
10
5.8475
20
-4.7915
11
5.8475
21
-4.7265
0
LINE
8
BLACK
6
CONTINUOUS
10
5.8475
20
-4.7265
11
5.8478
21
-4.72497
0
LINE
8
BLACK
6
CONTINUOUS
10
5.8478
20
-4.72497
11
5.84867
21
-4.72367
0
LINE
8
BLACK
6
CONTINUOUS
10
5.84867
20
-4.72367
11
5.84997
21
-4.7228
0
LINE
8
BLACK
6
CONTINUOUS
10
5.84997
20
-4.7228
11
5.8515
21
-4.7225
0
LINE
8
BLACK
6
CONTINUOUS
10
5.8515
20
-4.7225
11
5.9165
21
-4.7225
0
LINE
8
BLACK
6
CONTINUOUS
10
5.9165
20
-4.7225
11
5.91803
21
-4.7228
0
LINE
8
BLACK
6
CONTINUOUS
10
6.01803
20
-4.7228
11
6.01933
21
-4.72367
0
LINE
8
BLACK
6
CONTINUOUS
10
6.01933
20
-4.72367
11
6.0202
21
-4.72497
0
LINE
8
BLACK
6
CONTINUOUS
10
6.0202
20
-4.72497
11
6.0205
21
-4.7265
0
LINE
8
BLACK
6
CONTINUOUS
10
6.0205
20
-4.7265
11
6.0205
21
-4.7915
0
LINE
8
BLACK
6
CONTINUOUS
10
6.0205
20
-4.7915
11
6.0202
21
-4.79303
0
LINE
8
BLACK
6
CONTINUOUS
10
6.0202
20
-4.79303
11
6.01933
21
-4.79433
0
LINE
8
BLACK
6
CONTINUOUS
10
6.01933
20
-4.79433
11
6.01803
21
-4.7952
0
LINE
8
BLACK
6
CONTINUOUS
10
6.01803
20
-4.7952
11
6.0165
21
-4.7955
0
LINE
8
BLACK
6
CONTINUOUS
10
6.0165
20
-4.7955
11
5.9515
21
-4.7955
0
LINE
8
BLACK
6
CONTINUOUS
10
5.9515
20
-4.7955
11
5.94997
21
-4.7952
0
LINE
8
BLACK
6
CONTINUOUS
10
5.94997
20
-4.7952
11
5.94867
21
-4.79433
0
LINE
8
BLACK
6
CONTINUOUS
10
5.94867
20
-4.79433
11
5.9478
21
-4.79303
0
LINE
8
BLACK
6
CONTINUOUS
10
5.9478
20
-4.79303
11
5.9475
21
-4.7915
0
LINE
8
BLACK
6
CONTINUOUS
10
5.9475
20
-4.7915
11
5.9475
21
-4.7265
0
LINE
8
BLACK
6
CONTINUOUS
10
5.9475
20
-4.7265
11
5.9478
21
-4.72497
0
LINE
8
BLACK
6
CONTINUOUS
10
5.9478
20
-4.72497
11
5.94867
21
-4.72367
0
LINE
8
BLACK
6
CONTINUOUS
10
5.94867
20
-4.72367
11
5.94997
21
-4.7228
0
LINE
8
BLACK
6
CONTINUOUS
10
5.94997
20
-4.7228
11
5.9515
21
-4.7225
0
LINE
8
BLACK
6
CONTINUOUS
10
5.9515
20
-4.7225
11
6.0165
21
-4.7225
0
LINE
8
BLACK
6
CONTINUOUS
10
6.0165
20
-4.7225
11
6.01803
21
-4.7228
0
LINE
8
BLACK
6
CONTINUOUS
10
5.81803
20
-4.6228
11
5.81933
21
-4.62367
0
LINE
8
BLACK
6
CONTINUOUS
10
5.81933
20
-4.62367
11
5.8202
21
-4.62497
0
LINE
8
BLACK
6
CONTINUOUS
10
5.8202
20
-4.62497
11
5.8205
21
-4.6265
0
LINE
8
BLACK
6
CONTINUOUS
10
5.8205
20
-4.6265
11
5.8205
21
-4.6915
0
LINE
8
BLACK
6
CONTINUOUS
10
5.8205
20
-4.6915
11
5.8202
21
-4.69303
0
LINE
8
BLACK
6
CONTINUOUS
10
5.8202
20
-4.69303
11
5.81933
21
-4.69433
0
LINE
8
BLACK
6
CONTINUOUS
10
5.81933
20
-4.69433
11
5.81803
21
-4.6952
0
LINE
8
BLACK
6
CONTINUOUS
10
5.81803
20
-4.6952
11
5.8165
21
-4.6955
0
LINE
8
BLACK
6
CONTINUOUS
10
5.8165
20
-4.6955
11
5.7515
21
-4.6955
0
LINE
8
BLACK
6
CONTINUOUS
10
5.7515
20
-4.6955
11
5.74997
21
-4.6952
0
LINE
8
BLACK
6
CONTINUOUS
10
5.74997
20
-4.6952
11
5.74867
21
-4.69433
0
LINE
8
BLACK
6
CONTINUOUS
10
5.74867
20
-4.69433
11
5.7478
21
-4.69303
0
LINE
8
BLACK
6
CONTINUOUS
10
5.7478
20
-4.69303
11
5.7475
21
-4.6915
0
LINE
8
BLACK
6
CONTINUOUS
10
5.7475
20
-4.6915
11
5.7475
21
-4.6265
0
LINE
8
BLACK
6
CONTINUOUS
10
5.7475
20
-4.6265
11
5.7478
21
-4.62497
0
LINE
8
BLACK
6
CONTINUOUS
10
5.7478
20
-4.62497
11
5.74867
21
-4.62367
0
LINE
8
BLACK
6
CONTINUOUS
10
5.74867
20
-4.62367
11
5.74997
21
-4.6228
0
LINE
8
BLACK
6
CONTINUOUS
10
5.74997
20
-4.6228
11
5.7515
21
-4.6225
0
LINE
8
BLACK
6
CONTINUOUS
10
5.7515
20
-4.6225
11
5.8165
21
-4.6225
0
LINE
8
BLACK
6
CONTINUOUS
10
5.8165
20
-4.6225
11
5.81803
21
-4.6228
0
LINE
8
BLACK
6
CONTINUOUS
10
5.91803
20
-4.6228
11
5.91933
21
-4.62367
0
LINE
8
BLACK
6
CONTINUOUS
10
5.91933
20
-4.62367
11
5.9202
21
-4.62497
0
LINE
8
BLACK
6
CONTINUOUS
10
5.9202
20
-4.62497
11
5.9205
21
-4.6265
0
LINE
8
BLACK
6
CONTINUOUS
10
5.9205
20
-4.6265
11
5.9205
21
-4.6915
0
LINE
8
BLACK
6
CONTINUOUS
10
5.9205
20
-4.6915
11
5.9202
21
-4.69303
0
LINE
8
BLACK
6
CONTINUOUS
10
5.9202
20
-4.69303
11
5.91933
21
-4.69433
0
LINE
8
BLACK
6
CONTINUOUS
10
5.91933
20
-4.69433
11
5.91803
21
-4.6952
0
LINE
8
BLACK
6
CONTINUOUS
10
5.91803
20
-4.6952
11
5.9165
21
-4.6955
0
LINE
8
BLACK
6
CONTINUOUS
10
5.9165
20
-4.6955
11
5.8515
21
-4.6955
0
LINE
8
BLACK
6
CONTINUOUS
10
5.8515
20
-4.6955
11
5.84997
21
-4.6952
0
LINE
8
BLACK
6
CONTINUOUS
10
5.84997
20
-4.6952
11
5.84867
21
-4.69433
0
LINE
8
BLACK
6
CONTINUOUS
10
5.84867
20
-4.69433
11
5.8478
21
-4.69303
0
LINE
8
BLACK
6
CONTINUOUS
10
5.8478
20
-4.69303
11
5.8475
21
-4.6915
0
LINE
8
BLACK
6
CONTINUOUS
10
5.8475
20
-4.6915
11
5.8475
21
-4.6265
0
LINE
8
BLACK
6
CONTINUOUS
10
5.8475
20
-4.6265
11
5.8478
21
-4.62497
0
LINE
8
BLACK
6
CONTINUOUS
10
5.8478
20
-4.62497
11
5.84867
21
-4.62367
0
LINE
8
BLACK
6
CONTINUOUS
10
5.84867
20
-4.62367
11
5.84997
21
-4.6228
0
LINE
8
BLACK
6
CONTINUOUS
10
5.84997
20
-4.6228
11
5.8515
21
-4.6225
0
LINE
8
BLACK
6
CONTINUOUS
10
5.8515
20
-4.6225
11
5.9165
21
-4.6225
0
LINE
8
BLACK
6
CONTINUOUS
10
5.9165
20
-4.6225
11
5.91803
21
-4.6228
0
LINE
8
BLACK
6
CONTINUOUS
10
6.01803
20
-4.6228
11
6.01933
21
-4.62367
0
LINE
8
BLACK
6
CONTINUOUS
10
6.01933
20
-4.62367
11
6.0202
21
-4.62497
0
LINE
8
BLACK
6
CONTINUOUS
10
6.0202
20
-4.62497
11
6.0205
21
-4.6265
0
LINE
8
BLACK
6
CONTINUOUS
10
6.0205
20
-4.6265
11
6.0205
21
-4.6915
0
LINE
8
BLACK
6
CONTINUOUS
10
6.0205
20
-4.6915
11
6.0202
21
-4.69303
0
LINE
8
BLACK
6
CONTINUOUS
10
6.0202
20
-4.69303
11
6.01933
21
-4.69433
0
LINE
8
BLACK
6
CONTINUOUS
10
6.01933
20
-4.69433
11
6.01803
21
-4.6952
0
LINE
8
BLACK
6
CONTINUOUS
10
6.01803
20
-4.6952
11
6.0165
21
-4.6955
0
LINE
8
BLACK
6
CONTINUOUS
10
6.0165
20
-4.6955
11
5.9515
21
-4.6955
0
LINE
8
BLACK
6
CONTINUOUS
10
5.9515
20
-4.6955
11
5.94997
21
-4.6952
0
LINE
8
BLACK
6
CONTINUOUS
10
5.94997
20
-4.6952
11
5.94867
21
-4.69433
0
LINE
8
BLACK
6
CONTINUOUS
10
5.94867
20
-4.69433
11
5.9478
21
-4.69303
0
LINE
8
BLACK
6
CONTINUOUS
10
5.9478
20
-4.69303
11
5.9475
21
-4.6915
0
LINE
8
BLACK
6
CONTINUOUS
10
5.9475
20
-4.6915
11
5.9475
21
-4.6265
0
LINE
8
BLACK
6
CONTINUOUS
10
5.9475
20
-4.6265
11
5.9478
21
-4.62497
0
LINE
8
BLACK
6
CONTINUOUS
10
5.9478
20
-4.62497
11
5.94867
21
-4.62367
0
LINE
8
BLACK
6
CONTINUOUS
10
5.94867
20
-4.62367
11
5.94997
21
-4.6228
0
LINE
8
BLACK
6
CONTINUOUS
10
5.94997
20
-4.6228
11
5.9515
21
-4.6225
0
LINE
8
BLACK
6
CONTINUOUS
10
5.9515
20
-4.6225
11
6.0165
21
-4.6225
0
LINE
8
BLACK
6
CONTINUOUS
10
6.0165
20
-4.6225
11
6.01803
21
-4.6228
0
LINE
8
BLACK
6
CONTINUOUS
10
5.41803
20
-4.4728
11
5.41933
21
-4.47367
0
LINE
8
BLACK
6
CONTINUOUS
10
5.41933
20
-4.47367
11
5.4202
21
-4.47497
0
LINE
8
BLACK
6
CONTINUOUS
10
5.4202
20
-4.47497
11
5.4205
21
-4.4765
0
LINE
8
BLACK
6
CONTINUOUS
10
5.4205
20
-4.4765
11
5.4205
21
-4.5415
0
LINE
8
BLACK
6
CONTINUOUS
10
5.4205
20
-4.5415
11
5.4202
21
-4.54303
0
LINE
8
BLACK
6
CONTINUOUS
10
5.4202
20
-4.54303
11
5.41933
21
-4.54433
0
LINE
8
BLACK
6
CONTINUOUS
10
5.41933
20
-4.54433
11
5.41803
21
-4.5452
0
LINE
8
BLACK
6
CONTINUOUS
10
5.41803
20
-4.5452
11
5.4165
21
-4.5455
0
LINE
8
BLACK
6
CONTINUOUS
10
5.4165
20
-4.5455
11
5.3515
21
-4.5455
0
LINE
8
BLACK
6
CONTINUOUS
10
5.3515
20
-4.5455
11
5.34997
21
-4.5452
0
LINE
8
BLACK
6
CONTINUOUS
10
5.34997
20
-4.5452
11
5.34867
21
-4.54433
0
LINE
8
BLACK
6
CONTINUOUS
10
5.34867
20
-4.54433
11
5.3478
21
-4.54303
0
LINE
8
BLACK
6
CONTINUOUS
10
5.3478
20
-4.54303
11
5.3475
21
-4.5415
0
LINE
8
BLACK
6
CONTINUOUS
10
5.3475
20
-4.5415
11
5.3475
21
-4.4765
0
LINE
8
BLACK
6
CONTINUOUS
10
5.3475
20
-4.4765
11
5.3478
21
-4.47497
0
LINE
8
BLACK
6
CONTINUOUS
10
5.3478
20
-4.47497
11
5.34867
21
-4.47367
0
LINE
8
BLACK
6
CONTINUOUS
10
5.34867
20
-4.47367
11
5.34997
21
-4.4728
0
LINE
8
BLACK
6
CONTINUOUS
10
5.34997
20
-4.4728
11
5.3515
21
-4.4725
0
LINE
8
BLACK
6
CONTINUOUS
10
5.3515
20
-4.4725
11
5.4165
21
-4.4725
0
LINE
8
BLACK
6
CONTINUOUS
10
5.4165
20
-4.4725
11
5.41803
21
-4.4728
0
LINE
8
BLACK
6
CONTINUOUS
10
5.41803
20
-4.3728
11
5.41933
21
-4.37367
0
LINE
8
BLACK
6
CONTINUOUS
10
5.41933
20
-4.37367
11
5.4202
21
-4.37497
0
LINE
8
BLACK
6
CONTINUOUS
10
5.4202
20
-4.37497
11
5.4205
21
-4.3765
0
LINE
8
BLACK
6
CONTINUOUS
10
5.4205
20
-4.3765
11
5.4205
21
-4.4415
0
LINE
8
BLACK
6
CONTINUOUS
10
5.4205
20
-4.4415
11
5.4202
21
-4.44303
0
LINE
8
BLACK
6
CONTINUOUS
10
5.4202
20
-4.44303
11
5.41933
21
-4.44433
0
LINE
8
BLACK
6
CONTINUOUS
10
5.41933
20
-4.44433
11
5.41803
21
-4.4452
0
LINE
8
BLACK
6
CONTINUOUS
10
5.41803
20
-4.4452
11
5.4165
21
-4.4455
0
LINE
8
BLACK
6
CONTINUOUS
10
5.4165
20
-4.4455
11
5.3515
21
-4.4455
0
LINE
8
BLACK
6
CONTINUOUS
10
5.3515
20
-4.4455
11
5.34997
21
-4.4452
0
LINE
8
BLACK
6
CONTINUOUS
10
5.34997
20
-4.4452
11
5.34867
21
-4.44433
0
LINE
8
BLACK
6
CONTINUOUS
10
5.34867
20
-4.44433
11
5.3478
21
-4.44303
0
LINE
8
BLACK
6
CONTINUOUS
10
5.3478
20
-4.44303
11
5.3475
21
-4.4415
0
LINE
8
BLACK
6
CONTINUOUS
10
5.3475
20
-4.4415
11
5.3475
21
-4.3765
0
LINE
8
BLACK
6
CONTINUOUS
10
5.3475
20
-4.3765
11
5.3478
21
-4.37497
0
LINE
8
BLACK
6
CONTINUOUS
10
5.3478
20
-4.37497
11
5.34867
21
-4.37367
0
LINE
8
BLACK
6
CONTINUOUS
10
5.34867
20
-4.37367
11
5.34997
21
-4.3728
0
LINE
8
BLACK
6
CONTINUOUS
10
5.34997
20
-4.3728
11
5.3515
21
-4.3725
0
LINE
8
BLACK
6
CONTINUOUS
10
5.3515
20
-4.3725
11
5.4165
21
-4.3725
0
LINE
8
BLACK
6
CONTINUOUS
10
5.4165
20
-4.3725
11
5.41803
21
-4.3728
0
LINE
8
BLACK
6
CONTINUOUS
10
5.41803
20
-4.2728
11
5.41933
21
-4.27367
0
LINE
8
BLACK
6
CONTINUOUS
10
5.41933
20
-4.27367
11
5.4202
21
-4.27497
0
LINE
8
BLACK
6
CONTINUOUS
10
5.4202
20
-4.27497
11
5.4205
21
-4.2765
0
LINE
8
BLACK
6
CONTINUOUS
10
5.4205
20
-4.2765
11
5.4205
21
-4.3415
0
LINE
8
BLACK
6
CONTINUOUS
10
5.4205
20
-4.3415
11
5.4202
21
-4.34303
0
LINE
8
BLACK
6
CONTINUOUS
10
5.4202
20
-4.34303
11
5.41933
21
-4.34433
0
LINE
8
BLACK
6
CONTINUOUS
10
5.41933
20
-4.34433
11
5.41803
21
-4.3452
0
LINE
8
BLACK
6
CONTINUOUS
10
5.41803
20
-4.3452
11
5.4165
21
-4.3455
0
LINE
8
BLACK
6
CONTINUOUS
10
5.4165
20
-4.3455
11
5.3515
21
-4.3455
0
LINE
8
BLACK
6
CONTINUOUS
10
5.3515
20
-4.3455
11
5.34997
21
-4.3452
0
LINE
8
BLACK
6
CONTINUOUS
10
5.34997
20
-4.3452
11
5.34867
21
-4.34433
0
LINE
8
BLACK
6
CONTINUOUS
10
5.34867
20
-4.34433
11
5.3478
21
-4.34303
0
LINE
8
BLACK
6
CONTINUOUS
10
5.3478
20
-4.34303
11
5.3475
21
-4.3415
0
LINE
8
BLACK
6
CONTINUOUS
10
5.3475
20
-4.3415
11
5.3475
21
-4.2765
0
LINE
8
BLACK
6
CONTINUOUS
10
5.3475
20
-4.2765
11
5.3478
21
-4.27497
0
LINE
8
BLACK
6
CONTINUOUS
10
5.3478
20
-4.27497
11
5.34867
21
-4.27367
0
LINE
8
BLACK
6
CONTINUOUS
10
5.34867
20
-4.27367
11
5.34997
21
-4.2728
0
LINE
8
BLACK
6
CONTINUOUS
10
5.34997
20
-4.2728
11
5.3515
21
-4.2725
0
LINE
8
BLACK
6
CONTINUOUS
10
5.3515
20
-4.2725
11
5.4165
21
-4.2725
0
LINE
8
BLACK
6
CONTINUOUS
10
5.4165
20
-4.2725
11
5.41803
21
-4.2728
0
LINE
8
BLACK
6
CONTINUOUS
10
5.81175
20
-4.18286
11
5.81494
21
-4.18554
0
LINE
8
BLACK
6
CONTINUOUS
10
5.81494
20
-4.18554
11
5.81703
21
-4.18915
0
LINE
8
BLACK
6
CONTINUOUS
10
5.81703
20
-4.18915
11
5.81775
21
-4.19325
0
LINE
8
BLACK
6
CONTINUOUS
10
5.81775
20
-4.19325
11
5.81703
21
-4.19736
0
LINE
8
BLACK
6
CONTINUOUS
10
5.81703
20
-4.19736
11
5.81652
21
-4.19824
0
LINE
8
BLACK
6
CONTINUOUS
10
5.81652
20
-4.19824
11
5.81942
21
-4.19718
0
LINE
8
BLACK
6
CONTINUOUS
10
5.81942
20
-4.19718
11
5.82358
21
-4.19718
0
LINE
8
BLACK
6
CONTINUOUS
10
5.82358
20
-4.19718
11
5.82648
21
-4.19824
0
LINE
8
BLACK
6
CONTINUOUS
10
5.82648
20
-4.19824
11
5.82597
21
-4.19736
0
LINE
8
BLACK
6
CONTINUOUS
10
5.82597
20
-4.19736
11
5.82525
21
-4.19325
0
LINE
8
BLACK
6
CONTINUOUS
10
5.82525
20
-4.19325
11
5.82597
21
-4.18915
0
LINE
8
BLACK
6
CONTINUOUS
10
5.82597
20
-4.18915
11
5.82806
21
-4.18554
0
LINE
8
BLACK
6
CONTINUOUS
10
5.82806
20
-4.18554
11
5.83125
21
-4.18286
0
LINE
8
BLACK
6
CONTINUOUS
10
5.83125
20
-4.18286
11
5.83516
21
-4.18143
0
LINE
8
BLACK
6
CONTINUOUS
10
5.83516
20
-4.18143
11
5.83933
21
-4.18143
0
LINE
8
BLACK
6
CONTINUOUS
10
5.83933
20
-4.18143
11
5.84325
21
-4.18286
0
LINE
8
BLACK
6
CONTINUOUS
10
5.84325
20
-4.18286
11
5.84644
21
-4.18554
0
LINE
8
BLACK
6
CONTINUOUS
10
5.84644
20
-4.18554
11
5.84852
21
-4.18915
0
LINE
8
BLACK
6
CONTINUOUS
10
5.84852
20
-4.18915
11
5.84925
21
-4.19325
0
LINE
8
BLACK
6
CONTINUOUS
10
5.84925
20
-4.19325
11
5.84852
21
-4.19736
0
LINE
8
BLACK
6
CONTINUOUS
10
5.84852
20
-4.19736
11
5.84644
21
-4.20097
0
LINE
8
BLACK
6
CONTINUOUS
10
5.84644
20
-4.20097
11
5.84325
21
-4.20364
0
LINE
8
BLACK
6
CONTINUOUS
10
5.84325
20
-4.20364
11
5.83933
21
-4.20507
0
LINE
8
BLACK
6
CONTINUOUS
10
5.83933
20
-4.20507
11
5.83516
21
-4.20507
0
LINE
8
BLACK
6
CONTINUOUS
10
5.83516
20
-4.20507
11
5.83227
21
-4.20402
0
LINE
8
BLACK
6
CONTINUOUS
10
5.83227
20
-4.20402
11
5.83278
21
-4.2049
0
LINE
8
BLACK
6
CONTINUOUS
10
5.83278
20
-4.2049
11
5.8335
21
-4.209
0
LINE
8
BLACK
6
CONTINUOUS
10
5.8335
20
-4.209
11
5.83278
21
-4.2131
0
LINE
8
BLACK
6
CONTINUOUS
10
5.83278
20
-4.2131
11
5.83227
21
-4.21398
0
LINE
8
BLACK
6
CONTINUOUS
10
5.83227
20
-4.21398
11
5.83516
21
-4.21293
0
LINE
8
BLACK
6
CONTINUOUS
10
5.83516
20
-4.21293
11
5.83933
21
-4.21293
0
LINE
8
BLACK
6
CONTINUOUS
10
5.83933
20
-4.21293
11
5.84325
21
-4.21436
0
LINE
8
BLACK
6
CONTINUOUS
10
5.84325
20
-4.21436
11
5.84644
21
-4.21703
0
LINE
8
BLACK
6
CONTINUOUS
10
5.84644
20
-4.21703
11
5.84852
21
-4.22064
0
LINE
8
BLACK
6
CONTINUOUS
10
5.84852
20
-4.22064
11
5.84925
21
-4.22475
0
LINE
8
BLACK
6
CONTINUOUS
10
5.84925
20
-4.22475
11
5.84852
21
-4.22885
0
LINE
8
BLACK
6
CONTINUOUS
10
5.84852
20
-4.22885
11
5.84644
21
-4.23246
0
LINE
8
BLACK
6
CONTINUOUS
10
5.84644
20
-4.23246
11
5.84325
21
-4.23514
0
LINE
8
BLACK
6
CONTINUOUS
10
5.84325
20
-4.23514
11
5.83933
21
-4.23657
0
LINE
8
BLACK
6
CONTINUOUS
10
5.83933
20
-4.23657
11
5.83516
21
-4.23657
0
LINE
8
BLACK
6
CONTINUOUS
10
5.83516
20
-4.23657
11
5.83125
21
-4.23514
0
LINE
8
BLACK
6
CONTINUOUS
10
5.83125
20
-4.23514
11
5.82806
21
-4.23246
0
LINE
8
BLACK
6
CONTINUOUS
10
5.82806
20
-4.23246
11
5.82597
21
-4.22885
0
LINE
8
BLACK
6
CONTINUOUS
10
5.82597
20
-4.22885
11
5.82525
21
-4.22475
0
LINE
8
BLACK
6
CONTINUOUS
10
5.82525
20
-4.22475
11
5.82597
21
-4.22064
0
LINE
8
BLACK
6
CONTINUOUS
10
5.82597
20
-4.22064
11
5.82648
21
-4.21976
0
LINE
8
BLACK
6
CONTINUOUS
10
5.82648
20
-4.21976
11
5.82358
21
-4.22082
0
LINE
8
BLACK
6
CONTINUOUS
10
5.82358
20
-4.22082
11
5.81942
21
-4.22082
0
LINE
8
BLACK
6
CONTINUOUS
10
5.81942
20
-4.22082
11
5.81652
21
-4.21976
0
LINE
8
BLACK
6
CONTINUOUS
10
5.81652
20
-4.21976
11
5.81703
21
-4.22064
0
LINE
8
BLACK
6
CONTINUOUS
10
5.81703
20
-4.22064
11
5.81775
21
-4.22475
0
LINE
8
BLACK
6
CONTINUOUS
10
5.81775
20
-4.22475
11
5.81703
21
-4.22885
0
LINE
8
BLACK
6
CONTINUOUS
10
5.81703
20
-4.22885
11
5.81494
21
-4.23246
0
LINE
8
BLACK
6
CONTINUOUS
10
5.81494
20
-4.23246
11
5.81175
21
-4.23514
0
LINE
8
BLACK
6
CONTINUOUS
10
5.81175
20
-4.23514
11
5.80784
21
-4.23657
0
LINE
8
BLACK
6
CONTINUOUS
10
5.80784
20
-4.23657
11
5.80367
21
-4.23657
0
LINE
8
BLACK
6
CONTINUOUS
10
5.80367
20
-4.23657
11
5.79975
21
-4.23514
0
LINE
8
BLACK
6
CONTINUOUS
10
5.79975
20
-4.23514
11
5.79656
21
-4.23246
0
LINE
8
BLACK
6
CONTINUOUS
10
5.79656
20
-4.23246
11
5.79448
21
-4.22885
0
LINE
8
BLACK
6
CONTINUOUS
10
5.79448
20
-4.22885
11
5.79375
21
-4.22475
0
LINE
8
BLACK
6
CONTINUOUS
10
5.79375
20
-4.22475
11
5.79448
21
-4.22064
0
LINE
8
BLACK
6
CONTINUOUS
10
5.79448
20
-4.22064
11
5.79656
21
-4.21703
0
LINE
8
BLACK
6
CONTINUOUS
10
5.79656
20
-4.21703
11
5.79975
21
-4.21436
0
LINE
8
BLACK
6
CONTINUOUS
10
5.79975
20
-4.21436
11
5.80367
21
-4.21293
0
LINE
8
BLACK
6
CONTINUOUS
10
5.80367
20
-4.21293
11
5.80784
21
-4.21293
0
LINE
8
BLACK
6
CONTINUOUS
10
5.80784
20
-4.21293
11
5.81073
21
-4.21398
0
LINE
8
BLACK
6
CONTINUOUS
10
5.81073
20
-4.21398
11
5.81022
21
-4.2131
0
LINE
8
BLACK
6
CONTINUOUS
10
5.81022
20
-4.2131
11
5.8095
21
-4.209
0
LINE
8
BLACK
6
CONTINUOUS
10
5.8095
20
-4.209
11
5.81022
21
-4.2049
0
LINE
8
BLACK
6
CONTINUOUS
10
5.81022
20
-4.2049
11
5.81073
21
-4.20402
0
LINE
8
BLACK
6
CONTINUOUS
10
5.81073
20
-4.20402
11
5.80784
21
-4.20507
0
LINE
8
BLACK
6
CONTINUOUS
10
5.80784
20
-4.20507
11
5.80367
21
-4.20507
0
LINE
8
BLACK
6
CONTINUOUS
10
5.80367
20
-4.20507
11
5.79975
21
-4.20364
0
LINE
8
BLACK
6
CONTINUOUS
10
5.79975
20
-4.20364
11
5.79656
21
-4.20097
0
LINE
8
BLACK
6
CONTINUOUS
10
5.79656
20
-4.20097
11
5.79448
21
-4.19736
0
LINE
8
BLACK
6
CONTINUOUS
10
5.79448
20
-4.19736
11
5.79375
21
-4.19325
0
LINE
8
BLACK
6
CONTINUOUS
10
5.79375
20
-4.19325
11
5.79448
21
-4.18915
0
LINE
8
BLACK
6
CONTINUOUS
10
5.79448
20
-4.18915
11
5.79656
21
-4.18554
0
LINE
8
BLACK
6
CONTINUOUS
10
5.79656
20
-4.18554
11
5.79975
21
-4.18286
0
LINE
8
BLACK
6
CONTINUOUS
10
5.79975
20
-4.18286
11
5.80367
21
-4.18143
0
LINE
8
BLACK
6
CONTINUOUS
10
5.80367
20
-4.18143
11
5.80784
21
-4.18143
0
LINE
8
BLACK
6
CONTINUOUS
10
5.80784
20
-4.18143
11
5.81175
21
-4.18286
0
LINE
8
BLACK
6
CONTINUOUS
10
5.53053
20
-4.0353
11
5.53183
21
-4.03617
0
LINE
8
BLACK
6
CONTINUOUS
10
5.53183
20
-4.03617
11
5.5327
21
-4.03747
0
LINE
8
BLACK
6
CONTINUOUS
10
5.5327
20
-4.03747
11
5.533
21
-4.039
0
LINE
8
BLACK
6
CONTINUOUS
10
5.533
20
-4.039
11
5.533
21
-4.104
0
LINE
8
BLACK
6
CONTINUOUS
10
5.533
20
-4.104
11
5.5327
21
-4.10553
0
LINE
8
BLACK
6
CONTINUOUS
10
5.5327
20
-4.10553
11
5.53183
21
-4.10683
0
LINE
8
BLACK
6
CONTINUOUS
10
5.53183
20
-4.10683
11
5.53053
21
-4.1077
0
LINE
8
BLACK
6
CONTINUOUS
10
5.53053
20
-4.1077
11
5.529
21
-4.108
0
LINE
8
BLACK
6
CONTINUOUS
10
5.529
20
-4.108
11
5.464
21
-4.108
0
LINE
8
BLACK
6
CONTINUOUS
10
5.464
20
-4.108
11
5.46247
21
-4.1077
0
LINE
8
BLACK
6
CONTINUOUS
10
5.46247
20
-4.1077
11
5.46117
21
-4.10683
0
LINE
8
BLACK
6
CONTINUOUS
10
5.46117
20
-4.10683
11
5.4603
21
-4.10553
0
LINE
8
BLACK
6
CONTINUOUS
10
5.4603
20
-4.10553
11
5.46
21
-4.104
0
LINE
8
BLACK
6
CONTINUOUS
10
5.46
20
-4.104
11
5.46
21
-4.039
0
LINE
8
BLACK
6
CONTINUOUS
10
5.46
20
-4.039
11
5.4603
21
-4.03747
0
LINE
8
BLACK
6
CONTINUOUS
10
5.4603
20
-4.03747
11
5.46117
21
-4.03617
0
LINE
8
BLACK
6
CONTINUOUS
10
5.46117
20
-4.03617
11
5.46247
21
-4.0353
0
LINE
8
BLACK
6
CONTINUOUS
10
5.46247
20
-4.0353
11
5.464
21
-4.035
0
LINE
8
BLACK
6
CONTINUOUS
10
5.464
20
-4.035
11
5.529
21
-4.035
0
LINE
8
BLACK
6
CONTINUOUS
10
5.529
20
-4.035
11
5.53053
21
-4.0353
0
LINE
8
BLACK
6
CONTINUOUS
10
5.43053
20
-4.0353
11
5.43183
21
-4.03617
0
LINE
8
BLACK
6
CONTINUOUS
10
5.43183
20
-4.03617
11
5.4327
21
-4.03747
0
LINE
8
BLACK
6
CONTINUOUS
10
5.4327
20
-4.03747
11
5.433
21
-4.039
0
LINE
8
BLACK
6
CONTINUOUS
10
5.433
20
-4.039
11
5.433
21
-4.104
0
LINE
8
BLACK
6
CONTINUOUS
10
5.433
20
-4.104
11
5.4327
21
-4.10553
0
LINE
8
BLACK
6
CONTINUOUS
10
5.4327
20
-4.10553
11
5.43183
21
-4.10683
0
LINE
8
BLACK
6
CONTINUOUS
10
5.43183
20
-4.10683
11
5.43053
21
-4.1077
0
LINE
8
BLACK
6
CONTINUOUS
10
5.43053
20
-4.1077
11
5.429
21
-4.108
0
LINE
8
BLACK
6
CONTINUOUS
10
5.429
20
-4.108
11
5.364
21
-4.108
0
LINE
8
BLACK
6
CONTINUOUS
10
5.364
20
-4.108
11
5.36247
21
-4.1077
0
LINE
8
BLACK
6
CONTINUOUS
10
5.36247
20
-4.1077
11
5.36117
21
-4.10683
0
LINE
8
BLACK
6
CONTINUOUS
10
5.36117
20
-4.10683
11
5.3603
21
-4.10553
0
LINE
8
BLACK
6
CONTINUOUS
10
5.3603
20
-4.10553
11
5.36
21
-4.104
0
LINE
8
BLACK
6
CONTINUOUS
10
5.36
20
-4.104
11
5.36
21
-4.039
0
LINE
8
BLACK
6
CONTINUOUS
10
5.36
20
-4.039
11
5.3603
21
-4.03747
0
LINE
8
BLACK
6
CONTINUOUS
10
5.3603
20
-4.03747
11
5.36117
21
-4.03617
0
LINE
8
BLACK
6
CONTINUOUS
10
5.36117
20
-4.03617
11
5.36247
21
-4.0353
0
LINE
8
BLACK
6
CONTINUOUS
10
5.36247
20
-4.0353
11
5.364
21
-4.035
0
LINE
8
BLACK
6
CONTINUOUS
10
5.364
20
-4.035
11
5.429
21
-4.035
0
LINE
8
BLACK
6
CONTINUOUS
10
5.429
20
-4.035
11
5.43053
21
-4.0353
0
LINE
8
BLACK
6
CONTINUOUS
10
5.53053
20
-3.9353
11
5.53183
21
-3.93617
0
LINE
8
BLACK
6
CONTINUOUS
10
5.53183
20
-3.93617
11
5.5327
21
-3.93747
0
LINE
8
BLACK
6
CONTINUOUS
10
5.5327
20
-3.93747
11
5.533
21
-3.939
0
LINE
8
BLACK
6
CONTINUOUS
10
5.533
20
-3.939
11
5.533
21
-4.004
0
LINE
8
BLACK
6
CONTINUOUS
10
5.533
20
-4.004
11
5.5327
21
-4.00553
0
LINE
8
BLACK
6
CONTINUOUS
10
5.5327
20
-4.00553
11
5.53183
21
-4.00683
0
LINE
8
BLACK
6
CONTINUOUS
10
5.53183
20
-4.00683
11
5.53053
21
-4.0077
0
LINE
8
BLACK
6
CONTINUOUS
10
5.53053
20
-4.0077
11
5.529
21
-4.008
0
LINE
8
BLACK
6
CONTINUOUS
10
5.529
20
-4.008
11
5.464
21
-4.008
0
LINE
8
BLACK
6
CONTINUOUS
10
5.464
20
-4.008
11
5.46247
21
-4.0077
0
LINE
8
BLACK
6
CONTINUOUS
10
5.46247
20
-4.0077
11
5.46117
21
-4.00683
0
LINE
8
BLACK
6
CONTINUOUS
10
5.46117
20
-4.00683
11
5.4603
21
-4.00553
0
LINE
8
BLACK
6
CONTINUOUS
10
5.4603
20
-4.00553
11
5.46
21
-4.004
0
LINE
8
BLACK
6
CONTINUOUS
10
5.46
20
-4.004
11
5.46
21
-3.939
0
LINE
8
BLACK
6
CONTINUOUS
10
5.46
20
-3.939
11
5.4603
21
-3.93747
0
LINE
8
BLACK
6
CONTINUOUS
10
5.4603
20
-3.93747
11
5.46117
21
-3.93617
0
LINE
8
BLACK
6
CONTINUOUS
10
5.46117
20
-3.93617
11
5.46247
21
-3.9353
0
LINE
8
BLACK
6
CONTINUOUS
10
5.46247
20
-3.9353
11
5.464
21
-3.935
0
LINE
8
BLACK
6
CONTINUOUS
10
5.464
20
-3.935
11
5.529
21
-3.935
0
LINE
8
BLACK
6
CONTINUOUS
10
5.529
20
-3.935
11
5.53053
21
-3.9353
0
LINE
8
BLACK
6
CONTINUOUS
10
5.43053
20
-3.9353
11
5.43183
21
-3.93617
0
LINE
8
BLACK
6
CONTINUOUS
10
5.43183
20
-3.93617
11
5.4327
21
-3.93747
0
LINE
8
BLACK
6
CONTINUOUS
10
5.4327
20
-3.93747
11
5.433
21
-3.939
0
LINE
8
BLACK
6
CONTINUOUS
10
5.433
20
-3.939
11
5.433
21
-4.004
0
LINE
8
BLACK
6
CONTINUOUS
10
5.433
20
-4.004
11
5.4327
21
-4.00553
0
LINE
8
BLACK
6
CONTINUOUS
10
5.4327
20
-4.00553
11
5.43183
21
-4.00683
0
LINE
8
BLACK
6
CONTINUOUS
10
5.43183
20
-4.00683
11
5.43053
21
-4.0077
0
LINE
8
BLACK
6
CONTINUOUS
10
5.43053
20
-4.0077
11
5.429
21
-4.008
0
LINE
8
BLACK
6
CONTINUOUS
10
5.429
20
-4.008
11
5.364
21
-4.008
0
LINE
8
BLACK
6
CONTINUOUS
10
5.364
20
-4.008
11
5.36247
21
-4.0077
0
LINE
8
BLACK
6
CONTINUOUS
10
5.36247
20
-4.0077
11
5.36117
21
-4.00683
0
LINE
8
BLACK
6
CONTINUOUS
10
5.36117
20
-4.00683
11
5.3603
21
-4.00553
0
LINE
8
BLACK
6
CONTINUOUS
10
5.3603
20
-4.00553
11
5.36
21
-4.004
0
LINE
8
BLACK
6
CONTINUOUS
10
5.36
20
-4.004
11
5.36
21
-3.939
0
LINE
8
BLACK
6
CONTINUOUS
10
5.36
20
-3.939
11
5.3603
21
-3.93747
0
LINE
8
BLACK
6
CONTINUOUS
10
5.3603
20
-3.93747
11
5.36117
21
-3.93617
0
LINE
8
BLACK
6
CONTINUOUS
10
5.36117
20
-3.93617
11
5.36247
21
-3.9353
0
LINE
8
BLACK
6
CONTINUOUS
10
5.36247
20
-3.9353
11
5.364
21
-3.935
0
LINE
8
BLACK
6
CONTINUOUS
10
5.364
20
-3.935
11
5.429
21
-3.935
0
LINE
8
BLACK
6
CONTINUOUS
10
5.429
20
-3.935
11
5.43053
21
-3.9353
0
LINE
8
BLACK
6
CONTINUOUS
10
5.53053
20
-3.8353
11
5.53183
21
-3.83617
0
LINE
8
BLACK
6
CONTINUOUS
10
5.53183
20
-3.83617
11
5.5327
21
-3.83747
0
LINE
8
BLACK
6
CONTINUOUS
10
5.5327
20
-3.83747
11
5.533
21
-3.839
0
LINE
8
BLACK
6
CONTINUOUS
10
5.533
20
-3.839
11
5.533
21
-3.904
0
LINE
8
BLACK
6
CONTINUOUS
10
5.533
20
-3.904
11
5.5327
21
-3.90553
0
LINE
8
BLACK
6
CONTINUOUS
10
5.5327
20
-3.90553
11
5.53183
21
-3.90683
0
LINE
8
BLACK
6
CONTINUOUS
10
5.53183
20
-3.90683
11
5.53053
21
-3.9077
0
LINE
8
BLACK
6
CONTINUOUS
10
5.53053
20
-3.9077
11
5.529
21
-3.908
0
LINE
8
BLACK
6
CONTINUOUS
10
5.529
20
-3.908
11
5.464
21
-3.908
0
LINE
8
BLACK
6
CONTINUOUS
10
5.464
20
-3.908
11
5.46247
21
-3.9077
0
LINE
8
BLACK
6
CONTINUOUS
10
5.46247
20
-3.9077
11
5.46117
21
-3.90683
0
LINE
8
BLACK
6
CONTINUOUS
10
5.46117
20
-3.90683
11
5.4603
21
-3.90553
0
LINE
8
BLACK
6
CONTINUOUS
10
5.4603
20
-3.90553
11
5.46
21
-3.904
0
LINE
8
BLACK
6
CONTINUOUS
10
5.46
20
-3.904
11
5.46
21
-3.839
0
LINE
8
BLACK
6
CONTINUOUS
10
5.46
20
-3.839
11
5.4603
21
-3.83747
0
LINE
8
BLACK
6
CONTINUOUS
10
5.4603
20
-3.83747
11
5.46117
21
-3.83617
0
LINE
8
BLACK
6
CONTINUOUS
10
5.46117
20
-3.83617
11
5.46247
21
-3.8353
0
LINE
8
BLACK
6
CONTINUOUS
10
5.46247
20
-3.8353
11
5.464
21
-3.835
0
LINE
8
BLACK
6
CONTINUOUS
10
5.464
20
-3.835
11
5.529
21
-3.835
0
LINE
8
BLACK
6
CONTINUOUS
10
5.529
20
-3.835
11
5.53053
21
-3.8353
0
LINE
8
BLACK
6
CONTINUOUS
10
5.43053
20
-3.8353
11
5.43183
21
-3.83617
0
LINE
8
BLACK
6
CONTINUOUS
10
5.43183
20
-3.83617
11
5.4327
21
-3.83747
0
LINE
8
BLACK
6
CONTINUOUS
10
5.4327
20
-3.83747
11
5.433
21
-3.839
0
LINE
8
BLACK
6
CONTINUOUS
10
5.433
20
-3.839
11
5.433
21
-3.904
0
LINE
8
BLACK
6
CONTINUOUS
10
5.433
20
-3.904
11
5.4327
21
-3.90553
0
LINE
8
BLACK
6
CONTINUOUS
10
5.4327
20
-3.90553
11
5.43183
21
-3.90683
0
LINE
8
BLACK
6
CONTINUOUS
10
5.43183
20
-3.90683
11
5.43053
21
-3.9077
0
LINE
8
BLACK
6
CONTINUOUS
10
5.43053
20
-3.9077
11
5.429
21
-3.908
0
LINE
8
BLACK
6
CONTINUOUS
10
5.429
20
-3.908
11
5.364
21
-3.908
0
LINE
8
BLACK
6
CONTINUOUS
10
5.364
20
-3.908
11
5.36247
21
-3.9077
0
LINE
8
BLACK
6
CONTINUOUS
10
5.36247
20
-3.9077
11
5.36117
21
-3.90683
0
LINE
8
BLACK
6
CONTINUOUS
10
5.36117
20
-3.90683
11
5.3603
21
-3.90553
0
LINE
8
BLACK
6
CONTINUOUS
10
5.3603
20
-3.90553
11
5.36
21
-3.904
0
LINE
8
BLACK
6
CONTINUOUS
10
5.36
20
-3.904
11
5.36
21
-3.839
0
LINE
8
BLACK
6
CONTINUOUS
10
5.36
20
-3.839
11
5.3603
21
-3.83747
0
LINE
8
BLACK
6
CONTINUOUS
10
5.3603
20
-3.83747
11
5.36117
21
-3.83617
0
LINE
8
BLACK
6
CONTINUOUS
10
5.36117
20
-3.83617
11
5.36247
21
-3.8353
0
LINE
8
BLACK
6
CONTINUOUS
10
5.36247
20
-3.8353
11
5.364
21
-3.835
0
LINE
8
BLACK
6
CONTINUOUS
10
5.364
20
-3.835
11
5.429
21
-3.835
0
LINE
8
BLACK
6
CONTINUOUS
10
5.429
20
-3.835
11
5.43053
21
-3.8353
0
LINE
8
BLACK
6
CONTINUOUS
10
5.86803
20
-3.7603
11
5.86933
21
-3.76117
0
LINE
8
BLACK
6
CONTINUOUS
10
5.86933
20
-3.76117
11
5.8702
21
-3.76247
0
LINE
8
BLACK
6
CONTINUOUS
10
5.8702
20
-3.76247
11
5.8705
21
-3.764
0
LINE
8
BLACK
6
CONTINUOUS
10
5.8705
20
-3.764
11
5.8705
21
-3.829
0
LINE
8
BLACK
6
CONTINUOUS
10
5.8705
20
-3.829
11
5.8702
21
-3.83053
0
LINE
8
BLACK
6
CONTINUOUS
10
5.8702
20
-3.83053
11
5.86933
21
-3.83183
0
LINE
8
BLACK
6
CONTINUOUS
10
5.86933
20
-3.83183
11
5.86803
21
-3.8327
0
LINE
8
BLACK
6
CONTINUOUS
10
5.86803
20
-3.8327
11
5.8665
21
-3.833
0
LINE
8
BLACK
6
CONTINUOUS
10
5.8665
20
-3.833
11
5.8015
21
-3.833
0
LINE
8
BLACK
6
CONTINUOUS
10
5.8015
20
-3.833
11
5.79997
21
-3.8327
0
LINE
8
BLACK
6
CONTINUOUS
10
5.79997
20
-3.8327
11
5.79867
21
-3.83183
0
LINE
8
BLACK
6
CONTINUOUS
10
5.79867
20
-3.83183
11
5.7978
21
-3.83053
0
LINE
8
BLACK
6
CONTINUOUS
10
5.7978
20
-3.83053
11
5.7975
21
-3.829
0
LINE
8
BLACK
6
CONTINUOUS
10
5.7975
20
-3.829
11
5.7975
21
-3.764
0
LINE
8
BLACK
6
CONTINUOUS
10
5.7975
20
-3.764
11
5.7978
21
-3.76247
0
LINE
8
BLACK
6
CONTINUOUS
10
5.7978
20
-3.76247
11
5.79867
21
-3.76117
0
LINE
8
BLACK
6
CONTINUOUS
10
5.79867
20
-3.76117
11
5.79997
21
-3.7603
0
LINE
8
BLACK
6
CONTINUOUS
10
5.79997
20
-3.7603
11
5.8015
21
-3.76
0
LINE
8
BLACK
6
CONTINUOUS
10
5.8015
20
-3.76
11
5.8665
21
-3.76
0
LINE
8
BLACK
6
CONTINUOUS
10
5.8665
20
-3.76
11
5.86803
21
-3.7603
0
LINE
8
BLACK
6
CONTINUOUS
10
5.96803
20
-3.7603
11
5.96933
21
-3.76117
0
LINE
8
BLACK
6
CONTINUOUS
10
5.96933
20
-3.76117
11
5.9702
21
-3.76247
0
LINE
8
BLACK
6
CONTINUOUS
10
5.9702
20
-3.76247
11
5.9705
21
-3.764
0
LINE
8
BLACK
6
CONTINUOUS
10
5.9705
20
-3.764
11
5.9705
21
-3.829
0
LINE
8
BLACK
6
CONTINUOUS
10
5.9705
20
-3.829
11
5.9702
21
-3.83053
0
LINE
8
BLACK
6
CONTINUOUS
10
5.9702
20
-3.83053
11
5.96933
21
-3.83183
0
LINE
8
BLACK
6
CONTINUOUS
10
5.96933
20
-3.83183
11
5.96803
21
-3.8327
0
LINE
8
BLACK
6
CONTINUOUS
10
5.96803
20
-3.8327
11
5.9665
21
-3.833
0
LINE
8
BLACK
6
CONTINUOUS
10
5.9665
20
-3.833
11
5.9015
21
-3.833
0
LINE
8
BLACK
6
CONTINUOUS
10
5.9015
20
-3.833
11
5.89997
21
-3.8327
0
LINE
8
BLACK
6
CONTINUOUS
10
5.89997
20
-3.8327
11
5.89867
21
-3.83183
0
LINE
8
BLACK
6
CONTINUOUS
10
5.89867
20
-3.83183
11
5.8978
21
-3.83053
0
LINE
8
BLACK
6
CONTINUOUS
10
5.8978
20
-3.83053
11
5.8975
21
-3.829
0
LINE
8
BLACK
6
CONTINUOUS
10
5.8975
20
-3.829
11
5.8975
21
-3.764
0
LINE
8
BLACK
6
CONTINUOUS
10
5.8975
20
-3.764
11
5.8978
21
-3.76247
0
LINE
8
BLACK
6
CONTINUOUS
10
5.8978
20
-3.76247
11
5.89867
21
-3.76117
0
LINE
8
BLACK
6
CONTINUOUS
10
5.89867
20
-3.76117
11
5.89997
21
-3.7603
0
LINE
8
BLACK
6
CONTINUOUS
10
5.89997
20
-3.7603
11
5.9015
21
-3.76
0
LINE
8
BLACK
6
CONTINUOUS
10
5.9015
20
-3.76
11
5.9665
21
-3.76
0
LINE
8
BLACK
6
CONTINUOUS
10
5.9665
20
-3.76
11
5.96803
21
-3.7603
0
LINE
8
BLACK
6
CONTINUOUS
10
6.06803
20
-3.7603
11
6.06933
21
-3.76117
0
LINE
8
BLACK
6
CONTINUOUS
10
6.06933
20
-3.76117
11
6.0702
21
-3.76247
0
LINE
8
BLACK
6
CONTINUOUS
10
6.0702
20
-3.76247
11
6.0705
21
-3.764
0
LINE
8
BLACK
6
CONTINUOUS
10
6.0705
20
-3.764
11
6.0705
21
-3.829
0
LINE
8
BLACK
6
CONTINUOUS
10
6.0705
20
-3.829
11
6.0702
21
-3.83053
0
LINE
8
BLACK
6
CONTINUOUS
10
6.0702
20
-3.83053
11
6.06933
21
-3.83183
0
LINE
8
BLACK
6
CONTINUOUS
10
6.06933
20
-3.83183
11
6.06803
21
-3.8327
0
LINE
8
BLACK
6
CONTINUOUS
10
6.06803
20
-3.8327
11
6.0665
21
-3.833
0
LINE
8
BLACK
6
CONTINUOUS
10
6.0665
20
-3.833
11
6.0015
21
-3.833
0
LINE
8
BLACK
6
CONTINUOUS
10
6.0015
20
-3.833
11
5.99997
21
-3.8327
0
LINE
8
BLACK
6
CONTINUOUS
10
5.99997
20
-3.8327
11
5.99867
21
-3.83183
0
LINE
8
BLACK
6
CONTINUOUS
10
5.99867
20
-3.83183
11
5.9978
21
-3.83053
0
LINE
8
BLACK
6
CONTINUOUS
10
5.9978
20
-3.83053
11
5.9975
21
-3.829
0
LINE
8
BLACK
6
CONTINUOUS
10
5.9975
20
-3.829
11
5.9975
21
-3.764
0
LINE
8
BLACK
6
CONTINUOUS
10
5.9975
20
-3.764
11
5.9978
21
-3.76247
0
LINE
8
BLACK
6
CONTINUOUS
10
5.9978
20
-3.76247
11
5.99867
21
-3.76117
0
LINE
8
BLACK
6
CONTINUOUS
10
5.99867
20
-3.76117
11
5.99997
21
-3.7603
0
LINE
8
BLACK
6
CONTINUOUS
10
5.99997
20
-3.7603
11
6.0015
21
-3.76
0
LINE
8
BLACK
6
CONTINUOUS
10
6.0015
20
-3.76
11
6.0665
21
-3.76
0
LINE
8
BLACK
6
CONTINUOUS
10
6.0665
20
-3.76
11
6.06803
21
-3.7603
0
LINE
8
BLACK
6
CONTINUOUS
10
5.53053
20
-3.7353
11
5.53183
21
-3.73617
0
LINE
8
BLACK
6
CONTINUOUS
10
5.53183
20
-3.73617
11
5.5327
21
-3.73747
0
LINE
8
BLACK
6
CONTINUOUS
10
5.5327
20
-3.73747
11
5.533
21
-3.739
0
LINE
8
BLACK
6
CONTINUOUS
10
5.533
20
-3.739
11
5.533
21
-3.804
0
LINE
8
BLACK
6
CONTINUOUS
10
5.533
20
-3.804
11
5.5327
21
-3.80553
0
LINE
8
BLACK
6
CONTINUOUS
10
5.5327
20
-3.80553
11
5.53183
21
-3.80683
0
LINE
8
BLACK
6
CONTINUOUS
10
5.53183
20
-3.80683
11
5.53053
21
-3.8077
0
LINE
8
BLACK
6
CONTINUOUS
10
5.53053
20
-3.8077
11
5.529
21
-3.808
0
LINE
8
BLACK
6
CONTINUOUS
10
5.529
20
-3.808
11
5.464
21
-3.808
0
LINE
8
BLACK
6
CONTINUOUS
10
5.464
20
-3.808
11
5.46247
21
-3.8077
0
LINE
8
BLACK
6
CONTINUOUS
10
5.46247
20
-3.8077
11
5.46117
21
-3.80683
0
LINE
8
BLACK
6
CONTINUOUS
10
5.46117
20
-3.80683
11
5.4603
21
-3.80553
0
LINE
8
BLACK
6
CONTINUOUS
10
5.4603
20
-3.80553
11
5.46
21
-3.804
0
LINE
8
BLACK
6
CONTINUOUS
10
5.46
20
-3.804
11
5.46
21
-3.739
0
LINE
8
BLACK
6
CONTINUOUS
10
5.46
20
-3.739
11
5.4603
21
-3.73747
0
LINE
8
BLACK
6
CONTINUOUS
10
5.4603
20
-3.73747
11
5.46117
21
-3.73617
0
LINE
8
BLACK
6
CONTINUOUS
10
5.46117
20
-3.73617
11
5.46247
21
-3.7353
0
LINE
8
BLACK
6
CONTINUOUS
10
5.46247
20
-3.7353
11
5.464
21
-3.735
0
LINE
8
BLACK
6
CONTINUOUS
10
5.464
20
-3.735
11
5.529
21
-3.735
0
LINE
8
BLACK
6
CONTINUOUS
10
5.529
20
-3.735
11
5.53053
21
-3.7353
0
LINE
8
BLACK
6
CONTINUOUS
10
5.43053
20
-3.7353
11
5.43183
21
-3.73617
0
LINE
8
BLACK
6
CONTINUOUS
10
5.43183
20
-3.73617
11
5.4327
21
-3.73747
0
LINE
8
BLACK
6
CONTINUOUS
10
5.4327
20
-3.73747
11
5.433
21
-3.739
0
LINE
8
BLACK
6
CONTINUOUS
10
5.433
20
-3.739
11
5.433
21
-3.804
0
LINE
8
BLACK
6
CONTINUOUS
10
5.433
20
-3.804
11
5.4327
21
-3.80553
0
LINE
8
BLACK
6
CONTINUOUS
10
5.4327
20
-3.80553
11
5.43183
21
-3.80683
0
LINE
8
BLACK
6
CONTINUOUS
10
5.43183
20
-3.80683
11
5.43053
21
-3.8077
0
LINE
8
BLACK
6
CONTINUOUS
10
5.43053
20
-3.8077
11
5.429
21
-3.808
0
LINE
8
BLACK
6
CONTINUOUS
10
5.429
20
-3.808
11
5.364
21
-3.808
0
LINE
8
BLACK
6
CONTINUOUS
10
5.364
20
-3.808
11
5.36247
21
-3.8077
0
LINE
8
BLACK
6
CONTINUOUS
10
5.36247
20
-3.8077
11
5.36117
21
-3.80683
0
LINE
8
BLACK
6
CONTINUOUS
10
5.36117
20
-3.80683
11
5.3603
21
-3.80553
0
LINE
8
BLACK
6
CONTINUOUS
10
5.3603
20
-3.80553
11
5.36
21
-3.804
0
LINE
8
BLACK
6
CONTINUOUS
10
5.36
20
-3.804
11
5.36
21
-3.739
0
LINE
8
BLACK
6
CONTINUOUS
10
5.36
20
-3.739
11
5.3603
21
-3.73747
0
LINE
8
BLACK
6
CONTINUOUS
10
5.3603
20
-3.73747
11
5.36117
21
-3.73617
0
LINE
8
BLACK
6
CONTINUOUS
10
5.36117
20
-3.73617
11
5.36247
21
-3.7353
0
LINE
8
BLACK
6
CONTINUOUS
10
5.36247
20
-3.7353
11
5.364
21
-3.735
0
LINE
8
BLACK
6
CONTINUOUS
10
5.364
20
-3.735
11
5.429
21
-3.735
0
LINE
8
BLACK
6
CONTINUOUS
10
5.429
20
-3.735
11
5.43053
21
-3.7353
0
LINE
8
BLACK
6
CONTINUOUS
10
5.86803
20
-3.6603
11
5.86933
21
-3.66117
0
LINE
8
BLACK
6
CONTINUOUS
10
5.86933
20
-3.66117
11
5.8702
21
-3.66247
0
LINE
8
BLACK
6
CONTINUOUS
10
5.8702
20
-3.66247
11
5.8705
21
-3.664
0
LINE
8
BLACK
6
CONTINUOUS
10
5.8705
20
-3.664
11
5.8705
21
-3.729
0
LINE
8
BLACK
6
CONTINUOUS
10
5.8705
20
-3.729
11
5.8702
21
-3.73053
0
LINE
8
BLACK
6
CONTINUOUS
10
5.8702
20
-3.73053
11
5.86933
21
-3.73183
0
LINE
8
BLACK
6
CONTINUOUS
10
5.86933
20
-3.73183
11
5.86803
21
-3.7327
0
LINE
8
BLACK
6
CONTINUOUS
10
5.86803
20
-3.7327
11
5.8665
21
-3.733
0
LINE
8
BLACK
6
CONTINUOUS
10
5.8665
20
-3.733
11
5.8015
21
-3.733
0
LINE
8
BLACK
6
CONTINUOUS
10
5.8015
20
-3.733
11
5.79997
21
-3.7327
0
LINE
8
BLACK
6
CONTINUOUS
10
5.79997
20
-3.7327
11
5.79867
21
-3.73183
0
LINE
8
BLACK
6
CONTINUOUS
10
5.79867
20
-3.73183
11
5.7978
21
-3.73053
0
LINE
8
BLACK
6
CONTINUOUS
10
5.7978
20
-3.73053
11
5.7975
21
-3.729
0
LINE
8
BLACK
6
CONTINUOUS
10
5.7975
20
-3.729
11
5.7975
21
-3.664
0
LINE
8
BLACK
6
CONTINUOUS
10
5.7975
20
-3.664
11
5.7978
21
-3.66247
0
LINE
8
BLACK
6
CONTINUOUS
10
5.7978
20
-3.66247
11
5.79867
21
-3.66117
0
LINE
8
BLACK
6
CONTINUOUS
10
5.79867
20
-3.66117
11
5.79997
21
-3.6603
0
LINE
8
BLACK
6
CONTINUOUS
10
5.79997
20
-3.6603
11
5.8015
21
-3.66
0
LINE
8
BLACK
6
CONTINUOUS
10
5.8015
20
-3.66
11
5.8665
21
-3.66
0
LINE
8
BLACK
6
CONTINUOUS
10
5.8665
20
-3.66
11
5.86803
21
-3.6603
0
LINE
8
BLACK
6
CONTINUOUS
10
5.96803
20
-3.6603
11
5.96933
21
-3.66117
0
LINE
8
BLACK
6
CONTINUOUS
10
5.96933
20
-3.66117
11
5.9702
21
-3.66247
0
LINE
8
BLACK
6
CONTINUOUS
10
5.9702
20
-3.66247
11
5.9705
21
-3.664
0
LINE
8
BLACK
6
CONTINUOUS
10
5.9705
20
-3.664
11
5.9705
21
-3.729
0
LINE
8
BLACK
6
CONTINUOUS
10
5.9705
20
-3.729
11
5.9702
21
-3.73053
0
LINE
8
BLACK
6
CONTINUOUS
10
5.9702
20
-3.73053
11
5.96933
21
-3.73183
0
LINE
8
BLACK
6
CONTINUOUS
10
5.96933
20
-3.73183
11
5.96803
21
-3.7327
0
LINE
8
BLACK
6
CONTINUOUS
10
5.96803
20
-3.7327
11
5.9665
21
-3.733
0
LINE
8
BLACK
6
CONTINUOUS
10
5.9665
20
-3.733
11
5.9015
21
-3.733
0
LINE
8
BLACK
6
CONTINUOUS
10
5.9015
20
-3.733
11
5.89997
21
-3.7327
0
LINE
8
BLACK
6
CONTINUOUS
10
5.89997
20
-3.7327
11
5.89867
21
-3.73183
0
LINE
8
BLACK
6
CONTINUOUS
10
5.89867
20
-3.73183
11
5.8978
21
-3.73053
0
LINE
8
BLACK
6
CONTINUOUS
10
5.8978
20
-3.73053
11
5.8975
21
-3.729
0
LINE
8
BLACK
6
CONTINUOUS
10
5.8975
20
-3.729
11
5.8975
21
-3.664
0
LINE
8
BLACK
6
CONTINUOUS
10
5.8975
20
-3.664
11
5.8978
21
-3.66247
0
LINE
8
BLACK
6
CONTINUOUS
10
5.8978
20
-3.66247
11
5.89867
21
-3.66117
0
LINE
8
BLACK
6
CONTINUOUS
10
5.89867
20
-3.66117
11
5.89997
21
-3.6603
0
LINE
8
BLACK
6
CONTINUOUS
10
5.89997
20
-3.6603
11
5.9015
21
-3.66
0
LINE
8
BLACK
6
CONTINUOUS
10
5.9015
20
-3.66
11
5.9665
21
-3.66
0
LINE
8
BLACK
6
CONTINUOUS
10
5.9665
20
-3.66
11
5.96803
21
-3.6603
0
LINE
8
BLACK
6
CONTINUOUS
10
6.06803
20
-3.6603
11
6.06933
21
-3.66117
0
LINE
8
BLACK
6
CONTINUOUS
10
6.06933
20
-3.66117
11
6.0702
21
-3.66247
0
LINE
8
BLACK
6
CONTINUOUS
10
6.0702
20
-3.66247
11
6.0705
21
-3.664
0
LINE
8
BLACK
6
CONTINUOUS
10
6.0705
20
-3.664
11
6.0705
21
-3.729
0
LINE
8
BLACK
6
CONTINUOUS
10
6.0705
20
-3.729
11
6.0702
21
-3.73053
0
LINE
8
BLACK
6
CONTINUOUS
10
6.0702
20
-3.73053
11
6.06933
21
-3.73183
0
LINE
8
BLACK
6
CONTINUOUS
10
6.06933
20
-3.73183
11
6.06803
21
-3.7327
0
LINE
8
BLACK
6
CONTINUOUS
10
6.06803
20
-3.7327
11
6.0665
21
-3.733
0
LINE
8
BLACK
6
CONTINUOUS
10
6.0665
20
-3.733
11
6.0015
21
-3.733
0
LINE
8
BLACK
6
CONTINUOUS
10
6.0015
20
-3.733
11
5.99997
21
-3.7327
0
LINE
8
BLACK
6
CONTINUOUS
10
5.99997
20
-3.7327
11
5.99867
21
-3.73183
0
LINE
8
BLACK
6
CONTINUOUS
10
5.99867
20
-3.73183
11
5.9978
21
-3.73053
0
LINE
8
BLACK
6
CONTINUOUS
10
5.9978
20
-3.73053
11
5.9975
21
-3.729
0
LINE
8
BLACK
6
CONTINUOUS
10
5.9975
20
-3.729
11
5.9975
21
-3.664
0
LINE
8
BLACK
6
CONTINUOUS
10
5.9975
20
-3.664
11
5.9978
21
-3.66247
0
LINE
8
BLACK
6
CONTINUOUS
10
5.9978
20
-3.66247
11
5.99867
21
-3.66117
0
LINE
8
BLACK
6
CONTINUOUS
10
5.99867
20
-3.66117
11
5.99997
21
-3.6603
0
LINE
8
BLACK
6
CONTINUOUS
10
5.99997
20
-3.6603
11
6.0015
21
-3.66
0
LINE
8
BLACK
6
CONTINUOUS
10
6.0015
20
-3.66
11
6.0665
21
-3.66
0
LINE
8
BLACK
6
CONTINUOUS
10
6.0665
20
-3.66
11
6.06803
21
-3.6603
0
LINE
8
BLACK
6
CONTINUOUS
10
5.45381
20
-3.4032
11
5.4679
21
-3.40476
0
LINE
8
BLACK
6
CONTINUOUS
10
5.4679
20
-3.40476
11
5.48173
21
-3.40783
0
LINE
8
BLACK
6
CONTINUOUS
10
5.48173
20
-3.40783
11
5.49515
21
-3.41237
0
LINE
8
BLACK
6
CONTINUOUS
10
5.49515
20
-3.41237
11
5.508
21
-3.41833
0
LINE
8
BLACK
6
CONTINUOUS
10
5.508
20
-3.41833
11
5.52013
21
-3.42565
0
LINE
8
BLACK
6
CONTINUOUS
10
5.52013
20
-3.42565
11
5.5314
21
-3.43424
0
LINE
8
BLACK
6
CONTINUOUS
10
5.5314
20
-3.43424
11
5.54168
21
-3.44399
0
LINE
8
BLACK
6
CONTINUOUS
10
5.54168
20
-3.44399
11
5.55085
21
-3.4548
0
LINE
8
BLACK
6
CONTINUOUS
10
5.55085
20
-3.4548
11
5.55879
21
-3.46653
0
LINE
8
BLACK
6
CONTINUOUS
10
5.55879
20
-3.46653
11
5.56542
21
-3.47905
0
LINE
8
BLACK
6
CONTINUOUS
10
5.56542
20
-3.47905
11
5.57066
21
-3.49222
0
LINE
8
BLACK
6
CONTINUOUS
10
5.57066
20
-3.49222
11
5.57444
21
-3.50587
0
LINE
8
BLACK
6
CONTINUOUS
10
5.57444
20
-3.50587
11
5.57673
21
-3.51985
0
LINE
8
BLACK
6
CONTINUOUS
10
5.57673
20
-3.51985
11
5.5775
21
-3.534
0
LINE
8
BLACK
6
CONTINUOUS
10
5.5775
20
-3.534
11
5.5775
21
-3.53491
0
LINE
8
BLACK
6
CONTINUOUS
10
5.5775
20
-3.53491
11
5.57663
21
-3.54906
0
LINE
8
BLACK
6
CONTINUOUS
10
5.57663
20
-3.54906
11
5.57424
21
-3.56302
0
LINE
8
BLACK
6
CONTINUOUS
10
5.57424
20
-3.56302
11
5.57036
21
-3.57665
0
LINE
8
BLACK
6
CONTINUOUS
10
5.57036
20
-3.57665
11
5.56503
21
-3.58978
0
LINE
8
BLACK
6
CONTINUOUS
10
5.56503
20
-3.58978
11
5.55832
21
-3.60225
0
LINE
8
BLACK
6
CONTINUOUS
10
5.55832
20
-3.60225
11
5.55029
21
-3.61393
0
LINE
8
BLACK
6
CONTINUOUS
10
5.55029
20
-3.61393
11
5.54105
21
-3.62467
0
LINE
8
BLACK
6
CONTINUOUS
10
5.54105
20
-3.62467
11
5.53071
21
-3.63435
0
LINE
8
BLACK
6
CONTINUOUS
10
5.53071
20
-3.63435
11
5.51937
21
-3.64286
0
LINE
8
BLACK
6
CONTINUOUS
10
5.51937
20
-3.64286
11
5.50719
21
-3.65009
0
LINE
8
BLACK
6
CONTINUOUS
10
5.50719
20
-3.65009
11
5.4943
21
-3.65597
0
LINE
8
BLACK
6
CONTINUOUS
10
5.4943
20
-3.65597
11
5.48085
21
-3.66042
0
LINE
8
BLACK
6
CONTINUOUS
10
5.48085
20
-3.66042
11
5.46699
21
-3.66339
0
LINE
8
BLACK
6
CONTINUOUS
10
5.46699
20
-3.66339
11
5.4529
21
-3.66484
0
LINE
8
BLACK
6
CONTINUOUS
10
5.4529
20
-3.66484
11
5.43873
21
-3.66477
0
LINE
8
BLACK
6
CONTINUOUS
10
5.43873
20
-3.66477
11
5.42465
21
-3.66317
0
LINE
8
BLACK
6
CONTINUOUS
10
5.42465
20
-3.66317
11
5.41083
21
-3.66005
0
LINE
8
BLACK
6
CONTINUOUS
10
5.41083
20
-3.66005
11
5.39743
21
-3.65546
0
LINE
8
BLACK
6
CONTINUOUS
10
5.39743
20
-3.65546
11
5.3846
21
-3.64945
0
LINE
8
BLACK
6
CONTINUOUS
10
5.3846
20
-3.64945
11
5.37249
21
-3.64209
0
LINE
8
BLACK
6
CONTINUOUS
10
5.37249
20
-3.64209
11
5.36125
21
-3.63346
0
LINE
8
BLACK
6
CONTINUOUS
10
5.36125
20
-3.63346
11
5.35101
21
-3.62368
0
LINE
8
BLACK
6
CONTINUOUS
10
5.35101
20
-3.62368
11
5.34188
21
-3.61284
0
LINE
8
BLACK
6
CONTINUOUS
10
5.34188
20
-3.61284
11
5.33398
21
-3.60108
0
LINE
8
BLACK
6
CONTINUOUS
10
5.33398
20
-3.60108
11
5.32739
21
-3.58853
0
LINE
8
BLACK
6
CONTINUOUS
10
5.32739
20
-3.58853
11
5.3222
21
-3.57535
0
LINE
8
BLACK
6
CONTINUOUS
10
5.3222
20
-3.57535
11
5.31846
21
-3.56168
0
LINE
8
BLACK
6
CONTINUOUS
10
5.31846
20
-3.56168
11
5.31622
21
-3.54769
0
LINE
8
BLACK
6
CONTINUOUS
10
5.31622
20
-3.54769
11
5.3155
21
-3.53354
0
LINE
8
BLACK
6
CONTINUOUS
10
5.3155
20
-3.53354
11
5.31632
21
-3.5194
0
LINE
8
BLACK
6
CONTINUOUS
10
5.31632
20
-3.5194
11
5.31865
21
-3.50542
0
LINE
8
BLACK
6
CONTINUOUS
10
5.31865
20
-3.50542
11
5.32249
21
-3.49178
0
LINE
8
BLACK
6
CONTINUOUS
10
5.32249
20
-3.49178
11
5.32777
21
-3.47864
0
LINE
8
BLACK
6
CONTINUOUS
10
5.32777
20
-3.47864
11
5.33445
21
-3.46614
0
LINE
8
BLACK
6
CONTINUOUS
10
5.33445
20
-3.46614
11
5.34243
21
-3.45443
0
LINE
8
BLACK
6
CONTINUOUS
10
5.34243
20
-3.45443
11
5.35163
21
-3.44366
0
LINE
8
BLACK
6
CONTINUOUS
10
5.35163
20
-3.44366
11
5.36195
21
-3.43394
0
LINE
8
BLACK
6
CONTINUOUS
10
5.36195
20
-3.43394
11
5.37325
21
-3.4254
0
LINE
8
BLACK
6
CONTINUOUS
10
5.37325
20
-3.4254
11
5.3854
21
-3.41812
0
LINE
8
BLACK
6
CONTINUOUS
10
5.3854
20
-3.41812
11
5.39828
21
-3.4122
0
LINE
8
BLACK
6
CONTINUOUS
10
5.39828
20
-3.4122
11
5.41171
21
-3.4077
0
LINE
8
BLACK
6
CONTINUOUS
10
5.41171
20
-3.4077
11
5.42556
21
-3.40469
0
LINE
8
BLACK
6
CONTINUOUS
10
5.42556
20
-3.40469
11
5.43964
21
-3.40318
0
LINE
8
BLACK
6
CONTINUOUS
10
5.43964
20
-3.40318
11
5.45381
21
-3.4032
0
LINE
8
BLACK
6
CONTINUOUS
10
6.25381
20
-3.4032
11
6.2679
21
-3.40476
0
LINE
8
BLACK
6
CONTINUOUS
10
6.2679
20
-3.40476
11
6.28173
21
-3.40783
0
LINE
8
BLACK
6
CONTINUOUS
10
6.28173
20
-3.40783
11
6.29515
21
-3.41237
0
LINE
8
BLACK
6
CONTINUOUS
10
6.29515
20
-3.41237
11
6.308
21
-3.41833
0
LINE
8
BLACK
6
CONTINUOUS
10
6.308
20
-3.41833
11
6.32013
21
-3.42565
0
LINE
8
BLACK
6
CONTINUOUS
10
6.32013
20
-3.42565
11
6.3314
21
-3.43424
0
LINE
8
BLACK
6
CONTINUOUS
10
6.3314
20
-3.43424
11
6.34168
21
-3.44399
0
LINE
8
BLACK
6
CONTINUOUS
10
6.34168
20
-3.44399
11
6.35085
21
-3.4548
0
LINE
8
BLACK
6
CONTINUOUS
10
6.35085
20
-3.4548
11
6.35879
21
-3.46653
0
LINE
8
BLACK
6
CONTINUOUS
10
6.35879
20
-3.46653
11
6.36542
21
-3.47905
0
LINE
8
BLACK
6
CONTINUOUS
10
6.36542
20
-3.47905
11
6.37066
21
-3.49222
0
LINE
8
BLACK
6
CONTINUOUS
10
6.37066
20
-3.49222
11
6.37444
21
-3.50587
0
LINE
8
BLACK
6
CONTINUOUS
10
6.37444
20
-3.50587
11
6.37673
21
-3.51985
0
LINE
8
BLACK
6
CONTINUOUS
10
6.37673
20
-3.51985
11
6.3775
21
-3.534
0
LINE
8
BLACK
6
CONTINUOUS
10
6.3775
20
-3.534
11
6.3775
21
-3.53491
0
LINE
8
BLACK
6
CONTINUOUS
10
6.3775
20
-3.53491
11
6.37663
21
-3.54906
0
LINE
8
BLACK
6
CONTINUOUS
10
6.37663
20
-3.54906
11
6.37424
21
-3.56302
0
LINE
8
BLACK
6
CONTINUOUS
10
6.37424
20
-3.56302
11
6.37036
21
-3.57665
0
LINE
8
BLACK
6
CONTINUOUS
10
6.37036
20
-3.57665
11
6.36503
21
-3.58978
0
LINE
8
BLACK
6
CONTINUOUS
10
6.36503
20
-3.58978
11
6.35832
21
-3.60225
0
LINE
8
BLACK
6
CONTINUOUS
10
6.35832
20
-3.60225
11
6.35029
21
-3.61393
0
LINE
8
BLACK
6
CONTINUOUS
10
6.35029
20
-3.61393
11
6.34105
21
-3.62467
0
LINE
8
BLACK
6
CONTINUOUS
10
6.34105
20
-3.62467
11
6.33071
21
-3.63435
0
LINE
8
BLACK
6
CONTINUOUS
10
6.33071
20
-3.63435
11
6.31937
21
-3.64286
0
LINE
8
BLACK
6
CONTINUOUS
10
6.31937
20
-3.64286
11
6.30719
21
-3.65009
0
LINE
8
BLACK
6
CONTINUOUS
10
6.30719
20
-3.65009
11
6.2943
21
-3.65597
0
LINE
8
BLACK
6
CONTINUOUS
10
6.2943
20
-3.65597
11
6.28085
21
-3.66042
0
LINE
8
BLACK
6
CONTINUOUS
10
6.28085
20
-3.66042
11
6.26699
21
-3.66339
0
LINE
8
BLACK
6
CONTINUOUS
10
6.26699
20
-3.66339
11
6.2529
21
-3.66484
0
LINE
8
BLACK
6
CONTINUOUS
10
6.2529
20
-3.66484
11
6.23873
21
-3.66477
0
LINE
8
BLACK
6
CONTINUOUS
10
6.23873
20
-3.66477
11
6.22465
21
-3.66317
0
LINE
8
BLACK
6
CONTINUOUS
10
6.22465
20
-3.66317
11
6.21083
21
-3.66005
0
LINE
8
BLACK
6
CONTINUOUS
10
6.21083
20
-3.66005
11
6.19743
21
-3.65546
0
LINE
8
BLACK
6
CONTINUOUS
10
6.19743
20
-3.65546
11
6.1846
21
-3.64945
0
LINE
8
BLACK
6
CONTINUOUS
10
6.1846
20
-3.64945
11
6.17249
21
-3.64209
0
LINE
8
BLACK
6
CONTINUOUS
10
6.17249
20
-3.64209
11
6.16125
21
-3.63346
0
LINE
8
BLACK
6
CONTINUOUS
10
6.16125
20
-3.63346
11
6.15101
21
-3.62368
0
LINE
8
BLACK
6
CONTINUOUS
10
6.15101
20
-3.62368
11
6.14188
21
-3.61284
0
LINE
8
BLACK
6
CONTINUOUS
10
6.14188
20
-3.61284
11
6.13398
21
-3.60108
0
LINE
8
BLACK
6
CONTINUOUS
10
6.13398
20
-3.60108
11
6.12739
21
-3.58853
0
LINE
8
BLACK
6
CONTINUOUS
10
6.12739
20
-3.58853
11
6.1222
21
-3.57535
0
LINE
8
BLACK
6
CONTINUOUS
10
6.1222
20
-3.57535
11
6.11846
21
-3.56168
0
LINE
8
BLACK
6
CONTINUOUS
10
6.11846
20
-3.56168
11
6.11622
21
-3.54769
0
LINE
8
BLACK
6
CONTINUOUS
10
6.11622
20
-3.54769
11
6.1155
21
-3.53354
0
LINE
8
BLACK
6
CONTINUOUS
10
6.1155
20
-3.53354
11
6.11632
21
-3.5194
0
LINE
8
BLACK
6
CONTINUOUS
10
6.11632
20
-3.5194
11
6.11865
21
-3.50542
0
LINE
8
BLACK
6
CONTINUOUS
10
6.11865
20
-3.50542
11
6.12249
21
-3.49178
0
LINE
8
BLACK
6
CONTINUOUS
10
6.12249
20
-3.49178
11
6.12777
21
-3.47864
0
LINE
8
BLACK
6
CONTINUOUS
10
6.12777
20
-3.47864
11
6.13445
21
-3.46614
0
LINE
8
BLACK
6
CONTINUOUS
10
6.13445
20
-3.46614
11
6.14243
21
-3.45443
0
LINE
8
BLACK
6
CONTINUOUS
10
6.14243
20
-3.45443
11
6.15163
21
-3.44366
0
LINE
8
BLACK
6
CONTINUOUS
10
6.15163
20
-3.44366
11
6.16195
21
-3.43394
0
LINE
8
BLACK
6
CONTINUOUS
10
6.16195
20
-3.43394
11
6.17325
21
-3.4254
0
LINE
8
BLACK
6
CONTINUOUS
10
6.17325
20
-3.4254
11
6.1854
21
-3.41812
0
LINE
8
BLACK
6
CONTINUOUS
10
6.1854
20
-3.41812
11
6.19828
21
-3.4122
0
LINE
8
BLACK
6
CONTINUOUS
10
6.19828
20
-3.4122
11
6.21171
21
-3.4077
0
LINE
8
BLACK
6
CONTINUOUS
10
6.21171
20
-3.4077
11
6.22556
21
-3.40469
0
LINE
8
BLACK
6
CONTINUOUS
10
6.22556
20
-3.40469
11
6.23964
21
-3.40318
0
LINE
8
BLACK
6
CONTINUOUS
10
6.23964
20
-3.40318
11
6.25381
21
-3.4032
0
LINE
8
BLACK
6
CONTINUOUS
10
6.06803
20
-3.5603
11
6.06933
21
-3.56117
0
LINE
8
BLACK
6
CONTINUOUS
10
6.06933
20
-3.56117
11
6.0702
21
-3.56247
0
LINE
8
BLACK
6
CONTINUOUS
10
6.0702
20
-3.56247
11
6.0705
21
-3.564
0
LINE
8
BLACK
6
CONTINUOUS
10
6.0705
20
-3.564
11
6.0705
21
-3.629
0
LINE
8
BLACK
6
CONTINUOUS
10
6.0705
20
-3.629
11
6.0702
21
-3.63053
0
LINE
8
BLACK
6
CONTINUOUS
10
6.0702
20
-3.63053
11
6.06933
21
-3.63183
0
LINE
8
BLACK
6
CONTINUOUS
10
6.06933
20
-3.63183
11
6.06803
21
-3.6327
0
LINE
8
BLACK
6
CONTINUOUS
10
6.06803
20
-3.6327
11
6.0665
21
-3.633
0
LINE
8
BLACK
6
CONTINUOUS
10
6.0665
20
-3.633
11
6.0015
21
-3.633
0
LINE
8
BLACK
6
CONTINUOUS
10
6.0015
20
-3.633
11
5.99997
21
-3.6327
0
LINE
8
BLACK
6
CONTINUOUS
10
5.99997
20
-3.6327
11
5.99867
21
-3.63183
0
LINE
8
BLACK
6
CONTINUOUS
10
5.99867
20
-3.63183
11
5.9978
21
-3.63053
0
LINE
8
BLACK
6
CONTINUOUS
10
5.9978
20
-3.63053
11
5.9975
21
-3.629
0
LINE
8
BLACK
6
CONTINUOUS
10
5.9975
20
-3.629
11
5.9975
21
-3.564
0
LINE
8
BLACK
6
CONTINUOUS
10
5.9975
20
-3.564
11
5.9978
21
-3.56247
0
LINE
8
BLACK
6
CONTINUOUS
10
5.9978
20
-3.56247
11
5.99867
21
-3.56117
0
LINE
8
BLACK
6
CONTINUOUS
10
5.99867
20
-3.56117
11
5.99997
21
-3.5603
0
LINE
8
BLACK
6
CONTINUOUS
10
5.99997
20
-3.5603
11
6.0015
21
-3.56
0
LINE
8
BLACK
6
CONTINUOUS
10
6.0015
20
-3.56
11
6.0665
21
-3.56
0
LINE
8
BLACK
6
CONTINUOUS
10
6.0665
20
-3.56
11
6.06803
21
-3.5603
0
LINE
8
BLACK
6
CONTINUOUS
10
5.96803
20
-3.5603
11
5.96933
21
-3.56117
0
LINE
8
BLACK
6
CONTINUOUS
10
5.96933
20
-3.56117
11
5.9702
21
-3.56247
0
LINE
8
BLACK
6
CONTINUOUS
10
5.9702
20
-3.56247
11
5.9705
21
-3.564
0
LINE
8
BLACK
6
CONTINUOUS
10
5.9705
20
-3.564
11
5.9705
21
-3.629
0
LINE
8
BLACK
6
CONTINUOUS
10
5.9705
20
-3.629
11
5.9702
21
-3.63053
0
LINE
8
BLACK
6
CONTINUOUS
10
5.9702
20
-3.63053
11
5.96933
21
-3.63183
0
LINE
8
BLACK
6
CONTINUOUS
10
5.96933
20
-3.63183
11
5.96803
21
-3.6327
0
LINE
8
BLACK
6
CONTINUOUS
10
5.96803
20
-3.6327
11
5.9665
21
-3.633
0
LINE
8
BLACK
6
CONTINUOUS
10
5.9665
20
-3.633
11
5.9015
21
-3.633
0
LINE
8
BLACK
6
CONTINUOUS
10
5.9015
20
-3.633
11
5.89997
21
-3.6327
0
LINE
8
BLACK
6
CONTINUOUS
10
5.89997
20
-3.6327
11
5.89867
21
-3.63183
0
LINE
8
BLACK
6
CONTINUOUS
10
5.89867
20
-3.63183
11
5.8978
21
-3.63053
0
LINE
8
BLACK
6
CONTINUOUS
10
5.8978
20
-3.63053
11
5.8975
21
-3.629
0
LINE
8
BLACK
6
CONTINUOUS
10
5.8975
20
-3.629
11
5.8975
21
-3.564
0
LINE
8
BLACK
6
CONTINUOUS
10
5.8975
20
-3.564
11
5.8978
21
-3.56247
0
LINE
8
BLACK
6
CONTINUOUS
10
5.8978
20
-3.56247
11
5.89867
21
-3.56117
0
LINE
8
BLACK
6
CONTINUOUS
10
5.89867
20
-3.56117
11
5.89997
21
-3.5603
0
LINE
8
BLACK
6
CONTINUOUS
10
5.89997
20
-3.5603
11
5.9015
21
-3.56
0
LINE
8
BLACK
6
CONTINUOUS
10
5.9015
20
-3.56
11
5.9665
21
-3.56
0
LINE
8
BLACK
6
CONTINUOUS
10
5.9665
20
-3.56
11
5.96803
21
-3.5603
0
LINE
8
BLACK
6
CONTINUOUS
10
5.86803
20
-3.5603
11
5.86933
21
-3.56117
0
LINE
8
BLACK
6
CONTINUOUS
10
5.86933
20
-3.56117
11
5.8702
21
-3.56247
0
LINE
8
BLACK
6
CONTINUOUS
10
5.8702
20
-3.56247
11
5.8705
21
-3.564
0
LINE
8
BLACK
6
CONTINUOUS
10
5.8705
20
-3.564
11
5.8705
21
-3.629
0
LINE
8
BLACK
6
CONTINUOUS
10
5.8705
20
-3.629
11
5.8702
21
-3.63053
0
LINE
8
BLACK
6
CONTINUOUS
10
5.8702
20
-3.63053
11
5.86933
21
-3.63183
0
LINE
8
BLACK
6
CONTINUOUS
10
5.86933
20
-3.63183
11
5.86803
21
-3.6327
0
LINE
8
BLACK
6
CONTINUOUS
10
5.86803
20
-3.6327
11
5.8665
21
-3.633
0
LINE
8
BLACK
6
CONTINUOUS
10
5.8665
20
-3.633
11
5.8015
21
-3.633
0
LINE
8
BLACK
6
CONTINUOUS
10
5.8015
20
-3.633
11
5.79997
21
-3.6327
0
LINE
8
BLACK
6
CONTINUOUS
10
5.79997
20
-3.6327
11
5.79867
21
-3.63183
0
LINE
8
BLACK
6
CONTINUOUS
10
5.79867
20
-3.63183
11
5.7978
21
-3.63053
0
LINE
8
BLACK
6
CONTINUOUS
10
5.7978
20
-3.63053
11
5.7975
21
-3.629
0
LINE
8
BLACK
6
CONTINUOUS
10
5.7975
20
-3.629
11
5.7975
21
-3.564
0
LINE
8
BLACK
6
CONTINUOUS
10
5.7975
20
-3.564
11
5.7978
21
-3.56247
0
LINE
8
BLACK
6
CONTINUOUS
10
5.7978
20
-3.56247
11
5.79867
21
-3.56117
0
LINE
8
BLACK
6
CONTINUOUS
10
5.79867
20
-3.56117
11
5.79997
21
-3.5603
0
LINE
8
BLACK
6
CONTINUOUS
10
5.79997
20
-3.5603
11
5.8015
21
-3.56
0
LINE
8
BLACK
6
CONTINUOUS
10
5.8015
20
-3.56
11
5.8665
21
-3.56
0
LINE
8
BLACK
6
CONTINUOUS
10
5.8665
20
-3.56
11
5.86803
21
-3.5603
0
LINE
8
BLACK
6
CONTINUOUS
10
6.06803
20
-3.4603
11
6.06933
21
-3.46117
0
LINE
8
BLACK
6
CONTINUOUS
10
6.06933
20
-3.46117
11
6.0702
21
-3.46247
0
LINE
8
BLACK
6
CONTINUOUS
10
6.0702
20
-3.46247
11
6.0705
21
-3.464
0
LINE
8
BLACK
6
CONTINUOUS
10
6.0705
20
-3.464
11
6.0705
21
-3.529
0
LINE
8
BLACK
6
CONTINUOUS
10
6.0705
20
-3.529
11
6.0702
21
-3.53053
0
LINE
8
BLACK
6
CONTINUOUS
10
6.0702
20
-3.53053
11
6.06933
21
-3.53183
0
LINE
8
BLACK
6
CONTINUOUS
10
6.06933
20
-3.53183
11
6.06803
21
-3.5327
0
LINE
8
BLACK
6
CONTINUOUS
10
6.06803
20
-3.5327
11
6.0665
21
-3.533
0
LINE
8
BLACK
6
CONTINUOUS
10
6.0665
20
-3.533
11
6.0015
21
-3.533
0
LINE
8
BLACK
6
CONTINUOUS
10
6.0015
20
-3.533
11
5.99997
21
-3.5327
0
LINE
8
BLACK
6
CONTINUOUS
10
5.99997
20
-3.5327
11
5.99867
21
-3.53183
0
LINE
8
BLACK
6
CONTINUOUS
10
5.99867
20
-3.53183
11
5.9978
21
-3.53053
0
LINE
8
BLACK
6
CONTINUOUS
10
5.9978
20
-3.53053
11
5.9975
21
-3.529
0
LINE
8
BLACK
6
CONTINUOUS
10
5.9975
20
-3.529
11
5.9975
21
-3.464
0
LINE
8
BLACK
6
CONTINUOUS
10
5.9975
20
-3.464
11
5.9978
21
-3.46247
0
LINE
8
BLACK
6
CONTINUOUS
10
5.9978
20
-3.46247
11
5.99867
21
-3.46117
0
LINE
8
BLACK
6
CONTINUOUS
10
5.99867
20
-3.46117
11
5.99997
21
-3.4603
0
LINE
8
BLACK
6
CONTINUOUS
10
5.99997
20
-3.4603
11
6.0015
21
-3.46
0
LINE
8
BLACK
6
CONTINUOUS
10
6.0015
20
-3.46
11
6.0665
21
-3.46
0
LINE
8
BLACK
6
CONTINUOUS
10
6.0665
20
-3.46
11
6.06803
21
-3.4603
0
LINE
8
BLACK
6
CONTINUOUS
10
5.96803
20
-3.4603
11
5.96933
21
-3.46117
0
LINE
8
BLACK
6
CONTINUOUS
10
5.96933
20
-3.46117
11
5.9702
21
-3.46247
0
LINE
8
BLACK
6
CONTINUOUS
10
5.9702
20
-3.46247
11
5.9705
21
-3.464
0
LINE
8
BLACK
6
CONTINUOUS
10
5.9705
20
-3.464
11
5.9705
21
-3.529
0
LINE
8
BLACK
6
CONTINUOUS
10
5.9705
20
-3.529
11
5.9702
21
-3.53053
0
LINE
8
BLACK
6
CONTINUOUS
10
5.9702
20
-3.53053
11
5.96933
21
-3.53183
0
LINE
8
BLACK
6
CONTINUOUS
10
5.96933
20
-3.53183
11
5.96803
21
-3.5327
0
LINE
8
BLACK
6
CONTINUOUS
10
5.96803
20
-3.5327
11
5.9665
21
-3.533
0
LINE
8
BLACK
6
CONTINUOUS
10
5.9665
20
-3.533
11
5.9015
21
-3.533
0
LINE
8
BLACK
6
CONTINUOUS
10
5.9015
20
-3.533
11
5.89997
21
-3.5327
0
LINE
8
BLACK
6
CONTINUOUS
10
5.89997
20
-3.5327
11
5.89867
21
-3.53183
0
LINE
8
BLACK
6
CONTINUOUS
10
5.89867
20
-3.53183
11
5.8978
21
-3.53053
0
LINE
8
BLACK
6
CONTINUOUS
10
5.8978
20
-3.53053
11
5.8975
21
-3.529
0
LINE
8
BLACK
6
CONTINUOUS
10
5.8975
20
-3.529
11
5.8975
21
-3.464
0
LINE
8
BLACK
6
CONTINUOUS
10
5.8975
20
-3.464
11
5.8978
21
-3.46247
0
LINE
8
BLACK
6
CONTINUOUS
10
5.8978
20
-3.46247
11
5.89867
21
-3.46117
0
LINE
8
BLACK
6
CONTINUOUS
10
5.89867
20
-3.46117
11
5.89997
21
-3.4603
0
LINE
8
BLACK
6
CONTINUOUS
10
5.89997
20
-3.4603
11
5.9015
21
-3.46
0
LINE
8
BLACK
6
CONTINUOUS
10
5.9015
20
-3.46
11
5.9665
21
-3.46
0
LINE
8
BLACK
6
CONTINUOUS
10
5.9665
20
-3.46
11
5.96803
21
-3.4603
0
LINE
8
BLACK
6
CONTINUOUS
10
5.86803
20
-3.4603
11
5.86933
21
-3.46117
0
LINE
8
BLACK
6
CONTINUOUS
10
5.86933
20
-3.46117
11
5.8702
21
-3.46247
0
LINE
8
BLACK
6
CONTINUOUS
10
5.8702
20
-3.46247
11
5.8705
21
-3.464
0
LINE
8
BLACK
6
CONTINUOUS
10
5.8705
20
-3.464
11
5.8705
21
-3.529
0
LINE
8
BLACK
6
CONTINUOUS
10
5.8705
20
-3.529
11
5.8702
21
-3.53053
0
LINE
8
BLACK
6
CONTINUOUS
10
5.8702
20
-3.53053
11
5.86933
21
-3.53183
0
LINE
8
BLACK
6
CONTINUOUS
10
5.86933
20
-3.53183
11
5.86803
21
-3.5327
0
LINE
8
BLACK
6
CONTINUOUS
10
5.86803
20
-3.5327
11
5.8665
21
-3.533
0
LINE
8
BLACK
6
CONTINUOUS
10
5.8665
20
-3.533
11
5.8015
21
-3.533
0
LINE
8
BLACK
6
CONTINUOUS
10
5.8015
20
-3.533
11
5.79997
21
-3.5327
0
LINE
8
BLACK
6
CONTINUOUS
10
5.79997
20
-3.5327
11
5.79867
21
-3.53183
0
LINE
8
BLACK
6
CONTINUOUS
10
5.79867
20
-3.53183
11
5.7978
21
-3.53053
0
LINE
8
BLACK
6
CONTINUOUS
10
5.7978
20
-3.53053
11
5.7975
21
-3.529
0
LINE
8
BLACK
6
CONTINUOUS
10
5.7975
20
-3.529
11
5.7975
21
-3.464
0
LINE
8
BLACK
6
CONTINUOUS
10
5.7975
20
-3.464
11
5.7978
21
-3.46247
0
LINE
8
BLACK
6
CONTINUOUS
10
5.7978
20
-3.46247
11
5.79867
21
-3.46117
0
LINE
8
BLACK
6
CONTINUOUS
10
5.79867
20
-3.46117
11
5.79997
21
-3.4603
0
LINE
8
BLACK
6
CONTINUOUS
10
5.79997
20
-3.4603
11
5.8015
21
-3.46
0
LINE
8
BLACK
6
CONTINUOUS
10
5.8015
20
-3.46
11
5.8665
21
-3.46
0
LINE
8
BLACK
6
CONTINUOUS
10
5.8665
20
-3.46
11
5.86803
21
-3.4603
  0
ENDSEC
  0
EOF
